G04 DipTrace 2.3.1.0*
%INBottomMask.gbr*%
%MOMM*%
%ADD36C,1.5*%
%ADD39R,2.286X5.08*%
%ADD66C,0.9*%
%ADD67C,3.2*%
%ADD93C,1.4*%
%ADD96C,1.7*%
%FSLAX53Y53*%
G04*
G71*
G90*
G75*
G01*
%LNBotMask*%
%LPD*%
D66*
X47800Y15200D3*
X52200D3*
D67*
X56050Y76040D3*
X28110D3*
X12870Y25240D3*
X61130Y23970D3*
D36*
Y37940D3*
Y40480D3*
Y43020D3*
Y45560D3*
Y48100D3*
Y50640D3*
Y53180D3*
Y55720D3*
Y60800D3*
Y63340D3*
Y65880D3*
Y68420D3*
Y70960D3*
Y73500D3*
X12870D3*
Y70960D3*
Y68420D3*
Y65880D3*
Y63340D3*
Y60800D3*
Y58260D3*
Y55720D3*
Y51656D3*
Y49116D3*
Y46576D3*
Y44036D3*
Y41496D3*
Y38956D3*
Y36416D3*
Y33876D3*
Y31336D3*
Y28796D3*
D96*
X53510Y40480D3*
Y43020D3*
Y45560D3*
Y48100D3*
Y50640D3*
Y53180D3*
Y55720D3*
Y58260D3*
Y35400D3*
Y37940D3*
X56050Y40480D3*
Y43020D3*
Y45560D3*
Y48100D3*
Y50640D3*
Y53180D3*
Y55720D3*
Y58260D3*
Y35400D3*
Y37940D3*
D36*
X17950Y55720D3*
Y58260D3*
X15410Y55720D3*
Y58260D3*
Y50640D3*
Y48100D3*
D93*
X38150Y26700D3*
D36*
X15410Y45560D3*
D93*
X38150Y24100D3*
D36*
X15410Y43020D3*
D93*
X38150Y19850D3*
D36*
X15410Y40480D3*
D93*
X34450Y18550D3*
D36*
X15410Y37940D3*
D93*
X31550Y18550D3*
D36*
X15410Y35400D3*
D93*
X28650Y18550D3*
D36*
X15410Y32860D3*
D93*
X25000Y19850D3*
D36*
X15410Y30320D3*
Y27780D3*
X45890Y70960D3*
D93*
X25000Y24100D3*
D36*
X45890Y73500D3*
D93*
X25000Y26700D3*
D36*
X53510Y70960D3*
D93*
X25000Y29300D3*
D36*
X53510Y73500D3*
D93*
X25000Y33650D3*
X38150Y29300D3*
G36*
X17545Y39348D2*
X22431Y37569D1*
X20653Y32683D1*
X15766Y34462D1*
X17545Y39348D1*
G37*
G36*
X53347Y26317D2*
X58234Y24538D1*
X56455Y19652D1*
X51569Y21431D1*
X53347Y26317D1*
G37*
D93*
X28650Y34850D3*
X31550D3*
D39*
X32580Y77050D3*
D93*
X34450Y34850D3*
D39*
X41420Y77050D3*
D93*
X38150Y33650D3*
X32850Y28000D3*
X30250Y25400D3*
Y28000D3*
X32850Y25400D3*
M02*
