G04 DipTrace 2.3.1.0*
%INBottom.gbr*%
%MOMM*%
%ADD13C,0.153*%
%ADD14C,0.3*%
%ADD15C,0.5*%
%ADD16C,0.4*%
%ADD19C,0.2*%
%ADD20C,0.16*%
%ADD21C,0.7*%
%ADD36C,1.5*%
%ADD38C,1.2*%
%ADD39R,2.286X5.08*%
%ADD62C,0.458*%
%ADD64C,0.636*%
%FSLAX53Y53*%
G04*
G71*
G90*
G75*
G01*
%LNBottom*%
%LPD*%
X15410Y35400D2*
D15*
X17500Y34450D1*
D14*
X19099Y36016D1*
X31700Y54075D2*
D13*
X31900Y54175D1*
X32350D1*
X32600Y54325D1*
X29950Y57400D2*
X29650Y57300D1*
X28850Y57050D1*
X27050Y49750D2*
Y52200D1*
X24200Y55050D1*
Y62450D1*
X13150Y73500D1*
X12870D1*
Y63340D2*
Y63150D1*
X13450D1*
X13850Y62750D1*
X18600D1*
X21550Y59800D1*
Y53300D1*
X28750Y46100D1*
X31400Y41400D2*
Y34850D1*
X31550D1*
X26050Y50750D2*
Y52100D1*
X23500Y54650D1*
Y61950D1*
X17000Y68450D1*
X12900D1*
X12870Y68420D1*
X26550Y50250D2*
Y52150D1*
X23850Y54850D1*
Y62200D1*
X15300Y70750D1*
X13080D1*
X12870Y70960D1*
X16700Y45600D2*
D19*
Y40000D1*
X15750Y38600D1*
D13*
X15400Y37950D1*
X15410Y37940D1*
D14*
X13450Y38700D1*
D13*
X12870Y38956D1*
X15410Y43020D2*
D14*
X13500Y43800D1*
D13*
X12870Y44036D1*
Y60800D2*
X17200D1*
X19100Y58900D1*
Y53000D1*
X26500Y45600D1*
X29250D1*
X29240Y45720D1*
X29070D1*
X28950Y45600D1*
X15410Y58260D2*
D14*
X12870D1*
X29750Y46100D2*
D13*
Y45550D1*
X29450Y45250D1*
X26350D1*
X16650Y54950D1*
Y57550D1*
X15940Y58260D1*
X15410D1*
Y55720D2*
D14*
X12870D1*
X15410D2*
D13*
Y55690D1*
X26180Y44920D1*
X29640D1*
X30250Y45500D1*
Y45700D1*
X44300Y55000D2*
Y50250D1*
X39250Y45200D1*
X31800D1*
X30750Y44150D1*
X12870Y28796D2*
D15*
X13800Y28450D1*
X14097Y28332D1*
D13*
Y30947D1*
X14700Y31550D1*
X20050D1*
X20950Y32450D1*
X24750Y42950D1*
X25100Y43300D1*
X27850D1*
X28500Y43950D1*
X30450D1*
X30650Y44150D1*
X30750D1*
X14097Y28332D2*
D15*
X14550Y28150D1*
X15410Y27780D1*
X45000Y55000D2*
D13*
Y54850D1*
X44650Y54500D1*
Y50100D1*
X39400Y44850D1*
X32350D1*
X31250Y43750D1*
X31197D1*
X31017Y43605D1*
X28705D1*
X28050Y42950D1*
X25250D1*
X25050Y42750D1*
X21250Y32250D1*
X20200Y31200D1*
X16350D1*
X15440Y30290D1*
X15410Y30320D1*
X32250Y46100D2*
X31879Y45950D1*
X31250D1*
X29900Y44600D1*
X26000D1*
X19950Y50650D1*
X15420D1*
X15410Y50640D1*
X32750Y45720D2*
X32404Y45600D1*
X31450D1*
X30130Y44280D1*
X25820D1*
X22000Y48100D1*
X15410D1*
X12870Y65880D2*
Y65780D1*
X13950Y64700D1*
X17250D1*
X21900Y60050D1*
Y53450D1*
X28150Y47200D1*
X35100D1*
X33400Y44350D2*
X30850Y41800D1*
Y37000D1*
X28650Y34800D1*
Y34850D1*
X34150Y54275D2*
X33630Y54795D1*
X31520D1*
X30640Y55675D1*
Y56155D1*
X30040Y56755D1*
X49750Y40350D2*
X52100Y42700D1*
Y46690D1*
X53510Y48100D1*
X48437Y40313D2*
X48863D1*
X49400Y40850D1*
X49750D1*
X51750Y42850D1*
Y48880D1*
X53510Y50640D1*
X47750Y17600D2*
X47850Y17500D1*
X53510Y40480D2*
X53530D1*
X54750Y41700D1*
X56750D1*
X58070Y43020D1*
X61130D1*
D62*
X37850Y50200D3*
X33950Y58725D3*
X36200Y44350D3*
X49600Y19800D3*
X27600Y43800D3*
X55350Y25950D3*
X31700Y54075D3*
X32600Y54325D3*
X29950Y57400D3*
X28850Y57050D3*
X43650Y24400D3*
Y25050D3*
Y23750D3*
Y23100D3*
X54800Y28300D3*
X27050Y49750D3*
X28750Y46100D3*
X31400Y41400D3*
X28750Y46100D3*
X26050Y50750D3*
X26550Y50250D3*
X16700Y45600D3*
X29240Y45720D3*
X29750Y46100D3*
X30250Y45700D3*
X44300Y55000D3*
X30750Y44150D3*
X45000Y55000D3*
X31250Y43750D3*
X32250Y46100D3*
X32750Y45720D3*
X35100Y47200D3*
X33400Y44350D3*
X35100Y47200D3*
X35000Y49250D3*
X34150Y54275D3*
X30040Y56755D3*
D3*
X49750Y40350D3*
X48437Y40313D3*
X47750Y17600D3*
X49600Y23250D3*
X48400Y19300D3*
X47750Y16750D3*
Y18500D3*
X51650Y25450D3*
X51050D3*
X51650Y27350D3*
X51050D3*
X27850Y53775D3*
X30096Y58084D3*
X35800Y50425D3*
X27600Y46250D3*
X39885Y49765D3*
X34200Y46625D3*
X34600Y44050D3*
X26700Y53350D3*
Y54440D3*
X28850Y58300D3*
X35500Y56400D3*
X33800Y64950D3*
X42250Y44250D3*
D64*
X28750Y52275D3*
X33250D3*
X29850D3*
X31000D3*
D62*
X51800Y55950D3*
X43950D3*
X54750Y67100D3*
D64*
X28750Y49125D3*
X33250D3*
X29850D3*
X31000D3*
X28750Y47775D3*
X33250D3*
X29850D3*
X31000D3*
X31650Y57775D3*
X32550D3*
X33450D3*
X31650Y56875D3*
X32550D3*
X33450D3*
X31650Y55975D3*
X32550D3*
X33450D3*
D62*
X43950Y62950D3*
X42600Y49850D3*
D64*
X28750Y50475D3*
D62*
X47500Y69200D3*
X44450Y65450D3*
D64*
X33250Y50475D3*
X29850D3*
X31000D3*
X32150Y52275D3*
D62*
X50950Y47000D3*
D64*
X32150Y49125D3*
Y47775D3*
Y50475D3*
D62*
X45600Y67550D3*
X43950Y58300D3*
X50600Y30250D3*
X42300Y23850D3*
X43950Y60700D3*
X47950Y27450D3*
X43650Y21500D3*
X42150Y19550D3*
X29500Y42500D3*
X28700Y30500D3*
X45600Y21500D3*
X46700Y47950D3*
X52400Y67000D3*
X43650Y19550D3*
X20850Y35450D3*
X57350Y72300D3*
X51900Y61450D3*
X45500Y53850D3*
X39750Y42500D3*
X45600Y19550D3*
X29300Y32400D3*
X50250Y51000D3*
X37750Y42500D3*
X49550Y42450D3*
X47050D3*
X43400Y43400D3*
X32600Y42500D3*
X36950Y47400D3*
X43450Y47000D3*
X35150Y42500D3*
X59500Y29650D3*
X58800Y23000D3*
X50250Y59650D3*
X61000Y21000D3*
X53900Y19650D3*
X58200Y21000D3*
X47150Y60250D3*
Y57150D3*
X33550Y30500D3*
X35750D3*
X52000Y58750D3*
X54750Y72300D3*
X35800Y28000D3*
X38000D3*
X35800Y25400D3*
X37100Y22200D3*
X48450Y53750D3*
X31500Y21900D3*
X34750Y21100D3*
X39050Y61000D3*
Y62000D3*
X39100Y22200D3*
X39050Y64000D3*
Y60000D3*
Y63000D3*
X17550Y35300D3*
X49950Y48550D3*
X34750Y23200D3*
X60200Y59850D3*
X47100Y54050D3*
X54750Y62050D3*
X60200Y64650D3*
Y67100D3*
Y72300D3*
X39050Y68000D3*
X41000Y53000D3*
X50100Y66250D3*
X59400Y39100D3*
X49950Y56600D3*
X12000Y23000D3*
X49300Y46000D3*
X45700Y61850D3*
X49850Y53400D3*
X37800Y68000D3*
X60200Y62050D3*
X18250Y37550D3*
X17000Y33000D3*
X48500Y56900D3*
X16800Y49550D3*
X26650Y31400D3*
X37400Y39450D3*
X31200Y30500D3*
X25300Y48850D3*
X37400Y37100D3*
X24200Y44800D3*
X16800Y47150D3*
X14250Y34500D3*
Y44850D3*
X24200Y43000D3*
X26250Y47000D3*
X38200Y31200D3*
X42550Y32550D3*
X44350Y31300D3*
X26250Y42300D3*
X43200Y30100D3*
X24150Y37100D3*
X14800Y29100D3*
X26400Y35750D3*
X40600Y31250D3*
X40950Y33550D3*
X39850Y35550D3*
X37400D3*
X42150Y21500D3*
X23500Y17800D3*
X25000D3*
X30000D3*
X33000D3*
X30000Y19800D3*
X33000D3*
X27000Y17800D3*
X27400Y22000D3*
X28500Y20900D3*
X30200Y23200D3*
X32400D3*
X33100Y21900D3*
X42000Y17800D3*
X25550Y22000D3*
X23750D3*
X55800Y16900D3*
Y12900D3*
X24950Y39250D3*
X29400Y37100D3*
X26950Y37850D3*
X29400Y39450D3*
X15350Y24600D3*
X14250Y32100D3*
X42800Y27000D3*
X33400Y37100D3*
X57750Y25000D3*
X44250Y28850D3*
X45050D3*
X45850D3*
X16750Y53000D3*
X57750Y26500D3*
X45050Y26950D3*
X45950D3*
X52200Y29100D3*
X51600D3*
X52750D3*
X57750Y25750D3*
X14800Y41800D3*
X41400Y36200D3*
Y39450D3*
X19500Y32350D3*
X54600Y29950D3*
X46400Y34350D3*
X55950Y30950D3*
X14250Y37200D3*
X57500Y30950D3*
X55100Y32150D3*
X56700Y30950D3*
X53700Y29950D3*
X31800Y32400D3*
X46750Y31050D3*
X28100Y60500D3*
X44200Y33450D3*
X45050Y39450D3*
X14200Y49750D3*
X47900Y24350D3*
Y21100D3*
X50150Y27450D3*
Y24850D3*
X40600Y29050D3*
X51050Y20150D3*
X51100Y23000D3*
X48750Y32000D3*
X14250Y39650D3*
X27750Y41000D3*
X40600Y27050D3*
X21000Y47500D3*
X14200Y53000D3*
X19650Y57150D3*
X17750Y61750D3*
X20000Y67400D3*
X19500Y46000D3*
X41000Y54000D3*
X16700Y59600D3*
X38550Y56450D3*
X19900Y60050D3*
X16650Y63700D3*
X22750Y57000D3*
X19600Y64050D3*
X18000Y65700D3*
X14250Y59600D3*
X38000Y17800D3*
X22750Y59000D3*
X15000Y23000D3*
X40600Y23050D3*
X13000Y23000D3*
X40600Y21050D3*
X44000Y17800D3*
X36000D3*
X14000Y23000D3*
X16000D3*
X34450Y32400D3*
X46100Y15400D3*
X52050Y64350D3*
X40600Y25000D3*
Y19000D3*
X50000Y15400D3*
X54100D3*
X54750Y64650D3*
X48000Y13000D3*
X52000D3*
X49650Y62650D3*
X57000Y10700D3*
X59000D3*
X61000D3*
X50000Y13000D3*
X18550Y51400D3*
X18350Y54250D3*
X22750Y55200D3*
Y60900D3*
X23300Y53400D3*
X14250Y57000D3*
X21150Y62500D3*
X47750Y49850D3*
X57400Y64650D3*
X48500Y67600D3*
X37650Y56450D3*
X59550Y34300D3*
X47050Y44900D3*
X57350Y69650D3*
X14250Y55000D3*
X38850Y46400D3*
X33400Y39450D3*
X57350Y62050D3*
X36000Y69000D3*
X19400Y49600D3*
X43400Y37350D3*
X48600Y59950D3*
X51650Y49950D3*
Y53200D3*
X47750Y63750D3*
X57550Y59850D3*
X43650Y53000D3*
X54800Y59850D3*
X38550Y55450D3*
X35050Y58500D3*
X58050Y28200D3*
X60200Y69650D3*
X51450Y32850D3*
X51400Y36450D3*
X14200Y47250D3*
X49400Y35100D3*
X54750Y33700D3*
X47400Y37100D3*
X45100Y49850D3*
X46050Y64150D3*
X46950Y66000D3*
X50800Y68650D3*
X45700Y56450D3*
X54750Y69650D3*
X39050Y65000D3*
Y67000D3*
Y66000D3*
X41000Y61000D3*
X45700Y59150D3*
X59400Y44200D3*
Y42100D3*
Y36300D3*
X41000Y62000D3*
Y64000D3*
X50950Y43750D3*
X19750Y39400D3*
X59650Y32200D3*
X57350Y67150D3*
X41000Y60000D3*
Y63000D3*
Y68000D3*
Y65000D3*
Y67000D3*
Y66000D3*
X40100Y55450D3*
Y56450D3*
Y58450D3*
X41000Y55000D3*
X40100Y57450D3*
X41000Y59000D3*
Y56000D3*
Y58000D3*
Y57000D3*
X36100Y60600D3*
X35050Y59550D3*
X36100Y59150D3*
X34800Y62000D3*
Y64000D3*
Y63000D3*
X34400Y61200D3*
X34800Y65000D3*
X33800Y66000D3*
X34800D3*
X31800D3*
X32800D3*
X30450Y64400D3*
X31450D3*
X28450D3*
X29450D3*
X35000Y68000D3*
X36000D3*
X33000D3*
X34000D3*
X40700Y69000D3*
X39050Y70000D3*
X40050D3*
X38350Y71000D3*
X29950Y61400D3*
X38350Y72000D3*
Y74000D3*
Y73000D3*
X35650Y71000D3*
Y72000D3*
Y74000D3*
Y73000D3*
X34750Y75000D3*
Y79000D3*
X31800Y61400D3*
X30850D3*
X34750Y77000D3*
X39200Y75000D3*
Y79000D3*
Y77000D3*
X30900Y75000D3*
Y79000D3*
Y77000D3*
X43100Y75000D3*
Y79000D3*
Y77000D3*
X34000Y69400D3*
Y73400D3*
Y71400D3*
X32000Y69400D3*
Y73400D3*
Y71400D3*
X30000Y69400D3*
Y73400D3*
Y71400D3*
X28000Y69400D3*
Y73400D3*
X26000Y71400D3*
X24000Y69400D3*
Y73400D3*
X22000Y71400D3*
X20000Y69400D3*
Y73400D3*
X25000Y75000D3*
Y79000D3*
X23000D3*
Y77000D3*
X21000Y75000D3*
Y79000D3*
X19000D3*
Y77000D3*
X17000Y75000D3*
Y79000D3*
X15000D3*
Y77000D3*
X29000Y79000D3*
X27000D3*
X22000Y65400D3*
X16000Y65700D3*
X28550Y54500D3*
X22000Y46000D3*
X13000Y75000D3*
Y79000D3*
X11000Y75000D3*
Y79000D3*
Y77000D3*
Y69000D3*
Y73000D3*
Y71000D3*
Y63000D3*
Y67000D3*
Y65000D3*
Y57000D3*
Y61000D3*
Y59000D3*
Y51000D3*
Y55000D3*
Y53000D3*
Y45000D3*
Y49000D3*
Y47000D3*
Y39000D3*
Y43000D3*
Y41000D3*
Y33000D3*
Y37000D3*
Y35000D3*
Y27000D3*
Y31000D3*
Y29000D3*
X15350Y26300D3*
X10700Y24500D3*
X11000Y23000D3*
X63000Y75000D3*
Y79000D3*
Y77000D3*
Y69000D3*
Y73000D3*
Y71000D3*
Y63000D3*
Y67000D3*
Y65000D3*
Y57000D3*
Y61000D3*
Y59000D3*
Y51000D3*
Y55000D3*
Y53000D3*
Y45000D3*
Y49000D3*
Y47000D3*
Y39000D3*
Y43000D3*
Y41000D3*
Y33000D3*
Y37000D3*
Y35000D3*
Y27000D3*
Y31000D3*
Y29000D3*
X63150Y25000D3*
Y23000D3*
X63000Y17000D3*
Y21000D3*
Y19000D3*
Y11000D3*
Y15000D3*
Y13000D3*
X61200Y58250D3*
X59400Y53000D3*
Y57000D3*
Y55000D3*
Y47000D3*
Y51000D3*
Y49000D3*
X25000Y61500D3*
X24600Y65400D3*
X28100Y62550D3*
X25000Y55500D3*
Y59500D3*
Y57500D3*
X27000Y61500D3*
Y65500D3*
Y63500D3*
Y55500D3*
Y59500D3*
Y57500D3*
X24000Y63400D3*
X30000Y66000D3*
X59000Y79000D3*
Y77000D3*
X27800Y26400D3*
X57000Y79000D3*
X27850Y28800D3*
X55000Y79000D3*
X24400Y31400D3*
X53000Y75000D3*
Y79000D3*
X51000D3*
Y77000D3*
X49000Y75000D3*
Y79000D3*
X47000D3*
Y77000D3*
X45000Y75000D3*
Y79000D3*
X42500Y63000D3*
Y67000D3*
Y65000D3*
Y57400D3*
Y61400D3*
Y59400D3*
X49000Y73000D3*
Y71000D3*
X47350Y73000D3*
Y71000D3*
X45000Y69000D3*
X51000Y73000D3*
Y71000D3*
X43000Y69000D3*
Y73000D3*
Y71000D3*
X14250Y61700D3*
X41000Y73000D3*
Y71000D3*
X61000Y75000D3*
Y79000D3*
X42500Y55400D3*
Y53400D3*
X18000Y71400D3*
X15800Y69400D3*
X16000Y73400D3*
X14250Y69400D3*
Y73400D3*
Y71400D3*
Y63700D3*
Y67400D3*
Y65700D3*
X32000Y67400D3*
X30000D3*
X28000D3*
X26000D3*
X22000D3*
X23450Y49950D3*
X21400Y52100D3*
X16000Y67400D3*
X20350Y54250D3*
X18000Y23000D3*
X21000D3*
X19000D3*
X20000D3*
X22000D3*
X17000D3*
X43500Y14500D3*
X22500Y16500D3*
Y18500D3*
X43500Y13500D3*
X22500Y17500D3*
Y22500D3*
Y19500D3*
Y21500D3*
Y20500D3*
X43500Y12500D3*
Y11500D3*
X24500Y16500D3*
X25500D3*
X26500D3*
X23500D3*
X30500D3*
X33500D3*
X31500D3*
X32500D3*
X34500D3*
X43500Y10700D3*
X37500Y16500D3*
X35500D3*
X36500D3*
X38500D3*
X40000Y17800D3*
X40500Y16500D3*
X43500D3*
X41500D3*
X42500D3*
X43500Y15500D3*
X39500Y16500D3*
X22000Y42950D3*
X17500Y44000D3*
X19250Y26000D3*
X17000D3*
X22000Y38850D3*
X19750Y42400D3*
X21500Y26600D3*
Y30600D3*
X17500Y40000D3*
X21500Y28600D3*
X19250Y30000D3*
X21500Y24600D3*
X17000Y30000D3*
Y28000D3*
X19250D3*
X17000Y24000D3*
X19250D3*
X55000Y10700D3*
X61000Y19000D3*
X59000Y17000D3*
X53000Y10700D3*
X51000D3*
X57000Y19000D3*
X49000Y10700D3*
X61000Y15000D3*
X59000Y13000D3*
X47000Y10700D3*
X45000D3*
X57000Y15000D3*
X56520Y26503D2*
D19*
X57980D1*
X56520Y26307D2*
X57980D1*
X56520Y26110D2*
X57980D1*
X56520Y25913D2*
X57980D1*
X56520Y25717D2*
X57980D1*
X56520Y25520D2*
X57980D1*
X56520Y25323D2*
X57980D1*
X56520Y25127D2*
X57980D1*
X56520Y24930D2*
X57980D1*
X56520Y24733D2*
X57980D1*
X56747Y24537D2*
X57980D1*
X57281Y24340D2*
X57910D1*
X57900Y26700D2*
X56500D1*
Y24622D1*
X57467Y24265D1*
X57844Y24130D1*
X58000Y24520D1*
Y26700D1*
X57900D1*
X10496Y79363D2*
D20*
X31175D1*
X33985D2*
X35375D1*
X38625D2*
X40015D1*
X42825D2*
X63505D1*
X10496Y79207D2*
X31175D1*
X33985D2*
X35375D1*
X38625D2*
X40015D1*
X42825D2*
X63505D1*
X10496Y79050D2*
X31175D1*
X33985D2*
X35375D1*
X38625D2*
X40015D1*
X42825D2*
X63505D1*
X10496Y78893D2*
X31175D1*
X33985D2*
X35375D1*
X38625D2*
X40015D1*
X42825D2*
X63505D1*
X10496Y78737D2*
X31175D1*
X33985D2*
X35375D1*
X38625D2*
X40015D1*
X42825D2*
X63505D1*
X10496Y78580D2*
X31175D1*
X33985D2*
X35375D1*
X38625D2*
X40015D1*
X42825D2*
X63505D1*
X10496Y78423D2*
X31175D1*
X33985D2*
X35375D1*
X38625D2*
X40015D1*
X42825D2*
X63505D1*
X10496Y78267D2*
X31175D1*
X33985D2*
X35375D1*
X38625D2*
X40015D1*
X42825D2*
X63505D1*
X10496Y78110D2*
X27863D1*
X28357D2*
X31175D1*
X33985D2*
X35375D1*
X38625D2*
X40015D1*
X42825D2*
X55803D1*
X56297D2*
X63505D1*
X10496Y77953D2*
X27270D1*
X28950D2*
X31175D1*
X33985D2*
X35375D1*
X38625D2*
X40015D1*
X42825D2*
X55210D1*
X56890D2*
X63505D1*
X10496Y77797D2*
X26975D1*
X29245D2*
X31175D1*
X33985D2*
X35375D1*
X38625D2*
X40015D1*
X42825D2*
X54915D1*
X57185D2*
X63505D1*
X10496Y77640D2*
X26760D1*
X29460D2*
X31175D1*
X33985D2*
X35375D1*
X38625D2*
X40015D1*
X42825D2*
X54700D1*
X57400D2*
X63505D1*
X10496Y77483D2*
X26593D1*
X29627D2*
X31175D1*
X33985D2*
X35375D1*
X38625D2*
X40015D1*
X42825D2*
X54533D1*
X57567D2*
X63505D1*
X10496Y77327D2*
X26455D1*
X29765D2*
X31175D1*
X33985D2*
X35375D1*
X38625D2*
X40015D1*
X42825D2*
X54395D1*
X57705D2*
X63505D1*
X10496Y77170D2*
X26345D1*
X29875D2*
X31175D1*
X33985D2*
X35375D1*
X38625D2*
X40015D1*
X42825D2*
X54285D1*
X57815D2*
X63505D1*
X10496Y77013D2*
X26253D1*
X29967D2*
X31175D1*
X33985D2*
X35375D1*
X38625D2*
X40015D1*
X42825D2*
X54193D1*
X57907D2*
X63505D1*
X10496Y76857D2*
X26178D1*
X30042D2*
X31175D1*
X33985D2*
X35375D1*
X38625D2*
X40015D1*
X42825D2*
X54118D1*
X57982D2*
X63505D1*
X10496Y76700D2*
X26118D1*
X30102D2*
X31175D1*
X33985D2*
X35375D1*
X38625D2*
X40015D1*
X42825D2*
X54058D1*
X58042D2*
X63505D1*
X10496Y76543D2*
X26073D1*
X30147D2*
X31175D1*
X33985D2*
X35375D1*
X38625D2*
X40015D1*
X42825D2*
X54013D1*
X58087D2*
X63505D1*
X10496Y76387D2*
X26040D1*
X30180D2*
X31175D1*
X33985D2*
X35375D1*
X38625D2*
X40015D1*
X42825D2*
X53980D1*
X58120D2*
X63505D1*
X10496Y76230D2*
X26020D1*
X30200D2*
X31175D1*
X33985D2*
X35375D1*
X38625D2*
X40015D1*
X42825D2*
X53960D1*
X58140D2*
X63505D1*
X10496Y76073D2*
X26010D1*
X30210D2*
X31175D1*
X33985D2*
X35375D1*
X38625D2*
X40015D1*
X42825D2*
X53950D1*
X58150D2*
X63505D1*
X10496Y75917D2*
X26015D1*
X30205D2*
X31175D1*
X33985D2*
X35375D1*
X38625D2*
X40015D1*
X42825D2*
X53955D1*
X58145D2*
X63505D1*
X10496Y75760D2*
X26030D1*
X30190D2*
X31175D1*
X33985D2*
X35375D1*
X38625D2*
X40015D1*
X42825D2*
X53970D1*
X58130D2*
X63505D1*
X10496Y75603D2*
X26058D1*
X30162D2*
X31175D1*
X33985D2*
X35375D1*
X38625D2*
X40015D1*
X42825D2*
X53998D1*
X58102D2*
X63505D1*
X10496Y75447D2*
X26098D1*
X30122D2*
X31175D1*
X33985D2*
X35375D1*
X38625D2*
X40015D1*
X42825D2*
X54038D1*
X58062D2*
X63505D1*
X10496Y75290D2*
X26150D1*
X30070D2*
X31175D1*
X33985D2*
X35375D1*
X38625D2*
X40015D1*
X42825D2*
X54090D1*
X58010D2*
X63505D1*
X10496Y75133D2*
X26218D1*
X30002D2*
X31175D1*
X33985D2*
X35375D1*
X38625D2*
X40015D1*
X42825D2*
X54158D1*
X57942D2*
X63505D1*
X10496Y74977D2*
X26303D1*
X29917D2*
X31175D1*
X33985D2*
X35375D1*
X38625D2*
X40015D1*
X42825D2*
X54243D1*
X57857D2*
X63505D1*
X10496Y74820D2*
X26405D1*
X29815D2*
X31175D1*
X33985D2*
X35375D1*
X38625D2*
X40015D1*
X42825D2*
X54345D1*
X57755D2*
X63505D1*
X10496Y74663D2*
X26530D1*
X29690D2*
X31175D1*
X33985D2*
X35375D1*
X38625D2*
X40015D1*
X42825D2*
X54470D1*
X57630D2*
X63505D1*
X10496Y74507D2*
X26685D1*
X29535D2*
X31175D1*
X33985D2*
X35375D1*
X38625D2*
X40015D1*
X42825D2*
X54625D1*
X57475D2*
X63505D1*
X10496Y74350D2*
X12335D1*
X13405D2*
X26875D1*
X29345D2*
X31175D1*
X33985D2*
X35375D1*
X38625D2*
X40015D1*
X42825D2*
X45355D1*
X46425D2*
X52975D1*
X54045D2*
X54815D1*
X57285D2*
X60595D1*
X61665D2*
X63505D1*
X10496Y74193D2*
X12138D1*
X13602D2*
X27130D1*
X29090D2*
X35503D1*
X38497D2*
X45158D1*
X46622D2*
X52778D1*
X54242D2*
X55070D1*
X57030D2*
X60398D1*
X61862D2*
X63505D1*
X10496Y74037D2*
X12015D1*
X13725D2*
X27523D1*
X28697D2*
X35775D1*
X38225D2*
X45035D1*
X46745D2*
X52655D1*
X54365D2*
X55463D1*
X56637D2*
X60275D1*
X61985D2*
X63505D1*
X10496Y73880D2*
X11933D1*
X13807D2*
X35775D1*
X38225D2*
X44953D1*
X46827D2*
X52573D1*
X54447D2*
X60193D1*
X62067D2*
X63505D1*
X10496Y73723D2*
X11883D1*
X13857D2*
X35775D1*
X38225D2*
X44903D1*
X46877D2*
X52523D1*
X54497D2*
X60143D1*
X62117D2*
X63505D1*
X10496Y73567D2*
X11860D1*
X13880D2*
X35775D1*
X38225D2*
X44880D1*
X46900D2*
X52500D1*
X54520D2*
X60120D1*
X62140D2*
X63505D1*
X10496Y73410D2*
X11863D1*
X13877D2*
X35775D1*
X38225D2*
X44883D1*
X46897D2*
X52503D1*
X54517D2*
X60123D1*
X62137D2*
X63505D1*
X10496Y73253D2*
X11888D1*
X13870D2*
X35775D1*
X38225D2*
X44908D1*
X46872D2*
X52528D1*
X54492D2*
X60148D1*
X62112D2*
X63505D1*
X10496Y73097D2*
X11943D1*
X14025D2*
X35775D1*
X38225D2*
X44963D1*
X46817D2*
X52583D1*
X54437D2*
X60203D1*
X62057D2*
X63505D1*
X10496Y72940D2*
X12030D1*
X14182D2*
X35775D1*
X38225D2*
X45050D1*
X46730D2*
X52670D1*
X54350D2*
X60290D1*
X61970D2*
X63505D1*
X10496Y72783D2*
X12163D1*
X14340D2*
X35775D1*
X38225D2*
X45183D1*
X46597D2*
X52803D1*
X54217D2*
X60423D1*
X61837D2*
X63505D1*
X10496Y72627D2*
X12375D1*
X13365D2*
X13550D1*
X14495D2*
X35775D1*
X38225D2*
X45395D1*
X46385D2*
X53015D1*
X54005D2*
X60635D1*
X61625D2*
X63505D1*
X10496Y72470D2*
X13708D1*
X14652D2*
X35775D1*
X38225D2*
X63505D1*
X10496Y72313D2*
X13865D1*
X14810D2*
X35775D1*
X38225D2*
X63505D1*
X10496Y72157D2*
X14020D1*
X14965D2*
X35775D1*
X38225D2*
X63505D1*
X10496Y72000D2*
X14178D1*
X15122D2*
X35775D1*
X38225D2*
X63505D1*
X10496Y71843D2*
X12393D1*
X13347D2*
X14335D1*
X15280D2*
X35775D1*
X38225D2*
X45413D1*
X46367D2*
X53033D1*
X53987D2*
X60653D1*
X61607D2*
X63505D1*
X10496Y71687D2*
X12173D1*
X13567D2*
X14490D1*
X15435D2*
X35775D1*
X38225D2*
X45193D1*
X46587D2*
X52813D1*
X54207D2*
X60433D1*
X61827D2*
X63505D1*
X10496Y71530D2*
X12038D1*
X13702D2*
X14648D1*
X15592D2*
X35775D1*
X38225D2*
X45058D1*
X46722D2*
X52678D1*
X54342D2*
X60298D1*
X61962D2*
X63505D1*
X10496Y71373D2*
X11948D1*
X13792D2*
X14805D1*
X15750D2*
X35775D1*
X38225D2*
X44968D1*
X46812D2*
X52588D1*
X54432D2*
X60208D1*
X62052D2*
X63505D1*
X10496Y71217D2*
X11893D1*
X13847D2*
X14960D1*
X15905D2*
X35775D1*
X38225D2*
X44913D1*
X46867D2*
X52533D1*
X54487D2*
X60153D1*
X62107D2*
X63505D1*
X10496Y71060D2*
X11863D1*
X16062D2*
X35775D1*
X38225D2*
X44883D1*
X46897D2*
X52503D1*
X54517D2*
X60123D1*
X62137D2*
X63505D1*
X10496Y70903D2*
X11860D1*
X16220D2*
X35775D1*
X38225D2*
X44880D1*
X46900D2*
X52500D1*
X54520D2*
X60120D1*
X62140D2*
X63505D1*
X10496Y70747D2*
X11880D1*
X16375D2*
X35775D1*
X38225D2*
X44900D1*
X46880D2*
X52520D1*
X54500D2*
X60140D1*
X62120D2*
X63505D1*
X10496Y70590D2*
X11930D1*
X16532D2*
X35775D1*
X38225D2*
X44950D1*
X46830D2*
X52570D1*
X54450D2*
X60190D1*
X62070D2*
X63505D1*
X10496Y70433D2*
X12008D1*
X16690D2*
X35775D1*
X38225D2*
X45028D1*
X46752D2*
X52648D1*
X54372D2*
X60268D1*
X61992D2*
X63505D1*
X10496Y70277D2*
X12130D1*
X13610D2*
X15300D1*
X16845D2*
X35775D1*
X38225D2*
X45150D1*
X46630D2*
X52770D1*
X54250D2*
X60390D1*
X61870D2*
X63505D1*
X10496Y70120D2*
X12318D1*
X13422D2*
X15458D1*
X17002D2*
X35775D1*
X38225D2*
X45338D1*
X46442D2*
X52958D1*
X54062D2*
X60578D1*
X61682D2*
X63505D1*
X10496Y69963D2*
X15615D1*
X17160D2*
X35775D1*
X38225D2*
X63505D1*
X10496Y69807D2*
X15770D1*
X17315D2*
X35775D1*
X38225D2*
X63505D1*
X10496Y69650D2*
X15928D1*
X17472D2*
X35775D1*
X38225D2*
X63505D1*
X10496Y69493D2*
X16085D1*
X17630D2*
X35775D1*
X38225D2*
X63505D1*
X10496Y69337D2*
X12465D1*
X13275D2*
X16240D1*
X17785D2*
X35775D1*
X38225D2*
X60725D1*
X61535D2*
X63505D1*
X10496Y69180D2*
X12210D1*
X13530D2*
X16398D1*
X17942D2*
X60470D1*
X61790D2*
X63505D1*
X10496Y69023D2*
X12060D1*
X13680D2*
X16555D1*
X18100D2*
X60320D1*
X61940D2*
X63505D1*
X10496Y68867D2*
X11963D1*
X13777D2*
X16710D1*
X18255D2*
X60223D1*
X62037D2*
X63505D1*
X10496Y68710D2*
X11900D1*
X18412D2*
X60160D1*
X62100D2*
X63505D1*
X10496Y68553D2*
X11868D1*
X18570D2*
X60128D1*
X62132D2*
X63505D1*
X10496Y68397D2*
X11858D1*
X18725D2*
X60118D1*
X62142D2*
X63505D1*
X10496Y68240D2*
X11875D1*
X18882D2*
X60135D1*
X62125D2*
X63505D1*
X10496Y68083D2*
X11918D1*
X13822D2*
X16895D1*
X19040D2*
X60178D1*
X62082D2*
X63505D1*
X10496Y67927D2*
X11988D1*
X13752D2*
X17050D1*
X19195D2*
X60248D1*
X62012D2*
X63505D1*
X10496Y67770D2*
X12100D1*
X13640D2*
X17208D1*
X19352D2*
X60360D1*
X61900D2*
X63505D1*
X10496Y67613D2*
X12270D1*
X13470D2*
X17365D1*
X19510D2*
X60530D1*
X61730D2*
X63505D1*
X10496Y67457D2*
X12600D1*
X13140D2*
X17520D1*
X19665D2*
X60860D1*
X61400D2*
X63505D1*
X10496Y67300D2*
X17678D1*
X19822D2*
X63505D1*
X10496Y67143D2*
X17835D1*
X19980D2*
X63505D1*
X10496Y66987D2*
X17990D1*
X20135D2*
X63505D1*
X10496Y66830D2*
X12555D1*
X13185D2*
X18148D1*
X20292D2*
X60815D1*
X61445D2*
X63505D1*
X10496Y66673D2*
X12253D1*
X13487D2*
X18305D1*
X20450D2*
X60513D1*
X61747D2*
X63505D1*
X10496Y66517D2*
X12088D1*
X13652D2*
X18460D1*
X20605D2*
X60348D1*
X61912D2*
X63505D1*
X10496Y66360D2*
X11980D1*
X13760D2*
X18618D1*
X20762D2*
X60240D1*
X62020D2*
X63505D1*
X10496Y66203D2*
X11913D1*
X13827D2*
X18775D1*
X20920D2*
X60173D1*
X62087D2*
X63505D1*
X10496Y66047D2*
X11873D1*
X13867D2*
X18930D1*
X21075D2*
X60133D1*
X62127D2*
X63505D1*
X10496Y65890D2*
X11858D1*
X13882D2*
X19088D1*
X21232D2*
X60118D1*
X62142D2*
X63505D1*
X10496Y65733D2*
X11868D1*
X13872D2*
X19245D1*
X21390D2*
X60128D1*
X62132D2*
X63505D1*
X10496Y65577D2*
X11905D1*
X13835D2*
X19400D1*
X21545D2*
X60165D1*
X62095D2*
X63505D1*
X10496Y65420D2*
X11970D1*
X13770D2*
X19558D1*
X21702D2*
X33715D1*
X33885D2*
X60230D1*
X62030D2*
X63505D1*
X10496Y65263D2*
X12073D1*
X13860D2*
X19715D1*
X21860D2*
X33428D1*
X34172D2*
X60333D1*
X61927D2*
X63505D1*
X10496Y65107D2*
X12225D1*
X14015D2*
X19870D1*
X22015D2*
X33335D1*
X34265D2*
X60485D1*
X61775D2*
X63505D1*
X10496Y64950D2*
X12498D1*
X17470D2*
X20028D1*
X22172D2*
X33308D1*
X34292D2*
X60758D1*
X61502D2*
X63505D1*
X10496Y64793D2*
X13385D1*
X17630D2*
X20185D1*
X22330D2*
X33335D1*
X34265D2*
X63505D1*
X10496Y64637D2*
X13540D1*
X17785D2*
X20340D1*
X22485D2*
X33428D1*
X34172D2*
X63505D1*
X10496Y64480D2*
X13698D1*
X17942D2*
X20498D1*
X22642D2*
X33715D1*
X33885D2*
X63505D1*
X10496Y64323D2*
X12695D1*
X13045D2*
X17155D1*
X18100D2*
X20655D1*
X22800D2*
X60955D1*
X61305D2*
X63505D1*
X10496Y64167D2*
X12298D1*
X13442D2*
X17310D1*
X18255D2*
X20810D1*
X22955D2*
X60558D1*
X61702D2*
X63505D1*
X10496Y64010D2*
X12118D1*
X13622D2*
X17468D1*
X18412D2*
X20968D1*
X23112D2*
X60378D1*
X61882D2*
X63505D1*
X10496Y63853D2*
X12000D1*
X13740D2*
X17625D1*
X18570D2*
X21125D1*
X23270D2*
X60260D1*
X62000D2*
X63505D1*
X10496Y63697D2*
X11923D1*
X13817D2*
X17780D1*
X18725D2*
X21280D1*
X23425D2*
X60183D1*
X62077D2*
X63505D1*
X10496Y63540D2*
X11878D1*
X13862D2*
X17938D1*
X18882D2*
X21438D1*
X23582D2*
X60138D1*
X62122D2*
X63505D1*
X10496Y63383D2*
X11858D1*
X13882D2*
X18095D1*
X19040D2*
X21595D1*
X23740D2*
X60118D1*
X62142D2*
X63505D1*
X10496Y63227D2*
X11865D1*
X13875D2*
X18250D1*
X19195D2*
X21750D1*
X23895D2*
X60125D1*
X62135D2*
X63505D1*
X10496Y63070D2*
X11895D1*
X19352D2*
X21908D1*
X24052D2*
X60155D1*
X62105D2*
X63505D1*
X10496Y62913D2*
X11953D1*
X19510D2*
X22065D1*
X24210D2*
X60213D1*
X62047D2*
X63505D1*
X10496Y62757D2*
X12048D1*
X19665D2*
X22220D1*
X24365D2*
X60308D1*
X61952D2*
X63505D1*
X10496Y62600D2*
X12188D1*
X19822D2*
X22378D1*
X24502D2*
X60448D1*
X61812D2*
X63505D1*
X10496Y62443D2*
X12420D1*
X13320D2*
X13733D1*
X19980D2*
X22535D1*
X24540D2*
X60680D1*
X61580D2*
X63505D1*
X10496Y62287D2*
X18590D1*
X20135D2*
X22690D1*
X24540D2*
X63505D1*
X10496Y62130D2*
X18748D1*
X20292D2*
X22848D1*
X24540D2*
X63505D1*
X10496Y61973D2*
X18905D1*
X20450D2*
X23005D1*
X24540D2*
X63505D1*
X10496Y61817D2*
X19060D1*
X20605D2*
X23160D1*
X24540D2*
X63505D1*
X10496Y61660D2*
X12350D1*
X13390D2*
X19218D1*
X20762D2*
X23160D1*
X24540D2*
X60610D1*
X61650D2*
X63505D1*
X10496Y61503D2*
X12148D1*
X13592D2*
X19375D1*
X20920D2*
X23160D1*
X24540D2*
X60408D1*
X61852D2*
X63505D1*
X10496Y61347D2*
X12020D1*
X13720D2*
X19530D1*
X21075D2*
X23160D1*
X24540D2*
X60280D1*
X61980D2*
X63505D1*
X10496Y61190D2*
X11938D1*
X13802D2*
X19688D1*
X21232D2*
X23160D1*
X24540D2*
X60198D1*
X62062D2*
X63505D1*
X10496Y61033D2*
X11885D1*
X17440D2*
X19845D1*
X21390D2*
X23160D1*
X24540D2*
X60145D1*
X62115D2*
X63505D1*
X10496Y60877D2*
X11860D1*
X17595D2*
X20000D1*
X21545D2*
X23160D1*
X24540D2*
X60120D1*
X62140D2*
X63505D1*
X10496Y60720D2*
X11860D1*
X17752D2*
X20158D1*
X21702D2*
X23160D1*
X24540D2*
X60120D1*
X62140D2*
X63505D1*
X10496Y60563D2*
X11885D1*
X17910D2*
X20315D1*
X21860D2*
X23160D1*
X24540D2*
X60145D1*
X62115D2*
X63505D1*
X10496Y60407D2*
X11938D1*
X13802D2*
X17120D1*
X18065D2*
X20470D1*
X22015D2*
X23160D1*
X24540D2*
X60198D1*
X62062D2*
X63505D1*
X10496Y60250D2*
X12023D1*
X13717D2*
X17278D1*
X18222D2*
X20628D1*
X22170D2*
X23160D1*
X24540D2*
X60283D1*
X61977D2*
X63505D1*
X10496Y60093D2*
X12153D1*
X13587D2*
X17435D1*
X18380D2*
X20785D1*
X22235D2*
X23160D1*
X24540D2*
X60413D1*
X61847D2*
X63505D1*
X10496Y59937D2*
X12358D1*
X13382D2*
X17590D1*
X18535D2*
X20940D1*
X22240D2*
X23160D1*
X24540D2*
X60618D1*
X61642D2*
X63505D1*
X10496Y59780D2*
X17748D1*
X18692D2*
X21098D1*
X22240D2*
X23160D1*
X24540D2*
X63505D1*
X10496Y59623D2*
X17905D1*
X18850D2*
X21210D1*
X22240D2*
X23160D1*
X24540D2*
X63505D1*
X10496Y59467D2*
X18060D1*
X19005D2*
X21210D1*
X22240D2*
X23160D1*
X24540D2*
X63505D1*
X10496Y59310D2*
X18218D1*
X19162D2*
X21210D1*
X22240D2*
X23160D1*
X24540D2*
X63505D1*
X10496Y59153D2*
X12413D1*
X13327D2*
X14953D1*
X15867D2*
X17493D1*
X19320D2*
X21210D1*
X22240D2*
X23160D1*
X24540D2*
X53053D1*
X53967D2*
X55593D1*
X56507D2*
X63505D1*
X10496Y58997D2*
X12183D1*
X13557D2*
X14723D1*
X16097D2*
X17263D1*
X19425D2*
X21210D1*
X22240D2*
X23160D1*
X24540D2*
X52823D1*
X54197D2*
X55363D1*
X56737D2*
X63505D1*
X10496Y58840D2*
X12045D1*
X13695D2*
X14585D1*
X16235D2*
X17125D1*
X19440D2*
X21210D1*
X22240D2*
X23160D1*
X24540D2*
X52685D1*
X54335D2*
X55225D1*
X56875D2*
X63505D1*
X10496Y58683D2*
X11953D1*
X13787D2*
X14493D1*
X16327D2*
X17033D1*
X19440D2*
X21210D1*
X22240D2*
X23160D1*
X24540D2*
X28553D1*
X29147D2*
X52593D1*
X54427D2*
X55133D1*
X56967D2*
X63505D1*
X10496Y58527D2*
X11895D1*
X16385D2*
X16975D1*
X19440D2*
X21210D1*
X22240D2*
X23160D1*
X24540D2*
X28415D1*
X29285D2*
X29908D1*
X30285D2*
X52535D1*
X54485D2*
X55075D1*
X57025D2*
X63505D1*
X10496Y58370D2*
X11865D1*
X16415D2*
X16945D1*
X19440D2*
X21210D1*
X22240D2*
X23160D1*
X24540D2*
X28365D1*
X29335D2*
X29700D1*
X30492D2*
X52505D1*
X54515D2*
X55045D1*
X57055D2*
X63505D1*
X10496Y58213D2*
X11860D1*
X16460D2*
X16940D1*
X19440D2*
X21210D1*
X22240D2*
X23160D1*
X24540D2*
X28368D1*
X29332D2*
X29623D1*
X30570D2*
X52500D1*
X54520D2*
X55040D1*
X57060D2*
X63505D1*
X10496Y58057D2*
X11878D1*
X16615D2*
X16958D1*
X19440D2*
X21210D1*
X22240D2*
X23160D1*
X24540D2*
X28425D1*
X29275D2*
X29605D1*
X30585D2*
X52518D1*
X54502D2*
X55058D1*
X57042D2*
X63505D1*
X10496Y57900D2*
X11925D1*
X16772D2*
X17005D1*
X19440D2*
X21210D1*
X22240D2*
X23160D1*
X24540D2*
X28578D1*
X29122D2*
X29643D1*
X30550D2*
X52565D1*
X54455D2*
X55105D1*
X56995D2*
X63505D1*
X10496Y57743D2*
X12003D1*
X13737D2*
X14543D1*
X16925D2*
X17083D1*
X19440D2*
X21210D1*
X22240D2*
X23160D1*
X24540D2*
X29605D1*
X30442D2*
X52643D1*
X54377D2*
X55183D1*
X56917D2*
X63505D1*
X10496Y57587D2*
X12120D1*
X13620D2*
X14660D1*
X16987D2*
X17200D1*
X19440D2*
X21210D1*
X22240D2*
X23160D1*
X24540D2*
X29470D1*
X30402D2*
X52760D1*
X54260D2*
X55300D1*
X56800D2*
X63505D1*
X10496Y57430D2*
X12303D1*
X13437D2*
X14843D1*
X15977D2*
X16298D1*
X16990D2*
X17383D1*
X18517D2*
X18760D1*
X19440D2*
X21210D1*
X22240D2*
X23160D1*
X24540D2*
X28548D1*
X30440D2*
X52943D1*
X54077D2*
X55483D1*
X56617D2*
X63505D1*
X10496Y57273D2*
X12718D1*
X13022D2*
X15258D1*
X15562D2*
X16310D1*
X16990D2*
X17798D1*
X18102D2*
X18760D1*
X19440D2*
X21210D1*
X22240D2*
X23160D1*
X24540D2*
X28415D1*
X30425D2*
X53358D1*
X53662D2*
X55898D1*
X56202D2*
X63505D1*
X10496Y57117D2*
X16310D1*
X16990D2*
X18760D1*
X19440D2*
X21210D1*
X22240D2*
X23160D1*
X24540D2*
X28363D1*
X30365D2*
X63505D1*
X10496Y56960D2*
X16310D1*
X16990D2*
X18760D1*
X19440D2*
X21210D1*
X22240D2*
X23160D1*
X24540D2*
X28368D1*
X30485D2*
X63505D1*
X10496Y56803D2*
X16310D1*
X16990D2*
X18760D1*
X19440D2*
X21210D1*
X22240D2*
X23160D1*
X24540D2*
X28428D1*
X29272D2*
X29550D1*
X30530D2*
X35233D1*
X35767D2*
X63505D1*
X10496Y56647D2*
X12488D1*
X13252D2*
X15028D1*
X15792D2*
X16310D1*
X16990D2*
X17568D1*
X18332D2*
X18760D1*
X19440D2*
X21210D1*
X22240D2*
X23160D1*
X24540D2*
X28583D1*
X29117D2*
X29560D1*
X30620D2*
X35078D1*
X35922D2*
X53128D1*
X53892D2*
X55668D1*
X56432D2*
X60748D1*
X61512D2*
X63505D1*
X10496Y56490D2*
X12223D1*
X13517D2*
X14763D1*
X16057D2*
X16310D1*
X16990D2*
X17303D1*
X18597D2*
X18760D1*
X19440D2*
X21210D1*
X22240D2*
X23160D1*
X24540D2*
X29630D1*
X30777D2*
X35018D1*
X35982D2*
X52863D1*
X54157D2*
X55403D1*
X56697D2*
X60483D1*
X61777D2*
X63505D1*
X10496Y56333D2*
X12070D1*
X13670D2*
X14610D1*
X16210D2*
X16310D1*
X16990D2*
X17150D1*
X19440D2*
X21210D1*
X22240D2*
X23160D1*
X24540D2*
X29805D1*
X30925D2*
X35013D1*
X35987D2*
X52710D1*
X54310D2*
X55250D1*
X56850D2*
X60330D1*
X61930D2*
X63505D1*
X10496Y56177D2*
X11968D1*
X13772D2*
X14508D1*
X19440D2*
X21210D1*
X22240D2*
X23160D1*
X24540D2*
X30145D1*
X30977D2*
X35065D1*
X35935D2*
X52608D1*
X54412D2*
X55148D1*
X56952D2*
X60228D1*
X62032D2*
X63505D1*
X10496Y56020D2*
X11905D1*
X19440D2*
X21210D1*
X22240D2*
X23160D1*
X24540D2*
X30300D1*
X30980D2*
X35198D1*
X35802D2*
X52545D1*
X54475D2*
X55085D1*
X57015D2*
X60165D1*
X62095D2*
X63505D1*
X10496Y55863D2*
X11868D1*
X19440D2*
X21210D1*
X22240D2*
X23160D1*
X24540D2*
X30300D1*
X30980D2*
X52508D1*
X54512D2*
X55048D1*
X57052D2*
X60128D1*
X62132D2*
X63505D1*
X10496Y55707D2*
X11858D1*
X19440D2*
X21210D1*
X22240D2*
X23160D1*
X24540D2*
X30300D1*
X31080D2*
X52498D1*
X54522D2*
X55038D1*
X57062D2*
X60118D1*
X62142D2*
X63505D1*
X10496Y55550D2*
X11873D1*
X19440D2*
X21210D1*
X22240D2*
X23160D1*
X24540D2*
X30328D1*
X31237D2*
X52513D1*
X54507D2*
X55053D1*
X57047D2*
X60133D1*
X62127D2*
X63505D1*
X10496Y55393D2*
X11913D1*
X19440D2*
X21210D1*
X22240D2*
X23160D1*
X24540D2*
X30450D1*
X31395D2*
X44018D1*
X44582D2*
X44718D1*
X45282D2*
X52553D1*
X54467D2*
X55093D1*
X57007D2*
X60173D1*
X62087D2*
X63505D1*
X10496Y55237D2*
X11983D1*
X13757D2*
X14523D1*
X19440D2*
X21210D1*
X22240D2*
X23160D1*
X24540D2*
X30605D1*
X31550D2*
X43873D1*
X45427D2*
X52623D1*
X54397D2*
X55163D1*
X56937D2*
X60243D1*
X62017D2*
X63505D1*
X10496Y55080D2*
X12090D1*
X13650D2*
X14630D1*
X16992D2*
X17170D1*
X19440D2*
X21210D1*
X22240D2*
X23160D1*
X24642D2*
X30763D1*
X33797D2*
X43815D1*
X45485D2*
X52730D1*
X54290D2*
X55270D1*
X56830D2*
X60350D1*
X61910D2*
X63505D1*
X10496Y54923D2*
X12255D1*
X13485D2*
X14795D1*
X17150D2*
X17335D1*
X18565D2*
X18760D1*
X19440D2*
X21210D1*
X22240D2*
X23160D1*
X24800D2*
X30920D1*
X33975D2*
X43815D1*
X45485D2*
X52895D1*
X54125D2*
X55435D1*
X56665D2*
X60515D1*
X61745D2*
X63505D1*
X10496Y54767D2*
X12565D1*
X13175D2*
X15105D1*
X15715D2*
X15860D1*
X17305D2*
X17645D1*
X18255D2*
X18760D1*
X19440D2*
X21210D1*
X22240D2*
X23160D1*
X24955D2*
X26340D1*
X27060D2*
X31075D1*
X34130D2*
X43870D1*
X45430D2*
X53205D1*
X53815D2*
X55745D1*
X56355D2*
X60825D1*
X61435D2*
X63505D1*
X10496Y54610D2*
X16018D1*
X17462D2*
X18760D1*
X19440D2*
X21210D1*
X22240D2*
X23163D1*
X25112D2*
X26240D1*
X27160D2*
X31233D1*
X34502D2*
X43960D1*
X45287D2*
X63505D1*
X10496Y54453D2*
X16175D1*
X17620D2*
X18760D1*
X19440D2*
X21210D1*
X22240D2*
X23228D1*
X25270D2*
X26210D1*
X27190D2*
X31398D1*
X33072D2*
X33500D1*
X34607D2*
X43960D1*
X45075D2*
X63505D1*
X10496Y54297D2*
X16330D1*
X17775D2*
X18760D1*
X19440D2*
X21210D1*
X22240D2*
X23380D1*
X25425D2*
X26230D1*
X27170D2*
X31263D1*
X33090D2*
X33655D1*
X34640D2*
X43960D1*
X44990D2*
X63505D1*
X10496Y54140D2*
X16488D1*
X17932D2*
X18760D1*
X19440D2*
X21210D1*
X22240D2*
X23538D1*
X25582D2*
X26315D1*
X27085D2*
X27530D1*
X28170D2*
X31213D1*
X33055D2*
X33678D1*
X34622D2*
X43960D1*
X44990D2*
X53228D1*
X53792D2*
X55768D1*
X56332D2*
X60848D1*
X61412D2*
X63505D1*
X10496Y53983D2*
X16645D1*
X18090D2*
X18760D1*
X19440D2*
X21210D1*
X22240D2*
X23695D1*
X25740D2*
X26553D1*
X26847D2*
X27408D1*
X28292D2*
X31218D1*
X32947D2*
X33760D1*
X34540D2*
X43960D1*
X44990D2*
X52905D1*
X54115D2*
X55445D1*
X56655D2*
X60525D1*
X61735D2*
X63505D1*
X10496Y53827D2*
X16800D1*
X18245D2*
X18760D1*
X19440D2*
X21210D1*
X22240D2*
X23850D1*
X25895D2*
X27363D1*
X28337D2*
X31280D1*
X32120D2*
X33978D1*
X34322D2*
X43960D1*
X44990D2*
X52735D1*
X54285D2*
X55275D1*
X56825D2*
X60355D1*
X61905D2*
X63505D1*
X10496Y53670D2*
X16958D1*
X18402D2*
X18760D1*
X19440D2*
X21210D1*
X22240D2*
X24008D1*
X26052D2*
X26333D1*
X27067D2*
X27370D1*
X28330D2*
X31435D1*
X31965D2*
X43960D1*
X44990D2*
X52628D1*
X54392D2*
X55168D1*
X56932D2*
X60248D1*
X62012D2*
X63505D1*
X10496Y53513D2*
X17115D1*
X18560D2*
X18760D1*
X19440D2*
X21210D1*
X22310D2*
X24165D1*
X27162D2*
X27438D1*
X28262D2*
X43960D1*
X44990D2*
X52555D1*
X54465D2*
X55095D1*
X57005D2*
X60175D1*
X62085D2*
X63505D1*
X10496Y53357D2*
X17270D1*
X19440D2*
X21210D1*
X22465D2*
X24320D1*
X27190D2*
X27608D1*
X28092D2*
X43960D1*
X44990D2*
X52513D1*
X54507D2*
X55053D1*
X57047D2*
X60133D1*
X62127D2*
X63505D1*
X10496Y53200D2*
X17428D1*
X19440D2*
X21228D1*
X22622D2*
X24478D1*
X27167D2*
X43960D1*
X44990D2*
X52498D1*
X54522D2*
X55038D1*
X57062D2*
X60118D1*
X62142D2*
X63505D1*
X10496Y53043D2*
X17585D1*
X19530D2*
X21335D1*
X22780D2*
X24635D1*
X27080D2*
X43960D1*
X44990D2*
X52508D1*
X54512D2*
X55048D1*
X57052D2*
X60128D1*
X62132D2*
X63505D1*
X10496Y52887D2*
X17740D1*
X19685D2*
X21490D1*
X22935D2*
X24790D1*
X26835D2*
X43960D1*
X44990D2*
X52543D1*
X54477D2*
X55083D1*
X57017D2*
X60163D1*
X62097D2*
X63505D1*
X10496Y52730D2*
X17898D1*
X19842D2*
X21648D1*
X23092D2*
X24948D1*
X26992D2*
X43960D1*
X44990D2*
X52605D1*
X54415D2*
X55145D1*
X56955D2*
X60225D1*
X62035D2*
X63505D1*
X10496Y52573D2*
X12465D1*
X13275D2*
X18055D1*
X20000D2*
X21805D1*
X23250D2*
X25105D1*
X27150D2*
X43960D1*
X44990D2*
X52703D1*
X54317D2*
X55243D1*
X56857D2*
X60323D1*
X61937D2*
X63505D1*
X10496Y52417D2*
X12210D1*
X13530D2*
X18210D1*
X20155D2*
X21960D1*
X23405D2*
X25260D1*
X27305D2*
X43960D1*
X44990D2*
X52855D1*
X54165D2*
X55395D1*
X56705D2*
X60475D1*
X61785D2*
X63505D1*
X10496Y52260D2*
X12063D1*
X13677D2*
X18368D1*
X20312D2*
X22118D1*
X23562D2*
X25418D1*
X27382D2*
X43960D1*
X44990D2*
X53113D1*
X53907D2*
X55653D1*
X56447D2*
X60733D1*
X61527D2*
X63505D1*
X10496Y52103D2*
X11965D1*
X13775D2*
X18525D1*
X20470D2*
X22275D1*
X23720D2*
X25575D1*
X27390D2*
X43960D1*
X44990D2*
X63505D1*
X10496Y51947D2*
X11900D1*
X13840D2*
X18680D1*
X20625D2*
X22430D1*
X23875D2*
X25710D1*
X27390D2*
X43960D1*
X44990D2*
X63505D1*
X10496Y51790D2*
X11868D1*
X13872D2*
X18838D1*
X20782D2*
X22588D1*
X24032D2*
X25710D1*
X27390D2*
X43960D1*
X44990D2*
X63505D1*
X10496Y51633D2*
X11858D1*
X13882D2*
X15320D1*
X15500D2*
X18995D1*
X20940D2*
X22745D1*
X24190D2*
X25710D1*
X27390D2*
X43960D1*
X44990D2*
X53420D1*
X53600D2*
X55960D1*
X56140D2*
X61040D1*
X61220D2*
X63505D1*
X10496Y51477D2*
X11875D1*
X13865D2*
X14853D1*
X15967D2*
X19150D1*
X21095D2*
X22900D1*
X24345D2*
X25710D1*
X27390D2*
X43960D1*
X44990D2*
X52953D1*
X54067D2*
X55493D1*
X56607D2*
X60573D1*
X61687D2*
X63505D1*
X10496Y51320D2*
X11915D1*
X13825D2*
X14665D1*
X16155D2*
X19308D1*
X21252D2*
X23058D1*
X24502D2*
X25710D1*
X27390D2*
X43960D1*
X44990D2*
X52765D1*
X54255D2*
X55305D1*
X56795D2*
X60385D1*
X61875D2*
X63505D1*
X10496Y51163D2*
X11988D1*
X13752D2*
X14545D1*
X16275D2*
X19465D1*
X21410D2*
X23215D1*
X24660D2*
X25710D1*
X27390D2*
X43960D1*
X44990D2*
X52645D1*
X54375D2*
X55185D1*
X56915D2*
X60265D1*
X61995D2*
X63505D1*
X10496Y51007D2*
X12098D1*
X13642D2*
X14468D1*
X16352D2*
X19620D1*
X21565D2*
X23370D1*
X24815D2*
X25635D1*
X27390D2*
X43960D1*
X44990D2*
X52568D1*
X54452D2*
X55108D1*
X56992D2*
X60188D1*
X62072D2*
X63505D1*
X10496Y50850D2*
X12268D1*
X13472D2*
X14420D1*
X21722D2*
X23528D1*
X24972D2*
X25570D1*
X27390D2*
X35573D1*
X36027D2*
X43960D1*
X44990D2*
X52520D1*
X54500D2*
X55060D1*
X57040D2*
X60140D1*
X62120D2*
X63505D1*
X10496Y50693D2*
X12598D1*
X13142D2*
X14400D1*
X21880D2*
X23685D1*
X25130D2*
X25563D1*
X27390D2*
X35393D1*
X36207D2*
X43960D1*
X44990D2*
X52500D1*
X54520D2*
X55040D1*
X57060D2*
X60120D1*
X62140D2*
X63505D1*
X10496Y50537D2*
X14403D1*
X22035D2*
X23840D1*
X25285D2*
X25610D1*
X27390D2*
X35323D1*
X36277D2*
X43960D1*
X44990D2*
X52503D1*
X54517D2*
X55043D1*
X57057D2*
X60123D1*
X62137D2*
X63505D1*
X10496Y50380D2*
X14433D1*
X22192D2*
X23998D1*
X25442D2*
X25735D1*
X27390D2*
X35310D1*
X36290D2*
X43958D1*
X44990D2*
X52533D1*
X54487D2*
X55073D1*
X57027D2*
X60153D1*
X62107D2*
X63505D1*
X10496Y50223D2*
X14490D1*
X16330D2*
X19905D1*
X22350D2*
X24155D1*
X25600D2*
X26060D1*
X27390D2*
X35353D1*
X36247D2*
X39745D1*
X40025D2*
X43800D1*
X44990D2*
X52590D1*
X54430D2*
X55130D1*
X56970D2*
X60210D1*
X62050D2*
X63505D1*
X10496Y50067D2*
X12558D1*
X13182D2*
X14580D1*
X16240D2*
X20060D1*
X22505D2*
X24310D1*
X25755D2*
X26095D1*
X27420D2*
X35473D1*
X36127D2*
X39503D1*
X40267D2*
X43645D1*
X44987D2*
X52465D1*
X54340D2*
X55220D1*
X56880D2*
X60300D1*
X61960D2*
X63505D1*
X10496Y49910D2*
X12253D1*
X13487D2*
X14715D1*
X16105D2*
X20218D1*
X22662D2*
X24468D1*
X25912D2*
X26203D1*
X27512D2*
X39418D1*
X40352D2*
X43488D1*
X44927D2*
X52308D1*
X54205D2*
X55355D1*
X56745D2*
X60435D1*
X61825D2*
X63505D1*
X10496Y49753D2*
X12088D1*
X13652D2*
X14940D1*
X15880D2*
X20375D1*
X22820D2*
X24625D1*
X26070D2*
X26558D1*
X27542D2*
X39395D1*
X40375D2*
X43330D1*
X44775D2*
X52150D1*
X53980D2*
X55580D1*
X56520D2*
X60660D1*
X61600D2*
X63505D1*
X10496Y49597D2*
X11983D1*
X13757D2*
X20530D1*
X22975D2*
X24780D1*
X26225D2*
X26585D1*
X27515D2*
X34660D1*
X35340D2*
X39425D1*
X40345D2*
X43175D1*
X44620D2*
X51995D1*
X52940D2*
X63505D1*
X10496Y49440D2*
X11913D1*
X13827D2*
X20688D1*
X23132D2*
X24938D1*
X26382D2*
X26675D1*
X27425D2*
X34548D1*
X35452D2*
X39523D1*
X40247D2*
X43018D1*
X44462D2*
X51838D1*
X52782D2*
X63505D1*
X10496Y49283D2*
X11873D1*
X13867D2*
X20845D1*
X23290D2*
X25095D1*
X26540D2*
X26945D1*
X27155D2*
X34510D1*
X35490D2*
X42860D1*
X44305D2*
X51680D1*
X52625D2*
X63505D1*
X10496Y49127D2*
X11858D1*
X13882D2*
X21000D1*
X23445D2*
X25250D1*
X26695D2*
X34525D1*
X35475D2*
X42705D1*
X44150D2*
X51525D1*
X52470D2*
X63505D1*
X10496Y48970D2*
X11868D1*
X13872D2*
X14908D1*
X15912D2*
X21158D1*
X23602D2*
X25408D1*
X26852D2*
X34600D1*
X35400D2*
X42548D1*
X43992D2*
X51425D1*
X52312D2*
X53008D1*
X54012D2*
X55548D1*
X56552D2*
X60628D1*
X61632D2*
X63505D1*
X10496Y48813D2*
X11905D1*
X13835D2*
X14698D1*
X16122D2*
X21315D1*
X23760D2*
X25565D1*
X27010D2*
X34798D1*
X35202D2*
X42390D1*
X43835D2*
X51410D1*
X52155D2*
X52798D1*
X54222D2*
X55338D1*
X56762D2*
X60418D1*
X61842D2*
X63505D1*
X10496Y48657D2*
X11970D1*
X13770D2*
X14568D1*
X16252D2*
X21470D1*
X23915D2*
X25720D1*
X27165D2*
X42235D1*
X43680D2*
X51410D1*
X52090D2*
X52668D1*
X54352D2*
X55208D1*
X56892D2*
X60288D1*
X61972D2*
X63505D1*
X10496Y48500D2*
X12070D1*
X13670D2*
X14483D1*
X16337D2*
X21628D1*
X24072D2*
X25878D1*
X27322D2*
X42078D1*
X43522D2*
X51410D1*
X52090D2*
X52583D1*
X54437D2*
X55123D1*
X56977D2*
X60203D1*
X62057D2*
X63505D1*
X10496Y48343D2*
X12225D1*
X13515D2*
X14428D1*
X24230D2*
X26035D1*
X27480D2*
X41920D1*
X43365D2*
X51410D1*
X52090D2*
X52528D1*
X54492D2*
X55068D1*
X57032D2*
X60148D1*
X62112D2*
X63505D1*
X10496Y48187D2*
X12495D1*
X13245D2*
X14403D1*
X24385D2*
X26190D1*
X27635D2*
X41765D1*
X43210D2*
X51410D1*
X52090D2*
X52503D1*
X54517D2*
X55043D1*
X57057D2*
X60123D1*
X62137D2*
X63505D1*
X10496Y48030D2*
X14400D1*
X24542D2*
X26348D1*
X27792D2*
X41608D1*
X43052D2*
X51410D1*
X52090D2*
X52500D1*
X54520D2*
X55040D1*
X57060D2*
X60120D1*
X62140D2*
X63505D1*
X10496Y47873D2*
X14425D1*
X24700D2*
X26505D1*
X27950D2*
X41450D1*
X42895D2*
X51410D1*
X52090D2*
X52525D1*
X54495D2*
X55065D1*
X57035D2*
X60145D1*
X62115D2*
X63505D1*
X10496Y47717D2*
X14475D1*
X16345D2*
X21910D1*
X24855D2*
X26660D1*
X28105D2*
X41295D1*
X42740D2*
X51410D1*
X52090D2*
X52575D1*
X54445D2*
X55115D1*
X56985D2*
X60195D1*
X62065D2*
X63505D1*
X10496Y47560D2*
X12700D1*
X13040D2*
X14558D1*
X16262D2*
X22068D1*
X25012D2*
X26818D1*
X28262D2*
X34775D1*
X35425D2*
X41138D1*
X42582D2*
X51410D1*
X52090D2*
X52498D1*
X54362D2*
X55198D1*
X56902D2*
X60278D1*
X61982D2*
X63505D1*
X10496Y47403D2*
X12300D1*
X13440D2*
X14683D1*
X16137D2*
X22225D1*
X25170D2*
X26975D1*
X35545D2*
X40980D1*
X42425D2*
X51410D1*
X52090D2*
X52340D1*
X54237D2*
X55323D1*
X56777D2*
X60403D1*
X61857D2*
X63505D1*
X10496Y47247D2*
X12118D1*
X13622D2*
X14880D1*
X15940D2*
X22380D1*
X25325D2*
X27130D1*
X35590D2*
X40825D1*
X42270D2*
X51410D1*
X52090D2*
X52185D1*
X54040D2*
X55520D1*
X56580D2*
X60600D1*
X61660D2*
X63505D1*
X10496Y47090D2*
X12000D1*
X13740D2*
X22538D1*
X25482D2*
X27288D1*
X35577D2*
X40668D1*
X42112D2*
X51410D1*
X52972D2*
X63505D1*
X10496Y46933D2*
X11925D1*
X13815D2*
X22695D1*
X25640D2*
X27445D1*
X35510D2*
X40510D1*
X41955D2*
X51410D1*
X52815D2*
X63505D1*
X10496Y46777D2*
X11878D1*
X13862D2*
X22850D1*
X25795D2*
X27600D1*
X28545D2*
X33733D1*
X34667D2*
X34868D1*
X35332D2*
X40355D1*
X41800D2*
X51410D1*
X52660D2*
X63505D1*
X10496Y46620D2*
X11858D1*
X13882D2*
X23008D1*
X25952D2*
X27285D1*
X28702D2*
X33708D1*
X34692D2*
X40198D1*
X41642D2*
X51410D1*
X52502D2*
X63505D1*
X10496Y46463D2*
X11865D1*
X13875D2*
X14975D1*
X15845D2*
X23165D1*
X26110D2*
X27160D1*
X29072D2*
X29428D1*
X30072D2*
X31928D1*
X32572D2*
X33738D1*
X34662D2*
X40040D1*
X41485D2*
X51410D1*
X52440D2*
X53075D1*
X53945D2*
X55615D1*
X56485D2*
X60695D1*
X61565D2*
X63505D1*
X10496Y46307D2*
X11895D1*
X13845D2*
X14735D1*
X16085D2*
X23320D1*
X26265D2*
X27113D1*
X29195D2*
X29305D1*
X30195D2*
X31805D1*
X32695D2*
X33830D1*
X34570D2*
X39885D1*
X41330D2*
X51410D1*
X52440D2*
X52835D1*
X54185D2*
X55375D1*
X56725D2*
X60455D1*
X61805D2*
X63505D1*
X10496Y46150D2*
X11953D1*
X13787D2*
X14590D1*
X16230D2*
X23478D1*
X26422D2*
X27120D1*
X30417D2*
X30978D1*
X32967D2*
X39728D1*
X41172D2*
X51410D1*
X52440D2*
X52690D1*
X54330D2*
X55230D1*
X56870D2*
X60310D1*
X61950D2*
X63505D1*
X10496Y45993D2*
X12045D1*
X13695D2*
X14498D1*
X16322D2*
X16418D1*
X16982D2*
X23635D1*
X26580D2*
X27185D1*
X30640D2*
X30820D1*
X33155D2*
X39570D1*
X41015D2*
X51410D1*
X52440D2*
X52598D1*
X54422D2*
X55138D1*
X56962D2*
X60218D1*
X62042D2*
X63505D1*
X10496Y45837D2*
X12188D1*
X13552D2*
X14438D1*
X17127D2*
X23790D1*
X33227D2*
X39415D1*
X40860D2*
X51410D1*
X52440D2*
X52538D1*
X54482D2*
X55078D1*
X57022D2*
X60158D1*
X62102D2*
X63505D1*
X10496Y45680D2*
X12418D1*
X13322D2*
X14405D1*
X17185D2*
X23948D1*
X33240D2*
X39258D1*
X40702D2*
X51410D1*
X54515D2*
X55045D1*
X57055D2*
X60125D1*
X62135D2*
X63505D1*
X10496Y45523D2*
X14398D1*
X17185D2*
X24105D1*
X33197D2*
X39100D1*
X40545D2*
X51410D1*
X54522D2*
X55038D1*
X57062D2*
X60118D1*
X62142D2*
X63505D1*
X10496Y45367D2*
X14418D1*
X17130D2*
X24260D1*
X40390D2*
X51410D1*
X54502D2*
X55058D1*
X57042D2*
X60138D1*
X62122D2*
X63505D1*
X10496Y45210D2*
X14460D1*
X17062D2*
X24418D1*
X40232D2*
X51410D1*
X52440D2*
X52560D1*
X54460D2*
X55100D1*
X57000D2*
X60180D1*
X62080D2*
X63505D1*
X10496Y45053D2*
X14535D1*
X17062D2*
X24575D1*
X40075D2*
X51410D1*
X52440D2*
X52635D1*
X54385D2*
X55175D1*
X56925D2*
X60255D1*
X62005D2*
X63505D1*
X10496Y44897D2*
X12353D1*
X13387D2*
X14650D1*
X16170D2*
X16338D1*
X17062D2*
X24730D1*
X39920D2*
X51410D1*
X52440D2*
X52750D1*
X54270D2*
X55290D1*
X56810D2*
X60370D1*
X61890D2*
X63505D1*
X10496Y44740D2*
X12150D1*
X13590D2*
X14828D1*
X15992D2*
X16338D1*
X17062D2*
X24888D1*
X39762D2*
X51410D1*
X52440D2*
X52928D1*
X54092D2*
X55468D1*
X56632D2*
X60548D1*
X61712D2*
X63505D1*
X10496Y44583D2*
X12023D1*
X13717D2*
X15198D1*
X15622D2*
X16338D1*
X17062D2*
X25045D1*
X39597D2*
X41895D1*
X42605D2*
X51410D1*
X52440D2*
X53298D1*
X53722D2*
X55838D1*
X56262D2*
X60918D1*
X61342D2*
X63505D1*
X10496Y44427D2*
X11938D1*
X13802D2*
X16338D1*
X17062D2*
X25200D1*
X32400D2*
X32915D1*
X33885D2*
X34295D1*
X34905D2*
X41793D1*
X42707D2*
X51410D1*
X52440D2*
X63505D1*
X10496Y44270D2*
X11885D1*
X13855D2*
X16338D1*
X17062D2*
X25358D1*
X32242D2*
X32848D1*
X33885D2*
X34163D1*
X35037D2*
X41760D1*
X42740D2*
X51410D1*
X52440D2*
X63505D1*
X10496Y44113D2*
X11860D1*
X13880D2*
X16338D1*
X17062D2*
X25515D1*
X32085D2*
X32690D1*
X33827D2*
X34113D1*
X35087D2*
X41780D1*
X42720D2*
X51410D1*
X52440D2*
X63505D1*
X10496Y43957D2*
X11860D1*
X14180D2*
X15055D1*
X15765D2*
X16338D1*
X17062D2*
X28035D1*
X31930D2*
X32535D1*
X33682D2*
X34118D1*
X35082D2*
X41860D1*
X42640D2*
X51410D1*
X52440D2*
X53155D1*
X53865D2*
X55695D1*
X56405D2*
X60775D1*
X61485D2*
X63505D1*
X10496Y43800D2*
X11885D1*
X14565D2*
X14775D1*
X16045D2*
X16338D1*
X17062D2*
X27878D1*
X31772D2*
X32378D1*
X33322D2*
X34180D1*
X35020D2*
X42083D1*
X42417D2*
X51410D1*
X52440D2*
X52875D1*
X54145D2*
X55415D1*
X56685D2*
X60495D1*
X61765D2*
X63505D1*
X10496Y43643D2*
X11938D1*
X16202D2*
X16338D1*
X17062D2*
X27720D1*
X31730D2*
X32220D1*
X33165D2*
X34338D1*
X34862D2*
X51410D1*
X52440D2*
X52718D1*
X54302D2*
X55258D1*
X56842D2*
X60338D1*
X61922D2*
X63505D1*
X10496Y43487D2*
X12023D1*
X17062D2*
X24815D1*
X31662D2*
X32065D1*
X33010D2*
X51410D1*
X52440D2*
X52615D1*
X54405D2*
X55155D1*
X56945D2*
X60235D1*
X62025D2*
X63505D1*
X10496Y43330D2*
X12150D1*
X17062D2*
X24658D1*
X31487D2*
X31908D1*
X32852D2*
X51410D1*
X52440D2*
X52548D1*
X54472D2*
X55088D1*
X57012D2*
X57965D1*
X62092D2*
X63505D1*
X10496Y43173D2*
X12355D1*
X13385D2*
X13970D1*
X17062D2*
X24500D1*
X28745D2*
X31750D1*
X32695D2*
X51410D1*
X54510D2*
X55050D1*
X57050D2*
X57750D1*
X62130D2*
X63505D1*
X10496Y43017D2*
X14355D1*
X17062D2*
X24415D1*
X28590D2*
X31595D1*
X32540D2*
X51410D1*
X54522D2*
X55038D1*
X57062D2*
X57595D1*
X62142D2*
X63505D1*
X10496Y42860D2*
X14410D1*
X17062D2*
X24358D1*
X28432D2*
X31438D1*
X32382D2*
X51288D1*
X54510D2*
X55050D1*
X57050D2*
X57438D1*
X62130D2*
X63505D1*
X10496Y42703D2*
X14450D1*
X17062D2*
X24303D1*
X28275D2*
X31280D1*
X32225D2*
X51130D1*
X52440D2*
X52550D1*
X54470D2*
X55090D1*
X57010D2*
X57280D1*
X62090D2*
X63505D1*
X10496Y42547D2*
X14518D1*
X17062D2*
X24245D1*
X25335D2*
X31125D1*
X32070D2*
X50975D1*
X52400D2*
X52618D1*
X54402D2*
X55158D1*
X56942D2*
X57125D1*
X58070D2*
X60238D1*
X62022D2*
X63505D1*
X10496Y42390D2*
X12415D1*
X13325D2*
X14623D1*
X16197D2*
X16338D1*
X17062D2*
X24188D1*
X25280D2*
X30968D1*
X31912D2*
X50818D1*
X52262D2*
X52723D1*
X54297D2*
X55263D1*
X56837D2*
X56968D1*
X57912D2*
X60343D1*
X61917D2*
X63505D1*
X10496Y42233D2*
X12185D1*
X13555D2*
X14783D1*
X16037D2*
X16338D1*
X17062D2*
X24133D1*
X25222D2*
X30810D1*
X31755D2*
X50660D1*
X52105D2*
X52883D1*
X54137D2*
X55423D1*
X56677D2*
X56810D1*
X57755D2*
X60503D1*
X61757D2*
X63505D1*
X10496Y42077D2*
X12045D1*
X13695D2*
X15075D1*
X15745D2*
X16338D1*
X17062D2*
X24075D1*
X25165D2*
X30655D1*
X31600D2*
X50505D1*
X51950D2*
X53175D1*
X53845D2*
X55715D1*
X56385D2*
X56655D1*
X57600D2*
X60795D1*
X61465D2*
X63505D1*
X10496Y41920D2*
X11953D1*
X13787D2*
X16338D1*
X17062D2*
X24018D1*
X25110D2*
X30535D1*
X31442D2*
X50348D1*
X51792D2*
X54498D1*
X57442D2*
X63505D1*
X10496Y41763D2*
X11895D1*
X13845D2*
X16338D1*
X17062D2*
X23960D1*
X25052D2*
X30510D1*
X31722D2*
X50190D1*
X51635D2*
X54340D1*
X57285D2*
X63505D1*
X10496Y41607D2*
X11865D1*
X13875D2*
X16338D1*
X17062D2*
X23905D1*
X24995D2*
X30510D1*
X31845D2*
X50035D1*
X51480D2*
X54185D1*
X57130D2*
X63505D1*
X10496Y41450D2*
X11858D1*
X13882D2*
X15168D1*
X15652D2*
X16338D1*
X17062D2*
X23848D1*
X24940D2*
X30510D1*
X31887D2*
X49878D1*
X51322D2*
X53268D1*
X53752D2*
X54028D1*
X56970D2*
X60888D1*
X61372D2*
X63505D1*
X10496Y41293D2*
X11878D1*
X13862D2*
X14818D1*
X16002D2*
X16338D1*
X17062D2*
X23790D1*
X24882D2*
X30510D1*
X31880D2*
X49720D1*
X51165D2*
X52918D1*
X54815D2*
X55458D1*
X56642D2*
X60538D1*
X61722D2*
X63505D1*
X10496Y41137D2*
X11925D1*
X13815D2*
X14645D1*
X16175D2*
X16338D1*
X17062D2*
X23735D1*
X24825D2*
X30510D1*
X31812D2*
X49235D1*
X51010D2*
X52745D1*
X54660D2*
X55285D1*
X56815D2*
X60365D1*
X61895D2*
X63505D1*
X10496Y40980D2*
X12003D1*
X13737D2*
X14533D1*
X17062D2*
X23678D1*
X24767D2*
X30510D1*
X31740D2*
X49058D1*
X50852D2*
X52633D1*
X54502D2*
X55173D1*
X56927D2*
X60253D1*
X62007D2*
X63505D1*
X10496Y40823D2*
X12120D1*
X13620D2*
X14458D1*
X17062D2*
X23620D1*
X24712D2*
X30510D1*
X31740D2*
X48900D1*
X50695D2*
X52558D1*
X54462D2*
X55098D1*
X57002D2*
X60178D1*
X62082D2*
X63505D1*
X10496Y40667D2*
X12303D1*
X13437D2*
X14415D1*
X17062D2*
X23565D1*
X24655D2*
X30510D1*
X31740D2*
X48103D1*
X50540D2*
X52515D1*
X54505D2*
X55055D1*
X57045D2*
X60135D1*
X62125D2*
X63505D1*
X10496Y40510D2*
X12713D1*
X13027D2*
X14398D1*
X17062D2*
X23508D1*
X24597D2*
X30510D1*
X31740D2*
X47988D1*
X50382D2*
X52498D1*
X54522D2*
X55038D1*
X57062D2*
X60118D1*
X62142D2*
X63505D1*
X10496Y40353D2*
X14405D1*
X17062D2*
X23450D1*
X24542D2*
X30510D1*
X31740D2*
X47948D1*
X50242D2*
X52505D1*
X54515D2*
X55045D1*
X57055D2*
X60125D1*
X62135D2*
X63505D1*
X10496Y40197D2*
X14440D1*
X17062D2*
X23395D1*
X24485D2*
X30510D1*
X31740D2*
X47960D1*
X50215D2*
X52540D1*
X54480D2*
X55080D1*
X57020D2*
X60160D1*
X62100D2*
X63505D1*
X10496Y40040D2*
X14500D1*
X17062D2*
X23338D1*
X24427D2*
X30510D1*
X31740D2*
X48033D1*
X49050D2*
X49375D1*
X50125D2*
X52600D1*
X54420D2*
X55140D1*
X56960D2*
X60220D1*
X62040D2*
X63505D1*
X10496Y39883D2*
X12490D1*
X13250D2*
X14595D1*
X17042D2*
X23280D1*
X24372D2*
X30510D1*
X31740D2*
X48218D1*
X48655D2*
X49645D1*
X49855D2*
X52695D1*
X54325D2*
X55235D1*
X56865D2*
X60315D1*
X61945D2*
X63505D1*
X10496Y39727D2*
X12223D1*
X13517D2*
X14743D1*
X16950D2*
X23225D1*
X24315D2*
X30510D1*
X31740D2*
X52843D1*
X54177D2*
X55383D1*
X56717D2*
X60463D1*
X61797D2*
X63505D1*
X10496Y39570D2*
X12070D1*
X13670D2*
X14988D1*
X15832D2*
X15973D1*
X16842D2*
X23168D1*
X24257D2*
X30510D1*
X31740D2*
X53088D1*
X53932D2*
X55628D1*
X56472D2*
X60708D1*
X61552D2*
X63505D1*
X10496Y39413D2*
X11970D1*
X13770D2*
X15868D1*
X16737D2*
X17438D1*
X17807D2*
X23110D1*
X24202D2*
X30510D1*
X31740D2*
X63505D1*
X10496Y39257D2*
X11905D1*
X13835D2*
X15760D1*
X16630D2*
X17340D1*
X18240D2*
X23055D1*
X24145D2*
X30510D1*
X31740D2*
X63505D1*
X10496Y39100D2*
X11868D1*
X13872D2*
X15655D1*
X16525D2*
X17283D1*
X18670D2*
X22998D1*
X24087D2*
X30510D1*
X31740D2*
X63505D1*
X10496Y38943D2*
X11858D1*
X13935D2*
X15548D1*
X16417D2*
X17225D1*
X19100D2*
X22940D1*
X24032D2*
X30510D1*
X31740D2*
X63505D1*
X10496Y38787D2*
X11873D1*
X14337D2*
X14870D1*
X16310D2*
X17170D1*
X19530D2*
X22885D1*
X23975D2*
X30510D1*
X31740D2*
X52970D1*
X54050D2*
X55510D1*
X56590D2*
X60590D1*
X61670D2*
X63505D1*
X10496Y38630D2*
X11913D1*
X16205D2*
X17113D1*
X19960D2*
X22828D1*
X23917D2*
X30510D1*
X31740D2*
X52775D1*
X54245D2*
X55315D1*
X56785D2*
X60395D1*
X61865D2*
X63505D1*
X10496Y38473D2*
X11983D1*
X16267D2*
X17055D1*
X20390D2*
X22770D1*
X23862D2*
X30510D1*
X31740D2*
X52653D1*
X54367D2*
X55193D1*
X56907D2*
X60273D1*
X61987D2*
X63505D1*
X10496Y38317D2*
X12090D1*
X16347D2*
X16998D1*
X20822D2*
X22715D1*
X23805D2*
X30510D1*
X31740D2*
X52573D1*
X54447D2*
X55113D1*
X56987D2*
X60193D1*
X62067D2*
X63505D1*
X10496Y38160D2*
X12255D1*
X13485D2*
X13730D1*
X16397D2*
X16940D1*
X21252D2*
X22658D1*
X23747D2*
X30510D1*
X31740D2*
X52523D1*
X54497D2*
X55063D1*
X57037D2*
X60143D1*
X62117D2*
X63505D1*
X10496Y38003D2*
X12563D1*
X13177D2*
X14135D1*
X16420D2*
X16885D1*
X21682D2*
X22600D1*
X23692D2*
X30510D1*
X31740D2*
X52500D1*
X54520D2*
X55040D1*
X57060D2*
X60120D1*
X62140D2*
X63505D1*
X10496Y37847D2*
X14403D1*
X16417D2*
X16828D1*
X22112D2*
X22545D1*
X23635D2*
X30510D1*
X31740D2*
X52503D1*
X54517D2*
X55043D1*
X57057D2*
X60123D1*
X62137D2*
X63505D1*
X10496Y37690D2*
X14430D1*
X16390D2*
X16770D1*
X23577D2*
X30510D1*
X31740D2*
X52530D1*
X54490D2*
X55070D1*
X57030D2*
X60150D1*
X62110D2*
X63505D1*
X10496Y37533D2*
X14485D1*
X16335D2*
X16713D1*
X23522D2*
X30510D1*
X31740D2*
X52585D1*
X54435D2*
X55125D1*
X56975D2*
X60205D1*
X62055D2*
X63505D1*
X10496Y37377D2*
X12590D1*
X13150D2*
X14573D1*
X16247D2*
X16655D1*
X23465D2*
X30510D1*
X31740D2*
X52673D1*
X54347D2*
X55213D1*
X56887D2*
X60293D1*
X61967D2*
X63505D1*
X10496Y37220D2*
X12265D1*
X13475D2*
X14705D1*
X16115D2*
X16598D1*
X23407D2*
X30510D1*
X31740D2*
X52805D1*
X54215D2*
X55345D1*
X56755D2*
X60425D1*
X61835D2*
X63505D1*
X10496Y37063D2*
X12098D1*
X13642D2*
X14920D1*
X15900D2*
X16543D1*
X23352D2*
X30440D1*
X31740D2*
X53020D1*
X54000D2*
X55560D1*
X56540D2*
X60640D1*
X61620D2*
X63505D1*
X10496Y36907D2*
X11988D1*
X13752D2*
X16485D1*
X23295D2*
X30285D1*
X31740D2*
X63505D1*
X10496Y36750D2*
X11915D1*
X13825D2*
X16428D1*
X23237D2*
X30128D1*
X31740D2*
X63505D1*
X10496Y36593D2*
X11873D1*
X13867D2*
X16370D1*
X23180D2*
X29970D1*
X30915D2*
X31060D1*
X31740D2*
X63505D1*
X10496Y36437D2*
X11858D1*
X13882D2*
X16313D1*
X23125D2*
X29815D1*
X30760D2*
X31060D1*
X31740D2*
X63505D1*
X10496Y36280D2*
X11868D1*
X13872D2*
X14928D1*
X15892D2*
X16258D1*
X23067D2*
X29658D1*
X30602D2*
X31060D1*
X31740D2*
X53028D1*
X53992D2*
X55568D1*
X56532D2*
X63505D1*
X10496Y36123D2*
X11903D1*
X13837D2*
X14710D1*
X16110D2*
X16199D1*
X23010D2*
X29500D1*
X30445D2*
X31060D1*
X31740D2*
X52810D1*
X54210D2*
X55350D1*
X56750D2*
X63505D1*
X10496Y35967D2*
X11965D1*
X13775D2*
X14575D1*
X22955D2*
X29345D1*
X30290D2*
X31060D1*
X31740D2*
X52675D1*
X54345D2*
X55215D1*
X56885D2*
X63505D1*
X10496Y35810D2*
X12063D1*
X13677D2*
X14485D1*
X22897D2*
X29188D1*
X30132D2*
X31060D1*
X31740D2*
X52585D1*
X54435D2*
X55125D1*
X56975D2*
X63505D1*
X10496Y35653D2*
X12213D1*
X13527D2*
X14430D1*
X22840D2*
X28368D1*
X28932D2*
X29030D1*
X29975D2*
X31060D1*
X31832D2*
X34168D1*
X34732D2*
X52530D1*
X54490D2*
X55070D1*
X57030D2*
X63505D1*
X10496Y35497D2*
X12470D1*
X13270D2*
X14403D1*
X22785D2*
X28088D1*
X29820D2*
X30988D1*
X32112D2*
X33888D1*
X35012D2*
X52503D1*
X54517D2*
X55043D1*
X57057D2*
X63505D1*
X10496Y35340D2*
X14400D1*
X22727D2*
X27945D1*
X29662D2*
X30845D1*
X32255D2*
X33745D1*
X35155D2*
X52500D1*
X54520D2*
X55040D1*
X57060D2*
X63505D1*
X10496Y35183D2*
X14423D1*
X22670D2*
X27855D1*
X29505D2*
X30755D1*
X32345D2*
X33655D1*
X35245D2*
X52523D1*
X54497D2*
X55063D1*
X57037D2*
X63505D1*
X10496Y35027D2*
X14470D1*
X22615D2*
X27808D1*
X29492D2*
X30708D1*
X32392D2*
X33608D1*
X35292D2*
X52570D1*
X54450D2*
X55110D1*
X56990D2*
X63505D1*
X10496Y34870D2*
X12790D1*
X12950D2*
X14550D1*
X22557D2*
X27788D1*
X29512D2*
X30688D1*
X32412D2*
X33588D1*
X35312D2*
X52650D1*
X54370D2*
X55190D1*
X56910D2*
X63505D1*
X10496Y34713D2*
X12315D1*
X13425D2*
X14673D1*
X22500D2*
X27800D1*
X29500D2*
X30700D1*
X32400D2*
X33600D1*
X35300D2*
X52773D1*
X54247D2*
X55313D1*
X56787D2*
X63505D1*
X10496Y34557D2*
X12128D1*
X13612D2*
X14863D1*
X22445D2*
X27840D1*
X29460D2*
X30740D1*
X32360D2*
X33640D1*
X35260D2*
X52963D1*
X54057D2*
X55503D1*
X56597D2*
X63505D1*
X10496Y34400D2*
X12008D1*
X13732D2*
X15665D1*
X22387D2*
X24593D1*
X25407D2*
X27918D1*
X29382D2*
X30818D1*
X32282D2*
X33718D1*
X35182D2*
X37743D1*
X38557D2*
X63505D1*
X10496Y34243D2*
X11928D1*
X13812D2*
X15923D1*
X22330D2*
X24380D1*
X25620D2*
X28045D1*
X29255D2*
X30945D1*
X32155D2*
X33845D1*
X35055D2*
X37530D1*
X38770D2*
X63505D1*
X10496Y34087D2*
X11880D1*
X13860D2*
X16353D1*
X22275D2*
X24260D1*
X25740D2*
X28270D1*
X29030D2*
X31170D1*
X31930D2*
X34070D1*
X34830D2*
X37410D1*
X38890D2*
X63505D1*
X10496Y33930D2*
X11860D1*
X13880D2*
X16783D1*
X22217D2*
X24185D1*
X25815D2*
X37335D1*
X38965D2*
X63505D1*
X10496Y33773D2*
X11863D1*
X13877D2*
X14998D1*
X15822D2*
X17215D1*
X22160D2*
X24148D1*
X25852D2*
X37298D1*
X39002D2*
X63505D1*
X10496Y33617D2*
X11893D1*
X13847D2*
X14745D1*
X16075D2*
X17645D1*
X22105D2*
X24138D1*
X25862D2*
X37288D1*
X39012D2*
X63505D1*
X10496Y33460D2*
X11948D1*
X13792D2*
X14598D1*
X16222D2*
X18075D1*
X22047D2*
X24160D1*
X25840D2*
X37310D1*
X38990D2*
X63505D1*
X10496Y33303D2*
X12040D1*
X13700D2*
X14503D1*
X16317D2*
X18505D1*
X21990D2*
X24213D1*
X25787D2*
X37363D1*
X38937D2*
X63505D1*
X10496Y33147D2*
X12175D1*
X13565D2*
X14440D1*
X16380D2*
X18935D1*
X21935D2*
X24303D1*
X25697D2*
X37453D1*
X38847D2*
X63505D1*
X10496Y32990D2*
X12398D1*
X13342D2*
X14405D1*
X16415D2*
X19365D1*
X21877D2*
X24455D1*
X25545D2*
X37605D1*
X38695D2*
X63505D1*
X10496Y32833D2*
X14398D1*
X16422D2*
X19798D1*
X21820D2*
X24763D1*
X25237D2*
X37913D1*
X38387D2*
X63505D1*
X10496Y32677D2*
X14415D1*
X16405D2*
X20228D1*
X21762D2*
X63505D1*
X10496Y32520D2*
X14458D1*
X16362D2*
X20548D1*
X21707D2*
X54785D1*
X55415D2*
X63505D1*
X10496Y32363D2*
X14530D1*
X16290D2*
X20390D1*
X21650D2*
X54660D1*
X55540D2*
X63505D1*
X10496Y32207D2*
X12370D1*
X13370D2*
X14643D1*
X16177D2*
X20235D1*
X21592D2*
X54613D1*
X55587D2*
X63505D1*
X10496Y32050D2*
X12160D1*
X13580D2*
X14815D1*
X16005D2*
X20078D1*
X21520D2*
X54620D1*
X55580D2*
X63505D1*
X10496Y31893D2*
X12028D1*
X13712D2*
X15153D1*
X15667D2*
X19920D1*
X21365D2*
X54685D1*
X55515D2*
X63505D1*
X10496Y31737D2*
X11943D1*
X13797D2*
X14415D1*
X21210D2*
X54850D1*
X55350D2*
X63505D1*
X10496Y31580D2*
X11888D1*
X13852D2*
X14258D1*
X21052D2*
X63505D1*
X10496Y31423D2*
X11863D1*
X13877D2*
X14100D1*
X20895D2*
X55893D1*
X56006D2*
X56643D1*
X56756D2*
X57443D1*
X57556D2*
X63505D1*
X10496Y31267D2*
X11860D1*
X20740D2*
X55580D1*
X57870D2*
X63505D1*
X10496Y31110D2*
X11883D1*
X20582D2*
X55488D1*
X57962D2*
X63505D1*
X10496Y30953D2*
X11935D1*
X20425D2*
X55458D1*
X57992D2*
X63505D1*
X10496Y30797D2*
X12018D1*
X16420D2*
X55485D1*
X57965D2*
X63505D1*
X10496Y30640D2*
X12140D1*
X13600D2*
X13758D1*
X16370D2*
X55575D1*
X57875D2*
X63505D1*
X10496Y30483D2*
X12340D1*
X13400D2*
X13758D1*
X16410D2*
X55845D1*
X56055D2*
X56595D1*
X56805D2*
X57395D1*
X57605D2*
X63505D1*
X10496Y30327D2*
X13758D1*
X16422D2*
X63505D1*
X10496Y30170D2*
X13758D1*
X16410D2*
X63505D1*
X10496Y30013D2*
X13758D1*
X16375D2*
X24530D1*
X25470D2*
X37680D1*
X38620D2*
X63505D1*
X10496Y29857D2*
X13758D1*
X16307D2*
X24348D1*
X25652D2*
X37498D1*
X38802D2*
X63505D1*
X10496Y29700D2*
X12435D1*
X13305D2*
X13758D1*
X14435D2*
X14615D1*
X16205D2*
X24238D1*
X25762D2*
X37388D1*
X38912D2*
X63505D1*
X10496Y29543D2*
X12195D1*
X13545D2*
X13758D1*
X14435D2*
X14770D1*
X16050D2*
X24173D1*
X25827D2*
X37323D1*
X38977D2*
X51413D1*
X51787D2*
X52013D1*
X52387D2*
X52563D1*
X52937D2*
X63505D1*
X10496Y29387D2*
X12053D1*
X14435D2*
X15045D1*
X15775D2*
X24143D1*
X25857D2*
X37293D1*
X39007D2*
X51205D1*
X53145D2*
X63505D1*
X10496Y29230D2*
X11958D1*
X14435D2*
X24140D1*
X25860D2*
X37290D1*
X39010D2*
X43948D1*
X44552D2*
X44748D1*
X45352D2*
X45548D1*
X46152D2*
X51128D1*
X53222D2*
X63505D1*
X10496Y29073D2*
X11898D1*
X14435D2*
X24168D1*
X25832D2*
X37318D1*
X38982D2*
X43815D1*
X46285D2*
X51110D1*
X53240D2*
X63505D1*
X10496Y28917D2*
X11865D1*
X14435D2*
X24230D1*
X25770D2*
X37380D1*
X38920D2*
X43763D1*
X46337D2*
X51145D1*
X53205D2*
X63505D1*
X10496Y28760D2*
X11858D1*
X14435D2*
X15215D1*
X15605D2*
X24333D1*
X25667D2*
X29863D1*
X30637D2*
X32463D1*
X33237D2*
X37483D1*
X38817D2*
X43768D1*
X46332D2*
X51253D1*
X53097D2*
X54665D1*
X54935D2*
X63505D1*
X10496Y28603D2*
X11878D1*
X15987D2*
X24503D1*
X25497D2*
X29640D1*
X30860D2*
X32240D1*
X33460D2*
X37653D1*
X38647D2*
X43828D1*
X46272D2*
X54418D1*
X55182D2*
X63505D1*
X10496Y28447D2*
X11920D1*
X16167D2*
X29515D1*
X30985D2*
X32115D1*
X33585D2*
X43983D1*
X44517D2*
X44783D1*
X45317D2*
X45583D1*
X46117D2*
X54333D1*
X55267D2*
X63505D1*
X10496Y28290D2*
X11995D1*
X16282D2*
X29440D1*
X31060D2*
X32040D1*
X33660D2*
X54310D1*
X55290D2*
X63505D1*
X10496Y28133D2*
X12110D1*
X16357D2*
X29398D1*
X31102D2*
X31998D1*
X33702D2*
X54340D1*
X55260D2*
X63505D1*
X10496Y27977D2*
X12288D1*
X13452D2*
X13633D1*
X16402D2*
X29388D1*
X31112D2*
X31988D1*
X33712D2*
X54435D1*
X55165D2*
X63505D1*
X10496Y27820D2*
X12655D1*
X13085D2*
X14025D1*
X16422D2*
X29408D1*
X31092D2*
X32008D1*
X33692D2*
X50965D1*
X51134D2*
X51565D1*
X51735D2*
X63505D1*
X10496Y27663D2*
X14405D1*
X16415D2*
X29458D1*
X31042D2*
X32058D1*
X33642D2*
X50678D1*
X52022D2*
X63505D1*
X10496Y27507D2*
X14435D1*
X16385D2*
X24728D1*
X25272D2*
X29548D1*
X30952D2*
X32148D1*
X33552D2*
X37878D1*
X38422D2*
X50585D1*
X52115D2*
X63505D1*
X10496Y27350D2*
X14495D1*
X16325D2*
X24443D1*
X25557D2*
X29693D1*
X30807D2*
X32293D1*
X33407D2*
X37593D1*
X38707D2*
X50558D1*
X52142D2*
X63505D1*
X10496Y27193D2*
X12130D1*
X13610D2*
X14590D1*
X16230D2*
X24298D1*
X25702D2*
X29978D1*
X30522D2*
X32578D1*
X33122D2*
X37448D1*
X38852D2*
X50585D1*
X52115D2*
X63505D1*
X10496Y27037D2*
X11800D1*
X13940D2*
X14730D1*
X16090D2*
X24208D1*
X25792D2*
X37358D1*
X38942D2*
X50678D1*
X52022D2*
X56318D1*
X58182D2*
X63505D1*
X10496Y26880D2*
X11570D1*
X14170D2*
X14968D1*
X15852D2*
X24158D1*
X25842D2*
X37308D1*
X38992D2*
X50965D1*
X51134D2*
X51565D1*
X51735D2*
X56150D1*
X58350D2*
X63505D1*
X10496Y26723D2*
X11393D1*
X14347D2*
X24138D1*
X25862D2*
X37288D1*
X39012D2*
X56138D1*
X58362D2*
X63505D1*
X10496Y26567D2*
X11248D1*
X14492D2*
X24148D1*
X25852D2*
X37298D1*
X39002D2*
X56138D1*
X58362D2*
X63505D1*
X10496Y26410D2*
X11130D1*
X14610D2*
X24190D1*
X25810D2*
X37340D1*
X38960D2*
X53283D1*
X53535D2*
X56138D1*
X58362D2*
X63505D1*
X10496Y26253D2*
X11035D1*
X14705D2*
X24265D1*
X25735D2*
X37415D1*
X38885D2*
X53153D1*
X53965D2*
X56138D1*
X58362D2*
X63505D1*
X10496Y26097D2*
X10955D1*
X14785D2*
X24390D1*
X25610D2*
X29753D1*
X30747D2*
X32353D1*
X33347D2*
X37540D1*
X38760D2*
X53095D1*
X54395D2*
X56138D1*
X58362D2*
X63505D1*
X10496Y25940D2*
X10893D1*
X14847D2*
X24613D1*
X25387D2*
X29583D1*
X30917D2*
X32183D1*
X33517D2*
X37763D1*
X38537D2*
X53038D1*
X54825D2*
X56138D1*
X58362D2*
X60438D1*
X61822D2*
X63505D1*
X10496Y25783D2*
X10843D1*
X14897D2*
X29480D1*
X31020D2*
X32080D1*
X33620D2*
X50695D1*
X52005D2*
X52980D1*
X55257D2*
X56138D1*
X58362D2*
X60088D1*
X62172D2*
X63505D1*
X10496Y25627D2*
X10808D1*
X14932D2*
X29418D1*
X31082D2*
X32018D1*
X33682D2*
X50593D1*
X52107D2*
X52925D1*
X55687D2*
X56138D1*
X58362D2*
X59850D1*
X62410D2*
X63505D1*
X10496Y25470D2*
X10783D1*
X14957D2*
X29390D1*
X31110D2*
X31990D1*
X33710D2*
X43413D1*
X43887D2*
X50560D1*
X52140D2*
X52868D1*
X58362D2*
X59668D1*
X62592D2*
X63505D1*
X10496Y25313D2*
X10773D1*
X14967D2*
X29393D1*
X31107D2*
X31993D1*
X33707D2*
X43238D1*
X44062D2*
X50580D1*
X52120D2*
X52810D1*
X58362D2*
X59523D1*
X62737D2*
X63505D1*
X10496Y25157D2*
X10773D1*
X14967D2*
X29423D1*
X31077D2*
X32023D1*
X33677D2*
X43170D1*
X44130D2*
X50660D1*
X52040D2*
X52753D1*
X58362D2*
X59403D1*
X62857D2*
X63505D1*
X10496Y25000D2*
X10785D1*
X14955D2*
X29488D1*
X31012D2*
X32088D1*
X33612D2*
X43163D1*
X44137D2*
X50883D1*
X51217D2*
X51483D1*
X51817D2*
X52695D1*
X58362D2*
X59303D1*
X62957D2*
X63505D1*
X10496Y24843D2*
X10810D1*
X14930D2*
X24580D1*
X25420D2*
X29598D1*
X30902D2*
X32198D1*
X33502D2*
X37730D1*
X38570D2*
X43205D1*
X44095D2*
X52640D1*
X58362D2*
X59223D1*
X63037D2*
X63505D1*
X10496Y24687D2*
X10845D1*
X14895D2*
X24375D1*
X25625D2*
X29780D1*
X30720D2*
X32380D1*
X33320D2*
X37525D1*
X38775D2*
X43255D1*
X44045D2*
X52583D1*
X58362D2*
X59158D1*
X63102D2*
X63505D1*
X10496Y24530D2*
X10895D1*
X14845D2*
X24255D1*
X25745D2*
X37405D1*
X38895D2*
X43178D1*
X44122D2*
X52525D1*
X58362D2*
X59108D1*
X63152D2*
X63505D1*
X10496Y24373D2*
X10960D1*
X14780D2*
X24183D1*
X25817D2*
X37333D1*
X38967D2*
X43160D1*
X44140D2*
X52468D1*
X58345D2*
X59070D1*
X63190D2*
X63505D1*
X10496Y24217D2*
X11040D1*
X14700D2*
X24145D1*
X25855D2*
X37295D1*
X39005D2*
X43195D1*
X44105D2*
X52410D1*
X58287D2*
X59045D1*
X63215D2*
X63505D1*
X10496Y24060D2*
X11138D1*
X14602D2*
X24138D1*
X25862D2*
X37288D1*
X39012D2*
X43275D1*
X44025D2*
X52355D1*
X58230D2*
X59033D1*
X63227D2*
X63505D1*
X10496Y23903D2*
X11255D1*
X14485D2*
X24160D1*
X25840D2*
X37310D1*
X38990D2*
X43185D1*
X44115D2*
X52298D1*
X58175D2*
X59033D1*
X63227D2*
X63505D1*
X10496Y23747D2*
X11403D1*
X14337D2*
X24215D1*
X25785D2*
X37365D1*
X38935D2*
X43158D1*
X44142D2*
X52240D1*
X58117D2*
X59043D1*
X63217D2*
X63505D1*
X10496Y23590D2*
X11583D1*
X14157D2*
X24308D1*
X25692D2*
X37458D1*
X38842D2*
X43188D1*
X44112D2*
X49253D1*
X49947D2*
X52183D1*
X58060D2*
X59065D1*
X63195D2*
X63505D1*
X10496Y23433D2*
X11818D1*
X13922D2*
X24463D1*
X25537D2*
X37613D1*
X38687D2*
X43280D1*
X44020D2*
X49145D1*
X50055D2*
X52125D1*
X58002D2*
X59100D1*
X63160D2*
X63505D1*
X10496Y23277D2*
X12158D1*
X13582D2*
X24790D1*
X25210D2*
X37940D1*
X38360D2*
X43193D1*
X44107D2*
X49110D1*
X50090D2*
X52070D1*
X57945D2*
X59150D1*
X63110D2*
X63505D1*
X10496Y23120D2*
X43160D1*
X44140D2*
X49128D1*
X50072D2*
X52013D1*
X57890D2*
X59213D1*
X63047D2*
X63505D1*
X10496Y22963D2*
X43180D1*
X44120D2*
X49205D1*
X49995D2*
X51955D1*
X57832D2*
X59290D1*
X62970D2*
X63505D1*
X10496Y22807D2*
X43260D1*
X44040D2*
X49413D1*
X49787D2*
X51898D1*
X57775D2*
X59385D1*
X62875D2*
X63505D1*
X10496Y22650D2*
X43483D1*
X43817D2*
X51840D1*
X57717D2*
X59503D1*
X62757D2*
X63505D1*
X22095Y22493D2*
X51785D1*
X57660D2*
X59645D1*
X62615D2*
X63505D1*
X22095Y22337D2*
X51728D1*
X57605D2*
X59820D1*
X62440D2*
X63505D1*
X22095Y22180D2*
X51670D1*
X57547D2*
X60048D1*
X62212D2*
X63505D1*
X22095Y22023D2*
X51613D1*
X57490D2*
X60373D1*
X61887D2*
X63505D1*
X22095Y21867D2*
X51555D1*
X57432D2*
X63505D1*
X22095Y21710D2*
X51498D1*
X57375D2*
X63505D1*
X22095Y21553D2*
X51443D1*
X57317D2*
X63505D1*
X22095Y21397D2*
X51453D1*
X57262D2*
X63505D1*
X22095Y21240D2*
X51650D1*
X57205D2*
X63505D1*
X22095Y21083D2*
X52080D1*
X57147D2*
X63505D1*
X22095Y20927D2*
X52510D1*
X57090D2*
X63505D1*
X22095Y20770D2*
X52940D1*
X57032D2*
X63505D1*
X22095Y20613D2*
X24620D1*
X25380D2*
X37770D1*
X38530D2*
X53370D1*
X56977D2*
X63505D1*
X22095Y20457D2*
X24395D1*
X25605D2*
X37545D1*
X38755D2*
X53800D1*
X56920D2*
X63505D1*
X22095Y20300D2*
X24268D1*
X25732D2*
X37418D1*
X38882D2*
X54233D1*
X56862D2*
X63505D1*
X22095Y20143D2*
X24190D1*
X25810D2*
X37340D1*
X38960D2*
X54663D1*
X56805D2*
X63505D1*
X22095Y19987D2*
X24150D1*
X25850D2*
X37300D1*
X39000D2*
X55093D1*
X56747D2*
X63505D1*
X22095Y19830D2*
X24138D1*
X25862D2*
X37288D1*
X39012D2*
X55523D1*
X56692D2*
X63505D1*
X22095Y19673D2*
X24158D1*
X25842D2*
X37308D1*
X38992D2*
X48090D1*
X48710D2*
X55953D1*
X56632D2*
X63505D1*
X22095Y19517D2*
X24205D1*
X25795D2*
X37355D1*
X38945D2*
X47960D1*
X48840D2*
X63505D1*
X22095Y19360D2*
X24295D1*
X25705D2*
X28390D1*
X28910D2*
X31290D1*
X31810D2*
X34190D1*
X34710D2*
X37445D1*
X38855D2*
X47913D1*
X48887D2*
X63505D1*
X22095Y19203D2*
X24438D1*
X25562D2*
X28095D1*
X29205D2*
X30995D1*
X32105D2*
X33895D1*
X35005D2*
X37588D1*
X38712D2*
X47918D1*
X48882D2*
X63505D1*
X22095Y19047D2*
X24718D1*
X25282D2*
X27950D1*
X29350D2*
X30850D1*
X32250D2*
X33750D1*
X35150D2*
X37868D1*
X38432D2*
X47983D1*
X48817D2*
X63505D1*
X22095Y18890D2*
X27860D1*
X29440D2*
X30760D1*
X32340D2*
X33660D1*
X35240D2*
X47463D1*
X48037D2*
X48145D1*
X48655D2*
X63505D1*
X22095Y18733D2*
X27808D1*
X29492D2*
X30708D1*
X32392D2*
X33608D1*
X35292D2*
X47320D1*
X48180D2*
X63505D1*
X22095Y18577D2*
X27788D1*
X29512D2*
X30688D1*
X32412D2*
X33588D1*
X35312D2*
X47265D1*
X48235D2*
X63505D1*
X22095Y18420D2*
X27798D1*
X29502D2*
X30698D1*
X32402D2*
X33598D1*
X35302D2*
X47265D1*
X48235D2*
X63505D1*
X22095Y18263D2*
X27838D1*
X29462D2*
X30738D1*
X32362D2*
X33638D1*
X35262D2*
X47323D1*
X48177D2*
X63505D1*
X22095Y18107D2*
X27913D1*
X29387D2*
X30813D1*
X32287D2*
X33713D1*
X35187D2*
X47468D1*
X48032D2*
X63505D1*
X22095Y17950D2*
X28038D1*
X29262D2*
X30938D1*
X32162D2*
X33838D1*
X35062D2*
X47413D1*
X48087D2*
X63505D1*
X22095Y17793D2*
X28255D1*
X29045D2*
X31155D1*
X31945D2*
X34055D1*
X34845D2*
X47300D1*
X48200D2*
X63505D1*
X22095Y17637D2*
X47260D1*
X48240D2*
X63505D1*
X22095Y17480D2*
X47275D1*
X48225D2*
X63505D1*
X22095Y17323D2*
X47348D1*
X48152D2*
X63505D1*
X22095Y17167D2*
X47505D1*
X47995D2*
X63505D1*
X22095Y17010D2*
X47335D1*
X48165D2*
X63505D1*
X22095Y16853D2*
X47270D1*
X48230D2*
X63505D1*
X22095Y16697D2*
X47263D1*
X48237D2*
X63505D1*
X22095Y16540D2*
X47308D1*
X48192D2*
X63505D1*
X22095Y16383D2*
X47433D1*
X48067D2*
X63505D1*
X22095Y16227D2*
X63505D1*
X43057Y16070D2*
X63505D1*
X43095Y15913D2*
X63505D1*
X43095Y15757D2*
X47365D1*
X48235D2*
X51765D1*
X52635D2*
X63505D1*
X43095Y15600D2*
X47215D1*
X48385D2*
X51615D1*
X52785D2*
X63505D1*
X43095Y15443D2*
X47133D1*
X48467D2*
X51533D1*
X52867D2*
X63505D1*
X43095Y15287D2*
X47093D1*
X48507D2*
X51493D1*
X52907D2*
X63505D1*
X43095Y15130D2*
X47090D1*
X48510D2*
X51490D1*
X52910D2*
X63505D1*
X43095Y14973D2*
X47125D1*
X48475D2*
X51525D1*
X52875D2*
X63505D1*
X43095Y14817D2*
X47203D1*
X48397D2*
X51603D1*
X52797D2*
X63505D1*
X43095Y14660D2*
X47345D1*
X48255D2*
X51745D1*
X52655D2*
X63505D1*
X43095Y14503D2*
X63505D1*
X43095Y14347D2*
X63505D1*
X43095Y14190D2*
X63505D1*
X43095Y14033D2*
X63505D1*
X43095Y13877D2*
X63505D1*
X43095Y13720D2*
X63505D1*
X43095Y13563D2*
X63505D1*
X43095Y13407D2*
X63505D1*
X43095Y13250D2*
X63505D1*
X43095Y13093D2*
X63505D1*
X43095Y12937D2*
X63505D1*
X43095Y12780D2*
X63505D1*
X43095Y12623D2*
X63505D1*
X43095Y12467D2*
X63505D1*
X43095Y12310D2*
X63505D1*
X43095Y12153D2*
X63505D1*
X43095Y11997D2*
X63505D1*
X43095Y11840D2*
X63505D1*
X43095Y11683D2*
X63505D1*
X43095Y11527D2*
X63505D1*
X43095Y11370D2*
X63505D1*
X43095Y11213D2*
X63505D1*
X43095Y11057D2*
X63505D1*
X43095Y10900D2*
X63505D1*
X43095Y10743D2*
X63505D1*
X43095Y10587D2*
X63505D1*
X48492Y15120D2*
X48478Y15041D1*
X48455Y14965D1*
X48424Y14891D1*
X48385Y14822D1*
X48337Y14757D1*
X48283Y14698D1*
X48222Y14646D1*
X48156Y14602D1*
X48085Y14565D1*
X48011Y14536D1*
X47933Y14516D1*
X47854Y14506D1*
X47774Y14504D1*
X47694Y14512D1*
X47616Y14528D1*
X47540Y14554D1*
X47468Y14588D1*
X47400Y14630D1*
X47337Y14680D1*
X47281Y14736D1*
X47231Y14799D1*
X47189Y14866D1*
X47154Y14939D1*
X47129Y15014D1*
X47112Y15093D1*
X47104Y15172D1*
X47106Y15252D1*
X47116Y15331D1*
X47136Y15409D1*
X47164Y15484D1*
X47201Y15555D1*
X47245Y15621D1*
X47297Y15682D1*
X47356Y15736D1*
X47420Y15784D1*
X47490Y15823D1*
X47563Y15855D1*
X47640Y15878D1*
X47718Y15892D1*
X47798Y15896D1*
X47878Y15892D1*
X47957Y15879D1*
X48034Y15856D1*
X48107Y15825D1*
X48177Y15786D1*
X48242Y15739D1*
X48300Y15684D1*
X48353Y15624D1*
X48398Y15558D1*
X48435Y15487D1*
X48463Y15412D1*
X48483Y15335D1*
X48496Y15200D1*
X48492Y15120D1*
X52892D2*
X52878Y15041D1*
X52855Y14965D1*
X52824Y14891D1*
X52785Y14822D1*
X52737Y14757D1*
X52683Y14698D1*
X52622Y14646D1*
X52556Y14602D1*
X52485Y14565D1*
X52411Y14536D1*
X52333Y14516D1*
X52254Y14506D1*
X52174Y14504D1*
X52094Y14512D1*
X52016Y14528D1*
X51940Y14554D1*
X51868Y14588D1*
X51800Y14630D1*
X51737Y14680D1*
X51681Y14736D1*
X51631Y14799D1*
X51589Y14866D1*
X51554Y14939D1*
X51529Y15014D1*
X51512Y15093D1*
X51504Y15172D1*
X51506Y15252D1*
X51516Y15331D1*
X51536Y15409D1*
X51564Y15484D1*
X51601Y15555D1*
X51645Y15621D1*
X51697Y15682D1*
X51756Y15736D1*
X51820Y15784D1*
X51890Y15823D1*
X51963Y15855D1*
X52040Y15878D1*
X52118Y15892D1*
X52198Y15896D1*
X52278Y15892D1*
X52357Y15879D1*
X52434Y15856D1*
X52507Y15825D1*
X52577Y15786D1*
X52642Y15739D1*
X52700Y15684D1*
X52753Y15624D1*
X52798Y15558D1*
X52835Y15487D1*
X52863Y15412D1*
X52883Y15335D1*
X52896Y15200D1*
X52892Y15120D1*
X58132Y75960D2*
X58120Y75801D1*
X58095Y75642D1*
X58059Y75487D1*
X58010Y75334D1*
X57950Y75186D1*
X57879Y75043D1*
X57797Y74905D1*
X57705Y74775D1*
X57603Y74651D1*
X57492Y74536D1*
X57372Y74430D1*
X57245Y74333D1*
X57110Y74247D1*
X56970Y74171D1*
X56824Y74106D1*
X56673Y74052D1*
X56518Y74010D1*
X56361Y73980D1*
X56202Y73962D1*
X56042Y73957D1*
X55883Y73963D1*
X55724Y73982D1*
X55567Y74013D1*
X55413Y74056D1*
X55263Y74111D1*
X55117Y74177D1*
X54977Y74254D1*
X54843Y74342D1*
X54716Y74440D1*
X54597Y74547D1*
X54487Y74663D1*
X54386Y74787D1*
X54295Y74918D1*
X54214Y75056D1*
X54144Y75200D1*
X54085Y75348D1*
X54038Y75501D1*
X54002Y75657D1*
X53979Y75815D1*
X53968Y75975D1*
X53969Y76135D1*
X53982Y76294D1*
X54008Y76452D1*
X54046Y76608D1*
X54095Y76760D1*
X54156Y76908D1*
X54228Y77050D1*
X54311Y77187D1*
X54404Y77317D1*
X54507Y77440D1*
X54619Y77554D1*
X54739Y77659D1*
X54867Y77755D1*
X55003Y77841D1*
X55144Y77916D1*
X55290Y77980D1*
X55442Y78032D1*
X55596Y78073D1*
X55754Y78102D1*
X55913Y78119D1*
X56073Y78123D1*
X56232Y78115D1*
X56391Y78095D1*
X56548Y78063D1*
X56701Y78019D1*
X56851Y77963D1*
X56996Y77896D1*
X57136Y77818D1*
X57269Y77729D1*
X57395Y77631D1*
X57513Y77523D1*
X57623Y77406D1*
X57723Y77281D1*
X57813Y77149D1*
X57893Y77011D1*
X57962Y76867D1*
X58020Y76717D1*
X58066Y76564D1*
X58101Y76408D1*
X58123Y76250D1*
X58133Y76040D1*
X58132Y75960D1*
X30192D2*
X30180Y75801D1*
X30155Y75642D1*
X30119Y75487D1*
X30070Y75334D1*
X30010Y75186D1*
X29939Y75043D1*
X29857Y74905D1*
X29765Y74775D1*
X29663Y74651D1*
X29552Y74536D1*
X29432Y74430D1*
X29305Y74333D1*
X29170Y74247D1*
X29030Y74171D1*
X28884Y74106D1*
X28733Y74052D1*
X28578Y74010D1*
X28421Y73980D1*
X28262Y73962D1*
X28103Y73957D1*
X27943Y73963D1*
X27784Y73982D1*
X27627Y74013D1*
X27473Y74056D1*
X27323Y74111D1*
X27177Y74177D1*
X27037Y74254D1*
X26903Y74342D1*
X26776Y74440D1*
X26657Y74547D1*
X26547Y74663D1*
X26446Y74787D1*
X26355Y74918D1*
X26274Y75056D1*
X26204Y75200D1*
X26145Y75348D1*
X26098Y75501D1*
X26062Y75657D1*
X26039Y75815D1*
X26028Y75975D1*
X26029Y76135D1*
X26042Y76294D1*
X26068Y76452D1*
X26106Y76608D1*
X26155Y76760D1*
X26216Y76908D1*
X26288Y77050D1*
X26371Y77187D1*
X26464Y77317D1*
X26567Y77440D1*
X26679Y77554D1*
X26799Y77659D1*
X26927Y77755D1*
X27063Y77841D1*
X27204Y77916D1*
X27350Y77980D1*
X27502Y78032D1*
X27656Y78073D1*
X27814Y78102D1*
X27973Y78119D1*
X28133Y78123D1*
X28292Y78115D1*
X28451Y78095D1*
X28608Y78063D1*
X28761Y78019D1*
X28911Y77963D1*
X29056Y77896D1*
X29196Y77818D1*
X29329Y77729D1*
X29455Y77631D1*
X29573Y77523D1*
X29683Y77406D1*
X29783Y77281D1*
X29873Y77149D1*
X29953Y77011D1*
X30022Y76867D1*
X30080Y76717D1*
X30126Y76564D1*
X30161Y76408D1*
X30183Y76250D1*
X30193Y76040D1*
X30192Y75960D1*
X14952Y25160D2*
X14940Y25001D1*
X14915Y24842D1*
X14879Y24687D1*
X14830Y24534D1*
X14770Y24386D1*
X14699Y24243D1*
X14617Y24105D1*
X14525Y23975D1*
X14423Y23851D1*
X14312Y23736D1*
X14192Y23630D1*
X14065Y23533D1*
X13930Y23447D1*
X13790Y23371D1*
X13644Y23306D1*
X13493Y23252D1*
X13338Y23210D1*
X13181Y23180D1*
X13022Y23162D1*
X12862Y23157D1*
X12703Y23163D1*
X12544Y23182D1*
X12387Y23213D1*
X12233Y23256D1*
X12083Y23311D1*
X11937Y23377D1*
X11797Y23454D1*
X11663Y23542D1*
X11536Y23640D1*
X11417Y23747D1*
X11307Y23863D1*
X11206Y23986D1*
X11115Y24118D1*
X11034Y24256D1*
X10964Y24400D1*
X10905Y24548D1*
X10858Y24701D1*
X10822Y24857D1*
X10799Y25015D1*
X10788Y25175D1*
X10789Y25335D1*
X10802Y25494D1*
X10828Y25652D1*
X10866Y25808D1*
X10915Y25960D1*
X10976Y26108D1*
X11048Y26250D1*
X11131Y26387D1*
X11224Y26517D1*
X11327Y26640D1*
X11439Y26754D1*
X11559Y26859D1*
X11688Y26955D1*
X11823Y27041D1*
X11964Y27116D1*
X12110Y27180D1*
X12262Y27232D1*
X12416Y27273D1*
X12574Y27302D1*
X12733Y27319D1*
X12893Y27323D1*
X13052Y27315D1*
X13211Y27295D1*
X13368Y27263D1*
X13521Y27219D1*
X13671Y27163D1*
X13816Y27096D1*
X13956Y27018D1*
X14089Y26929D1*
X14215Y26831D1*
X14333Y26723D1*
X14443Y26606D1*
X14543Y26481D1*
X14633Y26349D1*
X14713Y26211D1*
X14782Y26067D1*
X14840Y25917D1*
X14886Y25764D1*
X14921Y25608D1*
X14943Y25450D1*
X14953Y25240D1*
X14952Y25160D1*
X63212Y23890D2*
X63200Y23731D1*
X63175Y23572D1*
X63139Y23417D1*
X63090Y23264D1*
X63030Y23116D1*
X62959Y22973D1*
X62877Y22835D1*
X62785Y22705D1*
X62683Y22581D1*
X62572Y22466D1*
X62452Y22360D1*
X62325Y22263D1*
X62190Y22177D1*
X62050Y22101D1*
X61904Y22036D1*
X61753Y21982D1*
X61598Y21940D1*
X61441Y21910D1*
X61282Y21892D1*
X61123Y21887D1*
X60963Y21893D1*
X60804Y21912D1*
X60647Y21943D1*
X60493Y21986D1*
X60343Y22041D1*
X60197Y22107D1*
X60057Y22184D1*
X59923Y22272D1*
X59796Y22370D1*
X59677Y22477D1*
X59567Y22593D1*
X59466Y22716D1*
X59375Y22848D1*
X59294Y22986D1*
X59224Y23130D1*
X59165Y23278D1*
X59118Y23431D1*
X59082Y23587D1*
X59059Y23745D1*
X59048Y23905D1*
X59049Y24065D1*
X59062Y24224D1*
X59088Y24382D1*
X59126Y24538D1*
X59175Y24690D1*
X59236Y24838D1*
X59308Y24980D1*
X59391Y25117D1*
X59484Y25247D1*
X59587Y25370D1*
X59699Y25484D1*
X59819Y25589D1*
X59947Y25685D1*
X60083Y25771D1*
X60224Y25846D1*
X60370Y25910D1*
X60522Y25963D1*
X60676Y26003D1*
X60834Y26032D1*
X60993Y26049D1*
X61153Y26053D1*
X61312Y26045D1*
X61471Y26025D1*
X61628Y25993D1*
X61781Y25949D1*
X61931Y25893D1*
X62077Y25826D1*
X62216Y25748D1*
X62349Y25659D1*
X62475Y25561D1*
X62593Y25453D1*
X62703Y25336D1*
X62803Y25211D1*
X62893Y25079D1*
X62973Y24941D1*
X63042Y24797D1*
X63100Y24647D1*
X63146Y24494D1*
X63181Y24338D1*
X63203Y24180D1*
X63213Y23970D1*
X63212Y23890D1*
X62123Y37860D2*
X62098Y37702D1*
X62047Y37551D1*
X61973Y37409D1*
X61877Y37281D1*
X61762Y37170D1*
X61631Y37079D1*
X61487Y37010D1*
X61334Y36965D1*
X61175Y36945D1*
X61015Y36950D1*
X60859Y36981D1*
X60709Y37037D1*
X60570Y37116D1*
X60445Y37216D1*
X60338Y37335D1*
X60252Y37469D1*
X60188Y37616D1*
X60148Y37771D1*
X60134Y37930D1*
X60145Y38089D1*
X60181Y38245D1*
X60242Y38393D1*
X60326Y38529D1*
X60430Y38650D1*
X60553Y38752D1*
X60690Y38834D1*
X60839Y38893D1*
X60995Y38927D1*
X61155Y38936D1*
X61314Y38919D1*
X61468Y38877D1*
X61613Y38811D1*
X61746Y38723D1*
X61864Y38614D1*
X61962Y38488D1*
X62039Y38348D1*
X62093Y38198D1*
X62121Y38040D1*
X62126Y37940D1*
X62123Y37860D1*
Y40400D2*
X62098Y40242D1*
X62047Y40091D1*
X61973Y39949D1*
X61877Y39821D1*
X61762Y39710D1*
X61631Y39619D1*
X61487Y39550D1*
X61334Y39505D1*
X61175Y39485D1*
X61015Y39490D1*
X60859Y39521D1*
X60709Y39577D1*
X60570Y39656D1*
X60445Y39756D1*
X60338Y39875D1*
X60252Y40009D1*
X60188Y40156D1*
X60148Y40311D1*
X60134Y40470D1*
X60145Y40629D1*
X60181Y40785D1*
X60242Y40932D1*
X60326Y41069D1*
X60430Y41190D1*
X60553Y41292D1*
X60690Y41374D1*
X60839Y41433D1*
X60995Y41467D1*
X61155Y41476D1*
X61314Y41459D1*
X61468Y41417D1*
X61613Y41351D1*
X61746Y41263D1*
X61864Y41154D1*
X61962Y41028D1*
X62039Y40888D1*
X62093Y40738D1*
X62121Y40580D1*
X62126Y40480D1*
X62123Y40400D1*
Y42940D2*
X62098Y42782D1*
X62047Y42631D1*
X61973Y42489D1*
X61877Y42361D1*
X61762Y42250D1*
X61631Y42159D1*
X61487Y42090D1*
X61334Y42045D1*
X61175Y42025D1*
X61015Y42030D1*
X60859Y42061D1*
X60709Y42117D1*
X60570Y42196D1*
X60445Y42296D1*
X60338Y42415D1*
X60252Y42549D1*
X60187Y42698D1*
X58203Y42697D1*
X56978Y41472D1*
X56915Y41423D1*
X56842Y41391D1*
X56750Y41377D1*
X56491Y41374D1*
X56602Y41310D1*
X56703Y41232D1*
X56794Y41142D1*
X56873Y41042D1*
X56938Y40931D1*
X56989Y40814D1*
X57024Y40691D1*
X57043Y40564D1*
X57045Y40432D1*
X57031Y40305D1*
X57000Y40181D1*
X56954Y40061D1*
X56893Y39949D1*
X56818Y39845D1*
X56731Y39752D1*
X56632Y39671D1*
X56523Y39603D1*
X56407Y39550D1*
X56285Y39512D1*
X56159Y39490D1*
X56031Y39484D1*
X55904Y39494D1*
X55779Y39521D1*
X55658Y39564D1*
X55544Y39622D1*
X55438Y39694D1*
X55342Y39778D1*
X55258Y39875D1*
X55187Y39981D1*
X55131Y40096D1*
X55089Y40217D1*
X55063Y40342D1*
X55054Y40470D1*
X55061Y40597D1*
X55084Y40723D1*
X55123Y40845D1*
X55177Y40961D1*
X55246Y41069D1*
X55328Y41167D1*
X55422Y41254D1*
X55526Y41328D1*
X55617Y41377D1*
X54883D1*
X54411Y40904D1*
X54449Y40814D1*
X54490Y40660D1*
X54506Y40501D1*
X54503Y40400D1*
X54478Y40242D1*
X54427Y40091D1*
X54353Y39949D1*
X54257Y39821D1*
X54142Y39710D1*
X54011Y39619D1*
X53867Y39550D1*
X53714Y39505D1*
X53555Y39485D1*
X53395Y39490D1*
X53239Y39521D1*
X53089Y39577D1*
X52950Y39656D1*
X52825Y39756D1*
X52718Y39875D1*
X52632Y40009D1*
X52568Y40156D1*
X52528Y40311D1*
X52514Y40470D1*
X52525Y40629D1*
X52561Y40785D1*
X52622Y40932D1*
X52706Y41069D1*
X52810Y41190D1*
X52933Y41292D1*
X53070Y41374D1*
X53219Y41433D1*
X53375Y41467D1*
X53535Y41476D1*
X53694Y41459D1*
X53848Y41417D1*
X53960Y41368D1*
X54522Y41928D1*
X54585Y41977D1*
X54658Y42009D1*
X54750Y42023D1*
X56617D1*
X57842Y43248D1*
X57905Y43297D1*
X57978Y43329D1*
X58070Y43343D1*
X60188D1*
X60242Y43472D1*
X60326Y43609D1*
X60430Y43730D1*
X60553Y43832D1*
X60690Y43914D1*
X60839Y43973D1*
X60995Y44007D1*
X61155Y44016D1*
X61314Y43999D1*
X61468Y43957D1*
X61613Y43891D1*
X61746Y43803D1*
X61864Y43694D1*
X61962Y43568D1*
X62039Y43428D1*
X62093Y43278D1*
X62121Y43120D1*
X62126Y43020D1*
X62123Y42940D1*
Y45480D2*
X62098Y45322D1*
X62047Y45171D1*
X61973Y45029D1*
X61877Y44901D1*
X61762Y44790D1*
X61631Y44699D1*
X61487Y44630D1*
X61334Y44585D1*
X61175Y44565D1*
X61015Y44570D1*
X60859Y44601D1*
X60709Y44657D1*
X60570Y44736D1*
X60445Y44836D1*
X60338Y44955D1*
X60252Y45089D1*
X60188Y45236D1*
X60148Y45391D1*
X60134Y45550D1*
X60145Y45709D1*
X60181Y45865D1*
X60242Y46012D1*
X60326Y46149D1*
X60430Y46270D1*
X60553Y46372D1*
X60690Y46454D1*
X60839Y46513D1*
X60995Y46547D1*
X61155Y46556D1*
X61314Y46539D1*
X61468Y46497D1*
X61613Y46431D1*
X61746Y46343D1*
X61864Y46234D1*
X61962Y46108D1*
X62039Y45968D1*
X62093Y45818D1*
X62121Y45660D1*
X62126Y45560D1*
X62123Y45480D1*
Y48020D2*
X62098Y47862D1*
X62047Y47711D1*
X61973Y47569D1*
X61877Y47441D1*
X61762Y47330D1*
X61631Y47239D1*
X61487Y47170D1*
X61334Y47125D1*
X61175Y47105D1*
X61015Y47110D1*
X60859Y47141D1*
X60709Y47197D1*
X60570Y47276D1*
X60445Y47376D1*
X60338Y47495D1*
X60252Y47629D1*
X60188Y47776D1*
X60148Y47931D1*
X60134Y48090D1*
X60145Y48249D1*
X60181Y48405D1*
X60242Y48553D1*
X60326Y48689D1*
X60430Y48810D1*
X60553Y48912D1*
X60690Y48994D1*
X60839Y49053D1*
X60995Y49087D1*
X61155Y49096D1*
X61314Y49079D1*
X61468Y49037D1*
X61613Y48971D1*
X61746Y48883D1*
X61864Y48774D1*
X61962Y48648D1*
X62039Y48508D1*
X62093Y48358D1*
X62121Y48200D1*
X62126Y48100D1*
X62123Y48020D1*
X62126Y50624D2*
X62116Y50496D1*
X62090Y50371D1*
X62047Y50251D1*
X61990Y50136D1*
X61918Y50030D1*
X61834Y49934D1*
X61737Y49850D1*
X61631Y49779D1*
X61517Y49722D1*
X61396Y49680D1*
X61271Y49654D1*
X61143Y49644D1*
X61015Y49650D1*
X60890Y49673D1*
X60768Y49712D1*
X60652Y49766D1*
X60544Y49834D1*
X60445Y49916D1*
X60358Y50010D1*
X60284Y50114D1*
X60223Y50227D1*
X60178Y50346D1*
X60148Y50471D1*
X60135Y50598D1*
X60137Y50726D1*
X60156Y50852D1*
X60192Y50975D1*
X60242Y51093D1*
X60308Y51203D1*
X60386Y51303D1*
X60477Y51393D1*
X60579Y51470D1*
X60690Y51534D1*
X60808Y51583D1*
X60932Y51617D1*
X61059Y51634D1*
X61187Y51635D1*
X61314Y51619D1*
X61437Y51588D1*
X61556Y51541D1*
X61668Y51479D1*
X61771Y51403D1*
X61864Y51314D1*
X61944Y51215D1*
X62011Y51106D1*
X62063Y50989D1*
X62100Y50867D1*
X62121Y50740D1*
X62126Y50624D1*
Y53164D2*
X62116Y53036D1*
X62090Y52911D1*
X62047Y52791D1*
X61990Y52676D1*
X61918Y52570D1*
X61834Y52474D1*
X61737Y52390D1*
X61631Y52319D1*
X61517Y52262D1*
X61396Y52220D1*
X61271Y52194D1*
X61143Y52184D1*
X61015Y52190D1*
X60890Y52213D1*
X60768Y52252D1*
X60652Y52306D1*
X60544Y52374D1*
X60445Y52456D1*
X60358Y52550D1*
X60284Y52654D1*
X60223Y52767D1*
X60178Y52886D1*
X60148Y53011D1*
X60135Y53138D1*
X60137Y53266D1*
X60156Y53392D1*
X60192Y53515D1*
X60242Y53633D1*
X60308Y53742D1*
X60386Y53843D1*
X60477Y53933D1*
X60579Y54010D1*
X60690Y54074D1*
X60808Y54123D1*
X60932Y54156D1*
X61059Y54174D1*
X61187Y54175D1*
X61314Y54159D1*
X61437Y54128D1*
X61556Y54081D1*
X61668Y54019D1*
X61771Y53943D1*
X61864Y53854D1*
X61944Y53755D1*
X62011Y53646D1*
X62063Y53529D1*
X62100Y53407D1*
X62121Y53280D1*
X62126Y53164D1*
X62123Y55640D2*
X62098Y55482D1*
X62047Y55331D1*
X61973Y55189D1*
X61877Y55061D1*
X61762Y54950D1*
X61631Y54859D1*
X61487Y54790D1*
X61334Y54745D1*
X61175Y54725D1*
X61015Y54730D1*
X60859Y54761D1*
X60709Y54817D1*
X60570Y54896D1*
X60445Y54996D1*
X60338Y55115D1*
X60252Y55249D1*
X60188Y55396D1*
X60148Y55551D1*
X60134Y55710D1*
X60145Y55869D1*
X60181Y56025D1*
X60242Y56172D1*
X60326Y56309D1*
X60430Y56430D1*
X60553Y56532D1*
X60690Y56614D1*
X60839Y56673D1*
X60995Y56707D1*
X61155Y56716D1*
X61314Y56699D1*
X61468Y56657D1*
X61613Y56591D1*
X61746Y56503D1*
X61864Y56394D1*
X61962Y56268D1*
X62039Y56128D1*
X62093Y55978D1*
X62121Y55820D1*
X62126Y55720D1*
X62123Y55640D1*
Y60720D2*
X62098Y60562D1*
X62047Y60411D1*
X61973Y60269D1*
X61877Y60141D1*
X61762Y60030D1*
X61631Y59939D1*
X61487Y59870D1*
X61334Y59825D1*
X61175Y59805D1*
X61015Y59810D1*
X60859Y59841D1*
X60709Y59897D1*
X60570Y59976D1*
X60445Y60076D1*
X60338Y60195D1*
X60252Y60329D1*
X60188Y60476D1*
X60148Y60631D1*
X60134Y60790D1*
X60145Y60949D1*
X60181Y61105D1*
X60242Y61252D1*
X60326Y61389D1*
X60430Y61510D1*
X60553Y61612D1*
X60690Y61694D1*
X60839Y61753D1*
X60995Y61787D1*
X61155Y61796D1*
X61314Y61779D1*
X61468Y61737D1*
X61613Y61671D1*
X61746Y61583D1*
X61864Y61474D1*
X61962Y61348D1*
X62039Y61208D1*
X62093Y61058D1*
X62121Y60900D1*
X62126Y60800D1*
X62123Y60720D1*
Y63260D2*
X62098Y63102D1*
X62047Y62951D1*
X61973Y62809D1*
X61877Y62681D1*
X61762Y62570D1*
X61631Y62479D1*
X61487Y62410D1*
X61334Y62365D1*
X61175Y62345D1*
X61015Y62350D1*
X60859Y62381D1*
X60709Y62437D1*
X60570Y62516D1*
X60445Y62616D1*
X60338Y62735D1*
X60252Y62869D1*
X60188Y63016D1*
X60148Y63171D1*
X60134Y63330D1*
X60145Y63489D1*
X60181Y63645D1*
X60242Y63792D1*
X60326Y63929D1*
X60430Y64050D1*
X60553Y64152D1*
X60690Y64234D1*
X60839Y64293D1*
X60995Y64327D1*
X61155Y64336D1*
X61314Y64319D1*
X61468Y64277D1*
X61613Y64211D1*
X61746Y64123D1*
X61864Y64014D1*
X61962Y63888D1*
X62039Y63748D1*
X62093Y63598D1*
X62121Y63440D1*
X62126Y63340D1*
X62123Y63260D1*
Y65800D2*
X62098Y65642D1*
X62047Y65491D1*
X61973Y65349D1*
X61877Y65221D1*
X61762Y65110D1*
X61631Y65019D1*
X61487Y64950D1*
X61334Y64905D1*
X61175Y64885D1*
X61015Y64890D1*
X60859Y64921D1*
X60709Y64977D1*
X60570Y65056D1*
X60445Y65156D1*
X60338Y65275D1*
X60252Y65409D1*
X60188Y65556D1*
X60148Y65711D1*
X60134Y65870D1*
X60145Y66029D1*
X60181Y66185D1*
X60242Y66332D1*
X60326Y66469D1*
X60430Y66590D1*
X60553Y66692D1*
X60690Y66774D1*
X60839Y66833D1*
X60995Y66867D1*
X61155Y66876D1*
X61314Y66859D1*
X61468Y66817D1*
X61613Y66751D1*
X61746Y66663D1*
X61864Y66554D1*
X61962Y66428D1*
X62039Y66288D1*
X62093Y66138D1*
X62121Y65980D1*
X62126Y65880D1*
X62123Y65800D1*
Y68340D2*
X62098Y68182D1*
X62047Y68031D1*
X61973Y67889D1*
X61877Y67761D1*
X61762Y67650D1*
X61631Y67559D1*
X61487Y67490D1*
X61334Y67445D1*
X61175Y67425D1*
X61015Y67430D1*
X60859Y67461D1*
X60709Y67517D1*
X60570Y67596D1*
X60445Y67696D1*
X60338Y67815D1*
X60252Y67949D1*
X60188Y68096D1*
X60148Y68251D1*
X60134Y68410D1*
X60145Y68569D1*
X60181Y68725D1*
X60242Y68873D1*
X60326Y69009D1*
X60430Y69130D1*
X60553Y69232D1*
X60690Y69314D1*
X60839Y69373D1*
X60995Y69407D1*
X61155Y69416D1*
X61314Y69399D1*
X61468Y69357D1*
X61613Y69291D1*
X61746Y69203D1*
X61864Y69094D1*
X61962Y68968D1*
X62039Y68828D1*
X62093Y68678D1*
X62121Y68520D1*
X62126Y68420D1*
X62123Y68340D1*
Y70880D2*
X62098Y70722D1*
X62047Y70571D1*
X61973Y70429D1*
X61877Y70301D1*
X61762Y70190D1*
X61631Y70099D1*
X61487Y70030D1*
X61334Y69985D1*
X61175Y69965D1*
X61015Y69970D1*
X60859Y70001D1*
X60709Y70057D1*
X60570Y70136D1*
X60445Y70236D1*
X60338Y70355D1*
X60252Y70489D1*
X60188Y70636D1*
X60148Y70791D1*
X60134Y70950D1*
X60145Y71109D1*
X60181Y71265D1*
X60242Y71413D1*
X60326Y71549D1*
X60430Y71670D1*
X60553Y71772D1*
X60690Y71854D1*
X60839Y71913D1*
X60995Y71947D1*
X61155Y71956D1*
X61314Y71939D1*
X61468Y71897D1*
X61613Y71831D1*
X61746Y71743D1*
X61864Y71634D1*
X61962Y71508D1*
X62039Y71368D1*
X62093Y71218D1*
X62121Y71060D1*
X62126Y70960D1*
X62123Y70880D1*
Y73420D2*
X62098Y73262D1*
X62047Y73111D1*
X61973Y72969D1*
X61877Y72841D1*
X61762Y72730D1*
X61631Y72639D1*
X61487Y72570D1*
X61334Y72525D1*
X61175Y72505D1*
X61015Y72510D1*
X60859Y72541D1*
X60709Y72597D1*
X60570Y72676D1*
X60445Y72776D1*
X60338Y72895D1*
X60252Y73029D1*
X60188Y73176D1*
X60148Y73331D1*
X60134Y73490D1*
X60145Y73649D1*
X60181Y73805D1*
X60242Y73953D1*
X60326Y74089D1*
X60430Y74210D1*
X60553Y74312D1*
X60690Y74394D1*
X60839Y74453D1*
X60995Y74487D1*
X61155Y74496D1*
X61314Y74479D1*
X61468Y74437D1*
X61613Y74371D1*
X61746Y74283D1*
X61864Y74174D1*
X61962Y74048D1*
X62039Y73908D1*
X62093Y73758D1*
X62121Y73600D1*
X62126Y73500D1*
X62123Y73420D1*
X13863D2*
X13839Y73270D1*
X14906Y72201D1*
X24428Y62678D1*
X24477Y62615D1*
X24509Y62542D1*
X24523Y62450D1*
Y55183D1*
X26240Y53466D1*
X26261Y53532D1*
X26297Y53603D1*
X26345Y53667D1*
X26403Y53722D1*
X26470Y53766D1*
X26543Y53799D1*
X26620Y53819D1*
X26700Y53825D1*
X26779Y53819D1*
X26857Y53799D1*
X26930Y53766D1*
X26996Y53722D1*
X27054Y53667D1*
X27102Y53603D1*
X27139Y53532D1*
X27163Y53456D1*
X27175Y53350D1*
X27169Y53270D1*
X27149Y53193D1*
X27116Y53120D1*
X27072Y53054D1*
X27017Y52996D1*
X26953Y52947D1*
X26882Y52911D1*
X26818Y52890D1*
X27278Y52428D1*
X27327Y52365D1*
X27359Y52292D1*
X27373Y52200D1*
Y50097D1*
X27404Y50067D1*
X27452Y50003D1*
X27489Y49932D1*
X27513Y49856D1*
X27525Y49750D1*
X27519Y49670D1*
X27499Y49593D1*
X27466Y49520D1*
X27422Y49454D1*
X27367Y49396D1*
X27303Y49347D1*
X27232Y49311D1*
X27156Y49287D1*
X27077Y49275D1*
X26997Y49278D1*
X26918Y49293D1*
X26844Y49322D1*
X26775Y49362D1*
X26714Y49414D1*
X26662Y49475D1*
X26622Y49544D1*
X26593Y49618D1*
X26578Y49697D1*
X26575Y49774D1*
X26497Y49778D1*
X26418Y49793D1*
X26344Y49822D1*
X26275Y49862D1*
X26214Y49914D1*
X26162Y49975D1*
X26122Y50044D1*
X26093Y50118D1*
X26078Y50197D1*
X26075Y50274D1*
X25997Y50278D1*
X25918Y50293D1*
X25844Y50322D1*
X25775Y50362D1*
X25714Y50414D1*
X25662Y50475D1*
X25622Y50544D1*
X25593Y50618D1*
X25578Y50697D1*
X25575Y50776D1*
X25586Y50856D1*
X25611Y50932D1*
X25647Y51003D1*
X25695Y51067D1*
X25726Y51096D1*
X25727Y51968D1*
X23272Y54422D1*
X23223Y54485D1*
X23191Y54558D1*
X23177Y54650D1*
Y61817D1*
X18746Y66247D1*
X16867Y68126D1*
X13822Y68127D1*
X13787Y68031D1*
X13713Y67889D1*
X13617Y67761D1*
X13502Y67650D1*
X13371Y67559D1*
X13227Y67490D1*
X13074Y67445D1*
X12915Y67425D1*
X12755Y67430D1*
X12599Y67461D1*
X12449Y67517D1*
X12310Y67596D1*
X12185Y67696D1*
X12078Y67815D1*
X11992Y67949D1*
X11928Y68096D1*
X11888Y68251D1*
X11874Y68410D1*
X11885Y68569D1*
X11921Y68725D1*
X11982Y68873D1*
X12066Y69009D1*
X12170Y69130D1*
X12293Y69232D1*
X12430Y69314D1*
X12579Y69373D1*
X12735Y69407D1*
X12895Y69416D1*
X13054Y69399D1*
X13208Y69357D1*
X13353Y69291D1*
X13486Y69203D1*
X13604Y69094D1*
X13702Y68968D1*
X13779Y68828D1*
X13800Y68775D1*
X14500Y68773D1*
X16823D1*
X15702Y69891D1*
X15166Y70427D1*
X13713D1*
X13617Y70301D1*
X13502Y70190D1*
X13371Y70099D1*
X13227Y70030D1*
X13074Y69985D1*
X12915Y69965D1*
X12755Y69970D1*
X12599Y70001D1*
X12449Y70057D1*
X12310Y70136D1*
X12185Y70236D1*
X12078Y70355D1*
X11992Y70489D1*
X11928Y70636D1*
X11888Y70791D1*
X11874Y70950D1*
X11885Y71109D1*
X11921Y71265D1*
X11982Y71413D1*
X12066Y71549D1*
X12170Y71670D1*
X12293Y71772D1*
X12430Y71854D1*
X12579Y71913D1*
X12735Y71947D1*
X12895Y71956D1*
X13054Y71939D1*
X13208Y71897D1*
X13353Y71831D1*
X13486Y71743D1*
X13604Y71634D1*
X13702Y71508D1*
X13779Y71368D1*
X13833Y71218D1*
X13860Y71073D1*
X15123D1*
X14185Y72008D1*
X13480Y72713D1*
X13371Y72639D1*
X13227Y72570D1*
X13074Y72525D1*
X12915Y72505D1*
X12755Y72510D1*
X12599Y72541D1*
X12449Y72597D1*
X12310Y72676D1*
X12185Y72776D1*
X12078Y72895D1*
X11992Y73029D1*
X11928Y73176D1*
X11888Y73331D1*
X11874Y73490D1*
X11885Y73649D1*
X11921Y73805D1*
X11982Y73953D1*
X12066Y74089D1*
X12170Y74210D1*
X12293Y74312D1*
X12430Y74394D1*
X12579Y74453D1*
X12735Y74487D1*
X12895Y74496D1*
X13054Y74479D1*
X13208Y74437D1*
X13353Y74371D1*
X13486Y74283D1*
X13604Y74174D1*
X13702Y74048D1*
X13779Y73908D1*
X13833Y73758D1*
X13861Y73600D1*
X13866Y73500D1*
X13863Y73420D1*
Y65800D2*
X13838Y65642D1*
X13787Y65491D1*
X13729Y65377D1*
X14083Y65024D1*
X17250Y65023D1*
X17329Y65013D1*
X17404Y64984D1*
X17478Y64928D1*
X22128Y60278D1*
X22177Y60215D1*
X22209Y60142D1*
X22223Y60050D1*
Y53583D1*
X26654Y49153D1*
X28285Y47521D1*
X28950Y47523D1*
X34752D1*
X34803Y47572D1*
X34870Y47616D1*
X34943Y47649D1*
X35020Y47669D1*
X35100Y47675D1*
X35179Y47669D1*
X35257Y47649D1*
X35330Y47616D1*
X35396Y47572D1*
X35454Y47517D1*
X35502Y47453D1*
X35539Y47382D1*
X35563Y47306D1*
X35575Y47200D1*
X35569Y47120D1*
X35549Y47043D1*
X35516Y46970D1*
X35472Y46904D1*
X35417Y46846D1*
X35353Y46797D1*
X35282Y46761D1*
X35206Y46737D1*
X35127Y46725D1*
X35047Y46728D1*
X34968Y46743D1*
X34894Y46772D1*
X34825Y46812D1*
X34753Y46877D1*
X34602D1*
X34639Y46807D1*
X34663Y46731D1*
X34675Y46625D1*
X34669Y46545D1*
X34649Y46468D1*
X34616Y46395D1*
X34572Y46329D1*
X34517Y46271D1*
X34453Y46222D1*
X34382Y46186D1*
X34306Y46162D1*
X34227Y46150D1*
X34147Y46153D1*
X34069Y46168D1*
X33994Y46197D1*
X33925Y46237D1*
X33864Y46289D1*
X33812Y46350D1*
X33772Y46419D1*
X33743Y46493D1*
X33728Y46572D1*
X33725Y46651D1*
X33736Y46731D1*
X33761Y46807D1*
X33796Y46876D1*
X32620Y46877D1*
X28427D1*
X28731Y46576D1*
X28829Y46569D1*
X28907Y46549D1*
X28980Y46516D1*
X29046Y46472D1*
X29104Y46417D1*
X29152Y46353D1*
X29189Y46282D1*
X29215Y46194D1*
X29282Y46192D1*
X29311Y46282D1*
X29347Y46353D1*
X29395Y46417D1*
X29453Y46472D1*
X29520Y46516D1*
X29593Y46549D1*
X29670Y46569D1*
X29750Y46575D1*
X29829Y46569D1*
X29907Y46549D1*
X29980Y46516D1*
X30046Y46472D1*
X30104Y46417D1*
X30152Y46353D1*
X30189Y46282D1*
X30218Y46174D1*
X30329Y46169D1*
X30407Y46149D1*
X30480Y46116D1*
X30546Y46072D1*
X30604Y46017D1*
X30652Y45953D1*
X30697Y45856D1*
X31022Y46178D1*
X31085Y46227D1*
X31158Y46259D1*
X31250Y46273D1*
X31808D1*
X31847Y46353D1*
X31895Y46417D1*
X31953Y46472D1*
X32020Y46516D1*
X32093Y46549D1*
X32170Y46569D1*
X32250Y46575D1*
X32329Y46569D1*
X32407Y46549D1*
X32480Y46516D1*
X32546Y46472D1*
X32604Y46417D1*
X32652Y46353D1*
X32689Y46282D1*
X32715Y46194D1*
X32829Y46189D1*
X32907Y46169D1*
X32980Y46136D1*
X33046Y46092D1*
X33104Y46037D1*
X33152Y45973D1*
X33189Y45902D1*
X33213Y45826D1*
X33225Y45720D1*
X33219Y45640D1*
X33199Y45563D1*
X33181Y45524D1*
X35000Y45523D1*
X39117D1*
X43547Y49954D1*
X43977Y50383D1*
Y54653D1*
X43912Y54725D1*
X43872Y54794D1*
X43843Y54868D1*
X43828Y54947D1*
X43825Y55026D1*
X43836Y55106D1*
X43861Y55182D1*
X43897Y55253D1*
X43945Y55317D1*
X44003Y55372D1*
X44070Y55416D1*
X44143Y55449D1*
X44220Y55469D1*
X44300Y55475D1*
X44379Y55469D1*
X44457Y55449D1*
X44530Y55416D1*
X44596Y55372D1*
X44649Y55322D1*
X44703Y55372D1*
X44770Y55416D1*
X44843Y55449D1*
X44920Y55469D1*
X45000Y55475D1*
X45079Y55469D1*
X45157Y55449D1*
X45230Y55416D1*
X45296Y55372D1*
X45354Y55317D1*
X45402Y55253D1*
X45439Y55182D1*
X45463Y55106D1*
X45475Y55000D1*
X45469Y54920D1*
X45449Y54843D1*
X45416Y54770D1*
X45372Y54704D1*
X45317Y54646D1*
X45253Y54597D1*
X45161Y54554D1*
X44972Y54365D1*
X44973Y50100D1*
X44963Y50021D1*
X44934Y49946D1*
X44878Y49872D1*
X39628Y44622D1*
X39565Y44573D1*
X39492Y44541D1*
X39400Y44527D1*
X33843D1*
X33863Y44456D1*
X33875Y44350D1*
X33869Y44270D1*
X33849Y44193D1*
X33816Y44120D1*
X33772Y44054D1*
X33717Y43996D1*
X33653Y43947D1*
X33582Y43911D1*
X33506Y43887D1*
X33427Y43875D1*
X33384Y43877D1*
X31381Y41875D1*
X31479Y41869D1*
X31557Y41849D1*
X31630Y41816D1*
X31696Y41772D1*
X31754Y41717D1*
X31802Y41653D1*
X31839Y41582D1*
X31863Y41506D1*
X31875Y41400D1*
X31869Y41320D1*
X31849Y41243D1*
X31816Y41170D1*
X31772Y41104D1*
X31722Y41051D1*
X31723Y35678D1*
X31798Y35659D1*
X31945Y35598D1*
X32079Y35511D1*
X32194Y35400D1*
X32286Y35269D1*
X32351Y35123D1*
X32388Y34968D1*
X32396Y34850D1*
X32381Y34691D1*
X32337Y34538D1*
X32264Y34395D1*
X32166Y34269D1*
X32046Y34164D1*
X31908Y34083D1*
X31757Y34029D1*
X31599Y34005D1*
X31440Y34011D1*
X31284Y34046D1*
X31138Y34111D1*
X31006Y34201D1*
X30894Y34315D1*
X30805Y34448D1*
X30743Y34595D1*
X30709Y34751D1*
X30706Y34911D1*
X30732Y35068D1*
X30788Y35218D1*
X30871Y35355D1*
X30978Y35474D1*
X31078Y35552D1*
X31077Y36773D1*
X29777Y35471D1*
X29447Y35140D1*
X29473Y35046D1*
X29496Y34888D1*
X29493Y34770D1*
X29463Y34613D1*
X29404Y34465D1*
X29318Y34330D1*
X29208Y34214D1*
X29079Y34120D1*
X28934Y34053D1*
X28779Y34014D1*
X28620Y34004D1*
X28461Y34025D1*
X28309Y34075D1*
X28170Y34153D1*
X28047Y34256D1*
X27947Y34379D1*
X27871Y34520D1*
X27822Y34672D1*
X27804Y34831D1*
X27815Y34990D1*
X27857Y35145D1*
X27926Y35288D1*
X28021Y35417D1*
X28139Y35525D1*
X28275Y35609D1*
X28424Y35666D1*
X28582Y35694D1*
X28741Y35691D1*
X28898Y35659D1*
X29007Y35616D1*
X29440Y36047D1*
X30527Y37134D1*
Y41800D1*
X30537Y41879D1*
X30566Y41954D1*
X30622Y42028D1*
X32925Y44332D1*
X32936Y44456D1*
X32960Y44529D1*
X32520Y44527D1*
X32482D1*
X31724Y43768D1*
X31719Y43670D1*
X31699Y43593D1*
X31666Y43520D1*
X31622Y43454D1*
X31567Y43396D1*
X31503Y43347D1*
X31432Y43311D1*
X31356Y43287D1*
X31277Y43275D1*
X31197Y43278D1*
X31111Y43296D1*
X31071Y43286D1*
X30937Y43282D1*
X28839D1*
X28278Y42722D1*
X28215Y42673D1*
X28142Y42641D1*
X28050Y42627D1*
X25383D1*
X25326Y42565D1*
X21554Y32140D1*
X21513Y32063D1*
X21422Y31965D1*
X20428Y30972D1*
X20365Y30923D1*
X20292Y30891D1*
X20200Y30877D1*
X16482D1*
X16322Y30715D1*
X16373Y30578D1*
X16401Y30420D1*
X16406Y30320D1*
X16394Y30161D1*
X16355Y30005D1*
X16293Y29858D1*
X16208Y29723D1*
X16102Y29603D1*
X15979Y29502D1*
X15840Y29421D1*
X15691Y29364D1*
X15535Y29331D1*
X15375Y29324D1*
X15216Y29343D1*
X15063Y29386D1*
X14918Y29454D1*
X14786Y29544D1*
X14669Y29653D1*
X14572Y29780D1*
X14497Y29921D1*
X14445Y30072D1*
X14420Y30213D1*
Y28735D1*
X14654Y28643D1*
X14813Y28577D1*
X14900Y28636D1*
X15043Y28707D1*
X15196Y28753D1*
X15355Y28775D1*
X15514Y28771D1*
X15671Y28741D1*
X15822Y28687D1*
X15962Y28610D1*
X16087Y28511D1*
X16195Y28393D1*
X16283Y28260D1*
X16349Y28114D1*
X16390Y27960D1*
X16406Y27801D1*
X16403Y27700D1*
X16378Y27542D1*
X16327Y27391D1*
X16253Y27249D1*
X16157Y27121D1*
X16042Y27010D1*
X15911Y26919D1*
X15767Y26850D1*
X15614Y26805D1*
X15455Y26785D1*
X15295Y26790D1*
X15139Y26821D1*
X14989Y26877D1*
X14850Y26956D1*
X14725Y27056D1*
X14618Y27175D1*
X14532Y27309D1*
X14468Y27456D1*
X14428Y27611D1*
X14421Y27668D1*
X13840Y27900D1*
X13507Y28029D1*
X13371Y27935D1*
X13227Y27866D1*
X13074Y27821D1*
X12915Y27801D1*
X12755Y27806D1*
X12599Y27837D1*
X12449Y27893D1*
X12310Y27972D1*
X12185Y28072D1*
X12078Y28191D1*
X11992Y28325D1*
X11928Y28472D1*
X11888Y28627D1*
X11874Y28786D1*
X11885Y28945D1*
X11921Y29101D1*
X11982Y29248D1*
X12066Y29385D1*
X12170Y29506D1*
X12293Y29608D1*
X12430Y29690D1*
X12579Y29749D1*
X12735Y29783D1*
X12895Y29792D1*
X13054Y29775D1*
X13208Y29733D1*
X13353Y29667D1*
X13486Y29579D1*
X13604Y29470D1*
X13702Y29344D1*
X13776Y29211D1*
X13774Y30918D1*
X13713Y30805D1*
X13617Y30677D1*
X13502Y30566D1*
X13371Y30475D1*
X13227Y30406D1*
X13074Y30361D1*
X12915Y30341D1*
X12755Y30346D1*
X12599Y30377D1*
X12449Y30433D1*
X12310Y30512D1*
X12185Y30612D1*
X12078Y30731D1*
X11992Y30865D1*
X11928Y31012D1*
X11888Y31167D1*
X11874Y31326D1*
X11885Y31485D1*
X11921Y31641D1*
X11982Y31788D1*
X12066Y31925D1*
X12170Y32046D1*
X12293Y32148D1*
X12430Y32230D1*
X12579Y32289D1*
X12735Y32323D1*
X12895Y32332D1*
X13054Y32315D1*
X13208Y32273D1*
X13353Y32207D1*
X13486Y32119D1*
X13604Y32010D1*
X13702Y31884D1*
X13779Y31744D1*
X13833Y31594D1*
X13861Y31436D1*
X13866Y31336D1*
X13854Y31177D1*
X13849Y31155D1*
X14472Y31778D1*
X14535Y31827D1*
X14608Y31859D1*
X14700Y31873D1*
X15278D1*
X15139Y31901D1*
X14989Y31957D1*
X14850Y32036D1*
X14725Y32136D1*
X14618Y32255D1*
X14532Y32389D1*
X14468Y32536D1*
X14428Y32691D1*
X14414Y32850D1*
X14425Y33009D1*
X14461Y33165D1*
X14522Y33312D1*
X14606Y33449D1*
X14711Y33570D1*
X14833Y33672D1*
X14970Y33754D1*
X15119Y33813D1*
X15275Y33847D1*
X15435Y33856D1*
X15594Y33839D1*
X15748Y33797D1*
X15893Y33731D1*
X16026Y33643D1*
X16144Y33534D1*
X16242Y33408D1*
X16319Y33268D1*
X16373Y33118D1*
X16401Y32960D1*
X16406Y32860D1*
X16394Y32701D1*
X16355Y32545D1*
X16293Y32398D1*
X16208Y32263D1*
X16102Y32143D1*
X15979Y32042D1*
X15840Y31961D1*
X15691Y31904D1*
X15542Y31873D1*
X19918D1*
X20609Y32565D1*
X20545Y32569D1*
X20434Y32607D1*
X15781Y34303D1*
X15729Y34339D1*
X15687Y34388D1*
X15663Y34437D1*
X15551Y34414D1*
X15423Y34404D1*
X15295Y34410D1*
X15170Y34433D1*
X15048Y34472D1*
X14932Y34526D1*
X14824Y34594D1*
X14725Y34676D1*
X14638Y34770D1*
X14564Y34874D1*
X14503Y34987D1*
X14458Y35106D1*
X14428Y35231D1*
X14414Y35358D1*
X14417Y35486D1*
X14436Y35612D1*
X14472Y35735D1*
X14522Y35852D1*
X14588Y35962D1*
X14666Y36063D1*
X14758Y36153D1*
X14859Y36230D1*
X14970Y36294D1*
X15088Y36343D1*
X15212Y36377D1*
X15339Y36394D1*
X15467Y36395D1*
X15594Y36379D1*
X15717Y36348D1*
X15836Y36301D1*
X15948Y36239D1*
X16051Y36163D1*
X16144Y36074D1*
X16182Y36030D1*
X17379Y39319D1*
X17412Y39373D1*
X17458Y39418D1*
X17514Y39449D1*
X17576Y39464D1*
X17640D1*
X17704Y39446D1*
X22417Y37728D1*
X22469Y37692D1*
X22495Y37665D1*
X24446Y43060D1*
X24487Y43137D1*
X24578Y43235D1*
X24872Y43528D1*
X24935Y43577D1*
X25008Y43609D1*
X25100Y43623D1*
X27718D1*
X28050Y43957D1*
X25820D1*
X25741Y43967D1*
X25666Y43996D1*
X25592Y44052D1*
X21867Y47776D1*
X16352Y47777D1*
X16293Y47638D1*
X16208Y47503D1*
X16102Y47383D1*
X15979Y47282D1*
X15840Y47201D1*
X15691Y47144D1*
X15535Y47111D1*
X15375Y47104D1*
X15216Y47123D1*
X15063Y47166D1*
X14918Y47234D1*
X14786Y47324D1*
X14669Y47433D1*
X14572Y47560D1*
X14497Y47701D1*
X14445Y47852D1*
X14418Y48010D1*
X14416Y48170D1*
X14440Y48328D1*
X14489Y48480D1*
X14561Y48622D1*
X14656Y48751D1*
X14770Y48863D1*
X14900Y48956D1*
X15043Y49026D1*
X15196Y49073D1*
X15355Y49095D1*
X15514Y49091D1*
X15671Y49061D1*
X15822Y49007D1*
X15962Y48930D1*
X16087Y48831D1*
X16195Y48713D1*
X16283Y48580D1*
X16349Y48434D1*
X16352Y48422D1*
X21722Y48423D1*
X20963Y49180D1*
X19816Y50327D1*
X16355Y50325D1*
X16293Y50178D1*
X16208Y50043D1*
X16102Y49923D1*
X15979Y49822D1*
X15840Y49741D1*
X15691Y49684D1*
X15535Y49651D1*
X15375Y49644D1*
X15216Y49663D1*
X15063Y49706D1*
X14918Y49774D1*
X14786Y49864D1*
X14669Y49973D1*
X14572Y50100D1*
X14497Y50241D1*
X14445Y50392D1*
X14418Y50550D1*
X14416Y50710D1*
X14440Y50868D1*
X14489Y51020D1*
X14561Y51162D1*
X14656Y51291D1*
X14770Y51403D1*
X14900Y51496D1*
X15043Y51566D1*
X15196Y51613D1*
X15355Y51635D1*
X15514Y51631D1*
X15671Y51601D1*
X15822Y51547D1*
X15962Y51470D1*
X16087Y51371D1*
X16195Y51253D1*
X16283Y51120D1*
X16349Y50972D1*
X17820Y50973D1*
X19672D1*
X18372Y52272D1*
X15828Y54816D1*
X15691Y54764D1*
X15535Y54731D1*
X15375Y54724D1*
X15216Y54743D1*
X15063Y54786D1*
X14918Y54854D1*
X14786Y54944D1*
X14669Y55053D1*
X14572Y55180D1*
X14496Y55324D1*
X13782D1*
X13713Y55189D1*
X13617Y55061D1*
X13502Y54950D1*
X13371Y54859D1*
X13227Y54790D1*
X13074Y54745D1*
X12915Y54725D1*
X12755Y54730D1*
X12599Y54761D1*
X12449Y54817D1*
X12310Y54896D1*
X12185Y54996D1*
X12078Y55115D1*
X11992Y55249D1*
X11928Y55396D1*
X11888Y55551D1*
X11874Y55710D1*
X11885Y55869D1*
X11921Y56025D1*
X11982Y56172D1*
X12066Y56309D1*
X12170Y56430D1*
X12293Y56532D1*
X12430Y56614D1*
X12579Y56673D1*
X12735Y56707D1*
X12895Y56716D1*
X13054Y56699D1*
X13208Y56657D1*
X13353Y56591D1*
X13486Y56503D1*
X13604Y56394D1*
X13702Y56268D1*
X13779Y56128D1*
X13784Y56117D1*
X14498Y56116D1*
X14561Y56242D1*
X14656Y56371D1*
X14770Y56483D1*
X14900Y56576D1*
X15043Y56647D1*
X15196Y56693D1*
X15355Y56715D1*
X15514Y56711D1*
X15671Y56681D1*
X15822Y56627D1*
X15962Y56550D1*
X16087Y56451D1*
X16195Y56333D1*
X16283Y56200D1*
X16327Y56107D1*
Y57417D1*
X16151Y57592D1*
X16042Y57490D1*
X15911Y57399D1*
X15767Y57330D1*
X15614Y57285D1*
X15455Y57265D1*
X15295Y57270D1*
X15139Y57301D1*
X14989Y57357D1*
X14850Y57436D1*
X14725Y57536D1*
X14618Y57655D1*
X14532Y57789D1*
X14496Y57864D1*
X13782D1*
X13713Y57729D1*
X13617Y57601D1*
X13502Y57490D1*
X13371Y57399D1*
X13227Y57330D1*
X13074Y57285D1*
X12915Y57265D1*
X12755Y57270D1*
X12599Y57301D1*
X12449Y57357D1*
X12310Y57436D1*
X12185Y57536D1*
X12078Y57655D1*
X11992Y57789D1*
X11928Y57936D1*
X11888Y58091D1*
X11874Y58250D1*
X11885Y58409D1*
X11921Y58565D1*
X11982Y58712D1*
X12066Y58849D1*
X12170Y58970D1*
X12293Y59072D1*
X12430Y59154D1*
X12579Y59213D1*
X12735Y59247D1*
X12895Y59256D1*
X13054Y59239D1*
X13208Y59197D1*
X13353Y59131D1*
X13486Y59043D1*
X13604Y58934D1*
X13702Y58808D1*
X13779Y58668D1*
X13784Y58657D1*
X14498Y58656D1*
X14561Y58782D1*
X14656Y58911D1*
X14770Y59023D1*
X14900Y59116D1*
X15043Y59187D1*
X15196Y59233D1*
X15355Y59255D1*
X15514Y59251D1*
X15671Y59221D1*
X15822Y59167D1*
X15962Y59090D1*
X16087Y58991D1*
X16195Y58873D1*
X16283Y58740D1*
X16349Y58594D1*
X16390Y58440D1*
X16406Y58281D1*
Y58252D1*
X16878Y57778D1*
X16927Y57715D1*
X16959Y57642D1*
X16973Y57550D1*
Y55913D1*
X17001Y56025D1*
X17062Y56172D1*
X17146Y56309D1*
X17250Y56430D1*
X17373Y56532D1*
X17510Y56614D1*
X17659Y56673D1*
X17815Y56707D1*
X17975Y56716D1*
X18134Y56699D1*
X18288Y56657D1*
X18433Y56591D1*
X18566Y56503D1*
X18684Y56394D1*
X18778Y56274D1*
X18777Y57703D1*
X18697Y57601D1*
X18582Y57490D1*
X18451Y57399D1*
X18307Y57330D1*
X18154Y57285D1*
X17995Y57265D1*
X17835Y57270D1*
X17679Y57301D1*
X17529Y57357D1*
X17390Y57436D1*
X17265Y57536D1*
X17158Y57655D1*
X17072Y57789D1*
X17008Y57936D1*
X16968Y58091D1*
X16954Y58250D1*
X16965Y58409D1*
X17001Y58565D1*
X17062Y58712D1*
X17146Y58849D1*
X17250Y58970D1*
X17373Y59072D1*
X17510Y59154D1*
X17659Y59213D1*
X17815Y59247D1*
X17975Y59256D1*
X18134Y59239D1*
X18288Y59197D1*
X18391Y59153D1*
X17067Y60477D1*
X13812D1*
X13753Y60338D1*
X13668Y60203D1*
X13562Y60083D1*
X13439Y59982D1*
X13300Y59901D1*
X13151Y59844D1*
X12995Y59811D1*
X12835Y59804D1*
X12676Y59823D1*
X12523Y59866D1*
X12378Y59934D1*
X12246Y60024D1*
X12129Y60133D1*
X12032Y60260D1*
X11957Y60401D1*
X11905Y60552D1*
X11878Y60710D1*
X11876Y60870D1*
X11900Y61028D1*
X11949Y61180D1*
X12021Y61322D1*
X12116Y61451D1*
X12230Y61563D1*
X12360Y61656D1*
X12503Y61726D1*
X12656Y61773D1*
X12815Y61795D1*
X12974Y61791D1*
X13131Y61761D1*
X13282Y61707D1*
X13422Y61630D1*
X13547Y61531D1*
X13655Y61413D1*
X13743Y61280D1*
X13809Y61134D1*
X13812Y61122D1*
X17200Y61123D1*
X17279Y61113D1*
X17354Y61084D1*
X17428Y61028D1*
X19328Y59128D1*
X19377Y59065D1*
X19409Y58992D1*
X19423Y58900D1*
Y53133D1*
X23854Y48703D1*
X26635Y45922D1*
X27258Y45923D1*
X27212Y45975D1*
X27172Y46044D1*
X27143Y46118D1*
X27128Y46197D1*
X27125Y46276D1*
X27136Y46356D1*
X27161Y46432D1*
X27197Y46503D1*
X27245Y46567D1*
X27303Y46622D1*
X27370Y46666D1*
X27443Y46699D1*
X27520Y46719D1*
X27600Y46725D1*
X27673Y46720D1*
X21322Y53072D1*
X21273Y53135D1*
X21241Y53208D1*
X21227Y53300D1*
Y59667D1*
X18467Y62427D1*
X13850D1*
X13771Y62437D1*
X13696Y62466D1*
X13622Y62522D1*
X13539Y62605D1*
X13439Y62522D1*
X13300Y62441D1*
X13151Y62384D1*
X12995Y62351D1*
X12835Y62344D1*
X12676Y62363D1*
X12523Y62406D1*
X12378Y62474D1*
X12246Y62564D1*
X12129Y62673D1*
X12032Y62800D1*
X11957Y62941D1*
X11905Y63092D1*
X11878Y63250D1*
X11876Y63410D1*
X11900Y63568D1*
X11949Y63720D1*
X12021Y63862D1*
X12116Y63991D1*
X12230Y64103D1*
X12360Y64196D1*
X12503Y64266D1*
X12656Y64313D1*
X12815Y64335D1*
X12974Y64331D1*
X13131Y64301D1*
X13282Y64247D1*
X13422Y64170D1*
X13547Y64071D1*
X13655Y63953D1*
X13743Y63820D1*
X13809Y63674D1*
X13850Y63520D1*
X13866Y63361D1*
X13863Y63260D1*
X13856Y63198D1*
X13984Y63072D1*
X18422Y63073D1*
X17486Y64008D1*
X17116Y64377D1*
X13950D1*
X13871Y64387D1*
X13796Y64416D1*
X13722Y64472D1*
X13239Y64954D1*
X13074Y64905D1*
X12915Y64885D1*
X12755Y64890D1*
X12599Y64921D1*
X12449Y64977D1*
X12310Y65056D1*
X12185Y65156D1*
X12078Y65275D1*
X11992Y65409D1*
X11928Y65556D1*
X11888Y65711D1*
X11874Y65870D1*
X11885Y66029D1*
X11921Y66185D1*
X11982Y66332D1*
X12066Y66469D1*
X12170Y66590D1*
X12293Y66692D1*
X12430Y66774D1*
X12579Y66833D1*
X12735Y66867D1*
X12895Y66876D1*
X13054Y66859D1*
X13208Y66817D1*
X13353Y66751D1*
X13486Y66663D1*
X13604Y66554D1*
X13702Y66428D1*
X13779Y66288D1*
X13833Y66138D1*
X13861Y65980D1*
X13866Y65880D1*
X13863Y65800D1*
Y51576D2*
X13838Y51418D1*
X13787Y51267D1*
X13713Y51125D1*
X13617Y50997D1*
X13502Y50886D1*
X13371Y50795D1*
X13227Y50726D1*
X13074Y50681D1*
X12915Y50661D1*
X12755Y50666D1*
X12599Y50697D1*
X12449Y50753D1*
X12310Y50832D1*
X12185Y50932D1*
X12078Y51051D1*
X11992Y51185D1*
X11928Y51332D1*
X11888Y51487D1*
X11874Y51646D1*
X11885Y51805D1*
X11921Y51961D1*
X11982Y52108D1*
X12066Y52245D1*
X12170Y52366D1*
X12293Y52468D1*
X12430Y52550D1*
X12579Y52609D1*
X12735Y52643D1*
X12895Y52652D1*
X13054Y52635D1*
X13208Y52593D1*
X13353Y52527D1*
X13486Y52439D1*
X13604Y52330D1*
X13702Y52204D1*
X13779Y52064D1*
X13833Y51914D1*
X13861Y51756D1*
X13866Y51656D1*
X13863Y51576D1*
Y49036D2*
X13838Y48878D1*
X13787Y48727D1*
X13713Y48585D1*
X13617Y48457D1*
X13502Y48346D1*
X13371Y48255D1*
X13227Y48186D1*
X13074Y48141D1*
X12915Y48121D1*
X12755Y48126D1*
X12599Y48157D1*
X12449Y48213D1*
X12310Y48292D1*
X12185Y48392D1*
X12078Y48511D1*
X11992Y48645D1*
X11928Y48792D1*
X11888Y48947D1*
X11874Y49106D1*
X11885Y49265D1*
X11921Y49421D1*
X11982Y49569D1*
X12066Y49705D1*
X12170Y49826D1*
X12293Y49928D1*
X12430Y50010D1*
X12579Y50069D1*
X12735Y50103D1*
X12895Y50112D1*
X13054Y50095D1*
X13208Y50053D1*
X13353Y49987D1*
X13486Y49899D1*
X13604Y49790D1*
X13702Y49664D1*
X13779Y49524D1*
X13833Y49374D1*
X13861Y49216D1*
X13866Y49116D1*
X13863Y49036D1*
Y46496D2*
X13838Y46338D1*
X13787Y46187D1*
X13713Y46045D1*
X13617Y45917D1*
X13502Y45806D1*
X13371Y45715D1*
X13227Y45646D1*
X13074Y45601D1*
X12915Y45581D1*
X12755Y45586D1*
X12599Y45617D1*
X12449Y45673D1*
X12310Y45752D1*
X12185Y45852D1*
X12078Y45971D1*
X11992Y46105D1*
X11928Y46252D1*
X11888Y46407D1*
X11874Y46566D1*
X11885Y46725D1*
X11921Y46881D1*
X11982Y47029D1*
X12066Y47165D1*
X12170Y47286D1*
X12293Y47388D1*
X12430Y47470D1*
X12579Y47529D1*
X12735Y47563D1*
X12895Y47572D1*
X13054Y47555D1*
X13208Y47513D1*
X13353Y47447D1*
X13486Y47359D1*
X13604Y47250D1*
X13702Y47124D1*
X13779Y46984D1*
X13833Y46834D1*
X13861Y46676D1*
X13866Y46576D1*
X13863Y46496D1*
X13581Y43339D2*
X13502Y43266D1*
X13371Y43175D1*
X13227Y43106D1*
X13074Y43061D1*
X12915Y43041D1*
X12755Y43046D1*
X12599Y43077D1*
X12449Y43133D1*
X12310Y43212D1*
X12185Y43312D1*
X12078Y43431D1*
X11992Y43565D1*
X11928Y43712D1*
X11888Y43867D1*
X11874Y44026D1*
X11885Y44185D1*
X11921Y44341D1*
X11982Y44488D1*
X12066Y44625D1*
X12170Y44746D1*
X12293Y44848D1*
X12430Y44930D1*
X12579Y44989D1*
X12735Y45023D1*
X12895Y45032D1*
X13054Y45015D1*
X13208Y44973D1*
X13353Y44907D1*
X13486Y44819D1*
X13604Y44710D1*
X13702Y44584D1*
X13779Y44444D1*
X13833Y44294D1*
X13861Y44136D1*
X13865Y44079D1*
X14712Y43733D1*
X14833Y43832D1*
X14970Y43914D1*
X15119Y43973D1*
X15275Y44007D1*
X15435Y44016D1*
X15594Y43999D1*
X15748Y43957D1*
X15893Y43891D1*
X16026Y43803D1*
X16144Y43694D1*
X16242Y43568D1*
X16319Y43428D1*
X16354Y43337D1*
Y45242D1*
X16293Y45098D1*
X16208Y44963D1*
X16102Y44843D1*
X15979Y44742D1*
X15840Y44661D1*
X15691Y44604D1*
X15535Y44571D1*
X15375Y44564D1*
X15216Y44583D1*
X15063Y44626D1*
X14918Y44694D1*
X14786Y44784D1*
X14669Y44893D1*
X14572Y45020D1*
X14497Y45161D1*
X14445Y45312D1*
X14418Y45470D1*
X14416Y45630D1*
X14440Y45788D1*
X14489Y45940D1*
X14561Y46082D1*
X14656Y46211D1*
X14770Y46323D1*
X14900Y46416D1*
X15043Y46486D1*
X15196Y46533D1*
X15355Y46555D1*
X15514Y46551D1*
X15671Y46521D1*
X15822Y46467D1*
X15962Y46390D1*
X16087Y46291D1*
X16195Y46173D1*
X16283Y46040D1*
X16342Y45910D1*
X16403Y45972D1*
X16470Y46016D1*
X16543Y46049D1*
X16620Y46069D1*
X16700Y46075D1*
X16779Y46069D1*
X16857Y46049D1*
X16930Y46016D1*
X16996Y45972D1*
X17054Y45917D1*
X17102Y45853D1*
X17139Y45782D1*
X17163Y45706D1*
X17175Y45600D1*
X17169Y45520D1*
X17149Y45443D1*
X17116Y45370D1*
X17072Y45304D1*
X17046Y45276D1*
Y40000D1*
X17037Y39921D1*
X17011Y39847D1*
X16897Y39673D1*
X16163Y38591D1*
X16242Y38488D1*
X16319Y38348D1*
X16373Y38198D1*
X16401Y38040D1*
X16406Y37940D1*
X16394Y37781D1*
X16355Y37625D1*
X16293Y37478D1*
X16208Y37343D1*
X16102Y37223D1*
X15979Y37122D1*
X15840Y37041D1*
X15691Y36984D1*
X15535Y36951D1*
X15375Y36944D1*
X15216Y36963D1*
X15063Y37006D1*
X14918Y37074D1*
X14786Y37164D1*
X14669Y37273D1*
X14572Y37400D1*
X14497Y37541D1*
X14445Y37692D1*
X14418Y37850D1*
X14415Y37902D1*
X13558Y38233D1*
X13439Y38138D1*
X13300Y38057D1*
X13151Y38000D1*
X12995Y37967D1*
X12835Y37960D1*
X12676Y37979D1*
X12523Y38022D1*
X12378Y38090D1*
X12246Y38180D1*
X12129Y38289D1*
X12032Y38416D1*
X11957Y38557D1*
X11905Y38708D1*
X11878Y38866D1*
X11876Y39026D1*
X11900Y39184D1*
X11949Y39336D1*
X12021Y39478D1*
X12116Y39607D1*
X12230Y39719D1*
X12360Y39812D1*
X12503Y39883D1*
X12656Y39929D1*
X12815Y39951D1*
X12974Y39947D1*
X13131Y39917D1*
X13282Y39863D1*
X13422Y39786D1*
X13547Y39687D1*
X13655Y39569D1*
X13743Y39436D1*
X13809Y39290D1*
X13850Y39136D1*
X13866Y38977D1*
Y38963D1*
X14700Y38640D1*
X14833Y38752D1*
X14970Y38834D1*
X15119Y38893D1*
X15275Y38927D1*
X15435Y38936D1*
X15553Y38927D1*
X16157Y39821D1*
X16042Y39710D1*
X15911Y39619D1*
X15767Y39550D1*
X15614Y39505D1*
X15455Y39485D1*
X15295Y39490D1*
X15139Y39521D1*
X14989Y39577D1*
X14850Y39656D1*
X14725Y39756D1*
X14618Y39875D1*
X14532Y40009D1*
X14468Y40156D1*
X14428Y40311D1*
X14414Y40470D1*
X14425Y40629D1*
X14461Y40785D1*
X14522Y40932D1*
X14606Y41069D1*
X14711Y41190D1*
X14833Y41292D1*
X14970Y41374D1*
X15119Y41433D1*
X15275Y41467D1*
X15435Y41476D1*
X15594Y41459D1*
X15748Y41417D1*
X15893Y41351D1*
X16026Y41263D1*
X16144Y41154D1*
X16242Y41028D1*
X16319Y40888D1*
X16354Y40800D1*
Y42703D1*
X16293Y42558D1*
X16208Y42423D1*
X16102Y42303D1*
X15979Y42202D1*
X15840Y42121D1*
X15691Y42064D1*
X15535Y42031D1*
X15375Y42024D1*
X15216Y42043D1*
X15063Y42086D1*
X14918Y42154D1*
X14786Y42244D1*
X14669Y42353D1*
X14572Y42480D1*
X14497Y42621D1*
X14445Y42772D1*
X14418Y42930D1*
X14414Y42997D1*
X13582Y43338D1*
X13863Y41416D2*
X13838Y41258D1*
X13787Y41107D1*
X13713Y40965D1*
X13617Y40837D1*
X13502Y40726D1*
X13371Y40635D1*
X13227Y40566D1*
X13074Y40521D1*
X12915Y40501D1*
X12755Y40506D1*
X12599Y40537D1*
X12449Y40593D1*
X12310Y40672D1*
X12185Y40772D1*
X12078Y40891D1*
X11992Y41025D1*
X11928Y41172D1*
X11888Y41327D1*
X11874Y41486D1*
X11885Y41645D1*
X11921Y41801D1*
X11982Y41949D1*
X12066Y42085D1*
X12170Y42206D1*
X12293Y42308D1*
X12430Y42390D1*
X12579Y42449D1*
X12735Y42483D1*
X12895Y42492D1*
X13054Y42475D1*
X13208Y42433D1*
X13353Y42367D1*
X13486Y42279D1*
X13604Y42170D1*
X13702Y42044D1*
X13779Y41904D1*
X13833Y41754D1*
X13861Y41596D1*
X13866Y41496D1*
X13863Y41416D1*
X13866Y36400D2*
X13856Y36273D1*
X13830Y36147D1*
X13787Y36027D1*
X13730Y35912D1*
X13658Y35806D1*
X13574Y35710D1*
X13477Y35626D1*
X13371Y35555D1*
X13257Y35498D1*
X13136Y35456D1*
X13011Y35430D1*
X12883Y35420D1*
X12755Y35426D1*
X12630Y35449D1*
X12508Y35488D1*
X12392Y35542D1*
X12284Y35610D1*
X12185Y35692D1*
X12098Y35786D1*
X12024Y35890D1*
X11963Y36003D1*
X11918Y36122D1*
X11888Y36247D1*
X11874Y36374D1*
X11877Y36502D1*
X11896Y36628D1*
X11932Y36751D1*
X11982Y36869D1*
X12048Y36978D1*
X12126Y37079D1*
X12218Y37169D1*
X12319Y37246D1*
X12430Y37310D1*
X12548Y37359D1*
X12672Y37393D1*
X12799Y37410D1*
X12927Y37411D1*
X13054Y37395D1*
X13177Y37364D1*
X13296Y37317D1*
X13408Y37255D1*
X13511Y37179D1*
X13604Y37090D1*
X13684Y36991D1*
X13751Y36882D1*
X13803Y36765D1*
X13840Y36643D1*
X13861Y36516D1*
X13866Y36400D1*
X13863Y33796D2*
X13838Y33638D1*
X13787Y33487D1*
X13713Y33345D1*
X13617Y33217D1*
X13502Y33106D1*
X13371Y33015D1*
X13227Y32946D1*
X13074Y32901D1*
X12915Y32881D1*
X12755Y32886D1*
X12599Y32917D1*
X12449Y32973D1*
X12310Y33052D1*
X12185Y33152D1*
X12078Y33271D1*
X11992Y33405D1*
X11928Y33552D1*
X11888Y33707D1*
X11874Y33866D1*
X11885Y34025D1*
X11921Y34181D1*
X11982Y34328D1*
X12066Y34465D1*
X12170Y34586D1*
X12293Y34688D1*
X12430Y34770D1*
X12579Y34829D1*
X12735Y34863D1*
X12895Y34872D1*
X13054Y34855D1*
X13208Y34813D1*
X13353Y34747D1*
X13486Y34659D1*
X13604Y34550D1*
X13702Y34424D1*
X13779Y34284D1*
X13833Y34134D1*
X13861Y33976D1*
X13866Y33876D1*
X13863Y33796D1*
X54503Y42940D2*
X54478Y42782D1*
X54427Y42631D1*
X54353Y42489D1*
X54257Y42361D1*
X54142Y42250D1*
X54011Y42159D1*
X53867Y42090D1*
X53714Y42045D1*
X53555Y42025D1*
X53395Y42030D1*
X53239Y42061D1*
X53089Y42117D1*
X52950Y42196D1*
X52825Y42296D1*
X52718Y42415D1*
X52632Y42549D1*
X52568Y42696D1*
X52528Y42851D1*
X52514Y43010D1*
X52525Y43169D1*
X52561Y43325D1*
X52622Y43472D1*
X52706Y43609D1*
X52810Y43730D1*
X52933Y43832D1*
X53070Y43914D1*
X53219Y43973D1*
X53375Y44007D1*
X53535Y44016D1*
X53694Y43999D1*
X53848Y43957D1*
X53993Y43891D1*
X54126Y43803D1*
X54244Y43694D1*
X54342Y43568D1*
X54419Y43428D1*
X54473Y43278D1*
X54501Y43120D1*
X54506Y43020D1*
X54503Y42940D1*
Y45480D2*
X54478Y45322D1*
X54427Y45171D1*
X54353Y45029D1*
X54257Y44901D1*
X54142Y44790D1*
X54011Y44699D1*
X53867Y44630D1*
X53714Y44585D1*
X53555Y44565D1*
X53395Y44570D1*
X53239Y44601D1*
X53089Y44657D1*
X52950Y44736D1*
X52825Y44836D1*
X52718Y44955D1*
X52632Y45089D1*
X52568Y45236D1*
X52528Y45391D1*
X52514Y45550D1*
X52525Y45709D1*
X52561Y45865D1*
X52622Y46012D1*
X52706Y46149D1*
X52810Y46270D1*
X52933Y46372D1*
X53070Y46454D1*
X53219Y46513D1*
X53375Y46547D1*
X53535Y46556D1*
X53694Y46539D1*
X53848Y46497D1*
X53993Y46431D1*
X54126Y46343D1*
X54244Y46234D1*
X54342Y46108D1*
X54419Y45968D1*
X54473Y45818D1*
X54501Y45660D1*
X54506Y45560D1*
X54503Y45480D1*
Y48020D2*
X54478Y47862D1*
X54427Y47711D1*
X54353Y47569D1*
X54257Y47441D1*
X54142Y47330D1*
X54011Y47239D1*
X53867Y47170D1*
X53714Y47125D1*
X53555Y47105D1*
X53395Y47110D1*
X53239Y47141D1*
X53089Y47197D1*
X53073Y47205D1*
X52421Y46555D1*
X52423Y45730D1*
Y42700D1*
X52413Y42621D1*
X52384Y42546D1*
X52328Y42472D1*
X50226Y40370D1*
X50219Y40270D1*
X50199Y40193D1*
X50166Y40120D1*
X50122Y40054D1*
X50067Y39996D1*
X50003Y39947D1*
X49932Y39911D1*
X49856Y39887D1*
X49777Y39875D1*
X49697Y39878D1*
X49619Y39893D1*
X49544Y39922D1*
X49475Y39962D1*
X49414Y40014D1*
X49362Y40075D1*
X49322Y40144D1*
X49293Y40218D1*
X49282Y40275D1*
X49092Y40085D1*
X49029Y40036D1*
X48956Y40004D1*
X48863Y39990D1*
X48786D1*
X48690Y39911D1*
X48619Y39874D1*
X48542Y39850D1*
X48463Y39839D1*
X48383Y39841D1*
X48305Y39857D1*
X48230Y39885D1*
X48162Y39926D1*
X48101Y39977D1*
X48049Y40038D1*
X48008Y40107D1*
X47980Y40182D1*
X47964Y40260D1*
X47962Y40340D1*
X47973Y40419D1*
X47997Y40495D1*
X48034Y40566D1*
X48082Y40630D1*
X48140Y40685D1*
X48206Y40729D1*
X48279Y40762D1*
X48357Y40782D1*
X48436Y40789D1*
X48516Y40782D1*
X48593Y40762D1*
X48666Y40730D1*
X48756Y40663D1*
X49172Y41078D1*
X49235Y41127D1*
X49308Y41159D1*
X49400Y41173D1*
X49617D1*
X51429Y42986D1*
X51427Y43410D1*
Y48880D1*
X51437Y48959D1*
X51466Y49034D1*
X51522Y49108D1*
X52616Y50203D1*
X52568Y50316D1*
X52528Y50471D1*
X52514Y50630D1*
X52525Y50789D1*
X52561Y50945D1*
X52622Y51093D1*
X52706Y51229D1*
X52810Y51350D1*
X52933Y51452D1*
X53070Y51534D1*
X53219Y51593D1*
X53375Y51627D1*
X53535Y51636D1*
X53694Y51619D1*
X53848Y51577D1*
X53993Y51511D1*
X54126Y51423D1*
X54244Y51314D1*
X54342Y51188D1*
X54419Y51048D1*
X54473Y50898D1*
X54501Y50740D1*
X54506Y50640D1*
X54494Y50481D1*
X54455Y50325D1*
X54393Y50178D1*
X54308Y50043D1*
X54202Y49923D1*
X54079Y49822D1*
X53940Y49741D1*
X53791Y49684D1*
X53635Y49651D1*
X53475Y49644D1*
X53316Y49663D1*
X53163Y49706D1*
X53073Y49745D1*
X52071Y48745D1*
X52073Y48000D1*
Y47117D1*
X52616Y47663D1*
X52568Y47776D1*
X52528Y47931D1*
X52514Y48090D1*
X52525Y48249D1*
X52561Y48405D1*
X52622Y48553D1*
X52706Y48689D1*
X52810Y48810D1*
X52933Y48912D1*
X53070Y48994D1*
X53219Y49053D1*
X53375Y49087D1*
X53535Y49096D1*
X53694Y49079D1*
X53848Y49037D1*
X53993Y48971D1*
X54126Y48883D1*
X54244Y48774D1*
X54342Y48648D1*
X54419Y48508D1*
X54473Y48358D1*
X54501Y48200D1*
X54506Y48100D1*
X54503Y48020D1*
Y53100D2*
X54478Y52942D1*
X54427Y52791D1*
X54353Y52649D1*
X54257Y52521D1*
X54142Y52410D1*
X54011Y52319D1*
X53867Y52250D1*
X53714Y52205D1*
X53555Y52185D1*
X53395Y52190D1*
X53239Y52221D1*
X53089Y52277D1*
X52950Y52356D1*
X52825Y52456D1*
X52718Y52575D1*
X52632Y52709D1*
X52568Y52856D1*
X52528Y53011D1*
X52514Y53170D1*
X52525Y53329D1*
X52561Y53485D1*
X52622Y53633D1*
X52706Y53769D1*
X52810Y53890D1*
X52933Y53992D1*
X53070Y54074D1*
X53219Y54133D1*
X53375Y54167D1*
X53535Y54176D1*
X53694Y54159D1*
X53848Y54117D1*
X53993Y54051D1*
X54126Y53963D1*
X54244Y53854D1*
X54342Y53728D1*
X54419Y53588D1*
X54473Y53438D1*
X54501Y53280D1*
X54506Y53180D1*
X54503Y53100D1*
Y55640D2*
X54478Y55482D1*
X54427Y55331D1*
X54353Y55189D1*
X54257Y55061D1*
X54142Y54950D1*
X54011Y54859D1*
X53867Y54790D1*
X53714Y54745D1*
X53555Y54725D1*
X53395Y54730D1*
X53239Y54761D1*
X53089Y54817D1*
X52950Y54896D1*
X52825Y54996D1*
X52718Y55115D1*
X52632Y55249D1*
X52568Y55396D1*
X52528Y55551D1*
X52514Y55710D1*
X52525Y55869D1*
X52561Y56025D1*
X52622Y56172D1*
X52706Y56309D1*
X52810Y56430D1*
X52933Y56532D1*
X53070Y56614D1*
X53219Y56673D1*
X53375Y56707D1*
X53535Y56716D1*
X53694Y56699D1*
X53848Y56657D1*
X53993Y56591D1*
X54126Y56503D1*
X54244Y56394D1*
X54342Y56268D1*
X54419Y56128D1*
X54473Y55978D1*
X54501Y55820D1*
X54506Y55720D1*
X54503Y55640D1*
Y58180D2*
X54478Y58022D1*
X54427Y57871D1*
X54353Y57729D1*
X54257Y57601D1*
X54142Y57490D1*
X54011Y57399D1*
X53867Y57330D1*
X53714Y57285D1*
X53555Y57265D1*
X53395Y57270D1*
X53239Y57301D1*
X53089Y57357D1*
X52950Y57436D1*
X52825Y57536D1*
X52718Y57655D1*
X52632Y57789D1*
X52568Y57936D1*
X52528Y58091D1*
X52514Y58250D1*
X52525Y58409D1*
X52561Y58565D1*
X52622Y58712D1*
X52706Y58849D1*
X52810Y58970D1*
X52933Y59072D1*
X53070Y59154D1*
X53219Y59213D1*
X53375Y59247D1*
X53535Y59256D1*
X53694Y59239D1*
X53848Y59197D1*
X53993Y59131D1*
X54126Y59043D1*
X54244Y58934D1*
X54342Y58808D1*
X54419Y58668D1*
X54473Y58518D1*
X54501Y58360D1*
X54506Y58260D1*
X54503Y58180D1*
Y35320D2*
X54478Y35162D1*
X54427Y35011D1*
X54353Y34869D1*
X54257Y34741D1*
X54142Y34630D1*
X54011Y34539D1*
X53867Y34470D1*
X53714Y34425D1*
X53555Y34405D1*
X53395Y34410D1*
X53239Y34441D1*
X53089Y34497D1*
X52950Y34576D1*
X52825Y34676D1*
X52718Y34795D1*
X52632Y34929D1*
X52568Y35076D1*
X52528Y35231D1*
X52514Y35390D1*
X52525Y35549D1*
X52561Y35705D1*
X52622Y35852D1*
X52706Y35989D1*
X52810Y36110D1*
X52933Y36212D1*
X53070Y36294D1*
X53219Y36353D1*
X53375Y36387D1*
X53535Y36396D1*
X53694Y36379D1*
X53848Y36337D1*
X53993Y36271D1*
X54126Y36183D1*
X54244Y36074D1*
X54342Y35948D1*
X54419Y35808D1*
X54473Y35658D1*
X54501Y35500D1*
X54506Y35400D1*
X54503Y35320D1*
Y37860D2*
X54478Y37702D1*
X54427Y37551D1*
X54353Y37409D1*
X54257Y37281D1*
X54142Y37170D1*
X54011Y37079D1*
X53867Y37010D1*
X53714Y36965D1*
X53555Y36945D1*
X53395Y36950D1*
X53239Y36981D1*
X53089Y37037D1*
X52950Y37116D1*
X52825Y37216D1*
X52718Y37335D1*
X52632Y37469D1*
X52568Y37616D1*
X52528Y37771D1*
X52514Y37930D1*
X52525Y38089D1*
X52561Y38245D1*
X52622Y38393D1*
X52706Y38529D1*
X52810Y38650D1*
X52933Y38752D1*
X53070Y38834D1*
X53219Y38893D1*
X53375Y38927D1*
X53535Y38936D1*
X53694Y38919D1*
X53848Y38877D1*
X53993Y38811D1*
X54126Y38723D1*
X54244Y38614D1*
X54342Y38488D1*
X54419Y38348D1*
X54473Y38198D1*
X54501Y38040D1*
X54506Y37940D1*
X54503Y37860D1*
X57046Y43004D2*
X57036Y42877D1*
X57010Y42751D1*
X56967Y42631D1*
X56910Y42516D1*
X56838Y42410D1*
X56754Y42314D1*
X56657Y42230D1*
X56551Y42159D1*
X56437Y42102D1*
X56316Y42060D1*
X56191Y42034D1*
X56063Y42024D1*
X55935Y42030D1*
X55810Y42053D1*
X55688Y42092D1*
X55572Y42146D1*
X55464Y42214D1*
X55365Y42296D1*
X55278Y42390D1*
X55204Y42494D1*
X55143Y42607D1*
X55098Y42726D1*
X55068Y42851D1*
X55054Y42978D1*
X55057Y43106D1*
X55076Y43232D1*
X55112Y43355D1*
X55162Y43472D1*
X55228Y43583D1*
X55306Y43683D1*
X55398Y43773D1*
X55499Y43850D1*
X55610Y43914D1*
X55728Y43963D1*
X55852Y43996D1*
X55979Y44014D1*
X56107Y44015D1*
X56234Y43999D1*
X56357Y43968D1*
X56476Y43921D1*
X56588Y43859D1*
X56691Y43783D1*
X56784Y43694D1*
X56864Y43595D1*
X56931Y43486D1*
X56983Y43369D1*
X57020Y43247D1*
X57041Y43120D1*
X57046Y43004D1*
Y45544D2*
X57036Y45417D1*
X57010Y45291D1*
X56967Y45171D1*
X56910Y45056D1*
X56838Y44950D1*
X56754Y44854D1*
X56657Y44770D1*
X56551Y44699D1*
X56437Y44642D1*
X56316Y44600D1*
X56191Y44574D1*
X56063Y44564D1*
X55935Y44570D1*
X55810Y44593D1*
X55688Y44632D1*
X55572Y44686D1*
X55464Y44754D1*
X55365Y44836D1*
X55278Y44930D1*
X55204Y45034D1*
X55143Y45147D1*
X55098Y45266D1*
X55068Y45391D1*
X55054Y45518D1*
X55057Y45646D1*
X55076Y45772D1*
X55112Y45895D1*
X55162Y46012D1*
X55228Y46123D1*
X55306Y46223D1*
X55398Y46313D1*
X55499Y46390D1*
X55610Y46454D1*
X55728Y46503D1*
X55852Y46536D1*
X55979Y46554D1*
X56107Y46555D1*
X56234Y46539D1*
X56357Y46508D1*
X56476Y46461D1*
X56588Y46399D1*
X56691Y46323D1*
X56784Y46234D1*
X56864Y46135D1*
X56931Y46026D1*
X56983Y45909D1*
X57020Y45787D1*
X57041Y45660D1*
X57046Y45544D1*
Y48084D2*
X57036Y47957D1*
X57010Y47831D1*
X56967Y47711D1*
X56910Y47596D1*
X56838Y47490D1*
X56754Y47394D1*
X56657Y47310D1*
X56551Y47239D1*
X56437Y47182D1*
X56316Y47140D1*
X56191Y47114D1*
X56063Y47104D1*
X55935Y47110D1*
X55810Y47133D1*
X55688Y47172D1*
X55572Y47226D1*
X55464Y47294D1*
X55365Y47376D1*
X55278Y47470D1*
X55204Y47574D1*
X55143Y47687D1*
X55098Y47806D1*
X55068Y47931D1*
X55054Y48058D1*
X55057Y48186D1*
X55076Y48312D1*
X55112Y48435D1*
X55162Y48553D1*
X55228Y48663D1*
X55306Y48763D1*
X55398Y48853D1*
X55499Y48930D1*
X55610Y48994D1*
X55728Y49043D1*
X55852Y49077D1*
X55979Y49094D1*
X56107Y49095D1*
X56234Y49079D1*
X56357Y49048D1*
X56476Y49001D1*
X56588Y48939D1*
X56691Y48863D1*
X56784Y48774D1*
X56864Y48675D1*
X56931Y48566D1*
X56983Y48449D1*
X57020Y48327D1*
X57041Y48200D1*
X57046Y48084D1*
Y50624D2*
X57036Y50496D1*
X57010Y50371D1*
X56967Y50251D1*
X56910Y50136D1*
X56838Y50030D1*
X56754Y49934D1*
X56657Y49850D1*
X56551Y49779D1*
X56437Y49722D1*
X56316Y49680D1*
X56191Y49654D1*
X56063Y49644D1*
X55935Y49650D1*
X55810Y49673D1*
X55688Y49712D1*
X55572Y49766D1*
X55464Y49834D1*
X55365Y49916D1*
X55278Y50010D1*
X55204Y50114D1*
X55143Y50227D1*
X55098Y50346D1*
X55068Y50471D1*
X55054Y50598D1*
X55057Y50726D1*
X55076Y50852D1*
X55112Y50975D1*
X55162Y51093D1*
X55228Y51203D1*
X55306Y51303D1*
X55398Y51393D1*
X55499Y51470D1*
X55610Y51534D1*
X55728Y51583D1*
X55852Y51617D1*
X55979Y51634D1*
X56107Y51635D1*
X56234Y51619D1*
X56357Y51588D1*
X56476Y51541D1*
X56588Y51479D1*
X56691Y51403D1*
X56784Y51314D1*
X56864Y51215D1*
X56931Y51106D1*
X56983Y50989D1*
X57020Y50867D1*
X57041Y50740D1*
X57046Y50624D1*
Y53164D2*
X57036Y53036D1*
X57010Y52911D1*
X56967Y52791D1*
X56910Y52676D1*
X56838Y52570D1*
X56754Y52474D1*
X56657Y52390D1*
X56551Y52319D1*
X56437Y52262D1*
X56316Y52220D1*
X56191Y52194D1*
X56063Y52184D1*
X55935Y52190D1*
X55810Y52213D1*
X55688Y52252D1*
X55572Y52306D1*
X55464Y52374D1*
X55365Y52456D1*
X55278Y52550D1*
X55204Y52654D1*
X55143Y52767D1*
X55098Y52886D1*
X55068Y53011D1*
X55054Y53138D1*
X55057Y53266D1*
X55076Y53392D1*
X55112Y53515D1*
X55162Y53633D1*
X55228Y53742D1*
X55306Y53843D1*
X55398Y53933D1*
X55499Y54010D1*
X55610Y54074D1*
X55728Y54123D1*
X55852Y54156D1*
X55979Y54174D1*
X56107Y54175D1*
X56234Y54159D1*
X56357Y54128D1*
X56476Y54081D1*
X56588Y54019D1*
X56691Y53943D1*
X56784Y53854D1*
X56864Y53755D1*
X56931Y53646D1*
X56983Y53529D1*
X57020Y53407D1*
X57041Y53280D1*
X57046Y53164D1*
Y55704D2*
X57036Y55577D1*
X57010Y55451D1*
X56967Y55331D1*
X56910Y55216D1*
X56838Y55110D1*
X56754Y55014D1*
X56657Y54930D1*
X56551Y54859D1*
X56437Y54802D1*
X56316Y54760D1*
X56191Y54734D1*
X56063Y54724D1*
X55935Y54730D1*
X55810Y54753D1*
X55688Y54792D1*
X55572Y54846D1*
X55464Y54914D1*
X55365Y54996D1*
X55278Y55090D1*
X55204Y55194D1*
X55143Y55307D1*
X55098Y55426D1*
X55068Y55551D1*
X55054Y55678D1*
X55057Y55806D1*
X55076Y55932D1*
X55112Y56055D1*
X55162Y56172D1*
X55228Y56282D1*
X55306Y56383D1*
X55398Y56473D1*
X55499Y56550D1*
X55610Y56614D1*
X55728Y56663D1*
X55852Y56696D1*
X55979Y56714D1*
X56107Y56715D1*
X56234Y56699D1*
X56357Y56668D1*
X56476Y56621D1*
X56588Y56559D1*
X56691Y56483D1*
X56784Y56394D1*
X56864Y56295D1*
X56931Y56186D1*
X56983Y56069D1*
X57020Y55947D1*
X57041Y55820D1*
X57046Y55704D1*
X57043Y58180D2*
X57018Y58022D1*
X56967Y57871D1*
X56893Y57729D1*
X56797Y57601D1*
X56682Y57490D1*
X56551Y57399D1*
X56407Y57330D1*
X56254Y57285D1*
X56095Y57265D1*
X55935Y57270D1*
X55779Y57301D1*
X55629Y57357D1*
X55490Y57436D1*
X55365Y57536D1*
X55258Y57655D1*
X55172Y57789D1*
X55108Y57936D1*
X55068Y58091D1*
X55054Y58250D1*
X55065Y58409D1*
X55101Y58565D1*
X55162Y58712D1*
X55246Y58849D1*
X55351Y58970D1*
X55473Y59072D1*
X55610Y59154D1*
X55759Y59213D1*
X55915Y59247D1*
X56075Y59256D1*
X56234Y59239D1*
X56388Y59197D1*
X56533Y59131D1*
X56666Y59043D1*
X56784Y58934D1*
X56882Y58808D1*
X56959Y58668D1*
X57013Y58518D1*
X57041Y58360D1*
X57046Y58260D1*
X57043Y58180D1*
X57046Y35384D2*
X57036Y35256D1*
X57010Y35131D1*
X56967Y35011D1*
X56910Y34896D1*
X56838Y34790D1*
X56754Y34694D1*
X56657Y34610D1*
X56551Y34539D1*
X56437Y34482D1*
X56316Y34440D1*
X56191Y34414D1*
X56063Y34404D1*
X55935Y34410D1*
X55810Y34433D1*
X55688Y34472D1*
X55572Y34526D1*
X55464Y34594D1*
X55365Y34676D1*
X55278Y34770D1*
X55204Y34874D1*
X55143Y34987D1*
X55098Y35106D1*
X55068Y35231D1*
X55054Y35358D1*
X55057Y35486D1*
X55076Y35612D1*
X55112Y35735D1*
X55162Y35852D1*
X55228Y35962D1*
X55306Y36063D1*
X55398Y36153D1*
X55499Y36230D1*
X55610Y36294D1*
X55728Y36343D1*
X55852Y36377D1*
X55979Y36394D1*
X56107Y36395D1*
X56234Y36379D1*
X56357Y36348D1*
X56476Y36301D1*
X56588Y36239D1*
X56691Y36163D1*
X56784Y36074D1*
X56864Y35975D1*
X56931Y35866D1*
X56983Y35749D1*
X57020Y35627D1*
X57041Y35500D1*
X57046Y35384D1*
Y37924D2*
X57036Y37797D1*
X57010Y37671D1*
X56967Y37551D1*
X56910Y37436D1*
X56838Y37330D1*
X56754Y37234D1*
X56657Y37150D1*
X56551Y37079D1*
X56437Y37022D1*
X56316Y36980D1*
X56191Y36954D1*
X56063Y36944D1*
X55935Y36950D1*
X55810Y36973D1*
X55688Y37012D1*
X55572Y37066D1*
X55464Y37134D1*
X55365Y37216D1*
X55278Y37310D1*
X55204Y37414D1*
X55143Y37527D1*
X55098Y37646D1*
X55068Y37771D1*
X55054Y37898D1*
X55057Y38026D1*
X55076Y38152D1*
X55112Y38275D1*
X55162Y38393D1*
X55228Y38502D1*
X55306Y38603D1*
X55398Y38693D1*
X55499Y38770D1*
X55610Y38834D1*
X55728Y38883D1*
X55852Y38916D1*
X55979Y38934D1*
X56107Y38935D1*
X56234Y38919D1*
X56357Y38888D1*
X56476Y38841D1*
X56588Y38779D1*
X56691Y38703D1*
X56784Y38614D1*
X56864Y38515D1*
X56931Y38406D1*
X56983Y38289D1*
X57020Y38167D1*
X57041Y38040D1*
X57046Y37924D1*
X18778Y55166D2*
X18697Y55061D1*
X18582Y54950D1*
X18451Y54859D1*
X18307Y54790D1*
X18154Y54745D1*
X17995Y54725D1*
X17835Y54730D1*
X17679Y54761D1*
X17529Y54817D1*
X17390Y54896D1*
X17265Y54996D1*
X17158Y55115D1*
X17072Y55249D1*
X17008Y55396D1*
X16973Y55529D1*
Y55083D1*
X18779Y53278D1*
X18777Y54280D1*
Y55163D1*
X38993Y26620D2*
X38963Y26463D1*
X38904Y26315D1*
X38818Y26180D1*
X38708Y26064D1*
X38579Y25970D1*
X38434Y25903D1*
X38279Y25863D1*
X38120Y25854D1*
X37961Y25875D1*
X37809Y25925D1*
X37670Y26003D1*
X37547Y26106D1*
X37447Y26229D1*
X37371Y26370D1*
X37322Y26522D1*
X37304Y26681D1*
X37315Y26840D1*
X37357Y26995D1*
X37426Y27139D1*
X37521Y27267D1*
X37639Y27375D1*
X37775Y27459D1*
X37924Y27516D1*
X38081Y27544D1*
X38241Y27541D1*
X38398Y27509D1*
X38545Y27448D1*
X38679Y27361D1*
X38794Y27250D1*
X38886Y27119D1*
X38951Y26973D1*
X38988Y26818D1*
X38996Y26700D1*
X38993Y26620D1*
Y24020D2*
X38963Y23863D1*
X38904Y23715D1*
X38818Y23580D1*
X38708Y23464D1*
X38579Y23370D1*
X38434Y23303D1*
X38279Y23264D1*
X38120Y23254D1*
X37961Y23275D1*
X37809Y23325D1*
X37670Y23403D1*
X37547Y23506D1*
X37447Y23629D1*
X37371Y23770D1*
X37322Y23922D1*
X37304Y24081D1*
X37315Y24240D1*
X37357Y24395D1*
X37426Y24538D1*
X37521Y24667D1*
X37639Y24775D1*
X37775Y24859D1*
X37924Y24916D1*
X38081Y24944D1*
X38241Y24941D1*
X38398Y24909D1*
X38545Y24848D1*
X38679Y24761D1*
X38794Y24650D1*
X38886Y24519D1*
X38951Y24373D1*
X38988Y24218D1*
X38996Y24100D1*
X38993Y24020D1*
X38996Y19834D2*
X38987Y19723D1*
X38963Y19613D1*
X38924Y19508D1*
X38872Y19409D1*
X38808Y19317D1*
X38732Y19235D1*
X38646Y19164D1*
X38551Y19104D1*
X38449Y19058D1*
X38342Y19026D1*
X38231Y19008D1*
X38120Y19004D1*
X38008Y19016D1*
X37899Y19042D1*
X37795Y19082D1*
X37697Y19135D1*
X37606Y19201D1*
X37525Y19279D1*
X37456Y19366D1*
X37398Y19462D1*
X37353Y19565D1*
X37322Y19672D1*
X37306Y19783D1*
X37305Y19895D1*
X37318Y20006D1*
X37346Y20114D1*
X37388Y20218D1*
X37443Y20316D1*
X37511Y20405D1*
X37590Y20484D1*
X37678Y20553D1*
X37775Y20609D1*
X37878Y20652D1*
X37986Y20680D1*
X38097Y20695D1*
X38209Y20694D1*
X38320Y20679D1*
X38428Y20649D1*
X38531Y20606D1*
X38628Y20549D1*
X38716Y20480D1*
X38794Y20400D1*
X38861Y20310D1*
X38915Y20212D1*
X38956Y20108D1*
X38983Y19999D1*
X38996Y19888D1*
Y19834D1*
X35293Y18470D2*
X35263Y18313D1*
X35204Y18165D1*
X35118Y18030D1*
X35008Y17914D1*
X34879Y17820D1*
X34734Y17753D1*
X34579Y17713D1*
X34420Y17704D1*
X34261Y17725D1*
X34109Y17775D1*
X33970Y17853D1*
X33847Y17956D1*
X33746Y18079D1*
X33671Y18220D1*
X33622Y18372D1*
X33604Y18531D1*
X33615Y18690D1*
X33657Y18845D1*
X33726Y18988D1*
X33821Y19117D1*
X33939Y19225D1*
X34075Y19309D1*
X34224Y19366D1*
X34381Y19394D1*
X34541Y19391D1*
X34698Y19359D1*
X34845Y19298D1*
X34979Y19211D1*
X35094Y19100D1*
X35186Y18969D1*
X35251Y18823D1*
X35288Y18668D1*
X35296Y18550D1*
X35293Y18470D1*
X32393D2*
X32363Y18313D1*
X32304Y18165D1*
X32218Y18030D1*
X32108Y17914D1*
X31979Y17820D1*
X31834Y17753D1*
X31679Y17713D1*
X31520Y17704D1*
X31361Y17725D1*
X31209Y17775D1*
X31070Y17853D1*
X30947Y17956D1*
X30847Y18079D1*
X30771Y18220D1*
X30722Y18372D1*
X30704Y18531D1*
X30715Y18690D1*
X30757Y18845D1*
X30826Y18988D1*
X30921Y19117D1*
X31039Y19225D1*
X31175Y19309D1*
X31324Y19366D1*
X31482Y19394D1*
X31641Y19391D1*
X31798Y19359D1*
X31945Y19298D1*
X32079Y19211D1*
X32194Y19100D1*
X32286Y18969D1*
X32351Y18823D1*
X32388Y18668D1*
X32396Y18550D1*
X32393Y18470D1*
X29493D2*
X29463Y18313D1*
X29404Y18165D1*
X29318Y18030D1*
X29208Y17914D1*
X29079Y17820D1*
X28934Y17753D1*
X28779Y17713D1*
X28620Y17704D1*
X28461Y17725D1*
X28309Y17775D1*
X28170Y17853D1*
X28047Y17956D1*
X27947Y18079D1*
X27871Y18220D1*
X27822Y18372D1*
X27804Y18531D1*
X27815Y18690D1*
X27857Y18845D1*
X27926Y18988D1*
X28021Y19117D1*
X28139Y19225D1*
X28275Y19309D1*
X28424Y19366D1*
X28582Y19394D1*
X28741Y19391D1*
X28898Y19359D1*
X29045Y19298D1*
X29179Y19211D1*
X29294Y19100D1*
X29386Y18969D1*
X29451Y18823D1*
X29488Y18668D1*
X29496Y18550D1*
X29493Y18470D1*
X25846Y19834D2*
X25837Y19723D1*
X25813Y19613D1*
X25774Y19508D1*
X25722Y19409D1*
X25658Y19317D1*
X25582Y19235D1*
X25496Y19164D1*
X25401Y19104D1*
X25299Y19058D1*
X25192Y19026D1*
X25081Y19008D1*
X24970Y19004D1*
X24858Y19016D1*
X24749Y19042D1*
X24645Y19082D1*
X24547Y19135D1*
X24456Y19201D1*
X24375Y19279D1*
X24306Y19366D1*
X24248Y19462D1*
X24203Y19565D1*
X24172Y19672D1*
X24156Y19783D1*
X24155Y19895D1*
X24168Y20006D1*
X24196Y20114D1*
X24238Y20218D1*
X24293Y20316D1*
X24361Y20405D1*
X24440Y20484D1*
X24528Y20553D1*
X24625Y20609D1*
X24728Y20652D1*
X24836Y20680D1*
X24947Y20695D1*
X25059Y20694D1*
X25170Y20679D1*
X25278Y20649D1*
X25381Y20606D1*
X25478Y20549D1*
X25566Y20480D1*
X25644Y20400D1*
X25711Y20310D1*
X25765Y20212D1*
X25806Y20108D1*
X25833Y19999D1*
X25846Y19888D1*
Y19834D1*
X46883Y70880D2*
X46858Y70722D1*
X46807Y70571D1*
X46733Y70429D1*
X46637Y70301D1*
X46522Y70190D1*
X46391Y70099D1*
X46247Y70030D1*
X46094Y69985D1*
X45935Y69965D1*
X45775Y69970D1*
X45619Y70001D1*
X45469Y70057D1*
X45330Y70136D1*
X45205Y70236D1*
X45098Y70355D1*
X45012Y70489D1*
X44948Y70636D1*
X44908Y70791D1*
X44894Y70950D1*
X44905Y71109D1*
X44941Y71265D1*
X45002Y71413D1*
X45086Y71549D1*
X45191Y71670D1*
X45313Y71772D1*
X45450Y71854D1*
X45599Y71913D1*
X45755Y71947D1*
X45915Y71956D1*
X46074Y71939D1*
X46228Y71897D1*
X46373Y71831D1*
X46506Y71743D1*
X46624Y71634D1*
X46722Y71508D1*
X46799Y71368D1*
X46853Y71218D1*
X46881Y71060D1*
X46886Y70960D1*
X46883Y70880D1*
X25843Y24020D2*
X25813Y23863D1*
X25754Y23715D1*
X25668Y23580D1*
X25558Y23464D1*
X25429Y23370D1*
X25284Y23303D1*
X25129Y23264D1*
X24970Y23254D1*
X24811Y23275D1*
X24659Y23325D1*
X24520Y23403D1*
X24397Y23506D1*
X24296Y23629D1*
X24221Y23770D1*
X24172Y23922D1*
X24154Y24081D1*
X24165Y24240D1*
X24207Y24395D1*
X24276Y24538D1*
X24371Y24667D1*
X24489Y24775D1*
X24625Y24859D1*
X24774Y24916D1*
X24931Y24944D1*
X25091Y24941D1*
X25248Y24909D1*
X25395Y24848D1*
X25529Y24761D1*
X25644Y24650D1*
X25736Y24519D1*
X25801Y24373D1*
X25838Y24218D1*
X25846Y24100D1*
X25843Y24020D1*
X46883Y73420D2*
X46858Y73262D1*
X46807Y73111D1*
X46733Y72969D1*
X46637Y72841D1*
X46522Y72730D1*
X46391Y72639D1*
X46247Y72570D1*
X46094Y72525D1*
X45935Y72505D1*
X45775Y72510D1*
X45619Y72541D1*
X45469Y72597D1*
X45330Y72676D1*
X45205Y72776D1*
X45098Y72895D1*
X45012Y73029D1*
X44948Y73176D1*
X44908Y73331D1*
X44894Y73490D1*
X44905Y73649D1*
X44941Y73805D1*
X45002Y73953D1*
X45086Y74089D1*
X45191Y74210D1*
X45313Y74312D1*
X45450Y74394D1*
X45599Y74453D1*
X45755Y74487D1*
X45915Y74496D1*
X46074Y74479D1*
X46228Y74437D1*
X46373Y74371D1*
X46506Y74283D1*
X46624Y74174D1*
X46722Y74048D1*
X46799Y73908D1*
X46853Y73758D1*
X46881Y73600D1*
X46886Y73500D1*
X46883Y73420D1*
X25843Y26620D2*
X25813Y26463D1*
X25754Y26315D1*
X25668Y26180D1*
X25558Y26064D1*
X25429Y25970D1*
X25284Y25903D1*
X25129Y25863D1*
X24970Y25854D1*
X24811Y25875D1*
X24659Y25925D1*
X24520Y26003D1*
X24397Y26106D1*
X24296Y26229D1*
X24221Y26370D1*
X24172Y26522D1*
X24154Y26681D1*
X24165Y26840D1*
X24207Y26995D1*
X24276Y27139D1*
X24371Y27267D1*
X24489Y27375D1*
X24625Y27459D1*
X24774Y27516D1*
X24931Y27544D1*
X25091Y27541D1*
X25248Y27509D1*
X25395Y27448D1*
X25529Y27361D1*
X25644Y27250D1*
X25736Y27119D1*
X25801Y26973D1*
X25838Y26818D1*
X25846Y26700D1*
X25843Y26620D1*
X54503Y70880D2*
X54478Y70722D1*
X54427Y70571D1*
X54353Y70429D1*
X54257Y70301D1*
X54142Y70190D1*
X54011Y70099D1*
X53867Y70030D1*
X53714Y69985D1*
X53555Y69965D1*
X53395Y69970D1*
X53239Y70001D1*
X53089Y70057D1*
X52950Y70136D1*
X52825Y70236D1*
X52718Y70355D1*
X52632Y70489D1*
X52568Y70636D1*
X52528Y70791D1*
X52514Y70950D1*
X52525Y71109D1*
X52561Y71265D1*
X52622Y71413D1*
X52706Y71549D1*
X52810Y71670D1*
X52933Y71772D1*
X53070Y71854D1*
X53219Y71913D1*
X53375Y71947D1*
X53535Y71956D1*
X53694Y71939D1*
X53848Y71897D1*
X53993Y71831D1*
X54126Y71743D1*
X54244Y71634D1*
X54342Y71508D1*
X54419Y71368D1*
X54473Y71218D1*
X54501Y71060D1*
X54506Y70960D1*
X54503Y70880D1*
X25843Y29220D2*
X25813Y29063D1*
X25754Y28915D1*
X25668Y28780D1*
X25558Y28664D1*
X25429Y28570D1*
X25284Y28503D1*
X25129Y28463D1*
X24970Y28454D1*
X24811Y28475D1*
X24659Y28525D1*
X24520Y28603D1*
X24397Y28706D1*
X24296Y28829D1*
X24221Y28970D1*
X24172Y29122D1*
X24154Y29281D1*
X24165Y29440D1*
X24207Y29595D1*
X24276Y29738D1*
X24371Y29867D1*
X24489Y29975D1*
X24625Y30059D1*
X24774Y30116D1*
X24931Y30144D1*
X25091Y30141D1*
X25248Y30109D1*
X25395Y30048D1*
X25529Y29961D1*
X25644Y29850D1*
X25736Y29719D1*
X25801Y29573D1*
X25838Y29418D1*
X25846Y29300D1*
X25843Y29220D1*
X54503Y73420D2*
X54478Y73262D1*
X54427Y73111D1*
X54353Y72969D1*
X54257Y72841D1*
X54142Y72730D1*
X54011Y72639D1*
X53867Y72570D1*
X53714Y72525D1*
X53555Y72505D1*
X53395Y72510D1*
X53239Y72541D1*
X53089Y72597D1*
X52950Y72676D1*
X52825Y72776D1*
X52718Y72895D1*
X52632Y73029D1*
X52568Y73176D1*
X52528Y73331D1*
X52514Y73490D1*
X52525Y73649D1*
X52561Y73805D1*
X52622Y73953D1*
X52706Y74089D1*
X52810Y74210D1*
X52933Y74312D1*
X53070Y74394D1*
X53219Y74453D1*
X53375Y74487D1*
X53535Y74496D1*
X53694Y74479D1*
X53848Y74437D1*
X53993Y74371D1*
X54126Y74283D1*
X54244Y74174D1*
X54342Y74048D1*
X54419Y73908D1*
X54473Y73758D1*
X54501Y73600D1*
X54506Y73500D1*
X54503Y73420D1*
X25846Y33634D2*
X25837Y33523D1*
X25813Y33413D1*
X25774Y33308D1*
X25722Y33209D1*
X25658Y33117D1*
X25582Y33035D1*
X25496Y32964D1*
X25401Y32905D1*
X25299Y32858D1*
X25192Y32826D1*
X25081Y32808D1*
X24970Y32804D1*
X24858Y32816D1*
X24749Y32842D1*
X24645Y32882D1*
X24547Y32935D1*
X24456Y33001D1*
X24375Y33079D1*
X24306Y33166D1*
X24248Y33262D1*
X24203Y33365D1*
X24172Y33472D1*
X24156Y33583D1*
X24155Y33695D1*
X24168Y33806D1*
X24196Y33914D1*
X24238Y34018D1*
X24293Y34116D1*
X24361Y34205D1*
X24440Y34284D1*
X24528Y34353D1*
X24625Y34409D1*
X24728Y34452D1*
X24836Y34480D1*
X24947Y34495D1*
X25059Y34494D1*
X25170Y34479D1*
X25278Y34449D1*
X25381Y34406D1*
X25478Y34349D1*
X25566Y34280D1*
X25644Y34200D1*
X25711Y34110D1*
X25765Y34012D1*
X25806Y33908D1*
X25833Y33799D1*
X25846Y33688D1*
Y33634D1*
X38993Y29220D2*
X38963Y29063D1*
X38904Y28915D1*
X38818Y28780D1*
X38708Y28664D1*
X38579Y28570D1*
X38434Y28503D1*
X38279Y28463D1*
X38120Y28454D1*
X37961Y28475D1*
X37809Y28525D1*
X37670Y28603D1*
X37547Y28706D1*
X37447Y28829D1*
X37371Y28970D1*
X37322Y29122D1*
X37304Y29281D1*
X37315Y29440D1*
X37357Y29595D1*
X37426Y29738D1*
X37521Y29867D1*
X37639Y29975D1*
X37775Y30059D1*
X37924Y30116D1*
X38081Y30144D1*
X38241Y30141D1*
X38398Y30109D1*
X38545Y30048D1*
X38679Y29961D1*
X38794Y29850D1*
X38886Y29719D1*
X38951Y29573D1*
X38988Y29418D1*
X38996Y29300D1*
X38993Y29220D1*
X53566Y26393D2*
X56153Y25452D1*
X56154Y26800D1*
X56166Y26879D1*
X56204Y26949D1*
X56262Y27004D1*
X56346Y27040D1*
X56480Y27046D1*
X58100D1*
X58179Y27034D1*
X58249Y26996D1*
X58304Y26938D1*
X58340Y26854D1*
X58346Y26720D1*
X58350Y24447D1*
X58310Y24319D1*
X56627Y19696D1*
X56588Y19627D1*
X56529Y19573D1*
X56456Y19541D1*
X56363Y19536D1*
X56236Y19576D1*
X51613Y21259D1*
X51543Y21298D1*
X51490Y21357D1*
X51458Y21430D1*
X51453Y21522D1*
X51493Y21650D1*
X53175Y26273D1*
X53214Y26343D1*
X53273Y26396D1*
X53347Y26428D1*
X53439Y26433D1*
X53566Y26393D1*
X35293Y34770D2*
X35263Y34613D1*
X35204Y34465D1*
X35118Y34330D1*
X35008Y34214D1*
X34879Y34120D1*
X34734Y34053D1*
X34579Y34014D1*
X34420Y34004D1*
X34261Y34025D1*
X34109Y34075D1*
X33970Y34153D1*
X33847Y34256D1*
X33746Y34379D1*
X33671Y34520D1*
X33622Y34672D1*
X33604Y34831D1*
X33615Y34990D1*
X33657Y35145D1*
X33726Y35288D1*
X33821Y35417D1*
X33939Y35525D1*
X34075Y35609D1*
X34224Y35666D1*
X34381Y35694D1*
X34541Y35691D1*
X34698Y35659D1*
X34845Y35598D1*
X34979Y35511D1*
X35094Y35400D1*
X35186Y35269D1*
X35251Y35123D1*
X35288Y34968D1*
X35296Y34850D1*
X35293Y34770D1*
X38996Y33634D2*
X38987Y33523D1*
X38963Y33413D1*
X38924Y33308D1*
X38872Y33209D1*
X38808Y33117D1*
X38732Y33035D1*
X38646Y32964D1*
X38551Y32905D1*
X38449Y32858D1*
X38342Y32826D1*
X38231Y32808D1*
X38120Y32804D1*
X38008Y32816D1*
X37899Y32842D1*
X37795Y32882D1*
X37697Y32935D1*
X37606Y33001D1*
X37525Y33079D1*
X37456Y33166D1*
X37398Y33262D1*
X37353Y33365D1*
X37322Y33472D1*
X37306Y33583D1*
X37305Y33695D1*
X37318Y33806D1*
X37346Y33914D1*
X37388Y34018D1*
X37443Y34116D1*
X37511Y34205D1*
X37590Y34284D1*
X37678Y34353D1*
X37775Y34409D1*
X37878Y34452D1*
X37986Y34480D1*
X38097Y34495D1*
X38209Y34494D1*
X38320Y34479D1*
X38428Y34449D1*
X38531Y34406D1*
X38628Y34349D1*
X38716Y34280D1*
X38794Y34200D1*
X38861Y34110D1*
X38915Y34012D1*
X38956Y33908D1*
X38983Y33799D1*
X38996Y33688D1*
Y33634D1*
X33696Y27984D2*
X33687Y27873D1*
X33663Y27763D1*
X33624Y27658D1*
X33572Y27559D1*
X33508Y27467D1*
X33432Y27385D1*
X33346Y27314D1*
X33251Y27254D1*
X33149Y27208D1*
X33042Y27176D1*
X32931Y27158D1*
X32820Y27154D1*
X32708Y27166D1*
X32599Y27192D1*
X32495Y27232D1*
X32397Y27285D1*
X32306Y27351D1*
X32225Y27429D1*
X32156Y27516D1*
X32098Y27612D1*
X32053Y27715D1*
X32022Y27822D1*
X32006Y27933D1*
X32005Y28045D1*
X32018Y28156D1*
X32046Y28264D1*
X32088Y28368D1*
X32143Y28466D1*
X32211Y28555D1*
X32290Y28634D1*
X32378Y28703D1*
X32475Y28759D1*
X32578Y28802D1*
X32686Y28830D1*
X32797Y28845D1*
X32909Y28844D1*
X33020Y28829D1*
X33128Y28799D1*
X33231Y28756D1*
X33328Y28699D1*
X33416Y28630D1*
X33494Y28550D1*
X33561Y28460D1*
X33615Y28362D1*
X33656Y28258D1*
X33683Y28149D1*
X33696Y28038D1*
Y27984D1*
X31096Y25384D2*
X31087Y25272D1*
X31063Y25163D1*
X31024Y25058D1*
X30972Y24959D1*
X30908Y24867D1*
X30832Y24785D1*
X30746Y24714D1*
X30651Y24655D1*
X30549Y24608D1*
X30442Y24576D1*
X30331Y24558D1*
X30220Y24554D1*
X30108Y24566D1*
X29999Y24592D1*
X29895Y24632D1*
X29797Y24685D1*
X29706Y24751D1*
X29625Y24829D1*
X29556Y24916D1*
X29498Y25012D1*
X29453Y25115D1*
X29422Y25222D1*
X29406Y25333D1*
X29405Y25445D1*
X29418Y25556D1*
X29446Y25664D1*
X29488Y25768D1*
X29543Y25866D1*
X29611Y25955D1*
X29690Y26034D1*
X29778Y26103D1*
X29875Y26159D1*
X29978Y26202D1*
X30086Y26230D1*
X30197Y26245D1*
X30309Y26244D1*
X30420Y26229D1*
X30528Y26199D1*
X30631Y26156D1*
X30728Y26099D1*
X30816Y26030D1*
X30894Y25950D1*
X30961Y25860D1*
X31015Y25762D1*
X31056Y25658D1*
X31083Y25549D1*
X31096Y25438D1*
Y25384D1*
Y27984D2*
X31087Y27873D1*
X31063Y27763D1*
X31024Y27658D1*
X30972Y27559D1*
X30908Y27467D1*
X30832Y27385D1*
X30746Y27314D1*
X30651Y27254D1*
X30549Y27208D1*
X30442Y27176D1*
X30331Y27158D1*
X30220Y27154D1*
X30108Y27166D1*
X29999Y27192D1*
X29895Y27232D1*
X29797Y27285D1*
X29706Y27351D1*
X29625Y27429D1*
X29556Y27516D1*
X29498Y27612D1*
X29453Y27715D1*
X29422Y27822D1*
X29406Y27933D1*
X29405Y28045D1*
X29418Y28156D1*
X29446Y28264D1*
X29488Y28368D1*
X29543Y28466D1*
X29611Y28555D1*
X29690Y28634D1*
X29778Y28703D1*
X29875Y28759D1*
X29978Y28802D1*
X30086Y28830D1*
X30197Y28845D1*
X30309Y28844D1*
X30420Y28829D1*
X30528Y28799D1*
X30631Y28756D1*
X30728Y28699D1*
X30816Y28630D1*
X30894Y28550D1*
X30961Y28460D1*
X31015Y28362D1*
X31056Y28258D1*
X31083Y28149D1*
X31096Y28038D1*
Y27984D1*
X33696Y25384D2*
X33687Y25272D1*
X33663Y25163D1*
X33624Y25058D1*
X33572Y24959D1*
X33508Y24867D1*
X33432Y24785D1*
X33346Y24714D1*
X33251Y24655D1*
X33149Y24608D1*
X33042Y24576D1*
X32931Y24558D1*
X32820Y24554D1*
X32708Y24566D1*
X32599Y24592D1*
X32495Y24632D1*
X32397Y24685D1*
X32306Y24751D1*
X32225Y24829D1*
X32156Y24916D1*
X32098Y25012D1*
X32053Y25115D1*
X32022Y25222D1*
X32006Y25333D1*
X32005Y25445D1*
X32018Y25556D1*
X32046Y25664D1*
X32088Y25768D1*
X32143Y25866D1*
X32211Y25955D1*
X32290Y26034D1*
X32378Y26103D1*
X32475Y26159D1*
X32578Y26202D1*
X32686Y26230D1*
X32797Y26245D1*
X32909Y26244D1*
X33020Y26229D1*
X33128Y26199D1*
X33231Y26156D1*
X33328Y26099D1*
X33416Y26030D1*
X33494Y25950D1*
X33561Y25860D1*
X33615Y25762D1*
X33656Y25658D1*
X33683Y25549D1*
X33696Y25438D1*
Y25384D1*
X44648Y28593D2*
X44622Y28554D1*
X44567Y28496D1*
X44503Y28448D1*
X44432Y28411D1*
X44356Y28387D1*
X44277Y28375D1*
X44197Y28378D1*
X44119Y28393D1*
X44044Y28422D1*
X43975Y28462D1*
X43914Y28514D1*
X43862Y28575D1*
X43822Y28644D1*
X43793Y28718D1*
X43778Y28797D1*
X43775Y28876D1*
X43786Y28956D1*
X43811Y29032D1*
X43847Y29103D1*
X43895Y29167D1*
X43953Y29222D1*
X44020Y29266D1*
X44093Y29299D1*
X44170Y29319D1*
X44250Y29325D1*
X44329Y29319D1*
X44407Y29299D1*
X44480Y29266D1*
X44546Y29222D1*
X44604Y29167D1*
X44651Y29105D1*
X44695Y29167D1*
X44753Y29222D1*
X44820Y29266D1*
X44893Y29299D1*
X44970Y29319D1*
X45050Y29325D1*
X45129Y29319D1*
X45207Y29299D1*
X45280Y29266D1*
X45346Y29222D1*
X45404Y29167D1*
X45451Y29105D1*
X45495Y29167D1*
X45553Y29222D1*
X45620Y29266D1*
X45693Y29299D1*
X45770Y29319D1*
X45850Y29325D1*
X45929Y29319D1*
X46007Y29299D1*
X46080Y29266D1*
X46146Y29222D1*
X46204Y29167D1*
X46252Y29103D1*
X46289Y29032D1*
X46313Y28956D1*
X46325Y28850D1*
X46319Y28770D1*
X46299Y28693D1*
X46266Y28620D1*
X46222Y28554D1*
X46167Y28496D1*
X46103Y28448D1*
X46032Y28411D1*
X45956Y28387D1*
X45877Y28375D1*
X45797Y28378D1*
X45719Y28393D1*
X45644Y28422D1*
X45575Y28462D1*
X45514Y28514D1*
X45451Y28594D1*
X45422Y28554D1*
X45367Y28496D1*
X45303Y28448D1*
X45232Y28411D1*
X45156Y28387D1*
X45077Y28375D1*
X44997Y28378D1*
X44918Y28393D1*
X44844Y28422D1*
X44775Y28462D1*
X44714Y28514D1*
X44651Y28594D1*
X52475Y28714D2*
X52382Y28661D1*
X52306Y28637D1*
X52227Y28625D1*
X52147Y28628D1*
X52069Y28643D1*
X51994Y28672D1*
X51900Y28733D1*
X51853Y28698D1*
X51782Y28661D1*
X51706Y28637D1*
X51627Y28625D1*
X51547Y28628D1*
X51469Y28643D1*
X51394Y28672D1*
X51325Y28712D1*
X51264Y28764D1*
X51212Y28825D1*
X51172Y28894D1*
X51143Y28968D1*
X51128Y29047D1*
X51125Y29126D1*
X51136Y29206D1*
X51161Y29282D1*
X51197Y29353D1*
X51245Y29417D1*
X51303Y29472D1*
X51370Y29516D1*
X51443Y29549D1*
X51520Y29569D1*
X51600Y29575D1*
X51679Y29569D1*
X51757Y29549D1*
X51830Y29516D1*
X51902Y29467D1*
X51970Y29516D1*
X52043Y29549D1*
X52120Y29569D1*
X52200Y29575D1*
X52279Y29569D1*
X52357Y29549D1*
X52430Y29516D1*
X52473Y29487D1*
X52520Y29516D1*
X52593Y29549D1*
X52670Y29569D1*
X52750Y29575D1*
X52829Y29569D1*
X52907Y29549D1*
X52980Y29516D1*
X53046Y29472D1*
X53104Y29417D1*
X53152Y29353D1*
X53189Y29282D1*
X53213Y29206D1*
X53225Y29100D1*
X53219Y29020D1*
X53199Y28943D1*
X53166Y28870D1*
X53122Y28804D1*
X53067Y28746D1*
X53003Y28698D1*
X52932Y28661D1*
X52856Y28637D1*
X52777Y28625D1*
X52697Y28628D1*
X52619Y28643D1*
X52544Y28672D1*
X52473Y28714D1*
X56326Y30660D2*
X56267Y30596D1*
X56203Y30547D1*
X56132Y30511D1*
X56056Y30487D1*
X55977Y30475D1*
X55897Y30478D1*
X55819Y30493D1*
X55744Y30522D1*
X55675Y30562D1*
X55614Y30614D1*
X55562Y30675D1*
X55522Y30744D1*
X55493Y30818D1*
X55478Y30897D1*
X55475Y30976D1*
X55486Y31056D1*
X55511Y31132D1*
X55547Y31203D1*
X55595Y31267D1*
X55653Y31322D1*
X55720Y31366D1*
X55793Y31399D1*
X55870Y31419D1*
X55950Y31425D1*
X56029Y31419D1*
X56107Y31399D1*
X56180Y31366D1*
X56246Y31322D1*
X56324Y31241D1*
X56403Y31322D1*
X56470Y31366D1*
X56543Y31399D1*
X56620Y31419D1*
X56700Y31425D1*
X56779Y31419D1*
X56857Y31399D1*
X56930Y31366D1*
X56996Y31322D1*
X57054Y31267D1*
X57101Y31205D1*
X57145Y31267D1*
X57203Y31322D1*
X57270Y31366D1*
X57343Y31399D1*
X57420Y31419D1*
X57500Y31425D1*
X57579Y31419D1*
X57657Y31399D1*
X57730Y31366D1*
X57796Y31322D1*
X57854Y31267D1*
X57902Y31203D1*
X57939Y31132D1*
X57963Y31056D1*
X57975Y30950D1*
X57969Y30870D1*
X57949Y30793D1*
X57916Y30720D1*
X57872Y30654D1*
X57817Y30596D1*
X57753Y30547D1*
X57682Y30511D1*
X57606Y30487D1*
X57527Y30475D1*
X57447Y30478D1*
X57369Y30493D1*
X57294Y30522D1*
X57225Y30562D1*
X57164Y30614D1*
X57101Y30694D1*
X57072Y30654D1*
X57017Y30596D1*
X56953Y30547D1*
X56882Y30511D1*
X56806Y30487D1*
X56727Y30475D1*
X56647Y30478D1*
X56569Y30493D1*
X56494Y30522D1*
X56425Y30562D1*
X56364Y30614D1*
X56327Y30658D1*
X55569Y32070D2*
X55549Y31993D1*
X55516Y31920D1*
X55472Y31854D1*
X55417Y31796D1*
X55353Y31748D1*
X55282Y31711D1*
X55206Y31687D1*
X55127Y31675D1*
X55047Y31678D1*
X54969Y31693D1*
X54894Y31722D1*
X54825Y31762D1*
X54764Y31814D1*
X54712Y31875D1*
X54672Y31944D1*
X54643Y32018D1*
X54628Y32097D1*
X54625Y32176D1*
X54636Y32256D1*
X54661Y32332D1*
X54697Y32403D1*
X54745Y32467D1*
X54803Y32522D1*
X54870Y32566D1*
X54943Y32599D1*
X55020Y32619D1*
X55100Y32625D1*
X55179Y32619D1*
X55257Y32599D1*
X55330Y32566D1*
X55396Y32522D1*
X55454Y32467D1*
X55502Y32403D1*
X55539Y32332D1*
X55563Y32256D1*
X55575Y32150D1*
X55569Y32070D1*
X33970Y79520D2*
Y74264D1*
X31191D1*
Y79520D1*
X10480D1*
Y22580D1*
X22000D1*
X22067Y22541D1*
X22080Y22500D1*
Y16130D1*
X43000Y16080D1*
X43068Y16041D1*
X43080Y16000D1*
Y10480D1*
X63520D1*
Y79520D1*
X42809Y79516D1*
Y74264D1*
X40030D1*
Y79520D1*
X38610D1*
Y74350D1*
X38590Y74273D1*
X38536Y74215D1*
X38450Y74190D1*
X38210D1*
Y69350D1*
X38190Y69273D1*
X38136Y69215D1*
X38050Y69190D1*
X35950D1*
X35873Y69210D1*
X35815Y69264D1*
X35790Y69350D1*
Y74190D1*
X35550D1*
X35473Y74210D1*
X35415Y74264D1*
X35390Y74350D1*
Y79522D1*
X35120Y79520D1*
X33968D1*
X32270Y53852D2*
X32117D1*
X32072Y53779D1*
X32017Y53721D1*
X31953Y53672D1*
X31882Y53636D1*
X31806Y53612D1*
X31727Y53600D1*
X31647Y53603D1*
X31569Y53618D1*
X31494Y53647D1*
X31425Y53687D1*
X31364Y53739D1*
X31312Y53800D1*
X31272Y53869D1*
X31243Y53943D1*
X31228Y54022D1*
X31225Y54101D1*
X31236Y54181D1*
X31261Y54257D1*
X31297Y54328D1*
X31345Y54392D1*
X31403Y54447D1*
X31451Y54478D1*
X31366Y54511D1*
X31292Y54567D1*
X30412Y55447D1*
X30363Y55510D1*
X30331Y55583D1*
X30317Y55675D1*
Y56023D1*
X30056Y56282D1*
X29987Y56283D1*
X29909Y56298D1*
X29834Y56327D1*
X29765Y56367D1*
X29704Y56419D1*
X29652Y56480D1*
X29612Y56549D1*
X29583Y56623D1*
X29568Y56702D1*
X29565Y56781D1*
X29576Y56861D1*
X29606Y56948D1*
X29281Y56846D1*
X29222Y56754D1*
X29167Y56696D1*
X29103Y56648D1*
X29032Y56611D1*
X28956Y56587D1*
X28877Y56575D1*
X28797Y56578D1*
X28719Y56593D1*
X28644Y56622D1*
X28575Y56662D1*
X28514Y56714D1*
X28462Y56775D1*
X28422Y56844D1*
X28393Y56918D1*
X28378Y56997D1*
X28375Y57076D1*
X28386Y57156D1*
X28411Y57232D1*
X28447Y57303D1*
X28495Y57367D1*
X28553Y57422D1*
X28620Y57466D1*
X28693Y57499D1*
X28770Y57519D1*
X28850Y57525D1*
X28929Y57519D1*
X29007Y57499D1*
X29086Y57462D1*
X29518Y57597D1*
X29547Y57653D1*
X29595Y57717D1*
X29653Y57772D1*
X29708Y57809D1*
X29667Y57878D1*
X29639Y57952D1*
X29623Y58031D1*
X29621Y58111D1*
X29632Y58190D1*
X29656Y58266D1*
X29693Y58337D1*
X29741Y58401D1*
X29799Y58456D1*
X29865Y58500D1*
X29938Y58533D1*
X30016Y58553D1*
X30095Y58560D1*
X30175Y58553D1*
X30252Y58533D1*
X30325Y58500D1*
X30392Y58456D1*
X30450Y58401D1*
X30498Y58337D1*
X30535Y58266D1*
X30559Y58190D1*
X30571Y58084D1*
X30564Y58005D1*
X30544Y57927D1*
X30512Y57854D1*
X30467Y57788D1*
X30412Y57730D1*
X30338Y57676D1*
X30389Y57582D1*
X30413Y57506D1*
X30425Y57400D1*
X30419Y57320D1*
X30399Y57243D1*
X30366Y57170D1*
X30337Y57126D1*
X30394Y57072D1*
X30442Y57008D1*
X30479Y56937D1*
X30503Y56861D1*
X30515Y56755D1*
X30514Y56738D1*
X30868Y56383D1*
X30917Y56320D1*
X30949Y56247D1*
X30963Y56155D1*
Y55808D1*
X31655Y55117D1*
X33360Y55118D1*
X33630D1*
X33709Y55108D1*
X33784Y55079D1*
X33858Y55023D1*
X34132Y54749D1*
X34229Y54744D1*
X34307Y54724D1*
X34380Y54691D1*
X34446Y54647D1*
X34504Y54592D1*
X34552Y54528D1*
X34589Y54457D1*
X34613Y54381D1*
X34625Y54275D1*
X34619Y54195D1*
X34599Y54118D1*
X34566Y54045D1*
X34522Y53979D1*
X34467Y53921D1*
X34403Y53873D1*
X34332Y53836D1*
X34256Y53812D1*
X34177Y53800D1*
X34097Y53803D1*
X34018Y53818D1*
X33944Y53847D1*
X33875Y53887D1*
X33814Y53939D1*
X33762Y54000D1*
X33722Y54069D1*
X33693Y54143D1*
X33678Y54222D1*
X33676Y54294D1*
X33496Y54473D1*
X33053Y54472D1*
X33075Y54352D1*
X33069Y54245D1*
X33049Y54168D1*
X33016Y54095D1*
X32972Y54029D1*
X32917Y53971D1*
X32853Y53922D1*
X32782Y53886D1*
X32706Y53862D1*
X32627Y53850D1*
X32547Y53853D1*
X32462Y53871D1*
X32350Y53852D1*
X32270D1*
X44119Y24320D2*
X44099Y24243D1*
X44066Y24170D1*
X44022Y24104D1*
X43996Y24076D1*
X44052Y24003D1*
X44089Y23932D1*
X44113Y23856D1*
X44125Y23750D1*
X44119Y23670D1*
X44099Y23593D1*
X44066Y23520D1*
X44022Y23454D1*
X43996Y23426D1*
X44052Y23353D1*
X44089Y23282D1*
X44113Y23206D1*
X44125Y23100D1*
X44119Y23020D1*
X44099Y22943D1*
X44066Y22870D1*
X44022Y22804D1*
X43967Y22746D1*
X43903Y22698D1*
X43832Y22661D1*
X43756Y22637D1*
X43677Y22625D1*
X43597Y22628D1*
X43518Y22643D1*
X43444Y22672D1*
X43375Y22712D1*
X43314Y22764D1*
X43262Y22825D1*
X43222Y22894D1*
X43193Y22968D1*
X43178Y23047D1*
X43175Y23126D1*
X43186Y23206D1*
X43211Y23282D1*
X43247Y23353D1*
X43304Y23425D1*
X43262Y23475D1*
X43222Y23544D1*
X43193Y23618D1*
X43178Y23697D1*
X43175Y23776D1*
X43186Y23856D1*
X43211Y23932D1*
X43247Y24003D1*
X43304Y24075D1*
X43262Y24125D1*
X43222Y24194D1*
X43193Y24268D1*
X43178Y24347D1*
X43175Y24426D1*
X43186Y24506D1*
X43211Y24582D1*
X43247Y24653D1*
X43304Y24725D1*
X43262Y24775D1*
X43222Y24844D1*
X43193Y24918D1*
X43178Y24997D1*
X43175Y25076D1*
X43186Y25156D1*
X43211Y25232D1*
X43247Y25303D1*
X43295Y25367D1*
X43353Y25422D1*
X43420Y25466D1*
X43493Y25499D1*
X43570Y25519D1*
X43650Y25525D1*
X43729Y25519D1*
X43807Y25499D1*
X43880Y25466D1*
X43946Y25422D1*
X44004Y25367D1*
X44052Y25303D1*
X44089Y25232D1*
X44113Y25156D1*
X44125Y25050D1*
X44119Y24970D1*
X44099Y24893D1*
X44066Y24820D1*
X44022Y24754D1*
X43996Y24726D1*
X44052Y24653D1*
X44089Y24582D1*
X44113Y24506D1*
X44125Y24400D1*
X44119Y24320D1*
X55269Y28220D2*
X55249Y28143D1*
X55216Y28070D1*
X55172Y28004D1*
X55117Y27946D1*
X55053Y27897D1*
X54982Y27861D1*
X54906Y27837D1*
X54827Y27825D1*
X54747Y27828D1*
X54668Y27843D1*
X54594Y27872D1*
X54525Y27912D1*
X54464Y27964D1*
X54412Y28025D1*
X54372Y28094D1*
X54343Y28168D1*
X54328Y28247D1*
X54325Y28326D1*
X54336Y28406D1*
X54361Y28482D1*
X54397Y28553D1*
X54445Y28617D1*
X54503Y28672D1*
X54570Y28716D1*
X54643Y28749D1*
X54720Y28769D1*
X54800Y28775D1*
X54879Y28769D1*
X54957Y28749D1*
X55030Y28716D1*
X55096Y28672D1*
X55154Y28617D1*
X55202Y28553D1*
X55239Y28482D1*
X55263Y28406D1*
X55275Y28300D1*
X55269Y28220D1*
X28732Y46574D2*
X28829Y46569D1*
X28907Y46549D1*
X28980Y46516D1*
X29046Y46472D1*
X29104Y46417D1*
X29152Y46353D1*
X29189Y46282D1*
X29215Y46194D1*
X34751Y47522D2*
X34803Y47572D1*
X34870Y47616D1*
X34943Y47649D1*
X35020Y47669D1*
X35100Y47675D1*
X35179Y47669D1*
X35257Y47649D1*
X35330Y47616D1*
X35396Y47572D1*
X35454Y47517D1*
X35502Y47453D1*
X35539Y47382D1*
X35563Y47306D1*
X35575Y47200D1*
X35569Y47120D1*
X35549Y47043D1*
X35516Y46970D1*
X35472Y46904D1*
X35417Y46846D1*
X35353Y46797D1*
X35282Y46761D1*
X35206Y46737D1*
X35127Y46725D1*
X35047Y46728D1*
X34968Y46743D1*
X34894Y46772D1*
X34825Y46812D1*
X34753Y46877D1*
X35469Y49170D2*
X35449Y49093D1*
X35416Y49020D1*
X35372Y48954D1*
X35317Y48896D1*
X35253Y48847D1*
X35182Y48811D1*
X35106Y48787D1*
X35027Y48775D1*
X34947Y48778D1*
X34869Y48793D1*
X34794Y48822D1*
X34725Y48862D1*
X34664Y48914D1*
X34612Y48975D1*
X34572Y49044D1*
X34543Y49118D1*
X34528Y49197D1*
X34525Y49276D1*
X34536Y49356D1*
X34561Y49432D1*
X34597Y49503D1*
X34645Y49567D1*
X34703Y49622D1*
X34770Y49666D1*
X34843Y49699D1*
X34920Y49719D1*
X35000Y49725D1*
X35079Y49719D1*
X35157Y49699D1*
X35230Y49666D1*
X35296Y49622D1*
X35354Y49567D1*
X35402Y49503D1*
X35439Y49432D1*
X35463Y49356D1*
X35475Y49250D1*
X35469Y49170D1*
X30059Y56281D2*
X29987Y56283D1*
X29909Y56298D1*
X29834Y56327D1*
X29765Y56367D1*
X29704Y56419D1*
X29652Y56480D1*
X29612Y56549D1*
X29583Y56623D1*
X29568Y56702D1*
X29565Y56781D1*
X29576Y56861D1*
X29606Y56948D1*
X48219Y17520D2*
X48199Y17443D1*
X48166Y17370D1*
X48122Y17304D1*
X48067Y17246D1*
X48003Y17198D1*
X47961Y17176D1*
X48046Y17122D1*
X48104Y17067D1*
X48152Y17003D1*
X48189Y16932D1*
X48213Y16856D1*
X48225Y16750D1*
X48219Y16670D1*
X48199Y16593D1*
X48166Y16520D1*
X48122Y16454D1*
X48067Y16396D1*
X48003Y16348D1*
X47932Y16311D1*
X47856Y16287D1*
X47777Y16275D1*
X47697Y16278D1*
X47619Y16293D1*
X47544Y16322D1*
X47475Y16362D1*
X47414Y16414D1*
X47362Y16475D1*
X47322Y16544D1*
X47293Y16618D1*
X47278Y16697D1*
X47275Y16776D1*
X47286Y16856D1*
X47311Y16932D1*
X47347Y17003D1*
X47395Y17067D1*
X47453Y17122D1*
X47540Y17175D1*
X47475Y17212D1*
X47414Y17264D1*
X47362Y17325D1*
X47322Y17394D1*
X47293Y17468D1*
X47278Y17547D1*
X47275Y17626D1*
X47286Y17706D1*
X47311Y17782D1*
X47347Y17853D1*
X47395Y17917D1*
X47453Y17972D1*
X47520Y18016D1*
X47600Y18050D1*
X47544Y18072D1*
X47475Y18112D1*
X47414Y18164D1*
X47362Y18225D1*
X47322Y18294D1*
X47293Y18368D1*
X47278Y18447D1*
X47275Y18526D1*
X47286Y18606D1*
X47311Y18682D1*
X47347Y18753D1*
X47395Y18817D1*
X47453Y18872D1*
X47520Y18916D1*
X47593Y18949D1*
X47670Y18969D1*
X47750Y18975D1*
X47829Y18969D1*
X47907Y18949D1*
X47980Y18916D1*
X48046Y18872D1*
X48104Y18817D1*
X48152Y18753D1*
X48189Y18682D1*
X48213Y18606D1*
X48225Y18500D1*
X48219Y18420D1*
X48199Y18343D1*
X48166Y18270D1*
X48122Y18204D1*
X48067Y18146D1*
X48003Y18098D1*
X47901Y18051D1*
X47980Y18016D1*
X48046Y17972D1*
X48104Y17917D1*
X48152Y17853D1*
X48189Y17782D1*
X48213Y17706D1*
X48225Y17600D1*
X48219Y17520D1*
X50069Y23170D2*
X50049Y23093D1*
X50016Y23020D1*
X49972Y22954D1*
X49917Y22896D1*
X49853Y22847D1*
X49782Y22811D1*
X49706Y22787D1*
X49627Y22775D1*
X49547Y22778D1*
X49469Y22793D1*
X49394Y22822D1*
X49325Y22862D1*
X49264Y22914D1*
X49212Y22975D1*
X49172Y23044D1*
X49143Y23118D1*
X49128Y23197D1*
X49125Y23276D1*
X49136Y23356D1*
X49161Y23432D1*
X49197Y23503D1*
X49245Y23567D1*
X49303Y23622D1*
X49370Y23666D1*
X49443Y23699D1*
X49520Y23719D1*
X49600Y23725D1*
X49679Y23719D1*
X49757Y23699D1*
X49830Y23666D1*
X49896Y23622D1*
X49954Y23567D1*
X50002Y23503D1*
X50039Y23432D1*
X50063Y23356D1*
X50075Y23250D1*
X50069Y23170D1*
X48869Y19220D2*
X48849Y19143D1*
X48816Y19070D1*
X48772Y19004D1*
X48717Y18946D1*
X48653Y18898D1*
X48582Y18861D1*
X48506Y18837D1*
X48427Y18825D1*
X48347Y18828D1*
X48268Y18843D1*
X48194Y18872D1*
X48125Y18912D1*
X48064Y18964D1*
X48012Y19025D1*
X47972Y19094D1*
X47943Y19168D1*
X47928Y19247D1*
X47925Y19326D1*
X47936Y19406D1*
X47961Y19482D1*
X47997Y19553D1*
X48045Y19617D1*
X48103Y19672D1*
X48170Y19716D1*
X48243Y19749D1*
X48320Y19769D1*
X48400Y19775D1*
X48479Y19769D1*
X48557Y19749D1*
X48630Y19716D1*
X48696Y19672D1*
X48754Y19617D1*
X48802Y19553D1*
X48839Y19482D1*
X48863Y19406D1*
X48875Y19300D1*
X48869Y19220D1*
X52119Y25370D2*
X52099Y25293D1*
X52066Y25220D1*
X52022Y25154D1*
X51967Y25096D1*
X51903Y25047D1*
X51832Y25011D1*
X51756Y24987D1*
X51677Y24975D1*
X51597Y24978D1*
X51518Y24993D1*
X51444Y25022D1*
X51350Y25083D1*
X51303Y25047D1*
X51232Y25011D1*
X51156Y24987D1*
X51077Y24975D1*
X50997Y24978D1*
X50918Y24993D1*
X50844Y25022D1*
X50775Y25062D1*
X50714Y25114D1*
X50662Y25175D1*
X50622Y25244D1*
X50593Y25318D1*
X50578Y25397D1*
X50575Y25476D1*
X50586Y25556D1*
X50611Y25632D1*
X50647Y25703D1*
X50695Y25767D1*
X50753Y25822D1*
X50820Y25866D1*
X50893Y25899D1*
X50970Y25919D1*
X51050Y25925D1*
X51129Y25919D1*
X51207Y25899D1*
X51280Y25866D1*
X51352Y25817D1*
X51420Y25866D1*
X51493Y25899D1*
X51570Y25919D1*
X51650Y25925D1*
X51729Y25919D1*
X51807Y25899D1*
X51880Y25866D1*
X51946Y25822D1*
X52004Y25767D1*
X52052Y25703D1*
X52089Y25632D1*
X52113Y25556D1*
X52125Y25450D1*
X52119Y25370D1*
Y27270D2*
X52099Y27193D1*
X52066Y27120D1*
X52022Y27054D1*
X51967Y26996D1*
X51903Y26948D1*
X51832Y26911D1*
X51756Y26887D1*
X51677Y26875D1*
X51597Y26878D1*
X51518Y26893D1*
X51444Y26922D1*
X51350Y26983D1*
X51303Y26948D1*
X51232Y26911D1*
X51156Y26887D1*
X51077Y26875D1*
X50997Y26878D1*
X50918Y26893D1*
X50844Y26922D1*
X50775Y26962D1*
X50714Y27014D1*
X50662Y27075D1*
X50622Y27144D1*
X50593Y27218D1*
X50578Y27297D1*
X50575Y27376D1*
X50586Y27456D1*
X50611Y27532D1*
X50647Y27603D1*
X50695Y27667D1*
X50753Y27722D1*
X50820Y27766D1*
X50893Y27799D1*
X50970Y27819D1*
X51050Y27825D1*
X51129Y27819D1*
X51207Y27799D1*
X51280Y27766D1*
X51352Y27717D1*
X51420Y27766D1*
X51493Y27799D1*
X51570Y27819D1*
X51650Y27825D1*
X51729Y27819D1*
X51807Y27799D1*
X51880Y27766D1*
X51946Y27722D1*
X52004Y27667D1*
X52052Y27603D1*
X52089Y27532D1*
X52113Y27456D1*
X52125Y27350D1*
X52119Y27270D1*
X28319Y53695D2*
X28299Y53618D1*
X28266Y53545D1*
X28222Y53479D1*
X28167Y53421D1*
X28103Y53373D1*
X28032Y53336D1*
X27956Y53312D1*
X27877Y53300D1*
X27797Y53303D1*
X27719Y53318D1*
X27644Y53347D1*
X27575Y53387D1*
X27514Y53439D1*
X27462Y53500D1*
X27422Y53569D1*
X27393Y53643D1*
X27378Y53722D1*
X27375Y53801D1*
X27386Y53881D1*
X27411Y53957D1*
X27447Y54028D1*
X27495Y54092D1*
X27553Y54147D1*
X27620Y54191D1*
X27693Y54224D1*
X27770Y54244D1*
X27850Y54250D1*
X27929Y54244D1*
X28007Y54224D1*
X28080Y54191D1*
X28146Y54147D1*
X28204Y54092D1*
X28252Y54028D1*
X28289Y53957D1*
X28313Y53881D1*
X28325Y53775D1*
X28319Y53695D1*
X36269Y50345D2*
X36249Y50268D1*
X36216Y50195D1*
X36172Y50129D1*
X36117Y50071D1*
X36053Y50023D1*
X35982Y49986D1*
X35906Y49962D1*
X35827Y49950D1*
X35747Y49953D1*
X35669Y49968D1*
X35594Y49997D1*
X35525Y50037D1*
X35464Y50089D1*
X35412Y50150D1*
X35372Y50219D1*
X35343Y50293D1*
X35328Y50372D1*
X35325Y50451D1*
X35336Y50531D1*
X35361Y50607D1*
X35397Y50678D1*
X35445Y50742D1*
X35503Y50797D1*
X35570Y50841D1*
X35643Y50874D1*
X35720Y50894D1*
X35800Y50900D1*
X35879Y50894D1*
X35957Y50874D1*
X36030Y50841D1*
X36096Y50797D1*
X36154Y50742D1*
X36202Y50678D1*
X36239Y50607D1*
X36263Y50531D1*
X36275Y50425D1*
X36269Y50345D1*
X40354Y49685D2*
X40334Y49608D1*
X40301Y49535D1*
X40257Y49469D1*
X40202Y49411D1*
X40138Y49363D1*
X40067Y49326D1*
X39991Y49302D1*
X39912Y49290D1*
X39832Y49293D1*
X39754Y49308D1*
X39679Y49337D1*
X39610Y49377D1*
X39549Y49429D1*
X39497Y49490D1*
X39457Y49559D1*
X39428Y49633D1*
X39413Y49712D1*
X39410Y49791D1*
X39421Y49871D1*
X39446Y49947D1*
X39482Y50018D1*
X39530Y50082D1*
X39588Y50137D1*
X39655Y50181D1*
X39728Y50214D1*
X39805Y50234D1*
X39885Y50240D1*
X39964Y50234D1*
X40042Y50214D1*
X40115Y50181D1*
X40181Y50137D1*
X40239Y50082D1*
X40287Y50018D1*
X40324Y49947D1*
X40348Y49871D1*
X40360Y49765D1*
X40354Y49685D1*
X35069Y43970D2*
X35049Y43893D1*
X35016Y43820D1*
X34972Y43754D1*
X34917Y43696D1*
X34853Y43648D1*
X34782Y43611D1*
X34706Y43587D1*
X34627Y43575D1*
X34547Y43578D1*
X34468Y43593D1*
X34394Y43622D1*
X34325Y43662D1*
X34264Y43714D1*
X34212Y43775D1*
X34172Y43844D1*
X34143Y43918D1*
X34128Y43997D1*
X34125Y44076D1*
X34136Y44156D1*
X34161Y44232D1*
X34197Y44303D1*
X34245Y44367D1*
X34303Y44422D1*
X34370Y44466D1*
X34443Y44499D1*
X34520Y44519D1*
X34600Y44525D1*
X34679Y44519D1*
X34757Y44499D1*
X34830Y44466D1*
X34896Y44422D1*
X34954Y44367D1*
X35002Y44303D1*
X35039Y44232D1*
X35063Y44156D1*
X35075Y44050D1*
X35069Y43970D1*
X27169Y54360D2*
X27149Y54283D1*
X27116Y54210D1*
X27072Y54144D1*
X27017Y54086D1*
X26953Y54038D1*
X26882Y54001D1*
X26806Y53977D1*
X26727Y53965D1*
X26647Y53968D1*
X26568Y53983D1*
X26494Y54012D1*
X26425Y54052D1*
X26364Y54104D1*
X26312Y54165D1*
X26272Y54234D1*
X26243Y54308D1*
X26228Y54387D1*
X26225Y54466D1*
X26236Y54546D1*
X26261Y54622D1*
X26297Y54693D1*
X26345Y54757D1*
X26403Y54812D1*
X26470Y54856D1*
X26543Y54889D1*
X26620Y54909D1*
X26700Y54915D1*
X26779Y54909D1*
X26857Y54889D1*
X26930Y54856D1*
X26996Y54812D1*
X27054Y54757D1*
X27102Y54693D1*
X27139Y54622D1*
X27163Y54546D1*
X27175Y54440D1*
X27169Y54360D1*
X29319Y58220D2*
X29299Y58143D1*
X29266Y58070D1*
X29222Y58004D1*
X29167Y57946D1*
X29103Y57898D1*
X29032Y57861D1*
X28956Y57837D1*
X28877Y57825D1*
X28797Y57828D1*
X28719Y57843D1*
X28644Y57872D1*
X28575Y57912D1*
X28514Y57964D1*
X28462Y58025D1*
X28422Y58094D1*
X28393Y58168D1*
X28378Y58247D1*
X28375Y58326D1*
X28386Y58406D1*
X28411Y58482D1*
X28447Y58553D1*
X28495Y58617D1*
X28553Y58672D1*
X28620Y58716D1*
X28693Y58749D1*
X28770Y58769D1*
X28850Y58775D1*
X28929Y58769D1*
X29007Y58749D1*
X29080Y58716D1*
X29146Y58672D1*
X29204Y58617D1*
X29252Y58553D1*
X29289Y58482D1*
X29313Y58406D1*
X29325Y58300D1*
X29319Y58220D1*
X35969Y56320D2*
X35949Y56243D1*
X35916Y56170D1*
X35872Y56104D1*
X35817Y56046D1*
X35753Y55998D1*
X35682Y55961D1*
X35606Y55937D1*
X35527Y55925D1*
X35447Y55928D1*
X35369Y55943D1*
X35294Y55972D1*
X35225Y56012D1*
X35164Y56064D1*
X35112Y56125D1*
X35072Y56194D1*
X35043Y56268D1*
X35028Y56347D1*
X35025Y56426D1*
X35036Y56506D1*
X35061Y56582D1*
X35097Y56653D1*
X35145Y56717D1*
X35203Y56772D1*
X35270Y56816D1*
X35343Y56849D1*
X35420Y56869D1*
X35500Y56875D1*
X35579Y56869D1*
X35657Y56849D1*
X35730Y56816D1*
X35796Y56772D1*
X35854Y56717D1*
X35902Y56653D1*
X35939Y56582D1*
X35963Y56506D1*
X35975Y56400D1*
X35969Y56320D1*
X34269Y64870D2*
X34249Y64793D1*
X34216Y64720D1*
X34172Y64654D1*
X34117Y64596D1*
X34053Y64547D1*
X33982Y64511D1*
X33906Y64487D1*
X33827Y64475D1*
X33747Y64478D1*
X33669Y64493D1*
X33594Y64522D1*
X33525Y64562D1*
X33464Y64614D1*
X33412Y64675D1*
X33372Y64744D1*
X33343Y64818D1*
X33328Y64897D1*
X33325Y64976D1*
X33336Y65056D1*
X33361Y65132D1*
X33397Y65203D1*
X33445Y65267D1*
X33503Y65322D1*
X33570Y65366D1*
X33643Y65399D1*
X33720Y65419D1*
X33800Y65425D1*
X33879Y65419D1*
X33957Y65399D1*
X34030Y65366D1*
X34096Y65322D1*
X34154Y65267D1*
X34202Y65203D1*
X34239Y65132D1*
X34263Y65056D1*
X34275Y64950D1*
X34269Y64870D1*
X42719Y44170D2*
X42699Y44093D1*
X42666Y44020D1*
X42622Y43954D1*
X42567Y43896D1*
X42503Y43847D1*
X42432Y43811D1*
X42356Y43787D1*
X42277Y43775D1*
X42197Y43778D1*
X42119Y43793D1*
X42044Y43822D1*
X41975Y43862D1*
X41914Y43914D1*
X41862Y43975D1*
X41822Y44044D1*
X41793Y44118D1*
X41778Y44197D1*
X41775Y44276D1*
X41786Y44356D1*
X41811Y44432D1*
X41847Y44503D1*
X41895Y44567D1*
X41953Y44622D1*
X42020Y44666D1*
X42093Y44699D1*
X42170Y44719D1*
X42250Y44725D1*
X42329Y44719D1*
X42407Y44699D1*
X42480Y44666D1*
X42546Y44622D1*
X42604Y44567D1*
X42652Y44503D1*
X42689Y44432D1*
X42713Y44356D1*
X42725Y44250D1*
X42719Y44170D1*
X61130Y51636D2*
D16*
Y49644D1*
X60134Y50640D2*
X62126D1*
X61130Y54176D2*
Y52184D1*
X60134Y53180D2*
X62126D1*
X12870Y37412D2*
Y35420D1*
X11874Y36416D2*
X13866D1*
X56050Y40480D2*
Y39484D1*
X55054Y40480D2*
X57046D1*
X55054Y43020D2*
X57046D1*
X56050Y46556D2*
Y44564D1*
X55054Y45560D2*
X57046D1*
X56050Y49096D2*
Y47104D1*
X55054Y48100D2*
X57046D1*
X56050Y51636D2*
Y49644D1*
X55054Y50640D2*
X57046D1*
X56050Y54176D2*
Y52184D1*
X55054Y53180D2*
X57046D1*
X56050Y56716D2*
Y54724D1*
X55054Y55720D2*
X57046D1*
X56050Y36396D2*
Y34404D1*
X55054Y35400D2*
X57046D1*
X56050Y38936D2*
Y36944D1*
X55054Y37940D2*
X57046D1*
X38150Y20696D2*
D20*
Y19004D1*
X37304Y19850D2*
X38996D1*
X15410Y36396D2*
D16*
Y34404D1*
X14414Y35400D2*
X15410D1*
X25000Y20696D2*
D20*
Y19004D1*
X24154Y19850D2*
X25846D1*
X25000Y34496D2*
Y32804D1*
X24154Y33650D2*
X25846D1*
X16956Y38158D2*
D21*
X19099Y36016D1*
X21241Y38158D2*
X16956Y33873D1*
X38150Y34496D2*
D20*
Y32804D1*
X37304Y33650D2*
X38996D1*
X32850Y28846D2*
Y27154D1*
X32004Y28000D2*
X33696D1*
X30250Y26246D2*
Y24554D1*
X29404Y25400D2*
X31096D1*
X30250Y28846D2*
Y27154D1*
X29404Y28000D2*
X31096D1*
X32850Y26246D2*
Y24554D1*
X32004Y25400D2*
X33696D1*
X32580Y77050D2*
D15*
Y74264D1*
X31191Y77050D2*
X33970D1*
X41420D2*
Y74264D1*
X40030Y77050D2*
X42809D1*
D36*
X61130Y37940D3*
Y40480D3*
Y43020D3*
Y45560D3*
Y48100D3*
Y50640D3*
Y53180D3*
Y55720D3*
Y60800D3*
Y63340D3*
Y65880D3*
Y68420D3*
Y70960D3*
Y73500D3*
X12870D3*
Y70960D3*
Y68420D3*
Y65880D3*
Y63340D3*
Y60800D3*
Y58260D3*
Y55720D3*
Y51656D3*
Y49116D3*
Y46576D3*
Y44036D3*
Y41496D3*
Y38956D3*
Y36416D3*
Y33876D3*
Y31336D3*
Y28796D3*
X53510Y40480D3*
Y43020D3*
Y45560D3*
Y48100D3*
Y50640D3*
Y53180D3*
Y55720D3*
Y58260D3*
Y35400D3*
Y37940D3*
X56050Y40480D3*
Y43020D3*
Y45560D3*
Y48100D3*
Y50640D3*
Y53180D3*
Y55720D3*
Y58260D3*
Y35400D3*
Y37940D3*
X17950Y55720D3*
Y58260D3*
X15410Y55720D3*
Y58260D3*
Y50640D3*
Y48100D3*
D38*
X38150Y26700D3*
D36*
X15410Y45560D3*
D38*
X38150Y24100D3*
D36*
X15410Y43020D3*
D38*
X38150Y19850D3*
D36*
X15410Y40480D3*
D38*
X34450Y18550D3*
D36*
X15410Y37940D3*
D38*
X31550Y18550D3*
D36*
X15410Y35400D3*
D38*
X28650Y18550D3*
D36*
X15410Y32860D3*
D38*
X25000Y19850D3*
D36*
X15410Y30320D3*
Y27780D3*
X45890Y70960D3*
D38*
X25000Y24100D3*
D36*
X45890Y73500D3*
D38*
X25000Y26700D3*
D36*
X53510Y70960D3*
D38*
X25000Y29300D3*
D36*
X53510Y73500D3*
D38*
X25000Y33650D3*
X38150Y29300D3*
G36*
X17605Y39220D2*
X22303Y37510D1*
X20593Y32811D1*
X15895Y34521D1*
X17605Y39220D1*
G37*
G36*
X53407Y26189D2*
X58105Y24479D1*
X56395Y19780D1*
X51697Y21490D1*
X53407Y26189D1*
G37*
D38*
X28650Y34850D3*
X31550D3*
D39*
X32580Y77050D3*
D38*
X34450Y34850D3*
D39*
X41420Y77050D3*
D38*
X38150Y33650D3*
X32850Y28000D3*
X30250Y25400D3*
Y28000D3*
X32850Y25400D3*
M02*
