M48
METRIC,0000.00
T01C0.254
T02C0.33
T03C0.66
T04C0.9
T05C3.2
%
T01
X+005180Y+005595
X+004995Y+005660
X+004850Y+005690
X+004715Y+005715
X+004570Y+005645
X+004500Y+005500
X+004430Y+005500
X+004395Y+005595
X+004250Y+005540
X+004100Y+005500
X+004100Y+005400
X+004100Y+005300
X+004250Y+005340
X+004365Y+005300
X+004550Y+005385
X+004710Y+005405
X+004845Y+005375
X+004985Y+005340
X+005165Y+005320
X+005025Y+005100
X+005165Y+004995
X+004995Y+004855
X+005095Y+004700
X+004930Y+004600
X+004705Y+004490
X+004705Y+004245
X+004955Y+004245
X+005095Y+004375
X+004975Y+004035
X+004844Y+004031
X+004740Y+003710
X+004940Y+003510
X+005140Y+003645
X+005145Y+003285
X+005060Y+003025
X+005160Y+002910
X+005220Y+002910
X+005275Y+002910
X+005370Y+002995
X+005460Y+002995
X+005480Y+002830
X+005535Y+002595
X+005775Y+002575
X+005775Y+002500
X+005775Y+002650
X+005805Y+002820
X+005950Y+002965
X+005750Y+003095
X+005670Y+003095
X+005595Y+003095
X+005510Y+003215
X+005475Y+003370
X+005955Y+003430
X+005940Y+003630
X+005940Y+003910
X+005940Y+004210
X+005940Y+004420
X+005940Y+004700
X+005940Y+004900
X+005940Y+005100
X+005940Y+005300
X+005940Y+005500
X+005940Y+005700
X+006120Y+005825
X+006020Y+005985
X+006020Y+006205
X+006020Y+006465
X+006020Y+006710
X+006020Y+006965
X+006020Y+007230
X+006100Y+007500
X+006300Y+007500
X+006300Y+007700
X+006300Y+007900
X+006100Y+007900
X+005900Y+007900
X+005900Y+007700
X+005700Y+007900
X+005500Y+007900
X+005300Y+007900
X+005100Y+007900
X+005100Y+007700
X+005300Y+007500
X+005100Y+007300
X+004900Y+007300
X+004735Y+007300
X+004735Y+007100
X+004900Y+007100
X+005100Y+007100
X+005080Y+006865
X+005240Y+006700
X+005475Y+006710
X+005475Y+006465
X+005475Y+006205
X+005480Y+005985
X+005755Y+005985
X+005735Y+006205
X+005740Y+006465
X+005735Y+006715
X+005735Y+006965
X+005475Y+006965
X+005475Y+007230
X+005735Y+007230
X+006300Y+007300
X+006300Y+007100
X+006300Y+006900
X+006300Y+006700
X+006300Y+006500
X+006300Y+006300
X+006300Y+006100
X+006300Y+005900
X+006300Y+005700
X+006300Y+005500
X+006300Y+005300
X+006300Y+005100
X+006300Y+004900
X+006300Y+004700
X+006300Y+004500
X+006300Y+004300
X+006300Y+004100
X+006300Y+003900
X+006300Y+003700
X+006300Y+003500
X+006300Y+003300
X+006300Y+003100
X+006300Y+002900
X+006300Y+002700
X+006315Y+002500
X+006315Y+002300
X+006300Y+002100
X+006300Y+001900
X+006300Y+001700
X+006300Y+001500
X+006300Y+001300
X+006300Y+001100
X+006100Y+001070
X+005900Y+001070
X+005700Y+001070
X+005500Y+001070
X+005300Y+001070
X+005100Y+001070
X+004900Y+001070
X+004700Y+001070
X+004500Y+001070
X+004350Y+001070
X+004350Y+001150
X+004350Y+001250
X+004350Y+001350
X+004350Y+001450
X+004350Y+001550
X+004350Y+001650
X+004250Y+001650
X+004150Y+001650
X+004050Y+001650
X+003950Y+001650
X+003850Y+001650
X+003750Y+001650
X+003650Y+001650
X+003550Y+001650
X+003450Y+001650
X+003350Y+001650
X+003250Y+001650
X+003150Y+001650
X+003050Y+001650
X+003000Y+001780
X+003000Y+001980
X+002850Y+002090
X+002740Y+002200
X+002555Y+002200
X+002375Y+002200
X+002250Y+002250
X+002200Y+002300
X+002100Y+002300
X+002000Y+002300
X+001900Y+002300
X+001800Y+002300
X+001700Y+002300
X+001600Y+002300
X+001500Y+002300
X+001400Y+002300
X+001300Y+002300
X+001200Y+002300
X+001100Y+002300
X+001070Y+002450
X+001100Y+002700
X+001100Y+002900
X+001100Y+003100
X+001100Y+003300
X+001100Y+003500
X+001100Y+003700
X+001100Y+003900
X+001100Y+004100
X+001100Y+004300
X+001100Y+004500
X+001100Y+004700
X+001100Y+004900
X+001100Y+005100
X+001100Y+005300
X+001100Y+005500
X+001100Y+005700
X+001100Y+005900
X+001100Y+006100
X+001100Y+006300
X+001100Y+006500
X+001100Y+006700
X+001100Y+006900
X+001100Y+007100
X+001100Y+007300
X+001100Y+007500
X+001300Y+007500
X+001425Y+007340
X+001600Y+007340
X+001700Y+007500
X+001900Y+007700
X+001900Y+007900
X+002100Y+007900
X+002300Y+007900
X+002500Y+007900
X+002700Y+007900
X+002900Y+007900
X+003090Y+007900
X+003090Y+007700
X+003090Y+007500
X+003000Y+007340
X+003200Y+007340
X+003400Y+007340
X+003565Y+007300
X+003565Y+007200
X+003565Y+007100
X+003400Y+007140
X+003400Y+006940
X+003400Y+006800
X+003500Y+006800
X+003600Y+006800
X+003600Y+006900
X+003780Y+006800
X+003905Y+006800
X+003905Y+006700
X+003905Y+006600
X+003905Y+006500
X+003905Y+006400
X+003905Y+006300
X+003905Y+006200
X+003905Y+006100
X+003905Y+006000
X+004010Y+005845
X+004010Y+005745
X+004010Y+005645
X+004010Y+005545
X+004100Y+005600
X+004100Y+005700
X+004100Y+005800
X+004100Y+005900
X+004100Y+006000
X+004100Y+006100
X+004100Y+006200
X+004100Y+006300
X+004100Y+006400
X+004100Y+006500
X+004100Y+006600
X+004100Y+006700
X+004100Y+006800
X+004070Y+006900
X+004005Y+007000
X+003905Y+007000
X+003835Y+007100
X+003835Y+007200
X+003835Y+007300
X+003835Y+007400
X+003920Y+007500
X+003920Y+007700
X+003920Y+007900
X+004310Y+007900
X+004500Y+007900
X+004700Y+007900
X+004900Y+007900
X+004700Y+007700
X+004900Y+007500
X+004500Y+007500
X+004310Y+007500
X+004310Y+007700
X+004300Y+007300
X+004300Y+007100
X+004300Y+006900
X+004500Y+006900
X+004560Y+006755
X+004695Y+006600
X+004605Y+006415
X+004775Y+006375
X+004965Y+006265
X+005190Y+006145
X+005025Y+005965
X+004860Y+005995
X+004715Y+006025
X+004570Y+005915
X+004395Y+005830
X+004250Y+005740
X+004250Y+005940
X+004395Y+006070
X+004250Y+006140
X+004250Y+006300
X+004395Y+006295
X+004570Y+006185
X+004445Y+006545
X+004250Y+006500
X+004250Y+006700
X+004100Y+007100
X+004100Y+007300
X+003565Y+007400
X+003475Y+007500
X+003475Y+007700
X+003475Y+007900
X+003200Y+007140
X+003200Y+006940
X+003300Y+006800
X+003200Y+006740
X+003180Y+006600
X+003280Y+006600
X+003380Y+006600
X+003480Y+006600
X+003480Y+006500
X+003480Y+006400
X+003480Y+006300
X+003480Y+006200
X+003440Y+006120
X+003505Y+005955
X+003505Y+005850
X+003395Y+005873
X+003610Y+005915
X+003610Y+006060
X+003550Y+005640
X+003765Y+005645
X+003855Y+005645
X+003855Y+005545
X+003415Y+005427
X+003260Y+005432
X+003170Y+005407
X+003004Y+005675
X+002995Y+005740
X+003010Y+005808
X+002885Y+005830
X+002885Y+005705
X+002700Y+005750
X+002500Y+005750
X+002500Y+005550
X+002700Y+005550
X+002670Y+005444
X+002670Y+005335
X+002785Y+005377
X+002855Y+005450
X+002605Y+005075
X+002655Y+005025
X+002705Y+004975
X+002530Y+004885
X+002625Y+004700
X+002760Y+004625
X+002875Y+004610
X+002924Y+004572
X+002975Y+004610
X+003025Y+004570
X+003075Y+004415
X+003125Y+004375
X+003260Y+004250
X+003140Y+004140
X+002950Y+004250
X+002760Y+004380
X+002625Y+004230
X+002775Y+004100
X+002940Y+003945
X+002940Y+003710
X+002695Y+003785
X+002640Y+003575
X+002415Y+003710
X+002495Y+003925
X+002200Y+003885
X+001975Y+003940
X+001750Y+004000
X+001825Y+003755
X+001755Y+003530
X+001700Y+003300
X+001950Y+003235
X+001925Y+003000
X+001925Y+002800
X+001925Y+002600
X+001925Y+002400
X+001700Y+002400
X+001535Y+002460
X+001535Y+002630
X+001700Y+002600
X+001700Y+002800
X+001700Y+003000
X+001480Y+002910
X+001425Y+003210
X+001425Y+003450
X+001425Y+003720
X+001425Y+003965
X+001480Y+004180
X+001425Y+004485
X+001420Y+004725
X+001420Y+004975
X+001680Y+004955
X+001680Y+004715
X+001670Y+004560
X+001750Y+004400
X+001975Y+004240
X+002200Y+004295
X+002420Y+004300
X+002420Y+004480
X+002200Y+004600
X+002100Y+004750
X+001950Y+004600
X+001940Y+004960
X+001855Y+005140
X+001675Y+005300
X+001835Y+005425
X+002035Y+005425
X+002140Y+005210
X+002330Y+005340
X+002275Y+005520
X+002275Y+005700
X+002275Y+005900
X+002275Y+006090
X+002115Y+006250
X+001960Y+006405
X+001800Y+006570
X+001600Y+006570
X+001600Y+006740
X+001425Y+006740
X+001425Y+006570
X+001425Y+006370
X+001425Y+006170
X+001425Y+005960
X+001670Y+005960
X+001775Y+006175
X+001665Y+006370
X+001990Y+006005
X+001965Y+005715
X+001425Y+005700
X+001425Y+005500
X+001420Y+005300
X+002345Y+004995
X+003225Y+004610
X+003275Y+004572
X+003340Y+004435
X+003460Y+004405
X+003620Y+004435
X+003515Y+004250
X+003775Y+004250
X+003975Y+004250
X+004225Y+004425
X+004340Y+004340
X+004345Y+004700
X+004260Y+004985
X+004510Y+004985
X+004670Y+004795
X+004775Y+004985
X+003988Y+004977
X+003785Y+005020
X+003580Y+005043
X+003500Y+004925
X+003510Y+004720
X+003420Y+004662
X+003695Y+004740
X+003885Y+004640
X+003740Y+003945
X+003740Y+003710
X+003740Y+003555
X+003985Y+003555
X+004140Y+003620
X+004340Y+003735
X+004505Y+003945
X+004140Y+003945
X+004095Y+003355
X+004255Y+003255
X+004420Y+003345
X+004435Y+003130
X+004320Y+003010
X+004425Y+002885
X+004505Y+002885
X+004585Y+002885
X+004595Y+002695
X+004505Y+002695
X+004280Y+002700
X+004365Y+002505
X+004365Y+002440
X+004365Y+002375
X+004365Y+002310
X+004230Y+002385
X+004060Y+002305
X+003910Y+002220
X+004060Y+002105
X+004215Y+002150
X+004365Y+002150
X+004560Y+002150
X+004560Y+001955
X+004365Y+001955
X+004215Y+001955
X+004060Y+001900
X+004000Y+001780
X+004200Y+001780
X+004400Y+001780
X+004610Y+001540
X+004775Y+001675
X+004775Y+001760
X+004775Y+001850
X+004840Y+001930
X+004960Y+001980
X+005105Y+002015
X+005110Y+002300
X+004960Y+002325
X+005015Y+002485
X+005105Y+002545
X+005165Y+002545
X+005165Y+002735
X+005105Y+002735
X+005015Y+002745
X+004795Y+002745
X+004790Y+002435
X+004790Y+002110
X+005000Y+001540
X+005000Y+001300
X+005200Y+001300
X+005410Y+001540
X+005580Y+001690
X+005700Y+001500
X+005580Y+001290
X+005900Y+001300
X+006100Y+001500
X+005900Y+001700
X+006100Y+001900
X+006100Y+002100
X+005820Y+002100
X+005880Y+002300
X+005700Y+001900
X+005390Y+001965
X+004800Y+001300
X+003800Y+001780
X+003600Y+001780
X+003300Y+001780
X+003300Y+001980
X+003310Y+002190
X+003240Y+002320
X+003150Y+002190
X+003020Y+002320
X+002780Y+002640
X+002785Y+002880
X+002870Y+003050
X+002930Y+003240
X+003180Y+003240
X+003120Y+003050
X+003355Y+003050
X+003445Y+003240
X+003575Y+003050
X+003580Y+002800
X+003800Y+002800
X+004060Y+002705
X+004060Y+002905
X+004060Y+003125
X+003820Y+003120
X+003580Y+002540
X+003475Y+002320
X+003475Y+002110
X+003710Y+002220
X+004060Y+002500
X+004675Y+003105
X+004875Y+003200
X+004640Y+003435
X+003340Y+003710
X+003340Y+003945
X+002665Y+003140
X+002440Y+003140
X+002150Y+003060
X+002150Y+002860
X+002150Y+002660
X+002150Y+002460
X+002250Y+002150
X+002250Y+002050
X+002250Y+001950
X+002250Y+001850
X+002250Y+001750
X+002250Y+001650
X+002350Y+001650
X+002450Y+001650
X+002550Y+001650
X+002650Y+001650
X+002700Y+001780
X+002500Y+001780
X+002350Y+001780
X+002085Y+003545
X+002500Y+005950
X+002500Y+006150
X+002700Y+006150
X+002810Y+006050
X+002700Y+005950
X+002810Y+006255
X+002700Y+006350
X+002845Y+006440
X+002945Y+006440
X+003045Y+006440
X+003145Y+006440
X+003000Y+006600
X+003000Y+006740
X+002800Y+006740
X+002800Y+006940
X+003000Y+006940
X+003000Y+007140
X+002800Y+007340
X+002600Y+007140
X+002400Y+007340
X+002500Y+007500
X+002300Y+007700
X+002100Y+007500
X+002000Y+007340
X+001800Y+007140
X+002000Y+006940
X+002000Y+006740
X+002200Y+006740
X+002200Y+006540
X+002460Y+006540
X+002400Y+006340
X+002700Y+006550
X+002600Y+006740
X+002400Y+006940
X+002200Y+007140
X+001580Y+006940
X+001425Y+006940
X+001425Y+007140
X+001500Y+007700
X+001500Y+007900
X+001300Y+007900
X+001100Y+007900
X+001100Y+007700
X+001700Y+007900
X+002995Y+006140
X+003085Y+006140
X+003180Y+006140
X+003380Y+006495
X+004750Y+006920
X+004850Y+006760
X+005010Y+006625
X+005205Y+006435
X+005200Y+005875
X+005965Y+003220
T02
X+002875Y+005227
X+002985Y+005227
X+003100Y+005227
X+003215Y+005227
X+003325Y+005227
X+003325Y+005048
X+003215Y+005048
X+003100Y+005048
X+002985Y+005048
X+002875Y+005048
X+002875Y+004912
X+002985Y+004912
X+003100Y+004912
X+003215Y+004912
X+003325Y+004912
X+003325Y+004777
X+003215Y+004777
X+003100Y+004777
X+002985Y+004777
X+002875Y+004777
X+003165Y+005598
X+003165Y+005688
X+003165Y+005777
X+003255Y+005777
X+003345Y+005777
X+003345Y+005688
X+003255Y+005688
X+003255Y+005598
X+003345Y+005598
T03
X+003815Y+002670
X+003815Y+002930
X+003815Y+003365
X+003445Y+003485
X+003155Y+003485
X+002865Y+003485
X+002500Y+003365
X+002500Y+002930
X+002500Y+002670
X+002500Y+002410
X+002500Y+001985
X+002865Y+001855
X+003155Y+001855
X+003445Y+001855
X+003815Y+001985
X+003815Y+002410
X+003285Y+002540
X+003025Y+002540
X+003025Y+002800
X+003285Y+002800
T04
X+004780Y+001520
X+005220Y+001520
X+005351Y+003540
X+005351Y+003794
X+005351Y+004048
X+005351Y+004302
X+005351Y+004556
X+005351Y+004810
X+005351Y+005064
X+005351Y+005318
X+005351Y+005572
X+005351Y+005826
X+005605Y+005826
X+005605Y+005572
X+005605Y+005318
X+005605Y+005064
X+005605Y+004810
X+005605Y+004556
X+005605Y+004302
X+005605Y+004048
X+005605Y+003794
X+005605Y+003540
X+006113Y+003794
X+006113Y+004048
X+006113Y+004302
X+006113Y+004556
X+006113Y+004810
X+006113Y+005064
X+006113Y+005318
X+006113Y+005572
X+006113Y+006080
X+006113Y+006334
X+006113Y+006588
X+006113Y+006842
X+006113Y+007096
X+006113Y+007350
X+005351Y+007350
X+005351Y+007096
X+004589Y+007096
X+004589Y+007350
X+001795Y+005826
X+001795Y+005572
X+001541Y+005572
X+001287Y+005572
X+001287Y+005826
X+001541Y+005826
X+001287Y+006080
X+001287Y+006334
X+001287Y+006588
X+001287Y+006842
X+001287Y+007096
X+001287Y+007350
X+001287Y+005166
X+001287Y+004912
X+001287Y+004658
X+001287Y+004404
X+001287Y+004150
X+001287Y+003896
X+001287Y+003642
X+001287Y+003388
X+001287Y+003134
X+001287Y+002880
X+001541Y+002778
X+001541Y+003032
X+001541Y+003286
X+001541Y+003540
X+001541Y+003794
X+001541Y+004048
X+001541Y+004302
X+001541Y+004556
X+001541Y+004810
X+001541Y+005064
T05
X+005605Y+007604
X+002811Y+007604
X+001287Y+002524
X+006113Y+002397
T00
M30
