G04 DipTrace 2.3.1.0*
%INTopSilk.gbr*%
%MOMM*%
%ADD10C,0.25*%
%ADD12C,0.076*%
%ADD15C,0.5*%
%ADD16C,0.4*%
%ADD17C,0.6*%
%ADD19C,0.2*%
%ADD20C,0.16*%
%ADD22C,0.0*%
%ADD42C,0.875*%
%ADD117C,0.118*%
%FSLAX53Y53*%
G04*
G71*
G90*
G75*
G01*
%LNTopSilk*%
%LPD*%
X26700Y52750D2*
D19*
X24500D1*
Y53950D1*
X26700D1*
Y52750D1*
Y53850D2*
X24500D1*
Y55050D1*
X26700D1*
Y53850D1*
X28200Y46000D2*
X27000D1*
Y43800D1*
X28200D1*
Y46000D1*
X34000Y45200D2*
X36200D1*
Y44000D1*
X34000D1*
Y45200D1*
X40050Y49600D2*
X37850D1*
Y50800D1*
X40050D1*
Y49600D1*
X35650Y50800D2*
X37850D1*
Y49600D1*
X35650D1*
Y50800D1*
X38400Y44000D2*
X36200D1*
Y45200D1*
X38400D1*
Y44000D1*
X39450Y49600D2*
X38250D1*
Y47400D1*
X39450D1*
Y49600D1*
X55500Y32950D2*
X57700D1*
Y31750D1*
X55500D1*
Y32950D1*
X55950Y28100D2*
X54750D1*
Y25900D1*
X55950D1*
Y28100D1*
X40650Y47400D2*
X39450D1*
Y45200D1*
X40650D1*
Y47400D1*
X39450Y43000D2*
X40650D1*
Y45200D1*
X39450D1*
Y43000D1*
X29450Y54900D2*
X27250D1*
Y56100D1*
X29450D1*
Y54900D1*
X36400Y63950D2*
X38600D1*
Y62750D1*
X36400D1*
Y63950D1*
Y65550D2*
X38600D1*
Y64350D1*
X36400D1*
Y65550D1*
X35300Y66550D2*
X33100D1*
Y67750D1*
X35300D1*
Y66550D1*
X39900Y57650D2*
X38700D1*
Y55450D1*
X39900D1*
Y57650D1*
X37600Y57500D2*
X38800D1*
Y59700D1*
X37600D1*
Y57500D1*
X36500D2*
X37700D1*
Y59700D1*
X36500D1*
Y57500D1*
X39800Y68250D2*
X37600D1*
Y69450D1*
X39800D1*
Y68250D1*
X36400D2*
X37600D1*
Y70450D1*
X36400D1*
Y68250D1*
X38300Y53900D2*
X40500D1*
Y52700D1*
X38300D1*
Y53900D1*
Y54950D2*
X40500D1*
Y53750D1*
X38300D1*
Y54950D1*
X32000Y62750D2*
X33200D1*
Y64950D1*
X32000D1*
Y62750D1*
Y63950D2*
X30800D1*
Y61750D1*
X32000D1*
Y63950D1*
X30900D2*
X29700D1*
Y61750D1*
X30900D1*
Y63950D1*
X38600Y66550D2*
X36400D1*
Y67750D1*
X38600D1*
Y66550D1*
Y61150D2*
X36400D1*
Y62350D1*
X38600D1*
Y61150D1*
X35400Y56600D2*
X37600D1*
Y55400D1*
X35400D1*
Y56600D1*
X29450Y55950D2*
X27250D1*
Y57150D1*
X29450D1*
Y55950D1*
Y57200D2*
X27250D1*
Y58400D1*
X29450D1*
Y57200D1*
Y58250D2*
X27250D1*
Y59450D1*
X29450D1*
Y58250D1*
X44250Y30350D2*
X46450D1*
Y29150D1*
X44250D1*
Y30350D1*
X45450Y25000D2*
X44250D1*
Y22800D1*
X45450D1*
Y25000D1*
X46650D2*
X45450D1*
Y22800D1*
X46650D1*
Y25000D1*
X38099Y18550D2*
X25001D1*
Y34850D1*
X38099D1*
Y18550D1*
X46201Y13925D2*
Y16025D1*
X46900Y18524D2*
X47800D1*
X52200D2*
X53100D1*
X53799Y16025D2*
Y13925D1*
X59350Y33000D2*
Y30000D1*
X57750Y33000D2*
Y30000D1*
G36*
X59250Y32800D2*
X57850D1*
X58550Y33500D1*
X59250Y32800D1*
G37*
X59350Y30000D2*
D19*
X57750D1*
X57600Y28100D2*
Y25100D1*
X56000Y28100D2*
Y25100D1*
G36*
X57500Y27900D2*
X56100D1*
X56800Y28600D1*
X57500Y27900D1*
G37*
X57600Y25100D2*
D19*
X56000D1*
X52450Y28900D2*
Y25900D1*
X50850Y28900D2*
Y25900D1*
G36*
X52350Y28700D2*
X50950D1*
X51650Y29400D1*
X52350Y28700D1*
G37*
X52450Y25900D2*
D19*
X50850D1*
X21950Y57150D2*
X19750D1*
Y58450D1*
X21950D1*
G36*
X21750Y58300D2*
Y57300D1*
X22250Y57800D1*
X21750Y58300D1*
G37*
X21950Y55850D2*
D19*
X19750D1*
Y57150D1*
X21950D1*
G36*
X21750Y57000D2*
Y56000D1*
X22250Y56500D1*
X21750Y57000D1*
G37*
X51700Y40100D2*
D19*
Y37900D1*
X50400D1*
Y40100D1*
G36*
X50550Y39900D2*
X51550D1*
X51050Y40400D1*
X50550Y39900D1*
G37*
X40650Y48600D2*
D19*
Y50800D1*
X41950D1*
Y48600D1*
G36*
X41800Y48800D2*
X40800D1*
X41300Y48300D1*
X41800Y48800D1*
G37*
X49100Y40100D2*
D19*
Y37900D1*
X47800D1*
Y40100D1*
G36*
X47950Y39900D2*
X48950D1*
X48450Y40400D1*
X47950Y39900D1*
G37*
X50400Y40100D2*
D19*
Y37900D1*
X49100D1*
Y40100D1*
G36*
X49250Y39900D2*
X50250D1*
X49750Y40400D1*
X49250Y39900D1*
G37*
X59880Y57080D2*
D10*
X62380D1*
Y36580D1*
X59880D1*
Y57080D1*
Y74900D2*
X62380D1*
Y59400D1*
X59880D1*
Y74900D1*
X14120Y54360D2*
X11620D1*
Y74860D1*
X14120D1*
Y54360D1*
Y27476D2*
X11620D1*
Y52976D1*
X14120D1*
Y27476D1*
X51080Y58230D2*
X52380D1*
X51080Y50630D2*
X52380D1*
X51080Y48131D2*
X52380D1*
X51080Y43030D2*
X52380D1*
X57180Y35430D2*
X58480D1*
X34200Y61550D2*
D19*
X33000D1*
Y59350D1*
X34200D1*
Y61550D1*
X35300Y61150D2*
X36500D1*
Y63350D1*
X35300D1*
Y61150D1*
Y63350D2*
X36500D1*
Y65550D1*
X35300D1*
Y63350D1*
Y65550D2*
X36500D1*
Y67750D1*
X35300D1*
Y65550D1*
X38700Y57500D2*
X39900D1*
Y59700D1*
X38700D1*
Y57500D1*
X36500Y60800D2*
X38700D1*
Y59600D1*
X36500D1*
Y60800D1*
X35400Y56500D2*
X36600D1*
Y58700D1*
X35400D1*
Y56500D1*
X30401Y59850D2*
D10*
X29999D1*
X30401Y60850D2*
X29999D1*
X30401D2*
Y59850D1*
X30209Y60850D2*
Y59850D1*
X28600Y61750D2*
D19*
X29800D1*
Y63950D1*
X28600D1*
Y61750D1*
X38600Y65450D2*
X36400D1*
Y66650D1*
X38600D1*
Y65450D1*
X40650Y49600D2*
X39450D1*
Y47400D1*
X40650D1*
Y49600D1*
X53650Y25900D2*
X54850D1*
Y28100D1*
X53650D1*
Y25900D1*
X52450D2*
X53650D1*
Y28100D1*
X52450D1*
Y25900D1*
X21950Y58450D2*
X19750D1*
Y59650D1*
X21950D1*
Y58450D1*
Y54650D2*
X19750D1*
Y55850D1*
X21950D1*
Y54650D1*
X39600Y45200D2*
X38400D1*
Y43000D1*
X39600D1*
Y45200D1*
X34200Y61550D2*
X32000D1*
Y62750D1*
X34200D1*
Y61550D1*
X34400Y64950D2*
X33200D1*
Y62750D1*
X34400D1*
Y64950D1*
X44450Y45400D2*
X45650D1*
X42450D2*
X41250D1*
X45650Y48400D2*
X41250D1*
X44450Y41950D2*
X45650D1*
X42450D2*
X41250D1*
X45650Y44950D2*
X41250D1*
D42*
X34688Y46312D3*
X30362Y54662D3*
D16*
X48600Y20410D3*
X48700Y20710D2*
D19*
Y22310D1*
X50500Y20710D2*
Y22310D1*
D17*
X55400Y31000D3*
X57350Y29450D2*
D19*
Y30150D1*
X56900D1*
D17*
X44250Y25900D3*
X36150Y47400D2*
D10*
X37750D1*
X35650Y45200D2*
D19*
X38250D1*
Y49600D1*
X35650D1*
Y45200D1*
D15*
X35350Y53050D3*
X47750Y74400D2*
D19*
X51700D1*
Y72600D1*
X47750D1*
Y74400D1*
X44650Y75000D2*
X47200D1*
Y68450D1*
X44650D1*
Y75000D1*
X52250D2*
X54800D1*
Y68450D1*
X52250D1*
Y75000D1*
X47750Y73500D2*
X47200D1*
X51700D2*
X52250D1*
X47750Y71900D2*
X51700D1*
Y70100D1*
X47750D1*
Y71900D1*
Y71000D2*
X47200D1*
X51700D2*
X52250D1*
X42588Y79616D2*
D22*
X31412D1*
X16511Y72566D2*
D12*
X17119D1*
X16365Y72490D2*
X17224D1*
X28823D2*
X29127D1*
X16248Y72414D2*
X17302D1*
X28823D2*
X29127D1*
X16160Y72338D2*
X17328D1*
X28823D2*
X29127D1*
X16095Y72262D2*
X16529D1*
X17195D2*
X17347D1*
X28823D2*
X29127D1*
X16047Y72186D2*
X16421D1*
X20159D2*
X20463D1*
X28823D2*
X29127D1*
X16014Y72110D2*
X16338D1*
X20159D2*
X20463D1*
X28823D2*
X29127D1*
X15995Y72034D2*
X16310D1*
X20159D2*
X20463D1*
X28823D2*
X29127D1*
X15986Y71958D2*
X16297D1*
X20159D2*
X20463D1*
X28823D2*
X29127D1*
X15984Y71882D2*
X16296D1*
X20159D2*
X20463D1*
X28823D2*
X29127D1*
X15993Y71806D2*
X16330D1*
X18487D2*
X19019D1*
X19931D2*
X20995D1*
X21527D2*
X21755D1*
X22743D2*
X23047D1*
X23807D2*
X24111D1*
X24567D2*
X24795D1*
X25327D2*
X25631D1*
X26163D2*
X26543D1*
X28823D2*
X29127D1*
X16013Y71730D2*
X16383D1*
X18320D2*
X19127D1*
X19931D2*
X20995D1*
X21527D2*
X21755D1*
X22743D2*
X23047D1*
X23807D2*
X24114D1*
X24453D2*
X24790D1*
X25327D2*
X25634D1*
X26023D2*
X26616D1*
X28823D2*
X29127D1*
X16045Y71654D2*
X16457D1*
X18191D2*
X19212D1*
X19931D2*
X20995D1*
X21527D2*
X21755D1*
X22743D2*
X23047D1*
X23807D2*
X24126D1*
X24343D2*
X24756D1*
X25327D2*
X25646D1*
X25890D2*
X26682D1*
X28823D2*
X29127D1*
X16089Y71578D2*
X16548D1*
X18143D2*
X19278D1*
X19931D2*
X20995D1*
X21527D2*
X21755D1*
X22743D2*
X23047D1*
X23807D2*
X24152D1*
X24229D2*
X24647D1*
X25327D2*
X25672D1*
X25761D2*
X26737D1*
X28823D2*
X29127D1*
X16147Y71502D2*
X16654D1*
X18107D2*
X18335D1*
X18940D2*
X19301D1*
X20159D2*
X20463D1*
X21527D2*
X21755D1*
X22743D2*
X23047D1*
X23807D2*
X24517D1*
X25327D2*
X26026D1*
X26452D2*
X26781D1*
X28823D2*
X29127D1*
X16214Y71426D2*
X16770D1*
X19003D2*
X19314D1*
X20159D2*
X20463D1*
X21527D2*
X21755D1*
X22743D2*
X23047D1*
X23807D2*
X24394D1*
X25327D2*
X25906D1*
X26496D2*
X26812D1*
X28823D2*
X29127D1*
X16289Y71350D2*
X16891D1*
X19048D2*
X19319D1*
X20159D2*
X20463D1*
X21527D2*
X21755D1*
X22743D2*
X23047D1*
X23807D2*
X24291D1*
X25327D2*
X25807D1*
X26522D2*
X26831D1*
X28823D2*
X29127D1*
X16375Y71274D2*
X17003D1*
X19074D2*
X19321D1*
X20159D2*
X20463D1*
X21527D2*
X21755D1*
X22743D2*
X23047D1*
X23807D2*
X24213D1*
X25327D2*
X25731D1*
X26534D2*
X26840D1*
X28823D2*
X29127D1*
X16479Y71198D2*
X17100D1*
X19086D2*
X19322D1*
X20159D2*
X20463D1*
X21527D2*
X21755D1*
X22743D2*
X23047D1*
X23807D2*
X24153D1*
X25327D2*
X25672D1*
X26539D2*
X26844D1*
X28823D2*
X29127D1*
X16595Y71122D2*
X17187D1*
X19092D2*
X19323D1*
X20159D2*
X20463D1*
X21527D2*
X21755D1*
X22743D2*
X23047D1*
X23807D2*
X24131D1*
X25327D2*
X25651D1*
X26542D2*
X26846D1*
X28823D2*
X29127D1*
X16713Y71046D2*
X17265D1*
X19095D2*
X19323D1*
X20159D2*
X20463D1*
X21527D2*
X21755D1*
X22743D2*
X23047D1*
X23807D2*
X24120D1*
X25327D2*
X25639D1*
X26542D2*
X26846D1*
X28823D2*
X29127D1*
X16828Y70970D2*
X17333D1*
X18745D2*
X19323D1*
X20159D2*
X20463D1*
X21527D2*
X21755D1*
X22743D2*
X23047D1*
X23807D2*
X24114D1*
X25327D2*
X25634D1*
X26543D2*
X26847D1*
X28823D2*
X29127D1*
X16933Y70894D2*
X17388D1*
X18474D2*
X19323D1*
X20159D2*
X20463D1*
X21527D2*
X21755D1*
X22743D2*
X23047D1*
X23807D2*
X24112D1*
X25327D2*
X25632D1*
X26543D2*
X26847D1*
X28823D2*
X29127D1*
X17024Y70818D2*
X17432D1*
X18283D2*
X19323D1*
X20159D2*
X20463D1*
X21527D2*
X21755D1*
X22743D2*
X23047D1*
X23807D2*
X24111D1*
X25327D2*
X25631D1*
X26543D2*
X26847D1*
X28823D2*
X29127D1*
X17096Y70742D2*
X17464D1*
X18152D2*
X18596D1*
X19095D2*
X19323D1*
X20159D2*
X20463D1*
X21527D2*
X21755D1*
X22740D2*
X23047D1*
X23807D2*
X24111D1*
X25327D2*
X25631D1*
X26543D2*
X26847D1*
X28823D2*
X29127D1*
X17154Y70666D2*
X17483D1*
X18063D2*
X18440D1*
X19095D2*
X19323D1*
X20159D2*
X20463D1*
X21527D2*
X21755D1*
X22727D2*
X23047D1*
X23807D2*
X24111D1*
X25327D2*
X25631D1*
X26543D2*
X26847D1*
X28823D2*
X29127D1*
X17174Y70590D2*
X17492D1*
X17998D2*
X18332D1*
X19095D2*
X19323D1*
X20159D2*
X20463D1*
X21527D2*
X21758D1*
X22699D2*
X23047D1*
X23807D2*
X24111D1*
X25327D2*
X25631D1*
X26543D2*
X26847D1*
X28823D2*
X29127D1*
X17183Y70514D2*
X17493D1*
X17976D2*
X18253D1*
X19091D2*
X19323D1*
X20159D2*
X20466D1*
X21527D2*
X21768D1*
X22655D2*
X23047D1*
X23807D2*
X24111D1*
X25327D2*
X25631D1*
X26543D2*
X26847D1*
X28823D2*
X29127D1*
X17182Y70438D2*
X17485D1*
X17964D2*
X18183D1*
X19083D2*
X19326D1*
X20162D2*
X20480D1*
X21527D2*
X21790D1*
X22599D2*
X23047D1*
X23807D2*
X24111D1*
X25327D2*
X25631D1*
X26543D2*
X26847D1*
X28823D2*
X29127D1*
X17153Y70362D2*
X17464D1*
X17961D2*
X18252D1*
X19038D2*
X19335D1*
X20172D2*
X20506D1*
X21530D2*
X21823D1*
X22515D2*
X23047D1*
X23807D2*
X24111D1*
X25327D2*
X25631D1*
X26543D2*
X26847D1*
X28823D2*
X29127D1*
X17085Y70286D2*
X17432D1*
X17969D2*
X18344D1*
X18868D2*
X19354D1*
X20193D2*
X20592D1*
X21540D2*
X21911D1*
X22376D2*
X23047D1*
X23807D2*
X24111D1*
X25327D2*
X25631D1*
X26543D2*
X26847D1*
X28823D2*
X29127D1*
X15979Y70210D2*
X16131D1*
X16904D2*
X17388D1*
X17992D2*
X18584D1*
X18596D2*
X19373D1*
X20225D2*
X20699D1*
X21561D2*
X22118D1*
X22164D2*
X22591D1*
X22743D2*
X23047D1*
X23807D2*
X24111D1*
X25327D2*
X25631D1*
X26543D2*
X26847D1*
X28823D2*
X29127D1*
X15983Y70134D2*
X16573D1*
X16624D2*
X17330D1*
X18034D2*
X19388D1*
X20272D2*
X20798D1*
X21596D2*
X22512D1*
X22743D2*
X23047D1*
X23807D2*
X24111D1*
X25327D2*
X25631D1*
X26543D2*
X26847D1*
X28823D2*
X29127D1*
X15993Y70058D2*
X17258D1*
X18097D2*
X18943D1*
X19190D2*
X19627D1*
X20341D2*
X20873D1*
X21652D2*
X22424D1*
X22743D2*
X23047D1*
X23807D2*
X24111D1*
X25327D2*
X25631D1*
X26543D2*
X26847D1*
X28823D2*
X29127D1*
X16049Y69982D2*
X17162D1*
X18175D2*
X18791D1*
X19250D2*
X19627D1*
X20434D2*
X20899D1*
X21734D2*
X22322D1*
X22743D2*
X23047D1*
X23807D2*
X24111D1*
X25327D2*
X25631D1*
X26543D2*
X26847D1*
X28823D2*
X29127D1*
X16191Y69906D2*
X17036D1*
X18259D2*
X18639D1*
X19323D2*
X19627D1*
X20539D2*
X20919D1*
X21831D2*
X22211D1*
X22743D2*
X23047D1*
X23807D2*
X24111D1*
X25327D2*
X25631D1*
X26543D2*
X26847D1*
X28823D2*
X29127D1*
X16359Y69830D2*
X16891D1*
X17116Y69095D2*
X17192D1*
X18484D2*
X18560D1*
X17116Y69069D2*
X17192D1*
X18484D2*
X18560D1*
X20967D2*
X21068D1*
X21955D2*
X22107D1*
X16381Y69044D2*
X16457D1*
X17116D2*
X17192D1*
X18484D2*
X18560D1*
X20928D2*
X21117D1*
X21897D2*
X22171D1*
X23323D2*
X23399D1*
X24083D2*
X24564D1*
X16369Y69019D2*
X16467D1*
X17116D2*
X17192D1*
X18484D2*
X18560D1*
X20891D2*
X20916D1*
X21144D2*
X21157D1*
X21850D2*
X21906D1*
X22157D2*
X22233D1*
X23171D2*
X23399D1*
X24083D2*
X24564D1*
X16358Y68993D2*
X16478D1*
X17116D2*
X17192D1*
X18484D2*
X18560D1*
X20840D2*
X20888D1*
X21168D2*
X21189D1*
X21813D2*
X21863D1*
X23171D2*
X23399D1*
X24083D2*
X24564D1*
X16347Y68968D2*
X16489D1*
X17116D2*
X17192D1*
X18484D2*
X18560D1*
X20823D2*
X20864D1*
X21190D2*
X21217D1*
X21785D2*
X21829D1*
X23348D2*
X23399D1*
X24083D2*
X24133D1*
X16336Y68943D2*
X16499D1*
X17116D2*
X17192D1*
X18484D2*
X18560D1*
X20807D2*
X20843D1*
X21209D2*
X21240D1*
X21764D2*
X21802D1*
X23348D2*
X23399D1*
X24083D2*
X24133D1*
X16325Y68917D2*
X16507D1*
X17116D2*
X17192D1*
X18484D2*
X18560D1*
X20789D2*
X20825D1*
X21224D2*
X21259D1*
X21745D2*
X21781D1*
X23348D2*
X23399D1*
X24083D2*
X24133D1*
X16315Y68892D2*
X16517D1*
X17116D2*
X17192D1*
X18484D2*
X18560D1*
X20774D2*
X20811D1*
X21238D2*
X21275D1*
X21727D2*
X21766D1*
X23348D2*
X23399D1*
X24083D2*
X24133D1*
X16306Y68867D2*
X16360D1*
X16461D2*
X16528D1*
X17116D2*
X17192D1*
X18484D2*
X18560D1*
X20760D2*
X20801D1*
X21250D2*
X21289D1*
X21711D2*
X21755D1*
X23348D2*
X23399D1*
X24083D2*
X24133D1*
X16296Y68841D2*
X16342D1*
X16468D2*
X16539D1*
X17116D2*
X17192D1*
X18484D2*
X18560D1*
X20749D2*
X20794D1*
X21260D2*
X21301D1*
X21697D2*
X21744D1*
X23348D2*
X23399D1*
X24083D2*
X24133D1*
X16285Y68816D2*
X16327D1*
X16475D2*
X16549D1*
X17116D2*
X17192D1*
X18484D2*
X18560D1*
X20740D2*
X20791D1*
X21266D2*
X21312D1*
X21686D2*
X21736D1*
X23348D2*
X23399D1*
X24083D2*
X24133D1*
X16274Y68791D2*
X16316D1*
X16483D2*
X16558D1*
X17116D2*
X17192D1*
X18484D2*
X18560D1*
X20731D2*
X20786D1*
X21269D2*
X21321D1*
X21677D2*
X21731D1*
X23348D2*
X23399D1*
X24083D2*
X24133D1*
X16264Y68765D2*
X16306D1*
X16492D2*
X16567D1*
X17116D2*
X17192D1*
X18484D2*
X18560D1*
X20723D2*
X20779D1*
X21271D2*
X21330D1*
X21668D2*
X21728D1*
X23348D2*
X23399D1*
X24083D2*
X24133D1*
X16255Y68740D2*
X16297D1*
X16503D2*
X16576D1*
X17116D2*
X17192D1*
X17547D2*
X17623D1*
X17876D2*
X17977D1*
X18484D2*
X18560D1*
X18813D2*
X18915D1*
X19573D2*
X19725D1*
X20718D2*
X20773D1*
X21275D2*
X21337D1*
X21660D2*
X21723D1*
X23348D2*
X23399D1*
X24083D2*
X24133D1*
X16245Y68715D2*
X16288D1*
X16514D2*
X16584D1*
X17116D2*
X17192D1*
X17547D2*
X17623D1*
X17827D2*
X18014D1*
X18484D2*
X18560D1*
X18772D2*
X18952D1*
X19496D2*
X19773D1*
X20714D2*
X20768D1*
X21281D2*
X21342D1*
X21655D2*
X21717D1*
X23348D2*
X23399D1*
X24083D2*
X24133D1*
X16234Y68689D2*
X16280D1*
X16524D2*
X16593D1*
X17116D2*
X17192D1*
X17547D2*
X17625D1*
X17786D2*
X18047D1*
X18484D2*
X18560D1*
X18733D2*
X18983D1*
X19421D2*
X19497D1*
X19751D2*
X19810D1*
X20710D2*
X20766D1*
X21287D2*
X21345D1*
X21652D2*
X21710D1*
X23348D2*
X23399D1*
X24083D2*
X24133D1*
X16223Y68664D2*
X16271D1*
X16533D2*
X16604D1*
X17116D2*
X17192D1*
X17547D2*
X17629D1*
X17749D2*
X17775D1*
X18003D2*
X18075D1*
X18484D2*
X18562D1*
X18696D2*
X18737D1*
X18939D2*
X19009D1*
X19775D2*
X19835D1*
X20703D2*
X20765D1*
X21292D2*
X21347D1*
X21650D2*
X21706D1*
X21955D2*
X22056D1*
X23348D2*
X23399D1*
X24083D2*
X24133D1*
X16213Y68639D2*
X16260D1*
X16543D2*
X16615D1*
X17116D2*
X17192D1*
X17547D2*
X17649D1*
X17724D2*
D3*
X18027D2*
X18099D1*
X18484D2*
X18567D1*
X18661D2*
X18687D1*
X18960D2*
X19029D1*
X19796D2*
X19853D1*
X20697D2*
X20764D1*
X21294D2*
X21351D1*
X21647D2*
X21703D1*
X21904D2*
X22105D1*
X23348D2*
X23399D1*
X24083D2*
X24238D1*
X16205Y68613D2*
X16249D1*
X16554D2*
X16625D1*
X17116D2*
X17192D1*
X17547D2*
X17673D1*
X18049D2*
X18118D1*
X18484D2*
X18586D1*
X18975D2*
X19044D1*
X19811D2*
X19865D1*
X20692D2*
X20764D1*
X21295D2*
X21357D1*
X21640D2*
X21704D1*
X21853D2*
D3*
X22008D2*
X22145D1*
X23348D2*
X23399D1*
X24083D2*
X24322D1*
X16195Y68588D2*
X16239D1*
X16565D2*
X16634D1*
X17116D2*
X17192D1*
X17547D2*
X17653D1*
X18067D2*
X18133D1*
X18484D2*
X18611D1*
X18984D2*
X19055D1*
X19820D2*
X19872D1*
X20690D2*
X20764D1*
X21296D2*
X21363D1*
X21634D2*
X21708D1*
X22084D2*
X22176D1*
X23348D2*
X23399D1*
X24211D2*
X24385D1*
X16184Y68563D2*
X16230D1*
X16575D2*
X16644D1*
X17116D2*
X17192D1*
X17547D2*
X17638D1*
X18082D2*
X18147D1*
X18484D2*
X18595D1*
X18988D2*
X19061D1*
X19824D2*
X19875D1*
X20689D2*
X20764D1*
X21296D2*
X21368D1*
X21629D2*
X21720D1*
X22133D2*
X22202D1*
X23348D2*
X23399D1*
X24309D2*
X24430D1*
X16173Y68537D2*
X16220D1*
X16583D2*
X16655D1*
X17116D2*
X17192D1*
X17547D2*
X17630D1*
X18093D2*
X18160D1*
X18484D2*
X18582D1*
X18990D2*
X19064D1*
X19826D2*
X19876D1*
X20688D2*
X20764D1*
X21296D2*
X21369D1*
X21627D2*
X21733D1*
X22167D2*
X22221D1*
X23348D2*
X23399D1*
X24375D2*
X24464D1*
X16163Y68512D2*
X16209D1*
X16593D2*
X16666D1*
X17116D2*
X17192D1*
X17547D2*
X17626D1*
X18099D2*
X18169D1*
X18484D2*
X18571D1*
X18990D2*
X19066D1*
X19826D2*
X19877D1*
X20688D2*
X20764D1*
X21296D2*
X21367D1*
X21626D2*
X21734D1*
X22184D2*
X22237D1*
X23348D2*
X23399D1*
X24418D2*
X24489D1*
X16154Y68487D2*
X16198D1*
X16604D2*
X16676D1*
X17116D2*
X17192D1*
X17547D2*
X17624D1*
X18102D2*
X18175D1*
X18484D2*
X18565D1*
X18991D2*
X19066D1*
X19827D2*
X19877D1*
X20689D2*
X20764D1*
X21296D2*
X21361D1*
X21627D2*
X21732D1*
X22196D2*
X22251D1*
X23348D2*
X23399D1*
X24445D2*
X24511D1*
X16144Y68461D2*
X16189D1*
X16615D2*
X16685D1*
X17116D2*
X17192D1*
X17547D2*
X17623D1*
X18103D2*
X18178D1*
X18484D2*
X18562D1*
X18991D2*
X19067D1*
X19827D2*
X19877D1*
X20692D2*
X20764D1*
X21296D2*
X21355D1*
X21630D2*
X21729D1*
X22203D2*
X22264D1*
X23348D2*
X23399D1*
X24464D2*
X24528D1*
X16133Y68436D2*
X16184D1*
X16624D2*
X16695D1*
X17116D2*
X17192D1*
X17547D2*
X17623D1*
X18104D2*
X18179D1*
X18484D2*
X18561D1*
X18991D2*
X19067D1*
X19827D2*
X19877D1*
X20698D2*
X20764D1*
X21295D2*
X21351D1*
X21636D2*
X21728D1*
X22210D2*
X22273D1*
X23348D2*
X23399D1*
X24476D2*
X24542D1*
X16122Y68411D2*
X16181D1*
X16630D2*
X16706D1*
X17116D2*
X17192D1*
X17547D2*
X17623D1*
X18104D2*
X18180D1*
X18484D2*
X18560D1*
X18991D2*
X19067D1*
X19624D2*
X19877D1*
X20705D2*
X20764D1*
X21292D2*
X21348D1*
X21642D2*
X21727D1*
X22217D2*
X22279D1*
X23348D2*
X23399D1*
X24482D2*
X24553D1*
X16112Y68385D2*
X16179D1*
X16633D2*
X16717D1*
X17116D2*
X17192D1*
X17547D2*
X17623D1*
X18104D2*
X18180D1*
X18484D2*
X18560D1*
X18991D2*
X19067D1*
X19523D2*
X19573D1*
X19827D2*
X19877D1*
X20709D2*
X20765D1*
X21286D2*
X21346D1*
X21647D2*
X21727D1*
X22224D2*
X22282D1*
X23348D2*
X23399D1*
X24486D2*
X24559D1*
X16103Y68360D2*
X16727D1*
X17116D2*
X17192D1*
X17547D2*
X17623D1*
X18104D2*
X18179D1*
X18484D2*
X18560D1*
X18991D2*
X19067D1*
X19472D2*
X19525D1*
X19827D2*
X19877D1*
X20713D2*
X20768D1*
X21279D2*
X21343D1*
X21650D2*
X21727D1*
X22229D2*
X22283D1*
X23348D2*
X23399D1*
X24487D2*
X24562D1*
X16093Y68335D2*
X16735D1*
X17116D2*
X17192D1*
X17547D2*
X17623D1*
X18104D2*
X18176D1*
X18484D2*
X18560D1*
X18991D2*
X19067D1*
X19442D2*
X19486D1*
X19827D2*
X19877D1*
X20717D2*
X20774D1*
X21275D2*
X21336D1*
X21654D2*
X21727D1*
X22231D2*
X22283D1*
X23348D2*
X23399D1*
X24488D2*
X24563D1*
X16082Y68309D2*
X16744D1*
X17116D2*
X17192D1*
X17547D2*
X17623D1*
X18104D2*
X18170D1*
X18484D2*
X18560D1*
X18991D2*
X19067D1*
X19416D2*
X19457D1*
X19827D2*
X19877D1*
X20723D2*
X20781D1*
X21272D2*
X21329D1*
X21661D2*
X21727D1*
X22228D2*
X22280D1*
X23348D2*
X23399D1*
X24488D2*
X24564D1*
X16071Y68284D2*
X16132D1*
X16689D2*
X16753D1*
X17116D2*
X17192D1*
X17547D2*
X17623D1*
X18103D2*
X18162D1*
X18484D2*
X18560D1*
X18991D2*
X19067D1*
X19397D2*
X19436D1*
X19827D2*
X19877D1*
X20731D2*
X20785D1*
X21270D2*
X21321D1*
X21668D2*
X21727D1*
X22223D2*
X22274D1*
X23348D2*
X23399D1*
X24488D2*
X24564D1*
X16061Y68259D2*
X16114D1*
X16697D2*
X16761D1*
X17116D2*
X17192D1*
X17547D2*
X17623D1*
X18100D2*
X18154D1*
X18484D2*
X18560D1*
X18991D2*
X19067D1*
X19384D2*
X19428D1*
X19827D2*
X19877D1*
X20739D2*
X20789D1*
X21267D2*
X21312D1*
X21676D2*
X21728D1*
X22216D2*
X22266D1*
X23348D2*
X23399D1*
X24488D2*
X24563D1*
X16053Y68233D2*
X16099D1*
X16706D2*
X16771D1*
X17116D2*
X17192D1*
X17547D2*
X17623D1*
X18093D2*
X18145D1*
X18484D2*
X18560D1*
X18991D2*
X19067D1*
X19377D2*
X19424D1*
X19826D2*
X19877D1*
X20748D2*
X20793D1*
X21259D2*
X21301D1*
X21685D2*
X21731D1*
X22211D2*
X22258D1*
X23348D2*
X23399D1*
X24487D2*
X24560D1*
X16044Y68208D2*
X16088D1*
X16717D2*
X16782D1*
X17116D2*
X17192D1*
X17547D2*
X17624D1*
X18083D2*
X18133D1*
X18484D2*
X18560D1*
X18991D2*
X19067D1*
X19373D2*
X19424D1*
X19821D2*
X19877D1*
X20760D2*
X20800D1*
X21250D2*
X21289D1*
X21696D2*
X21738D1*
X22205D2*
X22249D1*
X23348D2*
X23399D1*
X24484D2*
X24553D1*
X16035Y68183D2*
X16078D1*
X16727D2*
X16793D1*
X17116D2*
X17192D1*
X17547D2*
X17627D1*
X18071D2*
X18119D1*
X18484D2*
X18560D1*
X18991D2*
X19067D1*
X19373D2*
X19425D1*
X19811D2*
X19878D1*
X20774D2*
X20811D1*
X21238D2*
X21276D1*
X21708D2*
X21749D1*
X22197D2*
X22237D1*
X23348D2*
X23399D1*
X24477D2*
X24542D1*
X16027Y68157D2*
X16068D1*
X16735D2*
X16803D1*
X17116D2*
X17192D1*
X17547D2*
X17639D1*
X18057D2*
X18102D1*
X18484D2*
X18560D1*
X18991D2*
X19067D1*
X19376D2*
X19438D1*
X19795D2*
X19883D1*
X20790D2*
X20825D1*
X21225D2*
X21260D1*
X21722D2*
X21764D1*
X22186D2*
X22222D1*
X23348D2*
X23399D1*
X24466D2*
X24527D1*
X16017Y68132D2*
X16057D1*
X16745D2*
X16811D1*
X17116D2*
X17192D1*
X17547D2*
X17667D1*
X18038D2*
X18082D1*
X18484D2*
X18560D1*
X18991D2*
X19067D1*
X19384D2*
X19466D1*
X19776D2*
X19891D1*
X20808D2*
X20840D1*
X21209D2*
X21240D1*
X21737D2*
X21784D1*
X22170D2*
X22203D1*
X22613D2*
X22715D1*
X23348D2*
X23399D1*
X24450D2*
X24508D1*
X16006Y68107D2*
X16046D1*
X16756D2*
X16821D1*
X17116D2*
X17192D1*
X17547D2*
X17699D1*
X17979D2*
X18058D1*
X18484D2*
X18560D1*
X18991D2*
X19067D1*
X19404D2*
X19497D1*
X19700D2*
X19725D1*
X19816D2*
X19912D1*
X20828D2*
X20854D1*
X21190D2*
X21218D1*
X21758D2*
X21810D1*
X22147D2*
X22179D1*
X22613D2*
X22715D1*
X23348D2*
X23399D1*
X24427D2*
X24485D1*
X15995Y68081D2*
X16037D1*
X16767D2*
X16833D1*
X17116D2*
X17192D1*
X17547D2*
X17664D1*
X17724D2*
X17749D1*
X17888D2*
X18027D1*
X18484D2*
X18560D1*
X18991D2*
X19067D1*
X19429D2*
X19686D1*
X19848D2*
X19936D1*
X20856D2*
X20865D1*
X21167D2*
X21192D1*
X21785D2*
X21842D1*
X22116D2*
X22151D1*
X22613D2*
X22715D1*
X23348D2*
X23399D1*
X24396D2*
X24455D1*
X15985Y68056D2*
X16031D1*
X16778D2*
X16847D1*
X17116D2*
X17192D1*
X17547D2*
X17638D1*
X17775D2*
X17991D1*
X18484D2*
X18560D1*
X18991D2*
X19067D1*
X19461D2*
X19644D1*
X19876D2*
X19959D1*
X20889D2*
X20916D1*
X21144D2*
X21159D1*
X21819D2*
X21879D1*
X22081D2*
X22116D1*
X22613D2*
X22715D1*
X23348D2*
X23399D1*
X24083D2*
X24108D1*
X24361D2*
X24417D1*
X15976Y68031D2*
X16027D1*
X16787D2*
X16863D1*
X17116D2*
X17192D1*
X17547D2*
X17630D1*
X17825D2*
X17952D1*
X18484D2*
X18560D1*
X18991D2*
X19067D1*
X19497D2*
X19599D1*
X19903D2*
X19979D1*
X20927D2*
X21117D1*
X21860D2*
X22075D1*
X22613D2*
X22715D1*
X23348D2*
X23399D1*
X24106D2*
X24367D1*
X17547Y68005D2*
X17626D1*
X20967D2*
X21068D1*
X21904D2*
X22031D1*
X24133D2*
X24311D1*
X17547Y67980D2*
X17624D1*
X17547Y67955D2*
X17623D1*
X17547Y67929D2*
X17623D1*
X17547Y67904D2*
X17623D1*
X17547Y67879D2*
X17623D1*
X17547Y67853D2*
X17623D1*
X17547Y67828D2*
X17623D1*
X17547Y67803D2*
X17623D1*
X17547Y67777D2*
X17623D1*
X17547Y67752D2*
X17623D1*
X16511Y72566D2*
X16365Y72490D1*
X16248Y72414D1*
X16160Y72338D1*
X16095Y72262D1*
X16047Y72186D1*
X16014Y72110D1*
X15995Y72034D1*
X15986Y71958D1*
X15984Y71882D1*
X15993Y71806D1*
X16013Y71730D1*
X16045Y71654D1*
X16089Y71578D1*
X16147Y71502D1*
X16214Y71426D1*
X16289Y71350D1*
X16375Y71274D1*
X16479Y71198D1*
X16595Y71122D1*
X16713Y71046D1*
X16828Y70970D1*
X16933Y70894D1*
X17024Y70818D1*
X17096Y70742D1*
X17154Y70666D1*
X17174Y70590D1*
X17183Y70514D1*
X17182Y70438D1*
X17153Y70362D1*
X17085Y70286D1*
X16904Y70210D1*
X16624Y70134D1*
X16283Y70058D1*
X17119Y72566D2*
X17224Y72490D1*
X17302Y72414D1*
X17328Y72338D1*
X17347Y72262D1*
X28823Y72490D2*
Y72414D1*
Y72338D1*
Y72262D1*
Y72186D1*
Y72110D1*
Y72034D1*
Y71958D1*
Y71882D1*
Y71806D1*
Y71730D1*
Y71654D1*
Y71578D1*
Y71502D1*
Y71426D1*
Y71350D1*
Y71274D1*
Y71198D1*
Y71122D1*
Y71046D1*
Y70970D1*
Y70894D1*
Y70818D1*
Y70742D1*
Y70666D1*
Y70590D1*
Y70514D1*
Y70438D1*
Y70362D1*
Y70286D1*
Y70210D1*
Y70134D1*
Y70058D1*
Y69982D1*
Y69906D1*
X29127Y72490D2*
Y72414D1*
Y72338D1*
Y72262D1*
Y72186D1*
Y72110D1*
Y72034D1*
Y71958D1*
Y71882D1*
Y71806D1*
Y71730D1*
Y71654D1*
Y71578D1*
Y71502D1*
Y71426D1*
Y71350D1*
Y71274D1*
Y71198D1*
Y71122D1*
Y71046D1*
Y70970D1*
Y70894D1*
Y70818D1*
Y70742D1*
Y70666D1*
Y70590D1*
Y70514D1*
Y70438D1*
Y70362D1*
Y70286D1*
Y70210D1*
Y70134D1*
Y70058D1*
Y69982D1*
Y69906D1*
X16663Y72338D2*
X16529Y72262D1*
X16421Y72186D1*
X16338Y72110D1*
X16310Y72034D1*
X16297Y71958D1*
X16296Y71882D1*
X16330Y71806D1*
X16383Y71730D1*
X16457Y71654D1*
X16548Y71578D1*
X16654Y71502D1*
X16770Y71426D1*
X16891Y71350D1*
X17003Y71274D1*
X17100Y71198D1*
X17187Y71122D1*
X17265Y71046D1*
X17333Y70970D1*
X17388Y70894D1*
X17432Y70818D1*
X17464Y70742D1*
X17483Y70666D1*
X17492Y70590D1*
X17493Y70514D1*
X17485Y70438D1*
X17464Y70362D1*
X17432Y70286D1*
X17388Y70210D1*
X17330Y70134D1*
X17258Y70058D1*
X17162Y69982D1*
X17036Y69906D1*
X16891Y69830D1*
X17119Y72338D2*
X17195Y72262D1*
X20159Y72186D2*
Y72110D1*
Y72034D1*
Y71958D1*
Y71882D1*
Y71806D1*
X19931D1*
Y71730D1*
Y71654D1*
Y71578D1*
Y71502D1*
X20159D1*
Y71426D1*
Y71350D1*
Y71274D1*
Y71198D1*
Y71122D1*
Y71046D1*
Y70970D1*
Y70894D1*
Y70818D1*
Y70742D1*
Y70666D1*
Y70590D1*
Y70514D1*
X20162Y70438D1*
X20172Y70362D1*
X20193Y70286D1*
X20225Y70210D1*
X20272Y70134D1*
X20341Y70058D1*
X20434Y69982D1*
X20539Y69906D1*
X20463Y72186D2*
Y72110D1*
Y72034D1*
Y71958D1*
Y71882D1*
Y71806D1*
X20995D1*
Y71730D1*
Y71654D1*
Y71578D1*
Y71502D1*
X20463D1*
Y71426D1*
Y71350D1*
Y71274D1*
Y71198D1*
Y71122D1*
Y71046D1*
Y70970D1*
Y70894D1*
Y70818D1*
Y70742D1*
Y70666D1*
Y70590D1*
X20466Y70514D1*
X20480Y70438D1*
X20506Y70362D1*
X20592Y70286D1*
X20699Y70210D1*
X20798Y70134D1*
X20873Y70058D1*
X20899Y69982D1*
X20919Y69906D1*
X18487Y71806D2*
X18320Y71730D1*
X18191Y71654D1*
X18143Y71578D1*
X18107Y71502D1*
X19019Y71806D2*
X19127Y71730D1*
X19212Y71654D1*
X19278Y71578D1*
X19301Y71502D1*
X19314Y71426D1*
X19319Y71350D1*
X19321Y71274D1*
X19322Y71198D1*
X19323Y71122D1*
Y71046D1*
Y70970D1*
Y70894D1*
Y70818D1*
Y70742D1*
Y70666D1*
Y70590D1*
Y70514D1*
X19326Y70438D1*
X19335Y70362D1*
X19354Y70286D1*
X19373Y70210D1*
X19388Y70134D1*
X19399Y70058D1*
X19627D1*
Y69982D1*
Y69906D1*
X21527Y71806D2*
Y71730D1*
Y71654D1*
Y71578D1*
Y71502D1*
Y71426D1*
Y71350D1*
Y71274D1*
Y71198D1*
Y71122D1*
Y71046D1*
Y70970D1*
Y70894D1*
Y70818D1*
Y70742D1*
Y70666D1*
Y70590D1*
Y70514D1*
Y70438D1*
X21530Y70362D1*
X21540Y70286D1*
X21561Y70210D1*
X21596Y70134D1*
X21652Y70058D1*
X21734Y69982D1*
X21831Y69906D1*
X21755Y71806D2*
Y71730D1*
Y71654D1*
Y71578D1*
Y71502D1*
Y71426D1*
Y71350D1*
Y71274D1*
Y71198D1*
Y71122D1*
Y71046D1*
Y70970D1*
Y70894D1*
Y70818D1*
Y70742D1*
Y70666D1*
X21758Y70590D1*
X21768Y70514D1*
X21790Y70438D1*
X21823Y70362D1*
X21911Y70286D1*
X22118Y70210D1*
X22363Y70134D1*
X22743Y71806D2*
Y71730D1*
Y71654D1*
Y71578D1*
Y71502D1*
Y71426D1*
Y71350D1*
Y71274D1*
Y71198D1*
Y71122D1*
Y71046D1*
Y70970D1*
Y70894D1*
Y70818D1*
X22740Y70742D1*
X22727Y70666D1*
X22699Y70590D1*
X22655Y70514D1*
X22599Y70438D1*
X22515Y70362D1*
X22376Y70286D1*
X22164Y70210D1*
X21907Y70134D1*
X23047Y71806D2*
Y71730D1*
Y71654D1*
Y71578D1*
Y71502D1*
Y71426D1*
Y71350D1*
Y71274D1*
Y71198D1*
Y71122D1*
Y71046D1*
Y70970D1*
Y70894D1*
Y70818D1*
Y70742D1*
Y70666D1*
Y70590D1*
Y70514D1*
Y70438D1*
Y70362D1*
Y70286D1*
Y70210D1*
Y70134D1*
Y70058D1*
Y69982D1*
Y69906D1*
X23807Y71806D2*
Y71730D1*
Y71654D1*
Y71578D1*
Y71502D1*
Y71426D1*
Y71350D1*
Y71274D1*
Y71198D1*
Y71122D1*
Y71046D1*
Y70970D1*
Y70894D1*
Y70818D1*
Y70742D1*
Y70666D1*
Y70590D1*
Y70514D1*
Y70438D1*
Y70362D1*
Y70286D1*
Y70210D1*
Y70134D1*
Y70058D1*
Y69982D1*
Y69906D1*
X24111Y71806D2*
X24114Y71730D1*
X24126Y71654D1*
X24152Y71578D1*
X24187Y71502D1*
X24567Y71806D2*
X24453Y71730D1*
X24343Y71654D1*
X24229Y71578D1*
X24111Y71502D1*
X24795Y71806D2*
X24790Y71730D1*
X24756Y71654D1*
X24647Y71578D1*
X24517Y71502D1*
X24394Y71426D1*
X24291Y71350D1*
X24213Y71274D1*
X24153Y71198D1*
X24131Y71122D1*
X24120Y71046D1*
X24114Y70970D1*
X24112Y70894D1*
X24111Y70818D1*
Y70742D1*
Y70666D1*
Y70590D1*
Y70514D1*
Y70438D1*
Y70362D1*
Y70286D1*
Y70210D1*
Y70134D1*
Y70058D1*
Y69982D1*
Y69906D1*
X25327Y71806D2*
Y71730D1*
Y71654D1*
Y71578D1*
Y71502D1*
Y71426D1*
Y71350D1*
Y71274D1*
Y71198D1*
Y71122D1*
Y71046D1*
Y70970D1*
Y70894D1*
Y70818D1*
Y70742D1*
Y70666D1*
Y70590D1*
Y70514D1*
Y70438D1*
Y70362D1*
Y70286D1*
Y70210D1*
Y70134D1*
Y70058D1*
Y69982D1*
Y69906D1*
X25631Y71806D2*
X25634Y71730D1*
X25646Y71654D1*
X25672Y71578D1*
X25707Y71502D1*
X26163Y71806D2*
X26023Y71730D1*
X25890Y71654D1*
X25761Y71578D1*
X25631Y71502D1*
X26543Y71806D2*
X26616Y71730D1*
X26682Y71654D1*
X26737Y71578D1*
X26781Y71502D1*
X26812Y71426D1*
X26831Y71350D1*
X26840Y71274D1*
X26844Y71198D1*
X26846Y71122D1*
Y71046D1*
X26847Y70970D1*
Y70894D1*
Y70818D1*
Y70742D1*
Y70666D1*
Y70590D1*
Y70514D1*
Y70438D1*
Y70362D1*
Y70286D1*
Y70210D1*
Y70134D1*
Y70058D1*
Y69982D1*
Y69906D1*
X18411Y71578D2*
X18335Y71502D1*
X18867Y71578D2*
X18940Y71502D1*
X19003Y71426D1*
X19048Y71350D1*
X19074Y71274D1*
X19086Y71198D1*
X19092Y71122D1*
X19095Y71046D1*
X18745Y70970D1*
X18474Y70894D1*
X18283Y70818D1*
X18152Y70742D1*
X18063Y70666D1*
X17998Y70590D1*
X17976Y70514D1*
X17964Y70438D1*
X17961Y70362D1*
X17969Y70286D1*
X17992Y70210D1*
X18034Y70134D1*
X18097Y70058D1*
X18175Y69982D1*
X18259Y69906D1*
X26163Y71578D2*
X26026Y71502D1*
X25906Y71426D1*
X25807Y71350D1*
X25731Y71274D1*
X25672Y71198D1*
X25651Y71122D1*
X25639Y71046D1*
X25634Y70970D1*
X25632Y70894D1*
X25631Y70818D1*
Y70742D1*
Y70666D1*
Y70590D1*
Y70514D1*
Y70438D1*
Y70362D1*
Y70286D1*
Y70210D1*
Y70134D1*
Y70058D1*
Y69982D1*
Y69906D1*
X26391Y71578D2*
X26452Y71502D1*
X26496Y71426D1*
X26522Y71350D1*
X26534Y71274D1*
X26539Y71198D1*
X26542Y71122D1*
Y71046D1*
X26543Y70970D1*
Y70894D1*
Y70818D1*
Y70742D1*
Y70666D1*
Y70590D1*
Y70514D1*
Y70438D1*
Y70362D1*
Y70286D1*
Y70210D1*
Y70134D1*
Y70058D1*
Y69982D1*
Y69906D1*
X18791Y70818D2*
X18596Y70742D1*
X18440Y70666D1*
X18332Y70590D1*
X18253Y70514D1*
X18183Y70438D1*
X18252Y70362D1*
X18344Y70286D1*
X18584Y70210D1*
X18867Y70134D1*
X19095Y70818D2*
Y70742D1*
Y70666D1*
Y70590D1*
X19091Y70514D1*
X19083Y70438D1*
X19038Y70362D1*
X18868Y70286D1*
X18596Y70210D1*
X18259Y70134D1*
X15979Y70210D2*
X15983Y70134D1*
X15993Y70058D1*
X16049Y69982D1*
X16191Y69906D1*
X16359Y69830D1*
X16131Y70210D2*
X16573Y70134D1*
X17043Y70058D1*
X22667Y70286D2*
X22591Y70210D1*
X22512Y70134D1*
X22424Y70058D1*
X22322Y69982D1*
X22211Y69906D1*
X22743Y70286D2*
Y70210D1*
Y70134D1*
Y70058D1*
Y69982D1*
Y69906D1*
X19095Y70134D2*
X18943Y70058D1*
X18791Y69982D1*
X18639Y69906D1*
X19171Y70134D2*
X19190Y70058D1*
X19250Y69982D1*
X19323Y69906D1*
X17116Y69095D2*
Y69069D1*
Y69044D1*
Y69019D1*
Y68993D1*
Y68968D1*
Y68943D1*
Y68917D1*
Y68892D1*
Y68867D1*
Y68841D1*
Y68816D1*
Y68791D1*
Y68765D1*
Y68740D1*
Y68715D1*
Y68689D1*
Y68664D1*
Y68639D1*
Y68613D1*
Y68588D1*
Y68563D1*
Y68537D1*
Y68512D1*
Y68487D1*
Y68461D1*
Y68436D1*
Y68411D1*
Y68385D1*
Y68360D1*
Y68335D1*
Y68309D1*
Y68284D1*
Y68259D1*
Y68233D1*
Y68208D1*
Y68183D1*
Y68157D1*
Y68132D1*
Y68107D1*
Y68081D1*
Y68056D1*
Y68031D1*
X17192Y69095D2*
Y69069D1*
Y69044D1*
Y69019D1*
Y68993D1*
Y68968D1*
Y68943D1*
Y68917D1*
Y68892D1*
Y68867D1*
Y68841D1*
Y68816D1*
Y68791D1*
Y68765D1*
Y68740D1*
Y68715D1*
Y68689D1*
Y68664D1*
Y68639D1*
Y68613D1*
Y68588D1*
Y68563D1*
Y68537D1*
Y68512D1*
Y68487D1*
Y68461D1*
Y68436D1*
Y68411D1*
Y68385D1*
Y68360D1*
Y68335D1*
Y68309D1*
Y68284D1*
Y68259D1*
Y68233D1*
Y68208D1*
Y68183D1*
Y68157D1*
Y68132D1*
Y68107D1*
Y68081D1*
Y68056D1*
Y68031D1*
X18484Y69095D2*
Y69069D1*
Y69044D1*
Y69019D1*
Y68993D1*
Y68968D1*
Y68943D1*
Y68917D1*
Y68892D1*
Y68867D1*
Y68841D1*
Y68816D1*
Y68791D1*
Y68765D1*
Y68740D1*
Y68715D1*
Y68689D1*
Y68664D1*
Y68639D1*
Y68613D1*
Y68588D1*
Y68563D1*
Y68537D1*
Y68512D1*
Y68487D1*
Y68461D1*
Y68436D1*
Y68411D1*
Y68385D1*
Y68360D1*
Y68335D1*
Y68309D1*
Y68284D1*
Y68259D1*
Y68233D1*
Y68208D1*
Y68183D1*
Y68157D1*
Y68132D1*
Y68107D1*
Y68081D1*
Y68056D1*
Y68031D1*
X18560Y69095D2*
Y69069D1*
Y69044D1*
Y69019D1*
Y68993D1*
Y68968D1*
Y68943D1*
Y68917D1*
Y68892D1*
Y68867D1*
Y68841D1*
Y68816D1*
Y68791D1*
Y68765D1*
Y68740D1*
Y68715D1*
Y68689D1*
X18562Y68664D1*
X18567Y68639D1*
X18586Y68613D1*
X18611Y68588D1*
X18595Y68563D1*
X18582Y68537D1*
X18571Y68512D1*
X18565Y68487D1*
X18562Y68461D1*
X18561Y68436D1*
X18560Y68411D1*
Y68385D1*
Y68360D1*
Y68335D1*
Y68309D1*
Y68284D1*
Y68259D1*
Y68233D1*
Y68208D1*
Y68183D1*
Y68157D1*
Y68132D1*
Y68107D1*
Y68081D1*
Y68056D1*
Y68031D1*
X20967Y69069D2*
X20928Y69044D1*
X20891Y69019D1*
X21068Y69069D2*
X21117Y69044D1*
X21157Y69019D1*
X21189Y68993D1*
X21217Y68968D1*
X21240Y68943D1*
X21259Y68917D1*
X21275Y68892D1*
X21289Y68867D1*
X21301Y68841D1*
X21312Y68816D1*
X21321Y68791D1*
X21330Y68765D1*
X21337Y68740D1*
X21342Y68715D1*
X21345Y68689D1*
X21347Y68664D1*
X21351Y68639D1*
X21357Y68613D1*
X21363Y68588D1*
X21368Y68563D1*
X21369Y68537D1*
X21367Y68512D1*
X21361Y68487D1*
X21355Y68461D1*
X21351Y68436D1*
X21348Y68411D1*
X21346Y68385D1*
X21343Y68360D1*
X21336Y68335D1*
X21329Y68309D1*
X21321Y68284D1*
X21312Y68259D1*
X21301Y68233D1*
X21289Y68208D1*
X21276Y68183D1*
X21260Y68157D1*
X21240Y68132D1*
X21218Y68107D1*
X21192Y68081D1*
X21159Y68056D1*
X21117Y68031D1*
X21068Y68005D1*
X21955Y69069D2*
X21897Y69044D1*
X21850Y69019D1*
X21813Y68993D1*
X21785Y68968D1*
X21764Y68943D1*
X21745Y68917D1*
X21727Y68892D1*
X21711Y68867D1*
X21697Y68841D1*
X21686Y68816D1*
X21677Y68791D1*
X21668Y68765D1*
X21660Y68740D1*
X21655Y68715D1*
X21652Y68689D1*
X21650Y68664D1*
X21647Y68639D1*
X21640Y68613D1*
X21634Y68588D1*
X21629Y68563D1*
X21627Y68537D1*
X21626Y68512D1*
X21627Y68487D1*
X21630Y68461D1*
X21636Y68436D1*
X21642Y68411D1*
X21647Y68385D1*
X21650Y68360D1*
X21654Y68335D1*
X21661Y68309D1*
X21668Y68284D1*
X21676Y68259D1*
X21685Y68233D1*
X21696Y68208D1*
X21708Y68183D1*
X21722Y68157D1*
X21737Y68132D1*
X21758Y68107D1*
X21785Y68081D1*
X21819Y68056D1*
X21860Y68031D1*
X21904Y68005D1*
X22107Y69069D2*
X22171Y69044D1*
X22233Y69019D1*
X16381Y69044D2*
X16369Y69019D1*
X16358Y68993D1*
X16347Y68968D1*
X16336Y68943D1*
X16325Y68917D1*
X16315Y68892D1*
X16306Y68867D1*
X16296Y68841D1*
X16285Y68816D1*
X16274Y68791D1*
X16264Y68765D1*
X16255Y68740D1*
X16245Y68715D1*
X16234Y68689D1*
X16223Y68664D1*
X16213Y68639D1*
X16205Y68613D1*
X16195Y68588D1*
X16184Y68563D1*
X16173Y68537D1*
X16163Y68512D1*
X16154Y68487D1*
X16144Y68461D1*
X16133Y68436D1*
X16122Y68411D1*
X16112Y68385D1*
X16103Y68360D1*
X16093Y68335D1*
X16082Y68309D1*
X16071Y68284D1*
X16061Y68259D1*
X16053Y68233D1*
X16044Y68208D1*
X16035Y68183D1*
X16027Y68157D1*
X16017Y68132D1*
X16006Y68107D1*
X15995Y68081D1*
X15985Y68056D1*
X15976Y68031D1*
X16457Y69044D2*
X16467Y69019D1*
X16478Y68993D1*
X16489Y68968D1*
X16499Y68943D1*
X16507Y68917D1*
X16517Y68892D1*
X16528Y68867D1*
X16539Y68841D1*
X16549Y68816D1*
X16558Y68791D1*
X16567Y68765D1*
X16576Y68740D1*
X16584Y68715D1*
X16593Y68689D1*
X16604Y68664D1*
X16615Y68639D1*
X16625Y68613D1*
X16634Y68588D1*
X16644Y68563D1*
X16655Y68537D1*
X16666Y68512D1*
X16676Y68487D1*
X16685Y68461D1*
X16695Y68436D1*
X16706Y68411D1*
X16717Y68385D1*
X16727Y68360D1*
X16735Y68335D1*
X16744Y68309D1*
X16753Y68284D1*
X16761Y68259D1*
X16771Y68233D1*
X16782Y68208D1*
X16793Y68183D1*
X16803Y68157D1*
X16811Y68132D1*
X16821Y68107D1*
X16833Y68081D1*
X16847Y68056D1*
X16863Y68031D1*
X23323Y69044D2*
X23171Y69019D1*
Y68993D1*
Y68968D1*
X23348D1*
Y68943D1*
Y68917D1*
Y68892D1*
Y68867D1*
Y68841D1*
Y68816D1*
Y68791D1*
Y68765D1*
Y68740D1*
Y68715D1*
Y68689D1*
Y68664D1*
Y68639D1*
Y68613D1*
Y68588D1*
Y68563D1*
Y68537D1*
Y68512D1*
Y68487D1*
Y68461D1*
Y68436D1*
Y68411D1*
Y68385D1*
Y68360D1*
Y68335D1*
Y68309D1*
Y68284D1*
Y68259D1*
Y68233D1*
Y68208D1*
Y68183D1*
Y68157D1*
Y68132D1*
Y68107D1*
Y68081D1*
Y68056D1*
Y68031D1*
X23399Y69044D2*
Y69019D1*
Y68993D1*
Y68968D1*
Y68943D1*
Y68917D1*
Y68892D1*
Y68867D1*
Y68841D1*
Y68816D1*
Y68791D1*
Y68765D1*
Y68740D1*
Y68715D1*
Y68689D1*
Y68664D1*
Y68639D1*
Y68613D1*
Y68588D1*
Y68563D1*
Y68537D1*
Y68512D1*
Y68487D1*
Y68461D1*
Y68436D1*
Y68411D1*
Y68385D1*
Y68360D1*
Y68335D1*
Y68309D1*
Y68284D1*
Y68259D1*
Y68233D1*
Y68208D1*
Y68183D1*
Y68157D1*
Y68132D1*
Y68107D1*
Y68081D1*
Y68056D1*
Y68031D1*
X24083Y69044D2*
Y69019D1*
Y68993D1*
Y68968D1*
Y68943D1*
Y68917D1*
Y68892D1*
Y68867D1*
Y68841D1*
Y68816D1*
Y68791D1*
Y68765D1*
Y68740D1*
Y68715D1*
Y68689D1*
Y68664D1*
Y68639D1*
Y68613D1*
X24211Y68588D1*
X24309Y68563D1*
X24375Y68537D1*
X24418Y68512D1*
X24445Y68487D1*
X24464Y68461D1*
X24476Y68436D1*
X24482Y68411D1*
X24486Y68385D1*
X24487Y68360D1*
X24488Y68335D1*
Y68309D1*
Y68284D1*
Y68259D1*
X24487Y68233D1*
X24484Y68208D1*
X24477Y68183D1*
X24466Y68157D1*
X24450Y68132D1*
X24427Y68107D1*
X24396Y68081D1*
X24361Y68056D1*
X24564Y69044D2*
Y69019D1*
Y68993D1*
X20916Y69019D2*
X20888Y68993D1*
X20864Y68968D1*
X20843Y68943D1*
X20825Y68917D1*
X20811Y68892D1*
X20801Y68867D1*
X20794Y68841D1*
X20791Y68816D1*
X20786Y68791D1*
X20779Y68765D1*
X20773Y68740D1*
X20768Y68715D1*
X20766Y68689D1*
X20765Y68664D1*
X20764Y68639D1*
Y68613D1*
Y68588D1*
Y68563D1*
Y68537D1*
Y68512D1*
Y68487D1*
Y68461D1*
Y68436D1*
Y68411D1*
X20765Y68385D1*
X20768Y68360D1*
X20774Y68335D1*
X20781Y68309D1*
X20785Y68284D1*
X20789Y68259D1*
X20793Y68233D1*
X20800Y68208D1*
X20811Y68183D1*
X20825Y68157D1*
X20840Y68132D1*
X20854Y68107D1*
X20865Y68081D1*
X21144Y69019D2*
X21168Y68993D1*
X21190Y68968D1*
X21209Y68943D1*
X21224Y68917D1*
X21238Y68892D1*
X21250Y68867D1*
X21260Y68841D1*
X21266Y68816D1*
X21269Y68791D1*
X21271Y68765D1*
X21275Y68740D1*
X21281Y68715D1*
X21287Y68689D1*
X21292Y68664D1*
X21294Y68639D1*
X21295Y68613D1*
X21296Y68588D1*
Y68563D1*
Y68537D1*
Y68512D1*
Y68487D1*
Y68461D1*
X21295Y68436D1*
X21292Y68411D1*
X21286Y68385D1*
X21279Y68360D1*
X21275Y68335D1*
X21272Y68309D1*
X21270Y68284D1*
X21267Y68259D1*
X21259Y68233D1*
X21250Y68208D1*
X21238Y68183D1*
X21225Y68157D1*
X21209Y68132D1*
X21190Y68107D1*
X21167Y68081D1*
X21144Y68056D1*
X21955Y69044D2*
X21906Y69019D1*
X21863Y68993D1*
X21829Y68968D1*
X21802Y68943D1*
X21781Y68917D1*
X21766Y68892D1*
X21755Y68867D1*
X21744Y68841D1*
X21736Y68816D1*
X21731Y68791D1*
X21728Y68765D1*
X21723Y68740D1*
X21717Y68715D1*
X21710Y68689D1*
X21706Y68664D1*
X21703Y68639D1*
X21704Y68613D1*
X21708Y68588D1*
X21720Y68563D1*
X21733Y68537D1*
X21734Y68512D1*
X21732Y68487D1*
X21729Y68461D1*
X21728Y68436D1*
X21727Y68411D1*
Y68385D1*
Y68360D1*
Y68335D1*
Y68309D1*
Y68284D1*
X21728Y68259D1*
X21731Y68233D1*
X21738Y68208D1*
X21749Y68183D1*
X21764Y68157D1*
X21784Y68132D1*
X21810Y68107D1*
X21842Y68081D1*
X21879Y68056D1*
X22132Y69044D2*
X22157Y69019D1*
X20840Y68993D2*
X20823Y68968D1*
X20807Y68943D1*
X20789Y68917D1*
X20774Y68892D1*
X20760Y68867D1*
X20749Y68841D1*
X20740Y68816D1*
X20731Y68791D1*
X20723Y68765D1*
X20718Y68740D1*
X20714Y68715D1*
X20710Y68689D1*
X20703Y68664D1*
X20697Y68639D1*
X20692Y68613D1*
X20690Y68588D1*
X20689Y68563D1*
X20688Y68537D1*
Y68512D1*
X20689Y68487D1*
X20692Y68461D1*
X20698Y68436D1*
X20705Y68411D1*
X20709Y68385D1*
X20713Y68360D1*
X20717Y68335D1*
X20723Y68309D1*
X20731Y68284D1*
X20739Y68259D1*
X20748Y68233D1*
X20760Y68208D1*
X20774Y68183D1*
X20790Y68157D1*
X20808Y68132D1*
X20828Y68107D1*
X20856Y68081D1*
X20889Y68056D1*
X20927Y68031D1*
X20967Y68005D1*
X24133Y68993D2*
Y68968D1*
Y68943D1*
Y68917D1*
Y68892D1*
Y68867D1*
Y68841D1*
Y68816D1*
Y68791D1*
Y68765D1*
Y68740D1*
Y68715D1*
Y68689D1*
Y68664D1*
X24238Y68639D1*
X24322Y68613D1*
X24385Y68588D1*
X24430Y68563D1*
X24464Y68537D1*
X24489Y68512D1*
X24511Y68487D1*
X24528Y68461D1*
X24542Y68436D1*
X24553Y68411D1*
X24559Y68385D1*
X24562Y68360D1*
X24563Y68335D1*
X24564Y68309D1*
Y68284D1*
X24563Y68259D1*
X24560Y68233D1*
X24553Y68208D1*
X24542Y68183D1*
X24527Y68157D1*
X24508Y68132D1*
X24485Y68107D1*
X24455Y68081D1*
X24417Y68056D1*
X24367Y68031D1*
X24311Y68005D1*
X16381Y68892D2*
X16360Y68867D1*
X16342Y68841D1*
X16327Y68816D1*
X16316Y68791D1*
X16306Y68765D1*
X16297Y68740D1*
X16288Y68715D1*
X16280Y68689D1*
X16271Y68664D1*
X16260Y68639D1*
X16249Y68613D1*
X16239Y68588D1*
X16230Y68563D1*
X16220Y68537D1*
X16209Y68512D1*
X16198Y68487D1*
X16189Y68461D1*
X16184Y68436D1*
X16181Y68411D1*
X16179Y68385D1*
Y68360D1*
X16457Y68892D2*
X16461Y68867D1*
X16468Y68841D1*
X16475Y68816D1*
X16483Y68791D1*
X16492Y68765D1*
X16503Y68740D1*
X16514Y68715D1*
X16524Y68689D1*
X16533Y68664D1*
X16543Y68639D1*
X16554Y68613D1*
X16565Y68588D1*
X16575Y68563D1*
X16583Y68537D1*
X16593Y68512D1*
X16604Y68487D1*
X16615Y68461D1*
X16624Y68436D1*
X16630Y68411D1*
X16633Y68385D1*
X16635Y68360D1*
X17547Y68740D2*
Y68715D1*
Y68689D1*
Y68664D1*
Y68639D1*
Y68613D1*
Y68588D1*
Y68563D1*
Y68537D1*
Y68512D1*
Y68487D1*
Y68461D1*
Y68436D1*
Y68411D1*
Y68385D1*
Y68360D1*
Y68335D1*
Y68309D1*
Y68284D1*
Y68259D1*
Y68233D1*
Y68208D1*
Y68183D1*
Y68157D1*
Y68132D1*
Y68107D1*
Y68081D1*
Y68056D1*
Y68031D1*
Y68005D1*
Y67980D1*
Y67955D1*
Y67929D1*
Y67904D1*
Y67879D1*
Y67853D1*
Y67828D1*
Y67803D1*
Y67777D1*
Y67752D1*
X17623Y68740D2*
Y68715D1*
X17625Y68689D1*
X17629Y68664D1*
X17649Y68639D1*
X17673Y68613D1*
X17653Y68588D1*
X17638Y68563D1*
X17630Y68537D1*
X17626Y68512D1*
X17624Y68487D1*
X17623Y68461D1*
Y68436D1*
Y68411D1*
Y68385D1*
Y68360D1*
Y68335D1*
Y68309D1*
Y68284D1*
Y68259D1*
Y68233D1*
X17624Y68208D1*
X17627Y68183D1*
X17639Y68157D1*
X17667Y68132D1*
X17699Y68107D1*
X17664Y68081D1*
X17638Y68056D1*
X17630Y68031D1*
X17626Y68005D1*
X17624Y67980D1*
X17623Y67955D1*
Y67929D1*
Y67904D1*
Y67879D1*
Y67853D1*
Y67828D1*
Y67803D1*
Y67777D1*
Y67752D1*
X17876Y68740D2*
X17827Y68715D1*
X17786Y68689D1*
X17749Y68664D1*
X17977Y68740D2*
X18014Y68715D1*
X18047Y68689D1*
X18075Y68664D1*
X18099Y68639D1*
X18118Y68613D1*
X18133Y68588D1*
X18147Y68563D1*
X18160Y68537D1*
X18169Y68512D1*
X18175Y68487D1*
X18178Y68461D1*
X18179Y68436D1*
X18180Y68411D1*
Y68385D1*
X18179Y68360D1*
X18176Y68335D1*
X18170Y68309D1*
X18162Y68284D1*
X18154Y68259D1*
X18145Y68233D1*
X18133Y68208D1*
X18119Y68183D1*
X18102Y68157D1*
X18082Y68132D1*
X18058Y68107D1*
X18027Y68081D1*
X17991Y68056D1*
X17952Y68031D1*
X18813Y68740D2*
X18772Y68715D1*
X18733Y68689D1*
X18696Y68664D1*
X18661Y68639D1*
X18915Y68740D2*
X18952Y68715D1*
X18983Y68689D1*
X19009Y68664D1*
X19029Y68639D1*
X19044Y68613D1*
X19055Y68588D1*
X19061Y68563D1*
X19064Y68537D1*
X19066Y68512D1*
Y68487D1*
X19067Y68461D1*
Y68436D1*
Y68411D1*
Y68385D1*
Y68360D1*
Y68335D1*
Y68309D1*
Y68284D1*
Y68259D1*
Y68233D1*
Y68208D1*
Y68183D1*
Y68157D1*
Y68132D1*
Y68107D1*
Y68081D1*
Y68056D1*
Y68031D1*
X19573Y68740D2*
X19496Y68715D1*
X19421Y68689D1*
X19725Y68740D2*
X19773Y68715D1*
X19810Y68689D1*
X19835Y68664D1*
X19853Y68639D1*
X19865Y68613D1*
X19872Y68588D1*
X19875Y68563D1*
X19876Y68537D1*
X19877Y68512D1*
Y68487D1*
Y68461D1*
Y68436D1*
Y68411D1*
Y68385D1*
Y68360D1*
Y68335D1*
Y68309D1*
Y68284D1*
Y68259D1*
Y68233D1*
Y68208D1*
X19878Y68183D1*
X19883Y68157D1*
X19891Y68132D1*
X19912Y68107D1*
X19936Y68081D1*
X19959Y68056D1*
X19979Y68031D1*
X19523Y68715D2*
X19497Y68689D1*
X19725Y68715D2*
X19751Y68689D1*
X19775Y68664D1*
X19796Y68639D1*
X19811Y68613D1*
X19820Y68588D1*
X19824Y68563D1*
X19826Y68537D1*
Y68512D1*
X19827Y68487D1*
Y68461D1*
Y68436D1*
X19624Y68411D1*
X19827Y68385D1*
Y68360D1*
Y68335D1*
Y68309D1*
Y68284D1*
Y68259D1*
X19826Y68233D1*
X19821Y68208D1*
X19811Y68183D1*
X19795Y68157D1*
X19776Y68132D1*
X19816Y68107D1*
X19848Y68081D1*
X19876Y68056D1*
X19903Y68031D1*
X17775Y68664D2*
X17724Y68639D1*
X17977Y68689D2*
X18003Y68664D1*
X18027Y68639D1*
X18049Y68613D1*
X18067Y68588D1*
X18082Y68563D1*
X18093Y68537D1*
X18099Y68512D1*
X18102Y68487D1*
X18103Y68461D1*
X18104Y68436D1*
Y68411D1*
Y68385D1*
Y68360D1*
Y68335D1*
Y68309D1*
X18103Y68284D1*
X18100Y68259D1*
X18093Y68233D1*
X18083Y68208D1*
X18071Y68183D1*
X18057Y68157D1*
X18038Y68132D1*
X17979Y68107D1*
X17888Y68081D1*
X17775Y68056D1*
X17825Y68031D1*
X18737Y68664D2*
X18687Y68639D1*
X18915Y68689D2*
X18939Y68664D1*
X18960Y68639D1*
X18975Y68613D1*
X18984Y68588D1*
X18988Y68563D1*
X18990Y68537D1*
Y68512D1*
X18991Y68487D1*
Y68461D1*
Y68436D1*
Y68411D1*
Y68385D1*
Y68360D1*
Y68335D1*
Y68309D1*
Y68284D1*
Y68259D1*
Y68233D1*
Y68208D1*
Y68183D1*
Y68157D1*
Y68132D1*
Y68107D1*
Y68081D1*
Y68056D1*
Y68031D1*
X21955Y68664D2*
X21904Y68639D1*
X22008Y68613D1*
X22084Y68588D1*
X22133Y68563D1*
X22167Y68537D1*
X22184Y68512D1*
X22196Y68487D1*
X22203Y68461D1*
X22210Y68436D1*
X22217Y68411D1*
X22224Y68385D1*
X22229Y68360D1*
X22231Y68335D1*
X22228Y68309D1*
X22223Y68284D1*
X22216Y68259D1*
X22211Y68233D1*
X22205Y68208D1*
X22197Y68183D1*
X22186Y68157D1*
X22170Y68132D1*
X22147Y68107D1*
X22116Y68081D1*
X22081Y68056D1*
X22056Y68664D2*
X22105Y68639D1*
X22145Y68613D1*
X22176Y68588D1*
X22202Y68563D1*
X22221Y68537D1*
X22237Y68512D1*
X22251Y68487D1*
X22264Y68461D1*
X22273Y68436D1*
X22279Y68411D1*
X22282Y68385D1*
X22283Y68360D1*
Y68335D1*
X22280Y68309D1*
X22274Y68284D1*
X22266Y68259D1*
X22258Y68233D1*
X22249Y68208D1*
X22237Y68183D1*
X22222Y68157D1*
X22203Y68132D1*
X22179Y68107D1*
X22151Y68081D1*
X22116Y68056D1*
X22075Y68031D1*
X22031Y68005D1*
X21853Y68613D2*
X19523Y68385D2*
X19573D2*
X19525Y68360D1*
X19486Y68335D1*
X19457Y68309D1*
X19436Y68284D1*
X19428Y68259D1*
X19424Y68233D1*
Y68208D1*
X19425Y68183D1*
X19438Y68157D1*
X19466Y68132D1*
X19497Y68107D1*
X19472Y68360D2*
X19442Y68335D1*
X19416Y68309D1*
X19397Y68284D1*
X19384Y68259D1*
X19377Y68233D1*
X19373Y68208D1*
Y68183D1*
X19376Y68157D1*
X19384Y68132D1*
X19404Y68107D1*
X19429Y68081D1*
X19461Y68056D1*
X19497Y68031D1*
X16153Y68309D2*
X16132Y68284D1*
X16114Y68259D1*
X16099Y68233D1*
X16088Y68208D1*
X16078Y68183D1*
X16068Y68157D1*
X16057Y68132D1*
X16046Y68107D1*
X16037Y68081D1*
X16031Y68056D1*
X16027Y68031D1*
X16685Y68309D2*
X16689Y68284D1*
X16697Y68259D1*
X16706Y68233D1*
X16717Y68208D1*
X16727Y68183D1*
X16735Y68157D1*
X16745Y68132D1*
X16756Y68107D1*
X16767Y68081D1*
X16778Y68056D1*
X16787Y68031D1*
X22613Y68132D2*
Y68107D1*
Y68081D1*
Y68056D1*
Y68031D1*
X22715Y68132D2*
Y68107D1*
Y68081D1*
Y68056D1*
Y68031D1*
X19700Y68107D2*
X19675Y68081D1*
X19725Y68107D2*
X19686Y68081D1*
X19644Y68056D1*
X19599Y68031D1*
X17724Y68081D2*
X17775Y68056D1*
X17825Y68031D1*
X17749Y68081D2*
X20916Y68056D2*
X24083D2*
X24106Y68031D1*
X24133Y68005D1*
X24108Y68056D2*
X23734Y52973D2*
X23709Y53021D1*
X23661Y53070D1*
X23612Y53094D1*
X23515D1*
X23466Y53070D1*
X23418Y53021D1*
X23393Y52973D1*
X23369Y52900D1*
Y52778D1*
X23393Y52705D1*
X23418Y52657D1*
X23466Y52608D1*
X23515Y52584D1*
X23612D1*
X23661Y52608D1*
X23709Y52657D1*
X23734Y52705D1*
X24037Y53093D2*
X23964Y53069D1*
X23915Y52996D1*
X23891Y52875D1*
Y52802D1*
X23915Y52681D1*
X23964Y52608D1*
X24037Y52584D1*
X24085D1*
X24158Y52608D1*
X24206Y52681D1*
X24231Y52802D1*
Y52875D1*
X24206Y52996D1*
X24158Y53069D1*
X24085Y53093D1*
X24037D1*
X24206Y52996D2*
X23915Y52681D1*
X23893Y54223D2*
X23869Y54271D1*
X23820Y54320D1*
X23772Y54344D1*
X23674D1*
X23626Y54320D1*
X23577Y54271D1*
X23553Y54223D1*
X23528Y54150D1*
Y54028D1*
X23553Y53955D1*
X23577Y53907D1*
X23626Y53858D1*
X23674Y53834D1*
X23772D1*
X23820Y53858D1*
X23869Y53907D1*
X23893Y53955D1*
X24050Y54246D2*
X24099Y54271D1*
X24172Y54343D1*
Y53834D1*
X27534Y43423D2*
X27509Y43471D1*
X27461Y43520D1*
X27412Y43544D1*
X27315D1*
X27266Y43520D1*
X27218Y43471D1*
X27193Y43423D1*
X27169Y43350D1*
Y43228D1*
X27193Y43155D1*
X27218Y43107D1*
X27266Y43058D1*
X27315Y43034D1*
X27412D1*
X27461Y43058D1*
X27509Y43107D1*
X27534Y43155D1*
X27715Y43422D2*
Y43446D1*
X27739Y43495D1*
X27764Y43519D1*
X27812Y43543D1*
X27910D1*
X27958Y43519D1*
X27982Y43495D1*
X28007Y43446D1*
Y43398D1*
X27982Y43349D1*
X27934Y43277D1*
X27691Y43034D1*
X28031D1*
X35034Y43673D2*
X35009Y43721D1*
X34961Y43770D1*
X34912Y43794D1*
X34815D1*
X34766Y43770D1*
X34718Y43721D1*
X34693Y43673D1*
X34669Y43600D1*
Y43478D1*
X34693Y43405D1*
X34718Y43357D1*
X34766Y43308D1*
X34815Y43284D1*
X34912D1*
X34961Y43308D1*
X35009Y43357D1*
X35034Y43405D1*
X35239Y43793D2*
X35506D1*
X35361Y43599D1*
X35434D1*
X35482Y43575D1*
X35506Y43551D1*
X35531Y43478D1*
Y43430D1*
X35506Y43357D1*
X35458Y43308D1*
X35385Y43284D1*
X35312D1*
X35239Y43308D1*
X35215Y43332D1*
X35191Y43381D1*
X38872Y51423D2*
X38847Y51471D1*
X38799Y51520D1*
X38750Y51544D1*
X38653D1*
X38604Y51520D1*
X38556Y51471D1*
X38531Y51423D1*
X38507Y51350D1*
Y51228D1*
X38531Y51155D1*
X38556Y51107D1*
X38604Y51058D1*
X38653Y51034D1*
X38750D1*
X38799Y51058D1*
X38847Y51107D1*
X38872Y51155D1*
X39272Y51034D2*
Y51543D1*
X39028Y51204D1*
X39393D1*
X36684Y51423D2*
X36659Y51471D1*
X36611Y51520D1*
X36562Y51544D1*
X36465D1*
X36416Y51520D1*
X36368Y51471D1*
X36343Y51423D1*
X36319Y51350D1*
Y51228D1*
X36343Y51155D1*
X36368Y51107D1*
X36416Y51058D1*
X36465Y51034D1*
X36562D1*
X36611Y51058D1*
X36659Y51107D1*
X36684Y51155D1*
X37132Y51543D2*
X36889D1*
X36865Y51325D1*
X36889Y51349D1*
X36962Y51374D1*
X37035D1*
X37108Y51349D1*
X37157Y51301D1*
X37181Y51228D1*
Y51180D1*
X37157Y51107D1*
X37108Y51058D1*
X37035Y51034D1*
X36962D1*
X36889Y51058D1*
X36865Y51082D1*
X36841Y51131D1*
X37146Y43665D2*
X37122Y43713D1*
X37073Y43762D1*
X37025Y43786D1*
X36928D1*
X36879Y43762D1*
X36830Y43713D1*
X36806Y43665D1*
X36782Y43592D1*
Y43470D1*
X36806Y43397D1*
X36830Y43348D1*
X36879Y43300D1*
X36928Y43275D1*
X37025D1*
X37073Y43300D1*
X37122Y43348D1*
X37146Y43397D1*
X37594Y43713D2*
X37570Y43761D1*
X37497Y43785D1*
X37449D1*
X37376Y43761D1*
X37327Y43688D1*
X37303Y43567D1*
Y43446D1*
X37327Y43348D1*
X37376Y43300D1*
X37449Y43275D1*
X37473D1*
X37545Y43300D1*
X37594Y43348D1*
X37618Y43421D1*
Y43446D1*
X37594Y43519D1*
X37545Y43567D1*
X37473Y43591D1*
X37449D1*
X37376Y43567D1*
X37327Y43519D1*
X37303Y43446D1*
X38707Y48414D2*
X38659Y48389D1*
X38610Y48341D1*
X38586Y48292D1*
Y48195D1*
X38610Y48146D1*
X38659Y48098D1*
X38707Y48073D1*
X38780Y48049D1*
X38902D1*
X38975Y48073D1*
X39023Y48098D1*
X39072Y48146D1*
X39096Y48195D1*
Y48292D1*
X39072Y48341D1*
X39023Y48389D1*
X38975Y48414D1*
X39096Y48668D2*
X38587Y48911D1*
Y48571D1*
X56534Y33573D2*
X56510Y33621D1*
X56461Y33670D1*
X56413Y33694D1*
X56315D1*
X56267Y33670D1*
X56218Y33621D1*
X56194Y33573D1*
X56169Y33500D1*
Y33378D1*
X56194Y33305D1*
X56218Y33257D1*
X56267Y33208D1*
X56315Y33184D1*
X56413D1*
X56461Y33208D1*
X56510Y33257D1*
X56534Y33305D1*
X56812Y33693D2*
X56740Y33669D1*
X56715Y33621D1*
Y33572D1*
X56740Y33524D1*
X56788Y33499D1*
X56885Y33475D1*
X56958Y33451D1*
X57006Y33402D1*
X57031Y33354D1*
Y33281D1*
X57006Y33232D1*
X56982Y33208D1*
X56909Y33184D1*
X56812D1*
X56740Y33208D1*
X56715Y33232D1*
X56691Y33281D1*
Y33354D1*
X56715Y33402D1*
X56764Y33451D1*
X56836Y33475D1*
X56933Y33499D1*
X56982Y33524D1*
X57006Y33572D1*
Y33621D1*
X56982Y33669D1*
X56909Y33693D1*
X56812D1*
X55296Y25573D2*
X55272Y25621D1*
X55223Y25670D1*
X55174Y25694D1*
X55077D1*
X55028Y25670D1*
X54980Y25621D1*
X54955Y25573D1*
X54931Y25500D1*
Y25378D1*
X54955Y25305D1*
X54980Y25257D1*
X55028Y25208D1*
X55077Y25184D1*
X55174D1*
X55223Y25208D1*
X55272Y25257D1*
X55296Y25305D1*
X55769Y25524D2*
X55744Y25451D1*
X55696Y25402D1*
X55623Y25378D1*
X55599D1*
X55526Y25402D1*
X55477Y25451D1*
X55453Y25524D1*
Y25548D1*
X55477Y25621D1*
X55526Y25669D1*
X55599Y25693D1*
X55623D1*
X55696Y25669D1*
X55744Y25621D1*
X55769Y25524D1*
Y25402D1*
X55744Y25281D1*
X55696Y25208D1*
X55623Y25184D1*
X55574D1*
X55501Y25208D1*
X55477Y25257D1*
X39927Y46094D2*
X39879Y46070D1*
X39830Y46021D1*
X39806Y45973D1*
Y45876D1*
X39830Y45827D1*
X39879Y45779D1*
X39927Y45754D1*
X40000Y45730D1*
X40122D1*
X40195Y45754D1*
X40243Y45779D1*
X40292Y45827D1*
X40316Y45876D1*
Y45973D1*
X40292Y46021D1*
X40243Y46070D1*
X40195Y46094D1*
X39904Y46251D2*
X39879Y46300D1*
X39807Y46373D1*
X40316D1*
X39807Y46676D2*
X39831Y46603D1*
X39904Y46554D1*
X40025Y46530D1*
X40098D1*
X40219Y46554D1*
X40292Y46603D1*
X40316Y46676D1*
Y46724D1*
X40292Y46797D1*
X40219Y46845D1*
X40098Y46870D1*
X40025D1*
X39904Y46845D1*
X39831Y46797D1*
X39807Y46724D1*
Y46676D1*
X39904Y46845D2*
X40219Y46554D1*
X39861Y42204D2*
X39813Y42179D1*
X39764Y42131D1*
X39740Y42082D1*
Y41985D1*
X39764Y41936D1*
X39813Y41888D1*
X39861Y41863D1*
X39934Y41839D1*
X40056D1*
X40129Y41863D1*
X40177Y41888D1*
X40226Y41936D1*
X40250Y41985D1*
Y42082D1*
X40226Y42131D1*
X40177Y42179D1*
X40129Y42204D1*
X39838Y42360D2*
X39813Y42409D1*
X39741Y42482D1*
X40250D1*
X39838Y42639D2*
X39813Y42688D1*
X39741Y42761D1*
X40250D1*
X26035Y55943D2*
X26011Y55991D1*
X25962Y56040D1*
X25914Y56064D1*
X25817D1*
X25768Y56040D1*
X25719Y55991D1*
X25695Y55943D1*
X25671Y55870D1*
Y55748D1*
X25695Y55675D1*
X25719Y55627D1*
X25768Y55578D1*
X25817Y55554D1*
X25914D1*
X25962Y55578D1*
X26011Y55627D1*
X26035Y55675D1*
X26217Y55942D2*
Y55966D1*
X26241Y56015D1*
X26265Y56039D1*
X26314Y56063D1*
X26411D1*
X26459Y56039D1*
X26483Y56015D1*
X26508Y55966D1*
Y55918D1*
X26483Y55869D1*
X26435Y55797D1*
X26192Y55554D1*
X26532D1*
X26835Y56063D2*
X26762Y56039D1*
X26713Y55966D1*
X26689Y55845D1*
Y55772D1*
X26713Y55651D1*
X26762Y55578D1*
X26835Y55554D1*
X26883D1*
X26956Y55578D1*
X27005Y55651D1*
X27029Y55772D1*
Y55845D1*
X27005Y55966D1*
X26956Y56039D1*
X26883Y56063D1*
X26835D1*
X27005Y55966D2*
X26713Y55651D1*
X37244Y63523D2*
X37220Y63571D1*
X37171Y63620D1*
X37123Y63644D1*
X37026D1*
X36977Y63620D1*
X36929Y63571D1*
X36904Y63523D1*
X36880Y63450D1*
Y63328D1*
X36904Y63255D1*
X36929Y63207D1*
X36977Y63158D1*
X37026Y63134D1*
X37123D1*
X37171Y63158D1*
X37220Y63207D1*
X37244Y63255D1*
X37426Y63522D2*
Y63546D1*
X37450Y63595D1*
X37474Y63619D1*
X37523Y63643D1*
X37620D1*
X37668Y63619D1*
X37693Y63595D1*
X37717Y63546D1*
Y63498D1*
X37693Y63449D1*
X37644Y63377D1*
X37401Y63134D1*
X37741D1*
X37898Y63546D2*
X37947Y63571D1*
X38020Y63643D1*
Y63134D1*
X37185Y65073D2*
X37161Y65121D1*
X37112Y65170D1*
X37064Y65194D1*
X36967D1*
X36918Y65170D1*
X36869Y65121D1*
X36845Y65073D1*
X36821Y65000D1*
Y64878D1*
X36845Y64805D1*
X36869Y64757D1*
X36918Y64708D1*
X36967Y64684D1*
X37064D1*
X37112Y64708D1*
X37161Y64757D1*
X37185Y64805D1*
X37367Y65072D2*
Y65096D1*
X37391Y65145D1*
X37415Y65169D1*
X37464Y65193D1*
X37561D1*
X37609Y65169D1*
X37633Y65145D1*
X37658Y65096D1*
Y65048D1*
X37633Y64999D1*
X37585Y64927D1*
X37342Y64684D1*
X37682D1*
X37864Y65072D2*
Y65096D1*
X37888Y65145D1*
X37912Y65169D1*
X37961Y65193D1*
X38058D1*
X38106Y65169D1*
X38131Y65145D1*
X38155Y65096D1*
Y65048D1*
X38131Y64999D1*
X38082Y64927D1*
X37839Y64684D1*
X38179D1*
X31835Y67323D2*
X31811Y67371D1*
X31762Y67420D1*
X31714Y67444D1*
X31617D1*
X31568Y67420D1*
X31519Y67371D1*
X31495Y67323D1*
X31471Y67250D1*
Y67128D1*
X31495Y67055D1*
X31519Y67007D1*
X31568Y66958D1*
X31617Y66934D1*
X31714D1*
X31762Y66958D1*
X31811Y67007D1*
X31835Y67055D1*
X32017Y67322D2*
Y67346D1*
X32041Y67395D1*
X32065Y67419D1*
X32114Y67443D1*
X32211D1*
X32259Y67419D1*
X32283Y67395D1*
X32308Y67346D1*
Y67298D1*
X32283Y67249D1*
X32235Y67177D1*
X31992Y66934D1*
X32332D1*
X32538Y67443D2*
X32805D1*
X32659Y67249D1*
X32732D1*
X32781Y67225D1*
X32805Y67201D1*
X32829Y67128D1*
Y67080D1*
X32805Y67007D1*
X32756Y66958D1*
X32683Y66934D1*
X32610D1*
X32538Y66958D1*
X32514Y66982D1*
X32489Y67031D1*
X39177Y56223D2*
X39129Y56199D1*
X39080Y56150D1*
X39056Y56102D1*
Y56005D1*
X39080Y55956D1*
X39129Y55907D1*
X39177Y55883D1*
X39250Y55859D1*
X39372D1*
X39445Y55883D1*
X39493Y55907D1*
X39542Y55956D1*
X39566Y56005D1*
Y56102D1*
X39542Y56150D1*
X39493Y56199D1*
X39445Y56223D1*
X39178Y56405D2*
X39154D1*
X39105Y56429D1*
X39081Y56453D1*
X39057Y56502D1*
Y56599D1*
X39081Y56647D1*
X39105Y56671D1*
X39154Y56696D1*
X39202D1*
X39251Y56671D1*
X39323Y56623D1*
X39566Y56380D1*
Y56720D1*
Y57120D2*
X39057D1*
X39396Y56877D1*
Y57241D1*
X38027Y58285D2*
X37979Y58261D1*
X37930Y58212D1*
X37906Y58164D1*
Y58067D1*
X37930Y58018D1*
X37979Y57969D1*
X38027Y57945D1*
X38100Y57921D1*
X38222D1*
X38295Y57945D1*
X38343Y57969D1*
X38392Y58018D1*
X38416Y58067D1*
Y58164D1*
X38392Y58212D1*
X38343Y58261D1*
X38295Y58285D1*
X38028Y58467D2*
X38004D1*
X37955Y58491D1*
X37931Y58515D1*
X37907Y58564D1*
Y58661D1*
X37931Y58709D1*
X37955Y58733D1*
X38004Y58758D1*
X38052D1*
X38101Y58733D1*
X38173Y58685D1*
X38416Y58442D1*
Y58782D1*
X37907Y59231D2*
Y58988D1*
X38125Y58964D1*
X38101Y58988D1*
X38076Y59061D1*
Y59133D1*
X38101Y59206D1*
X38149Y59255D1*
X38222Y59279D1*
X38270D1*
X38343Y59255D1*
X38392Y59206D1*
X38416Y59133D1*
Y59061D1*
X38392Y58988D1*
X38368Y58964D1*
X38319Y58939D1*
X36977Y58247D2*
X36929Y58223D1*
X36880Y58174D1*
X36856Y58126D1*
Y58029D1*
X36880Y57980D1*
X36929Y57932D1*
X36977Y57907D1*
X37050Y57883D1*
X37172D1*
X37245Y57907D1*
X37293Y57932D1*
X37342Y57980D1*
X37366Y58029D1*
Y58126D1*
X37342Y58174D1*
X37293Y58223D1*
X37245Y58247D1*
X36978Y58429D2*
X36954D1*
X36905Y58453D1*
X36881Y58477D1*
X36857Y58526D1*
Y58623D1*
X36881Y58672D1*
X36905Y58696D1*
X36954Y58720D1*
X37002D1*
X37051Y58696D1*
X37123Y58647D1*
X37366Y58404D1*
Y58745D1*
X36929Y59193D2*
X36881Y59169D1*
X36857Y59096D1*
Y59047D1*
X36881Y58974D1*
X36954Y58926D1*
X37075Y58901D1*
X37196D1*
X37293Y58926D1*
X37342Y58974D1*
X37366Y59047D1*
Y59072D1*
X37342Y59144D1*
X37293Y59193D1*
X37220Y59217D1*
X37196D1*
X37123Y59193D1*
X37075Y59144D1*
X37051Y59072D1*
Y59047D1*
X37075Y58974D1*
X37123Y58926D1*
X37196Y58901D1*
X40385Y69073D2*
X40361Y69121D1*
X40312Y69170D1*
X40264Y69194D1*
X40167D1*
X40118Y69170D1*
X40069Y69121D1*
X40045Y69073D1*
X40021Y69000D1*
Y68878D1*
X40045Y68805D1*
X40069Y68757D1*
X40118Y68708D1*
X40167Y68684D1*
X40264D1*
X40312Y68708D1*
X40361Y68757D1*
X40385Y68805D1*
X40567Y69072D2*
Y69096D1*
X40591Y69145D1*
X40615Y69169D1*
X40664Y69193D1*
X40761D1*
X40809Y69169D1*
X40833Y69145D1*
X40858Y69096D1*
Y69048D1*
X40833Y68999D1*
X40785Y68927D1*
X40542Y68684D1*
X40882D1*
X41136D2*
X41379Y69193D1*
X41039D1*
X36877Y71085D2*
X36829Y71061D1*
X36780Y71012D1*
X36756Y70964D1*
Y70867D1*
X36780Y70818D1*
X36829Y70770D1*
X36877Y70745D1*
X36950Y70721D1*
X37072D1*
X37145Y70745D1*
X37193Y70770D1*
X37242Y70818D1*
X37266Y70867D1*
Y70964D1*
X37242Y71012D1*
X37193Y71061D1*
X37145Y71085D1*
X36878Y71267D2*
X36854D1*
X36805Y71291D1*
X36781Y71315D1*
X36757Y71364D1*
Y71461D1*
X36781Y71510D1*
X36805Y71534D1*
X36854Y71558D1*
X36902D1*
X36951Y71534D1*
X37023Y71485D1*
X37266Y71242D1*
Y71583D1*
X36757Y71861D2*
X36781Y71788D1*
X36829Y71764D1*
X36878D1*
X36926Y71788D1*
X36951Y71837D1*
X36975Y71934D1*
X36999Y72007D1*
X37048Y72055D1*
X37096Y72079D1*
X37169D1*
X37218Y72055D1*
X37242Y72031D1*
X37266Y71958D1*
Y71861D1*
X37242Y71788D1*
X37218Y71764D1*
X37169Y71739D1*
X37096D1*
X37048Y71764D1*
X36999Y71812D1*
X36975Y71885D1*
X36951Y71982D1*
X36926Y72031D1*
X36878Y72055D1*
X36829D1*
X36781Y72031D1*
X36757Y71958D1*
Y71861D1*
X41097Y53473D2*
X41073Y53521D1*
X41024Y53570D1*
X40976Y53594D1*
X40879D1*
X40830Y53570D1*
X40782Y53521D1*
X40757Y53473D1*
X40733Y53400D1*
Y53278D1*
X40757Y53205D1*
X40782Y53157D1*
X40830Y53108D1*
X40879Y53084D1*
X40976D1*
X41024Y53108D1*
X41073Y53157D1*
X41097Y53205D1*
X41279Y53472D2*
Y53496D1*
X41303Y53545D1*
X41327Y53569D1*
X41376Y53593D1*
X41473D1*
X41521Y53569D1*
X41545Y53545D1*
X41570Y53496D1*
Y53448D1*
X41545Y53399D1*
X41497Y53327D1*
X41254Y53084D1*
X41594D1*
X42067Y53424D2*
X42043Y53351D1*
X41994Y53302D1*
X41921Y53278D1*
X41897D1*
X41824Y53302D1*
X41776Y53351D1*
X41751Y53424D1*
Y53448D1*
X41776Y53521D1*
X41824Y53569D1*
X41897Y53593D1*
X41921D1*
X41994Y53569D1*
X42043Y53521D1*
X42067Y53424D1*
Y53302D1*
X42043Y53181D1*
X41994Y53108D1*
X41921Y53084D1*
X41873D1*
X41800Y53108D1*
X41776Y53157D1*
X41085Y54523D2*
X41061Y54571D1*
X41012Y54620D1*
X40964Y54644D1*
X40867D1*
X40818Y54620D1*
X40769Y54571D1*
X40745Y54523D1*
X40721Y54450D1*
Y54328D1*
X40745Y54255D1*
X40769Y54207D1*
X40818Y54158D1*
X40867Y54134D1*
X40964D1*
X41012Y54158D1*
X41061Y54207D1*
X41085Y54255D1*
X41291Y54643D2*
X41558D1*
X41412Y54449D1*
X41485D1*
X41533Y54425D1*
X41558Y54401D1*
X41582Y54328D1*
Y54280D1*
X41558Y54207D1*
X41509Y54158D1*
X41436Y54134D1*
X41363D1*
X41291Y54158D1*
X41267Y54182D1*
X41242Y54231D1*
X41885Y54643D2*
X41812Y54619D1*
X41763Y54546D1*
X41739Y54425D1*
Y54352D1*
X41763Y54231D1*
X41812Y54158D1*
X41885Y54134D1*
X41933D1*
X42006Y54158D1*
X42055Y54231D1*
X42079Y54352D1*
Y54425D1*
X42055Y54546D1*
X42006Y54619D1*
X41933Y54643D1*
X41885D1*
X42055Y54546D2*
X41763Y54231D1*
X32477Y65654D2*
X32429Y65630D1*
X32380Y65581D1*
X32356Y65533D1*
Y65436D1*
X32380Y65387D1*
X32429Y65339D1*
X32477Y65314D1*
X32550Y65290D1*
X32672D1*
X32745Y65314D1*
X32793Y65339D1*
X32842Y65387D1*
X32866Y65436D1*
Y65533D1*
X32842Y65581D1*
X32793Y65630D1*
X32745Y65654D1*
X32357Y65860D2*
Y66127D1*
X32551Y65981D1*
Y66054D1*
X32575Y66103D1*
X32599Y66127D1*
X32672Y66151D1*
X32720D1*
X32793Y66127D1*
X32842Y66078D1*
X32866Y66005D1*
Y65932D1*
X32842Y65860D1*
X32818Y65836D1*
X32769Y65811D1*
X32454Y66308D2*
X32429Y66357D1*
X32357Y66430D1*
X32866D1*
X31307Y64565D2*
X31259Y64541D1*
X31210Y64492D1*
X31186Y64444D1*
Y64347D1*
X31210Y64298D1*
X31259Y64250D1*
X31307Y64225D1*
X31380Y64201D1*
X31502D1*
X31575Y64225D1*
X31623Y64250D1*
X31672Y64298D1*
X31696Y64347D1*
Y64444D1*
X31672Y64492D1*
X31623Y64541D1*
X31575Y64565D1*
X31187Y64771D2*
Y65038D1*
X31381Y64892D1*
Y64965D1*
X31405Y65013D1*
X31429Y65038D1*
X31502Y65062D1*
X31550D1*
X31623Y65038D1*
X31672Y64989D1*
X31696Y64916D1*
Y64843D1*
X31672Y64771D1*
X31648Y64747D1*
X31599Y64722D1*
X31308Y65244D2*
X31284D1*
X31235Y65268D1*
X31211Y65292D1*
X31187Y65341D1*
Y65438D1*
X31211Y65486D1*
X31235Y65511D1*
X31284Y65535D1*
X31332D1*
X31381Y65511D1*
X31453Y65462D1*
X31696Y65219D1*
Y65559D1*
X30177Y64585D2*
X30129Y64561D1*
X30080Y64512D1*
X30056Y64464D1*
Y64367D1*
X30080Y64318D1*
X30129Y64270D1*
X30177Y64245D1*
X30250Y64221D1*
X30372D1*
X30445Y64245D1*
X30493Y64270D1*
X30542Y64318D1*
X30566Y64367D1*
Y64464D1*
X30542Y64512D1*
X30493Y64561D1*
X30445Y64585D1*
X30057Y64791D2*
Y65058D1*
X30251Y64912D1*
Y64985D1*
X30275Y65033D1*
X30299Y65058D1*
X30372Y65082D1*
X30420D1*
X30493Y65058D1*
X30542Y65009D1*
X30566Y64936D1*
Y64863D1*
X30542Y64791D1*
X30518Y64767D1*
X30469Y64742D1*
X30057Y65288D2*
Y65555D1*
X30251Y65409D1*
Y65482D1*
X30275Y65531D1*
X30299Y65555D1*
X30372Y65579D1*
X30420D1*
X30493Y65555D1*
X30542Y65506D1*
X30566Y65433D1*
Y65360D1*
X30542Y65288D1*
X30518Y65264D1*
X30469Y65239D1*
X37223Y67273D2*
X37199Y67321D1*
X37150Y67370D1*
X37102Y67394D1*
X37005D1*
X36956Y67370D1*
X36907Y67321D1*
X36883Y67273D1*
X36859Y67200D1*
Y67078D1*
X36883Y67005D1*
X36907Y66957D1*
X36956Y66908D1*
X37005Y66884D1*
X37102D1*
X37150Y66908D1*
X37199Y66957D1*
X37223Y67005D1*
X37429Y67393D2*
X37695D1*
X37550Y67199D1*
X37623D1*
X37671Y67175D1*
X37695Y67151D1*
X37720Y67078D1*
Y67030D1*
X37695Y66957D1*
X37647Y66908D1*
X37574Y66884D1*
X37501D1*
X37429Y66908D1*
X37405Y66932D1*
X37380Y66981D1*
X38120Y66884D2*
Y67393D1*
X37877Y67054D1*
X38241D1*
X37185Y61873D2*
X37161Y61921D1*
X37112Y61970D1*
X37064Y61994D1*
X36967D1*
X36918Y61970D1*
X36869Y61921D1*
X36845Y61873D1*
X36821Y61800D1*
Y61678D1*
X36845Y61605D1*
X36869Y61557D1*
X36918Y61508D1*
X36967Y61484D1*
X37064D1*
X37112Y61508D1*
X37161Y61557D1*
X37185Y61605D1*
X37391Y61993D2*
X37658D1*
X37512Y61799D1*
X37585D1*
X37633Y61775D1*
X37658Y61751D1*
X37682Y61678D1*
Y61630D1*
X37658Y61557D1*
X37609Y61508D1*
X37536Y61484D1*
X37463D1*
X37391Y61508D1*
X37367Y61532D1*
X37342Y61581D1*
X38131Y61993D2*
X37888D1*
X37864Y61775D1*
X37888Y61799D1*
X37961Y61824D1*
X38033D1*
X38106Y61799D1*
X38155Y61751D1*
X38179Y61678D1*
Y61630D1*
X38155Y61557D1*
X38106Y61508D1*
X38033Y61484D1*
X37961D1*
X37888Y61508D1*
X37864Y61532D1*
X37839Y61581D1*
X36197Y56123D2*
X36173Y56171D1*
X36124Y56220D1*
X36076Y56244D1*
X35979D1*
X35930Y56220D1*
X35882Y56171D1*
X35857Y56123D1*
X35833Y56050D1*
Y55928D1*
X35857Y55855D1*
X35882Y55807D1*
X35930Y55758D1*
X35979Y55734D1*
X36076D1*
X36124Y55758D1*
X36173Y55807D1*
X36197Y55855D1*
X36403Y56243D2*
X36670D1*
X36524Y56049D1*
X36597D1*
X36646Y56025D1*
X36670Y56001D1*
X36695Y55928D1*
Y55880D1*
X36670Y55807D1*
X36622Y55758D1*
X36549Y55734D1*
X36476D1*
X36403Y55758D1*
X36379Y55782D1*
X36354Y55831D1*
X37143Y56171D2*
X37119Y56219D1*
X37046Y56243D1*
X36997D1*
X36924Y56219D1*
X36876Y56146D1*
X36851Y56025D1*
Y55904D1*
X36876Y55807D1*
X36924Y55758D1*
X36997Y55734D1*
X37022D1*
X37094Y55758D1*
X37143Y55807D1*
X37167Y55880D1*
Y55904D1*
X37143Y55977D1*
X37094Y56025D1*
X37022Y56049D1*
X36997D1*
X36924Y56025D1*
X36876Y55977D1*
X36851Y55904D1*
X26035Y56673D2*
X26011Y56721D1*
X25962Y56770D1*
X25914Y56794D1*
X25817D1*
X25768Y56770D1*
X25719Y56721D1*
X25695Y56673D1*
X25671Y56600D1*
Y56478D1*
X25695Y56405D1*
X25719Y56357D1*
X25768Y56308D1*
X25817Y56284D1*
X25914D1*
X25962Y56308D1*
X26011Y56357D1*
X26035Y56405D1*
X26241Y56793D2*
X26508D1*
X26362Y56599D1*
X26435D1*
X26483Y56575D1*
X26508Y56551D1*
X26532Y56478D1*
Y56430D1*
X26508Y56357D1*
X26459Y56308D1*
X26386Y56284D1*
X26313D1*
X26241Y56308D1*
X26217Y56332D1*
X26192Y56381D1*
X26786Y56284D2*
X27029Y56793D1*
X26689D1*
X26035Y57923D2*
X26011Y57971D1*
X25962Y58020D1*
X25914Y58044D1*
X25817D1*
X25768Y58020D1*
X25720Y57971D1*
X25695Y57923D1*
X25671Y57850D1*
Y57728D1*
X25695Y57655D1*
X25720Y57607D1*
X25768Y57558D1*
X25817Y57534D1*
X25914D1*
X25962Y57558D1*
X26011Y57607D1*
X26035Y57655D1*
X26241Y58043D2*
X26508D1*
X26362Y57849D1*
X26435D1*
X26484Y57825D1*
X26508Y57801D1*
X26532Y57728D1*
Y57680D1*
X26508Y57607D1*
X26460Y57558D1*
X26387Y57534D1*
X26314D1*
X26241Y57558D1*
X26217Y57582D1*
X26192Y57631D1*
X26811Y58043D2*
X26738Y58019D1*
X26714Y57971D1*
Y57922D1*
X26738Y57874D1*
X26787Y57849D1*
X26884Y57825D1*
X26957Y57801D1*
X27005Y57752D1*
X27029Y57704D1*
Y57631D1*
X27005Y57582D1*
X26981Y57558D1*
X26908Y57534D1*
X26811D1*
X26738Y57558D1*
X26714Y57582D1*
X26689Y57631D1*
Y57704D1*
X26714Y57752D1*
X26762Y57801D1*
X26835Y57825D1*
X26932Y57849D1*
X26981Y57874D1*
X27005Y57922D1*
Y57971D1*
X26981Y58019D1*
X26908Y58043D1*
X26811D1*
X26047Y58973D2*
X26023Y59021D1*
X25974Y59070D1*
X25926Y59094D1*
X25829D1*
X25780Y59070D1*
X25732Y59021D1*
X25707Y58973D1*
X25683Y58900D1*
Y58778D1*
X25707Y58705D1*
X25732Y58657D1*
X25780Y58608D1*
X25829Y58584D1*
X25926D1*
X25974Y58608D1*
X26023Y58657D1*
X26047Y58705D1*
X26253Y59093D2*
X26520D1*
X26374Y58899D1*
X26447D1*
X26495Y58875D1*
X26520Y58851D1*
X26544Y58778D1*
Y58730D1*
X26520Y58657D1*
X26471Y58608D1*
X26398Y58584D1*
X26325D1*
X26253Y58608D1*
X26229Y58632D1*
X26204Y58681D1*
X27017Y58924D2*
X26993Y58851D1*
X26944Y58802D1*
X26871Y58778D1*
X26847D1*
X26774Y58802D1*
X26726Y58851D1*
X26701Y58924D1*
Y58948D1*
X26726Y59021D1*
X26774Y59069D1*
X26847Y59093D1*
X26871D1*
X26944Y59069D1*
X26993Y59021D1*
X27017Y58924D1*
Y58802D1*
X26993Y58681D1*
X26944Y58608D1*
X26871Y58584D1*
X26823D1*
X26750Y58608D1*
X26726Y58657D1*
X47073Y29873D2*
X47049Y29921D1*
X47000Y29970D1*
X46952Y29994D1*
X46855D1*
X46806Y29970D1*
X46757Y29921D1*
X46733Y29873D1*
X46709Y29800D1*
Y29678D1*
X46733Y29605D1*
X46757Y29557D1*
X46806Y29508D1*
X46855Y29484D1*
X46952D1*
X47000Y29508D1*
X47049Y29557D1*
X47073Y29605D1*
X47473Y29484D2*
Y29993D1*
X47230Y29654D1*
X47594D1*
X47897Y29993D2*
X47824Y29969D1*
X47775Y29896D1*
X47751Y29775D1*
Y29702D1*
X47775Y29581D1*
X47824Y29508D1*
X47897Y29484D1*
X47945D1*
X48018Y29508D1*
X48067Y29581D1*
X48091Y29702D1*
Y29775D1*
X48067Y29896D1*
X48018Y29969D1*
X47945Y29993D1*
X47897D1*
X48067Y29896D2*
X47775Y29581D1*
X44727Y21732D2*
X44679Y21708D1*
X44630Y21659D1*
X44606Y21611D1*
Y21514D1*
X44630Y21465D1*
X44679Y21417D1*
X44727Y21392D1*
X44800Y21368D1*
X44922D1*
X44995Y21392D1*
X45043Y21417D1*
X45092Y21465D1*
X45116Y21514D1*
Y21611D1*
X45092Y21659D1*
X45043Y21708D1*
X44995Y21732D1*
X45116Y22132D2*
X44607D1*
X44946Y21889D1*
Y22254D1*
X44704Y22410D2*
X44679Y22459D1*
X44607Y22532D1*
X45116D1*
X45927Y21523D2*
X45879Y21499D1*
X45830Y21450D1*
X45806Y21402D1*
Y21305D1*
X45830Y21256D1*
X45879Y21207D1*
X45927Y21183D1*
X46000Y21159D1*
X46122D1*
X46195Y21183D1*
X46243Y21207D1*
X46292Y21256D1*
X46316Y21305D1*
Y21402D1*
X46292Y21450D1*
X46243Y21499D1*
X46195Y21523D1*
X46316Y21923D2*
X45807D1*
X46146Y21680D1*
Y22044D1*
X45928Y22226D2*
X45904D1*
X45855Y22250D1*
X45831Y22274D1*
X45807Y22323D1*
Y22420D1*
X45831Y22468D1*
X45855Y22493D1*
X45904Y22517D1*
X45952D1*
X46001Y22493D1*
X46073Y22444D1*
X46316Y22201D1*
Y22541D1*
X31344Y36873D2*
X31320Y36921D1*
X31271Y36970D1*
X31223Y36994D1*
X31126D1*
X31077Y36970D1*
X31029Y36921D1*
X31004Y36873D1*
X30980Y36800D1*
Y36678D1*
X31004Y36605D1*
X31029Y36557D1*
X31077Y36508D1*
X31126Y36484D1*
X31223D1*
X31271Y36508D1*
X31320Y36557D1*
X31344Y36605D1*
X31841Y36994D2*
Y36484D1*
X31501Y36994D1*
Y36484D1*
X31998Y36896D2*
X32047Y36921D1*
X32120Y36993D1*
Y36484D1*
X49835Y14448D2*
X49811Y14496D1*
X49762Y14545D1*
X49714Y14569D1*
X49617D1*
X49568Y14545D1*
X49519Y14496D1*
X49495Y14448D1*
X49471Y14375D1*
Y14253D1*
X49495Y14180D1*
X49519Y14132D1*
X49568Y14083D1*
X49617Y14059D1*
X49714D1*
X49762Y14083D1*
X49811Y14132D1*
X49835Y14180D1*
X50332Y14569D2*
Y14059D1*
X49992Y14569D1*
Y14059D1*
X50514Y14447D2*
Y14471D1*
X50538Y14520D1*
X50562Y14544D1*
X50611Y14568D1*
X50708D1*
X50756Y14544D1*
X50781Y14520D1*
X50805Y14471D1*
Y14423D1*
X50781Y14374D1*
X50732Y14302D1*
X50489Y14059D1*
X50829D1*
X58240Y34244D2*
Y33734D1*
X58411D1*
X58484Y33758D1*
X58532Y33807D1*
X58557Y33855D1*
X58581Y33928D1*
Y34050D1*
X58557Y34123D1*
X58532Y34171D1*
X58484Y34220D1*
X58411Y34244D1*
X58240D1*
X58738Y34146D2*
X58787Y34171D1*
X58860Y34243D1*
Y33734D1*
X56381Y24844D2*
Y24334D1*
X56551D1*
X56624Y24358D1*
X56673Y24407D1*
X56697Y24455D1*
X56722Y24528D1*
Y24650D1*
X56697Y24723D1*
X56673Y24771D1*
X56624Y24820D1*
X56551Y24844D1*
X56381D1*
X56903Y24722D2*
Y24746D1*
X56927Y24795D1*
X56951Y24819D1*
X57000Y24843D1*
X57097D1*
X57146Y24819D1*
X57170Y24795D1*
X57195Y24746D1*
Y24698D1*
X57170Y24649D1*
X57122Y24577D1*
X56878Y24334D1*
X57219D1*
X53631Y28944D2*
Y28434D1*
X53801D1*
X53874Y28458D1*
X53923Y28507D1*
X53947Y28555D1*
X53972Y28628D1*
Y28750D1*
X53947Y28823D1*
X53923Y28871D1*
X53874Y28920D1*
X53801Y28944D1*
X53631D1*
X54177Y28943D2*
X54444D1*
X54299Y28749D1*
X54372D1*
X54420Y28725D1*
X54444Y28701D1*
X54469Y28628D1*
Y28580D1*
X54444Y28507D1*
X54396Y28458D1*
X54323Y28434D1*
X54250D1*
X54177Y28458D1*
X54153Y28482D1*
X54128Y28531D1*
X22369Y58094D2*
Y57584D1*
X22539D1*
X22612Y57608D1*
X22661Y57657D1*
X22685Y57705D1*
X22709Y57778D1*
Y57900D1*
X22685Y57973D1*
X22661Y58021D1*
X22612Y58070D1*
X22539Y58094D1*
X22369D1*
X23110Y57584D2*
Y58093D1*
X22866Y57754D1*
X23231D1*
X22381Y56794D2*
Y56284D1*
X22551D1*
X22624Y56308D1*
X22673Y56357D1*
X22697Y56405D1*
X22722Y56478D1*
Y56600D1*
X22697Y56673D1*
X22673Y56721D1*
X22624Y56770D1*
X22551Y56794D1*
X22381D1*
X23170Y56793D2*
X22927D1*
X22903Y56575D1*
X22927Y56599D1*
X23000Y56624D1*
X23073D1*
X23146Y56599D1*
X23195Y56551D1*
X23219Y56478D1*
Y56430D1*
X23195Y56357D1*
X23146Y56308D1*
X23073Y56284D1*
X23000D1*
X22927Y56308D1*
X22903Y56332D1*
X22878Y56381D1*
X50644Y37644D2*
Y37134D1*
X50814D1*
X50887Y37158D1*
X50936Y37207D1*
X50960Y37255D1*
X50984Y37328D1*
Y37450D1*
X50960Y37523D1*
X50936Y37571D1*
X50887Y37620D1*
X50814Y37644D1*
X50644D1*
X51432Y37571D2*
X51408Y37619D1*
X51335Y37643D1*
X51287D1*
X51214Y37619D1*
X51165Y37546D1*
X51141Y37425D1*
Y37304D1*
X51165Y37207D1*
X51214Y37158D1*
X51287Y37134D1*
X51311D1*
X51383Y37158D1*
X51432Y37207D1*
X51456Y37280D1*
Y37304D1*
X51432Y37377D1*
X51383Y37425D1*
X51311Y37449D1*
X51287D1*
X51214Y37425D1*
X51165Y37377D1*
X51141Y37304D1*
X40881Y51544D2*
Y51034D1*
X41051D1*
X41124Y51058D1*
X41173Y51107D1*
X41197Y51155D1*
X41222Y51228D1*
Y51350D1*
X41197Y51423D1*
X41173Y51471D1*
X41124Y51520D1*
X41051Y51544D1*
X40881D1*
X41476Y51034D2*
X41719Y51543D1*
X41378D1*
X48082Y37644D2*
Y37134D1*
X48252D1*
X48325Y37158D1*
X48374Y37207D1*
X48398Y37255D1*
X48422Y37328D1*
Y37450D1*
X48398Y37523D1*
X48374Y37571D1*
X48325Y37620D1*
X48252Y37644D1*
X48082D1*
X48700Y37643D2*
X48628Y37619D1*
X48603Y37571D1*
Y37522D1*
X48628Y37474D1*
X48676Y37449D1*
X48773Y37425D1*
X48846Y37401D1*
X48894Y37352D1*
X48918Y37304D1*
Y37231D1*
X48894Y37182D1*
X48870Y37158D1*
X48797Y37134D1*
X48700D1*
X48628Y37158D1*
X48603Y37182D1*
X48579Y37231D1*
Y37304D1*
X48603Y37352D1*
X48652Y37401D1*
X48724Y37425D1*
X48821Y37449D1*
X48870Y37474D1*
X48894Y37522D1*
Y37571D1*
X48870Y37619D1*
X48797Y37643D1*
X48700D1*
X49343Y37644D2*
Y37134D1*
X49513D1*
X49586Y37158D1*
X49635Y37207D1*
X49659Y37255D1*
X49684Y37328D1*
Y37450D1*
X49659Y37523D1*
X49635Y37571D1*
X49586Y37620D1*
X49513Y37644D1*
X49343D1*
X50157Y37474D2*
X50132Y37401D1*
X50084Y37352D1*
X50011Y37328D1*
X49987D1*
X49914Y37352D1*
X49865Y37401D1*
X49841Y37474D1*
Y37498D1*
X49865Y37571D1*
X49914Y37619D1*
X49987Y37643D1*
X50011D1*
X50084Y37619D1*
X50132Y37571D1*
X50157Y37474D1*
Y37352D1*
X50132Y37231D1*
X50084Y37158D1*
X50011Y37134D1*
X49962D1*
X49889Y37158D1*
X49865Y37207D1*
X61112Y57824D2*
Y57435D1*
X61088Y57362D1*
X61063Y57338D1*
X61015Y57314D1*
X60966D1*
X60918Y57338D1*
X60894Y57362D1*
X60869Y57435D1*
Y57484D1*
X61269Y57726D2*
X61318Y57751D1*
X61391Y57823D1*
Y57314D1*
X61003Y75644D2*
Y75255D1*
X60979Y75182D1*
X60954Y75158D1*
X60906Y75134D1*
X60857D1*
X60809Y75158D1*
X60785Y75182D1*
X60760Y75255D1*
Y75304D1*
X61185Y75522D2*
Y75546D1*
X61209Y75595D1*
X61233Y75619D1*
X61282Y75643D1*
X61379D1*
X61427Y75619D1*
X61451Y75595D1*
X61476Y75546D1*
Y75498D1*
X61451Y75449D1*
X61403Y75377D1*
X61160Y75134D1*
X61500D1*
X12743Y75604D2*
Y75215D1*
X12719Y75142D1*
X12694Y75118D1*
X12646Y75094D1*
X12597D1*
X12549Y75118D1*
X12525Y75142D1*
X12500Y75215D1*
Y75264D1*
X12949Y75603D2*
X13215D1*
X13070Y75409D1*
X13143D1*
X13191Y75385D1*
X13215Y75361D1*
X13240Y75288D1*
Y75240D1*
X13215Y75167D1*
X13167Y75118D1*
X13094Y75094D1*
X13021D1*
X12949Y75118D1*
X12925Y75142D1*
X12900Y75191D1*
X12731Y53720D2*
Y53331D1*
X12707Y53258D1*
X12682Y53234D1*
X12634Y53210D1*
X12585D1*
X12537Y53234D1*
X12512Y53258D1*
X12488Y53331D1*
Y53380D1*
X13131Y53210D2*
Y53719D1*
X12888Y53380D1*
X13252D1*
X53961Y59754D2*
Y59365D1*
X53937Y59292D1*
X53912Y59268D1*
X53864Y59244D1*
X53815D1*
X53767Y59268D1*
X53742Y59292D1*
X53718Y59365D1*
Y59414D1*
X54409Y59753D2*
X54167D1*
X54142Y59535D1*
X54167Y59559D1*
X54240Y59584D1*
X54312D1*
X54385Y59559D1*
X54434Y59511D1*
X54458Y59438D1*
Y59390D1*
X54434Y59317D1*
X54385Y59268D1*
X54312Y59244D1*
X54240D1*
X54167Y59268D1*
X54142Y59292D1*
X54118Y59341D1*
X17599Y59754D2*
Y59365D1*
X17575Y59292D1*
X17550Y59268D1*
X17502Y59244D1*
X17453D1*
X17405Y59268D1*
X17380Y59292D1*
X17356Y59365D1*
Y59414D1*
X17805Y59753D2*
X18071D1*
X17926Y59559D1*
X17999D1*
X18047Y59535D1*
X18071Y59511D1*
X18096Y59438D1*
Y59390D1*
X18071Y59317D1*
X18023Y59268D1*
X17950Y59244D1*
X17877D1*
X17805Y59268D1*
X17780Y59292D1*
X17756Y59341D1*
X18544Y59584D2*
Y59244D1*
Y59511D2*
X18496Y59560D1*
X18447Y59584D1*
X18375D1*
X18326Y59560D1*
X18278Y59511D1*
X18253Y59438D1*
Y59390D1*
X18278Y59317D1*
X18326Y59268D1*
X18375Y59244D1*
X18447D1*
X18496Y59268D1*
X18544Y59317D1*
X15059Y59754D2*
Y59365D1*
X15035Y59292D1*
X15010Y59268D1*
X14962Y59244D1*
X14913D1*
X14865Y59268D1*
X14840Y59292D1*
X14816Y59365D1*
Y59414D1*
X15265Y59753D2*
X15531D1*
X15386Y59559D1*
X15459D1*
X15507Y59535D1*
X15531Y59511D1*
X15556Y59438D1*
Y59390D1*
X15531Y59317D1*
X15483Y59268D1*
X15410Y59244D1*
X15337D1*
X15265Y59268D1*
X15240Y59292D1*
X15216Y59341D1*
X15713Y59754D2*
Y59244D1*
Y59511D2*
X15762Y59560D1*
X15810Y59584D1*
X15883D1*
X15931Y59560D1*
X15980Y59511D1*
X16004Y59438D1*
Y59390D1*
X15980Y59317D1*
X15931Y59268D1*
X15883Y59244D1*
X15810D1*
X15762Y59268D1*
X15713Y59317D1*
X33356Y59807D2*
X33866D1*
Y60099D1*
X33478Y60280D2*
X33454D1*
X33405Y60304D1*
X33381Y60328D1*
X33357Y60377D1*
Y60474D1*
X33381Y60523D1*
X33405Y60547D1*
X33454Y60572D1*
X33502D1*
X33551Y60547D1*
X33623Y60499D1*
X33866Y60255D1*
Y60596D1*
X33357Y60899D2*
X33381Y60826D1*
X33454Y60777D1*
X33575Y60753D1*
X33648D1*
X33769Y60777D1*
X33842Y60826D1*
X33866Y60899D1*
Y60947D1*
X33842Y61020D1*
X33769Y61068D1*
X33648Y61093D1*
X33575D1*
X33454Y61068D1*
X33381Y61020D1*
X33357Y60947D1*
Y60899D1*
X33454Y61068D2*
X33769Y60777D1*
X35606Y61616D2*
X36116D1*
Y61908D1*
X35728Y62089D2*
X35704D1*
X35655Y62114D1*
X35631Y62138D1*
X35607Y62187D1*
Y62284D1*
X35631Y62332D1*
X35655Y62356D1*
X35704Y62381D1*
X35752D1*
X35801Y62356D1*
X35873Y62308D1*
X36116Y62065D1*
Y62405D1*
X35704Y62562D2*
X35679Y62611D1*
X35607Y62684D1*
X36116D1*
X35656Y63857D2*
X36166D1*
Y64149D1*
X35778Y64330D2*
X35754D1*
X35705Y64354D1*
X35681Y64378D1*
X35657Y64427D1*
Y64524D1*
X35681Y64573D1*
X35705Y64597D1*
X35754Y64622D1*
X35802D1*
X35851Y64597D1*
X35923Y64549D1*
X36166Y64305D1*
Y64646D1*
X35778Y64827D2*
X35754D1*
X35705Y64851D1*
X35681Y64876D1*
X35657Y64924D1*
Y65022D1*
X35681Y65070D1*
X35705Y65094D1*
X35754Y65119D1*
X35802D1*
X35851Y65094D1*
X35923Y65046D1*
X36166Y64803D1*
Y65143D1*
X35606Y66057D2*
X36116D1*
Y66349D1*
X35728Y66530D2*
X35704D1*
X35655Y66554D1*
X35631Y66578D1*
X35607Y66627D1*
Y66724D1*
X35631Y66773D1*
X35655Y66797D1*
X35704Y66822D1*
X35752D1*
X35801Y66797D1*
X35873Y66749D1*
X36116Y66505D1*
Y66846D1*
X35607Y67051D2*
Y67318D1*
X35801Y67173D1*
Y67246D1*
X35825Y67294D1*
X35849Y67318D1*
X35922Y67343D1*
X35970D1*
X36043Y67318D1*
X36092Y67270D1*
X36116Y67197D1*
Y67124D1*
X36092Y67051D1*
X36068Y67027D1*
X36019Y67003D1*
X39056Y57945D2*
X39566D1*
Y58236D1*
X39178Y58418D2*
X39154D1*
X39105Y58442D1*
X39081Y58466D1*
X39057Y58515D1*
Y58612D1*
X39081Y58661D1*
X39105Y58685D1*
X39154Y58710D1*
X39202D1*
X39251Y58685D1*
X39323Y58637D1*
X39566Y58393D1*
Y58734D1*
Y59134D2*
X39057D1*
X39396Y58891D1*
Y59255D1*
X37007Y60444D2*
Y59934D1*
X37299D1*
X37480Y60322D2*
Y60346D1*
X37504Y60395D1*
X37528Y60419D1*
X37577Y60443D1*
X37674D1*
X37723Y60419D1*
X37747Y60395D1*
X37772Y60346D1*
Y60298D1*
X37747Y60249D1*
X37699Y60177D1*
X37455Y59934D1*
X37796D1*
X38244Y60443D2*
X38001D1*
X37977Y60225D1*
X38001Y60249D1*
X38074Y60274D1*
X38147D1*
X38220Y60249D1*
X38269Y60201D1*
X38293Y60128D1*
Y60080D1*
X38269Y60007D1*
X38220Y59958D1*
X38147Y59934D1*
X38074D1*
X38001Y59958D1*
X37977Y59982D1*
X37953Y60031D1*
X35756Y56969D2*
X36266D1*
Y57261D1*
X35878Y57442D2*
X35854D1*
X35805Y57467D1*
X35781Y57491D1*
X35757Y57540D1*
Y57637D1*
X35781Y57685D1*
X35805Y57709D1*
X35854Y57734D1*
X35902D1*
X35951Y57709D1*
X36023Y57661D1*
X36266Y57418D1*
Y57758D1*
X35829Y58206D2*
X35781Y58182D1*
X35757Y58109D1*
Y58061D1*
X35781Y57988D1*
X35854Y57939D1*
X35975Y57915D1*
X36096D1*
X36193Y57939D1*
X36242Y57988D1*
X36266Y58061D1*
Y58085D1*
X36242Y58158D1*
X36193Y58206D1*
X36120Y58231D1*
X36096D1*
X36023Y58206D1*
X35975Y58158D1*
X35951Y58085D1*
Y58061D1*
X35975Y57988D1*
X36023Y57939D1*
X36096Y57915D1*
X27237Y60694D2*
Y60184D1*
X27529D1*
X27710Y60572D2*
Y60596D1*
X27734Y60645D1*
X27758Y60669D1*
X27807Y60693D1*
X27904D1*
X27953Y60669D1*
X27977Y60645D1*
X28002Y60596D1*
Y60548D1*
X27977Y60499D1*
X27929Y60427D1*
X27685Y60184D1*
X28026D1*
X28280D2*
X28523Y60693D1*
X28183D1*
X27856Y62207D2*
X28366D1*
Y62499D1*
X27978Y62680D2*
X27954D1*
X27905Y62705D1*
X27881Y62729D1*
X27857Y62778D1*
Y62875D1*
X27881Y62923D1*
X27905Y62947D1*
X27954Y62972D1*
X28002D1*
X28051Y62947D1*
X28123Y62899D1*
X28366Y62656D1*
Y62996D1*
X27857Y63274D2*
X27881Y63202D1*
X27929Y63177D1*
X27978D1*
X28026Y63202D1*
X28051Y63250D1*
X28075Y63347D1*
X28099Y63420D1*
X28148Y63468D1*
X28196Y63493D1*
X28269D1*
X28318Y63468D1*
X28342Y63444D1*
X28366Y63371D1*
Y63274D1*
X28342Y63202D1*
X28318Y63177D1*
X28269Y63153D1*
X28196D1*
X28148Y63177D1*
X28099Y63226D1*
X28075Y63298D1*
X28051Y63395D1*
X28026Y63444D1*
X27978Y63468D1*
X27929D1*
X27881Y63444D1*
X27857Y63371D1*
Y63274D1*
X36869Y66344D2*
Y65834D1*
X37161D1*
X37342Y66222D2*
Y66246D1*
X37366Y66295D1*
X37390Y66319D1*
X37439Y66343D1*
X37536D1*
X37585Y66319D1*
X37609Y66295D1*
X37634Y66246D1*
Y66198D1*
X37609Y66149D1*
X37561Y66077D1*
X37318Y65834D1*
X37658D1*
X38131Y66174D2*
X38106Y66101D1*
X38058Y66052D1*
X37985Y66028D1*
X37961D1*
X37888Y66052D1*
X37839Y66101D1*
X37815Y66174D1*
Y66198D1*
X37839Y66271D1*
X37888Y66319D1*
X37961Y66343D1*
X37985D1*
X38058Y66319D1*
X38106Y66271D1*
X38131Y66174D1*
Y66052D1*
X38106Y65931D1*
X38058Y65858D1*
X37985Y65834D1*
X37937D1*
X37864Y65858D1*
X37839Y65907D1*
X40047Y48196D2*
Y48415D1*
X40022Y48488D1*
X39998Y48513D1*
X39950Y48537D1*
X39901D1*
X39852Y48513D1*
X39828Y48488D1*
X39804Y48415D1*
Y48196D1*
X40314D1*
X40047Y48367D2*
X40314Y48537D1*
X39901Y48694D2*
X39877Y48742D1*
X39804Y48815D1*
X40314D1*
X53831Y25451D2*
X54050D1*
X54123Y25476D1*
X54147Y25500D1*
X54172Y25548D1*
Y25597D1*
X54147Y25645D1*
X54123Y25670D1*
X54050Y25694D1*
X53831D1*
Y25184D1*
X54001Y25451D2*
X54172Y25184D1*
X54353Y25572D2*
Y25596D1*
X54377Y25645D1*
X54401Y25669D1*
X54450Y25693D1*
X54547D1*
X54596Y25669D1*
X54620Y25645D1*
X54645Y25596D1*
Y25548D1*
X54620Y25499D1*
X54572Y25427D1*
X54328Y25184D1*
X54669D1*
X52631Y25451D2*
X52850D1*
X52923Y25476D1*
X52947Y25500D1*
X52972Y25548D1*
Y25597D1*
X52947Y25645D1*
X52923Y25670D1*
X52850Y25694D1*
X52631D1*
Y25184D1*
X52801Y25451D2*
X52972Y25184D1*
X53177Y25693D2*
X53444D1*
X53299Y25499D1*
X53372D1*
X53420Y25475D1*
X53444Y25451D1*
X53469Y25378D1*
Y25330D1*
X53444Y25257D1*
X53396Y25208D1*
X53323Y25184D1*
X53250D1*
X53177Y25208D1*
X53153Y25232D1*
X53128Y25281D1*
X22269Y59151D2*
X22488D1*
X22561Y59176D1*
X22585Y59200D1*
X22609Y59248D1*
Y59297D1*
X22585Y59345D1*
X22561Y59370D1*
X22488Y59394D1*
X22269D1*
Y58884D1*
X22439Y59151D2*
X22609Y58884D1*
X23010D2*
Y59393D1*
X22766Y59054D1*
X23131D1*
X22381Y55741D2*
X22600D1*
X22673Y55766D1*
X22697Y55790D1*
X22722Y55838D1*
Y55887D1*
X22697Y55935D1*
X22673Y55960D1*
X22600Y55984D1*
X22381D1*
Y55474D1*
X22551Y55741D2*
X22722Y55474D1*
X23170Y55983D2*
X22927D1*
X22903Y55765D1*
X22927Y55789D1*
X23000Y55814D1*
X23073D1*
X23146Y55789D1*
X23195Y55741D1*
X23219Y55668D1*
Y55620D1*
X23195Y55547D1*
X23146Y55498D1*
X23073Y55474D1*
X23000D1*
X22927Y55498D1*
X22903Y55522D1*
X22878Y55571D1*
X38989Y41962D2*
Y42181D1*
X38964Y42254D1*
X38940Y42278D1*
X38892Y42302D1*
X38843D1*
X38794Y42278D1*
X38770Y42254D1*
X38746Y42181D1*
Y41962D1*
X39256D1*
X38989Y42132D2*
X39256Y42302D1*
X38819Y42751D2*
X38770Y42727D1*
X38746Y42654D1*
Y42605D1*
X38770Y42532D1*
X38843Y42483D1*
X38965Y42459D1*
X39086D1*
X39183Y42483D1*
X39232Y42532D1*
X39256Y42605D1*
Y42629D1*
X39232Y42702D1*
X39183Y42751D1*
X39110Y42775D1*
X39086D1*
X39013Y42751D1*
X38965Y42702D1*
X38940Y42629D1*
Y42605D1*
X38965Y42532D1*
X39013Y42483D1*
X39086Y42459D1*
X32433Y62151D2*
X32651D1*
X32724Y62176D1*
X32749Y62200D1*
X32773Y62248D1*
Y62297D1*
X32749Y62345D1*
X32724Y62370D1*
X32651Y62394D1*
X32433D1*
Y61884D1*
X32603Y62151D2*
X32773Y61884D1*
X32955Y62272D2*
Y62296D1*
X32979Y62345D1*
X33003Y62369D1*
X33052Y62393D1*
X33149D1*
X33197Y62369D1*
X33221Y62345D1*
X33246Y62296D1*
Y62248D1*
X33221Y62199D1*
X33173Y62127D1*
X32930Y61884D1*
X33270D1*
X33573Y62393D2*
X33500Y62369D1*
X33451Y62296D1*
X33427Y62175D1*
Y62102D1*
X33451Y61981D1*
X33500Y61908D1*
X33573Y61884D1*
X33621D1*
X33694Y61908D1*
X33743Y61981D1*
X33767Y62102D1*
Y62175D1*
X33743Y62296D1*
X33694Y62369D1*
X33621Y62393D1*
X33573D1*
X33743Y62296D2*
X33451Y61981D1*
X33749Y65242D2*
Y65460D1*
X33724Y65533D1*
X33700Y65558D1*
X33652Y65582D1*
X33603D1*
X33555Y65558D1*
X33530Y65533D1*
X33506Y65460D1*
Y65242D1*
X34016D1*
X33749Y65412D2*
X34016Y65582D1*
X33628Y65764D2*
X33604D1*
X33555Y65788D1*
X33531Y65812D1*
X33507Y65861D1*
Y65958D1*
X33531Y66006D1*
X33555Y66031D1*
X33604Y66055D1*
X33652D1*
X33701Y66031D1*
X33773Y65982D1*
X34016Y65739D1*
Y66079D1*
X33604Y66236D2*
X33579Y66285D1*
X33507Y66358D1*
X34016D1*
X46731Y47121D2*
X46682Y47170D1*
X46609Y47194D1*
X46512D1*
X46439Y47170D1*
X46390Y47121D1*
Y47073D1*
X46415Y47024D1*
X46439Y47000D1*
X46488Y46976D1*
X46634Y46927D1*
X46682Y46903D1*
X46707Y46878D1*
X46731Y46830D1*
Y46757D1*
X46682Y46708D1*
X46609Y46684D1*
X46512D1*
X46439Y46708D1*
X46390Y46757D1*
X46888Y47096D2*
X46937Y47121D1*
X47010Y47193D1*
Y46684D1*
X46772Y43621D2*
X46723Y43670D1*
X46650Y43694D1*
X46553D1*
X46480Y43670D1*
X46431Y43621D1*
Y43573D1*
X46456Y43524D1*
X46480Y43500D1*
X46528Y43476D1*
X46674Y43427D1*
X46723Y43403D1*
X46747Y43378D1*
X46772Y43330D1*
Y43257D1*
X46723Y43208D1*
X46650Y43184D1*
X46553D1*
X46480Y43208D1*
X46431Y43257D1*
X46953Y43572D2*
Y43596D1*
X46977Y43645D1*
X47001Y43669D1*
X47050Y43693D1*
X47147D1*
X47196Y43669D1*
X47220Y43645D1*
X47245Y43596D1*
Y43548D1*
X47220Y43499D1*
X47172Y43427D1*
X46928Y43184D1*
X47269D1*
X30678Y45294D2*
Y44930D1*
X30702Y44857D1*
X30751Y44808D1*
X30824Y44784D1*
X30872D1*
X30945Y44808D1*
X30994Y44857D1*
X31018Y44930D1*
Y45294D1*
X31175Y45196D2*
X31224Y45221D1*
X31297Y45293D1*
Y44784D1*
X34654Y59544D2*
Y59180D1*
X34678Y59107D1*
X34727Y59058D1*
X34800Y59034D1*
X34848D1*
X34921Y59058D1*
X34970Y59107D1*
X34994Y59180D1*
Y59544D1*
X35176Y59422D2*
Y59446D1*
X35200Y59495D1*
X35224Y59519D1*
X35273Y59543D1*
X35370D1*
X35418Y59519D1*
X35442Y59495D1*
X35467Y59446D1*
Y59398D1*
X35442Y59349D1*
X35394Y59277D1*
X35151Y59034D1*
X35491D1*
X49031Y23764D2*
Y23400D1*
X49055Y23327D1*
X49104Y23278D1*
X49177Y23254D1*
X49226D1*
X49299Y23278D1*
X49347Y23327D1*
X49372Y23400D1*
Y23764D1*
X49577Y23763D2*
X49844D1*
X49699Y23569D1*
X49772D1*
X49820Y23545D1*
X49844Y23521D1*
X49869Y23448D1*
Y23400D1*
X49844Y23327D1*
X49796Y23278D1*
X49723Y23254D1*
X49650D1*
X49577Y23278D1*
X49553Y23302D1*
X49528Y23351D1*
X53744Y32144D2*
Y31780D1*
X53768Y31707D1*
X53817Y31658D1*
X53890Y31634D1*
X53938D1*
X54011Y31658D1*
X54060Y31707D1*
X54084Y31780D1*
Y32144D1*
X54485Y31634D2*
Y32143D1*
X54241Y31804D1*
X54606D1*
X57556Y29394D2*
Y29030D1*
X57580Y28957D1*
X57629Y28908D1*
X57702Y28884D1*
X57751D1*
X57824Y28908D1*
X57872Y28957D1*
X57897Y29030D1*
Y29394D1*
X58345Y29393D2*
X58102D1*
X58078Y29175D1*
X58102Y29199D1*
X58175Y29224D1*
X58248D1*
X58321Y29199D1*
X58370Y29151D1*
X58394Y29078D1*
Y29030D1*
X58370Y28957D1*
X58321Y28908D1*
X58248Y28884D1*
X58175D1*
X58102Y28908D1*
X58078Y28932D1*
X58053Y28981D1*
X46669Y27194D2*
Y26830D1*
X46693Y26757D1*
X46742Y26708D1*
X46815Y26684D1*
X46863D1*
X46936Y26708D1*
X46985Y26757D1*
X47009Y26830D1*
Y27194D1*
X47457Y27121D2*
X47433Y27169D1*
X47360Y27193D1*
X47312D1*
X47239Y27169D1*
X47190Y27096D1*
X47166Y26975D1*
Y26854D1*
X47190Y26757D1*
X47239Y26708D1*
X47312Y26684D1*
X47336D1*
X47408Y26708D1*
X47457Y26757D1*
X47481Y26830D1*
Y26854D1*
X47457Y26927D1*
X47408Y26975D1*
X47336Y26999D1*
X47312D1*
X47239Y26975D1*
X47190Y26927D1*
X47166Y26854D1*
X36620Y48064D2*
X36961Y47554D1*
Y48064D2*
X36620Y47554D1*
X37118Y47966D2*
X37167Y47991D1*
X37240Y48063D1*
Y47554D1*
X35945Y53069D2*
X36285Y52559D1*
Y53069D2*
X35945Y52559D1*
X36467Y52947D2*
Y52971D1*
X36491Y53020D1*
X36515Y53044D1*
X36564Y53068D1*
X36661D1*
X36710Y53044D1*
X36734Y53020D1*
X36759Y52971D1*
Y52923D1*
X36734Y52874D1*
X36686Y52802D1*
X36442Y52559D1*
X36783D1*
X37086Y53068D2*
X37013Y53044D1*
X36964Y52971D1*
X36940Y52850D1*
Y52777D1*
X36964Y52656D1*
X37013Y52583D1*
X37086Y52559D1*
X37134D1*
X37207Y52583D1*
X37255Y52656D1*
X37280Y52777D1*
Y52850D1*
X37255Y52971D1*
X37207Y53044D1*
X37134Y53068D1*
X37086D1*
X37255Y52971D2*
X36964Y52656D1*
X48139Y73680D2*
X48188Y73705D1*
X48261Y73777D1*
Y73267D1*
X48418Y73778D2*
Y73267D1*
X48661Y73608D2*
X48418Y73364D1*
X48515Y73462D2*
X48685Y73267D1*
X49134Y73777D2*
X48891D1*
X48867Y73559D1*
X48891Y73583D1*
X48964Y73608D1*
X49036D1*
X49109Y73583D1*
X49158Y73535D1*
X49182Y73462D1*
Y73413D1*
X49158Y73340D1*
X49109Y73291D1*
X49036Y73267D1*
X48964D1*
X48891Y73291D1*
X48867Y73316D1*
X48842Y73364D1*
X49979Y73778D2*
X49930Y73754D1*
X49882Y73705D1*
X49857Y73656D1*
X49833Y73583D1*
Y73462D1*
X49857Y73389D1*
X49882Y73340D1*
X49930Y73292D1*
X49979Y73267D1*
X50076D1*
X50124Y73292D1*
X50173Y73340D1*
X50197Y73389D1*
X50222Y73462D1*
Y73583D1*
X50197Y73656D1*
X50173Y73705D1*
X50124Y73754D1*
X50076Y73778D1*
X49979D1*
X50378D2*
Y73267D1*
Y73510D2*
X50451Y73583D1*
X50500Y73608D1*
X50573D1*
X50622Y73583D1*
X50646Y73510D1*
Y73267D1*
X50803Y73608D2*
Y73267D1*
Y73510D2*
X50876Y73583D1*
X50924Y73608D1*
X50997D1*
X51046Y73583D1*
X51070Y73510D1*
Y73267D1*
Y73510D2*
X51143Y73583D1*
X51192Y73608D1*
X51264D1*
X51313Y73583D1*
X51338Y73510D1*
Y73267D1*
X45009Y69542D2*
D117*
X45300Y68776D1*
X45592Y69542D1*
X46264D2*
Y68776D1*
Y69177D2*
X46192Y69250D1*
X46118Y69286D1*
X46009D1*
X45936Y69250D1*
X45863Y69177D1*
X45827Y69067D1*
Y68995D1*
X45863Y68885D1*
X45936Y68813D1*
X46009Y68776D1*
X46118D1*
X46192Y68813D1*
X46264Y68885D1*
X46937Y69542D2*
Y68776D1*
Y69177D2*
X46864Y69250D1*
X46791Y69286D1*
X46681D1*
X46609Y69250D1*
X46536Y69177D1*
X46499Y69067D1*
Y68995D1*
X46536Y68885D1*
X46609Y68813D1*
X46681Y68776D1*
X46791D1*
X46864Y68813D1*
X46937Y68885D1*
X52859Y69492D2*
Y68726D1*
X53131Y69309D2*
Y69345D1*
X53167Y69418D1*
X53204Y69454D1*
X53277Y69491D1*
X53423D1*
X53495Y69454D1*
X53531Y69418D1*
X53568Y69345D1*
Y69273D1*
X53531Y69199D1*
X53459Y69091D1*
X53094Y68726D1*
X53605D1*
X54387Y69310D2*
X54350Y69382D1*
X54277Y69455D1*
X54205Y69492D1*
X54059D1*
X53986Y69455D1*
X53913Y69382D1*
X53876Y69310D1*
X53840Y69200D1*
Y69017D1*
X53876Y68909D1*
X53913Y68835D1*
X53986Y68763D1*
X54059Y68726D1*
X54205D1*
X54277Y68763D1*
X54350Y68835D1*
X54387Y68909D1*
X42950Y49448D2*
D20*
X43387D1*
X43533Y49497D1*
X43582Y49545D1*
X43631Y49642D1*
Y49740D1*
X43582Y49836D1*
X43533Y49886D1*
X43387Y49934D1*
X42950D1*
Y48913D1*
X43290Y49448D2*
X43631Y48913D1*
X44575Y49934D2*
X43944D1*
Y48913D1*
X44575D1*
X43944Y49448D2*
X44333D1*
X45570Y49788D2*
X45473Y49886D1*
X45327Y49934D1*
X45133D1*
X44987Y49886D1*
X44889Y49788D1*
Y49691D1*
X44939Y49594D1*
X44987Y49545D1*
X45083Y49497D1*
X45375Y49399D1*
X45473Y49351D1*
X45521Y49302D1*
X45570Y49205D1*
Y49059D1*
X45473Y48962D1*
X45327Y48913D1*
X45133D1*
X44987Y48962D1*
X44889Y49059D1*
X41950Y41234D2*
Y40213D1*
X42388D1*
X42534Y40262D1*
X42582Y40311D1*
X42631Y40407D1*
Y40553D1*
X42582Y40651D1*
X42534Y40699D1*
X42388Y40748D1*
X42534Y40797D1*
X42582Y40845D1*
X42631Y40942D1*
Y41040D1*
X42582Y41136D1*
X42534Y41186D1*
X42388Y41234D1*
X41950D1*
Y40748D2*
X42388D1*
X43236Y41234D2*
X43139Y41186D1*
X43042Y41088D1*
X42993Y40991D1*
X42944Y40845D1*
Y40602D1*
X42993Y40457D1*
X43042Y40359D1*
X43139Y40262D1*
X43236Y40213D1*
X43431D1*
X43527Y40262D1*
X43625Y40359D1*
X43673Y40457D1*
X43721Y40602D1*
Y40845D1*
X43673Y40991D1*
X43625Y41088D1*
X43527Y41186D1*
X43431Y41234D1*
X43236D1*
X44327D2*
X44229Y41186D1*
X44133Y41088D1*
X44083Y40991D1*
X44035Y40845D1*
Y40602D1*
X44083Y40457D1*
X44133Y40359D1*
X44229Y40262D1*
X44327Y40213D1*
X44521D1*
X44618Y40262D1*
X44716Y40359D1*
X44764Y40457D1*
X44812Y40602D1*
Y40845D1*
X44764Y40991D1*
X44716Y41088D1*
X44618Y41186D1*
X44521Y41234D1*
X44327D1*
X45466D2*
Y40213D1*
X45126Y41234D2*
X45807D1*
X48139Y71180D2*
D12*
X48188Y71205D1*
X48261Y71277D1*
Y70767D1*
X48418Y71278D2*
Y70767D1*
X48661Y71108D2*
X48418Y70864D1*
X48515Y70962D2*
X48685Y70767D1*
X49134Y71277D2*
X48891D1*
X48867Y71059D1*
X48891Y71083D1*
X48964Y71108D1*
X49036D1*
X49109Y71083D1*
X49158Y71035D1*
X49182Y70962D1*
Y70913D1*
X49158Y70840D1*
X49109Y70791D1*
X49036Y70767D1*
X48964D1*
X48891Y70791D1*
X48867Y70816D1*
X48842Y70864D1*
X49979Y71278D2*
X49930Y71254D1*
X49882Y71205D1*
X49857Y71156D1*
X49833Y71083D1*
Y70962D1*
X49857Y70889D1*
X49882Y70840D1*
X49930Y70792D1*
X49979Y70767D1*
X50076D1*
X50124Y70792D1*
X50173Y70840D1*
X50197Y70889D1*
X50222Y70962D1*
Y71083D1*
X50197Y71156D1*
X50173Y71205D1*
X50124Y71254D1*
X50076Y71278D1*
X49979D1*
X50378D2*
Y70767D1*
Y71010D2*
X50451Y71083D1*
X50500Y71108D1*
X50573D1*
X50622Y71083D1*
X50646Y71010D1*
Y70767D1*
X50803Y71108D2*
Y70767D1*
Y71010D2*
X50876Y71083D1*
X50924Y71108D1*
X50997D1*
X51046Y71083D1*
X51070Y71010D1*
Y70767D1*
Y71010D2*
X51143Y71083D1*
X51192Y71108D1*
X51264D1*
X51313Y71083D1*
X51338Y71010D1*
Y70767D1*
X48758Y58671D2*
D117*
X49050Y57906D1*
X49341Y58671D1*
X50014Y58306D2*
X49941Y58380D1*
X49868Y58416D1*
X49759D1*
X49686Y58380D1*
X49614Y58306D1*
X49576Y58197D1*
Y58125D1*
X49614Y58015D1*
X49686Y57943D1*
X49759Y57906D1*
X49868D1*
X49941Y57943D1*
X50014Y58015D1*
X50688Y58306D2*
X50614Y58380D1*
X50541Y58416D1*
X50433D1*
X50359Y58380D1*
X50287Y58306D1*
X50250Y58197D1*
Y58125D1*
X50287Y58015D1*
X50359Y57943D1*
X50433Y57906D1*
X50541D1*
X50614Y57943D1*
X50688Y58015D1*
X47999Y50942D2*
X47926Y51015D1*
X47817Y51051D1*
X47671D1*
X47562Y51015D1*
X47488Y50942D1*
Y50869D1*
X47526Y50796D1*
X47562Y50760D1*
X47634Y50724D1*
X47853Y50650D1*
X47926Y50614D1*
X47963Y50577D1*
X47999Y50505D1*
Y50395D1*
X47926Y50323D1*
X47817Y50286D1*
X47671D1*
X47562Y50323D1*
X47488Y50395D1*
X48234Y51051D2*
X48417Y50286D1*
X48599Y51051D1*
X48781Y50286D1*
X48964Y51051D1*
X49199D2*
Y50286D1*
X49454D1*
X49564Y50323D1*
X49637Y50395D1*
X49673Y50468D1*
X49709Y50577D1*
Y50760D1*
X49673Y50869D1*
X49637Y50942D1*
X49564Y51015D1*
X49454Y51051D1*
X49199D1*
X49945D2*
Y50286D1*
X50399Y51051D2*
X50326Y51015D1*
X50253Y50942D1*
X50216Y50869D1*
X50180Y50760D1*
Y50577D1*
X50216Y50468D1*
X50253Y50395D1*
X50326Y50323D1*
X50399Y50286D1*
X50545D1*
X50617Y50323D1*
X50690Y50395D1*
X50727Y50468D1*
X50763Y50577D1*
Y50760D1*
X50727Y50869D1*
X50690Y50942D1*
X50617Y51015D1*
X50545Y51051D1*
X50399D1*
X47499Y48401D2*
X47427Y48474D1*
X47317Y48511D1*
X47172D1*
X47062Y48474D1*
X46989Y48401D1*
Y48329D1*
X47026Y48255D1*
X47062Y48219D1*
X47135Y48183D1*
X47354Y48110D1*
X47427Y48073D1*
X47463Y48036D1*
X47499Y47964D1*
Y47854D1*
X47427Y47782D1*
X47317Y47745D1*
X47172D1*
X47062Y47782D1*
X46989Y47854D1*
X47735Y48511D2*
X47917Y47745D1*
X48099Y48511D1*
X48281Y47745D1*
X48464Y48511D1*
X49246Y48329D2*
X49210Y48401D1*
X49136Y48474D1*
X49064Y48511D1*
X48918D1*
X48845Y48474D1*
X48773Y48401D1*
X48736Y48329D1*
X48699Y48219D1*
Y48036D1*
X48736Y47928D1*
X48773Y47854D1*
X48845Y47782D1*
X48918Y47745D1*
X49064D1*
X49136Y47782D1*
X49210Y47854D1*
X49246Y47928D1*
X49481Y48511D2*
Y47745D1*
X49918D1*
X50154Y48511D2*
Y47745D1*
X50664Y48511D2*
X50154Y48000D1*
X50336Y48183D2*
X50664Y47745D1*
X48769Y43322D2*
X48697Y43395D1*
X48587Y43432D1*
X48441D1*
X48332Y43395D1*
X48259Y43322D1*
Y43250D1*
X48296Y43176D1*
X48332Y43140D1*
X48404Y43104D1*
X48623Y43031D1*
X48697Y42994D1*
X48733Y42957D1*
X48769Y42885D1*
Y42775D1*
X48697Y42703D1*
X48587Y42666D1*
X48441D1*
X48332Y42703D1*
X48259Y42775D1*
X49004Y43432D2*
X49187Y42666D1*
X49369Y43432D1*
X49551Y42666D1*
X49734Y43432D1*
X50188D2*
X50115Y43395D1*
X50042Y43322D1*
X50005Y43250D1*
X49969Y43140D1*
Y42957D1*
X50005Y42849D1*
X50042Y42775D1*
X50115Y42703D1*
X50188Y42666D1*
X50334D1*
X50406Y42703D1*
X50480Y42775D1*
X50516Y42849D1*
X50552Y42957D1*
Y43140D1*
X50516Y43250D1*
X50480Y43322D1*
X50406Y43395D1*
X50334Y43432D1*
X50188D1*
X59695Y35630D2*
X59659Y35702D1*
X59586Y35776D1*
X59513Y35812D1*
X59368D1*
X59294Y35776D1*
X59222Y35702D1*
X59185Y35630D1*
X59149Y35520D1*
Y35338D1*
X59185Y35229D1*
X59222Y35156D1*
X59294Y35083D1*
X59368Y35046D1*
X59513D1*
X59586Y35083D1*
X59659Y35156D1*
X59695Y35229D1*
Y35338D1*
X59513D1*
X60441Y35812D2*
Y35046D1*
X59931Y35812D1*
Y35046D1*
X60676Y35812D2*
Y35046D1*
X60932D1*
X61041Y35083D1*
X61114Y35156D1*
X61151Y35229D1*
X61187Y35338D1*
Y35520D1*
X61151Y35630D1*
X61114Y35702D1*
X61041Y35776D1*
X60932Y35812D1*
X60676D1*
M02*
