G04 DipTrace 2.3.1.0*
%INTopSilk.gbr*%
%MOIN*%
%ADD10C,0.0098*%
%ADD12C,0.003*%
%ADD15C,0.0197*%
%ADD16C,0.0157*%
%ADD17C,0.0236*%
%ADD19C,0.0079*%
%ADD20C,0.0063*%
%ADD22C,0.0*%
%ADD42C,0.0344*%
%ADD117C,0.0046*%
%FSLAX44Y44*%
G04*
G70*
G90*
G75*
G01*
%LNTopSilk*%
%LPD*%
X10512Y20768D2*
D19*
X9646D1*
Y21240D1*
X10512D1*
Y20768D1*
Y21201D2*
X9646D1*
Y21673D1*
X10512D1*
Y21201D1*
X11102Y18110D2*
X10630D1*
Y17244D1*
X11102D1*
Y18110D1*
X13386Y17795D2*
X14252D1*
Y17323D1*
X13386D1*
Y17795D1*
X15768Y19528D2*
X14902D1*
Y20000D1*
X15768D1*
Y19528D1*
X14035Y20000D2*
X14902D1*
Y19528D1*
X14035D1*
Y20000D1*
X15118Y17323D2*
X14252D1*
Y17795D1*
X15118D1*
Y17323D1*
X15531Y19528D2*
X15059D1*
Y18661D1*
X15531D1*
Y19528D1*
X21850Y12972D2*
X22717D1*
Y12500D1*
X21850D1*
Y12972D1*
X22028Y11063D2*
X21555D1*
Y10197D1*
X22028D1*
Y11063D1*
X16004Y18661D2*
X15531D1*
Y17795D1*
X16004D1*
Y18661D1*
X15531Y16929D2*
X16004D1*
Y17795D1*
X15531D1*
Y16929D1*
X11594Y21614D2*
X10728D1*
Y22087D1*
X11594D1*
Y21614D1*
X14331Y25177D2*
X15197D1*
Y24705D1*
X14331D1*
Y25177D1*
Y25807D2*
X15197D1*
Y25335D1*
X14331D1*
Y25807D1*
X13898Y26201D2*
X13031D1*
Y26673D1*
X13898D1*
Y26201D1*
X15709Y22697D2*
X15236D1*
Y21831D1*
X15709D1*
Y22697D1*
X14803Y22638D2*
X15276D1*
Y23504D1*
X14803D1*
Y22638D1*
X14370D2*
X14843D1*
Y23504D1*
X14370D1*
Y22638D1*
X15669Y26870D2*
X14803D1*
Y27343D1*
X15669D1*
Y26870D1*
X14331D2*
X14803D1*
Y27736D1*
X14331D1*
Y26870D1*
X15079Y21220D2*
X15945D1*
Y20748D1*
X15079D1*
Y21220D1*
Y21634D2*
X15945D1*
Y21161D1*
X15079D1*
Y21634D1*
X12598Y24705D2*
X13071D1*
Y25571D1*
X12598D1*
Y24705D1*
Y25177D2*
X12126D1*
Y24311D1*
X12598D1*
Y25177D1*
X12165D2*
X11693D1*
Y24311D1*
X12165D1*
Y25177D1*
X15197Y26201D2*
X14331D1*
Y26673D1*
X15197D1*
Y26201D1*
Y24075D2*
X14331D1*
Y24547D1*
X15197D1*
Y24075D1*
X13937Y22283D2*
X14803D1*
Y21811D1*
X13937D1*
Y22283D1*
X11594Y22028D2*
X10728D1*
Y22500D1*
X11594D1*
Y22028D1*
Y22520D2*
X10728D1*
Y22992D1*
X11594D1*
Y22520D1*
Y22933D2*
X10728D1*
Y23406D1*
X11594D1*
Y22933D1*
X17421Y11949D2*
X18287D1*
Y11476D1*
X17421D1*
Y11949D1*
X17894Y9843D2*
X17421D1*
Y8976D1*
X17894D1*
Y9843D1*
X18366D2*
X17894D1*
Y8976D1*
X18366D1*
Y9843D1*
X15000Y7303D2*
X9843D1*
Y13720D1*
X15000D1*
Y7303D1*
X18189Y5482D2*
Y6309D1*
X18465Y7293D2*
X18819D1*
X20551D2*
X20905D1*
X21181Y6309D2*
Y5482D1*
X23366Y12992D2*
Y11811D1*
X22736Y12992D2*
Y11811D1*
G36*
X23327Y12913D2*
X22776D1*
X23051Y13189D1*
X23327Y12913D1*
G37*
X23366Y11811D2*
D19*
X22736D1*
X22677Y11063D2*
Y9882D1*
X22047Y11063D2*
Y9882D1*
G36*
X22638Y10984D2*
X22087D1*
X22362Y11260D1*
X22638Y10984D1*
G37*
X22677Y9882D2*
D19*
X22047D1*
X20650Y11378D2*
Y10197D1*
X20020Y11378D2*
Y10197D1*
G36*
X20610Y11299D2*
X20059D1*
X20335Y11575D1*
X20610Y11299D1*
G37*
X20650Y10197D2*
D19*
X20020D1*
X8642Y22500D2*
X7776D1*
Y23012D1*
X8642D1*
G36*
X8563Y22953D2*
Y22559D1*
X8760Y22756D1*
X8563Y22953D1*
G37*
X8642Y21988D2*
D19*
X7776D1*
Y22500D1*
X8642D1*
G36*
X8563Y22441D2*
Y22047D1*
X8760Y22244D1*
X8563Y22441D1*
G37*
X20354Y15787D2*
D19*
Y14921D1*
X19843D1*
Y15787D1*
G36*
X19902Y15709D2*
X20295D1*
X20098Y15906D1*
X19902Y15709D1*
G37*
X16004Y19134D2*
D19*
Y20000D1*
X16516D1*
Y19134D1*
G36*
X16457Y19213D2*
X16063D1*
X16260Y19016D1*
X16457Y19213D1*
G37*
X19331Y15787D2*
D19*
Y14921D1*
X18819D1*
Y15787D1*
G36*
X18878Y15709D2*
X19272D1*
X19075Y15906D1*
X18878Y15709D1*
G37*
X19843Y15787D2*
D19*
Y14921D1*
X19331D1*
Y15787D1*
G36*
X19390Y15709D2*
X19783D1*
X19587Y15906D1*
X19390Y15709D1*
G37*
X23575Y22472D2*
D10*
X24559D1*
Y14402D1*
X23575D1*
Y22472D1*
Y29488D2*
X24559D1*
Y23386D1*
X23575D1*
Y29488D1*
X5559Y21402D2*
X4575D1*
Y29472D1*
X5559D1*
Y21402D1*
Y10817D2*
X4575D1*
Y20857D1*
X5559D1*
Y10817D1*
X20110Y22925D2*
X20622D1*
X20110Y19933D2*
X20622D1*
X20110Y18949D2*
X20622D1*
X20110Y16941D2*
X20622D1*
X22512Y13949D2*
X23024D1*
X13465Y24232D2*
D19*
X12992D1*
Y23366D1*
X13465D1*
Y24232D1*
X13898Y24075D2*
X14370D1*
Y24941D1*
X13898D1*
Y24075D1*
Y24941D2*
X14370D1*
Y25807D1*
X13898D1*
Y24941D1*
Y25807D2*
X14370D1*
Y26673D1*
X13898D1*
Y25807D1*
X15236Y22638D2*
X15709D1*
Y23504D1*
X15236D1*
Y22638D1*
X14370Y23937D2*
X15236D1*
Y23465D1*
X14370D1*
Y23937D1*
X13937Y22244D2*
X14409D1*
Y23110D1*
X13937D1*
Y22244D1*
X11969Y23563D2*
D10*
X11811D1*
X11969Y23957D2*
X11811D1*
X11969D2*
Y23563D1*
X11893Y23957D2*
Y23563D1*
X11260Y24311D2*
D19*
X11732D1*
Y25177D1*
X11260D1*
Y24311D1*
X15197Y25768D2*
X14331D1*
Y26240D1*
X15197D1*
Y25768D1*
X16004Y19528D2*
X15531D1*
Y18661D1*
X16004D1*
Y19528D1*
X21122Y10197D2*
X21594D1*
Y11063D1*
X21122D1*
Y10197D1*
X20650D2*
X21122D1*
Y11063D1*
X20650D1*
Y10197D1*
X8642Y23012D2*
X7776D1*
Y23484D1*
X8642D1*
Y23012D1*
Y21516D2*
X7776D1*
Y21988D1*
X8642D1*
Y21516D1*
X15591Y17795D2*
X15118D1*
Y16929D1*
X15591D1*
Y17795D1*
X13465Y24232D2*
X12598D1*
Y24705D1*
X13465D1*
Y24232D1*
X13543Y25571D2*
X13071D1*
Y24705D1*
X13543D1*
Y25571D1*
X17500Y17874D2*
X17972D1*
X16713D2*
X16240D1*
X17972Y19055D2*
X16240D1*
X17500Y16516D2*
X17972D1*
X16713D2*
X16240D1*
X17972Y17697D2*
X16240D1*
D42*
X13657Y18233D3*
X11954Y21521D3*
D16*
X19134Y8035D3*
X19173Y8154D2*
D19*
Y8783D1*
X19882Y8154D2*
Y8783D1*
D17*
X21811Y12205D3*
X22579Y11595D2*
D19*
Y11870D1*
X22402D1*
D17*
X17421Y10197D3*
X14232Y18661D2*
D10*
X14862D1*
X14035Y17795D2*
D19*
X15059D1*
Y19528D1*
X14035D1*
Y17795D1*
D15*
X13917Y20886D3*
X18799Y29291D2*
D19*
X20354D1*
Y28583D1*
X18799D1*
Y29291D1*
X17579Y29528D2*
X18583D1*
Y26949D1*
X17579D1*
Y29528D1*
X20571D2*
X21575D1*
Y26949D1*
X20571D1*
Y29528D1*
X18799Y28937D2*
X18583D1*
X20354D2*
X20571D1*
X18799Y28307D2*
X20354D1*
Y27598D1*
X18799D1*
Y28307D1*
Y27953D2*
X18583D1*
X20354D2*
X20571D1*
X16767Y31345D2*
D22*
X12367D1*
X6500Y28569D2*
D12*
X6740D1*
X6443Y28539D2*
X6781D1*
X11348D2*
X11467D1*
X6397Y28510D2*
X6812D1*
X11348D2*
X11467D1*
X6362Y28480D2*
X6822D1*
X11348D2*
X11467D1*
X6337Y28450D2*
X6507D1*
X6770D2*
X6829D1*
X11348D2*
X11467D1*
X6318Y28420D2*
X6465D1*
X7937D2*
X8056D1*
X11348D2*
X11467D1*
X6305Y28390D2*
X6432D1*
X7937D2*
X8056D1*
X11348D2*
X11467D1*
X6297Y28360D2*
X6421D1*
X7937D2*
X8056D1*
X11348D2*
X11467D1*
X6294Y28330D2*
X6416D1*
X7937D2*
X8056D1*
X11348D2*
X11467D1*
X6293Y28300D2*
X6416D1*
X7937D2*
X8056D1*
X11348D2*
X11467D1*
X6296Y28270D2*
X6429D1*
X7278D2*
X7488D1*
X7847D2*
X8266D1*
X8475D2*
X8565D1*
X8954D2*
X9074D1*
X9373D2*
X9492D1*
X9672D2*
X9762D1*
X9971D2*
X10091D1*
X10300D2*
X10450D1*
X11348D2*
X11467D1*
X6304Y28240D2*
X6450D1*
X7213D2*
X7530D1*
X7847D2*
X8266D1*
X8475D2*
X8565D1*
X8954D2*
X9074D1*
X9373D2*
X9494D1*
X9627D2*
X9760D1*
X9971D2*
X10092D1*
X10245D2*
X10479D1*
X11348D2*
X11467D1*
X6317Y28210D2*
X6479D1*
X7162D2*
X7564D1*
X7847D2*
X8266D1*
X8475D2*
X8565D1*
X8954D2*
X9074D1*
X9373D2*
X9498D1*
X9584D2*
X9746D1*
X9971D2*
X10097D1*
X10193D2*
X10505D1*
X11348D2*
X11467D1*
X6334Y28180D2*
X6515D1*
X7143D2*
X7590D1*
X7847D2*
X8266D1*
X8475D2*
X8565D1*
X8954D2*
X9074D1*
X9373D2*
X9509D1*
X9539D2*
X9704D1*
X9971D2*
X10107D1*
X10142D2*
X10526D1*
X11348D2*
X11467D1*
X6357Y28150D2*
X6557D1*
X7129D2*
X7218D1*
X7457D2*
X7599D1*
X7937D2*
X8056D1*
X8475D2*
X8565D1*
X8954D2*
X9074D1*
X9373D2*
X9652D1*
X9971D2*
X10246D1*
X10414D2*
X10544D1*
X11348D2*
X11467D1*
X6383Y28121D2*
X6602D1*
X7481D2*
X7604D1*
X7937D2*
X8056D1*
X8475D2*
X8565D1*
X8954D2*
X9074D1*
X9373D2*
X9604D1*
X9971D2*
X10199D1*
X10432D2*
X10556D1*
X11348D2*
X11467D1*
X6413Y28091D2*
X6650D1*
X7499D2*
X7606D1*
X7937D2*
X8056D1*
X8475D2*
X8565D1*
X8954D2*
X9074D1*
X9373D2*
X9563D1*
X9971D2*
X10160D1*
X10442D2*
X10563D1*
X11348D2*
X11467D1*
X6447Y28061D2*
X6694D1*
X7509D2*
X7607D1*
X7937D2*
X8056D1*
X8475D2*
X8565D1*
X8954D2*
X9074D1*
X9373D2*
X9533D1*
X9971D2*
X10130D1*
X10446D2*
X10567D1*
X11348D2*
X11467D1*
X6488Y28031D2*
X6732D1*
X7514D2*
X7607D1*
X7937D2*
X8056D1*
X8475D2*
X8565D1*
X8954D2*
X9074D1*
X9373D2*
X9509D1*
X9971D2*
X10107D1*
X10449D2*
X10569D1*
X11348D2*
X11467D1*
X6533Y28001D2*
X6766D1*
X7516D2*
X7607D1*
X7937D2*
X8056D1*
X8475D2*
X8565D1*
X8954D2*
X9074D1*
X9373D2*
X9500D1*
X9971D2*
X10099D1*
X10449D2*
X10569D1*
X11348D2*
X11467D1*
X6580Y27971D2*
X6797D1*
X7518D2*
X7607D1*
X7937D2*
X8056D1*
X8475D2*
X8565D1*
X8954D2*
X9074D1*
X9373D2*
X9496D1*
X9971D2*
X10094D1*
X10450D2*
X10569D1*
X11348D2*
X11467D1*
X6625Y27941D2*
X6824D1*
X7380D2*
X7607D1*
X7937D2*
X8056D1*
X8475D2*
X8565D1*
X8954D2*
X9074D1*
X9373D2*
X9494D1*
X9971D2*
X10092D1*
X10450D2*
X10570D1*
X11348D2*
X11467D1*
X6667Y27911D2*
X6846D1*
X7273D2*
X7607D1*
X7937D2*
X8056D1*
X8475D2*
X8565D1*
X8954D2*
X9074D1*
X9373D2*
X9493D1*
X9971D2*
X10091D1*
X10450D2*
X10570D1*
X11348D2*
X11467D1*
X6702Y27881D2*
X6863D1*
X7198D2*
X7607D1*
X7937D2*
X8056D1*
X8475D2*
X8565D1*
X8954D2*
X9074D1*
X9373D2*
X9493D1*
X9971D2*
X10091D1*
X10450D2*
X10570D1*
X11348D2*
X11467D1*
X6731Y27851D2*
X6876D1*
X7147D2*
X7321D1*
X7518D2*
X7607D1*
X7937D2*
X8056D1*
X8475D2*
X8565D1*
X8953D2*
X9074D1*
X9373D2*
X9493D1*
X9971D2*
X10091D1*
X10450D2*
X10570D1*
X11348D2*
X11467D1*
X6753Y27821D2*
X6883D1*
X7112D2*
X7260D1*
X7518D2*
X7607D1*
X7937D2*
X8056D1*
X8475D2*
X8565D1*
X8948D2*
X9074D1*
X9373D2*
X9492D1*
X9971D2*
X10091D1*
X10450D2*
X10570D1*
X11348D2*
X11467D1*
X6762Y27791D2*
X6887D1*
X7086D2*
X7217D1*
X7518D2*
X7607D1*
X7937D2*
X8056D1*
X8475D2*
X8566D1*
X8936D2*
X9074D1*
X9373D2*
X9492D1*
X9971D2*
X10091D1*
X10450D2*
X10570D1*
X11348D2*
X11467D1*
X6765Y27761D2*
X6887D1*
X7077D2*
X7186D1*
X7516D2*
X7608D1*
X7937D2*
X8058D1*
X8475D2*
X8570D1*
X8919D2*
X9074D1*
X9373D2*
X9492D1*
X9971D2*
X10091D1*
X10450D2*
X10570D1*
X11348D2*
X11467D1*
X6765Y27732D2*
X6884D1*
X7072D2*
X7159D1*
X7513D2*
X7609D1*
X7938D2*
X8063D1*
X8475D2*
X8579D1*
X8897D2*
X9074D1*
X9373D2*
X9492D1*
X9971D2*
X10091D1*
X10450D2*
X10570D1*
X11348D2*
X11467D1*
X6753Y27702D2*
X6876D1*
X7071D2*
X7186D1*
X7495D2*
X7612D1*
X7942D2*
X8073D1*
X8476D2*
X8592D1*
X8864D2*
X9074D1*
X9373D2*
X9492D1*
X9971D2*
X10091D1*
X10450D2*
X10570D1*
X11348D2*
X11467D1*
X6726Y27672D2*
X6863D1*
X7075D2*
X7222D1*
X7428D2*
X7620D1*
X7950D2*
X8107D1*
X8480D2*
X8626D1*
X8809D2*
X9074D1*
X9373D2*
X9492D1*
X9971D2*
X10091D1*
X10450D2*
X10570D1*
X11348D2*
X11467D1*
X6291Y27642D2*
X6351D1*
X6655D2*
X6846D1*
X7084D2*
X7317D1*
X7321D2*
X7627D1*
X7963D2*
X8149D1*
X8489D2*
X8708D1*
X8726D2*
X8894D1*
X8954D2*
X9074D1*
X9373D2*
X9492D1*
X9971D2*
X10091D1*
X10450D2*
X10570D1*
X11348D2*
X11467D1*
X6292Y27612D2*
X6525D1*
X6545D2*
X6823D1*
X7100D2*
X7633D1*
X7981D2*
X8188D1*
X8502D2*
X8863D1*
X8954D2*
X9074D1*
X9373D2*
X9492D1*
X9971D2*
X10091D1*
X10450D2*
X10570D1*
X11348D2*
X11467D1*
X6296Y27582D2*
X6794D1*
X7125D2*
X7458D1*
X7555D2*
X7727D1*
X8008D2*
X8218D1*
X8524D2*
X8828D1*
X8954D2*
X9074D1*
X9373D2*
X9492D1*
X9971D2*
X10091D1*
X10450D2*
X10570D1*
X11348D2*
X11467D1*
X6318Y27552D2*
X6757D1*
X7156D2*
X7398D1*
X7579D2*
X7727D1*
X8045D2*
X8228D1*
X8557D2*
X8788D1*
X8954D2*
X9074D1*
X9373D2*
X9492D1*
X9971D2*
X10091D1*
X10450D2*
X10570D1*
X11348D2*
X11467D1*
X6375Y27522D2*
X6707D1*
X7189D2*
X7338D1*
X7607D2*
X7727D1*
X8086D2*
X8236D1*
X8595D2*
X8744D1*
X8954D2*
X9074D1*
X9373D2*
X9492D1*
X9971D2*
X10091D1*
X10450D2*
X10570D1*
X11348D2*
X11467D1*
X6440Y27492D2*
X6650D1*
X6739Y27203D2*
X6769D1*
X7277D2*
X7307D1*
X6739Y27193D2*
X6769D1*
X7277D2*
X7307D1*
X8255D2*
X8294D1*
X8644D2*
X8703D1*
X6449Y27183D2*
X6479D1*
X6739D2*
X6769D1*
X7277D2*
X7307D1*
X8239D2*
X8314D1*
X8621D2*
X8729D1*
X9182D2*
X9212D1*
X9481D2*
X9671D1*
X6444Y27173D2*
X6483D1*
X6739D2*
X6769D1*
X7277D2*
X7307D1*
X8225D2*
X8235D1*
X8324D2*
X8329D1*
X8602D2*
X8624D1*
X8723D2*
X8753D1*
X9122D2*
X9212D1*
X9481D2*
X9671D1*
X6440Y27163D2*
X6487D1*
X6739D2*
X6769D1*
X7277D2*
X7307D1*
X8205D2*
X8224D1*
X8334D2*
X8342D1*
X8588D2*
X8607D1*
X9122D2*
X9212D1*
X9481D2*
X9671D1*
X6436Y27153D2*
X6492D1*
X6739D2*
X6769D1*
X7277D2*
X7307D1*
X8198D2*
X8214D1*
X8343D2*
X8353D1*
X8577D2*
X8594D1*
X9192D2*
X9212D1*
X9481D2*
X9501D1*
X6432Y27143D2*
X6496D1*
X6739D2*
X6769D1*
X7277D2*
X7307D1*
X8192D2*
X8206D1*
X8350D2*
X8362D1*
X8568D2*
X8584D1*
X9192D2*
X9212D1*
X9481D2*
X9501D1*
X6427Y27133D2*
X6499D1*
X6739D2*
X6769D1*
X7277D2*
X7307D1*
X8185D2*
X8199D1*
X8356D2*
X8370D1*
X8561D2*
X8575D1*
X9192D2*
X9212D1*
X9481D2*
X9501D1*
X6423Y27123D2*
X6503D1*
X6739D2*
X6769D1*
X7277D2*
X7307D1*
X8179D2*
X8193D1*
X8361D2*
X8376D1*
X8554D2*
X8569D1*
X9192D2*
X9212D1*
X9481D2*
X9501D1*
X6420Y27113D2*
X6441D1*
X6481D2*
X6507D1*
X6739D2*
X6769D1*
X7277D2*
X7307D1*
X8173D2*
X8189D1*
X8366D2*
X8381D1*
X8548D2*
X8565D1*
X9192D2*
X9212D1*
X9481D2*
X9501D1*
X6416Y27103D2*
X6434D1*
X6483D2*
X6512D1*
X6739D2*
X6769D1*
X7277D2*
X7307D1*
X8169D2*
X8187D1*
X8370D2*
X8386D1*
X8542D2*
X8561D1*
X9192D2*
X9212D1*
X9481D2*
X9501D1*
X6411Y27093D2*
X6428D1*
X6486D2*
X6515D1*
X6739D2*
X6769D1*
X7277D2*
X7307D1*
X8165D2*
X8185D1*
X8372D2*
X8390D1*
X8538D2*
X8558D1*
X9192D2*
X9212D1*
X9481D2*
X9501D1*
X6407Y27083D2*
X6424D1*
X6489D2*
X6519D1*
X6739D2*
X6769D1*
X7277D2*
X7307D1*
X8162D2*
X8183D1*
X8373D2*
X8394D1*
X8534D2*
X8556D1*
X9192D2*
X9212D1*
X9481D2*
X9501D1*
X6403Y27073D2*
X6420D1*
X6493D2*
X6522D1*
X6739D2*
X6769D1*
X7277D2*
X7307D1*
X8159D2*
X8181D1*
X8374D2*
X8397D1*
X8531D2*
X8554D1*
X9192D2*
X9212D1*
X9481D2*
X9501D1*
X6400Y27063D2*
X6416D1*
X6497D2*
X6526D1*
X6739D2*
X6769D1*
X6908D2*
X6938D1*
X7038D2*
X7078D1*
X7277D2*
X7307D1*
X7407D2*
X7447D1*
X7706D2*
X7766D1*
X8157D2*
X8178D1*
X8376D2*
X8401D1*
X8528D2*
X8552D1*
X9192D2*
X9212D1*
X9481D2*
X9501D1*
X6396Y27053D2*
X6413D1*
X6502D2*
X6529D1*
X6739D2*
X6769D1*
X6908D2*
X6938D1*
X7019D2*
X7092D1*
X7277D2*
X7307D1*
X7391D2*
X7461D1*
X7675D2*
X7785D1*
X8155D2*
X8176D1*
X8378D2*
X8402D1*
X8526D2*
X8550D1*
X9192D2*
X9212D1*
X9481D2*
X9501D1*
X6392Y27043D2*
X6410D1*
X6505D2*
X6533D1*
X6739D2*
X6769D1*
X6908D2*
X6939D1*
X7002D2*
X7105D1*
X7277D2*
X7307D1*
X7375D2*
X7474D1*
X7646D2*
X7676D1*
X7776D2*
X7799D1*
X8153D2*
X8176D1*
X8381D2*
X8403D1*
X8525D2*
X8547D1*
X9192D2*
X9212D1*
X9481D2*
X9501D1*
X6387Y27033D2*
X6406D1*
X6509D2*
X6537D1*
X6739D2*
X6769D1*
X6908D2*
X6941D1*
X6988D2*
X6998D1*
X7088D2*
X7116D1*
X7277D2*
X7308D1*
X7361D2*
X7377D1*
X7456D2*
X7484D1*
X7785D2*
X7809D1*
X8151D2*
X8175D1*
X8383D2*
X8404D1*
X8524D2*
X8545D1*
X8644D2*
X8683D1*
X9192D2*
X9212D1*
X9481D2*
X9501D1*
X6383Y27023D2*
X6401D1*
X6513D2*
X6541D1*
X6739D2*
X6769D1*
X6908D2*
X6948D1*
X6978D2*
D3*
X7097D2*
X7125D1*
X7277D2*
X7310D1*
X7347D2*
X7357D1*
X7465D2*
X7492D1*
X7794D2*
X7816D1*
X8148D2*
X8175D1*
X8384D2*
X8406D1*
X8522D2*
X8545D1*
X8624D2*
X8703D1*
X9192D2*
X9212D1*
X9481D2*
X9543D1*
X6380Y27013D2*
X6397D1*
X6517D2*
X6545D1*
X6739D2*
X6769D1*
X6908D2*
X6958D1*
X7106D2*
X7133D1*
X7277D2*
X7318D1*
X7471D2*
X7498D1*
X7800D2*
X7821D1*
X8147D2*
X8175D1*
X8384D2*
X8408D1*
X8520D2*
X8545D1*
X8604D2*
D3*
X8665D2*
X8718D1*
X9192D2*
X9212D1*
X9481D2*
X9576D1*
X6376Y27003D2*
X6393D1*
X6522D2*
X6549D1*
X6739D2*
X6769D1*
X6908D2*
X6950D1*
X7113D2*
X7139D1*
X7277D2*
X7327D1*
X7474D2*
X7502D1*
X7803D2*
X7824D1*
X8146D2*
X8175D1*
X8384D2*
X8411D1*
X8517D2*
X8546D1*
X8694D2*
X8731D1*
X9192D2*
X9212D1*
X9532D2*
X9600D1*
X6372Y26993D2*
X6390D1*
X6525D2*
X6553D1*
X6739D2*
X6769D1*
X6908D2*
X6944D1*
X7119D2*
X7145D1*
X7277D2*
X7321D1*
X7475D2*
X7504D1*
X7805D2*
X7825D1*
X8145D2*
X8175D1*
X8384D2*
X8413D1*
X8516D2*
X8551D1*
X8714D2*
X8741D1*
X9192D2*
X9212D1*
X9570D2*
X9618D1*
X6367Y26983D2*
X6386D1*
X6529D2*
X6557D1*
X6739D2*
X6769D1*
X6908D2*
X6941D1*
X7123D2*
X7149D1*
X7277D2*
X7316D1*
X7476D2*
X7506D1*
X7805D2*
X7825D1*
X8145D2*
X8175D1*
X8384D2*
X8413D1*
X8515D2*
X8556D1*
X8727D2*
X8749D1*
X9192D2*
X9212D1*
X9596D2*
X9631D1*
X6363Y26973D2*
X6382D1*
X6533D2*
X6561D1*
X6739D2*
X6769D1*
X6908D2*
X6939D1*
X7125D2*
X7153D1*
X7277D2*
X7312D1*
X7476D2*
X7506D1*
X7806D2*
X7826D1*
X8145D2*
X8175D1*
X8384D2*
X8412D1*
X8514D2*
X8557D1*
X8734D2*
X8755D1*
X9192D2*
X9212D1*
X9613D2*
X9642D1*
X6360Y26963D2*
X6377D1*
X6537D2*
X6565D1*
X6739D2*
X6769D1*
X6908D2*
X6938D1*
X7127D2*
X7156D1*
X7277D2*
X7309D1*
X7477D2*
X7506D1*
X7806D2*
X7826D1*
X8145D2*
X8175D1*
X8384D2*
X8410D1*
X8514D2*
X8556D1*
X8739D2*
X8760D1*
X9192D2*
X9212D1*
X9624D2*
X9650D1*
X6356Y26953D2*
X6374D1*
X6541D2*
X6569D1*
X6739D2*
X6769D1*
X6908D2*
X6938D1*
X7127D2*
X7157D1*
X7277D2*
X7308D1*
X7477D2*
X7507D1*
X7806D2*
X7826D1*
X8147D2*
X8175D1*
X8384D2*
X8408D1*
X8516D2*
X8555D1*
X8742D2*
X8765D1*
X9192D2*
X9212D1*
X9631D2*
X9657D1*
X6352Y26943D2*
X6371D1*
X6545D2*
X6573D1*
X6739D2*
X6769D1*
X6908D2*
X6938D1*
X7127D2*
X7157D1*
X7277D2*
X7307D1*
X7477D2*
X7507D1*
X7806D2*
X7826D1*
X8149D2*
X8175D1*
X8384D2*
X8406D1*
X8518D2*
X8554D1*
X8744D2*
X8769D1*
X9192D2*
X9212D1*
X9636D2*
X9662D1*
X6347Y26933D2*
X6370D1*
X6547D2*
X6577D1*
X6739D2*
X6769D1*
X6908D2*
X6938D1*
X7128D2*
X7157D1*
X7277D2*
X7307D1*
X7477D2*
X7507D1*
X7726D2*
X7826D1*
X8151D2*
X8175D1*
X8383D2*
X8405D1*
X8521D2*
X8554D1*
X8747D2*
X8771D1*
X9192D2*
X9212D1*
X9639D2*
X9666D1*
X6343Y26923D2*
X6370D1*
X6548D2*
X6581D1*
X6739D2*
X6769D1*
X6908D2*
X6938D1*
X7128D2*
X7157D1*
X7277D2*
X7307D1*
X7477D2*
X7507D1*
X7686D2*
X7706D1*
X7806D2*
X7826D1*
X8153D2*
X8175D1*
X8380D2*
X8404D1*
X8522D2*
X8554D1*
X8750D2*
X8772D1*
X9192D2*
X9212D1*
X9640D2*
X9669D1*
X6340Y26913D2*
X6585D1*
X6739D2*
X6769D1*
X6908D2*
X6938D1*
X7128D2*
X7157D1*
X7277D2*
X7307D1*
X7477D2*
X7507D1*
X7666D2*
X7687D1*
X7806D2*
X7826D1*
X8155D2*
X8176D1*
X8378D2*
X8403D1*
X8524D2*
X8554D1*
X8752D2*
X8773D1*
X9192D2*
X9212D1*
X9641D2*
X9670D1*
X6336Y26903D2*
X6589D1*
X6739D2*
X6769D1*
X6908D2*
X6938D1*
X7128D2*
X7156D1*
X7277D2*
X7307D1*
X7477D2*
X7507D1*
X7654D2*
X7672D1*
X7806D2*
X7826D1*
X8156D2*
X8179D1*
X8376D2*
X8400D1*
X8525D2*
X8554D1*
X8752D2*
X8773D1*
X9192D2*
X9212D1*
X9641D2*
X9671D1*
X6332Y26893D2*
X6592D1*
X6739D2*
X6769D1*
X6908D2*
X6938D1*
X7128D2*
X7153D1*
X7277D2*
X7307D1*
X7477D2*
X7507D1*
X7644D2*
X7660D1*
X7806D2*
X7826D1*
X8159D2*
X8181D1*
X8375D2*
X8397D1*
X8528D2*
X8554D1*
X8751D2*
X8772D1*
X9192D2*
X9212D1*
X9641D2*
X9671D1*
X6327Y26883D2*
X6351D1*
X6571D2*
X6596D1*
X6739D2*
X6769D1*
X6908D2*
X6938D1*
X7127D2*
X7150D1*
X7277D2*
X7307D1*
X7477D2*
X7507D1*
X7637D2*
X7652D1*
X7806D2*
X7826D1*
X8162D2*
X8183D1*
X8374D2*
X8394D1*
X8531D2*
X8554D1*
X8749D2*
X8769D1*
X9192D2*
X9212D1*
X9641D2*
X9671D1*
X6323Y26873D2*
X6344D1*
X6573D2*
X6599D1*
X6739D2*
X6769D1*
X6908D2*
X6938D1*
X7126D2*
X7147D1*
X7277D2*
X7307D1*
X7477D2*
X7507D1*
X7631D2*
X7649D1*
X7806D2*
X7826D1*
X8165D2*
X8184D1*
X8373D2*
X8390D1*
X8534D2*
X8554D1*
X8747D2*
X8766D1*
X9192D2*
X9212D1*
X9641D2*
X9670D1*
X6320Y26864D2*
X6338D1*
X6577D2*
X6603D1*
X6739D2*
X6769D1*
X6908D2*
X6938D1*
X7123D2*
X7144D1*
X7277D2*
X7307D1*
X7477D2*
X7507D1*
X7629D2*
X7647D1*
X7805D2*
X7826D1*
X8169D2*
X8186D1*
X8370D2*
X8386D1*
X8538D2*
X8556D1*
X8745D2*
X8763D1*
X9192D2*
X9212D1*
X9641D2*
X9669D1*
X6316Y26854D2*
X6334D1*
X6581D2*
X6607D1*
X6739D2*
X6769D1*
X6908D2*
X6939D1*
X7119D2*
X7139D1*
X7277D2*
X7307D1*
X7477D2*
X7507D1*
X7627D2*
X7647D1*
X7804D2*
X7826D1*
X8173D2*
X8189D1*
X8366D2*
X8382D1*
X8542D2*
X8558D1*
X8742D2*
X8759D1*
X9192D2*
X9212D1*
X9639D2*
X9666D1*
X6313Y26844D2*
X6330D1*
X6585D2*
X6611D1*
X6739D2*
X6769D1*
X6908D2*
X6940D1*
X7115D2*
X7133D1*
X7277D2*
X7307D1*
X7477D2*
X7507D1*
X7627D2*
X7648D1*
X7800D2*
X7826D1*
X8179D2*
X8193D1*
X8361D2*
X8376D1*
X8547D2*
X8563D1*
X8739D2*
X8755D1*
X9192D2*
X9212D1*
X9636D2*
X9662D1*
X6310Y26834D2*
X6326D1*
X6589D2*
X6615D1*
X6739D2*
X6769D1*
X6908D2*
X6945D1*
X7109D2*
X7127D1*
X7277D2*
X7307D1*
X7477D2*
X7507D1*
X7628D2*
X7653D1*
X7793D2*
X7828D1*
X8185D2*
X8199D1*
X8356D2*
X8370D1*
X8552D2*
X8568D1*
X8735D2*
X8749D1*
X9192D2*
X9212D1*
X9632D2*
X9656D1*
X6306Y26824D2*
X6322D1*
X6593D2*
X6619D1*
X6739D2*
X6769D1*
X6908D2*
X6956D1*
X7102D2*
X7119D1*
X7277D2*
X7307D1*
X7477D2*
X7507D1*
X7631D2*
X7664D1*
X7786D2*
X7831D1*
X8192D2*
X8205D1*
X8350D2*
X8362D1*
X8558D2*
X8576D1*
X8728D2*
X8741D1*
X8903D2*
X8943D1*
X9192D2*
X9212D1*
X9626D2*
X9649D1*
X6302Y26814D2*
X6317D1*
X6597D2*
X6623D1*
X6739D2*
X6769D1*
X6908D2*
X6968D1*
X7079D2*
X7109D1*
X7277D2*
X7307D1*
X7477D2*
X7507D1*
X7639D2*
X7676D1*
X7756D2*
X7766D1*
X7802D2*
X7839D1*
X8200D2*
X8210D1*
X8342D2*
X8353D1*
X8566D2*
X8587D1*
X8719D2*
X8732D1*
X8903D2*
X8943D1*
X9192D2*
X9212D1*
X9617D2*
X9640D1*
X6297Y26804D2*
X6314D1*
X6601D2*
X6627D1*
X6739D2*
X6769D1*
X6908D2*
X6954D1*
X6978D2*
X6988D1*
X7042D2*
X7097D1*
X7277D2*
X7307D1*
X7477D2*
X7507D1*
X7649D2*
X7751D1*
X7814D2*
X7849D1*
X8211D2*
X8215D1*
X8334D2*
X8343D1*
X8577D2*
X8599D1*
X8707D2*
X8721D1*
X8903D2*
X8943D1*
X9192D2*
X9212D1*
X9605D2*
X9628D1*
X6293Y26794D2*
X6311D1*
X6605D2*
X6633D1*
X6739D2*
X6769D1*
X6908D2*
X6944D1*
X6998D2*
X7083D1*
X7277D2*
X7307D1*
X7477D2*
X7507D1*
X7662D2*
X7734D1*
X7825D2*
X7858D1*
X8224D2*
X8235D1*
X8324D2*
X8330D1*
X8590D2*
X8614D1*
X8693D2*
X8707D1*
X8903D2*
X8943D1*
X9192D2*
X9212D1*
X9481D2*
X9491D1*
X9591D2*
X9613D1*
X6290Y26784D2*
X6310D1*
X6609D2*
X6639D1*
X6739D2*
X6769D1*
X6908D2*
X6941D1*
X7018D2*
X7068D1*
X7277D2*
X7307D1*
X7477D2*
X7507D1*
X7676D2*
X7716D1*
X7836D2*
X7866D1*
X8239D2*
X8314D1*
X8606D2*
X8691D1*
X8903D2*
X8943D1*
X9192D2*
X9212D1*
X9491D2*
X9593D1*
X6908Y26774D2*
X6939D1*
X8255D2*
X8294D1*
X8624D2*
X8673D1*
X9501D2*
X9571D1*
X6908Y26764D2*
X6938D1*
X6908Y26754D2*
X6938D1*
X6908Y26744D2*
X6938D1*
X6908Y26734D2*
X6938D1*
X6908Y26724D2*
X6938D1*
X6908Y26714D2*
X6938D1*
X6908Y26704D2*
X6938D1*
X6908Y26694D2*
X6938D1*
X6908Y26684D2*
X6938D1*
X6908Y26674D2*
X6938D1*
X6500Y28569D2*
X6443Y28539D1*
X6397Y28510D1*
X6362Y28480D1*
X6337Y28450D1*
X6318Y28420D1*
X6305Y28390D1*
X6297Y28360D1*
X6294Y28330D1*
X6293Y28300D1*
X6296Y28270D1*
X6304Y28240D1*
X6317Y28210D1*
X6334Y28180D1*
X6357Y28150D1*
X6383Y28121D1*
X6413Y28091D1*
X6447Y28061D1*
X6488Y28031D1*
X6533Y28001D1*
X6580Y27971D1*
X6625Y27941D1*
X6667Y27911D1*
X6702Y27881D1*
X6731Y27851D1*
X6753Y27821D1*
X6762Y27791D1*
X6765Y27761D1*
Y27732D1*
X6753Y27702D1*
X6726Y27672D1*
X6655Y27642D1*
X6545Y27612D1*
X6411Y27582D1*
X6740Y28569D2*
X6781Y28539D1*
X6812Y28510D1*
X6822Y28480D1*
X6829Y28450D1*
X11348Y28539D2*
Y28510D1*
Y28480D1*
Y28450D1*
Y28420D1*
Y28390D1*
Y28360D1*
Y28330D1*
Y28300D1*
Y28270D1*
Y28240D1*
Y28210D1*
Y28180D1*
Y28150D1*
Y28121D1*
Y28091D1*
Y28061D1*
Y28031D1*
Y28001D1*
Y27971D1*
Y27941D1*
Y27911D1*
Y27881D1*
Y27851D1*
Y27821D1*
Y27791D1*
Y27761D1*
Y27732D1*
Y27702D1*
Y27672D1*
Y27642D1*
Y27612D1*
Y27582D1*
Y27552D1*
Y27522D1*
X11467Y28539D2*
Y28510D1*
Y28480D1*
Y28450D1*
Y28420D1*
Y28390D1*
Y28360D1*
Y28330D1*
Y28300D1*
Y28270D1*
Y28240D1*
Y28210D1*
Y28180D1*
Y28150D1*
Y28121D1*
Y28091D1*
Y28061D1*
Y28031D1*
Y28001D1*
Y27971D1*
Y27941D1*
Y27911D1*
Y27881D1*
Y27851D1*
Y27821D1*
Y27791D1*
Y27761D1*
Y27732D1*
Y27702D1*
Y27672D1*
Y27642D1*
Y27612D1*
Y27582D1*
Y27552D1*
Y27522D1*
X6560Y28480D2*
X6507Y28450D1*
X6465Y28420D1*
X6432Y28390D1*
X6421Y28360D1*
X6416Y28330D1*
Y28300D1*
X6429Y28270D1*
X6450Y28240D1*
X6479Y28210D1*
X6515Y28180D1*
X6557Y28150D1*
X6602Y28121D1*
X6650Y28091D1*
X6694Y28061D1*
X6732Y28031D1*
X6766Y28001D1*
X6797Y27971D1*
X6824Y27941D1*
X6846Y27911D1*
X6863Y27881D1*
X6876Y27851D1*
X6883Y27821D1*
X6887Y27791D1*
Y27761D1*
X6884Y27732D1*
X6876Y27702D1*
X6863Y27672D1*
X6846Y27642D1*
X6823Y27612D1*
X6794Y27582D1*
X6757Y27552D1*
X6707Y27522D1*
X6650Y27492D1*
X6740Y28480D2*
X6770Y28450D1*
X7937Y28420D2*
Y28390D1*
Y28360D1*
Y28330D1*
Y28300D1*
Y28270D1*
X7847D1*
Y28240D1*
Y28210D1*
Y28180D1*
Y28150D1*
X7937D1*
Y28121D1*
Y28091D1*
Y28061D1*
Y28031D1*
Y28001D1*
Y27971D1*
Y27941D1*
Y27911D1*
Y27881D1*
Y27851D1*
Y27821D1*
Y27791D1*
Y27761D1*
X7938Y27732D1*
X7942Y27702D1*
X7950Y27672D1*
X7963Y27642D1*
X7981Y27612D1*
X8008Y27582D1*
X8045Y27552D1*
X8086Y27522D1*
X8056Y28420D2*
Y28390D1*
Y28360D1*
Y28330D1*
Y28300D1*
Y28270D1*
X8266D1*
Y28240D1*
Y28210D1*
Y28180D1*
Y28150D1*
X8056D1*
Y28121D1*
Y28091D1*
Y28061D1*
Y28031D1*
Y28001D1*
Y27971D1*
Y27941D1*
Y27911D1*
Y27881D1*
Y27851D1*
Y27821D1*
Y27791D1*
X8058Y27761D1*
X8063Y27732D1*
X8073Y27702D1*
X8107Y27672D1*
X8149Y27642D1*
X8188Y27612D1*
X8218Y27582D1*
X8228Y27552D1*
X8236Y27522D1*
X7278Y28270D2*
X7213Y28240D1*
X7162Y28210D1*
X7143Y28180D1*
X7129Y28150D1*
X7488Y28270D2*
X7530Y28240D1*
X7564Y28210D1*
X7590Y28180D1*
X7599Y28150D1*
X7604Y28121D1*
X7606Y28091D1*
X7607Y28061D1*
Y28031D1*
Y28001D1*
Y27971D1*
Y27941D1*
Y27911D1*
Y27881D1*
Y27851D1*
Y27821D1*
Y27791D1*
X7608Y27761D1*
X7609Y27732D1*
X7612Y27702D1*
X7620Y27672D1*
X7627Y27642D1*
X7633Y27612D1*
X7637Y27582D1*
X7727D1*
Y27552D1*
Y27522D1*
X8475Y28270D2*
Y28240D1*
Y28210D1*
Y28180D1*
Y28150D1*
Y28121D1*
Y28091D1*
Y28061D1*
Y28031D1*
Y28001D1*
Y27971D1*
Y27941D1*
Y27911D1*
Y27881D1*
Y27851D1*
Y27821D1*
Y27791D1*
Y27761D1*
Y27732D1*
X8476Y27702D1*
X8480Y27672D1*
X8489Y27642D1*
X8502Y27612D1*
X8524Y27582D1*
X8557Y27552D1*
X8595Y27522D1*
X8565Y28270D2*
Y28240D1*
Y28210D1*
Y28180D1*
Y28150D1*
Y28121D1*
Y28091D1*
Y28061D1*
Y28031D1*
Y28001D1*
Y27971D1*
Y27941D1*
Y27911D1*
Y27881D1*
Y27851D1*
Y27821D1*
X8566Y27791D1*
X8570Y27761D1*
X8579Y27732D1*
X8592Y27702D1*
X8626Y27672D1*
X8708Y27642D1*
X8804Y27612D1*
X8954Y28270D2*
Y28240D1*
Y28210D1*
Y28180D1*
Y28150D1*
Y28121D1*
Y28091D1*
Y28061D1*
Y28031D1*
Y28001D1*
Y27971D1*
Y27941D1*
Y27911D1*
Y27881D1*
X8953Y27851D1*
X8948Y27821D1*
X8936Y27791D1*
X8919Y27761D1*
X8897Y27732D1*
X8864Y27702D1*
X8809Y27672D1*
X8726Y27642D1*
X8625Y27612D1*
X9074Y28270D2*
Y28240D1*
Y28210D1*
Y28180D1*
Y28150D1*
Y28121D1*
Y28091D1*
Y28061D1*
Y28031D1*
Y28001D1*
Y27971D1*
Y27941D1*
Y27911D1*
Y27881D1*
Y27851D1*
Y27821D1*
Y27791D1*
Y27761D1*
Y27732D1*
Y27702D1*
Y27672D1*
Y27642D1*
Y27612D1*
Y27582D1*
Y27552D1*
Y27522D1*
X9373Y28270D2*
Y28240D1*
Y28210D1*
Y28180D1*
Y28150D1*
Y28121D1*
Y28091D1*
Y28061D1*
Y28031D1*
Y28001D1*
Y27971D1*
Y27941D1*
Y27911D1*
Y27881D1*
Y27851D1*
Y27821D1*
Y27791D1*
Y27761D1*
Y27732D1*
Y27702D1*
Y27672D1*
Y27642D1*
Y27612D1*
Y27582D1*
Y27552D1*
Y27522D1*
X9492Y28270D2*
X9494Y28240D1*
X9498Y28210D1*
X9509Y28180D1*
X9522Y28150D1*
X9672Y28270D2*
X9627Y28240D1*
X9584Y28210D1*
X9539Y28180D1*
X9492Y28150D1*
X9762Y28270D2*
X9760Y28240D1*
X9746Y28210D1*
X9704Y28180D1*
X9652Y28150D1*
X9604Y28121D1*
X9563Y28091D1*
X9533Y28061D1*
X9509Y28031D1*
X9500Y28001D1*
X9496Y27971D1*
X9494Y27941D1*
X9493Y27911D1*
Y27881D1*
Y27851D1*
X9492Y27821D1*
Y27791D1*
Y27761D1*
Y27732D1*
Y27702D1*
Y27672D1*
Y27642D1*
Y27612D1*
Y27582D1*
Y27552D1*
Y27522D1*
X9971Y28270D2*
Y28240D1*
Y28210D1*
Y28180D1*
Y28150D1*
Y28121D1*
Y28091D1*
Y28061D1*
Y28031D1*
Y28001D1*
Y27971D1*
Y27941D1*
Y27911D1*
Y27881D1*
Y27851D1*
Y27821D1*
Y27791D1*
Y27761D1*
Y27732D1*
Y27702D1*
Y27672D1*
Y27642D1*
Y27612D1*
Y27582D1*
Y27552D1*
Y27522D1*
X10091Y28270D2*
X10092Y28240D1*
X10097Y28210D1*
X10107Y28180D1*
X10121Y28150D1*
X10300Y28270D2*
X10245Y28240D1*
X10193Y28210D1*
X10142Y28180D1*
X10091Y28150D1*
X10450Y28270D2*
X10479Y28240D1*
X10505Y28210D1*
X10526Y28180D1*
X10544Y28150D1*
X10556Y28121D1*
X10563Y28091D1*
X10567Y28061D1*
X10569Y28031D1*
Y28001D1*
Y27971D1*
X10570Y27941D1*
Y27911D1*
Y27881D1*
Y27851D1*
Y27821D1*
Y27791D1*
Y27761D1*
Y27732D1*
Y27702D1*
Y27672D1*
Y27642D1*
Y27612D1*
Y27582D1*
Y27552D1*
Y27522D1*
X7248Y28180D2*
X7218Y28150D1*
X7428Y28180D2*
X7457Y28150D1*
X7481Y28121D1*
X7499Y28091D1*
X7509Y28061D1*
X7514Y28031D1*
X7516Y28001D1*
X7518Y27971D1*
X7380Y27941D1*
X7273Y27911D1*
X7198Y27881D1*
X7147Y27851D1*
X7112Y27821D1*
X7086Y27791D1*
X7077Y27761D1*
X7072Y27732D1*
X7071Y27702D1*
X7075Y27672D1*
X7084Y27642D1*
X7100Y27612D1*
X7125Y27582D1*
X7156Y27552D1*
X7189Y27522D1*
X10300Y28180D2*
X10246Y28150D1*
X10199Y28121D1*
X10160Y28091D1*
X10130Y28061D1*
X10107Y28031D1*
X10099Y28001D1*
X10094Y27971D1*
X10092Y27941D1*
X10091Y27911D1*
Y27881D1*
Y27851D1*
Y27821D1*
Y27791D1*
Y27761D1*
Y27732D1*
Y27702D1*
Y27672D1*
Y27642D1*
Y27612D1*
Y27582D1*
Y27552D1*
Y27522D1*
X10390Y28180D2*
X10414Y28150D1*
X10432Y28121D1*
X10442Y28091D1*
X10446Y28061D1*
X10449Y28031D1*
Y28001D1*
X10450Y27971D1*
Y27941D1*
Y27911D1*
Y27881D1*
Y27851D1*
Y27821D1*
Y27791D1*
Y27761D1*
Y27732D1*
Y27702D1*
Y27672D1*
Y27642D1*
Y27612D1*
Y27582D1*
Y27552D1*
Y27522D1*
X7398Y27881D2*
X7321Y27851D1*
X7260Y27821D1*
X7217Y27791D1*
X7186Y27761D1*
X7159Y27732D1*
X7186Y27702D1*
X7222Y27672D1*
X7317Y27642D1*
X7428Y27612D1*
X7518Y27881D2*
Y27851D1*
Y27821D1*
Y27791D1*
X7516Y27761D1*
X7513Y27732D1*
X7495Y27702D1*
X7428Y27672D1*
X7321Y27642D1*
X7189Y27612D1*
X6291Y27642D2*
X6292Y27612D1*
X6296Y27582D1*
X6318Y27552D1*
X6375Y27522D1*
X6440Y27492D1*
X6351Y27642D2*
X6525Y27612D1*
X6710Y27582D1*
X8924Y27672D2*
X8894Y27642D1*
X8863Y27612D1*
X8828Y27582D1*
X8788Y27552D1*
X8744Y27522D1*
X8954Y27672D2*
Y27642D1*
Y27612D1*
Y27582D1*
Y27552D1*
Y27522D1*
X7518Y27612D2*
X7458Y27582D1*
X7398Y27552D1*
X7338Y27522D1*
X7548Y27612D2*
X7555Y27582D1*
X7579Y27552D1*
X7607Y27522D1*
X6739Y27203D2*
Y27193D1*
Y27183D1*
Y27173D1*
Y27163D1*
Y27153D1*
Y27143D1*
Y27133D1*
Y27123D1*
Y27113D1*
Y27103D1*
Y27093D1*
Y27083D1*
Y27073D1*
Y27063D1*
Y27053D1*
Y27043D1*
Y27033D1*
Y27023D1*
Y27013D1*
Y27003D1*
Y26993D1*
Y26983D1*
Y26973D1*
Y26963D1*
Y26953D1*
Y26943D1*
Y26933D1*
Y26923D1*
Y26913D1*
Y26903D1*
Y26893D1*
Y26883D1*
Y26873D1*
Y26864D1*
Y26854D1*
Y26844D1*
Y26834D1*
Y26824D1*
Y26814D1*
Y26804D1*
Y26794D1*
Y26784D1*
X6769Y27203D2*
Y27193D1*
Y27183D1*
Y27173D1*
Y27163D1*
Y27153D1*
Y27143D1*
Y27133D1*
Y27123D1*
Y27113D1*
Y27103D1*
Y27093D1*
Y27083D1*
Y27073D1*
Y27063D1*
Y27053D1*
Y27043D1*
Y27033D1*
Y27023D1*
Y27013D1*
Y27003D1*
Y26993D1*
Y26983D1*
Y26973D1*
Y26963D1*
Y26953D1*
Y26943D1*
Y26933D1*
Y26923D1*
Y26913D1*
Y26903D1*
Y26893D1*
Y26883D1*
Y26873D1*
Y26864D1*
Y26854D1*
Y26844D1*
Y26834D1*
Y26824D1*
Y26814D1*
Y26804D1*
Y26794D1*
Y26784D1*
X7277Y27203D2*
Y27193D1*
Y27183D1*
Y27173D1*
Y27163D1*
Y27153D1*
Y27143D1*
Y27133D1*
Y27123D1*
Y27113D1*
Y27103D1*
Y27093D1*
Y27083D1*
Y27073D1*
Y27063D1*
Y27053D1*
Y27043D1*
Y27033D1*
Y27023D1*
Y27013D1*
Y27003D1*
Y26993D1*
Y26983D1*
Y26973D1*
Y26963D1*
Y26953D1*
Y26943D1*
Y26933D1*
Y26923D1*
Y26913D1*
Y26903D1*
Y26893D1*
Y26883D1*
Y26873D1*
Y26864D1*
Y26854D1*
Y26844D1*
Y26834D1*
Y26824D1*
Y26814D1*
Y26804D1*
Y26794D1*
Y26784D1*
X7307Y27203D2*
Y27193D1*
Y27183D1*
Y27173D1*
Y27163D1*
Y27153D1*
Y27143D1*
Y27133D1*
Y27123D1*
Y27113D1*
Y27103D1*
Y27093D1*
Y27083D1*
Y27073D1*
Y27063D1*
Y27053D1*
Y27043D1*
X7308Y27033D1*
X7310Y27023D1*
X7318Y27013D1*
X7327Y27003D1*
X7321Y26993D1*
X7316Y26983D1*
X7312Y26973D1*
X7309Y26963D1*
X7308Y26953D1*
X7307Y26943D1*
Y26933D1*
Y26923D1*
Y26913D1*
Y26903D1*
Y26893D1*
Y26883D1*
Y26873D1*
Y26864D1*
Y26854D1*
Y26844D1*
Y26834D1*
Y26824D1*
Y26814D1*
Y26804D1*
Y26794D1*
Y26784D1*
X8255Y27193D2*
X8239Y27183D1*
X8225Y27173D1*
X8294Y27193D2*
X8314Y27183D1*
X8329Y27173D1*
X8342Y27163D1*
X8353Y27153D1*
X8362Y27143D1*
X8370Y27133D1*
X8376Y27123D1*
X8381Y27113D1*
X8386Y27103D1*
X8390Y27093D1*
X8394Y27083D1*
X8397Y27073D1*
X8401Y27063D1*
X8402Y27053D1*
X8403Y27043D1*
X8404Y27033D1*
X8406Y27023D1*
X8408Y27013D1*
X8411Y27003D1*
X8413Y26993D1*
Y26983D1*
X8412Y26973D1*
X8410Y26963D1*
X8408Y26953D1*
X8406Y26943D1*
X8405Y26933D1*
X8404Y26923D1*
X8403Y26913D1*
X8400Y26903D1*
X8397Y26893D1*
X8394Y26883D1*
X8390Y26873D1*
X8386Y26864D1*
X8382Y26854D1*
X8376Y26844D1*
X8370Y26834D1*
X8362Y26824D1*
X8353Y26814D1*
X8343Y26804D1*
X8330Y26794D1*
X8314Y26784D1*
X8294Y26774D1*
X8644Y27193D2*
X8621Y27183D1*
X8602Y27173D1*
X8588Y27163D1*
X8577Y27153D1*
X8568Y27143D1*
X8561Y27133D1*
X8554Y27123D1*
X8548Y27113D1*
X8542Y27103D1*
X8538Y27093D1*
X8534Y27083D1*
X8531Y27073D1*
X8528Y27063D1*
X8526Y27053D1*
X8525Y27043D1*
X8524Y27033D1*
X8522Y27023D1*
X8520Y27013D1*
X8517Y27003D1*
X8516Y26993D1*
X8515Y26983D1*
X8514Y26973D1*
Y26963D1*
X8516Y26953D1*
X8518Y26943D1*
X8521Y26933D1*
X8522Y26923D1*
X8524Y26913D1*
X8525Y26903D1*
X8528Y26893D1*
X8531Y26883D1*
X8534Y26873D1*
X8538Y26864D1*
X8542Y26854D1*
X8547Y26844D1*
X8552Y26834D1*
X8558Y26824D1*
X8566Y26814D1*
X8577Y26804D1*
X8590Y26794D1*
X8606Y26784D1*
X8624Y26774D1*
X8703Y27193D2*
X8729Y27183D1*
X8753Y27173D1*
X6449Y27183D2*
X6444Y27173D1*
X6440Y27163D1*
X6436Y27153D1*
X6432Y27143D1*
X6427Y27133D1*
X6423Y27123D1*
X6420Y27113D1*
X6416Y27103D1*
X6411Y27093D1*
X6407Y27083D1*
X6403Y27073D1*
X6400Y27063D1*
X6396Y27053D1*
X6392Y27043D1*
X6387Y27033D1*
X6383Y27023D1*
X6380Y27013D1*
X6376Y27003D1*
X6372Y26993D1*
X6367Y26983D1*
X6363Y26973D1*
X6360Y26963D1*
X6356Y26953D1*
X6352Y26943D1*
X6347Y26933D1*
X6343Y26923D1*
X6340Y26913D1*
X6336Y26903D1*
X6332Y26893D1*
X6327Y26883D1*
X6323Y26873D1*
X6320Y26864D1*
X6316Y26854D1*
X6313Y26844D1*
X6310Y26834D1*
X6306Y26824D1*
X6302Y26814D1*
X6297Y26804D1*
X6293Y26794D1*
X6290Y26784D1*
X6479Y27183D2*
X6483Y27173D1*
X6487Y27163D1*
X6492Y27153D1*
X6496Y27143D1*
X6499Y27133D1*
X6503Y27123D1*
X6507Y27113D1*
X6512Y27103D1*
X6515Y27093D1*
X6519Y27083D1*
X6522Y27073D1*
X6526Y27063D1*
X6529Y27053D1*
X6533Y27043D1*
X6537Y27033D1*
X6541Y27023D1*
X6545Y27013D1*
X6549Y27003D1*
X6553Y26993D1*
X6557Y26983D1*
X6561Y26973D1*
X6565Y26963D1*
X6569Y26953D1*
X6573Y26943D1*
X6577Y26933D1*
X6581Y26923D1*
X6585Y26913D1*
X6589Y26903D1*
X6592Y26893D1*
X6596Y26883D1*
X6599Y26873D1*
X6603Y26864D1*
X6607Y26854D1*
X6611Y26844D1*
X6615Y26834D1*
X6619Y26824D1*
X6623Y26814D1*
X6627Y26804D1*
X6633Y26794D1*
X6639Y26784D1*
X9182Y27183D2*
X9122Y27173D1*
Y27163D1*
Y27153D1*
X9192D1*
Y27143D1*
Y27133D1*
Y27123D1*
Y27113D1*
Y27103D1*
Y27093D1*
Y27083D1*
Y27073D1*
Y27063D1*
Y27053D1*
Y27043D1*
Y27033D1*
Y27023D1*
Y27013D1*
Y27003D1*
Y26993D1*
Y26983D1*
Y26973D1*
Y26963D1*
Y26953D1*
Y26943D1*
Y26933D1*
Y26923D1*
Y26913D1*
Y26903D1*
Y26893D1*
Y26883D1*
Y26873D1*
Y26864D1*
Y26854D1*
Y26844D1*
Y26834D1*
Y26824D1*
Y26814D1*
Y26804D1*
Y26794D1*
Y26784D1*
X9212Y27183D2*
Y27173D1*
Y27163D1*
Y27153D1*
Y27143D1*
Y27133D1*
Y27123D1*
Y27113D1*
Y27103D1*
Y27093D1*
Y27083D1*
Y27073D1*
Y27063D1*
Y27053D1*
Y27043D1*
Y27033D1*
Y27023D1*
Y27013D1*
Y27003D1*
Y26993D1*
Y26983D1*
Y26973D1*
Y26963D1*
Y26953D1*
Y26943D1*
Y26933D1*
Y26923D1*
Y26913D1*
Y26903D1*
Y26893D1*
Y26883D1*
Y26873D1*
Y26864D1*
Y26854D1*
Y26844D1*
Y26834D1*
Y26824D1*
Y26814D1*
Y26804D1*
Y26794D1*
Y26784D1*
X9481Y27183D2*
Y27173D1*
Y27163D1*
Y27153D1*
Y27143D1*
Y27133D1*
Y27123D1*
Y27113D1*
Y27103D1*
Y27093D1*
Y27083D1*
Y27073D1*
Y27063D1*
Y27053D1*
Y27043D1*
Y27033D1*
Y27023D1*
Y27013D1*
X9532Y27003D1*
X9570Y26993D1*
X9596Y26983D1*
X9613Y26973D1*
X9624Y26963D1*
X9631Y26953D1*
X9636Y26943D1*
X9639Y26933D1*
X9640Y26923D1*
X9641Y26913D1*
Y26903D1*
Y26893D1*
Y26883D1*
Y26873D1*
Y26864D1*
X9639Y26854D1*
X9636Y26844D1*
X9632Y26834D1*
X9626Y26824D1*
X9617Y26814D1*
X9605Y26804D1*
X9591Y26794D1*
X9671Y27183D2*
Y27173D1*
Y27163D1*
X8235Y27173D2*
X8224Y27163D1*
X8214Y27153D1*
X8206Y27143D1*
X8199Y27133D1*
X8193Y27123D1*
X8189Y27113D1*
X8187Y27103D1*
X8185Y27093D1*
X8183Y27083D1*
X8181Y27073D1*
X8178Y27063D1*
X8176Y27053D1*
Y27043D1*
X8175Y27033D1*
Y27023D1*
Y27013D1*
Y27003D1*
Y26993D1*
Y26983D1*
Y26973D1*
Y26963D1*
Y26953D1*
Y26943D1*
Y26933D1*
Y26923D1*
X8176Y26913D1*
X8179Y26903D1*
X8181Y26893D1*
X8183Y26883D1*
X8184Y26873D1*
X8186Y26864D1*
X8189Y26854D1*
X8193Y26844D1*
X8199Y26834D1*
X8205Y26824D1*
X8210Y26814D1*
X8215Y26804D1*
X8324Y27173D2*
X8334Y27163D1*
X8343Y27153D1*
X8350Y27143D1*
X8356Y27133D1*
X8361Y27123D1*
X8366Y27113D1*
X8370Y27103D1*
X8372Y27093D1*
X8373Y27083D1*
X8374Y27073D1*
X8376Y27063D1*
X8378Y27053D1*
X8381Y27043D1*
X8383Y27033D1*
X8384Y27023D1*
Y27013D1*
Y27003D1*
Y26993D1*
Y26983D1*
Y26973D1*
Y26963D1*
Y26953D1*
Y26943D1*
X8383Y26933D1*
X8380Y26923D1*
X8378Y26913D1*
X8376Y26903D1*
X8375Y26893D1*
X8374Y26883D1*
X8373Y26873D1*
X8370Y26864D1*
X8366Y26854D1*
X8361Y26844D1*
X8356Y26834D1*
X8350Y26824D1*
X8342Y26814D1*
X8334Y26804D1*
X8324Y26794D1*
X8644Y27183D2*
X8624Y27173D1*
X8607Y27163D1*
X8594Y27153D1*
X8584Y27143D1*
X8575Y27133D1*
X8569Y27123D1*
X8565Y27113D1*
X8561Y27103D1*
X8558Y27093D1*
X8556Y27083D1*
X8554Y27073D1*
X8552Y27063D1*
X8550Y27053D1*
X8547Y27043D1*
X8545Y27033D1*
Y27023D1*
Y27013D1*
X8546Y27003D1*
X8551Y26993D1*
X8556Y26983D1*
X8557Y26973D1*
X8556Y26963D1*
X8555Y26953D1*
X8554Y26943D1*
Y26933D1*
Y26923D1*
Y26913D1*
Y26903D1*
Y26893D1*
Y26883D1*
Y26873D1*
X8556Y26864D1*
X8558Y26854D1*
X8563Y26844D1*
X8568Y26834D1*
X8576Y26824D1*
X8587Y26814D1*
X8599Y26804D1*
X8614Y26794D1*
X8713Y27183D2*
X8723Y27173D1*
X8205Y27163D2*
X8198Y27153D1*
X8192Y27143D1*
X8185Y27133D1*
X8179Y27123D1*
X8173Y27113D1*
X8169Y27103D1*
X8165Y27093D1*
X8162Y27083D1*
X8159Y27073D1*
X8157Y27063D1*
X8155Y27053D1*
X8153Y27043D1*
X8151Y27033D1*
X8148Y27023D1*
X8147Y27013D1*
X8146Y27003D1*
X8145Y26993D1*
Y26983D1*
Y26973D1*
Y26963D1*
X8147Y26953D1*
X8149Y26943D1*
X8151Y26933D1*
X8153Y26923D1*
X8155Y26913D1*
X8156Y26903D1*
X8159Y26893D1*
X8162Y26883D1*
X8165Y26873D1*
X8169Y26864D1*
X8173Y26854D1*
X8179Y26844D1*
X8185Y26834D1*
X8192Y26824D1*
X8200Y26814D1*
X8211Y26804D1*
X8224Y26794D1*
X8239Y26784D1*
X8255Y26774D1*
X9501Y27163D2*
Y27153D1*
Y27143D1*
Y27133D1*
Y27123D1*
Y27113D1*
Y27103D1*
Y27093D1*
Y27083D1*
Y27073D1*
Y27063D1*
Y27053D1*
Y27043D1*
Y27033D1*
X9543Y27023D1*
X9576Y27013D1*
X9600Y27003D1*
X9618Y26993D1*
X9631Y26983D1*
X9642Y26973D1*
X9650Y26963D1*
X9657Y26953D1*
X9662Y26943D1*
X9666Y26933D1*
X9669Y26923D1*
X9670Y26913D1*
X9671Y26903D1*
Y26893D1*
Y26883D1*
X9670Y26873D1*
X9669Y26864D1*
X9666Y26854D1*
X9662Y26844D1*
X9656Y26834D1*
X9649Y26824D1*
X9640Y26814D1*
X9628Y26804D1*
X9613Y26794D1*
X9593Y26784D1*
X9571Y26774D1*
X6449Y27123D2*
X6441Y27113D1*
X6434Y27103D1*
X6428Y27093D1*
X6424Y27083D1*
X6420Y27073D1*
X6416Y27063D1*
X6413Y27053D1*
X6410Y27043D1*
X6406Y27033D1*
X6401Y27023D1*
X6397Y27013D1*
X6393Y27003D1*
X6390Y26993D1*
X6386Y26983D1*
X6382Y26973D1*
X6377Y26963D1*
X6374Y26953D1*
X6371Y26943D1*
X6370Y26933D1*
Y26923D1*
Y26913D1*
X6479Y27123D2*
X6481Y27113D1*
X6483Y27103D1*
X6486Y27093D1*
X6489Y27083D1*
X6493Y27073D1*
X6497Y27063D1*
X6502Y27053D1*
X6505Y27043D1*
X6509Y27033D1*
X6513Y27023D1*
X6517Y27013D1*
X6522Y27003D1*
X6525Y26993D1*
X6529Y26983D1*
X6533Y26973D1*
X6537Y26963D1*
X6541Y26953D1*
X6545Y26943D1*
X6547Y26933D1*
X6548Y26923D1*
X6549Y26913D1*
X6908Y27063D2*
Y27053D1*
Y27043D1*
Y27033D1*
Y27023D1*
Y27013D1*
Y27003D1*
Y26993D1*
Y26983D1*
Y26973D1*
Y26963D1*
Y26953D1*
Y26943D1*
Y26933D1*
Y26923D1*
Y26913D1*
Y26903D1*
Y26893D1*
Y26883D1*
Y26873D1*
Y26864D1*
Y26854D1*
Y26844D1*
Y26834D1*
Y26824D1*
Y26814D1*
Y26804D1*
Y26794D1*
Y26784D1*
Y26774D1*
Y26764D1*
Y26754D1*
Y26744D1*
Y26734D1*
Y26724D1*
Y26714D1*
Y26704D1*
Y26694D1*
Y26684D1*
Y26674D1*
X6938Y27063D2*
Y27053D1*
X6939Y27043D1*
X6941Y27033D1*
X6948Y27023D1*
X6958Y27013D1*
X6950Y27003D1*
X6944Y26993D1*
X6941Y26983D1*
X6939Y26973D1*
X6938Y26963D1*
Y26953D1*
Y26943D1*
Y26933D1*
Y26923D1*
Y26913D1*
Y26903D1*
Y26893D1*
Y26883D1*
Y26873D1*
Y26864D1*
X6939Y26854D1*
X6940Y26844D1*
X6945Y26834D1*
X6956Y26824D1*
X6968Y26814D1*
X6954Y26804D1*
X6944Y26794D1*
X6941Y26784D1*
X6939Y26774D1*
X6938Y26764D1*
Y26754D1*
Y26744D1*
Y26734D1*
Y26724D1*
Y26714D1*
Y26704D1*
Y26694D1*
Y26684D1*
Y26674D1*
X7038Y27063D2*
X7019Y27053D1*
X7002Y27043D1*
X6988Y27033D1*
X7078Y27063D2*
X7092Y27053D1*
X7105Y27043D1*
X7116Y27033D1*
X7125Y27023D1*
X7133Y27013D1*
X7139Y27003D1*
X7145Y26993D1*
X7149Y26983D1*
X7153Y26973D1*
X7156Y26963D1*
X7157Y26953D1*
Y26943D1*
Y26933D1*
Y26923D1*
Y26913D1*
X7156Y26903D1*
X7153Y26893D1*
X7150Y26883D1*
X7147Y26873D1*
X7144Y26864D1*
X7139Y26854D1*
X7133Y26844D1*
X7127Y26834D1*
X7119Y26824D1*
X7109Y26814D1*
X7097Y26804D1*
X7083Y26794D1*
X7068Y26784D1*
X7407Y27063D2*
X7391Y27053D1*
X7375Y27043D1*
X7361Y27033D1*
X7347Y27023D1*
X7447Y27063D2*
X7461Y27053D1*
X7474Y27043D1*
X7484Y27033D1*
X7492Y27023D1*
X7498Y27013D1*
X7502Y27003D1*
X7504Y26993D1*
X7506Y26983D1*
Y26973D1*
Y26963D1*
X7507Y26953D1*
Y26943D1*
Y26933D1*
Y26923D1*
Y26913D1*
Y26903D1*
Y26893D1*
Y26883D1*
Y26873D1*
Y26864D1*
Y26854D1*
Y26844D1*
Y26834D1*
Y26824D1*
Y26814D1*
Y26804D1*
Y26794D1*
Y26784D1*
X7706Y27063D2*
X7675Y27053D1*
X7646Y27043D1*
X7766Y27063D2*
X7785Y27053D1*
X7799Y27043D1*
X7809Y27033D1*
X7816Y27023D1*
X7821Y27013D1*
X7824Y27003D1*
X7825Y26993D1*
Y26983D1*
X7826Y26973D1*
Y26963D1*
Y26953D1*
Y26943D1*
Y26933D1*
Y26923D1*
Y26913D1*
Y26903D1*
Y26893D1*
Y26883D1*
Y26873D1*
Y26864D1*
Y26854D1*
Y26844D1*
X7828Y26834D1*
X7831Y26824D1*
X7839Y26814D1*
X7849Y26804D1*
X7858Y26794D1*
X7866Y26784D1*
X7686Y27053D2*
X7676Y27043D1*
X7766Y27053D2*
X7776Y27043D1*
X7785Y27033D1*
X7794Y27023D1*
X7800Y27013D1*
X7803Y27003D1*
X7805Y26993D1*
Y26983D1*
X7806Y26973D1*
Y26963D1*
Y26953D1*
Y26943D1*
X7726Y26933D1*
X7806Y26923D1*
Y26913D1*
Y26903D1*
Y26893D1*
Y26883D1*
Y26873D1*
X7805Y26864D1*
X7804Y26854D1*
X7800Y26844D1*
X7793Y26834D1*
X7786Y26824D1*
X7802Y26814D1*
X7814Y26804D1*
X7825Y26794D1*
X7836Y26784D1*
X6998Y27033D2*
X6978Y27023D1*
X7078Y27043D2*
X7088Y27033D1*
X7097Y27023D1*
X7106Y27013D1*
X7113Y27003D1*
X7119Y26993D1*
X7123Y26983D1*
X7125Y26973D1*
X7127Y26963D1*
Y26953D1*
Y26943D1*
X7128Y26933D1*
Y26923D1*
Y26913D1*
Y26903D1*
Y26893D1*
X7127Y26883D1*
X7126Y26873D1*
X7123Y26864D1*
X7119Y26854D1*
X7115Y26844D1*
X7109Y26834D1*
X7102Y26824D1*
X7079Y26814D1*
X7042Y26804D1*
X6998Y26794D1*
X7018Y26784D1*
X7377Y27033D2*
X7357Y27023D1*
X7447Y27043D2*
X7456Y27033D1*
X7465Y27023D1*
X7471Y27013D1*
X7474Y27003D1*
X7475Y26993D1*
X7476Y26983D1*
Y26973D1*
X7477Y26963D1*
Y26953D1*
Y26943D1*
Y26933D1*
Y26923D1*
Y26913D1*
Y26903D1*
Y26893D1*
Y26883D1*
Y26873D1*
Y26864D1*
Y26854D1*
Y26844D1*
Y26834D1*
Y26824D1*
Y26814D1*
Y26804D1*
Y26794D1*
Y26784D1*
X8644Y27033D2*
X8624Y27023D1*
X8665Y27013D1*
X8694Y27003D1*
X8714Y26993D1*
X8727Y26983D1*
X8734Y26973D1*
X8739Y26963D1*
X8742Y26953D1*
X8744Y26943D1*
X8747Y26933D1*
X8750Y26923D1*
X8752Y26913D1*
Y26903D1*
X8751Y26893D1*
X8749Y26883D1*
X8747Y26873D1*
X8745Y26864D1*
X8742Y26854D1*
X8739Y26844D1*
X8735Y26834D1*
X8728Y26824D1*
X8719Y26814D1*
X8707Y26804D1*
X8693Y26794D1*
X8683Y27033D2*
X8703Y27023D1*
X8718Y27013D1*
X8731Y27003D1*
X8741Y26993D1*
X8749Y26983D1*
X8755Y26973D1*
X8760Y26963D1*
X8765Y26953D1*
X8769Y26943D1*
X8771Y26933D1*
X8772Y26923D1*
X8773Y26913D1*
Y26903D1*
X8772Y26893D1*
X8769Y26883D1*
X8766Y26873D1*
X8763Y26864D1*
X8759Y26854D1*
X8755Y26844D1*
X8749Y26834D1*
X8741Y26824D1*
X8732Y26814D1*
X8721Y26804D1*
X8707Y26794D1*
X8691Y26784D1*
X8673Y26774D1*
X8604Y27013D2*
X7686Y26923D2*
X7706D2*
X7687Y26913D1*
X7672Y26903D1*
X7660Y26893D1*
X7652Y26883D1*
X7649Y26873D1*
X7647Y26864D1*
Y26854D1*
X7648Y26844D1*
X7653Y26834D1*
X7664Y26824D1*
X7676Y26814D1*
X7666Y26913D2*
X7654Y26903D1*
X7644Y26893D1*
X7637Y26883D1*
X7631Y26873D1*
X7629Y26864D1*
X7627Y26854D1*
Y26844D1*
X7628Y26834D1*
X7631Y26824D1*
X7639Y26814D1*
X7649Y26804D1*
X7662Y26794D1*
X7676Y26784D1*
X6360Y26893D2*
X6351Y26883D1*
X6344Y26873D1*
X6338Y26864D1*
X6334Y26854D1*
X6330Y26844D1*
X6326Y26834D1*
X6322Y26824D1*
X6317Y26814D1*
X6314Y26804D1*
X6311Y26794D1*
X6310Y26784D1*
X6569Y26893D2*
X6571Y26883D1*
X6573Y26873D1*
X6577Y26864D1*
X6581Y26854D1*
X6585Y26844D1*
X6589Y26834D1*
X6593Y26824D1*
X6597Y26814D1*
X6601Y26804D1*
X6605Y26794D1*
X6609Y26784D1*
X8903Y26824D2*
Y26814D1*
Y26804D1*
Y26794D1*
Y26784D1*
X8943Y26824D2*
Y26814D1*
Y26804D1*
Y26794D1*
Y26784D1*
X7756Y26814D2*
X7746Y26804D1*
X7766Y26814D2*
X7751Y26804D1*
X7734Y26794D1*
X7716Y26784D1*
X6978Y26804D2*
X6998Y26794D1*
X7018Y26784D1*
X6988Y26804D2*
X8235Y26794D2*
X9481D2*
X9491Y26784D1*
X9501Y26774D1*
X9491Y26794D2*
X9344Y20855D2*
X9334Y20874D1*
X9315Y20894D1*
X9296Y20903D1*
X9258D1*
X9239Y20894D1*
X9220Y20874D1*
X9210Y20855D1*
X9200Y20827D1*
Y20779D1*
X9210Y20750D1*
X9220Y20731D1*
X9239Y20712D1*
X9258Y20702D1*
X9296D1*
X9315Y20712D1*
X9334Y20731D1*
X9344Y20750D1*
X9463Y20903D2*
X9434Y20893D1*
X9415Y20865D1*
X9406Y20817D1*
Y20788D1*
X9415Y20740D1*
X9434Y20712D1*
X9463Y20702D1*
X9482D1*
X9511Y20712D1*
X9530Y20740D1*
X9540Y20788D1*
Y20817D1*
X9530Y20865D1*
X9511Y20893D1*
X9482Y20903D1*
X9463D1*
X9530Y20865D2*
X9415Y20740D1*
X9407Y21348D2*
X9397Y21367D1*
X9378Y21386D1*
X9359Y21395D1*
X9321D1*
X9301Y21386D1*
X9282Y21367D1*
X9273Y21348D1*
X9263Y21319D1*
Y21271D1*
X9273Y21242D1*
X9282Y21223D1*
X9301Y21204D1*
X9321Y21194D1*
X9359D1*
X9378Y21204D1*
X9397Y21223D1*
X9407Y21242D1*
X9468Y21357D2*
X9488Y21367D1*
X9516Y21395D1*
Y21194D1*
X10840Y17096D2*
X10831Y17115D1*
X10811Y17134D1*
X10792Y17143D1*
X10754D1*
X10735Y17134D1*
X10716Y17115D1*
X10706Y17096D1*
X10697Y17067D1*
Y17019D1*
X10706Y16990D1*
X10716Y16971D1*
X10735Y16952D1*
X10754Y16942D1*
X10792D1*
X10811Y16952D1*
X10831Y16971D1*
X10840Y16990D1*
X10912Y17095D2*
Y17105D1*
X10921Y17124D1*
X10931Y17134D1*
X10950Y17143D1*
X10988D1*
X11007Y17134D1*
X11017Y17124D1*
X11026Y17105D1*
Y17086D1*
X11017Y17067D1*
X10998Y17038D1*
X10902Y16942D1*
X11036D1*
X13793Y17194D2*
X13783Y17213D1*
X13764Y17232D1*
X13745Y17242D1*
X13707D1*
X13688Y17232D1*
X13669Y17213D1*
X13659Y17194D1*
X13649Y17165D1*
Y17117D1*
X13659Y17089D1*
X13669Y17069D1*
X13688Y17050D1*
X13707Y17041D1*
X13745D1*
X13764Y17050D1*
X13783Y17069D1*
X13793Y17089D1*
X13874Y17241D2*
X13979D1*
X13922Y17165D1*
X13950D1*
X13969Y17155D1*
X13979Y17146D1*
X13989Y17117D1*
Y17098D1*
X13979Y17069D1*
X13960Y17050D1*
X13931Y17041D1*
X13902D1*
X13874Y17050D1*
X13864Y17060D1*
X13855Y17079D1*
X15304Y20245D2*
X15294Y20264D1*
X15275Y20283D1*
X15256Y20293D1*
X15218D1*
X15199Y20283D1*
X15180Y20264D1*
X15170Y20245D1*
X15160Y20216D1*
Y20168D1*
X15170Y20140D1*
X15180Y20121D1*
X15199Y20102D1*
X15218Y20092D1*
X15256D1*
X15275Y20102D1*
X15294Y20121D1*
X15304Y20140D1*
X15461Y20092D2*
Y20293D1*
X15366Y20159D1*
X15509D1*
X14442Y20245D2*
X14433Y20264D1*
X14414Y20283D1*
X14395Y20293D1*
X14356D1*
X14337Y20283D1*
X14318Y20264D1*
X14308Y20245D1*
X14299Y20216D1*
Y20168D1*
X14308Y20140D1*
X14318Y20121D1*
X14337Y20102D1*
X14356Y20092D1*
X14395D1*
X14414Y20102D1*
X14433Y20121D1*
X14442Y20140D1*
X14619Y20293D2*
X14523D1*
X14514Y20207D1*
X14523Y20216D1*
X14552Y20226D1*
X14581D1*
X14609Y20216D1*
X14629Y20197D1*
X14638Y20168D1*
Y20149D1*
X14629Y20121D1*
X14609Y20101D1*
X14581Y20092D1*
X14552D1*
X14523Y20101D1*
X14514Y20111D1*
X14504Y20130D1*
X14624Y17191D2*
X14615Y17210D1*
X14596Y17229D1*
X14577Y17239D1*
X14538D1*
X14519Y17229D1*
X14500Y17210D1*
X14490Y17191D1*
X14481Y17162D1*
Y17114D1*
X14490Y17086D1*
X14500Y17066D1*
X14519Y17047D1*
X14538Y17038D1*
X14577D1*
X14596Y17047D1*
X14615Y17066D1*
X14624Y17086D1*
X14801Y17210D2*
X14791Y17229D1*
X14763Y17238D1*
X14744D1*
X14715Y17229D1*
X14696Y17200D1*
X14686Y17152D1*
Y17105D1*
X14696Y17066D1*
X14715Y17047D1*
X14744Y17038D1*
X14753D1*
X14782Y17047D1*
X14801Y17066D1*
X14810Y17095D1*
Y17105D1*
X14801Y17133D1*
X14782Y17152D1*
X14753Y17162D1*
X14744D1*
X14715Y17152D1*
X14696Y17133D1*
X14686Y17105D1*
X15239Y19060D2*
X15220Y19051D1*
X15201Y19032D1*
X15191Y19013D1*
Y18974D1*
X15201Y18955D1*
X15220Y18936D1*
X15239Y18927D1*
X15268Y18917D1*
X15316D1*
X15344Y18927D1*
X15364Y18936D1*
X15383Y18955D1*
X15392Y18974D1*
Y19013D1*
X15383Y19032D1*
X15364Y19051D1*
X15344Y19060D1*
X15392Y19160D2*
X15192Y19256D1*
Y19122D1*
X22257Y13218D2*
X22248Y13237D1*
X22229Y13256D1*
X22210Y13265D1*
X22171D1*
X22152Y13256D1*
X22133Y13237D1*
X22123Y13218D1*
X22114Y13189D1*
Y13141D1*
X22123Y13112D1*
X22133Y13093D1*
X22152Y13074D1*
X22171Y13064D1*
X22210D1*
X22229Y13074D1*
X22248Y13093D1*
X22257Y13112D1*
X22367Y13265D2*
X22338Y13256D1*
X22329Y13237D1*
Y13217D1*
X22338Y13198D1*
X22357Y13189D1*
X22396Y13179D1*
X22424Y13170D1*
X22443Y13150D1*
X22453Y13131D1*
Y13103D1*
X22443Y13084D1*
X22434Y13074D1*
X22405Y13064D1*
X22367D1*
X22338Y13074D1*
X22329Y13084D1*
X22319Y13103D1*
Y13131D1*
X22329Y13150D1*
X22348Y13170D1*
X22376Y13179D1*
X22415Y13189D1*
X22434Y13198D1*
X22443Y13217D1*
Y13237D1*
X22434Y13256D1*
X22405Y13265D1*
X22367D1*
X21770Y10068D2*
X21760Y10087D1*
X21741Y10106D1*
X21722Y10116D1*
X21684D1*
X21665Y10106D1*
X21646Y10087D1*
X21636Y10068D1*
X21626Y10039D1*
Y9991D1*
X21636Y9963D1*
X21646Y9944D1*
X21665Y9924D1*
X21684Y9915D1*
X21722D1*
X21741Y9924D1*
X21760Y9944D1*
X21770Y9963D1*
X21956Y10049D2*
X21946Y10020D1*
X21927Y10001D1*
X21899Y9991D1*
X21889D1*
X21860Y10001D1*
X21841Y10020D1*
X21832Y10049D1*
Y10058D1*
X21841Y10087D1*
X21860Y10106D1*
X21889Y10116D1*
X21899D1*
X21927Y10106D1*
X21946Y10087D1*
X21956Y10049D1*
Y10001D1*
X21946Y9953D1*
X21927Y9924D1*
X21899Y9915D1*
X21880D1*
X21851Y9924D1*
X21841Y9944D1*
X15719Y18147D2*
X15700Y18138D1*
X15681Y18119D1*
X15672Y18100D1*
Y18061D1*
X15681Y18042D1*
X15700Y18023D1*
X15719Y18013D1*
X15748Y18004D1*
X15796D1*
X15825Y18013D1*
X15844Y18023D1*
X15863Y18042D1*
X15873Y18061D1*
Y18100D1*
X15863Y18119D1*
X15844Y18138D1*
X15825Y18147D1*
X15710Y18209D2*
X15700Y18228D1*
X15672Y18257D1*
X15873D1*
X15672Y18376D2*
X15681Y18348D1*
X15710Y18328D1*
X15758Y18319D1*
X15787D1*
X15834Y18328D1*
X15863Y18348D1*
X15873Y18376D1*
Y18395D1*
X15863Y18424D1*
X15834Y18443D1*
X15787Y18453D1*
X15758D1*
X15710Y18443D1*
X15681Y18424D1*
X15672Y18395D1*
Y18376D1*
X15710Y18443D2*
X15834Y18328D1*
X15693Y16616D2*
X15674Y16606D1*
X15655Y16587D1*
X15646Y16568D1*
Y16530D1*
X15655Y16510D1*
X15674Y16491D1*
X15693Y16482D1*
X15722Y16472D1*
X15770D1*
X15799Y16482D1*
X15818Y16491D1*
X15837Y16510D1*
X15847Y16530D1*
Y16568D1*
X15837Y16587D1*
X15818Y16606D1*
X15799Y16616D1*
X15684Y16677D2*
X15674Y16697D1*
X15646Y16725D1*
X15847D1*
X15684Y16787D2*
X15674Y16806D1*
X15646Y16835D1*
X15847D1*
X10250Y22025D2*
X10241Y22044D1*
X10221Y22063D1*
X10202Y22072D1*
X10164D1*
X10145Y22063D1*
X10126Y22044D1*
X10116Y22025D1*
X10107Y21996D1*
Y21948D1*
X10116Y21919D1*
X10126Y21900D1*
X10145Y21881D1*
X10164Y21871D1*
X10202D1*
X10221Y21881D1*
X10241Y21900D1*
X10250Y21919D1*
X10322Y22024D2*
Y22034D1*
X10331Y22053D1*
X10341Y22063D1*
X10360Y22072D1*
X10398D1*
X10417Y22063D1*
X10427Y22053D1*
X10436Y22034D1*
Y22015D1*
X10427Y21996D1*
X10408Y21967D1*
X10312Y21871D1*
X10446D1*
X10565Y22072D2*
X10536Y22063D1*
X10517Y22034D1*
X10508Y21986D1*
Y21957D1*
X10517Y21910D1*
X10536Y21881D1*
X10565Y21871D1*
X10584D1*
X10613Y21881D1*
X10632Y21910D1*
X10641Y21957D1*
Y21986D1*
X10632Y22034D1*
X10613Y22063D1*
X10584Y22072D1*
X10565D1*
X10632Y22034D2*
X10517Y21910D1*
X14663Y25009D2*
X14654Y25028D1*
X14634Y25047D1*
X14615Y25057D1*
X14577D1*
X14558Y25047D1*
X14539Y25028D1*
X14529Y25009D1*
X14520Y24980D1*
Y24932D1*
X14529Y24904D1*
X14539Y24884D1*
X14558Y24865D1*
X14577Y24856D1*
X14615D1*
X14634Y24865D1*
X14654Y24884D1*
X14663Y24904D1*
X14735Y25009D2*
Y25018D1*
X14744Y25037D1*
X14754Y25047D1*
X14773Y25056D1*
X14811D1*
X14830Y25047D1*
X14840Y25037D1*
X14849Y25018D1*
Y24999D1*
X14840Y24980D1*
X14821Y24951D1*
X14725Y24856D1*
X14859D1*
X14921Y25018D2*
X14940Y25028D1*
X14969Y25056D1*
Y24856D1*
X14640Y25619D2*
X14630Y25638D1*
X14611Y25657D1*
X14592Y25667D1*
X14554D1*
X14535Y25657D1*
X14516Y25638D1*
X14506Y25619D1*
X14496Y25590D1*
Y25542D1*
X14506Y25514D1*
X14516Y25495D1*
X14535Y25476D1*
X14554Y25466D1*
X14592D1*
X14611Y25476D1*
X14630Y25495D1*
X14640Y25514D1*
X14711Y25619D2*
Y25628D1*
X14721Y25648D1*
X14730Y25657D1*
X14750Y25667D1*
X14788D1*
X14807Y25657D1*
X14816Y25648D1*
X14826Y25628D1*
Y25609D1*
X14816Y25590D1*
X14797Y25562D1*
X14702Y25466D1*
X14836D1*
X14907Y25619D2*
Y25628D1*
X14917Y25648D1*
X14926Y25657D1*
X14945Y25667D1*
X14983D1*
X15003Y25657D1*
X15012Y25648D1*
X15022Y25628D1*
Y25609D1*
X15012Y25590D1*
X14993Y25562D1*
X14897Y25466D1*
X15031D1*
X12533Y26505D2*
X12524Y26524D1*
X12505Y26543D1*
X12486Y26553D1*
X12447D1*
X12428Y26543D1*
X12409Y26524D1*
X12400Y26505D1*
X12390Y26476D1*
Y26428D1*
X12400Y26400D1*
X12409Y26381D1*
X12428Y26362D1*
X12447Y26352D1*
X12486D1*
X12505Y26362D1*
X12524Y26381D1*
X12533Y26400D1*
X12605Y26505D2*
Y26514D1*
X12614Y26534D1*
X12624Y26543D1*
X12643Y26553D1*
X12681D1*
X12700Y26543D1*
X12710Y26534D1*
X12720Y26514D1*
Y26495D1*
X12710Y26476D1*
X12691Y26448D1*
X12595Y26352D1*
X12729D1*
X12810Y26553D2*
X12915D1*
X12858Y26476D1*
X12887D1*
X12906Y26467D1*
X12915Y26457D1*
X12925Y26428D1*
Y26409D1*
X12915Y26381D1*
X12896Y26361D1*
X12867Y26352D1*
X12839D1*
X12810Y26361D1*
X12801Y26371D1*
X12791Y26390D1*
X15424Y22135D2*
X15405Y22126D1*
X15386Y22106D1*
X15376Y22087D1*
Y22049D1*
X15386Y22030D1*
X15405Y22011D1*
X15424Y22001D1*
X15453Y21992D1*
X15501D1*
X15529Y22001D1*
X15549Y22011D1*
X15568Y22030D1*
X15577Y22049D1*
Y22087D1*
X15568Y22106D1*
X15549Y22126D1*
X15529Y22135D1*
X15424Y22207D2*
X15415D1*
X15396Y22216D1*
X15386Y22226D1*
X15377Y22245D1*
Y22283D1*
X15386Y22302D1*
X15396Y22312D1*
X15415Y22321D1*
X15434D1*
X15453Y22312D1*
X15482Y22293D1*
X15577Y22197D1*
Y22331D1*
Y22488D2*
X15377D1*
X15510Y22393D1*
Y22536D1*
X14971Y22947D2*
X14952Y22937D1*
X14933Y22918D1*
X14924Y22899D1*
Y22861D1*
X14933Y22842D1*
X14952Y22823D1*
X14971Y22813D1*
X15000Y22803D1*
X15048D1*
X15077Y22813D1*
X15096Y22823D1*
X15115Y22842D1*
X15125Y22861D1*
Y22899D1*
X15115Y22918D1*
X15096Y22937D1*
X15077Y22947D1*
X14972Y23018D2*
X14962D1*
X14943Y23028D1*
X14933Y23037D1*
X14924Y23057D1*
Y23095D1*
X14933Y23114D1*
X14943Y23123D1*
X14962Y23133D1*
X14981D1*
X15000Y23123D1*
X15029Y23104D1*
X15125Y23009D1*
Y23143D1*
X14924Y23319D2*
Y23224D1*
X15010Y23214D1*
X15000Y23224D1*
X14991Y23252D1*
Y23281D1*
X15000Y23310D1*
X15019Y23329D1*
X15048Y23338D1*
X15067D1*
X15096Y23329D1*
X15115Y23310D1*
X15125Y23281D1*
Y23252D1*
X15115Y23224D1*
X15105Y23214D1*
X15086Y23204D1*
X14558Y22932D2*
X14539Y22923D1*
X14520Y22903D1*
X14510Y22884D1*
Y22846D1*
X14520Y22827D1*
X14539Y22808D1*
X14558Y22798D1*
X14587Y22789D1*
X14635D1*
X14663Y22798D1*
X14682Y22808D1*
X14701Y22827D1*
X14711Y22846D1*
Y22884D1*
X14701Y22903D1*
X14682Y22923D1*
X14663Y22932D1*
X14558Y23004D2*
X14549D1*
X14529Y23013D1*
X14520Y23023D1*
X14510Y23042D1*
Y23080D1*
X14520Y23099D1*
X14529Y23109D1*
X14549Y23118D1*
X14568D1*
X14587Y23109D1*
X14615Y23090D1*
X14711Y22994D1*
Y23128D1*
X14539Y23304D2*
X14520Y23295D1*
X14510Y23266D1*
Y23247D1*
X14520Y23218D1*
X14549Y23199D1*
X14596Y23190D1*
X14644D1*
X14682Y23199D1*
X14702Y23218D1*
X14711Y23247D1*
Y23257D1*
X14702Y23285D1*
X14682Y23304D1*
X14654Y23314D1*
X14644D1*
X14615Y23304D1*
X14596Y23285D1*
X14587Y23257D1*
Y23247D1*
X14596Y23218D1*
X14615Y23199D1*
X14644Y23190D1*
X15900Y27194D2*
X15890Y27213D1*
X15871Y27232D1*
X15852Y27242D1*
X15814D1*
X15794Y27232D1*
X15775Y27213D1*
X15766Y27194D1*
X15756Y27165D1*
Y27117D1*
X15766Y27089D1*
X15775Y27069D1*
X15794Y27050D1*
X15814Y27041D1*
X15852D1*
X15871Y27050D1*
X15890Y27069D1*
X15900Y27089D1*
X15971Y27194D2*
Y27203D1*
X15981Y27222D1*
X15990Y27232D1*
X16009Y27241D1*
X16048D1*
X16067Y27232D1*
X16076Y27222D1*
X16086Y27203D1*
Y27184D1*
X16076Y27165D1*
X16057Y27136D1*
X15961Y27041D1*
X16095D1*
X16195D2*
X16291Y27241D1*
X16157D1*
X14519Y27986D2*
X14500Y27977D1*
X14480Y27958D1*
X14471Y27939D1*
Y27900D1*
X14480Y27881D1*
X14500Y27862D1*
X14519Y27852D1*
X14547Y27843D1*
X14595D1*
X14624Y27852D1*
X14643Y27862D1*
X14662Y27881D1*
X14672Y27900D1*
Y27939D1*
X14662Y27958D1*
X14643Y27977D1*
X14624Y27986D1*
X14519Y28058D2*
X14509D1*
X14490Y28067D1*
X14481Y28077D1*
X14471Y28096D1*
Y28134D1*
X14481Y28153D1*
X14490Y28163D1*
X14509Y28173D1*
X14528D1*
X14548Y28163D1*
X14576Y28144D1*
X14672Y28048D1*
Y28182D1*
X14471Y28292D2*
X14481Y28263D1*
X14500Y28253D1*
X14519D1*
X14538Y28263D1*
X14548Y28282D1*
X14557Y28320D1*
X14567Y28349D1*
X14586Y28368D1*
X14605Y28378D1*
X14634D1*
X14653Y28368D1*
X14662Y28359D1*
X14672Y28330D1*
Y28292D1*
X14662Y28263D1*
X14653Y28253D1*
X14634Y28244D1*
X14605D1*
X14586Y28253D1*
X14567Y28273D1*
X14557Y28301D1*
X14548Y28339D1*
X14538Y28359D1*
X14519Y28368D1*
X14500D1*
X14481Y28359D1*
X14471Y28330D1*
Y28292D1*
X16180Y21052D2*
X16170Y21071D1*
X16151Y21090D1*
X16132Y21100D1*
X16094D1*
X16075Y21090D1*
X16056Y21071D1*
X16046Y21052D1*
X16036Y21023D1*
Y20976D1*
X16046Y20947D1*
X16056Y20928D1*
X16075Y20909D1*
X16094Y20899D1*
X16132D1*
X16151Y20909D1*
X16170Y20928D1*
X16180Y20947D1*
X16251Y21052D2*
Y21062D1*
X16261Y21081D1*
X16270Y21090D1*
X16290Y21100D1*
X16328D1*
X16347Y21090D1*
X16356Y21081D1*
X16366Y21062D1*
Y21042D1*
X16356Y21023D1*
X16337Y20995D1*
X16242Y20899D1*
X16376D1*
X16562Y21033D2*
X16552Y21004D1*
X16533Y20985D1*
X16504Y20976D1*
X16495D1*
X16466Y20985D1*
X16447Y21004D1*
X16437Y21033D1*
Y21042D1*
X16447Y21071D1*
X16466Y21090D1*
X16495Y21100D1*
X16504D1*
X16533Y21090D1*
X16552Y21071D1*
X16562Y21033D1*
Y20985D1*
X16552Y20937D1*
X16533Y20909D1*
X16504Y20899D1*
X16485D1*
X16457Y20909D1*
X16447Y20928D1*
X16175Y21466D2*
X16166Y21485D1*
X16146Y21504D1*
X16127Y21513D1*
X16089D1*
X16070Y21504D1*
X16051Y21485D1*
X16041Y21466D1*
X16032Y21437D1*
Y21389D1*
X16041Y21360D1*
X16051Y21341D1*
X16070Y21322D1*
X16089Y21312D1*
X16127D1*
X16146Y21322D1*
X16166Y21341D1*
X16175Y21360D1*
X16256Y21513D2*
X16361D1*
X16304Y21437D1*
X16333D1*
X16352Y21427D1*
X16361Y21418D1*
X16371Y21389D1*
Y21370D1*
X16361Y21341D1*
X16342Y21322D1*
X16313Y21312D1*
X16285D1*
X16256Y21322D1*
X16247Y21332D1*
X16237Y21351D1*
X16490Y21513D2*
X16461Y21504D1*
X16442Y21475D1*
X16433Y21427D1*
Y21398D1*
X16442Y21351D1*
X16461Y21322D1*
X16490Y21312D1*
X16509D1*
X16538Y21322D1*
X16557Y21351D1*
X16567Y21398D1*
Y21427D1*
X16557Y21475D1*
X16538Y21504D1*
X16509Y21513D1*
X16490D1*
X16557Y21475D2*
X16442Y21351D1*
X12786Y25848D2*
X12767Y25839D1*
X12748Y25819D1*
X12739Y25800D1*
Y25762D1*
X12748Y25743D1*
X12767Y25724D1*
X12786Y25714D1*
X12815Y25705D1*
X12863D1*
X12892Y25714D1*
X12911Y25724D1*
X12930Y25743D1*
X12940Y25762D1*
Y25800D1*
X12930Y25819D1*
X12911Y25839D1*
X12892Y25848D1*
X12739Y25929D2*
Y26034D1*
X12815Y25977D1*
Y26006D1*
X12825Y26025D1*
X12834Y26034D1*
X12863Y26044D1*
X12882D1*
X12911Y26034D1*
X12930Y26015D1*
X12940Y25986D1*
Y25958D1*
X12930Y25929D1*
X12920Y25920D1*
X12901Y25910D1*
X12777Y26106D2*
X12767Y26125D1*
X12739Y26154D1*
X12940D1*
X12326Y25419D2*
X12307Y25410D1*
X12287Y25391D1*
X12278Y25372D1*
Y25333D1*
X12287Y25314D1*
X12307Y25295D1*
X12326Y25285D1*
X12354Y25276D1*
X12402D1*
X12431Y25285D1*
X12450Y25295D1*
X12469Y25314D1*
X12479Y25333D1*
Y25372D1*
X12469Y25391D1*
X12450Y25410D1*
X12431Y25419D1*
X12278Y25500D2*
Y25605D1*
X12355Y25548D1*
Y25577D1*
X12364Y25596D1*
X12374Y25605D1*
X12402Y25615D1*
X12421D1*
X12450Y25605D1*
X12469Y25586D1*
X12479Y25558D1*
Y25529D1*
X12469Y25500D1*
X12460Y25491D1*
X12441Y25481D1*
X12326Y25687D2*
X12316D1*
X12297Y25696D1*
X12288Y25706D1*
X12278Y25725D1*
Y25763D1*
X12288Y25782D1*
X12297Y25792D1*
X12316Y25801D1*
X12335D1*
X12355Y25792D1*
X12383Y25773D1*
X12479Y25677D1*
Y25811D1*
X11881Y25427D2*
X11862Y25418D1*
X11843Y25398D1*
X11833Y25379D1*
Y25341D1*
X11843Y25322D1*
X11862Y25303D1*
X11881Y25293D1*
X11910Y25284D1*
X11958D1*
X11986Y25293D1*
X12005Y25303D1*
X12024Y25322D1*
X12034Y25341D1*
Y25379D1*
X12024Y25398D1*
X12005Y25418D1*
X11986Y25427D1*
X11833Y25508D2*
Y25613D1*
X11910Y25556D1*
Y25585D1*
X11919Y25604D1*
X11929Y25613D1*
X11958Y25623D1*
X11977D1*
X12005Y25613D1*
X12025Y25594D1*
X12034Y25565D1*
Y25537D1*
X12025Y25508D1*
X12015Y25499D1*
X11996Y25489D1*
X11833Y25704D2*
Y25809D1*
X11910Y25752D1*
Y25780D1*
X11919Y25799D1*
X11929Y25809D1*
X11958Y25819D1*
X11977D1*
X12005Y25809D1*
X12025Y25790D1*
X12034Y25761D1*
Y25732D1*
X12025Y25704D1*
X12015Y25694D1*
X11996Y25685D1*
X14655Y26485D2*
X14645Y26504D1*
X14626Y26524D1*
X14607Y26533D1*
X14569D1*
X14549Y26524D1*
X14530Y26504D1*
X14521Y26485D1*
X14511Y26457D1*
Y26409D1*
X14521Y26380D1*
X14530Y26361D1*
X14549Y26342D1*
X14569Y26332D1*
X14607D1*
X14626Y26342D1*
X14645Y26361D1*
X14655Y26380D1*
X14736Y26533D2*
X14841D1*
X14783Y26456D1*
X14812D1*
X14831Y26447D1*
X14841Y26437D1*
X14850Y26409D1*
Y26390D1*
X14841Y26361D1*
X14822Y26342D1*
X14793Y26332D1*
X14764D1*
X14736Y26342D1*
X14726Y26351D1*
X14716Y26370D1*
X15008Y26332D2*
Y26533D1*
X14912Y26399D1*
X15056D1*
X14640Y24359D2*
X14630Y24378D1*
X14611Y24398D1*
X14592Y24407D1*
X14554D1*
X14535Y24398D1*
X14516Y24378D1*
X14506Y24359D1*
X14496Y24331D1*
Y24283D1*
X14506Y24254D1*
X14516Y24235D1*
X14535Y24216D1*
X14554Y24206D1*
X14592D1*
X14611Y24216D1*
X14630Y24235D1*
X14640Y24254D1*
X14721Y24407D2*
X14826D1*
X14769Y24330D1*
X14797D1*
X14816Y24321D1*
X14826Y24311D1*
X14836Y24283D1*
Y24264D1*
X14826Y24235D1*
X14807Y24216D1*
X14778Y24206D1*
X14749D1*
X14721Y24216D1*
X14711Y24225D1*
X14702Y24244D1*
X15012Y24407D2*
X14917D1*
X14907Y24321D1*
X14917Y24330D1*
X14945Y24340D1*
X14974D1*
X15003Y24330D1*
X15022Y24311D1*
X15031Y24283D1*
Y24264D1*
X15022Y24235D1*
X15003Y24216D1*
X14974Y24206D1*
X14945D1*
X14917Y24216D1*
X14907Y24225D1*
X14897Y24244D1*
X14251Y22096D2*
X14241Y22115D1*
X14222Y22134D1*
X14203Y22143D1*
X14165D1*
X14146Y22134D1*
X14127Y22115D1*
X14117Y22096D1*
X14107Y22067D1*
Y22019D1*
X14117Y21990D1*
X14127Y21971D1*
X14146Y21952D1*
X14165Y21942D1*
X14203D1*
X14222Y21952D1*
X14241Y21971D1*
X14251Y21990D1*
X14332Y22143D2*
X14437D1*
X14380Y22067D1*
X14408D1*
X14427Y22057D1*
X14437Y22048D1*
X14447Y22019D1*
Y22000D1*
X14437Y21971D1*
X14418Y21952D1*
X14389Y21942D1*
X14360D1*
X14332Y21952D1*
X14322Y21962D1*
X14313Y21981D1*
X14623Y22115D2*
X14614Y22134D1*
X14585Y22143D1*
X14566D1*
X14537Y22134D1*
X14518Y22105D1*
X14508Y22057D1*
Y22009D1*
X14518Y21971D1*
X14537Y21952D1*
X14566Y21942D1*
X14575D1*
X14604Y21952D1*
X14623Y21971D1*
X14633Y22000D1*
Y22009D1*
X14623Y22038D1*
X14604Y22057D1*
X14575Y22067D1*
X14566D1*
X14537Y22057D1*
X14518Y22038D1*
X14508Y22009D1*
X10250Y22312D2*
X10241Y22331D1*
X10221Y22350D1*
X10202Y22360D1*
X10164D1*
X10145Y22350D1*
X10126Y22331D1*
X10116Y22312D1*
X10107Y22283D1*
Y22235D1*
X10116Y22207D1*
X10126Y22188D1*
X10145Y22169D1*
X10164Y22159D1*
X10202D1*
X10221Y22169D1*
X10241Y22188D1*
X10250Y22207D1*
X10331Y22360D2*
X10436D1*
X10379Y22283D1*
X10408D1*
X10427Y22274D1*
X10436Y22264D1*
X10446Y22235D1*
Y22216D1*
X10436Y22188D1*
X10417Y22168D1*
X10388Y22159D1*
X10360D1*
X10331Y22168D1*
X10322Y22178D1*
X10312Y22197D1*
X10546Y22159D2*
X10641Y22360D1*
X10508D1*
X10250Y22804D2*
X10241Y22823D1*
X10221Y22842D1*
X10202Y22852D1*
X10164D1*
X10145Y22842D1*
X10126Y22823D1*
X10116Y22804D1*
X10107Y22775D1*
Y22727D1*
X10116Y22699D1*
X10126Y22680D1*
X10145Y22661D1*
X10164Y22651D1*
X10202D1*
X10221Y22661D1*
X10241Y22680D1*
X10250Y22699D1*
X10331Y22852D2*
X10436D1*
X10379Y22775D1*
X10408D1*
X10427Y22766D1*
X10436Y22756D1*
X10446Y22727D1*
Y22708D1*
X10436Y22680D1*
X10417Y22660D1*
X10388Y22651D1*
X10360D1*
X10331Y22660D1*
X10322Y22670D1*
X10312Y22689D1*
X10555Y22852D2*
X10527Y22842D1*
X10517Y22823D1*
Y22804D1*
X10527Y22785D1*
X10546Y22775D1*
X10584Y22766D1*
X10613Y22756D1*
X10632Y22737D1*
X10641Y22718D1*
Y22689D1*
X10632Y22670D1*
X10622Y22660D1*
X10594Y22651D1*
X10555D1*
X10527Y22660D1*
X10517Y22670D1*
X10508Y22689D1*
Y22718D1*
X10517Y22737D1*
X10536Y22756D1*
X10565Y22766D1*
X10603Y22775D1*
X10622Y22785D1*
X10632Y22804D1*
Y22823D1*
X10622Y22842D1*
X10594Y22852D1*
X10555D1*
X10255Y23218D2*
X10245Y23237D1*
X10226Y23256D1*
X10207Y23265D1*
X10169D1*
X10150Y23256D1*
X10131Y23237D1*
X10121Y23218D1*
X10111Y23189D1*
Y23141D1*
X10121Y23112D1*
X10131Y23093D1*
X10150Y23074D1*
X10169Y23064D1*
X10207D1*
X10226Y23074D1*
X10245Y23093D1*
X10255Y23112D1*
X10336Y23265D2*
X10441D1*
X10384Y23189D1*
X10412D1*
X10431Y23179D1*
X10441Y23170D1*
X10451Y23141D1*
Y23122D1*
X10441Y23093D1*
X10422Y23074D1*
X10393Y23064D1*
X10364D1*
X10336Y23074D1*
X10326Y23084D1*
X10317Y23103D1*
X10637Y23198D2*
X10627Y23170D1*
X10608Y23150D1*
X10579Y23141D1*
X10570D1*
X10541Y23150D1*
X10522Y23170D1*
X10512Y23198D1*
Y23208D1*
X10522Y23237D1*
X10541Y23256D1*
X10570Y23265D1*
X10579D1*
X10608Y23256D1*
X10627Y23237D1*
X10637Y23198D1*
Y23150D1*
X10627Y23103D1*
X10608Y23074D1*
X10579Y23064D1*
X10560D1*
X10531Y23074D1*
X10522Y23093D1*
X18533Y11761D2*
X18523Y11780D1*
X18504Y11799D1*
X18485Y11809D1*
X18447D1*
X18427Y11799D1*
X18408Y11780D1*
X18399Y11761D1*
X18389Y11732D1*
Y11684D1*
X18399Y11656D1*
X18408Y11636D1*
X18427Y11617D1*
X18447Y11608D1*
X18485D1*
X18504Y11617D1*
X18523Y11636D1*
X18533Y11656D1*
X18690Y11608D2*
Y11808D1*
X18594Y11675D1*
X18738D1*
X18857Y11808D2*
X18828Y11799D1*
X18809Y11770D1*
X18800Y11722D1*
Y11694D1*
X18809Y11646D1*
X18828Y11617D1*
X18857Y11608D1*
X18876D1*
X18905Y11617D1*
X18924Y11646D1*
X18934Y11694D1*
Y11722D1*
X18924Y11770D1*
X18905Y11799D1*
X18876Y11808D1*
X18857D1*
X18924Y11770D2*
X18809Y11646D1*
X17609Y8556D2*
X17590Y8546D1*
X17571Y8527D1*
X17561Y8508D1*
Y8470D1*
X17571Y8451D1*
X17590Y8432D1*
X17609Y8422D1*
X17638Y8413D1*
X17686D1*
X17714Y8422D1*
X17734Y8432D1*
X17753Y8451D1*
X17762Y8470D1*
Y8508D1*
X17753Y8527D1*
X17734Y8546D1*
X17714Y8556D1*
X17762Y8713D2*
X17562D1*
X17695Y8618D1*
Y8761D1*
X17600Y8823D2*
X17590Y8842D1*
X17562Y8871D1*
X17762D1*
X18082Y8474D2*
X18063Y8464D1*
X18043Y8445D1*
X18034Y8426D1*
Y8388D1*
X18043Y8368D1*
X18063Y8349D1*
X18082Y8340D1*
X18110Y8330D1*
X18158D1*
X18187Y8340D1*
X18206Y8349D1*
X18225Y8368D1*
X18235Y8388D1*
Y8426D1*
X18225Y8445D1*
X18206Y8464D1*
X18187Y8474D1*
X18235Y8631D2*
X18034D1*
X18168Y8535D1*
Y8679D1*
X18082Y8750D2*
X18072D1*
X18053Y8760D1*
X18044Y8769D1*
X18034Y8789D1*
Y8827D1*
X18044Y8846D1*
X18053Y8855D1*
X18072Y8865D1*
X18091D1*
X18111Y8855D1*
X18139Y8836D1*
X18235Y8741D1*
Y8875D1*
X12340Y14517D2*
X12331Y14536D1*
X12312Y14555D1*
X12293Y14565D1*
X12254D1*
X12235Y14555D1*
X12216Y14536D1*
X12206Y14517D1*
X12197Y14488D1*
Y14440D1*
X12206Y14412D1*
X12216Y14392D1*
X12235Y14373D1*
X12254Y14364D1*
X12293D1*
X12312Y14373D1*
X12331Y14392D1*
X12340Y14412D1*
X12536Y14565D2*
Y14364D1*
X12402Y14565D1*
Y14364D1*
X12598Y14526D2*
X12617Y14536D1*
X12646Y14564D1*
Y14364D1*
X19620Y5688D2*
X19611Y5707D1*
X19591Y5726D1*
X19572Y5736D1*
X19534D1*
X19515Y5726D1*
X19496Y5707D1*
X19486Y5688D1*
X19477Y5659D1*
Y5611D1*
X19486Y5583D1*
X19496Y5564D1*
X19515Y5545D1*
X19534Y5535D1*
X19572D1*
X19591Y5545D1*
X19611Y5564D1*
X19620Y5583D1*
X19816Y5736D2*
Y5535D1*
X19682Y5736D1*
Y5535D1*
X19887Y5688D2*
Y5697D1*
X19897Y5717D1*
X19906Y5726D1*
X19926Y5736D1*
X19964D1*
X19983Y5726D1*
X19992Y5717D1*
X20002Y5697D1*
Y5678D1*
X19992Y5659D1*
X19973Y5631D1*
X19878Y5535D1*
X20012D1*
X22929Y13482D2*
Y13281D1*
X22996D1*
X23025Y13291D1*
X23044Y13310D1*
X23054Y13329D1*
X23063Y13357D1*
Y13405D1*
X23054Y13434D1*
X23044Y13453D1*
X23025Y13472D1*
X22996Y13482D1*
X22929D1*
X23125Y13443D2*
X23144Y13453D1*
X23173Y13482D1*
Y13281D1*
X22197Y9781D2*
Y9580D1*
X22264D1*
X22293Y9590D1*
X22312Y9609D1*
X22322Y9628D1*
X22331Y9657D1*
Y9705D1*
X22322Y9733D1*
X22312Y9752D1*
X22293Y9772D1*
X22264Y9781D1*
X22197D1*
X22403Y9733D2*
Y9743D1*
X22412Y9762D1*
X22422Y9771D1*
X22441Y9781D1*
X22479D1*
X22498Y9771D1*
X22508Y9762D1*
X22518Y9743D1*
Y9724D1*
X22508Y9704D1*
X22489Y9676D1*
X22393Y9580D1*
X22527D1*
X21115Y11395D2*
Y11194D1*
X21182D1*
X21210Y11204D1*
X21230Y11223D1*
X21239Y11242D1*
X21249Y11271D1*
Y11319D1*
X21239Y11348D1*
X21230Y11367D1*
X21210Y11386D1*
X21182Y11395D1*
X21115D1*
X21330D2*
X21435D1*
X21377Y11319D1*
X21406D1*
X21425Y11309D1*
X21435Y11300D1*
X21444Y11271D1*
Y11252D1*
X21435Y11223D1*
X21416Y11204D1*
X21387Y11194D1*
X21358D1*
X21330Y11204D1*
X21320Y11214D1*
X21310Y11233D1*
X8807Y22872D2*
Y22671D1*
X8874D1*
X8902Y22680D1*
X8922Y22699D1*
X8931Y22719D1*
X8941Y22747D1*
Y22795D1*
X8931Y22824D1*
X8922Y22843D1*
X8902Y22862D1*
X8874Y22872D1*
X8807D1*
X9098Y22671D2*
Y22871D1*
X9003Y22738D1*
X9146D1*
X8812Y22360D2*
Y22159D1*
X8879D1*
X8907Y22169D1*
X8926Y22188D1*
X8936Y22207D1*
X8945Y22235D1*
Y22283D1*
X8936Y22312D1*
X8926Y22331D1*
X8907Y22350D1*
X8879Y22360D1*
X8812D1*
X9122D2*
X9026D1*
X9017Y22274D1*
X9026Y22283D1*
X9055Y22293D1*
X9084D1*
X9112Y22283D1*
X9132Y22264D1*
X9141Y22235D1*
Y22216D1*
X9132Y22188D1*
X9112Y22168D1*
X9084Y22159D1*
X9055D1*
X9026Y22168D1*
X9017Y22178D1*
X9007Y22197D1*
X19938Y14820D2*
Y14619D1*
X20005D1*
X20034Y14629D1*
X20053Y14648D1*
X20063Y14667D1*
X20072Y14696D1*
Y14744D1*
X20063Y14773D1*
X20053Y14792D1*
X20034Y14811D1*
X20005Y14820D1*
X19938D1*
X20249Y14792D2*
X20239Y14811D1*
X20211Y14820D1*
X20192D1*
X20163Y14811D1*
X20144Y14782D1*
X20134Y14734D1*
Y14686D1*
X20144Y14648D1*
X20163Y14629D1*
X20192Y14619D1*
X20201D1*
X20230Y14629D1*
X20249Y14648D1*
X20258Y14677D1*
Y14686D1*
X20249Y14715D1*
X20230Y14734D1*
X20201Y14744D1*
X20192D1*
X20163Y14734D1*
X20144Y14715D1*
X20134Y14686D1*
X16095Y20293D2*
Y20092D1*
X16162D1*
X16191Y20102D1*
X16210Y20121D1*
X16219Y20140D1*
X16229Y20168D1*
Y20216D1*
X16219Y20245D1*
X16210Y20264D1*
X16191Y20283D1*
X16162Y20293D1*
X16095D1*
X16329Y20092D2*
X16425Y20293D1*
X16291D1*
X18930Y14820D2*
Y14619D1*
X18997D1*
X19025Y14629D1*
X19045Y14648D1*
X19054Y14667D1*
X19064Y14696D1*
Y14744D1*
X19054Y14773D1*
X19045Y14792D1*
X19025Y14811D1*
X18997Y14820D1*
X18930D1*
X19173D2*
X19145Y14811D1*
X19135Y14792D1*
Y14772D1*
X19145Y14753D1*
X19164Y14744D1*
X19202Y14734D1*
X19231Y14725D1*
X19250Y14705D1*
X19259Y14686D1*
Y14658D1*
X19250Y14639D1*
X19240Y14629D1*
X19211Y14619D1*
X19173D1*
X19145Y14629D1*
X19135Y14639D1*
X19125Y14658D1*
Y14686D1*
X19135Y14705D1*
X19154Y14725D1*
X19183Y14734D1*
X19221Y14744D1*
X19240Y14753D1*
X19250Y14772D1*
Y14792D1*
X19240Y14811D1*
X19211Y14820D1*
X19173D1*
X19427D2*
Y14619D1*
X19494D1*
X19522Y14629D1*
X19541Y14648D1*
X19551Y14667D1*
X19560Y14696D1*
Y14744D1*
X19551Y14773D1*
X19541Y14792D1*
X19522Y14811D1*
X19494Y14820D1*
X19427D1*
X19747Y14753D2*
X19737Y14725D1*
X19718Y14705D1*
X19689Y14696D1*
X19680D1*
X19651Y14705D1*
X19632Y14725D1*
X19622Y14753D1*
Y14763D1*
X19632Y14792D1*
X19651Y14811D1*
X19680Y14820D1*
X19689D1*
X19718Y14811D1*
X19737Y14792D1*
X19747Y14753D1*
Y14705D1*
X19737Y14658D1*
X19718Y14629D1*
X19689Y14619D1*
X19670D1*
X19641Y14629D1*
X19632Y14648D1*
X24060Y22765D2*
Y22612D1*
X24050Y22584D1*
X24041Y22574D1*
X24022Y22564D1*
X24002D1*
X23983Y22574D1*
X23974Y22584D1*
X23964Y22612D1*
Y22631D1*
X24122Y22727D2*
X24141Y22737D1*
X24170Y22765D1*
Y22564D1*
X24017Y29781D2*
Y29628D1*
X24007Y29599D1*
X23998Y29590D1*
X23979Y29580D1*
X23959D1*
X23940Y29590D1*
X23931Y29599D1*
X23921Y29628D1*
Y29647D1*
X24088Y29733D2*
Y29743D1*
X24098Y29762D1*
X24107Y29771D1*
X24127Y29781D1*
X24165D1*
X24184Y29771D1*
X24193Y29762D1*
X24203Y29743D1*
Y29724D1*
X24193Y29704D1*
X24174Y29676D1*
X24079Y29580D1*
X24213D1*
X5017Y29765D2*
Y29612D1*
X5007Y29584D1*
X4998Y29574D1*
X4979Y29564D1*
X4959D1*
X4940Y29574D1*
X4931Y29584D1*
X4921Y29612D1*
Y29631D1*
X5098Y29765D2*
X5203D1*
X5146Y29689D1*
X5174D1*
X5193Y29679D1*
X5203Y29670D1*
X5213Y29641D1*
Y29622D1*
X5203Y29593D1*
X5184Y29574D1*
X5155Y29564D1*
X5126D1*
X5098Y29574D1*
X5088Y29584D1*
X5079Y29603D1*
X5012Y21150D2*
Y20997D1*
X5003Y20968D1*
X4993Y20958D1*
X4974Y20949D1*
X4955D1*
X4936Y20958D1*
X4926Y20968D1*
X4916Y20997D1*
Y21016D1*
X5170Y20949D2*
Y21149D1*
X5074Y21016D1*
X5217D1*
X21244Y23525D2*
Y23372D1*
X21235Y23343D1*
X21225Y23334D1*
X21206Y23324D1*
X21187D1*
X21168Y23334D1*
X21158Y23343D1*
X21149Y23372D1*
Y23391D1*
X21421Y23525D2*
X21325D1*
X21316Y23439D1*
X21325Y23448D1*
X21354Y23458D1*
X21383D1*
X21411Y23448D1*
X21431Y23429D1*
X21440Y23401D1*
Y23382D1*
X21431Y23353D1*
X21411Y23334D1*
X21383Y23324D1*
X21354D1*
X21325Y23334D1*
X21316Y23343D1*
X21306Y23362D1*
X6929Y23525D2*
Y23372D1*
X6919Y23343D1*
X6909Y23334D1*
X6890Y23324D1*
X6871D1*
X6852Y23334D1*
X6843Y23343D1*
X6833Y23372D1*
Y23391D1*
X7010Y23525D2*
X7115D1*
X7057Y23448D1*
X7086D1*
X7105Y23439D1*
X7115Y23429D1*
X7124Y23401D1*
Y23382D1*
X7115Y23353D1*
X7096Y23334D1*
X7067Y23324D1*
X7038D1*
X7010Y23334D1*
X7000Y23343D1*
X6990Y23362D1*
X7301Y23458D2*
Y23324D1*
Y23429D2*
X7282Y23449D1*
X7263Y23458D1*
X7234D1*
X7215Y23449D1*
X7196Y23429D1*
X7186Y23401D1*
Y23382D1*
X7196Y23353D1*
X7215Y23334D1*
X7234Y23324D1*
X7263D1*
X7282Y23334D1*
X7301Y23353D1*
X5929Y23525D2*
Y23372D1*
X5919Y23343D1*
X5909Y23334D1*
X5890Y23324D1*
X5871D1*
X5852Y23334D1*
X5843Y23343D1*
X5833Y23372D1*
Y23391D1*
X6010Y23525D2*
X6115D1*
X6057Y23448D1*
X6086D1*
X6105Y23439D1*
X6115Y23429D1*
X6124Y23401D1*
Y23382D1*
X6115Y23353D1*
X6096Y23334D1*
X6067Y23324D1*
X6038D1*
X6010Y23334D1*
X6000Y23343D1*
X5990Y23362D1*
X6186Y23525D2*
Y23324D1*
Y23429D2*
X6205Y23449D1*
X6224Y23458D1*
X6253D1*
X6272Y23449D1*
X6291Y23429D1*
X6301Y23401D1*
Y23382D1*
X6291Y23353D1*
X6272Y23334D1*
X6253Y23324D1*
X6224D1*
X6205Y23334D1*
X6186Y23353D1*
X13132Y23546D2*
X13333D1*
Y23661D1*
X13180Y23732D2*
X13171D1*
X13152Y23742D1*
X13142Y23751D1*
X13133Y23771D1*
Y23809D1*
X13142Y23828D1*
X13152Y23837D1*
X13171Y23847D1*
X13190D1*
X13209Y23837D1*
X13238Y23818D1*
X13333Y23723D1*
Y23857D1*
X13133Y23976D2*
X13142Y23947D1*
X13171Y23928D1*
X13219Y23918D1*
X13247D1*
X13295Y23928D1*
X13324Y23947D1*
X13333Y23976D1*
Y23995D1*
X13324Y24024D1*
X13295Y24043D1*
X13247Y24052D1*
X13219D1*
X13171Y24043D1*
X13142Y24024D1*
X13133Y23995D1*
Y23976D1*
X13171Y24043D2*
X13295Y23928D1*
X14018Y24258D2*
X14219D1*
Y24373D1*
X14066Y24445D2*
X14057D1*
X14037Y24454D1*
X14028Y24464D1*
X14018Y24483D1*
Y24521D1*
X14028Y24540D1*
X14037Y24550D1*
X14057Y24559D1*
X14076D1*
X14095Y24550D1*
X14123Y24531D1*
X14219Y24435D1*
Y24569D1*
X14057Y24631D2*
X14047Y24650D1*
X14018Y24679D1*
X14219D1*
X14038Y25141D2*
X14239D1*
Y25255D1*
X14086Y25327D2*
X14076D1*
X14057Y25336D1*
X14048Y25346D1*
X14038Y25365D1*
Y25403D1*
X14048Y25422D1*
X14057Y25432D1*
X14076Y25442D1*
X14095D1*
X14115Y25432D1*
X14143Y25413D1*
X14239Y25317D1*
Y25451D1*
X14086Y25523D2*
X14076D1*
X14057Y25532D1*
X14048Y25542D1*
X14038Y25561D1*
Y25599D1*
X14048Y25618D1*
X14057Y25628D1*
X14076Y25637D1*
X14095D1*
X14115Y25628D1*
X14143Y25609D1*
X14239Y25513D1*
Y25647D1*
X14018Y26007D2*
X14219D1*
Y26121D1*
X14066Y26193D2*
X14057D1*
X14037Y26202D1*
X14028Y26212D1*
X14018Y26231D1*
Y26269D1*
X14028Y26288D1*
X14037Y26298D1*
X14057Y26308D1*
X14076D1*
X14095Y26298D1*
X14123Y26279D1*
X14219Y26183D1*
Y26317D1*
X14018Y26398D2*
Y26503D1*
X14095Y26446D1*
Y26475D1*
X14104Y26494D1*
X14114Y26503D1*
X14143Y26513D1*
X14162D1*
X14190Y26503D1*
X14210Y26484D1*
X14219Y26455D1*
Y26427D1*
X14210Y26398D1*
X14200Y26389D1*
X14181Y26379D1*
X15376Y22813D2*
X15577D1*
Y22928D1*
X15424Y22999D2*
X15415D1*
X15396Y23009D1*
X15386Y23018D1*
X15377Y23037D1*
Y23076D1*
X15386Y23095D1*
X15396Y23104D1*
X15415Y23114D1*
X15434D1*
X15453Y23104D1*
X15482Y23085D1*
X15577Y22990D1*
Y23123D1*
Y23281D2*
X15377D1*
X15510Y23185D1*
Y23329D1*
X14570Y23797D2*
Y23596D1*
X14684D1*
X14756Y23749D2*
Y23758D1*
X14765Y23778D1*
X14775Y23787D1*
X14794Y23797D1*
X14832D1*
X14851Y23787D1*
X14861Y23778D1*
X14871Y23758D1*
Y23739D1*
X14861Y23720D1*
X14842Y23692D1*
X14746Y23596D1*
X14880D1*
X15057Y23797D2*
X14961D1*
X14952Y23711D1*
X14961Y23720D1*
X14990Y23730D1*
X15018D1*
X15047Y23720D1*
X15066Y23701D1*
X15076Y23672D1*
Y23653D1*
X15066Y23625D1*
X15047Y23605D1*
X15018Y23596D1*
X14990D1*
X14961Y23605D1*
X14952Y23615D1*
X14942Y23634D1*
X14077Y22429D2*
X14278D1*
Y22544D1*
X14125Y22615D2*
X14116D1*
X14096Y22625D1*
X14087Y22634D1*
X14077Y22653D1*
Y22692D1*
X14087Y22711D1*
X14096Y22720D1*
X14116Y22730D1*
X14135D1*
X14154Y22720D1*
X14182Y22701D1*
X14278Y22605D1*
Y22739D1*
X14106Y22916D2*
X14087Y22906D1*
X14077Y22878D1*
Y22859D1*
X14087Y22830D1*
X14116Y22811D1*
X14163Y22801D1*
X14211D1*
X14249Y22811D1*
X14269Y22830D1*
X14278Y22859D1*
Y22868D1*
X14269Y22897D1*
X14249Y22916D1*
X14221Y22925D1*
X14211D1*
X14182Y22916D1*
X14163Y22897D1*
X14154Y22868D1*
Y22859D1*
X14163Y22830D1*
X14182Y22811D1*
X14211Y22801D1*
X10723Y23895D2*
Y23694D1*
X10838D1*
X10910Y23847D2*
Y23857D1*
X10919Y23876D1*
X10929Y23886D1*
X10948Y23895D1*
X10986D1*
X11005Y23886D1*
X11015Y23876D1*
X11024Y23857D1*
Y23838D1*
X11015Y23819D1*
X10996Y23790D1*
X10900Y23694D1*
X11034D1*
X11134D2*
X11229Y23895D1*
X11096D1*
X10967Y24491D2*
X11168D1*
Y24606D1*
X11015Y24677D2*
X11005D1*
X10986Y24687D1*
X10977Y24696D1*
X10967Y24716D1*
Y24754D1*
X10977Y24773D1*
X10986Y24782D1*
X11005Y24792D1*
X11024D1*
X11044Y24782D1*
X11072Y24763D1*
X11168Y24668D1*
Y24802D1*
X10967Y24911D2*
X10977Y24883D1*
X10996Y24873D1*
X11015D1*
X11034Y24883D1*
X11044Y24902D1*
X11053Y24940D1*
X11063Y24969D1*
X11082Y24988D1*
X11101Y24997D1*
X11130D1*
X11149Y24988D1*
X11158Y24978D1*
X11168Y24949D1*
Y24911D1*
X11158Y24883D1*
X11149Y24873D1*
X11130Y24863D1*
X11101D1*
X11082Y24873D1*
X11063Y24892D1*
X11053Y24921D1*
X11044Y24959D1*
X11034Y24978D1*
X11015Y24988D1*
X10996D1*
X10977Y24978D1*
X10967Y24949D1*
Y24911D1*
X14515Y26120D2*
Y25919D1*
X14630D1*
X14702Y26072D2*
Y26081D1*
X14711Y26100D1*
X14721Y26110D1*
X14740Y26119D1*
X14778D1*
X14797Y26110D1*
X14807Y26100D1*
X14816Y26081D1*
Y26062D1*
X14807Y26043D1*
X14788Y26014D1*
X14692Y25919D1*
X14826D1*
X15012Y26053D2*
X15002Y26024D1*
X14983Y26005D1*
X14955Y25995D1*
X14945D1*
X14916Y26005D1*
X14897Y26024D1*
X14888Y26053D1*
Y26062D1*
X14897Y26091D1*
X14916Y26110D1*
X14945Y26119D1*
X14955D1*
X14983Y26110D1*
X15002Y26091D1*
X15012Y26053D1*
Y26005D1*
X15002Y25957D1*
X14983Y25928D1*
X14955Y25919D1*
X14936D1*
X14907Y25928D1*
X14897Y25947D1*
X15766Y18975D2*
Y19061D1*
X15757Y19090D1*
X15747Y19099D1*
X15728Y19109D1*
X15709D1*
X15690Y19099D1*
X15680Y19090D1*
X15671Y19061D1*
Y18975D1*
X15872D1*
X15766Y19042D2*
X15872Y19109D1*
X15709Y19171D2*
X15699Y19190D1*
X15671Y19219D1*
X15872D1*
X21193Y10020D2*
X21279D1*
X21308Y10030D1*
X21318Y10039D1*
X21327Y10058D1*
Y10077D1*
X21318Y10096D1*
X21308Y10106D1*
X21279Y10116D1*
X21193D1*
Y9915D1*
X21260Y10020D2*
X21327Y9915D1*
X21399Y10068D2*
Y10077D1*
X21408Y10096D1*
X21418Y10106D1*
X21437Y10116D1*
X21475D1*
X21494Y10106D1*
X21504Y10096D1*
X21514Y10077D1*
Y10058D1*
X21504Y10039D1*
X21485Y10010D1*
X21389Y9915D1*
X21523D1*
X20721Y10020D2*
X20807D1*
X20836Y10030D1*
X20845Y10039D1*
X20855Y10058D1*
Y10077D1*
X20845Y10096D1*
X20836Y10106D1*
X20807Y10116D1*
X20721D1*
Y9915D1*
X20788Y10020D2*
X20855Y9915D1*
X20936Y10116D2*
X21041D1*
X20984Y10039D1*
X21012D1*
X21031Y10030D1*
X21041Y10020D1*
X21051Y9991D1*
Y9972D1*
X21041Y9944D1*
X21022Y9924D1*
X20993Y9915D1*
X20964D1*
X20936Y9924D1*
X20926Y9934D1*
X20917Y9953D1*
X8767Y23288D2*
X8853D1*
X8882Y23297D1*
X8892Y23307D1*
X8901Y23326D1*
Y23345D1*
X8892Y23364D1*
X8882Y23374D1*
X8853Y23383D1*
X8767D1*
Y23182D1*
X8834Y23288D2*
X8901Y23182D1*
X9059D2*
Y23383D1*
X8963Y23249D1*
X9107D1*
X8812Y21945D2*
X8898D1*
X8926Y21955D1*
X8936Y21964D1*
X8945Y21983D1*
Y22003D1*
X8936Y22022D1*
X8926Y22031D1*
X8898Y22041D1*
X8812D1*
Y21840D1*
X8879Y21945D2*
X8945Y21840D1*
X9122Y22041D2*
X9026D1*
X9017Y21955D1*
X9026Y21964D1*
X9055Y21974D1*
X9084D1*
X9112Y21964D1*
X9132Y21945D1*
X9141Y21916D1*
Y21897D1*
X9132Y21869D1*
X9112Y21849D1*
X9084Y21840D1*
X9055D1*
X9026Y21849D1*
X9017Y21859D1*
X9007Y21878D1*
X15350Y16521D2*
Y16607D1*
X15340Y16635D1*
X15331Y16645D1*
X15312Y16654D1*
X15292D1*
X15273Y16645D1*
X15264Y16635D1*
X15254Y16607D1*
Y16521D1*
X15455D1*
X15350Y16588D2*
X15455Y16654D1*
X15283Y16831D2*
X15264Y16821D1*
X15254Y16793D1*
Y16774D1*
X15264Y16745D1*
X15293Y16726D1*
X15340Y16716D1*
X15388D1*
X15426Y16726D1*
X15446Y16745D1*
X15455Y16774D1*
Y16783D1*
X15446Y16812D1*
X15426Y16831D1*
X15398Y16841D1*
X15388D1*
X15359Y16831D1*
X15340Y16812D1*
X15331Y16783D1*
Y16774D1*
X15340Y16745D1*
X15359Y16726D1*
X15388Y16716D1*
X12769Y24469D2*
X12855D1*
X12884Y24479D1*
X12893Y24488D1*
X12903Y24507D1*
Y24526D1*
X12893Y24545D1*
X12884Y24555D1*
X12855Y24565D1*
X12769D1*
Y24364D1*
X12836Y24469D2*
X12903Y24364D1*
X12974Y24517D2*
Y24526D1*
X12984Y24545D1*
X12993Y24555D1*
X13012Y24564D1*
X13051D1*
X13070Y24555D1*
X13079Y24545D1*
X13089Y24526D1*
Y24507D1*
X13079Y24488D1*
X13060Y24459D1*
X12965Y24364D1*
X13098D1*
X13218Y24564D2*
X13189Y24555D1*
X13170Y24526D1*
X13160Y24478D1*
Y24450D1*
X13170Y24402D1*
X13189Y24373D1*
X13218Y24364D1*
X13237D1*
X13265Y24373D1*
X13284Y24402D1*
X13294Y24450D1*
Y24478D1*
X13284Y24526D1*
X13265Y24555D1*
X13237Y24564D1*
X13218D1*
X13284Y24526D2*
X13170Y24402D1*
X13287Y25686D2*
Y25772D1*
X13277Y25801D1*
X13268Y25810D1*
X13249Y25820D1*
X13230D1*
X13211Y25810D1*
X13201Y25801D1*
X13191Y25772D1*
Y25686D1*
X13392D1*
X13287Y25753D2*
X13392Y25820D1*
X13239Y25891D2*
X13230D1*
X13211Y25901D1*
X13201Y25910D1*
X13192Y25929D1*
Y25968D1*
X13201Y25987D1*
X13211Y25996D1*
X13230Y26006D1*
X13249D1*
X13268Y25996D1*
X13297Y25977D1*
X13392Y25882D1*
Y26015D1*
X13230Y26077D2*
X13220Y26096D1*
X13192Y26125D1*
X13392D1*
X18398Y18552D2*
X18379Y18571D1*
X18350Y18580D1*
X18312D1*
X18283Y18571D1*
X18264Y18552D1*
Y18533D1*
X18274Y18513D1*
X18283Y18504D1*
X18302Y18494D1*
X18360Y18475D1*
X18379Y18466D1*
X18388Y18456D1*
X18398Y18437D1*
Y18408D1*
X18379Y18389D1*
X18350Y18379D1*
X18312D1*
X18283Y18389D1*
X18264Y18408D1*
X18460Y18542D2*
X18479Y18552D1*
X18508Y18580D1*
Y18379D1*
X18414Y17174D2*
X18395Y17193D1*
X18366Y17202D1*
X18328D1*
X18299Y17193D1*
X18280Y17174D1*
Y17155D1*
X18290Y17135D1*
X18299Y17126D1*
X18318Y17116D1*
X18376Y17097D1*
X18395Y17088D1*
X18404Y17078D1*
X18414Y17059D1*
Y17030D1*
X18395Y17011D1*
X18366Y17001D1*
X18328D1*
X18299Y17011D1*
X18280Y17030D1*
X18485Y17154D2*
Y17164D1*
X18495Y17183D1*
X18505Y17193D1*
X18524Y17202D1*
X18562D1*
X18581Y17193D1*
X18590Y17183D1*
X18600Y17164D1*
Y17145D1*
X18590Y17126D1*
X18571Y17097D1*
X18476Y17001D1*
X18610D1*
X12078Y17832D2*
Y17689D1*
X12087Y17660D1*
X12107Y17641D1*
X12135Y17631D1*
X12154D1*
X12183Y17641D1*
X12202Y17660D1*
X12212Y17689D1*
Y17832D1*
X12274Y17794D2*
X12293Y17804D1*
X12322Y17832D1*
Y17631D1*
X13643Y23442D2*
Y23299D1*
X13653Y23270D1*
X13672Y23251D1*
X13701Y23242D1*
X13720D1*
X13748Y23251D1*
X13768Y23270D1*
X13777Y23299D1*
Y23442D1*
X13849Y23395D2*
Y23404D1*
X13858Y23423D1*
X13868Y23433D1*
X13887Y23442D1*
X13925D1*
X13944Y23433D1*
X13954Y23423D1*
X13963Y23404D1*
Y23385D1*
X13954Y23366D1*
X13935Y23337D1*
X13839Y23242D1*
X13973D1*
X19304Y9356D2*
Y9212D1*
X19313Y9184D1*
X19332Y9165D1*
X19361Y9155D1*
X19380D1*
X19409Y9165D1*
X19428Y9184D1*
X19438Y9212D1*
Y9356D1*
X19519D2*
X19624D1*
X19566Y9279D1*
X19595D1*
X19614Y9270D1*
X19624Y9260D1*
X19633Y9231D1*
Y9212D1*
X19624Y9184D1*
X19605Y9164D1*
X19576Y9155D1*
X19547D1*
X19519Y9164D1*
X19509Y9174D1*
X19499Y9193D1*
X21159Y12655D2*
Y12512D1*
X21169Y12483D1*
X21188Y12464D1*
X21217Y12454D1*
X21236D1*
X21264Y12464D1*
X21284Y12483D1*
X21293Y12512D1*
Y12655D1*
X21451Y12454D2*
Y12655D1*
X21355Y12521D1*
X21498D1*
X22660Y11572D2*
Y11429D1*
X22669Y11400D1*
X22689Y11381D1*
X22717Y11371D1*
X22736D1*
X22765Y11381D1*
X22784Y11400D1*
X22794Y11429D1*
Y11572D1*
X22970D2*
X22875D1*
X22865Y11486D1*
X22875Y11496D1*
X22904Y11505D1*
X22932D1*
X22961Y11496D1*
X22980Y11477D1*
X22990Y11448D1*
Y11429D1*
X22980Y11400D1*
X22961Y11381D1*
X22932Y11371D1*
X22904D1*
X22875Y11381D1*
X22865Y11391D1*
X22856Y11410D1*
X18373Y10706D2*
Y10563D1*
X18383Y10534D1*
X18402Y10515D1*
X18431Y10505D1*
X18450D1*
X18479Y10515D1*
X18498Y10534D1*
X18507Y10563D1*
Y10706D1*
X18684Y10678D2*
X18674Y10697D1*
X18646Y10706D1*
X18627D1*
X18598Y10697D1*
X18579Y10668D1*
X18569Y10620D1*
Y10572D1*
X18579Y10534D1*
X18598Y10515D1*
X18627Y10505D1*
X18636D1*
X18665Y10515D1*
X18684Y10534D1*
X18693Y10563D1*
Y10572D1*
X18684Y10601D1*
X18665Y10620D1*
X18636Y10630D1*
X18627D1*
X18598Y10620D1*
X18579Y10601D1*
X18569Y10572D1*
X14418Y18923D2*
X14551Y18722D1*
Y18923D2*
X14418Y18722D1*
X14613Y18884D2*
X14632Y18894D1*
X14661Y18923D1*
Y18722D1*
X14152Y20893D2*
X14286Y20692D1*
Y20893D2*
X14152Y20692D1*
X14357Y20845D2*
Y20855D1*
X14367Y20874D1*
X14376Y20884D1*
X14395Y20893D1*
X14434D1*
X14453Y20884D1*
X14462Y20874D1*
X14472Y20855D1*
Y20836D1*
X14462Y20817D1*
X14443Y20788D1*
X14347Y20692D1*
X14481D1*
X14601Y20893D2*
X14572Y20884D1*
X14553Y20855D1*
X14543Y20807D1*
Y20778D1*
X14553Y20731D1*
X14572Y20702D1*
X14601Y20692D1*
X14620D1*
X14648Y20702D1*
X14667Y20731D1*
X14677Y20778D1*
Y20807D1*
X14667Y20855D1*
X14648Y20884D1*
X14620Y20893D1*
X14601D1*
X14667Y20855D2*
X14553Y20731D1*
X18952Y29008D2*
X18972Y29018D1*
X19000Y29046D1*
Y28845D1*
X19062Y29046D2*
Y28845D1*
X19158Y28979D2*
X19062Y28884D1*
X19100Y28922D2*
X19167Y28845D1*
X19344Y29046D2*
X19248D1*
X19239Y28960D1*
X19248Y28970D1*
X19277Y28979D1*
X19306D1*
X19334Y28970D1*
X19354Y28951D1*
X19363Y28922D1*
Y28903D1*
X19354Y28874D1*
X19334Y28855D1*
X19306Y28845D1*
X19277D1*
X19248Y28855D1*
X19239Y28865D1*
X19229Y28884D1*
X19677Y29046D2*
X19658Y29037D1*
X19639Y29018D1*
X19629Y28999D1*
X19619Y28970D1*
Y28922D1*
X19629Y28893D1*
X19639Y28874D1*
X19658Y28855D1*
X19677Y28845D1*
X19715D1*
X19734Y28855D1*
X19753Y28874D1*
X19763Y28893D1*
X19772Y28922D1*
Y28970D1*
X19763Y28999D1*
X19753Y29018D1*
X19734Y29037D1*
X19715Y29046D1*
X19677D1*
X19834D2*
Y28845D1*
Y28941D2*
X19863Y28970D1*
X19882Y28979D1*
X19911D1*
X19930Y28970D1*
X19939Y28941D1*
Y28845D1*
X20001Y28979D2*
Y28845D1*
Y28941D2*
X20030Y28970D1*
X20049Y28979D1*
X20078D1*
X20097Y28970D1*
X20106Y28941D1*
Y28845D1*
Y28941D2*
X20135Y28970D1*
X20154Y28979D1*
X20183D1*
X20202Y28970D1*
X20212Y28941D1*
Y28845D1*
X17720Y27379D2*
D117*
X17835Y27077D1*
X17949Y27379D1*
X18214D2*
Y27077D1*
Y27235D2*
X18186Y27264D1*
X18157Y27278D1*
X18114D1*
X18085Y27264D1*
X18056Y27235D1*
X18042Y27192D1*
Y27163D1*
X18056Y27120D1*
X18085Y27092D1*
X18114Y27077D1*
X18157D1*
X18186Y27092D1*
X18214Y27120D1*
X18479Y27379D2*
Y27077D1*
Y27235D2*
X18450Y27264D1*
X18422Y27278D1*
X18378D1*
X18350Y27264D1*
X18321Y27235D1*
X18307Y27192D1*
Y27163D1*
X18321Y27120D1*
X18350Y27092D1*
X18378Y27077D1*
X18422D1*
X18450Y27092D1*
X18479Y27120D1*
X20811Y27359D2*
Y27057D1*
X20918Y27287D2*
Y27301D1*
X20932Y27330D1*
X20946Y27344D1*
X20975Y27359D1*
X21033D1*
X21061Y27344D1*
X21075Y27330D1*
X21090Y27301D1*
Y27273D1*
X21075Y27244D1*
X21047Y27201D1*
X20903Y27057D1*
X21104D1*
X21412Y27287D2*
X21398Y27316D1*
X21369Y27345D1*
X21340Y27359D1*
X21283D1*
X21254Y27345D1*
X21226Y27316D1*
X21211Y27287D1*
X21197Y27244D1*
Y27172D1*
X21211Y27129D1*
X21226Y27101D1*
X21254Y27072D1*
X21283Y27057D1*
X21340D1*
X21369Y27072D1*
X21398Y27101D1*
X21412Y27129D1*
X16909Y19468D2*
D20*
X17081D1*
X17139Y19487D1*
X17158Y19506D1*
X17177Y19544D1*
Y19582D1*
X17158Y19621D1*
X17139Y19640D1*
X17081Y19659D1*
X16909D1*
Y19257D1*
X17043Y19468D2*
X17177Y19257D1*
X17549Y19659D2*
X17301D1*
Y19257D1*
X17549D1*
X17301Y19468D2*
X17454D1*
X17941Y19602D2*
X17903Y19640D1*
X17845Y19659D1*
X17769D1*
X17711Y19640D1*
X17673Y19602D1*
Y19563D1*
X17692Y19525D1*
X17711Y19506D1*
X17749Y19487D1*
X17864Y19449D1*
X17903Y19430D1*
X17922Y19410D1*
X17941Y19372D1*
Y19315D1*
X17903Y19277D1*
X17845Y19257D1*
X17769D1*
X17711Y19277D1*
X17673Y19315D1*
X16516Y16234D2*
Y15832D1*
X16688D1*
X16746Y15851D1*
X16765Y15870D1*
X16784Y15908D1*
Y15966D1*
X16765Y16004D1*
X16746Y16023D1*
X16688Y16042D1*
X16746Y16062D1*
X16765Y16081D1*
X16784Y16119D1*
Y16157D1*
X16765Y16195D1*
X16746Y16215D1*
X16688Y16234D1*
X16516D1*
Y16042D2*
X16688D1*
X17022Y16234D2*
X16984Y16215D1*
X16946Y16176D1*
X16926Y16138D1*
X16907Y16081D1*
Y15985D1*
X16926Y15928D1*
X16946Y15889D1*
X16984Y15851D1*
X17022Y15832D1*
X17099D1*
X17137Y15851D1*
X17175Y15889D1*
X17194Y15928D1*
X17213Y15985D1*
Y16081D1*
X17194Y16138D1*
X17175Y16176D1*
X17137Y16215D1*
X17099Y16234D1*
X17022D1*
X17452D2*
X17413Y16215D1*
X17375Y16176D1*
X17356Y16138D1*
X17337Y16081D1*
Y15985D1*
X17356Y15928D1*
X17375Y15889D1*
X17413Y15851D1*
X17452Y15832D1*
X17528D1*
X17566Y15851D1*
X17605Y15889D1*
X17624Y15928D1*
X17643Y15985D1*
Y16081D1*
X17624Y16138D1*
X17605Y16176D1*
X17566Y16215D1*
X17528Y16234D1*
X17452D1*
X17900D2*
Y15832D1*
X17766Y16234D2*
X18034D1*
X18952Y28024D2*
D12*
X18972Y28033D1*
X19000Y28062D1*
Y27861D1*
X19062Y28062D2*
Y27861D1*
X19158Y27995D2*
X19062Y27899D1*
X19100Y27938D2*
X19167Y27861D1*
X19344Y28062D2*
X19248D1*
X19239Y27976D1*
X19248Y27985D1*
X19277Y27995D1*
X19306D1*
X19334Y27985D1*
X19354Y27966D1*
X19363Y27938D1*
Y27919D1*
X19354Y27890D1*
X19334Y27871D1*
X19306Y27861D1*
X19277D1*
X19248Y27871D1*
X19239Y27880D1*
X19229Y27899D1*
X19677Y28062D2*
X19658Y28053D1*
X19639Y28033D1*
X19629Y28014D1*
X19619Y27986D1*
Y27938D1*
X19629Y27909D1*
X19639Y27890D1*
X19658Y27871D1*
X19677Y27861D1*
X19715D1*
X19734Y27871D1*
X19753Y27890D1*
X19763Y27909D1*
X19772Y27938D1*
Y27986D1*
X19763Y28014D1*
X19753Y28033D1*
X19734Y28053D1*
X19715Y28062D1*
X19677D1*
X19834D2*
Y27861D1*
Y27957D2*
X19863Y27986D1*
X19882Y27995D1*
X19911D1*
X19930Y27986D1*
X19939Y27957D1*
Y27861D1*
X20001Y27995D2*
Y27861D1*
Y27957D2*
X20030Y27986D1*
X20049Y27995D1*
X20078D1*
X20097Y27986D1*
X20106Y27957D1*
Y27861D1*
Y27957D2*
X20135Y27986D1*
X20154Y27995D1*
X20183D1*
X20202Y27986D1*
X20212Y27957D1*
Y27861D1*
X19196Y23099D2*
D117*
X19311Y22797D1*
X19426Y23099D1*
X19691Y22955D2*
X19662Y22984D1*
X19633Y22998D1*
X19590D1*
X19561Y22984D1*
X19533Y22955D1*
X19518Y22912D1*
Y22884D1*
X19533Y22841D1*
X19561Y22812D1*
X19590Y22797D1*
X19633D1*
X19662Y22812D1*
X19691Y22841D1*
X19956Y22955D2*
X19927Y22984D1*
X19898Y22998D1*
X19855D1*
X19826Y22984D1*
X19798Y22955D1*
X19783Y22912D1*
Y22884D1*
X19798Y22841D1*
X19826Y22812D1*
X19855Y22797D1*
X19898D1*
X19927Y22812D1*
X19956Y22841D1*
X18897Y20056D2*
X18869Y20085D1*
X18826Y20099D1*
X18768D1*
X18725Y20085D1*
X18696Y20056D1*
Y20027D1*
X18711Y19998D1*
X18725Y19984D1*
X18754Y19970D1*
X18840Y19941D1*
X18869Y19927D1*
X18883Y19912D1*
X18897Y19884D1*
Y19841D1*
X18869Y19812D1*
X18826Y19798D1*
X18768D1*
X18725Y19812D1*
X18696Y19841D1*
X18990Y20099D2*
X19062Y19798D1*
X19133Y20099D1*
X19205Y19798D1*
X19277Y20099D1*
X19370D2*
Y19798D1*
X19470D1*
X19513Y19812D1*
X19542Y19841D1*
X19556Y19869D1*
X19571Y19912D1*
Y19984D1*
X19556Y20027D1*
X19542Y20056D1*
X19513Y20085D1*
X19470Y20099D1*
X19370D1*
X19663D2*
Y19798D1*
X19842Y20099D2*
X19813Y20085D1*
X19785Y20056D1*
X19770Y20027D1*
X19756Y19984D1*
Y19912D1*
X19770Y19869D1*
X19785Y19841D1*
X19813Y19812D1*
X19842Y19798D1*
X19899D1*
X19928Y19812D1*
X19957Y19841D1*
X19971Y19869D1*
X19985Y19912D1*
Y19984D1*
X19971Y20027D1*
X19957Y20056D1*
X19928Y20085D1*
X19899Y20099D1*
X19842D1*
X18701Y19056D2*
X18672Y19084D1*
X18629Y19099D1*
X18572D1*
X18528Y19084D1*
X18500Y19056D1*
Y19027D1*
X18514Y18998D1*
X18528Y18984D1*
X18557Y18970D1*
X18643Y18941D1*
X18672Y18927D1*
X18686Y18912D1*
X18701Y18883D1*
Y18840D1*
X18672Y18812D1*
X18629Y18797D1*
X18572D1*
X18528Y18812D1*
X18500Y18840D1*
X18793Y19099D2*
X18865Y18797D1*
X18937Y19099D1*
X19008Y18797D1*
X19080Y19099D1*
X19388Y19027D2*
X19374Y19056D1*
X19345Y19084D1*
X19317Y19099D1*
X19259D1*
X19230Y19084D1*
X19202Y19056D1*
X19187Y19027D1*
X19173Y18984D1*
Y18912D1*
X19187Y18869D1*
X19202Y18840D1*
X19230Y18812D1*
X19259Y18797D1*
X19317D1*
X19345Y18812D1*
X19374Y18840D1*
X19388Y18869D1*
X19481Y19099D2*
Y18797D1*
X19653D1*
X19746Y19099D2*
Y18797D1*
X19947Y19099D2*
X19746Y18898D1*
X19817Y18970D2*
X19947Y18797D1*
X19200Y17056D2*
X19172Y17085D1*
X19129Y17099D1*
X19071D1*
X19028Y17085D1*
X18999Y17056D1*
Y17027D1*
X19014Y16999D1*
X19028Y16984D1*
X19057Y16970D1*
X19143Y16941D1*
X19172Y16927D1*
X19186Y16912D1*
X19200Y16884D1*
Y16841D1*
X19172Y16812D1*
X19129Y16798D1*
X19071D1*
X19028Y16812D1*
X18999Y16841D1*
X19293Y17099D2*
X19365Y16798D1*
X19437Y17099D1*
X19508Y16798D1*
X19580Y17099D1*
X19759D2*
X19730Y17085D1*
X19702Y17056D1*
X19687Y17027D1*
X19673Y16984D1*
Y16912D1*
X19687Y16870D1*
X19702Y16841D1*
X19730Y16812D1*
X19759Y16798D1*
X19816D1*
X19845Y16812D1*
X19874Y16841D1*
X19888Y16870D1*
X19902Y16912D1*
Y16984D1*
X19888Y17027D1*
X19874Y17056D1*
X19845Y17085D1*
X19816Y17099D1*
X19759D1*
X23502Y14027D2*
X23488Y14056D1*
X23459Y14085D1*
X23430Y14099D1*
X23373D1*
X23344Y14085D1*
X23316Y14056D1*
X23301Y14027D1*
X23287Y13984D1*
Y13912D1*
X23301Y13870D1*
X23316Y13841D1*
X23344Y13812D1*
X23373Y13798D1*
X23430D1*
X23459Y13812D1*
X23488Y13841D1*
X23502Y13870D1*
Y13912D1*
X23430D1*
X23796Y14099D2*
Y13798D1*
X23595Y14099D1*
Y13798D1*
X23888Y14099D2*
Y13798D1*
X23989D1*
X24032Y13812D1*
X24061Y13841D1*
X24075Y13870D1*
X24089Y13912D1*
Y13984D1*
X24075Y14027D1*
X24061Y14056D1*
X24032Y14085D1*
X23989Y14099D1*
X23888D1*
M02*
