G04 DipTrace 2.3.1.0*
%INTopPaste.gbr*%
%MOIN*%
%ADD25R,0.0217X0.0217*%
%ADD29R,0.0945X0.0945*%
%ADD30R,0.0197X0.0984*%
%ADD31R,0.0787X0.0984*%
%ADD33R,0.0295X0.0217*%
%ADD39R,0.09X0.2*%
%ADD45R,0.0197X0.0098*%
%ADD48R,0.0098X0.0197*%
%ADD50R,0.2126X0.2126*%
%ADD53R,0.0098X0.0374*%
%ADD56R,0.0098X0.0256*%
%ADD58R,0.0551X0.0315*%
%ADD59R,0.0748X0.0433*%
%ADD60R,0.0709X0.0394*%
%ADD73R,0.0217X0.0177*%
%ADD84R,0.0039X0.0138*%
%ADD88R,0.0591X0.0157*%
%ADD90R,0.0276X0.0315*%
%ADD95R,0.0315X0.0394*%
%ADD99R,0.0197X0.0157*%
%ADD101R,0.0157X0.0197*%
%ADD103R,0.0236X0.0157*%
%ADD108R,0.0866X0.0866*%
%ADD110R,0.1339X0.0866*%
%ADD112R,0.0472X0.1024*%
%ADD114R,0.1024X0.0472*%
%ADD116R,0.0157X0.0157*%
%FSLAX44Y44*%
G04*
G70*
G90*
G75*
G01*
%LNTopPaste*%
%LPD*%
D25*
X10276Y21004D3*
X9882D3*
X10276Y21437D3*
X9882D3*
X10866Y17874D3*
Y17480D3*
X13622Y17559D3*
X14016D3*
X15531Y19764D3*
X15138D3*
X14272D3*
X14665D3*
X14882Y17559D3*
X14488D3*
X15295Y19291D3*
Y18898D3*
D116*
X22087Y12736D3*
X22480D3*
X21791Y10827D3*
Y10433D3*
X15768Y18425D3*
Y18031D3*
Y17165D3*
Y17559D3*
D25*
X11358Y21850D3*
X10965D3*
X14567Y24941D3*
X14961D3*
X14567Y25571D3*
X14961D3*
X13661Y26437D3*
X13268D3*
X15472Y22461D3*
Y22067D3*
X15039Y22874D3*
Y23268D3*
X14606Y22874D3*
Y23268D3*
X15433Y27106D3*
X15039D3*
X14567D3*
Y27500D3*
X15315Y20984D3*
X15709D3*
X15315Y21398D3*
X15709D3*
X12835Y24941D3*
Y25335D3*
X12362Y24941D3*
Y24547D3*
X11929Y24941D3*
Y24547D3*
X14961Y26437D3*
X14567D3*
D116*
X14961Y24311D3*
X14567D3*
X14173Y22047D3*
X14567D3*
X11358Y22264D3*
X10965D3*
X11358Y22756D3*
X10965D3*
X11358Y23169D3*
X10965D3*
X17657Y11713D3*
X18051D3*
X17657Y9606D3*
Y9213D3*
X18130Y9606D3*
Y9213D3*
D114*
X9843Y10512D3*
Y9488D3*
Y11535D3*
X15000Y10512D3*
Y9488D3*
Y11535D3*
D112*
X12421Y7303D3*
X13563D3*
X11280D3*
X12421Y13720D3*
X13563D3*
X11280D3*
D110*
X14843Y7815D3*
X10000D3*
Y13209D3*
X14843D3*
D108*
X11909Y10000D3*
Y11024D3*
X12933D3*
Y10000D3*
D30*
X19685Y6978D3*
X19370D3*
X20315D3*
X20000D3*
D31*
X21457Y4813D3*
X17913D3*
X21457Y6978D3*
X17913D3*
D30*
X19055D3*
D103*
X23051Y12736D3*
Y12067D3*
X22362Y10807D3*
Y10138D3*
D33*
X20335Y11122D3*
Y10453D3*
D101*
X8406Y22756D3*
X8012D3*
X8406Y22244D3*
X8012D3*
D99*
X20098Y15551D3*
Y15157D3*
X16260Y19370D3*
Y19764D3*
X19075Y15551D3*
Y15157D3*
X19587Y15551D3*
Y15157D3*
D25*
X13228Y23996D3*
Y23602D3*
X14134Y24311D3*
Y24705D3*
Y25177D3*
Y25571D3*
Y26043D3*
Y26437D3*
X15472Y22874D3*
Y23268D3*
X14606Y23701D3*
X15000D3*
D116*
X14173Y22480D3*
Y22874D3*
D95*
X12283Y23760D3*
X11496D3*
D116*
Y24547D3*
Y24941D3*
D25*
X14961Y26004D3*
X14567D3*
D39*
Y30335D3*
X16307D3*
X12827D3*
D25*
X15768Y19291D3*
Y18898D3*
D116*
X21358Y10433D3*
Y10827D3*
X20886Y10433D3*
Y10827D3*
D25*
X8406Y23248D3*
X8012D3*
X8406Y21752D3*
X8012D3*
D116*
X15354Y17559D3*
Y17165D3*
X13228Y24469D3*
X12835D3*
X13307Y25335D3*
Y24941D3*
D90*
X16299Y18150D3*
Y18780D3*
X17913Y18150D3*
Y18780D3*
D88*
X17106Y17874D3*
D90*
X16299Y16791D3*
Y17421D3*
X17913Y16791D3*
Y17421D3*
D88*
X17106Y16516D3*
D45*
X13533Y18602D3*
Y18799D3*
Y18996D3*
Y19193D3*
Y19390D3*
Y19587D3*
Y19783D3*
Y19980D3*
Y20177D3*
Y20374D3*
Y20571D3*
Y20768D3*
D48*
X13287Y21014D3*
X13091D3*
X12894D3*
X12697D3*
X12500D3*
X12303D3*
X12106D3*
X11909D3*
X11713D3*
X11516D3*
X11319D3*
X11122D3*
D45*
X10876Y20768D3*
Y20571D3*
Y20374D3*
Y20177D3*
Y19980D3*
Y19783D3*
Y19587D3*
Y19390D3*
Y19193D3*
Y18996D3*
Y18799D3*
Y18602D3*
D48*
X11122Y18356D3*
X11319D3*
X11516D3*
X11713D3*
X11909D3*
X12106D3*
X12303D3*
X12500D3*
X12697D3*
X12894D3*
X13091D3*
X13287D3*
D50*
X12205Y19685D3*
D48*
X12421Y21644D3*
X12618D3*
X12815D3*
X13012D3*
X13209D3*
D45*
X13553Y21988D3*
Y22185D3*
Y22382D3*
Y22579D3*
Y22776D3*
D48*
X13209Y23120D3*
X13012D3*
X12815D3*
X12618D3*
X12421D3*
D45*
X12077Y22776D3*
Y22579D3*
Y22382D3*
Y22185D3*
Y21988D3*
D29*
X12815Y22382D3*
D53*
X19331Y8150D3*
X19528D3*
X19724D3*
Y8787D3*
X19528D3*
X19331D3*
D56*
X21575Y12205D3*
X21319D3*
X21063D3*
Y11378D3*
X21319D3*
X21575D3*
D58*
X21319Y11791D3*
D84*
X22421Y11358D3*
X22224D3*
X22028D3*
Y11673D3*
X22224D3*
X22421D3*
D56*
X17657Y10197D3*
X17913D3*
X18169D3*
Y11024D3*
X17913D3*
X17657D3*
D58*
X17913Y10610D3*
D59*
X14547Y18169D3*
D60*
Y19154D3*
D73*
X14193Y21535D3*
Y21142D3*
X14705Y21535D3*
Y21142D3*
M02*
