M48
INCH
T01C0.01
T02C0.013
T03C0.026
T04C0.0354
T05C0.126
%
T01
X+020394Y+022028
X+019665Y+022283
X+019094Y+022402
X+018563Y+022500
X+017992Y+022224
X+017717Y+021654
X+017441Y+021654
X+017303Y+022028
X+016732Y+021811
X+016142Y+021654
X+016142Y+021260
X+016142Y+020866
X+016732Y+021024
X+017185Y+020866
X+017913Y+021201
X+018543Y+021280
X+019075Y+021161
X+019626Y+021024
X+020335Y+020945
X+019783Y+020079
X+020335Y+019665
X+019665Y+019114
X+020059Y+018504
X+019409Y+018110
X+018524Y+017677
X+018524Y+016713
X+019508Y+016713
X+020059Y+017224
X+019587Y+015886
X+019070Y+015871
X+018661Y+014606
X+019449Y+013819
X+020236Y+014350
X+020256Y+012933
X+019921Y+011909
X+020315Y+011457
X+020551Y+011457
X+020768Y+011457
X+021142Y+011791
X+021496Y+011791
X+021575Y+011142
X+021791Y+010217
X+022736Y+010138
X+022736Y+009843
X+022736Y+010433
X+022854Y+011102
X+023425Y+011673
X+022638Y+012185
X+022323Y+012185
X+022028Y+012185
X+021693Y+012657
X+021555Y+013268
X+023445Y+013504
X+023386Y+014291
X+023386Y+015394
X+023386Y+016575
X+023386Y+017402
X+023386Y+018504
X+023386Y+019291
X+023386Y+020079
X+023386Y+020866
X+023386Y+021654
X+023386Y+022441
X+024094Y+022933
X+023701Y+023563
X+023701Y+024429
X+023701Y+025453
X+023701Y+026417
X+023701Y+027421
X+023701Y+028465
X+024016Y+029528
X+024803Y+029528
X+024803Y+030315
X+024803Y+031102
X+024016Y+031102
X+023228Y+031102
X+023228Y+030315
X+022441Y+031102
X+021654Y+031102
X+020866Y+031102
X+020079Y+031102
X+020079Y+030315
X+020866Y+029528
X+020079Y+028740
X+019291Y+028740
X+018642Y+028740
X+018642Y+027953
X+019291Y+027953
X+020079Y+027953
X+020000Y+027028
X+020630Y+026378
X+021555Y+026417
X+021555Y+025453
X+021555Y+024429
X+021575Y+023563
X+022657Y+023563
X+022579Y+024429
X+022598Y+025453
X+022579Y+026437
X+022579Y+027421
X+021555Y+027421
X+021555Y+028465
X+022579Y+028465
X+024803Y+028740
X+024803Y+027953
X+024803Y+027165
X+024803Y+026378
X+024803Y+025591
X+024803Y+024803
X+024803Y+024016
X+024803Y+023228
X+024803Y+022441
X+024803Y+021654
X+024803Y+020866
X+024803Y+020079
X+024803Y+019291
X+024803Y+018504
X+024803Y+017717
X+024803Y+016929
X+024803Y+016142
X+024803Y+015354
X+024803Y+014567
X+024803Y+013780
X+024803Y+012992
X+024803Y+012205
X+024803Y+011417
X+024803Y+010630
X+024862Y+009843
X+024862Y+009055
X+024803Y+008268
X+024803Y+007480
X+024803Y+006693
X+024803Y+005906
X+024803Y+005118
X+024803Y+004331
X+024016Y+004213
X+023228Y+004213
X+022441Y+004213
X+021654Y+004213
X+020866Y+004213
X+020079Y+004213
X+019291Y+004213
X+018504Y+004213
X+017717Y+004213
X+017126Y+004213
X+017126Y+004528
X+017126Y+004921
X+017126Y+005315
X+017126Y+005709
X+017126Y+006102
X+017126Y+006496
X+016732Y+006496
X+016339Y+006496
X+015945Y+006496
X+015551Y+006496
X+015157Y+006496
X+014764Y+006496
X+014370Y+006496
X+013976Y+006496
X+013583Y+006496
X+013189Y+006496
X+012795Y+006496
X+012402Y+006496
X+012008Y+006496
X+011811Y+007008
X+011811Y+007795
X+011220Y+008228
X+010787Y+008661
X+010059Y+008661
X+009350Y+008661
X+008858Y+008858
X+008661Y+009055
X+008268Y+009055
X+007874Y+009055
X+007480Y+009055
X+007087Y+009055
X+006693Y+009055
X+006299Y+009055
X+005906Y+009055
X+005512Y+009055
X+005118Y+009055
X+004724Y+009055
X+004331Y+009055
X+004213Y+009646
X+004331Y+010630
X+004331Y+011417
X+004331Y+012205
X+004331Y+012992
X+004331Y+013780
X+004331Y+014567
X+004331Y+015354
X+004331Y+016142
X+004331Y+016929
X+004331Y+017717
X+004331Y+018504
X+004331Y+019291
X+004331Y+020079
X+004331Y+020866
X+004331Y+021654
X+004331Y+022441
X+004331Y+023228
X+004331Y+024016
X+004331Y+024803
X+004331Y+025591
X+004331Y+026378
X+004331Y+027165
X+004331Y+027953
X+004331Y+028740
X+004331Y+029528
X+005118Y+029528
X+005610Y+028898
X+006299Y+028898
X+006693Y+029528
X+007480Y+030315
X+007480Y+031102
X+008268Y+031102
X+009055Y+031102
X+009843Y+031102
X+010630Y+031102
X+011417Y+031102
X+012165Y+031102
X+012165Y+030315
X+012165Y+029528
X+011811Y+028898
X+012598Y+028898
X+013386Y+028898
X+014035Y+028740
X+014035Y+028346
X+014035Y+027953
X+013386Y+028110
X+013386Y+027323
X+013386Y+026772
X+013780Y+026772
X+014173Y+026772
X+014173Y+027165
X+014882Y+026772
X+015374Y+026772
X+015374Y+026378
X+015374Y+025984
X+015374Y+025591
X+015374Y+025197
X+015374Y+024803
X+015374Y+024409
X+015374Y+024016
X+015374Y+023622
X+015787Y+023012
X+015787Y+022618
X+015787Y+022224
X+015787Y+021831
X+016142Y+022047
X+016142Y+022441
X+016142Y+022835
X+016142Y+023228
X+016142Y+023622
X+016142Y+024016
X+016142Y+024409
X+016142Y+024803
X+016142Y+025197
X+016142Y+025591
X+016142Y+025984
X+016142Y+026378
X+016142Y+026772
X+016024Y+027165
X+015768Y+027559
X+015374Y+027559
X+015098Y+027953
X+015098Y+028346
X+015098Y+028740
X+015098Y+029134
X+015433Y+029528
X+015433Y+030315
X+015433Y+031102
X+016969Y+031102
X+017717Y+031102
X+018504Y+031102
X+019291Y+031102
X+018504Y+030315
X+019291Y+029528
X+017717Y+029528
X+016969Y+029528
X+016969Y+030315
X+016929Y+028740
X+016929Y+027953
X+016929Y+027165
X+017717Y+027165
X+017953Y+026594
X+018484Y+025984
X+018130Y+025256
X+018799Y+025098
X+019547Y+024665
X+020433Y+024193
X+019783Y+023484
X+019134Y+023602
X+018563Y+023720
X+017992Y+023287
X+017303Y+022953
X+016732Y+022598
X+016732Y+023386
X+017303Y+023898
X+016732Y+024173
X+016732Y+024803
X+017303Y+024783
X+017992Y+024350
X+017500Y+025768
X+016732Y+025591
X+016732Y+026378
X+016142Y+027953
X+016142Y+028740
X+014035Y+029134
X+013681Y+029528
X+013681Y+030315
X+013681Y+031102
X+012598Y+028110
X+012598Y+027323
X+012992Y+026772
X+012598Y+026535
X+012520Y+025984
X+012913Y+025984
X+013307Y+025984
X+013701Y+025984
X+013701Y+025591
X+013701Y+025197
X+013701Y+024803
X+013701Y+024409
X+013543Y+024094
X+013799Y+023445
X+013799Y+023031
X+013366Y+023120
X+014213Y+023287
X+014213Y+023858
X+013976Y+022205
X+014823Y+022224
X+015177Y+022224
X+015177Y+021831
X+013445Y+021368
X+012835Y+021388
X+012480Y+021289
X+011827Y+022344
X+011791Y+022598
X+011849Y+022868
X+011358Y+022953
X+011358Y+022461
X+010630Y+022638
X+009843Y+022638
X+009843Y+021850
X+010630Y+021850
X+010512Y+021433
X+010512Y+021004
X+010965Y+021171
X+011240Y+021457
X+010256Y+019980
X+010453Y+019783
X+010650Y+019587
X+009961Y+019232
X+010335Y+018504
X+010866Y+018209
X+011319Y+018150
X+011512Y+018000
X+011713Y+018150
X+011909Y+017992
X+012106Y+017382
X+012303Y+017224
X+012835Y+016732
X+012362Y+016299
X+011614Y+016732
X+010866Y+017244
X+010335Y+016654
X+010925Y+016142
X+011575Y+015531
X+011575Y+014606
X+010610Y+014902
X+010394Y+014075
X+009508Y+014606
X+009823Y+015453
X+008661Y+015295
X+007776Y+015512
X+006890Y+015748
X+007185Y+014783
X+006909Y+013898
X+006693Y+012992
X+007677Y+012736
X+007579Y+011811
X+007579Y+011024
X+007579Y+010236
X+007579Y+009449
X+006693Y+009449
X+006043Y+009685
X+006043Y+010354
X+006693Y+010236
X+006693Y+011024
X+006693Y+011811
X+005827Y+011457
X+005610Y+012638
X+005610Y+013583
X+005610Y+014646
X+005610Y+015610
X+005827Y+016457
X+005610Y+017657
X+005591Y+018602
X+005591Y+019587
X+006614Y+019508
X+006614Y+018563
X+006575Y+017953
X+006890Y+017323
X+007776Y+016693
X+008661Y+016909
X+009528Y+016929
X+009528Y+017638
X+008661Y+018110
X+008268Y+018701
X+007677Y+018110
X+007638Y+019528
X+007303Y+020236
X+006594Y+020866
X+007224Y+021358
X+008012Y+021358
X+008425Y+020512
X+009173Y+021024
X+008957Y+021732
X+008957Y+022441
X+008957Y+023228
X+008957Y+023976
X+008327Y+024606
X+007717Y+025217
X+007087Y+025866
X+006299Y+025866
X+006299Y+026535
X+005610Y+026535
X+005610Y+025866
X+005610Y+025079
X+005610Y+024291
X+005610Y+023465
X+006575Y+023465
X+006988Y+024311
X+006555Y+025079
X+007835Y+023642
X+007736Y+022500
X+005610Y+022441
X+005610Y+021654
X+005591Y+020866
X+009232Y+019665
X+012697Y+018150
X+012894Y+018000
X+013150Y+017461
X+013622Y+017343
X+014252Y+017461
X+013839Y+016732
X+014862Y+016732
X+015650Y+016732
X+016634Y+017421
X+017087Y+017087
X+017106Y+018504
X+016772Y+019626
X+017756Y+019626
X+018386Y+018878
X+018799Y+019626
X+015703Y+019593
X+014902Y+019764
X+014094Y+019852
X+013780Y+019390
X+013819Y+018583
X+013465Y+018356
X+014547Y+018661
X+015295Y+018268
X+014724Y+015531
X+014724Y+014606
X+014724Y+013996
X+015689Y+013996
X+016299Y+014252
X+017087Y+014705
X+017736Y+015531
X+016299Y+015531
X+016122Y+013209
X+016752Y+012815
X+017402Y+013169
X+017461Y+012323
X+017008Y+011850
X+017421Y+011358
X+017736Y+011358
X+018051Y+011358
X+018091Y+010610
X+017736Y+010610
X+016850Y+010630
X+017185Y+009862
X+017185Y+009606
X+017185Y+009350
X+017185Y+009094
X+016654Y+009390
X+015984Y+009075
X+015394Y+008740
X+015984Y+008287
X+016594Y+008465
X+017185Y+008465
X+017953Y+008465
X+017953Y+007697
X+017185Y+007697
X+016594Y+007697
X+015984Y+007480
X+015748Y+007008
X+016535Y+007008
X+017323Y+007008
X+018150Y+006063
X+018799Y+006594
X+018799Y+006929
X+018799Y+007283
X+019055Y+007598
X+019528Y+007795
X+020098Y+007933
X+020118Y+009055
X+019528Y+009154
X+019744Y+009783
X+020098Y+010020
X+020335Y+010020
X+020335Y+010768
X+020098Y+010768
X+019744Y+010807
X+018878Y+010807
X+018858Y+009587
X+018858Y+008307
X+019685Y+006063
X+019685Y+005118
X+020472Y+005118
X+021299Y+006063
X+021969Y+006654
X+022441Y+005906
X+021969Y+005079
X+023228Y+005118
X+024016Y+005906
X+023228Y+006693
X+024016Y+007480
X+024016Y+008268
X+022913Y+008268
X+023150Y+009055
X+022441Y+007480
X+021220Y+007736
X+018898Y+005118
X+014961Y+007008
X+014173Y+007008
X+012992Y+007008
X+012992Y+007795
X+013031Y+008622
X+012756Y+009134
X+012402Y+008622
X+011890Y+009134
X+010945Y+010394
X+010965Y+011339
X+011299Y+012008
X+011535Y+012756
X+012520Y+012756
X+012283Y+012008
X+013209Y+012008
X+013563Y+012756
X+014075Y+012008
X+014094Y+011024
X+014961Y+011024
X+015984Y+010650
X+015984Y+011437
X+015984Y+012303
X+015039Y+012283
X+014094Y+010000
X+013681Y+009134
X+013681Y+008307
X+014606Y+008740
X+015984Y+009843
X+018406Y+012224
X+019193Y+012598
X+018268Y+013524
X+013150Y+014606
X+013150Y+015531
X+010492Y+012362
X+009606Y+012362
X+008465Y+012047
X+008465Y+011260
X+008465Y+010472
X+008465Y+009685
X+008858Y+008465
X+008858Y+008071
X+008858Y+007677
X+008858Y+007283
X+008858Y+006890
X+008858Y+006496
X+009252Y+006496
X+009646Y+006496
X+010039Y+006496
X+010433Y+006496
X+010630Y+007008
X+009843Y+007008
X+009252Y+007008
X+008209Y+013957
X+009843Y+023425
X+009843Y+024213
X+010630Y+024213
X+011063Y+023819
X+010630Y+023425
X+011063Y+024626
X+010630Y+025000
X+011201Y+025354
X+011594Y+025354
X+011988Y+025354
X+012382Y+025354
X+011811Y+025984
X+011811Y+026535
X+011024Y+026535
X+011024Y+027323
X+011811Y+027323
X+011811Y+028110
X+011024Y+028898
X+010236Y+028110
X+009449Y+028898
X+009843Y+029528
X+009055Y+030315
X+008268Y+029528
X+007874Y+028898
X+007087Y+028110
X+007874Y+027323
X+007874Y+026535
X+008661Y+026535
X+008661Y+025748
X+009685Y+025748
X+009449Y+024961
X+010630Y+025787
X+010236Y+026535
X+009449Y+027323
X+008661Y+028110
X+006220Y+027323
X+005610Y+027323
X+005610Y+028110
X+005906Y+030315
X+005906Y+031102
X+005118Y+031102
X+004331Y+031102
X+004331Y+030315
X+006693Y+031102
X+011791Y+024173
X+012146Y+024173
X+012520Y+024173
X+013307Y+025571
X+018701Y+027244
X+019094Y+026614
X+019724Y+026083
X+020492Y+025335
X+020472Y+023130
X+023484Y+012677
T02
X+011319Y+020581
X+011752Y+020581
X+012205Y+020581
X+012657Y+020581
X+013091Y+020581
X+013091Y+019872
X+012657Y+019872
X+012205Y+019872
X+011752Y+019872
X+011319Y+019872
X+011319Y+019341
X+011752Y+019341
X+012205Y+019341
X+012657Y+019341
X+013091Y+019341
X+013091Y+018809
X+012657Y+018809
X+012205Y+018809
X+011752Y+018809
X+011319Y+018809
X+012461Y+022037
X+012461Y+022392
X+012461Y+022746
X+012815Y+022746
X+013169Y+022746
X+013169Y+022392
X+012815Y+022392
X+012815Y+022037
X+013169Y+022037
T03
X+015020Y+010512
X+015020Y+011535
X+015020Y+013248
X+013563Y+013720
X+012421Y+013720
X+011280Y+013720
X+009843Y+013248
X+009843Y+011535
X+009843Y+010512
X+009843Y+009488
X+009843Y+007815
X+011280Y+007303
X+012421Y+007303
X+013563Y+007303
X+015020Y+007815
X+015020Y+009488
X+012933Y+010000
X+011909Y+010000
X+011909Y+011024
X+012933Y+011024
T04
X+018819Y+005984
X+020551Y+005984
X+021067Y+013937
X+021067Y+014937
X+021067Y+015937
X+021067Y+016937
X+021067Y+017937
X+021067Y+018937
X+021067Y+019937
X+021067Y+020937
X+021067Y+021937
X+021067Y+022937
X+022067Y+022937
X+022067Y+021937
X+022067Y+020937
X+022067Y+019937
X+022067Y+018937
X+022067Y+017937
X+022067Y+016937
X+022067Y+015937
X+022067Y+014937
X+022067Y+013937
X+024067Y+014937
X+024067Y+015937
X+024067Y+016937
X+024067Y+017937
X+024067Y+018937
X+024067Y+019937
X+024067Y+020937
X+024067Y+021937
X+024067Y+023937
X+024067Y+024937
X+024067Y+025937
X+024067Y+026937
X+024067Y+027937
X+024067Y+028937
X+021067Y+028937
X+021067Y+027937
X+018067Y+027937
X+018067Y+028937
X+007067Y+022937
X+007067Y+021937
X+006067Y+021937
X+005067Y+021937
X+005067Y+022937
X+006067Y+022937
X+005067Y+023937
X+005067Y+024937
X+005067Y+025937
X+005067Y+026937
X+005067Y+027937
X+005067Y+028937
X+005067Y+020337
X+005067Y+019337
X+005067Y+018337
X+005067Y+017337
X+005067Y+016337
X+005067Y+015337
X+005067Y+014337
X+005067Y+013337
X+005067Y+012337
X+005067Y+011337
X+006067Y+010937
X+006067Y+011937
X+006067Y+012937
X+006067Y+013937
X+006067Y+014937
X+006067Y+015937
X+006067Y+016937
X+006067Y+017937
X+006067Y+018937
X+006067Y+019937
T05
X+022067Y+029937
X+011067Y+029937
X+005067Y+009937
X+024067Y+009437
T00
M30
