G04 DipTrace 2.3.1.0*
%INBottomMask.gbr*%
%MOIN*%
%ADD36C,0.0591*%
%ADD39R,0.09X0.2*%
%ADD66C,0.0354*%
%ADD67C,0.126*%
%ADD93C,0.0551*%
%ADD96C,0.0669*%
%FSLAX44Y44*%
G04*
G70*
G90*
G75*
G01*
%LNBotMask*%
%LPD*%
D66*
X18819Y5984D3*
X20551D3*
D67*
X22067Y29937D3*
X11067D3*
X5067Y9937D3*
X24067Y9437D3*
D36*
Y14937D3*
Y15937D3*
Y16937D3*
Y17937D3*
Y18937D3*
Y19937D3*
Y20937D3*
Y21937D3*
Y23937D3*
Y24937D3*
Y25937D3*
Y26937D3*
Y27937D3*
Y28937D3*
X5067D3*
Y27937D3*
Y26937D3*
Y25937D3*
Y24937D3*
Y23937D3*
Y22937D3*
Y21937D3*
Y20337D3*
Y19337D3*
Y18337D3*
Y17337D3*
Y16337D3*
Y15337D3*
Y14337D3*
Y13337D3*
Y12337D3*
Y11337D3*
D96*
X21067Y15937D3*
Y16937D3*
Y17937D3*
Y18937D3*
Y19937D3*
Y20937D3*
Y21937D3*
Y22937D3*
Y13937D3*
Y14937D3*
X22067Y15937D3*
Y16937D3*
Y17937D3*
Y18937D3*
Y19937D3*
Y20937D3*
Y21937D3*
Y22937D3*
Y13937D3*
Y14937D3*
D36*
X7067Y21937D3*
Y22937D3*
X6067Y21937D3*
Y22937D3*
Y19937D3*
Y18937D3*
D93*
X15020Y10512D3*
D36*
X6067Y17937D3*
D93*
X15020Y9488D3*
D36*
X6067Y16937D3*
D93*
X15020Y7815D3*
D36*
X6067Y15937D3*
D93*
X13563Y7303D3*
D36*
X6067Y14937D3*
D93*
X12421Y7303D3*
D36*
X6067Y13937D3*
D93*
X11280Y7303D3*
D36*
X6067Y12937D3*
D93*
X9843Y7815D3*
D36*
X6067Y11937D3*
Y10937D3*
X18067Y27937D3*
D93*
X9843Y9488D3*
D36*
X18067Y28937D3*
D93*
X9843Y10512D3*
D36*
X21067Y27937D3*
D93*
X9843Y11535D3*
D36*
X21067Y28937D3*
D93*
X9843Y13248D3*
X15020Y11535D3*
G36*
X6907Y15491D2*
X8831Y14791D1*
X8131Y12867D1*
X6207Y13568D1*
X6907Y15491D1*
G37*
G36*
X21003Y10361D2*
X22927Y9661D1*
X22226Y7737D1*
X20303Y8437D1*
X21003Y10361D1*
G37*
D93*
X11280Y13720D3*
X12421D3*
D39*
X12827Y30335D3*
D93*
X13563Y13720D3*
D39*
X16307Y30335D3*
D93*
X15020Y13248D3*
X12933Y11024D3*
X11909Y10000D3*
Y11024D3*
X12933Y10000D3*
M02*
