G04 DipTrace 2.3.1.0*
%INTop.gbr*%
%MOIN*%
%ADD13C,0.006*%
%ADD14C,0.0118*%
%ADD15C,0.0197*%
%ADD16C,0.0157*%
%ADD17C,0.0236*%
%ADD18C,0.0394*%
%ADD19C,0.0079*%
%ADD20C,0.0063*%
%ADD23R,0.0236X0.0236*%
%ADD26R,0.1102X0.0551*%
%ADD27R,0.0551X0.1102*%
%ADD28R,0.1417X0.0945*%
%ADD29R,0.0945X0.0945*%
%ADD30R,0.0197X0.0984*%
%ADD31R,0.0787X0.0984*%
%ADD32R,0.0315X0.0236*%
%ADD34R,0.0236X0.0276*%
%ADD35R,0.0276X0.0236*%
%ADD36C,0.0591*%
%ADD37R,0.0394X0.0472*%
%ADD38C,0.0472*%
%ADD39R,0.09X0.2*%
%ADD40R,0.0354X0.0394*%
%ADD41R,0.0669X0.0236*%
%ADD43R,0.0217X0.0118*%
%ADD46R,0.0118X0.0217*%
%ADD49R,0.2205X0.2205*%
%ADD51R,0.1024X0.1024*%
%ADD52R,0.0118X0.0394*%
%ADD54R,0.0118X0.0276*%
%ADD57R,0.063X0.0394*%
%ADD59R,0.0748X0.0433*%
%ADD61R,0.0295X0.0256*%
%ADD62C,0.018*%
%ADD64C,0.025*%
%FSLAX44Y44*%
G04*
G70*
G90*
G75*
G01*
%LNTop*%
%LPD*%
X20886Y10827D2*
D13*
Y11004D1*
X21063Y11181D1*
Y11378D1*
X21358Y10433D2*
X21319D1*
X20925Y10827D1*
X20886D1*
X22028Y11358D2*
Y10177D1*
X21870Y10020D1*
X21693D1*
X21358Y10354D1*
Y10433D1*
X12500Y18356D2*
Y17421D1*
X12776Y17146D1*
X15276D1*
X15354Y17165D1*
X15768D1*
X16299Y16791D2*
X16142D1*
X15768Y17165D1*
X14665Y19764D2*
D14*
X14902D1*
X13209Y23120D2*
X13366D1*
X15138Y19764D2*
X14902D1*
X10876Y18799D2*
X11142D1*
D13*
Y19557D1*
X11319Y21014D2*
D14*
Y20758D1*
X13091Y18356D2*
Y18809D1*
X14016Y17559D2*
X14232D1*
X14252Y17461D1*
X14488Y17559D2*
X14272D1*
X14252Y17461D1*
X9882Y21004D2*
Y21437D1*
X21969Y6654D2*
X21781D1*
X21457Y6978D1*
X21969Y5079D2*
X21722D1*
X21457Y4813D1*
X13533Y19980D2*
X13199D1*
X13091Y19872D1*
X21319Y11378D2*
Y11791D1*
X21063Y12205D2*
Y11890D1*
X21161Y11791D1*
X21319D1*
X22028Y11673D2*
Y11752D1*
X21988Y11791D1*
X21319D1*
X19528Y8150D2*
Y7795D1*
X10866Y17480D2*
Y17244D1*
X15768Y18031D2*
X16181D1*
X16299Y18150D1*
X17913Y11024D2*
Y10610D1*
X18169Y10197D2*
Y10492D1*
X18051Y10610D1*
X17913D1*
X21791Y10433D2*
Y10217D1*
X21654Y4213D2*
Y4616D1*
X21457Y4813D1*
X17717Y4213D2*
Y4616D1*
X17913Y4813D1*
X12697Y21014D2*
D13*
Y21171D1*
X12618Y21506D1*
Y21644D1*
X12500Y21014D2*
X12480D1*
Y21289D1*
X12835Y21388D2*
Y21644D1*
X12815D1*
X8012Y22756D2*
D14*
X7874D1*
X7693Y22937D1*
X7067D1*
X8012Y22244D2*
Y22224D1*
X7835D1*
X7539Y21929D1*
X7059D1*
X7067Y21937D1*
X14882Y17559D2*
D13*
Y17835D1*
X14547Y18169D1*
X13533Y18996D2*
X13858D1*
X14035Y18819D1*
Y18524D1*
X14291Y18268D1*
X14547Y18169D1*
X13533Y19193D2*
X14508D1*
X14547Y19154D1*
X14754D1*
X14902Y19301D1*
X15285D1*
X15295Y19291D1*
X17913Y10197D2*
Y9980D1*
X18130Y9764D1*
Y9606D1*
X13553Y22776D2*
D14*
X14016D1*
X14094Y22854D1*
X14154D1*
X14173Y22874D1*
D16*
X14606D1*
X15039D2*
X14606D1*
X11358Y21850D2*
Y22264D1*
X12077Y22579D2*
D13*
X11870D1*
X11791Y22598D1*
X11358Y22461D2*
D15*
Y22264D1*
X13553Y21988D2*
D13*
X13622D1*
Y21890D1*
X13917Y21594D1*
Y21339D1*
X14114Y21142D1*
X14193D1*
Y21161D1*
X14488Y20866D1*
X14961D1*
X15020Y20925D1*
X15315D1*
Y20984D1*
Y21398D2*
Y21457D1*
X14823D1*
X14705Y21575D1*
Y21535D1*
X13553Y22185D2*
X13701D1*
X13780Y22106D1*
Y21988D1*
X13957Y21811D1*
X14409D1*
X14685Y21535D1*
X14705D1*
X12618Y23120D2*
D14*
Y23484D1*
X12421Y23681D1*
X12362D1*
X12283Y23760D1*
X11496Y24941D2*
D15*
X11929D1*
X12362D1*
X12835D1*
Y24469D1*
X12815Y23120D2*
D14*
Y24449D1*
D13*
X12835Y24469D1*
X13012Y23120D2*
D14*
Y23248D1*
G02X13228Y23602I404J-3D01*
G01*
D16*
X13386D1*
G03X13602Y23701I20J243D01*
G01*
X14134Y24311D1*
X14567D1*
X14134Y25571D2*
X14567D1*
Y26004D1*
X14173D1*
D13*
X14134Y26043D1*
Y24705D2*
D16*
Y24941D1*
Y25177D1*
X14567Y24941D2*
X14134D1*
X13553Y22579D2*
D14*
X14016D1*
X14075Y22520D1*
X14134D1*
X14173Y22480D1*
X15472Y22461D2*
D16*
Y22874D1*
X14173Y22480D2*
X15453D1*
D13*
X15472Y22461D1*
X14606Y23701D2*
D16*
Y23268D1*
X15039D2*
X15472D1*
D17*
G03X15768Y23543I25J270D01*
G01*
Y26713D1*
G03X15492Y27106I-373J32D01*
G01*
X15433D1*
X13661Y26437D2*
D16*
X14134D1*
X14567D1*
Y27106D1*
X15039D2*
X14567D1*
X14961Y26437D2*
Y26004D1*
X22421Y11673D2*
D14*
Y11358D1*
X22362Y10807D2*
X22421Y10866D1*
Y11358D1*
X8406Y22756D2*
Y23248D1*
Y22244D2*
Y21752D1*
X11496Y23760D2*
D15*
Y24547D1*
X23051Y12736D2*
D17*
Y13130D1*
D18*
X22815Y13366D1*
Y15937D1*
X24067D1*
X22815D2*
Y17559D1*
X23193Y17937D1*
X24067D1*
X13228Y23996D2*
D15*
Y24469D1*
X13307Y24941D2*
Y24823D1*
X13228Y24587D1*
Y24469D1*
X6067Y12937D2*
D14*
X5295Y13248D1*
X5067Y13337D1*
X17657Y10197D2*
D13*
Y9606D1*
X17185D1*
Y9862D1*
Y9606D2*
Y9350D1*
Y9094D1*
X21791Y10827D2*
X21575D1*
X21358D1*
X21575Y11378D2*
Y11142D1*
Y10827D1*
X17657Y11713D2*
D14*
Y11358D1*
Y11024D1*
X18169D2*
D13*
Y11299D1*
X18110Y11358D1*
X17657D1*
X24067Y23937D2*
X21319D1*
G03X19941Y22520I-8J-1371D01*
G01*
Y21319D1*
G02X18780Y20138I-1171J-10D01*
G01*
X14055D1*
X13819Y20374D1*
X13533D1*
Y20571D2*
X13819D1*
X14114Y20276D1*
X18346D1*
G03X19390Y21339I-9J1052D01*
G01*
Y23169D1*
G02X21201Y24980I1813J-2D01*
G01*
X24024D1*
X24067Y24937D1*
X10876Y19587D2*
X10650D1*
X9843Y10512D2*
X10433D1*
X10512Y10591D1*
Y11870D1*
X10453Y11929D1*
X9331D1*
X9173Y12087D1*
Y18799D1*
X9961Y19587D1*
X10650D1*
X19331Y8787D2*
Y11732D1*
X16122Y14941D1*
X11398D1*
X9902Y16437D1*
Y18799D1*
X10492Y19390D1*
X10876D1*
X19724Y8787D2*
Y9252D1*
X19469Y9508D1*
Y11811D1*
X16201Y15079D1*
X11476D1*
X10039Y16516D1*
Y18740D1*
X10492Y19193D1*
X10876D1*
X11319Y18150D2*
Y18356D1*
Y18150D2*
Y17441D1*
X12362Y16398D1*
Y16299D1*
X13533Y20768D2*
X13819D1*
X14173Y20413D1*
X17913D1*
G03X18839Y21339I1J925D01*
G01*
Y23720D1*
G02X21043Y25925I2182J23D01*
G01*
X24055D1*
X24067Y25937D1*
X13287Y21014D2*
X13770D1*
X14232Y20551D1*
X17500D1*
G03X18287Y21339I-11J799D01*
G01*
Y24311D1*
G02X20886Y26909I2612J-14D01*
G01*
X24039D1*
X24067Y26937D1*
X10876Y19980D2*
X10256D1*
X10138Y19862D1*
X9823D1*
X8898Y18937D1*
Y10276D1*
X9193Y9980D1*
X10591D1*
X12224Y8346D1*
X13150D1*
X13563Y7933D1*
Y7303D1*
X10876Y19783D2*
X10453D1*
X10413D1*
X10354Y19724D1*
X9882D1*
X9035Y18878D1*
Y12008D1*
X9528Y11516D1*
X9843Y11535D1*
X10876Y20768D2*
X10748D1*
X10571Y20591D1*
X9075D1*
X6634Y18150D1*
X6457D1*
X6067Y17937D1*
D14*
X5315Y18228D1*
D13*
X5067Y18337D1*
X10876Y20571D2*
X10748D1*
X10629Y20453D1*
X9154D1*
X6713Y18012D1*
X6575Y17953D1*
X10876Y20374D2*
X10748D1*
X10689Y20315D1*
X9232D1*
X6280Y17362D1*
X5787D1*
X5551Y17126D1*
Y16142D1*
X5067Y16337D2*
D14*
X5551Y16142D1*
X6067Y15937D1*
X10876Y20177D2*
D13*
X9307D1*
X6067Y16937D1*
X11516Y18356D2*
Y17461D1*
X12697Y16280D1*
X20011D1*
X20098D1*
X20756Y16937D1*
X21067D1*
X11512Y18000D2*
X11516Y18356D1*
X20098Y15551D2*
Y16192D1*
Y16280D1*
X20011D2*
X20098Y16192D1*
X11713Y18356D2*
Y18150D1*
X11909Y17992D2*
Y18356D1*
X21067Y28937D2*
D14*
X24067D1*
X21067D2*
D13*
X20610Y28480D1*
Y27638D1*
X20433Y27461D1*
X20335D1*
G03X17579Y24646I68J-2823D01*
G01*
Y21791D1*
X17441Y21654D1*
X12106Y17382D2*
Y18356D1*
X24067Y27937D2*
D14*
X21067D1*
D13*
X21126D1*
X20512Y27323D1*
X20433D1*
G03X17717Y24626I5J-2721D01*
G01*
Y21654D1*
X12303Y17224D2*
Y18356D1*
X6067Y11937D2*
X5807Y11988D1*
D14*
X5256Y12244D1*
D13*
X5067Y12337D1*
X12697Y18356D2*
Y18150D1*
X6067Y19937D2*
D14*
X5276Y20256D1*
D13*
X5067Y20337D1*
X12894Y18356D2*
Y18000D1*
X6067Y18937D2*
D14*
X5295Y19232D1*
D13*
X5067Y19337D1*
X13819Y18583D2*
X13780Y18701D1*
X13681Y18799D1*
X13533D1*
X13819Y18583D2*
Y18071D1*
X13622Y17874D1*
X13228D1*
X13150Y17795D1*
Y17461D1*
X13091Y21014D2*
Y21171D1*
X13209Y21348D1*
Y21644D1*
X12303Y21014D2*
X12283D1*
Y21447D1*
X12421Y21585D1*
Y21644D1*
X12106Y21014D2*
Y21565D1*
X12067Y21604D1*
Y21978D1*
X12077Y21988D1*
Y22185D2*
X11939D1*
X11870Y22116D1*
Y21841D1*
X11909Y21801D1*
Y21014D1*
X13533Y19390D2*
X13780D1*
X11827Y22344D2*
X11909Y22372D1*
X12067D1*
X12077Y22382D1*
X11827Y22344D2*
X11813D1*
X11732Y22264D1*
Y21201D1*
X11713Y21161D1*
Y21014D1*
X12894D2*
X12913D1*
Y21171D1*
X13031Y21348D1*
Y21644D1*
X13012D1*
X12421Y23120D2*
Y23110D1*
X11772D1*
X11594Y22933D1*
Y21240D1*
X11516Y21161D1*
Y21014D1*
X11122Y18356D2*
Y18228D1*
X11102Y18209D1*
Y16752D1*
X11752Y16102D1*
X19370D1*
X19587Y15886D1*
Y15551D1*
X10876Y18996D2*
X10748D1*
X10630Y18878D1*
Y17008D1*
X11693Y15945D1*
X18996D1*
X19070Y15871D1*
X19075Y15866D1*
Y15551D1*
X19055Y6978D2*
D15*
Y6929D1*
X18799D1*
X19528Y8787D2*
D14*
Y9154D1*
X19055Y6978D2*
D15*
Y7598D1*
Y6978D2*
D13*
Y6594D1*
D15*
X18799D1*
X19055Y6978D2*
D13*
Y7283D1*
D15*
X18799D1*
X20335Y10453D2*
D13*
Y10020D1*
X20098D1*
X20335Y10453D2*
Y10768D1*
X20098D1*
X19724Y8150D2*
Y7657D1*
X19685Y7618D1*
Y6978D1*
X19331Y8150D2*
Y7657D1*
X19370Y7618D1*
Y6978D1*
X11122Y21014D2*
D14*
X10965Y21171D1*
X12077Y22776D2*
D19*
X11949D1*
X11849Y22868D1*
X13533Y20177D2*
D14*
X13770D1*
X14094Y19852D1*
X14272Y19764D2*
X14183D1*
X14094Y19852D1*
X10876Y18602D2*
X10866Y18583D1*
Y18209D1*
X15531Y19764D2*
X15703Y19593D1*
X13287Y18356D2*
X13465D1*
X13622Y17559D2*
Y17343D1*
X10276Y21437D2*
Y21004D1*
X10512D1*
X10276Y21437D2*
X10512Y21433D1*
X13553Y22382D2*
X13839D1*
X13964Y22256D1*
X14173Y22047D1*
X11358Y23169D2*
D15*
Y22953D1*
Y22756D2*
Y22953D1*
X15768Y19291D2*
D14*
Y19528D1*
X15703Y19593D1*
X10866Y18209D2*
Y17874D1*
X15768Y17559D2*
X15945D1*
X16083Y17421D1*
X16299D1*
X22224Y11673D2*
Y12205D1*
D13*
X21575D1*
X13964Y22256D2*
D14*
X13976Y22205D1*
X13307Y25335D2*
D15*
Y25571D1*
X16299Y17421D2*
D14*
X16634D1*
X13533Y19783D2*
D13*
X13740D1*
X13996Y19528D1*
X15472D1*
X15531Y19469D1*
Y19094D1*
X15669Y18957D1*
X15689D1*
X15768Y18898D1*
Y18425D1*
Y18898D2*
X16181D1*
X16299Y18780D1*
X16260Y19370D2*
Y19133D1*
Y18819D1*
X16299Y18780D1*
X16260Y19133D2*
X18879D1*
X20571Y17441D1*
X21280D1*
X21535Y17185D1*
Y16398D1*
X21075Y15937D1*
X21067D1*
D62*
X14902Y19764D3*
X13366Y23120D3*
X14252Y17461D3*
X19528Y7795D3*
X10866Y17244D3*
X21791Y10217D3*
X12480Y21289D3*
X12835Y21388D3*
X11791Y22598D3*
X11358Y22461D3*
X17185Y9606D3*
Y9862D3*
Y9350D3*
Y9094D3*
X21575Y11142D3*
X10650Y19587D3*
X11319Y18150D3*
X12362Y16299D3*
X11319Y18150D3*
X10256Y19980D3*
X10453Y19783D3*
X6575Y17953D3*
X11512Y18000D3*
X11713Y18150D3*
X11909Y17992D3*
X17441Y21654D3*
X12106Y17382D3*
X17717Y21654D3*
X12303Y17224D3*
X12697Y18150D3*
X12894Y18000D3*
X13819Y18583D3*
X13150Y17461D3*
X13819Y18583D3*
X13780Y19390D3*
X13445Y21368D3*
X11827Y22344D3*
D3*
X19587Y15886D3*
X19070Y15871D3*
X18799Y6929D3*
X19528Y9154D3*
X19055Y7598D3*
X18799Y6594D3*
Y7283D3*
X20335Y10020D3*
X20098D3*
X20335Y10768D3*
X20098D3*
X10965Y21171D3*
X11849Y22868D3*
X14094Y19852D3*
X10866Y18209D3*
X15703Y19593D3*
X13465Y18356D3*
X13622Y17343D3*
X10512Y21004D3*
Y21433D3*
X11358Y22953D3*
X13976Y22205D3*
X13307Y25571D3*
X16634Y17421D3*
D64*
X11319Y20581D3*
X13091D3*
X11752D3*
X12205D3*
D62*
X20394Y22028D3*
X17303D3*
X21555Y26417D3*
D64*
X11319Y19341D3*
X13091D3*
X11752D3*
X12205D3*
X11319Y18809D3*
X13091D3*
X11752D3*
X12205D3*
X12461Y22746D3*
X12815D3*
X13169D3*
X12461Y22392D3*
X12815D3*
X13169D3*
X12461Y22037D3*
X12815D3*
X13169D3*
D62*
X17303Y24783D3*
X16772Y19626D3*
D64*
X11319Y19872D3*
D62*
X18701Y27244D3*
X17500Y25768D3*
D64*
X13091Y19872D3*
X11752D3*
X12205D3*
X12657Y20581D3*
D62*
X20059Y18504D3*
D64*
X12657Y19341D3*
Y18809D3*
Y19872D3*
D62*
X17953Y26594D3*
X17303Y22953D3*
X19921Y11909D3*
X16654Y9390D3*
X17303Y23898D3*
X18878Y10807D3*
X17185Y8465D3*
X16594Y7697D3*
X11614Y16732D3*
X11299Y12008D3*
X17953Y8465D3*
X18386Y18878D3*
X20630Y26378D3*
X17185Y7697D3*
X8209Y13957D3*
X22579Y28465D3*
X20433Y24193D3*
X17913Y21201D3*
X15650Y16732D3*
X17953Y7697D3*
X11535Y12756D3*
X19783Y20079D3*
X14862Y16732D3*
X19508Y16713D3*
X18524D3*
X17087Y17087D3*
X12835Y16732D3*
X14547Y18661D3*
X17106Y18504D3*
X13839Y16732D3*
X23425Y11673D3*
X23150Y9055D3*
X19783Y23484D3*
X24016Y8268D3*
X21220Y7736D3*
X22913Y8268D3*
X18563Y23720D3*
Y22500D3*
X13209Y12008D3*
X14075D3*
X20472Y23130D3*
X21555Y28465D3*
X14094Y11024D3*
X14961D3*
X14094Y10000D3*
X14606Y8740D3*
X19075Y21161D3*
X12402Y8622D3*
X13681Y8307D3*
X15374Y24016D3*
Y24409D3*
X15394Y8740D3*
X15374Y25197D3*
Y23622D3*
Y24803D3*
X6909Y13898D3*
X19665Y19114D3*
X13681Y9134D3*
X23701Y23563D3*
X18543Y21280D3*
X21555Y24429D3*
X23701Y25453D3*
Y26417D3*
Y28465D3*
X15374Y26772D3*
X16142Y20866D3*
X19724Y26083D3*
X23386Y15394D3*
X19665Y22283D3*
X4724Y9055D3*
X19409Y18110D3*
X17992Y24350D3*
X19626Y21024D3*
X14882Y26772D3*
X23701Y24429D3*
X7185Y14783D3*
X6693Y12992D3*
X19094Y22402D3*
X6614Y19508D3*
X10492Y12362D3*
X14724Y15531D3*
X12283Y12008D3*
X9961Y19232D3*
X14724Y14606D3*
X9528Y17638D3*
X6614Y18563D3*
X5610Y13583D3*
Y17657D3*
X9528Y16929D3*
X10335Y18504D3*
X15039Y12283D3*
X16752Y12815D3*
X17461Y12323D3*
X10335Y16654D3*
X17008Y11850D3*
X9508Y14606D3*
X5827Y11457D3*
X10394Y14075D3*
X15984Y12303D3*
X16122Y13209D3*
X15689Y13996D3*
X14724D3*
X16594Y8465D3*
X9252Y7008D3*
X9843D3*
X11811D3*
X12992D3*
X11811Y7795D3*
X12992D3*
X10630Y7008D3*
X10787Y8661D3*
X11220Y8228D3*
X11890Y9134D3*
X12756D3*
X13031Y8622D3*
X16535Y7008D3*
X10059Y8661D3*
X9350D3*
X21969Y6654D3*
Y5079D3*
X9823Y15453D3*
X11575Y14606D3*
X10610Y14902D3*
X11575Y15531D3*
X6043Y9685D3*
X5610Y12638D3*
X16850Y10630D3*
X13150Y14606D3*
X22736Y9843D3*
X17421Y11358D3*
X17736D3*
X18051D3*
X6594Y20866D3*
X22736Y10433D3*
X17736Y10610D3*
X18091D3*
X20551Y11457D3*
X20315D3*
X20768D3*
X22736Y10138D3*
X5827Y16457D3*
X16299Y14252D3*
Y15531D3*
X7677Y12736D3*
X21496Y11791D3*
X18268Y13524D3*
X22028Y12185D3*
X5610Y14646D3*
X22638Y12185D3*
X21693Y12657D3*
X22323Y12185D3*
X21142Y11791D3*
X12520Y12756D3*
X18406Y12224D3*
X11063Y23819D3*
X17402Y13169D3*
X17736Y15531D3*
X5591Y19587D3*
X18858Y9587D3*
Y8307D3*
X19744Y10807D3*
Y9783D3*
X15984Y11437D3*
X20098Y7933D3*
X20118Y9055D3*
X19193Y12598D3*
X5610Y15610D3*
X10925Y16142D3*
X15984Y10650D3*
X8268Y18701D3*
X5591Y20866D3*
X7736Y22500D3*
X6988Y24311D3*
X7874Y26535D3*
X7677Y18110D3*
X16142Y21260D3*
X6575Y23465D3*
X15177Y22224D3*
X7835Y23642D3*
X6555Y25079D3*
X8957Y22441D3*
X7717Y25217D3*
X7087Y25866D3*
X5610Y23465D3*
X14961Y7008D3*
X8957Y23228D3*
X5906Y9055D3*
X15984Y9075D3*
X5118Y9055D3*
X15984Y8287D3*
X17323Y7008D3*
X14173D3*
X5512Y9055D3*
X6299D3*
X13563Y12756D3*
X18150Y6063D3*
X20492Y25335D3*
X15984Y9843D3*
Y7480D3*
X19685Y6063D3*
X21299D3*
X21555Y25453D3*
X18898Y5118D3*
X20472D3*
X19547Y24665D3*
X22441Y4213D3*
X23228D3*
X24016D3*
X19685Y5118D3*
X7303Y20236D3*
X7224Y21358D3*
X8957Y21732D3*
Y23976D3*
X9173Y21024D3*
X5610Y22441D3*
X8327Y24606D3*
X18799Y19626D3*
X22598Y25453D3*
X19094Y26614D3*
X14823Y22224D3*
X23445Y13504D3*
X18524Y17677D3*
X22579Y27421D3*
X5610Y21654D3*
X15295Y18268D3*
X13150Y15531D3*
X22579Y24429D3*
X14173Y27165D3*
X7638Y19528D3*
X17087Y14705D3*
X19134Y23602D3*
X20335Y19665D3*
Y20945D3*
X18799Y25098D3*
X22657Y23563D3*
X17185Y20866D3*
X21575Y23563D3*
X15177Y21831D3*
X13799Y23031D3*
X22854Y11102D3*
X23701Y27421D3*
X20256Y12933D3*
X20236Y14350D3*
X5591Y18602D3*
X19449Y13819D3*
X21555Y13268D3*
X18661Y14606D3*
X17756Y19626D3*
X18130Y25256D3*
X18484Y25984D3*
X20000Y27028D3*
X17992Y22224D3*
X21555Y27421D3*
X15374Y25591D3*
Y26378D3*
Y25984D3*
X16142Y24016D3*
X17992Y23287D3*
X23386Y17402D3*
Y16575D3*
Y14291D3*
X16142Y24409D3*
Y25197D3*
X20059Y17224D3*
X7776Y15512D3*
X23484Y12677D3*
X22579Y26437D3*
X16142Y23622D3*
Y24803D3*
Y26772D3*
Y25591D3*
Y26378D3*
Y25984D3*
X15787Y21831D3*
Y22224D3*
Y23012D3*
X16142Y21654D3*
X15787Y22618D3*
X16142Y23228D3*
Y22047D3*
Y22835D3*
Y22441D3*
X14213Y23858D3*
X13799Y23445D3*
X14213Y23287D3*
X13701Y24409D3*
Y25197D3*
Y24803D3*
X13543Y24094D3*
X13701Y25591D3*
X13307Y25984D3*
X13701D3*
X12520D3*
X12913D3*
X11988Y25354D3*
X12382D3*
X11201D3*
X11594D3*
X13780Y26772D3*
X14173D3*
X12992D3*
X13386D3*
X16024Y27165D3*
X15374Y27559D3*
X15768D3*
X15098Y27953D3*
X11791Y24173D3*
X15098Y28346D3*
Y29134D3*
Y28740D3*
X14035Y27953D3*
Y28346D3*
Y29134D3*
Y28740D3*
X13681Y29528D3*
Y31102D3*
X12520Y24173D3*
X12146D3*
X13681Y30315D3*
X15433Y29528D3*
Y31102D3*
Y30315D3*
X12165Y29528D3*
Y31102D3*
Y30315D3*
X16969Y29528D3*
Y31102D3*
Y30315D3*
X13386Y27323D3*
Y28898D3*
Y28110D3*
X12598Y27323D3*
Y28898D3*
Y28110D3*
X11811Y27323D3*
Y28898D3*
Y28110D3*
X11024Y27323D3*
Y28898D3*
X10236Y28110D3*
X9449Y27323D3*
Y28898D3*
X8661Y28110D3*
X7874Y27323D3*
Y28898D3*
X9843Y29528D3*
Y31102D3*
X9055D3*
Y30315D3*
X8268Y29528D3*
Y31102D3*
X7480D3*
Y30315D3*
X6693Y29528D3*
Y31102D3*
X5906D3*
Y30315D3*
X11417Y31102D3*
X10630D3*
X8661Y25748D3*
X6299Y25866D3*
X11240Y21457D3*
X8661Y18110D3*
X5118Y29528D3*
Y31102D3*
X4331Y29528D3*
Y31102D3*
Y30315D3*
Y27165D3*
Y28740D3*
Y27953D3*
Y24803D3*
Y26378D3*
Y25591D3*
Y22441D3*
Y24016D3*
Y23228D3*
Y20079D3*
Y21654D3*
Y20866D3*
Y17717D3*
Y19291D3*
Y18504D3*
Y15354D3*
Y16929D3*
Y16142D3*
Y12992D3*
Y14567D3*
Y13780D3*
Y10630D3*
Y12205D3*
Y11417D3*
X6043Y10354D3*
X4213Y9646D3*
X4331Y9055D3*
X24803Y29528D3*
Y31102D3*
Y30315D3*
Y27165D3*
Y28740D3*
Y27953D3*
Y24803D3*
Y26378D3*
Y25591D3*
Y22441D3*
Y24016D3*
Y23228D3*
Y20079D3*
Y21654D3*
Y20866D3*
Y17717D3*
Y19291D3*
Y18504D3*
Y15354D3*
Y16929D3*
Y16142D3*
Y12992D3*
Y14567D3*
Y13780D3*
Y10630D3*
Y12205D3*
Y11417D3*
X24862Y9843D3*
Y9055D3*
X24803Y6693D3*
Y8268D3*
Y7480D3*
Y4331D3*
Y5906D3*
Y5118D3*
X24094Y22933D3*
X23386Y20866D3*
Y22441D3*
Y21654D3*
Y18504D3*
Y20079D3*
Y19291D3*
X9843Y24213D3*
X9685Y25748D3*
X11063Y24626D3*
X9843Y21850D3*
Y23425D3*
Y22638D3*
X10630Y24213D3*
Y25787D3*
Y25000D3*
Y21850D3*
Y23425D3*
Y22638D3*
X9449Y24961D3*
X11811Y25984D3*
X23228Y31102D3*
Y30315D3*
X10945Y10394D3*
X22441Y31102D3*
X10965Y11339D3*
X21654Y31102D3*
X9606Y12362D3*
X20866Y29528D3*
Y31102D3*
X20079D3*
Y30315D3*
X19291Y29528D3*
Y31102D3*
X18504D3*
Y30315D3*
X17717Y29528D3*
Y31102D3*
X16732Y24803D3*
Y26378D3*
Y25591D3*
Y22598D3*
Y24173D3*
Y23386D3*
X19291Y28740D3*
Y27953D3*
X18642Y28740D3*
Y27953D3*
X17717Y27165D3*
X20079Y28740D3*
Y27953D3*
X16929Y27165D3*
Y28740D3*
Y27953D3*
X5610Y24291D3*
X16142Y28740D3*
Y27953D3*
X24016Y29528D3*
Y31102D3*
X16732Y21811D3*
Y21024D3*
X7087Y28110D3*
X6220Y27323D3*
X6299Y28898D3*
X5610Y27323D3*
Y28898D3*
Y28110D3*
Y25079D3*
Y26535D3*
Y25866D3*
X12598Y26535D3*
X11811D3*
X11024D3*
X10236D3*
X8661D3*
X9232Y19665D3*
X8425Y20512D3*
X6299Y26535D3*
X8012Y21358D3*
X7087Y9055D3*
X8268D3*
X7480D3*
X7874D3*
X8661D3*
X6693D3*
X17126Y5709D3*
X8858Y6496D3*
Y7283D3*
X17126Y5315D3*
X8858Y6890D3*
Y8858D3*
Y7677D3*
Y8465D3*
Y8071D3*
X17126Y4921D3*
Y4528D3*
X9646Y6496D3*
X10039D3*
X10433D3*
X9252D3*
X12008D3*
X13189D3*
X12402D3*
X12795D3*
X13583D3*
X17126Y4213D3*
X14764Y6496D3*
X13976D3*
X14370D3*
X15157D3*
X15748Y7008D3*
X15945Y6496D3*
X17126D3*
X16339D3*
X16732D3*
X17126Y6102D3*
X15551Y6496D3*
X8661Y16909D3*
X6890Y17323D3*
X7579Y10236D3*
X6693D3*
X8661Y15295D3*
X7776Y16693D3*
X8465Y10472D3*
Y12047D3*
X6890Y15748D3*
X8465Y11260D3*
X7579Y11811D3*
X8465Y9685D3*
X6693Y11811D3*
Y11024D3*
X7579D3*
X6693Y9449D3*
X7579D3*
X21654Y4213D3*
X24016Y7480D3*
X23228Y6693D3*
X20866Y4213D3*
X20079D3*
X22441Y7480D3*
X19291Y4213D3*
X24016Y5906D3*
X23228Y5118D3*
X18504Y4213D3*
X17717D3*
X22441Y5906D3*
X23846Y14824D2*
D19*
X24304D1*
X23846Y14747D2*
X24304D1*
X23846Y14669D2*
X24304D1*
X23846Y14592D2*
X24304D1*
X23846Y14514D2*
X24304D1*
X23846Y14437D2*
X24304D1*
X23846Y14360D2*
X24304D1*
X23846Y14282D2*
X24304D1*
X23846Y14205D2*
X24304D1*
X23846Y14127D2*
X24304D1*
X23846Y14050D2*
X24304D1*
X23846Y13972D2*
X24304D1*
X23846Y13895D2*
X24304D1*
X23846Y13818D2*
X24304D1*
X23846Y13740D2*
X24304D1*
X23846Y13663D2*
X24304D1*
X23846Y13585D2*
X24304D1*
X23846Y13508D2*
X24304D1*
X23846Y13430D2*
X24304D1*
X23846Y13353D2*
X24304D1*
X23846Y13276D2*
X24304D1*
X23846Y13198D2*
X24304D1*
X23846Y13121D2*
X24304D1*
X23846Y13043D2*
X24304D1*
X23846Y12966D2*
X24304D1*
X23846Y12888D2*
X24304D1*
X23846Y12811D2*
X24304D1*
X23846Y12734D2*
X24304D1*
X23846Y12656D2*
X24304D1*
X23846Y12579D2*
X24304D1*
X23846Y12501D2*
X24304D1*
X23846Y12424D2*
X24304D1*
X23846Y12346D2*
X24304D1*
X23846Y12269D2*
X24304D1*
X23846Y12192D2*
X24304D1*
X23846Y12114D2*
X24304D1*
X23846Y12037D2*
X24304D1*
X23846Y11959D2*
X24304D1*
X23846Y11882D2*
X24304D1*
X23846Y11804D2*
X24304D1*
X23846Y11727D2*
X24304D1*
X23846Y11650D2*
X24304D1*
X23846Y11572D2*
X24304D1*
X23846Y11495D2*
X24304D1*
X23846Y11417D2*
X24304D1*
X23846Y11340D2*
X24304D1*
X23846Y11262D2*
X24304D1*
X23843Y11185D2*
X24304D1*
X23770Y11108D2*
X24304D1*
X23692Y11030D2*
X24304D1*
X23615Y10953D2*
X24304D1*
X23537Y10875D2*
X24304D1*
X23460Y10798D2*
X24304D1*
X23382Y10720D2*
X24304D1*
X23305Y10643D2*
X24304D1*
X22252Y10566D2*
X24304D1*
X22252Y10488D2*
X24304D1*
X22252Y10411D2*
X24304D1*
X22252Y10333D2*
X24304D1*
X22252Y10256D2*
X23937D1*
X24196D2*
X24304D1*
X22252Y10178D2*
X23691D1*
X22252Y10101D2*
X23564D1*
X22252Y10024D2*
X23475D1*
X22252Y9946D2*
X23406D1*
X22252Y9869D2*
X23353D1*
X22252Y9791D2*
X23311D1*
X22641Y10571D2*
Y10568D1*
X22244D1*
Y9744D1*
X23298D1*
X23329Y9813D1*
X23368Y9882D1*
X23414Y9946D1*
X23465Y10006D1*
X23522Y10060D1*
X23583Y10109D1*
X23649Y10152D1*
X23719Y10189D1*
X23792Y10218D1*
X23867Y10241D1*
X23945Y10256D1*
X24023Y10264D1*
X24102D1*
X24180Y10257D1*
X24257Y10243D1*
X24311Y10228D1*
Y14902D1*
X23839D1*
X23838Y11200D1*
X23827Y11173D1*
X23235Y10582D1*
X23209Y10571D1*
X22641D1*
X21563Y12738D2*
X21839D1*
X21563Y12660D2*
X21839D1*
X21563Y12583D2*
X21839D1*
X21563Y12505D2*
X21839D1*
X21763Y12428D2*
X22158D1*
X21763Y12350D2*
X23161D1*
X21763Y12273D2*
X22765D1*
X21763Y12196D2*
X22765D1*
X21763Y12118D2*
X22765D1*
X21763Y12041D2*
X22765D1*
X22165Y12497D2*
X21847D1*
Y12815D1*
X21555D1*
Y12464D1*
X21755D1*
Y11988D1*
X22772D1*
Y12306D1*
X23169D1*
Y12362D1*
X22205D1*
X22172Y12381D1*
X22165Y12402D1*
Y12496D1*
X22087Y12736D2*
Y12497D1*
X21847Y12736D2*
X22087D1*
X21575Y12464D2*
Y12205D1*
X21755D1*
X23051Y12306D2*
Y12067D1*
X22773D2*
X23051D1*
X17331Y11970D2*
X17410D1*
X17331Y11892D2*
X17410D1*
X17331Y11815D2*
X17410D1*
X17331Y11738D2*
X17410D1*
X17331Y11660D2*
X17410D1*
X17331Y11583D2*
X17410D1*
X17331Y11505D2*
X17410D1*
X17331Y11428D2*
X18181D1*
X17331Y11350D2*
X18181D1*
X17426Y11972D2*
X17736D1*
Y12047D1*
X17323D1*
Y11299D1*
X17477D1*
Y11302D1*
X17838Y11301D1*
X17969Y11302D1*
X18094Y11301D1*
X18190Y11302D1*
X18189Y11457D1*
X17776D1*
X17742Y11476D1*
X17736Y11493D1*
X17418D1*
Y11972D1*
X17426D1*
X17657Y11971D2*
Y11493D1*
X17418Y11732D2*
X17657D1*
X17212Y10140D2*
X17469D1*
X17134Y10063D2*
X17469D1*
X17057Y9986D2*
X17469D1*
X16979Y9908D2*
X17729D1*
X16937Y9831D2*
X17410D1*
X16937Y9753D2*
X17410D1*
X16937Y9676D2*
X17410D1*
X16937Y9598D2*
X17410D1*
X16937Y9521D2*
X17410D1*
X16937Y9444D2*
X17410D1*
X16937Y9366D2*
X17410D1*
X16937Y9289D2*
X17410D1*
X16937Y9211D2*
X17410D1*
X16937Y9134D2*
X17410D1*
X16937Y9056D2*
X17410D1*
X17426Y9846D2*
X17736D1*
X17735Y9938D1*
X17477D1*
Y10217D1*
X17280D1*
X16929Y9866D1*
Y8996D1*
X17418D1*
Y9452D1*
Y9846D1*
X17426D1*
X17657D2*
Y9606D1*
X17418D2*
X17657D1*
Y10197D2*
D14*
Y9938D1*
X17477Y10197D2*
X17657D1*
X20224Y11478D2*
D19*
X20859D1*
X20224Y11400D2*
X20859D1*
X20621Y11323D2*
X20859D1*
X20621Y11245D2*
X20859D1*
X20621Y11168D2*
X20790D1*
X20621Y11091D2*
X20712D1*
X20217Y11361D2*
X20613D1*
Y11063D1*
X20686Y11066D1*
X20697D1*
X20866Y11237D1*
Y11555D1*
X20217D1*
Y11362D1*
X20335Y11361D2*
D16*
Y11122D1*
X20613D1*
X20028Y10749D2*
D19*
X20445D1*
X20028Y10207D2*
X20445D1*
X20028Y10130D2*
X20445D1*
X20028Y10052D2*
X20445D1*
X20028Y9975D2*
X20445D1*
X20028Y9898D2*
X20445D1*
X20064Y10692D2*
X20453D1*
Y10827D1*
X20020D1*
Y9882D1*
X20453D1*
Y10213D1*
X20125D1*
X20056D1*
Y10692D1*
X20064D1*
X20335D2*
D14*
Y10214D1*
X20056Y10453D2*
X20335D1*
X4132Y31245D2*
D20*
X12274D1*
X13380D2*
X14014D1*
X15120D2*
X15754D1*
X16860D2*
X25002D1*
X4132Y31184D2*
X12274D1*
X13380D2*
X14014D1*
X15120D2*
X15754D1*
X16860D2*
X25002D1*
X4132Y31122D2*
X12274D1*
X13380D2*
X14014D1*
X15120D2*
X15754D1*
X16860D2*
X25002D1*
X4132Y31060D2*
X12274D1*
X13380D2*
X14014D1*
X15120D2*
X15754D1*
X16860D2*
X25002D1*
X4132Y30999D2*
X12274D1*
X13380D2*
X14014D1*
X15120D2*
X15754D1*
X16860D2*
X25002D1*
X4132Y30937D2*
X12274D1*
X13380D2*
X14014D1*
X15120D2*
X15754D1*
X16860D2*
X25002D1*
X4132Y30875D2*
X12274D1*
X13380D2*
X14014D1*
X15120D2*
X15754D1*
X16860D2*
X25002D1*
X4132Y30814D2*
X12274D1*
X13380D2*
X14014D1*
X15120D2*
X15754D1*
X16860D2*
X25002D1*
X4132Y30752D2*
X10970D1*
X11164D2*
X12274D1*
X13380D2*
X14014D1*
X15120D2*
X15754D1*
X16860D2*
X21970D1*
X22164D2*
X25002D1*
X4132Y30690D2*
X10736D1*
X11398D2*
X12274D1*
X13380D2*
X14014D1*
X15120D2*
X15754D1*
X16860D2*
X21736D1*
X22398D2*
X25002D1*
X4132Y30629D2*
X10620D1*
X11514D2*
X12274D1*
X13380D2*
X14014D1*
X15120D2*
X15754D1*
X16860D2*
X21620D1*
X22514D2*
X25002D1*
X4132Y30567D2*
X10536D1*
X11598D2*
X12274D1*
X13380D2*
X14014D1*
X15120D2*
X15754D1*
X16860D2*
X21536D1*
X22598D2*
X25002D1*
X4132Y30505D2*
X10470D1*
X11664D2*
X12274D1*
X13380D2*
X14014D1*
X15120D2*
X15754D1*
X16860D2*
X21470D1*
X22664D2*
X25002D1*
X4132Y30444D2*
X10415D1*
X11718D2*
X12274D1*
X13380D2*
X14014D1*
X15120D2*
X15754D1*
X16860D2*
X21415D1*
X22718D2*
X25002D1*
X4132Y30382D2*
X10372D1*
X11762D2*
X12274D1*
X13380D2*
X14014D1*
X15120D2*
X15754D1*
X16860D2*
X21372D1*
X22762D2*
X25002D1*
X4132Y30320D2*
X10336D1*
X11798D2*
X12274D1*
X13380D2*
X14014D1*
X15120D2*
X15754D1*
X16860D2*
X21336D1*
X22798D2*
X25002D1*
X4132Y30259D2*
X10306D1*
X11828D2*
X12274D1*
X13380D2*
X14014D1*
X15120D2*
X15754D1*
X16860D2*
X21306D1*
X22828D2*
X25002D1*
X4132Y30197D2*
X10283D1*
X11851D2*
X12274D1*
X13380D2*
X14014D1*
X15120D2*
X15754D1*
X16860D2*
X21283D1*
X22851D2*
X25002D1*
X4132Y30135D2*
X10265D1*
X11869D2*
X12274D1*
X13380D2*
X14014D1*
X15120D2*
X15754D1*
X16860D2*
X21265D1*
X22869D2*
X25002D1*
X4132Y30073D2*
X10252D1*
X11882D2*
X12274D1*
X13380D2*
X14014D1*
X15120D2*
X15754D1*
X16860D2*
X21252D1*
X22882D2*
X25002D1*
X4132Y30012D2*
X10244D1*
X11890D2*
X12274D1*
X13380D2*
X14014D1*
X15120D2*
X15754D1*
X16860D2*
X21244D1*
X22890D2*
X25002D1*
X4132Y29950D2*
X10240D1*
X11894D2*
X12274D1*
X13380D2*
X14014D1*
X15120D2*
X15754D1*
X16860D2*
X21240D1*
X22894D2*
X25002D1*
X4132Y29888D2*
X10242D1*
X11892D2*
X12274D1*
X13380D2*
X14014D1*
X15120D2*
X15754D1*
X16860D2*
X21242D1*
X22892D2*
X25002D1*
X4132Y29827D2*
X10248D1*
X11886D2*
X12274D1*
X13380D2*
X14014D1*
X15120D2*
X15754D1*
X16860D2*
X21248D1*
X22886D2*
X25002D1*
X4132Y29765D2*
X10259D1*
X11875D2*
X12274D1*
X13380D2*
X14014D1*
X15120D2*
X15754D1*
X16860D2*
X21259D1*
X22875D2*
X25002D1*
X4132Y29703D2*
X10275D1*
X11859D2*
X12274D1*
X13380D2*
X14014D1*
X15120D2*
X15754D1*
X16860D2*
X21275D1*
X22859D2*
X25002D1*
X4132Y29642D2*
X10295D1*
X11838D2*
X12274D1*
X13380D2*
X14014D1*
X15120D2*
X15754D1*
X16860D2*
X21295D1*
X22838D2*
X25002D1*
X4132Y29580D2*
X10322D1*
X11812D2*
X12274D1*
X13380D2*
X14014D1*
X15120D2*
X15754D1*
X16860D2*
X21322D1*
X22812D2*
X25002D1*
X4132Y29518D2*
X10355D1*
X11778D2*
X12274D1*
X13380D2*
X14014D1*
X15120D2*
X15754D1*
X16860D2*
X21355D1*
X22778D2*
X25002D1*
X4132Y29457D2*
X10396D1*
X11738D2*
X12274D1*
X13380D2*
X14014D1*
X15120D2*
X15754D1*
X16860D2*
X21396D1*
X22738D2*
X25002D1*
X4132Y29395D2*
X10445D1*
X11689D2*
X12274D1*
X13380D2*
X14014D1*
X15120D2*
X15754D1*
X16860D2*
X21445D1*
X22689D2*
X25002D1*
X4132Y29333D2*
X10506D1*
X11628D2*
X12274D1*
X13380D2*
X14014D1*
X15120D2*
X15754D1*
X16860D2*
X21506D1*
X22628D2*
X25002D1*
X4132Y29272D2*
X4856D1*
X5277D2*
X10581D1*
X11553D2*
X12274D1*
X13380D2*
X14014D1*
X15120D2*
X15754D1*
X16860D2*
X17856D1*
X18277D2*
X20856D1*
X21277D2*
X21581D1*
X22553D2*
X23856D1*
X24277D2*
X25002D1*
X4132Y29210D2*
X4779D1*
X5355D2*
X10681D1*
X11453D2*
X14168D1*
X14965D2*
X17779D1*
X18355D2*
X20779D1*
X21355D2*
X21681D1*
X22453D2*
X23779D1*
X24355D2*
X25002D1*
X4132Y29148D2*
X4730D1*
X5403D2*
X10836D1*
X11298D2*
X14168D1*
X14965D2*
X17730D1*
X18403D2*
X20730D1*
X21403D2*
X21836D1*
X22298D2*
X23730D1*
X24403D2*
X25002D1*
X4132Y29087D2*
X4698D1*
X5436D2*
X14168D1*
X14965D2*
X17698D1*
X18436D2*
X20698D1*
X24436D2*
X25002D1*
X4132Y29025D2*
X4678D1*
X5456D2*
X14168D1*
X14965D2*
X17678D1*
X18456D2*
X20678D1*
X24456D2*
X25002D1*
X4132Y28963D2*
X4669D1*
X5464D2*
X14168D1*
X14965D2*
X17669D1*
X18464D2*
X20669D1*
X24464D2*
X25002D1*
X4132Y28902D2*
X4670D1*
X5463D2*
X14168D1*
X14965D2*
X17670D1*
X18463D2*
X20670D1*
X24463D2*
X25002D1*
X4132Y28840D2*
X4680D1*
X5454D2*
X14168D1*
X14965D2*
X17680D1*
X18454D2*
X20680D1*
X24454D2*
X25002D1*
X4132Y28778D2*
X4702D1*
X5432D2*
X14168D1*
X14965D2*
X17702D1*
X18432D2*
X20702D1*
X21432D2*
X23702D1*
X24432D2*
X25002D1*
X4132Y28717D2*
X4736D1*
X5398D2*
X14168D1*
X14965D2*
X17736D1*
X18398D2*
X20661D1*
X21398D2*
X23736D1*
X24398D2*
X25002D1*
X4132Y28655D2*
X4788D1*
X5345D2*
X14168D1*
X14965D2*
X17788D1*
X18345D2*
X20599D1*
X21345D2*
X23788D1*
X24345D2*
X25002D1*
X4132Y28593D2*
X4872D1*
X5262D2*
X14168D1*
X14965D2*
X17872D1*
X18262D2*
X20537D1*
X21262D2*
X23872D1*
X24262D2*
X25002D1*
X4132Y28531D2*
X14168D1*
X14965D2*
X20487D1*
X20847D2*
X25002D1*
X4132Y28470D2*
X14168D1*
X14965D2*
X20476D1*
X20785D2*
X25002D1*
X4132Y28408D2*
X14168D1*
X14965D2*
X20476D1*
X20744D2*
X25002D1*
X4132Y28346D2*
X14168D1*
X14965D2*
X20476D1*
X20744D2*
X25002D1*
X4132Y28285D2*
X4879D1*
X5255D2*
X14168D1*
X14965D2*
X17879D1*
X18255D2*
X20476D1*
X20744D2*
X20879D1*
X21255D2*
X23879D1*
X24255D2*
X25002D1*
X4132Y28223D2*
X4792D1*
X5341D2*
X14168D1*
X14965D2*
X17792D1*
X18341D2*
X20476D1*
X20744D2*
X20792D1*
X21341D2*
X23792D1*
X24341D2*
X25002D1*
X4132Y28161D2*
X4739D1*
X5395D2*
X14168D1*
X14965D2*
X17739D1*
X18395D2*
X20476D1*
X21395D2*
X23739D1*
X24395D2*
X25002D1*
X4132Y28100D2*
X4704D1*
X5430D2*
X14168D1*
X14965D2*
X17704D1*
X18430D2*
X20476D1*
X21430D2*
X23704D1*
X24430D2*
X25002D1*
X4132Y28038D2*
X4682D1*
X5452D2*
X14168D1*
X14965D2*
X17682D1*
X18452D2*
X20476D1*
X24452D2*
X25002D1*
X4132Y27976D2*
X4670D1*
X5463D2*
X14168D1*
X14965D2*
X17670D1*
X18463D2*
X20476D1*
X24463D2*
X25002D1*
X4132Y27915D2*
X4669D1*
X5464D2*
X14168D1*
X14965D2*
X17669D1*
X18464D2*
X20476D1*
X24464D2*
X25002D1*
X4132Y27853D2*
X4677D1*
X5457D2*
X14168D1*
X14965D2*
X17677D1*
X18457D2*
X20476D1*
X24457D2*
X25002D1*
X4132Y27791D2*
X4697D1*
X5437D2*
X14168D1*
X14965D2*
X17697D1*
X18437D2*
X20476D1*
X24437D2*
X25002D1*
X4132Y27730D2*
X4727D1*
X5406D2*
X14194D1*
X14940D2*
X17727D1*
X18406D2*
X20476D1*
X21406D2*
X23727D1*
X24406D2*
X25002D1*
X4132Y27668D2*
X4776D1*
X5358D2*
X14256D1*
X14878D2*
X17776D1*
X18358D2*
X20455D1*
X21358D2*
X23776D1*
X24358D2*
X25002D1*
X4132Y27606D2*
X4850D1*
X5284D2*
X14317D1*
X14817D2*
X17850D1*
X18284D2*
X20393D1*
X21284D2*
X23850D1*
X24284D2*
X25002D1*
X4132Y27545D2*
X14346D1*
X14788D2*
X19893D1*
X20919D2*
X25002D1*
X4132Y27483D2*
X14346D1*
X14788D2*
X19621D1*
X20858D2*
X25002D1*
X4132Y27421D2*
X14346D1*
X14788D2*
X19422D1*
X20796D2*
X25002D1*
X4132Y27360D2*
X14346D1*
X14788D2*
X19261D1*
X20734D2*
X25002D1*
X4132Y27298D2*
X4908D1*
X5226D2*
X14346D1*
X15654D2*
X19120D1*
X20673D2*
X23908D1*
X24226D2*
X25002D1*
X4132Y27236D2*
X4807D1*
X5327D2*
X14346D1*
X15725D2*
X19001D1*
X20611D2*
X23807D1*
X24327D2*
X25002D1*
X4132Y27175D2*
X4748D1*
X5386D2*
X14346D1*
X15804D2*
X18892D1*
X20123D2*
X23748D1*
X24386D2*
X25002D1*
X4132Y27113D2*
X4710D1*
X5424D2*
X14346D1*
X15861D2*
X18791D1*
X19800D2*
X23710D1*
X24424D2*
X25002D1*
X4132Y27051D2*
X4685D1*
X5449D2*
X14346D1*
X15904D2*
X18702D1*
X19594D2*
X23685D1*
X24449D2*
X25002D1*
X4132Y26990D2*
X4672D1*
X5462D2*
X14346D1*
X15937D2*
X18615D1*
X19434D2*
X20398D1*
X24462D2*
X25002D1*
X4132Y26928D2*
X4668D1*
X5465D2*
X14346D1*
X15961D2*
X18538D1*
X19299D2*
X20135D1*
X24465D2*
X25002D1*
X4132Y26866D2*
X4675D1*
X5459D2*
X14385D1*
X14749D2*
X15490D1*
X15977D2*
X18464D1*
X19180D2*
X19947D1*
X24459D2*
X25002D1*
X4132Y26804D2*
X4692D1*
X5442D2*
X14385D1*
X14749D2*
X15536D1*
X15987D2*
X18396D1*
X19076D2*
X19794D1*
X24442D2*
X25002D1*
X4132Y26743D2*
X4720D1*
X5414D2*
X14385D1*
X14749D2*
X15547D1*
X15990D2*
X18331D1*
X18982D2*
X19662D1*
X20472D2*
X23720D1*
X24414D2*
X25002D1*
X4132Y26681D2*
X4764D1*
X5370D2*
X14385D1*
X14749D2*
X15546D1*
X15989D2*
X18269D1*
X18894D2*
X19545D1*
X20209D2*
X23764D1*
X24370D2*
X25002D1*
X4132Y26619D2*
X4831D1*
X5303D2*
X13046D1*
X15182D2*
X15546D1*
X15989D2*
X18213D1*
X18816D2*
X19444D1*
X20024D2*
X23831D1*
X24303D2*
X25002D1*
X4132Y26558D2*
X4961D1*
X5173D2*
X13046D1*
X15182D2*
X15546D1*
X15989D2*
X18156D1*
X18741D2*
X19347D1*
X19877D2*
X23961D1*
X24173D2*
X25002D1*
X4132Y26496D2*
X13046D1*
X15182D2*
X15546D1*
X15989D2*
X18106D1*
X18674D2*
X19263D1*
X19752D2*
X25002D1*
X4132Y26434D2*
X13046D1*
X15182D2*
X15546D1*
X15989D2*
X18057D1*
X18608D2*
X19180D1*
X19639D2*
X25002D1*
X4132Y26373D2*
X13046D1*
X15182D2*
X15546D1*
X15989D2*
X18010D1*
X18551D2*
X19108D1*
X19541D2*
X25002D1*
X4132Y26311D2*
X4943D1*
X5191D2*
X13046D1*
X15182D2*
X15546D1*
X15989D2*
X17968D1*
X18493D2*
X19037D1*
X19453D2*
X23943D1*
X24191D2*
X25002D1*
X4132Y26249D2*
X4824D1*
X5310D2*
X13046D1*
X15182D2*
X15546D1*
X15989D2*
X17925D1*
X18443D2*
X18975D1*
X19369D2*
X23824D1*
X24310D2*
X25002D1*
X4132Y26188D2*
X4759D1*
X5375D2*
X13912D1*
X15182D2*
X15546D1*
X15989D2*
X17886D1*
X18393D2*
X18912D1*
X19295D2*
X23759D1*
X24375D2*
X25002D1*
X4132Y26126D2*
X4717D1*
X5417D2*
X13912D1*
X15182D2*
X15546D1*
X15989D2*
X17850D1*
X18346D2*
X18855D1*
X19223D2*
X23717D1*
X24417D2*
X25002D1*
X4132Y26064D2*
X4690D1*
X5444D2*
X13912D1*
X15182D2*
X15546D1*
X15989D2*
X17814D1*
X18303D2*
X18802D1*
X19161D2*
X23690D1*
X24444D2*
X25002D1*
X4132Y26003D2*
X4674D1*
X5460D2*
X13912D1*
X15182D2*
X15546D1*
X15989D2*
X17782D1*
X18262D2*
X18750D1*
X19099D2*
X20548D1*
X24460D2*
X25002D1*
X4132Y25941D2*
X4668D1*
X5465D2*
X13912D1*
X15182D2*
X15546D1*
X15989D2*
X17751D1*
X18224D2*
X18704D1*
X19044D2*
X20312D1*
X24465D2*
X25002D1*
X4132Y25879D2*
X4672D1*
X5462D2*
X13912D1*
X15182D2*
X15546D1*
X15989D2*
X17721D1*
X18187D2*
X18659D1*
X18991D2*
X20143D1*
X24462D2*
X25002D1*
X4132Y25818D2*
X4687D1*
X5447D2*
X14346D1*
X15182D2*
X15546D1*
X15989D2*
X17693D1*
X18153D2*
X18616D1*
X18942D2*
X20003D1*
X24447D2*
X25002D1*
X4132Y25756D2*
X4713D1*
X5421D2*
X13238D1*
X13376D2*
X13912D1*
X15182D2*
X15546D1*
X15989D2*
X17667D1*
X18123D2*
X18577D1*
X18896D2*
X19884D1*
X20621D2*
X23713D1*
X24421D2*
X25002D1*
X4132Y25694D2*
X4753D1*
X5381D2*
X13150D1*
X13464D2*
X13912D1*
X15182D2*
X15546D1*
X15989D2*
X17642D1*
X18091D2*
X18538D1*
X18851D2*
X19784D1*
X20387D2*
X23753D1*
X24381D2*
X25002D1*
X4132Y25633D2*
X4813D1*
X5321D2*
X13115D1*
X13499D2*
X13912D1*
X15182D2*
X15546D1*
X15989D2*
X17619D1*
X18065D2*
X18503D1*
X18812D2*
X19687D1*
X20223D2*
X23813D1*
X24321D2*
X25002D1*
X4132Y25571D2*
X4920D1*
X5213D2*
X13105D1*
X13509D2*
X13912D1*
X15182D2*
X15546D1*
X15989D2*
X17599D1*
X18039D2*
X18471D1*
X18774D2*
X19606D1*
X20091D2*
X23920D1*
X24213D2*
X25002D1*
X4132Y25509D2*
X12613D1*
X13528D2*
X13912D1*
X15182D2*
X15546D1*
X15989D2*
X17579D1*
X18015D2*
X18437D1*
X18738D2*
X19527D1*
X19978D2*
X25002D1*
X4132Y25448D2*
X12613D1*
X13528D2*
X13912D1*
X15182D2*
X15546D1*
X15989D2*
X17559D1*
X17993D2*
X18409D1*
X18705D2*
X19460D1*
X19881D2*
X25002D1*
X4132Y25386D2*
X12613D1*
X13528D2*
X13912D1*
X15182D2*
X15546D1*
X15989D2*
X17543D1*
X17972D2*
X18382D1*
X18672D2*
X19392D1*
X19795D2*
X25002D1*
X4132Y25324D2*
X4998D1*
X5136D2*
X12613D1*
X13528D2*
X13912D1*
X14355D2*
X15546D1*
X15989D2*
X17528D1*
X17954D2*
X18354D1*
X18645D2*
X19334D1*
X19714D2*
X23998D1*
X24136D2*
X25002D1*
X4132Y25262D2*
X4842D1*
X5292D2*
X12613D1*
X13528D2*
X13912D1*
X14355D2*
X15546D1*
X15989D2*
X17512D1*
X17937D2*
X18331D1*
X18617D2*
X19278D1*
X19646D2*
X23842D1*
X24292D2*
X25002D1*
X4132Y25201D2*
X4771D1*
X5363D2*
X12613D1*
X13528D2*
X13912D1*
X14355D2*
X15546D1*
X15989D2*
X17501D1*
X17921D2*
X18309D1*
X18591D2*
X19225D1*
X19579D2*
X23771D1*
X24363D2*
X25002D1*
X4132Y25139D2*
X4725D1*
X5409D2*
X11275D1*
X13528D2*
X13912D1*
X15182D2*
X15546D1*
X15989D2*
X17490D1*
X17907D2*
X18287D1*
X18570D2*
X19177D1*
X19522D2*
X23725D1*
X24409D2*
X25002D1*
X4132Y25077D2*
X4694D1*
X5440D2*
X11275D1*
X13528D2*
X13912D1*
X15182D2*
X15546D1*
X15989D2*
X17478D1*
X17896D2*
X18269D1*
X18548D2*
X19130D1*
X19464D2*
X20870D1*
X24440D2*
X25002D1*
X4132Y25016D2*
X4676D1*
X5458D2*
X11275D1*
X13528D2*
X13912D1*
X15182D2*
X15546D1*
X15989D2*
X17471D1*
X17884D2*
X18252D1*
X18527D2*
X19090D1*
X19415D2*
X20608D1*
X24458D2*
X25002D1*
X4132Y24954D2*
X4668D1*
X5465D2*
X11275D1*
X13528D2*
X13952D1*
X15182D2*
X15546D1*
X15989D2*
X17465D1*
X17875D2*
X18235D1*
X18511D2*
X19050D1*
X19368D2*
X20444D1*
X24465D2*
X25002D1*
X4132Y24892D2*
X4671D1*
X5462D2*
X11275D1*
X13528D2*
X13912D1*
X15182D2*
X15546D1*
X15989D2*
X17458D1*
X17868D2*
X18221D1*
X18494D2*
X19011D1*
X19325D2*
X20314D1*
X24462D2*
X25002D1*
X4132Y24831D2*
X4683D1*
X5451D2*
X11275D1*
X13528D2*
X13912D1*
X15182D2*
X15546D1*
X15989D2*
X17453D1*
X17861D2*
X18209D1*
X18479D2*
X18979D1*
X19285D2*
X20200D1*
X20949D2*
X23683D1*
X24451D2*
X25002D1*
X4132Y24769D2*
X4706D1*
X5428D2*
X11275D1*
X13528D2*
X13912D1*
X15182D2*
X15546D1*
X15989D2*
X17450D1*
X17856D2*
X18196D1*
X18467D2*
X18948D1*
X19247D2*
X20105D1*
X20683D2*
X23706D1*
X24428D2*
X25002D1*
X4132Y24707D2*
X4743D1*
X5391D2*
X11275D1*
X12584D2*
X12633D1*
X13481D2*
X13912D1*
X14355D2*
X15546D1*
X15989D2*
X17448D1*
X17853D2*
X18185D1*
X18456D2*
X18916D1*
X19214D2*
X20019D1*
X20523D2*
X23743D1*
X24391D2*
X25002D1*
X4132Y24646D2*
X4798D1*
X5336D2*
X11275D1*
X13461D2*
X13912D1*
X14355D2*
X15546D1*
X15989D2*
X17445D1*
X17851D2*
X18178D1*
X18447D2*
X18891D1*
X19182D2*
X19943D1*
X20401D2*
X23798D1*
X24336D2*
X25002D1*
X4132Y24584D2*
X4890D1*
X5244D2*
X11275D1*
X13450D2*
X13912D1*
X14355D2*
X15546D1*
X15989D2*
X17445D1*
X17850D2*
X18170D1*
X18439D2*
X18865D1*
X19152D2*
X19873D1*
X20299D2*
X23890D1*
X24244D2*
X25002D1*
X4132Y24522D2*
X11275D1*
X13450D2*
X13912D1*
X15182D2*
X15546D1*
X15989D2*
X17445D1*
X17850D2*
X18163D1*
X18432D2*
X18841D1*
X19128D2*
X19811D1*
X20207D2*
X25002D1*
X4132Y24461D2*
X11275D1*
X13450D2*
X13912D1*
X15182D2*
X15546D1*
X15989D2*
X17445D1*
X17850D2*
X18161D1*
X18427D2*
X18821D1*
X19102D2*
X19750D1*
X20131D2*
X25002D1*
X4132Y24399D2*
X11275D1*
X13450D2*
X13912D1*
X15182D2*
X15546D1*
X15989D2*
X17445D1*
X17850D2*
X18158D1*
X18424D2*
X18802D1*
X19081D2*
X19701D1*
X20060D2*
X25002D1*
X4132Y24337D2*
X11275D1*
X13450D2*
X13912D1*
X15182D2*
X15546D1*
X15989D2*
X17445D1*
X17850D2*
X18155D1*
X18422D2*
X18784D1*
X19062D2*
X19651D1*
X19998D2*
X25002D1*
X4132Y24276D2*
X4862D1*
X5272D2*
X11294D1*
X11698D2*
X12613D1*
X13450D2*
X13864D1*
X15182D2*
X15546D1*
X15989D2*
X17445D1*
X17850D2*
X18154D1*
X18421D2*
X18769D1*
X19042D2*
X19605D1*
X19940D2*
X23862D1*
X24272D2*
X25002D1*
X4132Y24214D2*
X4783D1*
X5351D2*
X11294D1*
X11698D2*
X12653D1*
X13430D2*
X13810D1*
X15182D2*
X15546D1*
X15989D2*
X17445D1*
X17850D2*
X18154D1*
X18421D2*
X18756D1*
X19028D2*
X19566D1*
X19890D2*
X23783D1*
X24351D2*
X25002D1*
X4132Y24152D2*
X4732D1*
X5401D2*
X11294D1*
X11698D2*
X12653D1*
X13450D2*
X13756D1*
X15182D2*
X15546D1*
X15989D2*
X17445D1*
X17850D2*
X18154D1*
X18421D2*
X18742D1*
X19015D2*
X19526D1*
X19841D2*
X23732D1*
X24401D2*
X25002D1*
X4132Y24091D2*
X4700D1*
X5434D2*
X11196D1*
X11796D2*
X11983D1*
X12584D2*
X12653D1*
X13450D2*
X13703D1*
X14181D2*
X15546D1*
X15989D2*
X17445D1*
X17850D2*
X18154D1*
X18421D2*
X18732D1*
X19002D2*
X19492D1*
X19801D2*
X23700D1*
X24434D2*
X25002D1*
X4132Y24029D2*
X4679D1*
X5455D2*
X11196D1*
X11796D2*
X11983D1*
X12584D2*
X12653D1*
X13450D2*
X13649D1*
X14127D2*
X15546D1*
X15989D2*
X17445D1*
X17850D2*
X18154D1*
X18421D2*
X18725D1*
X18994D2*
X19461D1*
X19761D2*
X20996D1*
X24455D2*
X25002D1*
X4132Y23967D2*
X4669D1*
X5464D2*
X11196D1*
X11796D2*
X11983D1*
X12584D2*
X12653D1*
X13450D2*
X13596D1*
X14074D2*
X15546D1*
X15989D2*
X17445D1*
X17850D2*
X18154D1*
X18421D2*
X18718D1*
X18986D2*
X19429D1*
X19727D2*
X20783D1*
X24464D2*
X25002D1*
X4132Y23906D2*
X4669D1*
X5464D2*
X11196D1*
X11796D2*
X11983D1*
X12584D2*
X12653D1*
X13450D2*
X13541D1*
X14020D2*
X14385D1*
X15221D2*
X15546D1*
X15989D2*
X17445D1*
X17850D2*
X18154D1*
X18421D2*
X18712D1*
X18978D2*
X19405D1*
X19696D2*
X20641D1*
X24464D2*
X25002D1*
X4132Y23844D2*
X4679D1*
X5455D2*
X11196D1*
X11796D2*
X11983D1*
X12584D2*
X12653D1*
X13450D2*
X13487D1*
X13966D2*
X14385D1*
X15221D2*
X15546D1*
X15989D2*
X17445D1*
X17850D2*
X18154D1*
X18421D2*
X18710D1*
X18976D2*
X19381D1*
X19665D2*
X20526D1*
X24455D2*
X25002D1*
X4132Y23782D2*
X4700D1*
X5434D2*
X11196D1*
X11796D2*
X11983D1*
X12584D2*
X12653D1*
X13912D2*
X14385D1*
X15221D2*
X15546D1*
X15989D2*
X17445D1*
X17850D2*
X18154D1*
X18421D2*
X18708D1*
X18974D2*
X19357D1*
X19642D2*
X20435D1*
X21071D2*
X23700D1*
X24434D2*
X25002D1*
X4132Y23720D2*
X4733D1*
X5400D2*
X11196D1*
X11796D2*
X11983D1*
X12609D2*
X12652D1*
X13859D2*
X14385D1*
X15221D2*
X15546D1*
X15989D2*
X17445D1*
X17850D2*
X18154D1*
X18421D2*
X18705D1*
X18972D2*
X19339D1*
X19618D2*
X20352D1*
X20858D2*
X23733D1*
X24400D2*
X25002D1*
X4132Y23659D2*
X4785D1*
X5349D2*
X11196D1*
X11796D2*
X11983D1*
X13805D2*
X14385D1*
X15221D2*
X15546D1*
X15989D2*
X17445D1*
X17850D2*
X18154D1*
X18421D2*
X18705D1*
X18972D2*
X19322D1*
X19597D2*
X20285D1*
X20728D2*
X23785D1*
X24349D2*
X25002D1*
X4132Y23597D2*
X4865D1*
X5269D2*
X11196D1*
X11796D2*
X11983D1*
X13751D2*
X14385D1*
X15221D2*
X15546D1*
X15989D2*
X17445D1*
X17850D2*
X18154D1*
X18421D2*
X18705D1*
X18972D2*
X19305D1*
X19582D2*
X20220D1*
X20627D2*
X23865D1*
X24269D2*
X25002D1*
X4132Y23535D2*
X11196D1*
X11796D2*
X11983D1*
X13694D2*
X14385D1*
X15221D2*
X15546D1*
X15989D2*
X17445D1*
X17850D2*
X18154D1*
X18421D2*
X18705D1*
X18972D2*
X19293D1*
X19565D2*
X20166D1*
X20539D2*
X25002D1*
X4132Y23474D2*
X11196D1*
X11796D2*
X11983D1*
X13606D2*
X14385D1*
X15985D2*
X17445D1*
X17850D2*
X18154D1*
X18421D2*
X18705D1*
X18972D2*
X19284D1*
X19553D2*
X20114D1*
X20471D2*
X25002D1*
X4132Y23412D2*
X7790D1*
X8627D2*
X12456D1*
X13450D2*
X14385D1*
X15972D2*
X17445D1*
X17850D2*
X18154D1*
X18421D2*
X18705D1*
X18972D2*
X19274D1*
X19543D2*
X20072D1*
X20408D2*
X25002D1*
X4132Y23350D2*
X7790D1*
X8627D2*
X10743D1*
X11580D2*
X12456D1*
X13199D2*
X14385D1*
X15952D2*
X17445D1*
X17850D2*
X18154D1*
X18421D2*
X18705D1*
X18972D2*
X19266D1*
X19533D2*
X20032D1*
X20355D2*
X25002D1*
X4132Y23289D2*
X4887D1*
X5247D2*
X5887D1*
X6247D2*
X6887D1*
X7247D2*
X7790D1*
X8627D2*
X10743D1*
X11580D2*
X12259D1*
X13371D2*
X14385D1*
X15920D2*
X17445D1*
X17850D2*
X18154D1*
X18421D2*
X18705D1*
X18972D2*
X19263D1*
X19529D2*
X19992D1*
X20307D2*
X20887D1*
X21247D2*
X21887D1*
X22247D2*
X25002D1*
X4132Y23227D2*
X4796D1*
X5337D2*
X5796D1*
X6337D2*
X6796D1*
X7337D2*
X7790D1*
X8627D2*
X10743D1*
X11580D2*
X11716D1*
X13371D2*
X14385D1*
X15876D2*
X17445D1*
X17850D2*
X18154D1*
X18421D2*
X18705D1*
X18972D2*
X19259D1*
X19526D2*
X19964D1*
X20268D2*
X20796D1*
X21337D2*
X21796D1*
X22337D2*
X25002D1*
X4132Y23165D2*
X4742D1*
X5392D2*
X5742D1*
X6392D2*
X6742D1*
X7392D2*
X7790D1*
X8627D2*
X10743D1*
X11580D2*
X11641D1*
X13371D2*
X14385D1*
X15816D2*
X17445D1*
X17850D2*
X18154D1*
X18421D2*
X18705D1*
X18972D2*
X19256D1*
X19524D2*
X19935D1*
X20227D2*
X20742D1*
X21392D2*
X21742D1*
X22392D2*
X25002D1*
X4132Y23104D2*
X4706D1*
X5428D2*
X5706D1*
X6428D2*
X6706D1*
X7428D2*
X7790D1*
X8627D2*
X10743D1*
X13371D2*
X14385D1*
X15721D2*
X17445D1*
X17850D2*
X18154D1*
X18421D2*
X18705D1*
X18972D2*
X19256D1*
X19524D2*
X19907D1*
X20199D2*
X20706D1*
X21428D2*
X21706D1*
X22428D2*
X25002D1*
X4132Y23042D2*
X4683D1*
X5451D2*
X5683D1*
X6451D2*
X6683D1*
X8627D2*
X10743D1*
X13371D2*
X13952D1*
X15694D2*
X17445D1*
X17850D2*
X18154D1*
X18421D2*
X18705D1*
X18972D2*
X19256D1*
X19524D2*
X19887D1*
X20170D2*
X20683D1*
X21451D2*
X21683D1*
X22451D2*
X25002D1*
X4132Y22980D2*
X4671D1*
X5462D2*
X5671D1*
X6462D2*
X6671D1*
X8627D2*
X10743D1*
X13430D2*
X13952D1*
X15694D2*
X17445D1*
X17850D2*
X18154D1*
X18421D2*
X18705D1*
X18972D2*
X19256D1*
X19524D2*
X19868D1*
X20147D2*
X20671D1*
X21462D2*
X21671D1*
X22462D2*
X25002D1*
X4132Y22919D2*
X4669D1*
X5464D2*
X5669D1*
X6464D2*
X6669D1*
X8627D2*
X10743D1*
X15694D2*
X17445D1*
X17850D2*
X18154D1*
X18421D2*
X18705D1*
X18972D2*
X19256D1*
X19524D2*
X19849D1*
X20128D2*
X20669D1*
X21464D2*
X21669D1*
X22464D2*
X25002D1*
X4132Y22857D2*
X4676D1*
X5458D2*
X5676D1*
X6458D2*
X6676D1*
X8627D2*
X10743D1*
X15694D2*
X17445D1*
X17850D2*
X18154D1*
X18421D2*
X18705D1*
X18972D2*
X19256D1*
X19524D2*
X19838D1*
X20108D2*
X20676D1*
X21458D2*
X21676D1*
X22458D2*
X25002D1*
X4132Y22795D2*
X4695D1*
X5439D2*
X5695D1*
X6439D2*
X6695D1*
X8627D2*
X10743D1*
X15694D2*
X17445D1*
X17850D2*
X18154D1*
X18421D2*
X18705D1*
X18972D2*
X19256D1*
X19524D2*
X19828D1*
X20097D2*
X20695D1*
X21439D2*
X21695D1*
X22439D2*
X25002D1*
X4132Y22734D2*
X4725D1*
X5408D2*
X5725D1*
X6408D2*
X6725D1*
X7408D2*
X7669D1*
X8627D2*
X10743D1*
X15694D2*
X17445D1*
X17850D2*
X18154D1*
X18421D2*
X18705D1*
X18972D2*
X19256D1*
X19524D2*
X19817D1*
X20087D2*
X20725D1*
X21408D2*
X21725D1*
X22408D2*
X25002D1*
X4132Y22672D2*
X4772D1*
X5362D2*
X5772D1*
X6362D2*
X6772D1*
X7362D2*
X7731D1*
X8627D2*
X10743D1*
X15694D2*
X17445D1*
X17850D2*
X18154D1*
X18421D2*
X18705D1*
X18972D2*
X19256D1*
X19524D2*
X19813D1*
X20080D2*
X20772D1*
X21362D2*
X21772D1*
X22362D2*
X25002D1*
X4132Y22610D2*
X4844D1*
X5290D2*
X5844D1*
X6290D2*
X6844D1*
X7290D2*
X7790D1*
X8627D2*
X10743D1*
X15694D2*
X17445D1*
X17850D2*
X18154D1*
X18421D2*
X18705D1*
X18972D2*
X19256D1*
X19524D2*
X19810D1*
X20078D2*
X20844D1*
X21290D2*
X21844D1*
X22290D2*
X25002D1*
X4132Y22549D2*
X5007D1*
X5127D2*
X6007D1*
X6127D2*
X7007D1*
X7127D2*
X7790D1*
X8627D2*
X10743D1*
X15694D2*
X17445D1*
X17850D2*
X18154D1*
X18421D2*
X18705D1*
X18972D2*
X19256D1*
X19524D2*
X19808D1*
X20076D2*
X21007D1*
X21127D2*
X22007D1*
X22127D2*
X25002D1*
X4132Y22487D2*
X11159D1*
X15694D2*
X17445D1*
X17850D2*
X18154D1*
X18421D2*
X18705D1*
X18972D2*
X19256D1*
X19524D2*
X19807D1*
X20075D2*
X25002D1*
X4132Y22425D2*
X7790D1*
X8627D2*
X10743D1*
X15694D2*
X17445D1*
X17850D2*
X18154D1*
X18421D2*
X18705D1*
X18972D2*
X19256D1*
X19524D2*
X19807D1*
X20075D2*
X25002D1*
X4132Y22364D2*
X7758D1*
X8627D2*
X10743D1*
X15694D2*
X17445D1*
X17850D2*
X18154D1*
X18421D2*
X18705D1*
X18972D2*
X19256D1*
X19524D2*
X19807D1*
X20075D2*
X25002D1*
X4132Y22302D2*
X4916D1*
X5217D2*
X5916D1*
X6217D2*
X6916D1*
X7217D2*
X7685D1*
X8627D2*
X10743D1*
X14395D2*
X15251D1*
X15694D2*
X17445D1*
X17850D2*
X18154D1*
X18421D2*
X18705D1*
X18972D2*
X19256D1*
X19524D2*
X19807D1*
X20075D2*
X20916D1*
X21217D2*
X21916D1*
X22217D2*
X23916D1*
X24217D2*
X25002D1*
X4132Y22240D2*
X4812D1*
X5322D2*
X5812D1*
X6322D2*
X6812D1*
X7322D2*
X7623D1*
X8627D2*
X10743D1*
X14788D2*
X15251D1*
X15694D2*
X17445D1*
X17850D2*
X18154D1*
X18421D2*
X18705D1*
X18972D2*
X19256D1*
X19524D2*
X19807D1*
X20075D2*
X20812D1*
X21322D2*
X21812D1*
X22322D2*
X23812D1*
X24322D2*
X25002D1*
X4132Y22178D2*
X4752D1*
X5382D2*
X5752D1*
X6382D2*
X6752D1*
X7382D2*
X7562D1*
X8627D2*
X10743D1*
X14788D2*
X15251D1*
X15694D2*
X17445D1*
X17850D2*
X18154D1*
X18421D2*
X18705D1*
X18972D2*
X19256D1*
X19524D2*
X19807D1*
X20075D2*
X20752D1*
X21382D2*
X21752D1*
X22382D2*
X23752D1*
X24382D2*
X25002D1*
X4132Y22117D2*
X4712D1*
X5422D2*
X5712D1*
X6422D2*
X6712D1*
X7422D2*
X7500D1*
X8627D2*
X10743D1*
X14788D2*
X15251D1*
X15694D2*
X17445D1*
X17850D2*
X18154D1*
X18421D2*
X18705D1*
X18972D2*
X19256D1*
X19524D2*
X19807D1*
X20075D2*
X20712D1*
X21422D2*
X21712D1*
X22422D2*
X23712D1*
X24422D2*
X25002D1*
X4132Y22055D2*
X4687D1*
X5447D2*
X5687D1*
X6447D2*
X6687D1*
X8627D2*
X10743D1*
X14788D2*
X15251D1*
X15694D2*
X17445D1*
X17850D2*
X18154D1*
X18421D2*
X18705D1*
X18972D2*
X19256D1*
X19524D2*
X19807D1*
X20075D2*
X20687D1*
X21447D2*
X21687D1*
X22447D2*
X23687D1*
X24447D2*
X25002D1*
X4132Y21993D2*
X4672D1*
X5462D2*
X5672D1*
X6462D2*
X6672D1*
X7831D2*
X8243D1*
X8568D2*
X10743D1*
X14788D2*
X15251D1*
X15694D2*
X17445D1*
X17850D2*
X18154D1*
X18421D2*
X18705D1*
X18972D2*
X19256D1*
X19524D2*
X19807D1*
X20075D2*
X20672D1*
X21462D2*
X21672D1*
X22462D2*
X23672D1*
X24462D2*
X25002D1*
X4132Y21932D2*
X4668D1*
X5465D2*
X5668D1*
X6465D2*
X6668D1*
X8627D2*
X10743D1*
X14788D2*
X15251D1*
X15694D2*
X17445D1*
X17850D2*
X18154D1*
X18421D2*
X18705D1*
X18972D2*
X19256D1*
X19524D2*
X19807D1*
X20075D2*
X20668D1*
X21465D2*
X21668D1*
X22465D2*
X23668D1*
X24465D2*
X25002D1*
X4132Y21870D2*
X4674D1*
X5460D2*
X5674D1*
X6460D2*
X6674D1*
X7708D2*
X7790D1*
X8627D2*
X10743D1*
X14788D2*
X15251D1*
X15694D2*
X17445D1*
X17850D2*
X18154D1*
X18421D2*
X18705D1*
X18972D2*
X19256D1*
X19524D2*
X19807D1*
X20075D2*
X20674D1*
X21460D2*
X21674D1*
X22460D2*
X23674D1*
X24460D2*
X25002D1*
X4132Y21808D2*
X4690D1*
X5444D2*
X5690D1*
X6444D2*
X6690D1*
X7645D2*
X7790D1*
X8627D2*
X10743D1*
X14598D2*
X17330D1*
X17850D2*
X18154D1*
X18421D2*
X18705D1*
X18972D2*
X19256D1*
X19524D2*
X19807D1*
X20075D2*
X20690D1*
X21444D2*
X21690D1*
X22444D2*
X23690D1*
X24444D2*
X25002D1*
X4132Y21747D2*
X4718D1*
X5416D2*
X5718D1*
X6416D2*
X6718D1*
X7416D2*
X7790D1*
X8627D2*
X10743D1*
X14956D2*
X17273D1*
X17885D2*
X18154D1*
X18421D2*
X18705D1*
X18972D2*
X19256D1*
X19524D2*
X19807D1*
X20075D2*
X20718D1*
X21416D2*
X21718D1*
X22416D2*
X23718D1*
X24416D2*
X25002D1*
X4132Y21685D2*
X4760D1*
X5374D2*
X5760D1*
X6374D2*
X6760D1*
X7374D2*
X7790D1*
X8627D2*
X10743D1*
X14956D2*
X17250D1*
X17907D2*
X18154D1*
X18421D2*
X18705D1*
X18972D2*
X19256D1*
X19524D2*
X19807D1*
X20075D2*
X20760D1*
X21374D2*
X21760D1*
X22374D2*
X23760D1*
X24374D2*
X25002D1*
X4132Y21623D2*
X4825D1*
X5309D2*
X5825D1*
X6309D2*
X6825D1*
X7309D2*
X7790D1*
X8627D2*
X9661D1*
X10497D2*
X11461D1*
X14956D2*
X17250D1*
X17907D2*
X18154D1*
X18421D2*
X18705D1*
X18972D2*
X19256D1*
X19524D2*
X19807D1*
X20075D2*
X20825D1*
X21309D2*
X21825D1*
X22309D2*
X23825D1*
X24309D2*
X25002D1*
X4132Y21562D2*
X4947D1*
X5187D2*
X5947D1*
X6187D2*
X6947D1*
X7187D2*
X7790D1*
X8627D2*
X9661D1*
X10653D2*
X11461D1*
X15930D2*
X17272D1*
X17886D2*
X18154D1*
X18421D2*
X18705D1*
X18972D2*
X19256D1*
X19524D2*
X19807D1*
X20075D2*
X20947D1*
X21187D2*
X21947D1*
X22187D2*
X23947D1*
X24187D2*
X25002D1*
X4132Y21500D2*
X9661D1*
X10693D2*
X11461D1*
X15930D2*
X17328D1*
X17554D2*
X17603D1*
X17830D2*
X18154D1*
X18421D2*
X18705D1*
X18972D2*
X19256D1*
X19524D2*
X19807D1*
X20075D2*
X25002D1*
X4132Y21438D2*
X9661D1*
X10705D2*
X11461D1*
X15930D2*
X18154D1*
X18421D2*
X18705D1*
X18972D2*
X19256D1*
X19524D2*
X19807D1*
X20075D2*
X25002D1*
X4132Y21377D2*
X9661D1*
X10697D2*
X11461D1*
X15930D2*
X18154D1*
X18421D2*
X18705D1*
X18972D2*
X19256D1*
X19524D2*
X19807D1*
X20075D2*
X25002D1*
X4132Y21315D2*
X9661D1*
X10663D2*
X10839D1*
X11090D2*
X11461D1*
X15930D2*
X18152D1*
X18419D2*
X18704D1*
X18970D2*
X19255D1*
X19522D2*
X19807D1*
X20074D2*
X20956D1*
X21178D2*
X21956D1*
X22178D2*
X23956D1*
X24178D2*
X25002D1*
X4132Y21253D2*
X9661D1*
X10570D2*
X10790D1*
X11139D2*
X11421D1*
X15930D2*
X18147D1*
X18414D2*
X18700D1*
X18966D2*
X19251D1*
X19519D2*
X19803D1*
X20071D2*
X20829D1*
X21305D2*
X21829D1*
X22305D2*
X23829D1*
X24305D2*
X25002D1*
X4132Y21192D2*
X9661D1*
X10497D2*
X10773D1*
X15930D2*
X18134D1*
X18406D2*
X18690D1*
X18962D2*
X19245D1*
X19515D2*
X19800D1*
X20067D2*
X20762D1*
X21372D2*
X21762D1*
X22372D2*
X23762D1*
X24372D2*
X25002D1*
X4132Y21130D2*
X9661D1*
X10656D2*
X10776D1*
X15930D2*
X18115D1*
X18393D2*
X18677D1*
X18949D2*
X19233D1*
X19504D2*
X19789D1*
X20061D2*
X20720D1*
X21414D2*
X21720D1*
X22414D2*
X23720D1*
X24414D2*
X25002D1*
X4132Y21068D2*
X9661D1*
X10694D2*
X10802D1*
X15930D2*
X18091D1*
X18376D2*
X18657D1*
X18937D2*
X19218D1*
X19493D2*
X19778D1*
X20049D2*
X20691D1*
X21443D2*
X21691D1*
X22443D2*
X23691D1*
X24443D2*
X25002D1*
X4132Y21007D2*
X9661D1*
X10705D2*
X10869D1*
X15930D2*
X18059D1*
X18354D2*
X18631D1*
X18916D2*
X19197D1*
X19477D2*
X19761D1*
X20037D2*
X20674D1*
X21460D2*
X21674D1*
X22460D2*
X23674D1*
X24460D2*
X25002D1*
X4132Y20945D2*
X9661D1*
X10696D2*
X10960D1*
X15930D2*
X18018D1*
X18326D2*
X18600D1*
X18896D2*
X19171D1*
X19457D2*
X19740D1*
X20021D2*
X20668D1*
X21465D2*
X21668D1*
X22465D2*
X23668D1*
X24465D2*
X25002D1*
X4132Y20883D2*
X9661D1*
X14087D2*
X14286D1*
X15930D2*
X17965D1*
X18294D2*
X18561D1*
X18866D2*
X19142D1*
X19436D2*
X19715D1*
X20000D2*
X20672D1*
X21462D2*
X21672D1*
X22462D2*
X23672D1*
X24462D2*
X25002D1*
X4132Y20822D2*
X9661D1*
X10559D2*
X10616D1*
X14148D2*
X14347D1*
X15930D2*
X17897D1*
X18253D2*
X18513D1*
X18836D2*
X19103D1*
X19406D2*
X19685D1*
X19979D2*
X20686D1*
X21448D2*
X21686D1*
X22448D2*
X23686D1*
X24448D2*
X25002D1*
X4132Y20760D2*
X10554D1*
X14210D2*
X14412D1*
X15036D2*
X17800D1*
X18207D2*
X18455D1*
X18796D2*
X19060D1*
X19377D2*
X19649D1*
X19950D2*
X20711D1*
X21423D2*
X21711D1*
X22423D2*
X23711D1*
X24423D2*
X25002D1*
X4132Y20698D2*
X4908D1*
X5226D2*
X9001D1*
X14272D2*
X17640D1*
X18152D2*
X18382D1*
X18755D2*
X19007D1*
X19338D2*
X19608D1*
X19920D2*
X20749D1*
X21385D2*
X21749D1*
X22385D2*
X23749D1*
X24385D2*
X25002D1*
X4132Y20636D2*
X4807D1*
X5327D2*
X8935D1*
X18084D2*
X18284D1*
X18701D2*
X18943D1*
X19298D2*
X19559D1*
X19885D2*
X20809D1*
X21325D2*
X21809D1*
X22325D2*
X23809D1*
X24325D2*
X25002D1*
X4132Y20575D2*
X4749D1*
X5385D2*
X8873D1*
X17999D2*
X18135D1*
X18642D2*
X18865D1*
X19249D2*
X19505D1*
X19844D2*
X20911D1*
X21223D2*
X21911D1*
X22223D2*
X23911D1*
X24223D2*
X25002D1*
X4132Y20513D2*
X4711D1*
X5423D2*
X8811D1*
X18572D2*
X18766D1*
X19196D2*
X19436D1*
X19801D2*
X25002D1*
X4132Y20451D2*
X4685D1*
X5449D2*
X8750D1*
X18483D2*
X18621D1*
X19130D2*
X19354D1*
X19748D2*
X25002D1*
X4132Y20390D2*
X4672D1*
X5462D2*
X8688D1*
X19057D2*
X19254D1*
X19692D2*
X25002D1*
X4132Y20328D2*
X4668D1*
X5520D2*
X6032D1*
X6102D2*
X8626D1*
X18967D2*
X19114D1*
X19623D2*
X21032D1*
X21102D2*
X22032D1*
X22102D2*
X24032D1*
X24102D2*
X25002D1*
X4132Y20266D2*
X4675D1*
X5673D2*
X5848D1*
X6286D2*
X8565D1*
X19547D2*
X20848D1*
X21286D2*
X21848D1*
X22286D2*
X23848D1*
X24286D2*
X25002D1*
X4132Y20205D2*
X4691D1*
X6360D2*
X8503D1*
X19457D2*
X20774D1*
X21360D2*
X21774D1*
X22360D2*
X23774D1*
X24360D2*
X25002D1*
X4132Y20143D2*
X4720D1*
X6407D2*
X8441D1*
X19341D2*
X20726D1*
X21407D2*
X21726D1*
X22407D2*
X23726D1*
X24407D2*
X25002D1*
X4132Y20081D2*
X4763D1*
X6438D2*
X8380D1*
X19191D2*
X20696D1*
X21438D2*
X21696D1*
X22438D2*
X23696D1*
X24438D2*
X25002D1*
X4132Y20020D2*
X4830D1*
X5304D2*
X5438D1*
X6457D2*
X8318D1*
X9336D2*
X10067D1*
X18910D2*
X20677D1*
X21457D2*
X21677D1*
X22457D2*
X23677D1*
X24457D2*
X25002D1*
X4132Y19958D2*
X4960D1*
X5174D2*
X5592D1*
X6464D2*
X8256D1*
X9274D2*
X9733D1*
X15753D2*
X16019D1*
X16501D2*
X20669D1*
X21464D2*
X21669D1*
X22464D2*
X23669D1*
X24464D2*
X25002D1*
X4132Y19896D2*
X5670D1*
X6463D2*
X8195D1*
X9212D2*
X9671D1*
X15753D2*
X16019D1*
X16501D2*
X20670D1*
X21463D2*
X21670D1*
X22463D2*
X23670D1*
X24463D2*
X25002D1*
X4132Y19835D2*
X5682D1*
X6452D2*
X8133D1*
X9150D2*
X9609D1*
X15753D2*
X16019D1*
X16501D2*
X20682D1*
X21452D2*
X21682D1*
X22452D2*
X23682D1*
X24452D2*
X25002D1*
X4132Y19773D2*
X5705D1*
X6429D2*
X8071D1*
X9088D2*
X9547D1*
X15758D2*
X16019D1*
X16501D2*
X20705D1*
X21429D2*
X21705D1*
X22429D2*
X23705D1*
X24429D2*
X25002D1*
X4132Y19711D2*
X4944D1*
X5190D2*
X5740D1*
X6394D2*
X8010D1*
X9027D2*
X9486D1*
X15853D2*
X16019D1*
X16501D2*
X20740D1*
X21394D2*
X21740D1*
X22394D2*
X23740D1*
X24394D2*
X25002D1*
X4132Y19650D2*
X4824D1*
X5310D2*
X5793D1*
X6340D2*
X7948D1*
X8965D2*
X9424D1*
X15887D2*
X16019D1*
X16501D2*
X20793D1*
X21340D2*
X21793D1*
X22340D2*
X23793D1*
X24340D2*
X25002D1*
X4132Y19588D2*
X4759D1*
X5375D2*
X5882D1*
X6252D2*
X7886D1*
X8903D2*
X9362D1*
X15918D2*
X16019D1*
X16501D2*
X20882D1*
X21252D2*
X21882D1*
X22252D2*
X23882D1*
X24252D2*
X25002D1*
X4132Y19526D2*
X4718D1*
X5416D2*
X7825D1*
X8842D2*
X9301D1*
X15930D2*
X16019D1*
X16501D2*
X25002D1*
X4132Y19465D2*
X4690D1*
X5444D2*
X7763D1*
X8780D2*
X9239D1*
X16501D2*
X25002D1*
X4132Y19403D2*
X4674D1*
X5460D2*
X7701D1*
X8718D2*
X9177D1*
X9962D2*
X10319D1*
X16501D2*
X25002D1*
X4132Y19341D2*
X4668D1*
X5465D2*
X7640D1*
X8657D2*
X9116D1*
X9901D2*
X10258D1*
X16501D2*
X25002D1*
X4132Y19280D2*
X4672D1*
X5614D2*
X5869D1*
X6265D2*
X7578D1*
X8595D2*
X9054D1*
X9839D2*
X10196D1*
X16501D2*
X20869D1*
X21265D2*
X21869D1*
X22265D2*
X23869D1*
X24265D2*
X25002D1*
X4132Y19218D2*
X4687D1*
X6347D2*
X7516D1*
X8533D2*
X8992D1*
X9777D2*
X10134D1*
X18980D2*
X20787D1*
X21347D2*
X21787D1*
X22347D2*
X23787D1*
X24347D2*
X25002D1*
X4132Y19156D2*
X4713D1*
X6399D2*
X7455D1*
X8472D2*
X8931D1*
X9716D2*
X10073D1*
X15025D2*
X15074D1*
X19041D2*
X20735D1*
X21399D2*
X21735D1*
X22399D2*
X23735D1*
X24399D2*
X25002D1*
X4132Y19094D2*
X4752D1*
X6432D2*
X7393D1*
X8410D2*
X8869D1*
X9654D2*
X10011D1*
X15025D2*
X15074D1*
X15989D2*
X16126D1*
X19103D2*
X20702D1*
X21432D2*
X21702D1*
X22432D2*
X23702D1*
X24432D2*
X25002D1*
X4132Y19033D2*
X4813D1*
X5321D2*
X5374D1*
X6454D2*
X7331D1*
X8348D2*
X8807D1*
X9592D2*
X9949D1*
X10518D2*
X10599D1*
X15025D2*
X15074D1*
X19165D2*
X20680D1*
X21454D2*
X21680D1*
X22454D2*
X23680D1*
X24454D2*
X25002D1*
X4132Y18971D2*
X4919D1*
X5214D2*
X5536D1*
X6463D2*
X7270D1*
X8287D2*
X8769D1*
X9531D2*
X9888D1*
X10457D2*
X10537D1*
X15025D2*
X15074D1*
X16580D2*
X17633D1*
X18194D2*
X18854D1*
X19226D2*
X20670D1*
X21463D2*
X21670D1*
X22463D2*
X23670D1*
X24463D2*
X25002D1*
X4132Y18909D2*
X5669D1*
X6464D2*
X7208D1*
X8225D2*
X8764D1*
X9469D2*
X9826D1*
X10395D2*
X10501D1*
X15025D2*
X15074D1*
X16580D2*
X17633D1*
X18194D2*
X18916D1*
X19288D2*
X20669D1*
X21464D2*
X21669D1*
X22464D2*
X23669D1*
X24464D2*
X25002D1*
X4132Y18848D2*
X5679D1*
X6455D2*
X7146D1*
X8163D2*
X8764D1*
X9407D2*
X9778D1*
X10333D2*
X10496D1*
X15025D2*
X15074D1*
X16580D2*
X17633D1*
X18194D2*
X18978D1*
X19350D2*
X20679D1*
X21455D2*
X21679D1*
X22455D2*
X23679D1*
X24455D2*
X25002D1*
X4132Y18786D2*
X5699D1*
X6435D2*
X7085D1*
X8102D2*
X8764D1*
X9346D2*
X9768D1*
X10272D2*
X10496D1*
X14169D2*
X15074D1*
X16580D2*
X17633D1*
X18194D2*
X19039D1*
X19411D2*
X20699D1*
X21435D2*
X21699D1*
X22435D2*
X23699D1*
X24435D2*
X25002D1*
X4132Y18724D2*
X5000D1*
X5134D2*
X5731D1*
X6402D2*
X7023D1*
X8040D2*
X8764D1*
X9307D2*
X9768D1*
X10210D2*
X10496D1*
X14169D2*
X15074D1*
X16580D2*
X17633D1*
X18194D2*
X19101D1*
X19473D2*
X20731D1*
X21402D2*
X21731D1*
X22402D2*
X23731D1*
X24402D2*
X25002D1*
X4132Y18663D2*
X4843D1*
X5291D2*
X5781D1*
X6353D2*
X6961D1*
X7978D2*
X8764D1*
X9307D2*
X9768D1*
X10173D2*
X10496D1*
X14169D2*
X15634D1*
X15901D2*
X16019D1*
X16580D2*
X17633D1*
X18194D2*
X19163D1*
X19535D2*
X20781D1*
X21353D2*
X21781D1*
X22353D2*
X23781D1*
X24353D2*
X25002D1*
X4132Y18601D2*
X4771D1*
X5363D2*
X5858D1*
X6275D2*
X6900D1*
X7917D2*
X8764D1*
X9307D2*
X9768D1*
X10173D2*
X10496D1*
X14169D2*
X15546D1*
X16580D2*
X17633D1*
X18194D2*
X19225D1*
X19596D2*
X20858D1*
X21275D2*
X21858D1*
X22275D2*
X23858D1*
X24275D2*
X25002D1*
X4132Y18539D2*
X4725D1*
X5409D2*
X6838D1*
X7855D2*
X8764D1*
X9307D2*
X9768D1*
X10173D2*
X10496D1*
X14206D2*
X15546D1*
X16580D2*
X17633D1*
X18194D2*
X19287D1*
X19658D2*
X25002D1*
X4132Y18478D2*
X4695D1*
X5439D2*
X6776D1*
X7793D2*
X8764D1*
X9307D2*
X9768D1*
X10173D2*
X10496D1*
X15025D2*
X15546D1*
X15989D2*
X19349D1*
X19720D2*
X25002D1*
X4132Y18416D2*
X4676D1*
X5458D2*
X6715D1*
X7732D2*
X8764D1*
X9307D2*
X9768D1*
X10173D2*
X10496D1*
X13649D2*
X13686D1*
X15025D2*
X15546D1*
X16580D2*
X17633D1*
X18194D2*
X19410D1*
X19781D2*
X25002D1*
X4132Y18354D2*
X4668D1*
X5465D2*
X6653D1*
X7670D2*
X8764D1*
X9307D2*
X9768D1*
X10173D2*
X10496D1*
X13953D2*
X14019D1*
X15025D2*
X15546D1*
X16580D2*
X17633D1*
X18194D2*
X19472D1*
X19843D2*
X25002D1*
X4132Y18293D2*
X4671D1*
X5587D2*
X5896D1*
X6238D2*
X6591D1*
X7608D2*
X8764D1*
X9307D2*
X9768D1*
X10173D2*
X10496D1*
X13647D2*
X13686D1*
X13953D2*
X14070D1*
X15025D2*
X15546D1*
X16580D2*
X17633D1*
X18194D2*
X19534D1*
X19905D2*
X20896D1*
X21238D2*
X21896D1*
X22238D2*
X23896D1*
X24238D2*
X25002D1*
X4132Y18231D2*
X4683D1*
X5746D2*
X5801D1*
X7547D2*
X8764D1*
X9307D2*
X9768D1*
X10173D2*
X10496D1*
X13610D2*
X13685D1*
X13953D2*
X14070D1*
X15025D2*
X15546D1*
X16580D2*
X17633D1*
X18194D2*
X19595D1*
X19966D2*
X20801D1*
X21333D2*
X21801D1*
X22333D2*
X23801D1*
X24333D2*
X25002D1*
X4132Y18169D2*
X4706D1*
X7485D2*
X8764D1*
X9307D2*
X9768D1*
X10173D2*
X10496D1*
X13450D2*
X13685D1*
X13953D2*
X14070D1*
X15025D2*
X15546D1*
X16580D2*
X17633D1*
X18194D2*
X19657D1*
X20028D2*
X20744D1*
X21390D2*
X21744D1*
X22390D2*
X23007D1*
X24390D2*
X25002D1*
X4132Y18108D2*
X4742D1*
X7423D2*
X8764D1*
X9307D2*
X9768D1*
X10173D2*
X10496D1*
X13053D2*
X13669D1*
X13953D2*
X14070D1*
X15025D2*
X15546D1*
X16580D2*
X17633D1*
X18194D2*
X19719D1*
X20090D2*
X20708D1*
X21426D2*
X21708D1*
X22426D2*
X22942D1*
X24426D2*
X25002D1*
X4132Y18046D2*
X4798D1*
X7362D2*
X8764D1*
X9307D2*
X9768D1*
X10173D2*
X10496D1*
X13082D2*
X13608D1*
X13950D2*
X14070D1*
X15025D2*
X15546D1*
X16580D2*
X16668D1*
X17544D2*
X17633D1*
X18194D2*
X19780D1*
X20151D2*
X20684D1*
X21450D2*
X21684D1*
X22450D2*
X22880D1*
X24450D2*
X25002D1*
X4132Y17984D2*
X4889D1*
X5245D2*
X5507D1*
X7300D2*
X8764D1*
X9307D2*
X9768D1*
X10173D2*
X10496D1*
X13087D2*
X13159D1*
X13918D2*
X14070D1*
X15025D2*
X15546D1*
X16580D2*
X16668D1*
X17544D2*
X17633D1*
X18194D2*
X19842D1*
X20213D2*
X20671D1*
X21462D2*
X21671D1*
X22462D2*
X22818D1*
X24462D2*
X25002D1*
X4132Y17923D2*
X5666D1*
X7238D2*
X8764D1*
X9307D2*
X9768D1*
X10173D2*
X10496D1*
X11688D2*
X11729D1*
X12634D2*
X12718D1*
X13856D2*
X14070D1*
X15025D2*
X15546D1*
X16580D2*
X16668D1*
X17544D2*
X17633D1*
X18194D2*
X19904D1*
X20275D2*
X20668D1*
X21465D2*
X21668D1*
X22465D2*
X22757D1*
X24465D2*
X25002D1*
X4132Y17861D2*
X5676D1*
X7177D2*
X8764D1*
X9307D2*
X9768D1*
X10173D2*
X10496D1*
X11650D2*
X11770D1*
X12634D2*
X12762D1*
X13795D2*
X14070D1*
X15025D2*
X15546D1*
X16580D2*
X16668D1*
X17544D2*
X17633D1*
X18194D2*
X19965D1*
X20337D2*
X20676D1*
X21458D2*
X21676D1*
X22458D2*
X22695D1*
X24458D2*
X25002D1*
X4132Y17799D2*
X5693D1*
X7115D2*
X8764D1*
X9307D2*
X9768D1*
X10173D2*
X10496D1*
X11650D2*
X11973D1*
X12634D2*
X13017D1*
X13733D2*
X14731D1*
X15016D2*
X16668D1*
X17544D2*
X20027D1*
X20399D2*
X20693D1*
X21441D2*
X21693D1*
X22441D2*
X22633D1*
X24441D2*
X25002D1*
X4132Y17738D2*
X5723D1*
X6411D2*
X6469D1*
X7053D2*
X8764D1*
X9307D2*
X9768D1*
X10173D2*
X10496D1*
X11650D2*
X11973D1*
X12634D2*
X13016D1*
X13283D2*
X13401D1*
X15989D2*
X16668D1*
X17544D2*
X20089D1*
X20461D2*
X20723D1*
X21411D2*
X21723D1*
X22411D2*
X22575D1*
X24411D2*
X25002D1*
X4132Y17676D2*
X4863D1*
X5271D2*
X5768D1*
X6366D2*
X6408D1*
X6992D2*
X8764D1*
X9307D2*
X9768D1*
X10173D2*
X10496D1*
X11650D2*
X11973D1*
X12634D2*
X13016D1*
X13283D2*
X13401D1*
X16580D2*
X16668D1*
X17544D2*
X17633D1*
X18194D2*
X20150D1*
X20522D2*
X20768D1*
X21366D2*
X21768D1*
X22366D2*
X22539D1*
X24366D2*
X25002D1*
X4132Y17614D2*
X4784D1*
X5350D2*
X5838D1*
X6296D2*
X6346D1*
X6930D2*
X8764D1*
X9307D2*
X9768D1*
X10173D2*
X10496D1*
X11650D2*
X11973D1*
X12634D2*
X13016D1*
X13283D2*
X13401D1*
X16580D2*
X17633D1*
X18194D2*
X20212D1*
X20584D2*
X20838D1*
X21296D2*
X21838D1*
X22296D2*
X22520D1*
X23292D2*
X23838D1*
X24296D2*
X25002D1*
X4132Y17552D2*
X4733D1*
X5400D2*
X5983D1*
X6150D2*
X6284D1*
X6868D2*
X8764D1*
X9307D2*
X9768D1*
X10173D2*
X10496D1*
X11650D2*
X11973D1*
X12634D2*
X12980D1*
X13319D2*
X13401D1*
X16774D2*
X17633D1*
X18194D2*
X20274D1*
X21346D2*
X21983D1*
X22150D2*
X22515D1*
X23230D2*
X23983D1*
X24150D2*
X25002D1*
X4132Y17491D2*
X4700D1*
X5434D2*
X6223D1*
X6807D2*
X8764D1*
X9307D2*
X9768D1*
X10173D2*
X10496D1*
X11671D2*
X11948D1*
X12634D2*
X12959D1*
X13340D2*
X13401D1*
X16814D2*
X17633D1*
X18194D2*
X20335D1*
X21415D2*
X22515D1*
X23168D2*
X25002D1*
X4132Y17429D2*
X4679D1*
X5455D2*
X5668D1*
X6745D2*
X8764D1*
X9307D2*
X9768D1*
X10173D2*
X10496D1*
X11733D2*
X11919D1*
X12678D2*
X12959D1*
X13340D2*
X13401D1*
X16827D2*
X17633D1*
X18194D2*
X20397D1*
X21477D2*
X22515D1*
X23115D2*
X25002D1*
X4132Y17367D2*
X4669D1*
X5464D2*
X5606D1*
X6683D2*
X8764D1*
X9307D2*
X9768D1*
X10173D2*
X10496D1*
X11795D2*
X11913D1*
X12740D2*
X12981D1*
X13318D2*
X13401D1*
X16819D2*
X17633D1*
X18194D2*
X20459D1*
X21539D2*
X22515D1*
X23115D2*
X25002D1*
X4132Y17306D2*
X4669D1*
X5464D2*
X5545D1*
X6622D2*
X8764D1*
X9307D2*
X9768D1*
X10173D2*
X10496D1*
X11236D2*
X11269D1*
X11856D2*
X11929D1*
X12801D2*
X13038D1*
X13261D2*
X13432D1*
X13812D2*
X15133D1*
X16787D2*
X17633D1*
X18194D2*
X20927D1*
X21600D2*
X21927D1*
X22207D2*
X22515D1*
X23115D2*
X23927D1*
X24207D2*
X25002D1*
X4132Y17244D2*
X4679D1*
X6560D2*
X8764D1*
X9307D2*
X9768D1*
X10173D2*
X10496D1*
X10764D2*
X10969D1*
X11236D2*
X11330D1*
X11918D2*
X11974D1*
X16700D2*
X17633D1*
X18194D2*
X20817D1*
X21654D2*
X21817D1*
X22317D2*
X22515D1*
X23115D2*
X23817D1*
X24317D2*
X25002D1*
X4132Y17182D2*
X4700D1*
X6498D2*
X8764D1*
X9307D2*
X9768D1*
X10173D2*
X10496D1*
X10764D2*
X10969D1*
X11236D2*
X11392D1*
X11980D2*
X12114D1*
X12492D2*
X12553D1*
X16580D2*
X17633D1*
X18194D2*
X20755D1*
X21669D2*
X21755D1*
X22379D2*
X22515D1*
X23115D2*
X23755D1*
X24379D2*
X25002D1*
X4132Y17121D2*
X4733D1*
X6437D2*
X8764D1*
X9307D2*
X9768D1*
X10173D2*
X10496D1*
X10764D2*
X10969D1*
X11236D2*
X11453D1*
X12041D2*
X12141D1*
X12465D2*
X12614D1*
X15998D2*
X20715D1*
X21669D2*
X21715D1*
X22419D2*
X22515D1*
X23115D2*
X23715D1*
X24419D2*
X25002D1*
X4132Y17059D2*
X4784D1*
X5350D2*
X5417D1*
X6446D2*
X8764D1*
X9307D2*
X9768D1*
X10173D2*
X10496D1*
X10765D2*
X10969D1*
X11236D2*
X11515D1*
X12103D2*
X12210D1*
X12397D2*
X12676D1*
X16580D2*
X17633D1*
X18194D2*
X20688D1*
X22446D2*
X22515D1*
X23115D2*
X23688D1*
X24446D2*
X25002D1*
X4132Y16997D2*
X4864D1*
X5270D2*
X5417D1*
X6461D2*
X8764D1*
X9307D2*
X9768D1*
X10173D2*
X10497D1*
X10827D2*
X10969D1*
X11236D2*
X11577D1*
X12165D2*
X15133D1*
X16580D2*
X17633D1*
X18194D2*
X20630D1*
X22461D2*
X22515D1*
X23115D2*
X23673D1*
X24461D2*
X25002D1*
X4132Y16936D2*
X5417D1*
X6465D2*
X8764D1*
X9307D2*
X9768D1*
X10173D2*
X10519D1*
X10888D2*
X10969D1*
X11236D2*
X11638D1*
X12226D2*
X15811D1*
X16580D2*
X17633D1*
X18194D2*
X20569D1*
X22465D2*
X22515D1*
X23115D2*
X23668D1*
X24465D2*
X25002D1*
X4132Y16874D2*
X5417D1*
X6461D2*
X8764D1*
X9307D2*
X9768D1*
X10173D2*
X10578D1*
X11236D2*
X11700D1*
X12288D2*
X15873D1*
X16580D2*
X17633D1*
X18194D2*
X20507D1*
X22461D2*
X22515D1*
X23115D2*
X23673D1*
X24461D2*
X25002D1*
X4132Y16812D2*
X5417D1*
X6445D2*
X8764D1*
X9307D2*
X9768D1*
X10173D2*
X10640D1*
X11236D2*
X11762D1*
X12350D2*
X15935D1*
X16580D2*
X17633D1*
X18194D2*
X20445D1*
X22445D2*
X22515D1*
X23115D2*
X23689D1*
X24445D2*
X25002D1*
X4132Y16751D2*
X5417D1*
X6418D2*
X8764D1*
X9307D2*
X9768D1*
X10173D2*
X10701D1*
X11289D2*
X11823D1*
X12411D2*
X15996D1*
X16580D2*
X17633D1*
X18194D2*
X20384D1*
X21669D2*
X21716D1*
X22418D2*
X22515D1*
X23115D2*
X23716D1*
X24418D2*
X25002D1*
X4132Y16689D2*
X4888D1*
X5246D2*
X5417D1*
X5685D2*
X5757D1*
X6377D2*
X8764D1*
X9307D2*
X9768D1*
X10173D2*
X10763D1*
X11351D2*
X11885D1*
X12473D2*
X16019D1*
X16580D2*
X16668D1*
X17544D2*
X17633D1*
X18194D2*
X20322D1*
X20694D2*
X20757D1*
X21669D2*
X21757D1*
X22377D2*
X22515D1*
X23115D2*
X23757D1*
X24377D2*
X25002D1*
X4132Y16627D2*
X4797D1*
X5337D2*
X5417D1*
X5685D2*
X5820D1*
X6314D2*
X8764D1*
X9307D2*
X9768D1*
X10173D2*
X10825D1*
X11413D2*
X11947D1*
X12535D2*
X16019D1*
X16580D2*
X16668D1*
X17544D2*
X17633D1*
X18194D2*
X20260D1*
X20632D2*
X20820D1*
X21314D2*
X21402D1*
X21669D2*
X21820D1*
X22314D2*
X22515D1*
X23115D2*
X23820D1*
X24314D2*
X25002D1*
X4132Y16566D2*
X4742D1*
X5685D2*
X5935D1*
X6199D2*
X8764D1*
X9307D2*
X9768D1*
X10175D2*
X10886D1*
X11474D2*
X12008D1*
X12596D2*
X16019D1*
X16580D2*
X16668D1*
X17544D2*
X17633D1*
X18194D2*
X20199D1*
X20571D2*
X20935D1*
X21199D2*
X21402D1*
X21669D2*
X21935D1*
X22199D2*
X22515D1*
X23115D2*
X23935D1*
X24199D2*
X25002D1*
X4132Y16504D2*
X4706D1*
X5685D2*
X8764D1*
X9307D2*
X9768D1*
X10237D2*
X10948D1*
X11536D2*
X12070D1*
X12658D2*
X16019D1*
X16580D2*
X16668D1*
X17544D2*
X17633D1*
X18194D2*
X20137D1*
X20509D2*
X21402D1*
X21669D2*
X22515D1*
X23115D2*
X25002D1*
X4132Y16442D2*
X4683D1*
X5685D2*
X8764D1*
X9307D2*
X9768D1*
X10299D2*
X11010D1*
X11598D2*
X12132D1*
X12720D2*
X16668D1*
X17544D2*
X20075D1*
X20447D2*
X21394D1*
X21669D2*
X22515D1*
X23115D2*
X25002D1*
X4132Y16381D2*
X4671D1*
X5685D2*
X8764D1*
X9307D2*
X9782D1*
X10360D2*
X11071D1*
X11659D2*
X12187D1*
X20386D2*
X21333D1*
X21667D2*
X22515D1*
X23115D2*
X25002D1*
X4132Y16319D2*
X4668D1*
X5685D2*
X5972D1*
X6162D2*
X8764D1*
X9307D2*
X9834D1*
X10422D2*
X11133D1*
X11721D2*
X12170D1*
X20324D2*
X20972D1*
X21162D2*
X21271D1*
X21642D2*
X21972D1*
X22162D2*
X22515D1*
X23115D2*
X23972D1*
X24162D2*
X25002D1*
X4132Y16257D2*
X4676D1*
X5689D2*
X5834D1*
X6300D2*
X8764D1*
X9307D2*
X9896D1*
X10484D2*
X11195D1*
X11783D2*
X12173D1*
X20262D2*
X20834D1*
X21581D2*
X21834D1*
X22300D2*
X22515D1*
X23115D2*
X23834D1*
X24300D2*
X25002D1*
X4132Y16196D2*
X4695D1*
X6368D2*
X8764D1*
X9307D2*
X9957D1*
X10545D2*
X11256D1*
X20232D2*
X20766D1*
X21520D2*
X21766D1*
X22368D2*
X22515D1*
X24368D2*
X25002D1*
X4132Y16134D2*
X4725D1*
X6412D2*
X8764D1*
X9307D2*
X10019D1*
X10607D2*
X11318D1*
X19525D2*
X19965D1*
X20232D2*
X20722D1*
X21458D2*
X21722D1*
X22412D2*
X22515D1*
X24412D2*
X25002D1*
X4132Y16072D2*
X4772D1*
X6442D2*
X8764D1*
X9307D2*
X10081D1*
X10669D2*
X11380D1*
X19609D2*
X19965D1*
X20232D2*
X20692D1*
X21442D2*
X21692D1*
X22442D2*
X22515D1*
X24442D2*
X25002D1*
X4132Y16010D2*
X4844D1*
X5290D2*
X5454D1*
X6459D2*
X8764D1*
X9307D2*
X10142D1*
X10730D2*
X11441D1*
X19732D2*
X19965D1*
X20232D2*
X20675D1*
X21459D2*
X21675D1*
X22459D2*
X22515D1*
X24459D2*
X25002D1*
X4132Y15949D2*
X5005D1*
X5129D2*
X5608D1*
X6465D2*
X8764D1*
X9307D2*
X10204D1*
X10792D2*
X11503D1*
X19246D2*
X19338D1*
X19769D2*
X19965D1*
X20232D2*
X20668D1*
X21465D2*
X21668D1*
X22465D2*
X22515D1*
X24465D2*
X25002D1*
X4132Y15887D2*
X5671D1*
X6462D2*
X8764D1*
X9307D2*
X10266D1*
X10854D2*
X11565D1*
X19263D2*
X19393D1*
X19780D2*
X19965D1*
X20232D2*
X20671D1*
X21462D2*
X21671D1*
X22462D2*
X22515D1*
X24462D2*
X25002D1*
X4132Y15825D2*
X5685D1*
X6449D2*
X8764D1*
X9307D2*
X10327D1*
X10915D2*
X11644D1*
X19257D2*
X19404D1*
X19770D2*
X19965D1*
X20232D2*
X20685D1*
X21449D2*
X21685D1*
X22449D2*
X22515D1*
X24449D2*
X25002D1*
X4132Y15764D2*
X5709D1*
X6425D2*
X8764D1*
X9307D2*
X10389D1*
X10977D2*
X18834D1*
X20339D2*
X20709D1*
X21425D2*
X21709D1*
X22425D2*
X22515D1*
X24425D2*
X25002D1*
X4132Y15702D2*
X4917D1*
X5216D2*
X5746D1*
X6388D2*
X8764D1*
X9307D2*
X10451D1*
X11039D2*
X18834D1*
X20339D2*
X20746D1*
X21388D2*
X21746D1*
X22388D2*
X22515D1*
X24388D2*
X25002D1*
X4132Y15640D2*
X4812D1*
X5322D2*
X5804D1*
X6330D2*
X8764D1*
X9307D2*
X10512D1*
X11100D2*
X18834D1*
X20339D2*
X20804D1*
X21330D2*
X21804D1*
X22330D2*
X22515D1*
X23115D2*
X23804D1*
X24330D2*
X25002D1*
X4132Y15579D2*
X4752D1*
X5382D2*
X5901D1*
X6233D2*
X8764D1*
X9307D2*
X10574D1*
X11162D2*
X18834D1*
X20339D2*
X20901D1*
X21233D2*
X21901D1*
X22233D2*
X22515D1*
X23115D2*
X23901D1*
X24233D2*
X25002D1*
X4132Y15517D2*
X4713D1*
X5421D2*
X8764D1*
X9307D2*
X10636D1*
X11224D2*
X18834D1*
X20339D2*
X22515D1*
X23115D2*
X25002D1*
X4132Y15455D2*
X4687D1*
X5447D2*
X8764D1*
X9307D2*
X10697D1*
X11285D2*
X18834D1*
X20339D2*
X22515D1*
X23115D2*
X25002D1*
X4132Y15394D2*
X4672D1*
X5462D2*
X8764D1*
X9307D2*
X10759D1*
X11347D2*
X18834D1*
X20339D2*
X22515D1*
X23115D2*
X25002D1*
X4132Y15332D2*
X4668D1*
X5465D2*
X8764D1*
X9307D2*
X10821D1*
X11409D2*
X18834D1*
X20339D2*
X22515D1*
X23115D2*
X25002D1*
X4132Y15270D2*
X4674D1*
X5460D2*
X5854D1*
X6279D2*
X8764D1*
X9307D2*
X10882D1*
X11470D2*
X18834D1*
X20339D2*
X20854D1*
X21279D2*
X21854D1*
X22279D2*
X22515D1*
X23115D2*
X23854D1*
X24279D2*
X25002D1*
X4132Y15209D2*
X4690D1*
X5444D2*
X5778D1*
X6356D2*
X8764D1*
X9307D2*
X10944D1*
X11532D2*
X18834D1*
X20339D2*
X20778D1*
X21356D2*
X21778D1*
X22356D2*
X22515D1*
X23115D2*
X23778D1*
X24356D2*
X25002D1*
X4132Y15147D2*
X4718D1*
X5416D2*
X5729D1*
X6404D2*
X8764D1*
X9307D2*
X11006D1*
X16319D2*
X18834D1*
X20339D2*
X20729D1*
X21404D2*
X21729D1*
X22404D2*
X22515D1*
X23115D2*
X23729D1*
X24404D2*
X25002D1*
X4132Y15085D2*
X4760D1*
X5374D2*
X5698D1*
X6436D2*
X8764D1*
X9307D2*
X11067D1*
X16380D2*
X18834D1*
X20339D2*
X20698D1*
X21436D2*
X21698D1*
X22436D2*
X22515D1*
X23115D2*
X23698D1*
X24436D2*
X25002D1*
X4132Y15024D2*
X4825D1*
X5309D2*
X5678D1*
X6456D2*
X8764D1*
X9307D2*
X11129D1*
X16442D2*
X18834D1*
X20339D2*
X20678D1*
X21456D2*
X21678D1*
X22456D2*
X22515D1*
X23115D2*
X23678D1*
X24456D2*
X25002D1*
X4132Y14962D2*
X4946D1*
X5188D2*
X5669D1*
X6464D2*
X8764D1*
X9307D2*
X11191D1*
X16504D2*
X18834D1*
X20339D2*
X20669D1*
X21464D2*
X21669D1*
X22464D2*
X22515D1*
X23115D2*
X23669D1*
X24464D2*
X25002D1*
X4132Y14900D2*
X5670D1*
X6463D2*
X8764D1*
X9307D2*
X11252D1*
X16565D2*
X20670D1*
X21463D2*
X21670D1*
X22463D2*
X22515D1*
X23115D2*
X23670D1*
X24463D2*
X25002D1*
X4132Y14839D2*
X5681D1*
X6453D2*
X8764D1*
X9307D2*
X11316D1*
X16627D2*
X20681D1*
X21453D2*
X21681D1*
X22453D2*
X22515D1*
X23115D2*
X23681D1*
X24454D2*
X25002D1*
X4132Y14777D2*
X5703D1*
X6431D2*
X8764D1*
X9307D2*
X16100D1*
X16689D2*
X20703D1*
X21431D2*
X21703D1*
X22431D2*
X22515D1*
X23115D2*
X23696D1*
X24454D2*
X25002D1*
X4132Y14715D2*
X4957D1*
X5177D2*
X5737D1*
X6397D2*
X8764D1*
X9307D2*
X16162D1*
X16750D2*
X20737D1*
X21397D2*
X21737D1*
X22397D2*
X22515D1*
X23115D2*
X23696D1*
X24454D2*
X25002D1*
X4132Y14654D2*
X4829D1*
X5305D2*
X5789D1*
X6344D2*
X8764D1*
X9307D2*
X16224D1*
X16812D2*
X20789D1*
X21344D2*
X21789D1*
X22344D2*
X22515D1*
X23115D2*
X23696D1*
X24454D2*
X25002D1*
X4132Y14592D2*
X4763D1*
X5371D2*
X5874D1*
X6260D2*
X8764D1*
X9307D2*
X16286D1*
X16874D2*
X20874D1*
X21260D2*
X21874D1*
X22260D2*
X22515D1*
X23115D2*
X23696D1*
X24454D2*
X25002D1*
X4132Y14530D2*
X4720D1*
X5414D2*
X8764D1*
X9307D2*
X16347D1*
X16935D2*
X22515D1*
X23115D2*
X23696D1*
X24454D2*
X25002D1*
X4132Y14469D2*
X4691D1*
X5443D2*
X8764D1*
X9307D2*
X16409D1*
X16997D2*
X22515D1*
X23115D2*
X23696D1*
X24454D2*
X25002D1*
X4132Y14407D2*
X4674D1*
X5460D2*
X8764D1*
X9307D2*
X16471D1*
X17059D2*
X22515D1*
X23115D2*
X23696D1*
X24454D2*
X25002D1*
X4132Y14345D2*
X4668D1*
X5465D2*
X8764D1*
X9307D2*
X10901D1*
X11658D2*
X12042D1*
X12800D2*
X13184D1*
X13942D2*
X16532D1*
X17120D2*
X22515D1*
X23115D2*
X23696D1*
X24454D2*
X25002D1*
X4132Y14283D2*
X4672D1*
X5462D2*
X5877D1*
X6257D2*
X8764D1*
X9307D2*
X10901D1*
X11658D2*
X12042D1*
X12800D2*
X13184D1*
X13942D2*
X16594D1*
X17182D2*
X20877D1*
X21257D2*
X21877D1*
X22257D2*
X22515D1*
X23115D2*
X23696D1*
X24454D2*
X25002D1*
X4132Y14222D2*
X4686D1*
X5448D2*
X5791D1*
X6342D2*
X8764D1*
X9307D2*
X10901D1*
X11658D2*
X12042D1*
X12800D2*
X13184D1*
X13942D2*
X16656D1*
X17244D2*
X20791D1*
X21342D2*
X21791D1*
X22342D2*
X22515D1*
X23115D2*
X23696D1*
X24454D2*
X25002D1*
X4132Y14160D2*
X4711D1*
X5423D2*
X5738D1*
X6396D2*
X8764D1*
X9307D2*
X10901D1*
X11658D2*
X12042D1*
X12800D2*
X13184D1*
X13942D2*
X16717D1*
X17305D2*
X20738D1*
X21396D2*
X21738D1*
X22396D2*
X22515D1*
X23115D2*
X23696D1*
X24454D2*
X25002D1*
X4132Y14098D2*
X4749D1*
X5385D2*
X5703D1*
X6431D2*
X8764D1*
X9307D2*
X10901D1*
X11658D2*
X12042D1*
X12800D2*
X13184D1*
X13942D2*
X16779D1*
X17367D2*
X20703D1*
X21431D2*
X21703D1*
X22431D2*
X22515D1*
X23115D2*
X23696D1*
X24454D2*
X25002D1*
X4132Y14037D2*
X4808D1*
X5326D2*
X5681D1*
X6453D2*
X8764D1*
X9307D2*
X10901D1*
X11658D2*
X12042D1*
X12800D2*
X13184D1*
X13942D2*
X16841D1*
X17429D2*
X20681D1*
X21453D2*
X21681D1*
X22453D2*
X22515D1*
X23115D2*
X23696D1*
X24454D2*
X25002D1*
X4132Y13975D2*
X4910D1*
X5224D2*
X5670D1*
X6463D2*
X8764D1*
X9307D2*
X10901D1*
X11658D2*
X12042D1*
X12800D2*
X13184D1*
X13942D2*
X16902D1*
X17490D2*
X20670D1*
X21463D2*
X21670D1*
X22463D2*
X22515D1*
X23115D2*
X23696D1*
X24454D2*
X25002D1*
X4132Y13913D2*
X5669D1*
X6464D2*
X8764D1*
X9307D2*
X10901D1*
X11658D2*
X12042D1*
X12800D2*
X13184D1*
X13942D2*
X16964D1*
X17552D2*
X20669D1*
X21464D2*
X21669D1*
X22464D2*
X22515D1*
X23115D2*
X23696D1*
X24454D2*
X25002D1*
X4132Y13852D2*
X5678D1*
X6456D2*
X8764D1*
X9307D2*
X10901D1*
X11658D2*
X12042D1*
X12800D2*
X13184D1*
X13942D2*
X17026D1*
X17614D2*
X20678D1*
X21456D2*
X21678D1*
X22456D2*
X22515D1*
X23115D2*
X23696D1*
X24454D2*
X25002D1*
X4132Y13790D2*
X5697D1*
X6437D2*
X8764D1*
X9307D2*
X10901D1*
X11658D2*
X12042D1*
X12800D2*
X13184D1*
X13942D2*
X17087D1*
X17675D2*
X20697D1*
X21437D2*
X21697D1*
X22437D2*
X22515D1*
X23115D2*
X23696D1*
X24454D2*
X25002D1*
X4132Y13728D2*
X5036D1*
X5098D2*
X5728D1*
X6405D2*
X8764D1*
X10812D2*
X10901D1*
X11658D2*
X12042D1*
X12800D2*
X13184D1*
X13942D2*
X14031D1*
X15654D2*
X17149D1*
X17737D2*
X20728D1*
X21405D2*
X21728D1*
X22405D2*
X22515D1*
X23115D2*
X23696D1*
X24454D2*
X25002D1*
X4132Y13667D2*
X4849D1*
X5285D2*
X5777D1*
X6357D2*
X8764D1*
X10812D2*
X10901D1*
X11658D2*
X12042D1*
X12800D2*
X13184D1*
X13942D2*
X14031D1*
X15654D2*
X17211D1*
X17799D2*
X20777D1*
X21357D2*
X21777D1*
X22357D2*
X22515D1*
X23115D2*
X23696D1*
X24454D2*
X25002D1*
X4132Y13605D2*
X4775D1*
X5359D2*
X5851D1*
X6282D2*
X8764D1*
X10812D2*
X10901D1*
X11658D2*
X12042D1*
X12800D2*
X13184D1*
X13942D2*
X14031D1*
X15654D2*
X17272D1*
X17860D2*
X20851D1*
X21282D2*
X21851D1*
X22282D2*
X22515D1*
X23115D2*
X23696D1*
X24454D2*
X25002D1*
X4132Y13543D2*
X4727D1*
X5406D2*
X8764D1*
X10812D2*
X10901D1*
X11658D2*
X12042D1*
X12800D2*
X13184D1*
X13942D2*
X14031D1*
X15654D2*
X17334D1*
X17922D2*
X22515D1*
X23115D2*
X23696D1*
X24454D2*
X25002D1*
X4132Y13482D2*
X4696D1*
X5438D2*
X8764D1*
X10812D2*
X10901D1*
X11658D2*
X12042D1*
X12800D2*
X13184D1*
X13942D2*
X14031D1*
X15654D2*
X17396D1*
X17984D2*
X22515D1*
X23121D2*
X23696D1*
X24454D2*
X25002D1*
X4132Y13420D2*
X4677D1*
X5457D2*
X8764D1*
X10812D2*
X10901D1*
X11658D2*
X12042D1*
X12800D2*
X13184D1*
X13942D2*
X14031D1*
X15654D2*
X17457D1*
X18045D2*
X22515D1*
X23183D2*
X23696D1*
X24454D2*
X25002D1*
X4132Y13358D2*
X4669D1*
X5464D2*
X8764D1*
X10812D2*
X10901D1*
X11658D2*
X12042D1*
X12800D2*
X13184D1*
X13942D2*
X14031D1*
X15654D2*
X17519D1*
X18107D2*
X22515D1*
X23245D2*
X23696D1*
X24454D2*
X25002D1*
X4132Y13297D2*
X4670D1*
X5598D2*
X5905D1*
X6229D2*
X8764D1*
X10812D2*
X10901D1*
X11658D2*
X12042D1*
X12800D2*
X13184D1*
X13942D2*
X14031D1*
X15654D2*
X17581D1*
X18169D2*
X22524D1*
X23299D2*
X23696D1*
X24454D2*
X25002D1*
X4132Y13235D2*
X4682D1*
X5751D2*
X5805D1*
X6329D2*
X8764D1*
X10812D2*
X10901D1*
X11658D2*
X12042D1*
X12800D2*
X13184D1*
X13942D2*
X14031D1*
X15654D2*
X17642D1*
X18230D2*
X22546D1*
X23332D2*
X23696D1*
X24454D2*
X25002D1*
X4132Y13173D2*
X4704D1*
X6387D2*
X8764D1*
X10812D2*
X10901D1*
X11658D2*
X12042D1*
X12800D2*
X13184D1*
X13942D2*
X14031D1*
X15654D2*
X17704D1*
X18292D2*
X22587D1*
X23348D2*
X23696D1*
X24454D2*
X25002D1*
X4132Y13112D2*
X4740D1*
X6424D2*
X8764D1*
X10812D2*
X10901D1*
X11658D2*
X12042D1*
X12800D2*
X13184D1*
X13942D2*
X14031D1*
X15654D2*
X17766D1*
X18354D2*
X22648D1*
X23350D2*
X23696D1*
X24454D2*
X25002D1*
X4132Y13050D2*
X4793D1*
X6449D2*
X8764D1*
X10812D2*
X14031D1*
X15654D2*
X17827D1*
X18415D2*
X22710D1*
X23340D2*
X23696D1*
X24454D2*
X25002D1*
X4132Y12988D2*
X4881D1*
X5253D2*
X5517D1*
X6462D2*
X8764D1*
X10812D2*
X14031D1*
X15654D2*
X17889D1*
X18477D2*
X22771D1*
X23315D2*
X23696D1*
X24454D2*
X25002D1*
X4132Y12927D2*
X5668D1*
X6465D2*
X8764D1*
X10812D2*
X14031D1*
X15654D2*
X17951D1*
X18539D2*
X21445D1*
X22702D2*
X22790D1*
X23312D2*
X23696D1*
X24454D2*
X25002D1*
X4132Y12865D2*
X5675D1*
X6459D2*
X8764D1*
X10812D2*
X14031D1*
X15654D2*
X18012D1*
X18600D2*
X21413D1*
X22702D2*
X22790D1*
X23312D2*
X23696D1*
X24454D2*
X25002D1*
X4132Y12803D2*
X5692D1*
X6442D2*
X8764D1*
X10812D2*
X14031D1*
X15654D2*
X18074D1*
X18662D2*
X21412D1*
X22702D2*
X22790D1*
X23312D2*
X23696D1*
X24454D2*
X25002D1*
X4132Y12741D2*
X5721D1*
X6413D2*
X8764D1*
X10812D2*
X14031D1*
X15654D2*
X18136D1*
X18724D2*
X21412D1*
X22702D2*
X22790D1*
X23312D2*
X23696D1*
X24454D2*
X25002D1*
X4132Y12680D2*
X4870D1*
X5264D2*
X5765D1*
X6369D2*
X8764D1*
X10812D2*
X14031D1*
X15654D2*
X18197D1*
X18785D2*
X21412D1*
X22702D2*
X22790D1*
X23312D2*
X23696D1*
X24454D2*
X25002D1*
X4132Y12618D2*
X4787D1*
X5346D2*
X5833D1*
X6301D2*
X8764D1*
X9307D2*
X18259D1*
X18847D2*
X21412D1*
X22702D2*
X22790D1*
X23312D2*
X23696D1*
X24454D2*
X25002D1*
X4132Y12556D2*
X4735D1*
X5399D2*
X5966D1*
X6168D2*
X8764D1*
X9307D2*
X18321D1*
X18909D2*
X21412D1*
X22702D2*
X22790D1*
X23312D2*
X23696D1*
X24454D2*
X25002D1*
X4132Y12495D2*
X4702D1*
X5432D2*
X8764D1*
X9307D2*
X18382D1*
X18970D2*
X21412D1*
X23241D2*
X23696D1*
X24454D2*
X25002D1*
X4132Y12433D2*
X4680D1*
X5454D2*
X8764D1*
X9307D2*
X18444D1*
X19032D2*
X20901D1*
X23307D2*
X23696D1*
X24454D2*
X25002D1*
X4132Y12371D2*
X4670D1*
X5463D2*
X8764D1*
X9307D2*
X18506D1*
X19094D2*
X20901D1*
X23312D2*
X23696D1*
X24454D2*
X25002D1*
X4132Y12310D2*
X4669D1*
X5491D2*
X5939D1*
X6195D2*
X8764D1*
X9307D2*
X18567D1*
X19155D2*
X20901D1*
X23312D2*
X23696D1*
X24454D2*
X25002D1*
X4132Y12248D2*
X4678D1*
X5624D2*
X5822D1*
X6312D2*
X8764D1*
X9307D2*
X18629D1*
X19217D2*
X20901D1*
X23312D2*
X23696D1*
X24454D2*
X25002D1*
X4132Y12186D2*
X4699D1*
X6376D2*
X8764D1*
X9307D2*
X18691D1*
X19279D2*
X20901D1*
X23312D2*
X23696D1*
X24454D2*
X25002D1*
X4132Y12125D2*
X4731D1*
X6417D2*
X8764D1*
X9321D2*
X17188D1*
X17871D2*
X18752D1*
X19340D2*
X20901D1*
X23312D2*
X23696D1*
X24454D2*
X25002D1*
X4132Y12063D2*
X4780D1*
X6445D2*
X8764D1*
X9383D2*
X17180D1*
X17879D2*
X18814D1*
X19402D2*
X20901D1*
X23312D2*
X23696D1*
X24454D2*
X25002D1*
X4132Y12001D2*
X4858D1*
X5275D2*
X5403D1*
X6461D2*
X8764D1*
X10567D2*
X17180D1*
X17879D2*
X18876D1*
X19464D2*
X20901D1*
X23312D2*
X23696D1*
X24454D2*
X25002D1*
X4132Y11940D2*
X5536D1*
X6465D2*
X8764D1*
X10624D2*
X17180D1*
X17879D2*
X18937D1*
X19525D2*
X20901D1*
X23312D2*
X23696D1*
X24454D2*
X25002D1*
X4132Y11878D2*
X5668D1*
X6461D2*
X8764D1*
X10645D2*
X14346D1*
X15654D2*
X17180D1*
X18273D2*
X18999D1*
X19583D2*
X20901D1*
X23312D2*
X23696D1*
X24454D2*
X25002D1*
X4132Y11816D2*
X5687D1*
X6447D2*
X8764D1*
X10646D2*
X14346D1*
X15654D2*
X17180D1*
X18273D2*
X19061D1*
X19601D2*
X20901D1*
X21737D2*
X21865D1*
X22584D2*
X23696D1*
X24454D2*
X25002D1*
X4132Y11755D2*
X5714D1*
X6420D2*
X8764D1*
X9031D2*
X9102D1*
X10646D2*
X14346D1*
X15654D2*
X17180D1*
X18273D2*
X19122D1*
X19602D2*
X20901D1*
X21737D2*
X21865D1*
X22584D2*
X23696D1*
X24454D2*
X25002D1*
X4132Y11693D2*
X4896D1*
X5238D2*
X5754D1*
X6380D2*
X8764D1*
X9031D2*
X9164D1*
X10646D2*
X14346D1*
X15654D2*
X17180D1*
X18273D2*
X19184D1*
X19602D2*
X20901D1*
X21737D2*
X21865D1*
X22584D2*
X23696D1*
X24454D2*
X25002D1*
X4132Y11631D2*
X4801D1*
X5333D2*
X5815D1*
X6319D2*
X8764D1*
X9031D2*
X9188D1*
X10646D2*
X14346D1*
X15654D2*
X17180D1*
X18273D2*
X19197D1*
X19602D2*
X20081D1*
X21737D2*
X21865D1*
X22584D2*
X23696D1*
X24454D2*
X25002D1*
X4132Y11570D2*
X4745D1*
X5389D2*
X5923D1*
X6211D2*
X8764D1*
X9031D2*
X9188D1*
X10646D2*
X11334D1*
X13509D2*
X14346D1*
X15654D2*
X17180D1*
X18298D2*
X19197D1*
X19602D2*
X20074D1*
X21737D2*
X21865D1*
X22584D2*
X23696D1*
X24454D2*
X25002D1*
X4132Y11508D2*
X4708D1*
X5426D2*
X8764D1*
X9031D2*
X9188D1*
X10646D2*
X11334D1*
X13509D2*
X14346D1*
X15654D2*
X17180D1*
X18331D2*
X19197D1*
X19602D2*
X20074D1*
X21737D2*
X21865D1*
X22584D2*
X23696D1*
X24454D2*
X25002D1*
X4132Y11446D2*
X4684D1*
X5450D2*
X8764D1*
X9031D2*
X9188D1*
X10646D2*
X11334D1*
X13509D2*
X14346D1*
X15654D2*
X17180D1*
X18332D2*
X19197D1*
X19602D2*
X20074D1*
X21737D2*
X21865D1*
X22584D2*
X23696D1*
X24454D2*
X25002D1*
X4132Y11385D2*
X4671D1*
X5462D2*
X8764D1*
X9031D2*
X9188D1*
X10646D2*
X11334D1*
X13509D2*
X14346D1*
X15654D2*
X17180D1*
X18332D2*
X19197D1*
X19602D2*
X20074D1*
X21737D2*
X21865D1*
X22584D2*
X23696D1*
X24454D2*
X25002D1*
X4132Y11323D2*
X4668D1*
X5465D2*
X5990D1*
X6144D2*
X8764D1*
X9031D2*
X9188D1*
X10646D2*
X11334D1*
X13509D2*
X14346D1*
X15654D2*
X17180D1*
X18332D2*
X19197D1*
X19602D2*
X20074D1*
X21737D2*
X21865D1*
X22584D2*
X23696D1*
X24454D2*
X25002D1*
X4132Y11261D2*
X4676D1*
X5458D2*
X5840D1*
X6294D2*
X8764D1*
X9031D2*
X9188D1*
X10646D2*
X11334D1*
X13509D2*
X14346D1*
X15654D2*
X17180D1*
X18332D2*
X19197D1*
X19602D2*
X20074D1*
X21737D2*
X21865D1*
X22584D2*
X23696D1*
X24454D2*
X25002D1*
X4132Y11199D2*
X4693D1*
X5441D2*
X5769D1*
X6365D2*
X8764D1*
X9031D2*
X9188D1*
X10646D2*
X11334D1*
X13509D2*
X14346D1*
X15654D2*
X17202D1*
X18332D2*
X19197D1*
X19602D2*
X20074D1*
X21759D2*
X21865D1*
X22584D2*
X23655D1*
X24454D2*
X25002D1*
X4132Y11138D2*
X4723D1*
X5411D2*
X5724D1*
X6410D2*
X8764D1*
X9031D2*
X10378D1*
X10646D2*
X11334D1*
X13509D2*
X17495D1*
X18332D2*
X19197D1*
X19602D2*
X20074D1*
X21189D2*
X21382D1*
X21768D2*
X21894D1*
X22584D2*
X23593D1*
X24454D2*
X25002D1*
X4132Y11076D2*
X4768D1*
X5366D2*
X5694D1*
X6440D2*
X8764D1*
X9031D2*
X10378D1*
X10646D2*
X11334D1*
X13509D2*
X17495D1*
X18332D2*
X19197D1*
X19602D2*
X20074D1*
X21144D2*
X21394D1*
X21756D2*
X21894D1*
X22584D2*
X23532D1*
X24454D2*
X25002D1*
X4132Y11014D2*
X4838D1*
X5296D2*
X5676D1*
X6458D2*
X8764D1*
X9031D2*
X10378D1*
X10646D2*
X11334D1*
X13509D2*
X17495D1*
X18332D2*
X19197D1*
X19602D2*
X20074D1*
X22623D2*
X23470D1*
X24454D2*
X25002D1*
X4132Y10953D2*
X4982D1*
X5151D2*
X5668D1*
X6465D2*
X8764D1*
X9031D2*
X10378D1*
X10646D2*
X11334D1*
X13509D2*
X17495D1*
X18332D2*
X19197D1*
X19602D2*
X19930D1*
X22623D2*
X23408D1*
X24454D2*
X25002D1*
X4132Y10891D2*
X5671D1*
X6462D2*
X8764D1*
X9031D2*
X10378D1*
X10646D2*
X11334D1*
X13509D2*
X17495D1*
X18332D2*
X19197D1*
X19602D2*
X19880D1*
X20592D2*
X20664D1*
X22623D2*
X23347D1*
X24454D2*
X25002D1*
X4132Y10829D2*
X5683D1*
X6451D2*
X8764D1*
X9031D2*
X9188D1*
X10646D2*
X11334D1*
X13509D2*
X14346D1*
X15654D2*
X17495D1*
X18332D2*
X19197D1*
X19602D2*
X19877D1*
X20595D2*
X20664D1*
X22623D2*
X23285D1*
X24454D2*
X25002D1*
X4132Y10768D2*
X5707D1*
X6427D2*
X8764D1*
X9031D2*
X9188D1*
X10646D2*
X11334D1*
X13509D2*
X14346D1*
X15654D2*
X17495D1*
X18332D2*
X19197D1*
X19602D2*
X19877D1*
X20595D2*
X20664D1*
X22623D2*
X23223D1*
X24454D2*
X25002D1*
X4132Y10706D2*
X4776D1*
X5358D2*
X5744D1*
X6390D2*
X8764D1*
X9031D2*
X9188D1*
X10646D2*
X11334D1*
X13509D2*
X14346D1*
X15654D2*
X17495D1*
X18332D2*
X19197D1*
X19602D2*
X19877D1*
X20595D2*
X20664D1*
X24454D2*
X25002D1*
X4132Y10644D2*
X4646D1*
X5488D2*
X5799D1*
X6335D2*
X8764D1*
X9031D2*
X9188D1*
X10646D2*
X11334D1*
X13509D2*
X14346D1*
X15654D2*
X17495D1*
X18332D2*
X19197D1*
X19602D2*
X19877D1*
X20595D2*
X20664D1*
X24454D2*
X25002D1*
X4132Y10583D2*
X4555D1*
X5579D2*
X5893D1*
X6241D2*
X8764D1*
X9031D2*
X9188D1*
X10645D2*
X11334D1*
X13509D2*
X14346D1*
X15654D2*
X17495D1*
X18332D2*
X19197D1*
X19602D2*
X19877D1*
X20595D2*
X20664D1*
X24454D2*
X25002D1*
X4132Y10521D2*
X4485D1*
X5649D2*
X8764D1*
X9031D2*
X9188D1*
X10624D2*
X11334D1*
X13509D2*
X14346D1*
X15654D2*
X17495D1*
X18332D2*
X19197D1*
X19602D2*
X19877D1*
X20595D2*
X20664D1*
X24454D2*
X25002D1*
X4132Y10459D2*
X4428D1*
X5706D2*
X8764D1*
X9031D2*
X9188D1*
X10567D2*
X11334D1*
X13509D2*
X14346D1*
X15654D2*
X17495D1*
X18332D2*
X19197D1*
X19602D2*
X19877D1*
X20595D2*
X20664D1*
X24454D2*
X25002D1*
X4132Y10398D2*
X4382D1*
X5752D2*
X8764D1*
X9031D2*
X9188D1*
X10497D2*
X11334D1*
X13509D2*
X14346D1*
X15654D2*
X17440D1*
X18332D2*
X19197D1*
X19602D2*
X19877D1*
X20595D2*
X20664D1*
X24454D2*
X25002D1*
X4132Y10336D2*
X4345D1*
X5789D2*
X8764D1*
X9031D2*
X9188D1*
X10497D2*
X11334D1*
X13509D2*
X14346D1*
X15654D2*
X17203D1*
X18332D2*
X19197D1*
X19602D2*
X19877D1*
X20595D2*
X20664D1*
X24454D2*
X25002D1*
X4132Y10274D2*
X4313D1*
X5821D2*
X8764D1*
X9085D2*
X9188D1*
X10497D2*
X11334D1*
X13509D2*
X14346D1*
X15654D2*
X17139D1*
X18332D2*
X19197D1*
X19602D2*
X19877D1*
X20595D2*
X20664D1*
X24454D2*
X25002D1*
X4132Y10213D2*
X4288D1*
X5845D2*
X8781D1*
X9147D2*
X9188D1*
X10497D2*
X11334D1*
X13509D2*
X14346D1*
X15654D2*
X17077D1*
X18332D2*
X19197D1*
X19602D2*
X19877D1*
X20595D2*
X21314D1*
X21686D2*
X21877D1*
X24454D2*
X25002D1*
X4132Y10151D2*
X4269D1*
X5865D2*
X8837D1*
X10497D2*
X11334D1*
X13509D2*
X14346D1*
X15654D2*
X17016D1*
X18332D2*
X19197D1*
X19602D2*
X19877D1*
X20595D2*
X21376D1*
X21748D2*
X21815D1*
X24477D2*
X25002D1*
X4132Y10089D2*
X4255D1*
X5879D2*
X8898D1*
X10662D2*
X11334D1*
X13509D2*
X16954D1*
X18332D2*
X19197D1*
X19602D2*
X19877D1*
X20595D2*
X21437D1*
X24571D2*
X25002D1*
X4132Y10028D2*
X4245D1*
X5889D2*
X8960D1*
X10729D2*
X11334D1*
X13509D2*
X16892D1*
X18332D2*
X19197D1*
X19602D2*
X19877D1*
X20595D2*
X21499D1*
X22064D2*
X22101D1*
X24643D2*
X25002D1*
X4132Y9966D2*
X4241D1*
X5893D2*
X9022D1*
X10791D2*
X11334D1*
X13509D2*
X16831D1*
X18332D2*
X19197D1*
X19602D2*
X19877D1*
X20595D2*
X21561D1*
X22002D2*
X22101D1*
X24700D2*
X25002D1*
X4132Y9904D2*
X4241D1*
X5893D2*
X9083D1*
X10852D2*
X11334D1*
X13509D2*
X16789D1*
X18175D2*
X19197D1*
X19602D2*
X19877D1*
X20595D2*
X21634D1*
X21929D2*
X22101D1*
X24747D2*
X25002D1*
X4132Y9843D2*
X4246D1*
X5888D2*
X9188D1*
X10497D2*
X10542D1*
X10914D2*
X11334D1*
X13509D2*
X14346D1*
X15654D2*
X16787D1*
X18236D2*
X19197D1*
X19602D2*
X19877D1*
X20595D2*
X22101D1*
X24786D2*
X25002D1*
X4132Y9781D2*
X4256D1*
X5878D2*
X9188D1*
X10497D2*
X10604D1*
X10976D2*
X11334D1*
X13509D2*
X14346D1*
X15654D2*
X16787D1*
X18351D2*
X19197D1*
X19602D2*
X19900D1*
X20573D2*
X22101D1*
X24818D2*
X25002D1*
X4132Y9719D2*
X4270D1*
X5864D2*
X9188D1*
X10497D2*
X10665D1*
X11037D2*
X11334D1*
X13509D2*
X14346D1*
X15654D2*
X16787D1*
X18351D2*
X19197D1*
X19602D2*
X22101D1*
X24843D2*
X25002D1*
X4132Y9657D2*
X4289D1*
X5844D2*
X9188D1*
X10497D2*
X10727D1*
X11099D2*
X11334D1*
X13509D2*
X14346D1*
X15654D2*
X16787D1*
X18351D2*
X19197D1*
X19602D2*
X22114D1*
X24863D2*
X25002D1*
X4132Y9596D2*
X4315D1*
X5819D2*
X9188D1*
X10497D2*
X10789D1*
X11161D2*
X11334D1*
X13509D2*
X14346D1*
X15654D2*
X16787D1*
X18351D2*
X19197D1*
X19602D2*
X23256D1*
X24878D2*
X25002D1*
X4132Y9534D2*
X4347D1*
X5787D2*
X9188D1*
X10497D2*
X10850D1*
X11222D2*
X11334D1*
X13509D2*
X14346D1*
X15654D2*
X16787D1*
X18351D2*
X19197D1*
X19628D2*
X23246D1*
X24888D2*
X25002D1*
X4132Y9472D2*
X4385D1*
X5749D2*
X9188D1*
X10497D2*
X10912D1*
X11284D2*
X11334D1*
X13509D2*
X14346D1*
X15654D2*
X16787D1*
X18351D2*
X19197D1*
X19690D2*
X23241D1*
X24893D2*
X25002D1*
X4132Y9411D2*
X4431D1*
X5703D2*
X9188D1*
X10497D2*
X10975D1*
X11346D2*
X14346D1*
X15654D2*
X16787D1*
X18351D2*
X19197D1*
X19752D2*
X23241D1*
X24893D2*
X25002D1*
X4132Y9349D2*
X4489D1*
X5645D2*
X9188D1*
X10497D2*
X11036D1*
X11407D2*
X14346D1*
X15654D2*
X16787D1*
X18351D2*
X19197D1*
X19813D2*
X23245D1*
X24889D2*
X25002D1*
X4132Y9287D2*
X4560D1*
X5574D2*
X9188D1*
X10497D2*
X11098D1*
X11469D2*
X14346D1*
X15654D2*
X16787D1*
X18351D2*
X19197D1*
X19852D2*
X23254D1*
X24880D2*
X25002D1*
X4132Y9226D2*
X4653D1*
X5481D2*
X9188D1*
X10497D2*
X11160D1*
X11531D2*
X14346D1*
X15654D2*
X16787D1*
X18351D2*
X19197D1*
X19858D2*
X23268D1*
X24866D2*
X25002D1*
X4132Y9164D2*
X4787D1*
X5347D2*
X9188D1*
X10497D2*
X11221D1*
X11592D2*
X14346D1*
X15654D2*
X16787D1*
X18351D2*
X19197D1*
X19858D2*
X23287D1*
X24846D2*
X25002D1*
X4132Y9102D2*
X11283D1*
X11654D2*
X16787D1*
X18351D2*
X19197D1*
X19858D2*
X23312D1*
X24822D2*
X25002D1*
X4132Y9041D2*
X11345D1*
X11716D2*
X16787D1*
X18351D2*
X19168D1*
X19887D2*
X23343D1*
X24791D2*
X25002D1*
X4132Y8979D2*
X11406D1*
X11777D2*
X16787D1*
X17564D2*
X19168D1*
X19887D2*
X23380D1*
X24754D2*
X25002D1*
X4132Y8917D2*
X11468D1*
X11839D2*
X16795D1*
X17555D2*
X19168D1*
X19887D2*
X23426D1*
X24708D2*
X25002D1*
X8699Y8856D2*
X11530D1*
X11901D2*
X19168D1*
X19887D2*
X23482D1*
X24651D2*
X25002D1*
X8699Y8794D2*
X11591D1*
X11962D2*
X19168D1*
X19887D2*
X23551D1*
X24583D2*
X25002D1*
X8699Y8732D2*
X11653D1*
X12025D2*
X19168D1*
X19887D2*
X23641D1*
X24493D2*
X25002D1*
X8699Y8671D2*
X11715D1*
X12087D2*
X19168D1*
X19887D2*
X23769D1*
X24365D2*
X25002D1*
X8699Y8609D2*
X11776D1*
X12148D2*
X19168D1*
X19887D2*
X25002D1*
X8699Y8547D2*
X11838D1*
X12210D2*
X19168D1*
X19887D2*
X25002D1*
X8699Y8486D2*
X11900D1*
X12272D2*
X25002D1*
X8699Y8424D2*
X11961D1*
X13258D2*
X19168D1*
X19887D2*
X25002D1*
X8699Y8362D2*
X9188D1*
X10812D2*
X12023D1*
X13320D2*
X14031D1*
X15654D2*
X19168D1*
X19887D2*
X25002D1*
X8699Y8301D2*
X9188D1*
X10812D2*
X12085D1*
X13382D2*
X14031D1*
X15654D2*
X19168D1*
X19887D2*
X25002D1*
X8699Y8239D2*
X9188D1*
X10812D2*
X12151D1*
X13443D2*
X14031D1*
X15654D2*
X19168D1*
X19887D2*
X25002D1*
X8699Y8177D2*
X9188D1*
X10812D2*
X13133D1*
X13505D2*
X14031D1*
X15654D2*
X19168D1*
X19887D2*
X25002D1*
X8699Y8115D2*
X9188D1*
X10812D2*
X13195D1*
X13567D2*
X14031D1*
X15654D2*
X19168D1*
X19887D2*
X25002D1*
X8699Y8054D2*
X9188D1*
X10812D2*
X13256D1*
X13628D2*
X14031D1*
X15654D2*
X19168D1*
X19887D2*
X25002D1*
X8699Y7992D2*
X9188D1*
X10812D2*
X13318D1*
X13682D2*
X14031D1*
X15654D2*
X19168D1*
X19887D2*
X25002D1*
X8699Y7930D2*
X9188D1*
X10812D2*
X10901D1*
X11658D2*
X12042D1*
X12800D2*
X13184D1*
X13942D2*
X14031D1*
X15654D2*
X19168D1*
X19887D2*
X25002D1*
X8699Y7869D2*
X9188D1*
X10812D2*
X10901D1*
X11658D2*
X12042D1*
X12800D2*
X13184D1*
X13942D2*
X14031D1*
X15654D2*
X19168D1*
X19887D2*
X25002D1*
X8699Y7807D2*
X9188D1*
X10812D2*
X10901D1*
X11658D2*
X12042D1*
X12800D2*
X13184D1*
X13942D2*
X14031D1*
X15654D2*
X19197D1*
X19464D2*
X19591D1*
X19858D2*
X25002D1*
X8699Y7745D2*
X9188D1*
X10812D2*
X10901D1*
X11658D2*
X12042D1*
X12800D2*
X13184D1*
X13942D2*
X14031D1*
X15654D2*
X18920D1*
X19464D2*
X19591D1*
X19858D2*
X25002D1*
X8699Y7684D2*
X9188D1*
X10812D2*
X10901D1*
X11658D2*
X12042D1*
X12800D2*
X13184D1*
X13942D2*
X14031D1*
X15654D2*
X18873D1*
X19485D2*
X19570D1*
X19858D2*
X25002D1*
X8699Y7622D2*
X9188D1*
X10812D2*
X10901D1*
X11658D2*
X12042D1*
X12800D2*
X13184D1*
X13942D2*
X14031D1*
X15654D2*
X18855D1*
X19503D2*
X19552D1*
X19852D2*
X25002D1*
X8699Y7560D2*
X9188D1*
X10812D2*
X10901D1*
X11658D2*
X12042D1*
X12800D2*
X13184D1*
X13942D2*
X14031D1*
X15654D2*
X17416D1*
X18410D2*
X18853D1*
X20517D2*
X20960D1*
X21954D2*
X25002D1*
X8699Y7499D2*
X9188D1*
X10812D2*
X10901D1*
X11658D2*
X12042D1*
X12800D2*
X13184D1*
X13942D2*
X14031D1*
X15654D2*
X17416D1*
X18410D2*
X18853D1*
X20517D2*
X20960D1*
X21954D2*
X25002D1*
X8699Y7437D2*
X9188D1*
X10812D2*
X10901D1*
X11658D2*
X12042D1*
X12800D2*
X13184D1*
X13942D2*
X14031D1*
X15654D2*
X17416D1*
X18410D2*
X18672D1*
X20517D2*
X20960D1*
X21954D2*
X25002D1*
X8699Y7375D2*
X9188D1*
X10812D2*
X10901D1*
X11658D2*
X12042D1*
X12800D2*
X13184D1*
X13942D2*
X14031D1*
X15654D2*
X17416D1*
X18410D2*
X18620D1*
X20517D2*
X20960D1*
X21954D2*
X25002D1*
X8699Y7314D2*
X9188D1*
X10812D2*
X10901D1*
X11658D2*
X12042D1*
X12800D2*
X13184D1*
X13942D2*
X14031D1*
X15654D2*
X17416D1*
X18410D2*
X18600D1*
X20517D2*
X20960D1*
X21954D2*
X25002D1*
X8699Y7252D2*
X9188D1*
X10812D2*
X10901D1*
X11658D2*
X12042D1*
X12800D2*
X13184D1*
X13942D2*
X14031D1*
X15654D2*
X17416D1*
X18410D2*
X18600D1*
X20517D2*
X20960D1*
X21954D2*
X25002D1*
X8699Y7190D2*
X10901D1*
X11658D2*
X12042D1*
X12800D2*
X13184D1*
X13942D2*
X17416D1*
X18410D2*
X18621D1*
X20517D2*
X20960D1*
X21954D2*
X25002D1*
X8699Y7129D2*
X10901D1*
X11658D2*
X12042D1*
X12800D2*
X13184D1*
X13942D2*
X17416D1*
X18410D2*
X18674D1*
X20517D2*
X20960D1*
X21954D2*
X25002D1*
X8699Y7067D2*
X10901D1*
X11658D2*
X12042D1*
X12800D2*
X13184D1*
X13942D2*
X17416D1*
X18410D2*
X18655D1*
X20517D2*
X20960D1*
X21954D2*
X25002D1*
X8699Y7005D2*
X10901D1*
X11658D2*
X12042D1*
X12800D2*
X13184D1*
X13942D2*
X17416D1*
X18410D2*
X18613D1*
X20517D2*
X20960D1*
X21954D2*
X25002D1*
X8699Y6944D2*
X10901D1*
X11658D2*
X12042D1*
X12800D2*
X13184D1*
X13942D2*
X17416D1*
X18410D2*
X18599D1*
X20517D2*
X20960D1*
X21954D2*
X25002D1*
X8699Y6882D2*
X10901D1*
X11658D2*
X12042D1*
X12800D2*
X13184D1*
X13942D2*
X17416D1*
X18410D2*
X18603D1*
X20517D2*
X20960D1*
X21954D2*
X25002D1*
X8699Y6820D2*
X10901D1*
X11658D2*
X12042D1*
X12800D2*
X13184D1*
X13942D2*
X17416D1*
X18410D2*
X18631D1*
X20517D2*
X20960D1*
X21954D2*
X25002D1*
X8699Y6759D2*
X10901D1*
X11658D2*
X12042D1*
X12800D2*
X13184D1*
X13942D2*
X17416D1*
X18410D2*
X18687D1*
X20517D2*
X20960D1*
X21954D2*
X25002D1*
X8699Y6697D2*
X10901D1*
X11658D2*
X12042D1*
X12800D2*
X13184D1*
X13942D2*
X17416D1*
X18410D2*
X18627D1*
X20517D2*
X20960D1*
X21954D2*
X25002D1*
X8699Y6635D2*
X10904D1*
X11655D2*
X17416D1*
X18410D2*
X18601D1*
X20517D2*
X20960D1*
X21954D2*
X25002D1*
X8699Y6573D2*
X10904D1*
X11655D2*
X17416D1*
X18410D2*
X18599D1*
X20517D2*
X20960D1*
X21954D2*
X25002D1*
X8699Y6512D2*
X10904D1*
X11655D2*
X17416D1*
X18410D2*
X18616D1*
X20517D2*
X20960D1*
X21954D2*
X25002D1*
X8699Y6450D2*
X10904D1*
X11655D2*
X17416D1*
X18410D2*
X18662D1*
X20517D2*
X20960D1*
X21954D2*
X25002D1*
X8699Y6388D2*
X10904D1*
X11655D2*
X25002D1*
X16952Y6327D2*
X25002D1*
X16966Y6265D2*
X25002D1*
X16966Y6203D2*
X18648D1*
X18990D2*
X20380D1*
X20722D2*
X25002D1*
X16966Y6142D2*
X18589D1*
X19049D2*
X20321D1*
X20781D2*
X25002D1*
X16966Y6080D2*
X18556D1*
X19082D2*
X20288D1*
X20814D2*
X25002D1*
X16966Y6018D2*
X18540D1*
X19097D2*
X20273D1*
X20830D2*
X25002D1*
X16966Y5957D2*
X18539D1*
X19098D2*
X20272D1*
X20831D2*
X25002D1*
X16966Y5895D2*
X18553D1*
X19085D2*
X20286D1*
X20817D2*
X25002D1*
X16966Y5833D2*
X18584D1*
X19054D2*
X20316D1*
X20786D2*
X25002D1*
X16966Y5772D2*
X18640D1*
X18998D2*
X20372D1*
X20730D2*
X25002D1*
X16966Y5710D2*
X25002D1*
X16966Y5648D2*
X25002D1*
X16966Y5587D2*
X25002D1*
X16966Y5525D2*
X25002D1*
X16966Y5463D2*
X25002D1*
X16966Y5402D2*
X17416D1*
X18410D2*
X20960D1*
X21954D2*
X25002D1*
X16966Y5340D2*
X17416D1*
X18410D2*
X20960D1*
X21954D2*
X25002D1*
X16966Y5278D2*
X17416D1*
X18410D2*
X20960D1*
X21954D2*
X25002D1*
X16966Y5217D2*
X17416D1*
X18410D2*
X20960D1*
X21954D2*
X25002D1*
X16966Y5155D2*
X17416D1*
X18410D2*
X20960D1*
X21954D2*
X25002D1*
X16966Y5093D2*
X17416D1*
X18410D2*
X20960D1*
X21954D2*
X25002D1*
X16966Y5031D2*
X17416D1*
X18410D2*
X20960D1*
X21954D2*
X25002D1*
X16966Y4970D2*
X17416D1*
X18410D2*
X20960D1*
X21954D2*
X25002D1*
X16966Y4908D2*
X17416D1*
X18410D2*
X20960D1*
X21954D2*
X25002D1*
X16966Y4846D2*
X17416D1*
X18410D2*
X20960D1*
X21954D2*
X25002D1*
X16966Y4785D2*
X17416D1*
X18410D2*
X20960D1*
X21954D2*
X25002D1*
X16966Y4723D2*
X17416D1*
X18410D2*
X20960D1*
X21954D2*
X25002D1*
X16966Y4661D2*
X17416D1*
X18410D2*
X20960D1*
X21954D2*
X25002D1*
X16966Y4600D2*
X17416D1*
X18410D2*
X20960D1*
X21954D2*
X25002D1*
X16966Y4538D2*
X17416D1*
X18410D2*
X20960D1*
X21954D2*
X25002D1*
X16966Y4476D2*
X17416D1*
X18410D2*
X20960D1*
X21954D2*
X25002D1*
X16966Y4415D2*
X17416D1*
X18410D2*
X20960D1*
X21954D2*
X25002D1*
X16966Y4353D2*
X17416D1*
X18410D2*
X20960D1*
X21954D2*
X25002D1*
X16966Y4291D2*
X17416D1*
X18410D2*
X20960D1*
X21954D2*
X25002D1*
X16966Y4230D2*
X17416D1*
X18410D2*
X20960D1*
X21954D2*
X25002D1*
X16966Y4168D2*
X25002D1*
X10092Y21219D2*
X10121D1*
X10113Y21222D1*
X10060Y21223D1*
X10040Y21222D1*
X9667D1*
Y21652D1*
X10491D1*
Y21620D1*
X10543Y21618D1*
X10574Y21610D1*
X10602Y21597D1*
X10628Y21579D1*
X10651Y21558D1*
X10670Y21533D1*
X10685Y21505D1*
X10694Y21475D1*
X10699Y21433D1*
X10696Y21402D1*
X10688Y21371D1*
X10676Y21343D1*
X10658Y21316D1*
X10637Y21294D1*
X10611Y21275D1*
X10583Y21260D1*
X10553Y21251D1*
X10522Y21246D1*
X10490Y21247D1*
X10491Y21222D1*
X10431D1*
X10438Y21219D1*
X10491D1*
Y21191D1*
X10543Y21188D1*
X10574Y21181D1*
X10602Y21168D1*
X10628Y21150D1*
X10651Y21129D1*
X10670Y21104D1*
X10685Y21076D1*
X10694Y21046D1*
X10699Y21004D1*
X10696Y20973D1*
X10688Y20942D1*
X10680Y20923D1*
X10967Y20924D1*
X10966Y20949D1*
X10927Y20988D1*
X10883Y21003D1*
X10856Y21019D1*
X10832Y21039D1*
X10812Y21063D1*
X10796Y21090D1*
X10785Y21119D1*
X10779Y21150D1*
X10778Y21182D1*
X10782Y21213D1*
X10792Y21243D1*
X10806Y21271D1*
X10825Y21296D1*
X10848Y21318D1*
X10874Y21335D1*
X10903Y21348D1*
X10933Y21356D1*
X10964Y21358D1*
X10996Y21356D1*
X11026Y21348D1*
X11055Y21335D1*
X11081Y21318D1*
X11104Y21296D1*
X11123Y21271D1*
X11137Y21243D1*
X11145Y21220D1*
X11278Y21219D1*
X11402D1*
X11426Y21251D1*
X11467Y21292D1*
Y21635D1*
X11143D1*
X10749D1*
Y22479D1*
X11164D1*
X11173Y22523D1*
X11180Y22541D1*
X10749D1*
Y23384D1*
X11573D1*
Y23092D1*
X11682Y23200D1*
X11707Y23219D1*
X11735Y23232D1*
X11772Y23237D1*
X12265D1*
Y23325D1*
X12463D1*
X12462Y23420D1*
X12451Y23427D1*
X11990D1*
Y24093D1*
X12577D1*
Y23746D1*
X12659Y23664D1*
Y24253D1*
X12620D1*
Y24684D1*
X12640D1*
X12639Y24725D1*
X12620Y24726D1*
Y24746D1*
X12578D1*
X12577Y24555D1*
Y24332D1*
X12147D1*
Y24746D1*
X12144Y24743D1*
Y24332D1*
X11714D1*
Y24746D1*
X11711Y24731D1*
Y24332D1*
X11691D1*
Y24264D1*
Y24094D1*
X11790Y24093D1*
Y23427D1*
X11202D1*
Y24093D1*
X11302D1*
X11301Y24201D1*
Y24332D1*
X11281D1*
X11282Y24762D1*
X11281Y24789D1*
Y25156D1*
X11711D1*
Y25135D1*
X11714Y25156D1*
X12144D1*
Y25135D1*
X12147Y25156D1*
X12577D1*
Y25135D1*
X12619Y25136D1*
X12620Y25327D1*
Y25550D1*
X13050D1*
Y24726D1*
X13029D1*
X13030Y24684D1*
X13050Y24683D1*
X13063Y24708D1*
X13092Y24795D1*
X13093Y25156D1*
X13092Y25183D1*
Y25550D1*
X13113D1*
X13112Y25571D1*
X13114Y25602D1*
X13122Y25633D1*
X13134Y25662D1*
X13151Y25688D1*
X13172Y25712D1*
X13196Y25732D1*
X13223Y25747D1*
X13253Y25759D1*
X13284Y25765D1*
X13315Y25766D1*
X13346Y25762D1*
X13377Y25754D1*
X13405Y25740D1*
X13431Y25722D1*
X13453Y25700D1*
X13472Y25675D1*
X13487Y25647D1*
X13497Y25617D1*
X13503Y25571D1*
Y25550D1*
X13522D1*
X13521Y25120D1*
X13522Y25093D1*
Y24726D1*
X13480D1*
X13444Y24614D1*
X13443Y24253D1*
X13423D1*
X13424Y24212D1*
X13443Y24211D1*
Y23789D1*
X13456Y23799D1*
X13739Y24125D1*
X13919Y24332D1*
Y24526D1*
Y24920D1*
X13959D1*
X13958Y24962D1*
X13919D1*
X13920Y25392D1*
X13919Y25419D1*
Y25786D1*
X14349D1*
Y25746D1*
X14352Y25786D1*
X14392D1*
X14352Y25789D1*
Y25829D1*
X14286Y25828D1*
X13919D1*
X13920Y26258D1*
X13919Y26253D1*
Y26262D1*
X13877Y26261D1*
Y26222D1*
X13446Y26223D1*
X13426Y26222D1*
X13053D1*
Y26652D1*
X13877D1*
Y26612D1*
X13918Y26613D1*
X13919Y26652D1*
X14349D1*
Y26612D1*
X14352Y26652D1*
X14392D1*
X14391Y26720D1*
Y26891D1*
X14352D1*
X14353Y27321D1*
X14352Y27348D1*
Y27577D1*
X14203Y27727D1*
X14185Y27752D1*
X14176Y27783D1*
X14175Y27827D1*
Y29237D1*
X14020Y29238D1*
Y31308D1*
X13373Y31307D1*
X13374Y31287D1*
Y29238D1*
X12280D1*
Y31307D1*
X4126D1*
Y8890D1*
X8661D1*
X8688Y8874D1*
X8693Y8858D1*
Y6331D1*
X10909D1*
Y6655D1*
X10907D1*
Y7951D1*
X11652D1*
Y6655D1*
X11649D1*
X11650Y6330D1*
X11717Y6331D1*
X16929D1*
X16956Y6315D1*
X16961Y6299D1*
Y4126D1*
X25008D1*
Y31307D1*
X16854Y31306D1*
Y29238D1*
X15760D1*
Y31307D1*
X15114Y31306D1*
Y29238D1*
X14959D1*
Y27795D1*
X14954Y27764D1*
X14939Y27736D1*
X14909Y27704D1*
X14783Y27578D1*
X14782Y27285D1*
Y27281D1*
X14824Y27282D1*
Y27321D1*
X15254Y27320D1*
X15281Y27321D1*
X15648D1*
Y27275D1*
X15674Y27264D1*
X15724Y27233D1*
X15759Y27208D1*
X15818Y27154D1*
X15846Y27123D1*
X15882Y27076D1*
X15905Y27040D1*
X15940Y26968D1*
X15955Y26929D1*
X15970Y26872D1*
X15978Y26829D1*
X15984Y26750D1*
X15983Y26524D1*
X15982Y23511D1*
X15978Y23471D1*
X15966Y23410D1*
X15945Y23350D1*
X15917Y23294D1*
X15882Y23242D1*
X15841Y23195D1*
X15794Y23153D1*
X15742Y23118D1*
X15688Y23091D1*
X15687Y22659D1*
X15688Y22550D1*
X15687Y22246D1*
X15688Y22225D1*
Y21852D1*
X15257D1*
Y22306D1*
X15075Y22305D1*
X14389D1*
X14388Y22265D1*
X14177D1*
X14242Y22262D1*
X14388Y22261D1*
X14409Y22262D1*
X14782D1*
Y21832D1*
X14568D1*
X14641Y21760D1*
X14807D1*
X14949D1*
Y21584D1*
X15099D1*
X15100Y21613D1*
X15530Y21612D1*
X15550Y21613D1*
X15924D1*
Y20769D1*
X15100D1*
Y20798D1*
X15072D1*
X15051Y20776D1*
X15026Y20757D1*
X14997Y20744D1*
X14961Y20739D1*
X14488D1*
X14457Y20743D1*
X14428Y20754D1*
X14398Y20776D1*
X14257Y20918D1*
X14091Y20917D1*
X14047D1*
X14285Y20678D1*
X17496D1*
X17585Y20685D1*
X17669Y20703D1*
X17751Y20732D1*
X17828Y20770D1*
X17899Y20819D1*
X17964Y20876D1*
X18021Y20941D1*
X18069Y21012D1*
X18108Y21089D1*
X18136Y21171D1*
X18153Y21255D1*
X18160Y21345D1*
Y24316D1*
X18169Y24520D1*
X18193Y24722D1*
X18232Y24921D1*
X18286Y25118D1*
X18354Y25309D1*
X18436Y25496D1*
X18532Y25675D1*
X18641Y25847D1*
X18762Y26010D1*
X18895Y26164D1*
X19039Y26308D1*
X19194Y26441D1*
X19358Y26561D1*
X19530Y26669D1*
X19710Y26765D1*
X19896Y26846D1*
X20088Y26914D1*
X20285Y26967D1*
X20484Y27005D1*
X20687Y27028D1*
X20917Y27037D1*
X23688D1*
X23704Y27087D1*
X23733Y27143D1*
X23770Y27193D1*
X23815Y27238D1*
X23866Y27274D1*
X23923Y27302D1*
X23983Y27320D1*
X24045Y27329D1*
X24108Y27327D1*
X24170Y27316D1*
X24229Y27294D1*
X24284Y27264D1*
X24334Y27225D1*
X24376Y27178D1*
X24411Y27126D1*
X24437Y27068D1*
X24453Y27008D1*
X24459Y26945D1*
X24458Y26906D1*
X24448Y26843D1*
X24428Y26784D1*
X24399Y26728D1*
X24361Y26678D1*
X24316Y26634D1*
X24264Y26598D1*
X24207Y26571D1*
X24147Y26553D1*
X24085Y26545D1*
X24022Y26547D1*
X23960Y26560D1*
X23901Y26581D1*
X23846Y26613D1*
X23797Y26652D1*
X23755Y26699D1*
X23721Y26752D1*
X23706Y26783D1*
X22591Y26782D1*
X20860Y26781D1*
X20700Y26774D1*
X20517Y26753D1*
X20336Y26718D1*
X20158Y26669D1*
X19984Y26607D1*
X19815Y26533D1*
X19652Y26446D1*
X19496Y26348D1*
X19347Y26238D1*
X19208Y26117D1*
X19077Y25987D1*
X18957Y25847D1*
X18847Y25698D1*
X18749Y25542D1*
X18662Y25379D1*
X18588Y25210D1*
X18527Y25036D1*
X18479Y24858D1*
X18444Y24676D1*
X18422Y24493D1*
X18415Y24280D1*
X18414Y21329D1*
X18404Y21210D1*
X18378Y21094D1*
X18338Y20982D1*
X18284Y20876D1*
X18217Y20778D1*
X18137Y20690D1*
X18047Y20612D1*
X17948Y20546D1*
X17940Y20542D1*
X18018Y20548D1*
X18121Y20568D1*
X18220Y20602D1*
X18313Y20648D1*
X18400Y20706D1*
X18478Y20775D1*
X18547Y20853D1*
X18605Y20940D1*
X18651Y21034D1*
X18684Y21133D1*
X18705Y21235D1*
X18711Y21370D1*
X18713Y23756D1*
X18719Y23929D1*
X18744Y24131D1*
X18787Y24331D1*
X18848Y24526D1*
X18926Y24715D1*
X19020Y24896D1*
X19129Y25068D1*
X19254Y25230D1*
X19392Y25380D1*
X19543Y25517D1*
X19705Y25641D1*
X19878Y25750D1*
X20059Y25843D1*
X20249Y25920D1*
X20444Y25979D1*
X20644Y26021D1*
X20846Y26046D1*
X21075Y26052D1*
X23692D1*
X23704Y26087D1*
X23733Y26143D1*
X23770Y26193D1*
X23815Y26238D1*
X23866Y26274D1*
X23923Y26302D1*
X23983Y26320D1*
X24045Y26329D1*
X24108Y26327D1*
X24170Y26316D1*
X24229Y26294D1*
X24284Y26264D1*
X24334Y26225D1*
X24376Y26178D1*
X24411Y26126D1*
X24437Y26068D1*
X24453Y26008D1*
X24459Y25945D1*
X24458Y25906D1*
X24448Y25843D1*
X24428Y25784D1*
X24399Y25728D1*
X24361Y25678D1*
X24316Y25634D1*
X24264Y25598D1*
X24207Y25571D1*
X24147Y25553D1*
X24085Y25545D1*
X24022Y25547D1*
X23960Y25560D1*
X23901Y25581D1*
X23846Y25613D1*
X23797Y25652D1*
X23755Y25699D1*
X23721Y25752D1*
X23701Y25797D1*
X23268Y25798D1*
X21016Y25797D1*
X20860Y25792D1*
X20679Y25770D1*
X20502Y25732D1*
X20328Y25678D1*
X20160Y25609D1*
X19999Y25526D1*
X19845Y25429D1*
X19701Y25318D1*
X19567Y25196D1*
X19444Y25062D1*
X19334Y24917D1*
X19237Y24764D1*
X19154Y24602D1*
X19085Y24434D1*
X19032Y24261D1*
X18994Y24083D1*
X18972Y23903D1*
X18966Y23689D1*
X18965Y21330D1*
X18955Y21193D1*
X18928Y21058D1*
X18882Y20928D1*
X18821Y20805D1*
X18743Y20691D1*
X18652Y20589D1*
X18547Y20499D1*
X18432Y20423D1*
X18400Y20407D1*
X18467Y20412D1*
X18586Y20437D1*
X18700Y20477D1*
X18808Y20532D1*
X18908Y20600D1*
X18999Y20681D1*
X19077Y20773D1*
X19144Y20874D1*
X19196Y20983D1*
X19234Y21099D1*
X19256Y21218D1*
X19263Y21370D1*
Y23176D1*
X19274Y23379D1*
X19307Y23579D1*
X19360Y23774D1*
X19434Y23963D1*
X19526Y24144D1*
X19637Y24313D1*
X19766Y24471D1*
X19909Y24613D1*
X20067Y24741D1*
X20238Y24850D1*
X20419Y24942D1*
X20608Y25014D1*
X20804Y25066D1*
X21005Y25097D1*
X21201Y25107D1*
X23714D1*
X23733Y25143D1*
X23770Y25193D1*
X23815Y25238D1*
X23866Y25274D1*
X23923Y25302D1*
X23983Y25320D1*
X24045Y25329D1*
X24108Y25327D1*
X24170Y25316D1*
X24229Y25294D1*
X24284Y25264D1*
X24334Y25225D1*
X24376Y25178D1*
X24411Y25126D1*
X24437Y25068D1*
X24453Y25008D1*
X24459Y24945D1*
X24458Y24906D1*
X24448Y24843D1*
X24428Y24784D1*
X24399Y24728D1*
X24361Y24678D1*
X24316Y24634D1*
X24264Y24598D1*
X24207Y24571D1*
X24147Y24553D1*
X24085Y24545D1*
X24022Y24547D1*
X23960Y24560D1*
X23901Y24581D1*
X23846Y24613D1*
X23797Y24652D1*
X23755Y24699D1*
X23721Y24752D1*
X23696Y24809D1*
X23684Y24854D1*
X23520Y24853D1*
X21176Y24852D1*
X21024Y24844D1*
X20850Y24816D1*
X20680Y24770D1*
X20515Y24707D1*
X20358Y24626D1*
X20211Y24530D1*
X20074Y24419D1*
X19949Y24295D1*
X19838Y24158D1*
X19742Y24010D1*
X19662Y23853D1*
X19599Y23688D1*
X19554Y23518D1*
X19526Y23344D1*
X19517Y23138D1*
Y21332D1*
X19507Y21177D1*
X19477Y21026D1*
X19428Y20880D1*
X19360Y20741D1*
X19275Y20612D1*
X19173Y20496D1*
X19057Y20394D1*
X18929Y20308D1*
X18856Y20271D1*
X18915Y20275D1*
X19049Y20303D1*
X19178Y20348D1*
X19300Y20410D1*
X19413Y20487D1*
X19515Y20578D1*
X19604Y20681D1*
X19678Y20795D1*
X19738Y20918D1*
X19780Y21048D1*
X19806Y21182D1*
X19814Y21350D1*
X19815Y22555D1*
X19822Y22725D1*
X19856Y22922D1*
X19917Y23114D1*
X20003Y23295D1*
X20112Y23464D1*
X20243Y23616D1*
X20393Y23750D1*
X20560Y23862D1*
X20740Y23951D1*
X20930Y24015D1*
X21128Y24053D1*
X21319Y24064D1*
X23696D1*
X23717Y24115D1*
X23750Y24169D1*
X23792Y24216D1*
X23840Y24257D1*
X23894Y24289D1*
X23952Y24312D1*
X24014Y24326D1*
X24077Y24329D1*
X24139Y24323D1*
X24200Y24306D1*
X24257Y24280D1*
X24310Y24245D1*
X24356Y24202D1*
X24394Y24153D1*
X24425Y24098D1*
X24446Y24038D1*
X24457Y23977D1*
X24459Y23937D1*
X24454Y23874D1*
X24439Y23813D1*
X24415Y23755D1*
X24381Y23702D1*
X24339Y23655D1*
X24291Y23615D1*
X24236Y23583D1*
X24178Y23561D1*
X24116Y23548D1*
X24053Y23545D1*
X23991Y23552D1*
X23930Y23569D1*
X23873Y23596D1*
X23821Y23631D1*
X23775Y23675D1*
X23737Y23725D1*
X23707Y23780D1*
X23696Y23810D1*
X22555D1*
X21321D1*
X21151Y23799D1*
X20987Y23767D1*
X20829Y23713D1*
X20680Y23638D1*
X20543Y23544D1*
X20419Y23432D1*
X20311Y23305D1*
X20221Y23165D1*
X20151Y23013D1*
X20101Y22854D1*
X20074Y22690D1*
X20068Y22488D1*
Y21312D1*
X20057Y21142D1*
X20024Y20976D1*
X19970Y20815D1*
X19895Y20662D1*
X19801Y20521D1*
X19689Y20393D1*
X19562Y20281D1*
X19421Y20186D1*
X19269Y20111D1*
X19108Y20056D1*
X18942Y20022D1*
X18780Y20011D1*
X14194D1*
X14211Y19999D1*
X14232Y19979D1*
X14487D1*
X14880D1*
Y19655D1*
X14923Y19656D1*
Y19979D1*
X15747D1*
Y19775D1*
X15793Y19756D1*
X15819Y19739D1*
X15842Y19717D1*
X15861Y19692D1*
X15876Y19664D1*
X15886Y19629D1*
X15898Y19614D1*
X15913Y19586D1*
X15921Y19555D1*
X15924Y19528D1*
Y19507D1*
X15983Y19506D1*
X15982Y19076D1*
X15983Y19050D1*
Y19025D1*
X16025D1*
Y19073D1*
X16132D1*
X16133Y19156D1*
X16025Y19155D1*
X16026Y19585D1*
X16025Y19605D1*
Y19979D1*
X16495D1*
Y19259D1*
X16827Y19260D1*
X18879D1*
X18910Y19256D1*
X18939Y19245D1*
X18969Y19223D1*
X20623Y17569D1*
X20934Y17568D1*
X20901Y17581D1*
X20846Y17613D1*
X20797Y17652D1*
X20755Y17699D1*
X20721Y17752D1*
X20696Y17809D1*
X20680Y17870D1*
X20675Y17933D1*
X20679Y17996D1*
X20693Y18057D1*
X20717Y18115D1*
X20750Y18169D1*
X20792Y18216D1*
X20840Y18257D1*
X20894Y18289D1*
X20952Y18312D1*
X21014Y18326D1*
X21077Y18329D1*
X21139Y18323D1*
X21200Y18306D1*
X21257Y18280D1*
X21310Y18245D1*
X21356Y18202D1*
X21394Y18153D1*
X21425Y18098D1*
X21446Y18038D1*
X21457Y17977D1*
X21459Y17937D1*
X21454Y17874D1*
X21439Y17813D1*
X21415Y17755D1*
X21381Y17702D1*
X21339Y17655D1*
X21291Y17615D1*
X21236Y17583D1*
X21201Y17568D1*
X21280D1*
X21311Y17564D1*
X21340Y17553D1*
X21369Y17531D1*
X21625Y17275D1*
X21645Y17250D1*
X21657Y17221D1*
X21663Y17185D1*
Y16398D1*
X21659Y16366D1*
X21647Y16337D1*
X21625Y16308D1*
X21421Y16104D1*
X21437Y16068D1*
X21453Y16008D1*
X21459Y15945D1*
X21458Y15906D1*
X21448Y15843D1*
X21428Y15784D1*
X21399Y15728D1*
X21361Y15678D1*
X21316Y15634D1*
X21264Y15598D1*
X21207Y15571D1*
X21147Y15553D1*
X21085Y15545D1*
X21022Y15547D1*
X20960Y15560D1*
X20901Y15581D1*
X20846Y15613D1*
X20797Y15652D1*
X20755Y15699D1*
X20721Y15752D1*
X20696Y15809D1*
X20680Y15870D1*
X20675Y15933D1*
X20679Y15996D1*
X20693Y16057D1*
X20717Y16115D1*
X20750Y16169D1*
X20792Y16216D1*
X20840Y16257D1*
X20894Y16289D1*
X20952Y16312D1*
X21014Y16326D1*
X21077Y16329D1*
X21139Y16323D1*
X21200Y16306D1*
X21244Y16287D1*
X21409Y16451D1*
X21408Y16743D1*
X21381Y16702D1*
X21339Y16655D1*
X21291Y16615D1*
X21236Y16583D1*
X21178Y16561D1*
X21116Y16548D1*
X21053Y16545D1*
X20991Y16552D1*
X20930Y16569D1*
X20873Y16596D1*
X20821Y16631D1*
X20775Y16675D1*
X20737Y16725D1*
X20732Y16734D1*
X20356Y16357D1*
X20226Y16227D1*
Y15766D1*
X20333D1*
X20332Y15336D1*
X20333Y15316D1*
Y14942D1*
X19864D1*
Y15766D1*
X19971D1*
Y16139D1*
X19958Y16153D1*
X19500Y16152D1*
X19579Y16073D1*
X19618Y16070D1*
X19648Y16063D1*
X19677Y16050D1*
X19703Y16032D1*
X19726Y16011D1*
X19745Y15986D1*
X19759Y15958D1*
X19769Y15928D1*
X19774Y15886D1*
X19771Y15854D1*
X19763Y15824D1*
X19750Y15795D1*
X19730Y15766D1*
X19821D1*
X19820Y15336D1*
X19821Y15316D1*
Y14942D1*
X19352D1*
Y15766D1*
X19443D1*
X19434Y15777D1*
X19418Y15805D1*
X19407Y15834D1*
X19401Y15865D1*
X19400Y15893D1*
X19318Y15975D1*
X19225D1*
X19242Y15943D1*
X19252Y15913D1*
X19257Y15871D1*
X19254Y15840D1*
X19246Y15810D1*
X19233Y15781D1*
X19224Y15767D1*
X19310Y15766D1*
X19309Y15336D1*
X19310Y15316D1*
Y14942D1*
X18840D1*
Y15766D1*
X18916D1*
X18901Y15790D1*
X18890Y15819D1*
X18681Y15818D1*
X11693D1*
X11662Y15822D1*
X11632Y15833D1*
X11603Y15855D1*
X10540Y16918D1*
X10521Y16943D1*
X10508Y16972D1*
X10503Y17008D1*
Y18878D1*
X10507Y18909D1*
X10518Y18938D1*
X10540Y18968D1*
X10638Y19066D1*
X10544D1*
X10167Y18688D1*
X10166Y16568D1*
X11529Y15206D1*
X16201D1*
X16232Y15202D1*
X16261Y15191D1*
X16291Y15169D1*
X19558Y11901D1*
X19578Y11876D1*
X19590Y11847D1*
X19596Y11811D1*
Y9560D1*
X19814Y9342D1*
X19834Y9317D1*
X19846Y9288D1*
X19852Y9252D1*
Y9081D1*
X19880D1*
Y8494D1*
X19568Y8495D1*
X19463Y8494D1*
X19371Y8495D1*
X19266Y8494D1*
X19175D1*
Y9081D1*
X19203D1*
X19204Y11118D1*
Y11680D1*
X17459Y13424D1*
X16069Y14814D1*
X11398D1*
X11366Y14818D1*
X11337Y14829D1*
X11308Y14851D1*
X9812Y16347D1*
X9792Y16372D1*
X9780Y16401D1*
X9774Y16437D1*
Y18799D1*
X9778Y18830D1*
X9790Y18860D1*
X9812Y18889D1*
X10382Y19459D1*
X10013D1*
X9300Y18746D1*
Y18579D1*
X9301Y13778D1*
X10806D1*
Y12639D1*
X9300D1*
Y12139D1*
X9384Y12056D1*
X10453D1*
X10484Y12052D1*
X10513Y12041D1*
X10543Y12019D1*
X10602Y11960D1*
X10621Y11935D1*
X10634Y11906D1*
X10639Y11870D1*
Y10591D1*
X10635Y10559D1*
X10624Y10530D1*
X10602Y10501D1*
X10523Y10422D1*
X10497Y10402D1*
X10511Y10411D1*
X10491Y10380D1*
Y10139D1*
X9214D1*
X9246Y10107D1*
X10591D1*
X10622Y10104D1*
X10651Y10092D1*
X10680Y10070D1*
X12278Y8473D1*
X12571Y8474D1*
X13150D1*
X13181Y8470D1*
X13210Y8458D1*
X13240Y8436D1*
X13653Y8023D1*
X13672Y7998D1*
X13685Y7968D1*
X13688Y7952D1*
X13757Y7951D1*
X13936D1*
Y6655D1*
X13190D1*
Y7951D1*
X13365D1*
X13097Y8220D1*
X12224Y8219D1*
X12193Y8223D1*
X12164Y8235D1*
X12135Y8257D1*
X10537Y9854D1*
X10491Y9853D1*
Y9116D1*
X9194D1*
X9193Y9853D1*
X9162Y9857D1*
X9132Y9868D1*
X9103Y9890D1*
X8808Y10186D1*
X8788Y10210D1*
X8776Y10239D1*
X8771Y10276D1*
Y18937D1*
X8774Y18968D1*
X8786Y18997D1*
X8808Y19027D1*
X9733Y19952D1*
X9758Y19971D1*
X9786Y19984D1*
X9823Y19989D1*
X10069Y19991D1*
X10073Y20022D1*
X10083Y20051D1*
X9868Y20050D1*
X9359D1*
X7615Y18306D1*
X6419Y17109D1*
X6437Y17068D1*
X6453Y17008D1*
X6459Y16945D1*
X6458Y16906D1*
X6448Y16843D1*
X6428Y16784D1*
X6399Y16728D1*
X6361Y16678D1*
X6316Y16634D1*
X6264Y16598D1*
X6207Y16571D1*
X6147Y16553D1*
X6085Y16545D1*
X6022Y16547D1*
X5960Y16560D1*
X5901Y16581D1*
X5846Y16613D1*
X5797Y16652D1*
X5755Y16699D1*
X5721Y16752D1*
X5696Y16809D1*
X5680Y16870D1*
X5678Y16887D1*
Y16259D1*
X5791Y16215D1*
X5815Y16238D1*
X5866Y16274D1*
X5923Y16302D1*
X5983Y16320D1*
X6045Y16329D1*
X6108Y16327D1*
X6170Y16316D1*
X6229Y16294D1*
X6284Y16264D1*
X6334Y16225D1*
X6376Y16178D1*
X6411Y16126D1*
X6437Y16068D1*
X6453Y16008D1*
X6459Y15945D1*
X6458Y15906D1*
X6448Y15843D1*
X6428Y15784D1*
X6399Y15728D1*
X6361Y15678D1*
X6316Y15634D1*
X6264Y15598D1*
X6207Y15571D1*
X6147Y15553D1*
X6085Y15545D1*
X6022Y15547D1*
X5960Y15560D1*
X5901Y15581D1*
X5846Y15613D1*
X5797Y15652D1*
X5755Y15699D1*
X5721Y15752D1*
X5696Y15809D1*
X5680Y15870D1*
X5675Y15924D1*
X5342Y16058D1*
X5316Y16034D1*
X5264Y15998D1*
X5207Y15971D1*
X5147Y15953D1*
X5085Y15945D1*
X5022Y15947D1*
X4960Y15960D1*
X4901Y15981D1*
X4846Y16013D1*
X4797Y16052D1*
X4755Y16099D1*
X4721Y16152D1*
X4696Y16209D1*
X4680Y16270D1*
X4675Y16333D1*
X4679Y16396D1*
X4693Y16457D1*
X4717Y16515D1*
X4750Y16569D1*
X4792Y16616D1*
X4840Y16657D1*
X4894Y16689D1*
X4952Y16712D1*
X5014Y16726D1*
X5077Y16729D1*
X5139Y16723D1*
X5200Y16706D1*
X5257Y16680D1*
X5310Y16645D1*
X5356Y16602D1*
X5394Y16553D1*
X5424Y16499D1*
Y17126D1*
X5428Y17157D1*
X5439Y17186D1*
X5461Y17216D1*
X5698Y17452D1*
X5722Y17471D1*
X5751Y17484D1*
X5787Y17489D1*
X6227D1*
X6513Y17776D1*
X6494Y17784D1*
X6467Y17800D1*
X6442Y17821D1*
X6428Y17784D1*
X6399Y17728D1*
X6361Y17678D1*
X6316Y17634D1*
X6264Y17598D1*
X6207Y17571D1*
X6147Y17553D1*
X6085Y17545D1*
X6022Y17547D1*
X5960Y17560D1*
X5901Y17581D1*
X5846Y17613D1*
X5797Y17652D1*
X5755Y17699D1*
X5721Y17752D1*
X5696Y17809D1*
X5680Y17870D1*
X5675Y17922D1*
X5394Y18030D1*
X5336Y18053D1*
X5316Y18034D1*
X5264Y17998D1*
X5207Y17971D1*
X5147Y17953D1*
X5085Y17945D1*
X5022Y17947D1*
X4960Y17960D1*
X4901Y17981D1*
X4846Y18013D1*
X4797Y18052D1*
X4755Y18099D1*
X4721Y18152D1*
X4696Y18209D1*
X4680Y18270D1*
X4675Y18333D1*
X4679Y18396D1*
X4693Y18457D1*
X4717Y18515D1*
X4750Y18569D1*
X4792Y18616D1*
X4840Y18657D1*
X4894Y18689D1*
X4952Y18712D1*
X5014Y18726D1*
X5077Y18729D1*
X5139Y18723D1*
X5200Y18706D1*
X5257Y18680D1*
X5310Y18645D1*
X5356Y18602D1*
X5394Y18553D1*
X5425Y18498D1*
X5446Y18438D1*
X5457Y18377D1*
X5459Y18340D1*
X5787Y18213D1*
X5840Y18257D1*
X5894Y18289D1*
X5952Y18312D1*
X6014Y18326D1*
X6077Y18329D1*
X6139Y18323D1*
X6200Y18306D1*
X6257Y18280D1*
X6310Y18245D1*
X6331Y18227D1*
X6396Y18261D1*
X6425Y18273D1*
X6457Y18277D1*
X6582D1*
X8326Y20021D1*
X8985Y20680D1*
X9010Y20700D1*
X9038Y20712D1*
X9075Y20718D1*
X10519D1*
X10659Y20858D1*
X10671Y20868D1*
X10658Y20887D1*
X10637Y20864D1*
X10611Y20845D1*
X10583Y20831D1*
X10553Y20821D1*
X10522Y20817D1*
X10490Y20818D1*
X10491Y20789D1*
X10060Y20790D1*
X10040Y20789D1*
X9667D1*
Y21219D1*
X10097D1*
Y21222D1*
X10059D1*
X10976Y17265D2*
X10757D1*
Y17060D1*
X10975Y16842D1*
Y17265D1*
X13701Y17774D2*
X13837Y17773D1*
X13857Y17774D1*
X14231D1*
Y17344D1*
X13809Y17343D1*
X13807Y17311D1*
X13795Y17273D1*
X15139D1*
X15140Y17380D1*
X15139Y17401D1*
Y17774D1*
X15983D1*
Y17710D1*
X16025Y17694D1*
Y17715D1*
X16573D1*
Y17598D1*
X16602Y17606D1*
X16634Y17608D1*
X16665Y17606D1*
X16696Y17598D1*
X16724Y17585D1*
X16750Y17568D1*
X16773Y17546D1*
X16792Y17521D1*
X16807Y17493D1*
X16816Y17463D1*
X16821Y17421D1*
X16818Y17390D1*
X16811Y17359D1*
X16798Y17331D1*
X16780Y17305D1*
X16759Y17282D1*
X16733Y17263D1*
X16706Y17248D1*
X16676Y17239D1*
X16644Y17234D1*
X16613Y17235D1*
X16574Y17245D1*
X16573Y17127D1*
X16025D1*
Y17276D1*
X15986Y17299D1*
X15984Y17301D1*
X15983Y17129D1*
X16028Y17085D1*
X16573D1*
Y16497D1*
X16025D1*
Y16729D1*
X15803Y16950D1*
X15553D1*
X15139D1*
Y17018D1*
X13102Y17019D1*
X12776D1*
X12744Y17022D1*
X12715Y17034D1*
X12686Y17056D1*
X12487Y17254D1*
X12490Y17224D1*
X12488Y17193D1*
X12480Y17163D1*
X12467Y17134D1*
X12449Y17108D1*
X12428Y17085D1*
X12403Y17066D1*
X12375Y17051D1*
X12345Y17042D1*
X12314Y17038D1*
X12282D1*
X12251Y17045D1*
X12222Y17056D1*
X12195Y17072D1*
X12171Y17092D1*
X12151Y17116D1*
X12135Y17143D1*
X12123Y17173D1*
X12119Y17195D1*
X12085Y17196D1*
X12055Y17202D1*
X12025Y17213D1*
X11998Y17229D1*
X11974Y17250D1*
X11954Y17274D1*
X11938Y17301D1*
X11926Y17330D1*
X11920Y17361D1*
X11919Y17392D1*
X11924Y17423D1*
X11933Y17453D1*
X11948Y17481D1*
X11967Y17507D1*
X11979Y17518D1*
Y17818D1*
X11951Y17810D1*
X11920Y17805D1*
X11889Y17806D1*
X11858Y17812D1*
X11828Y17823D1*
X11801Y17839D1*
X11777Y17860D1*
X11757Y17884D1*
X11741Y17911D1*
X11730Y17940D1*
X11725Y17962D1*
X11695Y17964D1*
X11688Y17938D1*
X11676Y17909D1*
X11658Y17883D1*
X11643Y17867D1*
Y17513D1*
X12749Y16407D1*
X14335D1*
X16675Y16408D1*
Y16731D1*
X17538D1*
Y16407D1*
X20045D1*
X20666Y17027D1*
X20678Y17038D1*
X20693Y17057D1*
X20717Y17115D1*
X20750Y17169D1*
X20792Y17216D1*
X20840Y17257D1*
X20894Y17289D1*
X20952Y17312D1*
X20959Y17314D1*
X20571D1*
X20540Y17318D1*
X20510Y17329D1*
X20481Y17351D1*
X18827Y19005D1*
X18187Y19006D1*
X18188Y18486D1*
X17639D1*
Y19006D1*
X16926D1*
X16573D1*
Y18486D1*
X16025D1*
X16024Y18771D1*
X15983D1*
Y18683D1*
X15895D1*
Y18641D1*
X15983Y18640D1*
X15982Y18210D1*
X15983Y18190D1*
Y17816D1*
X15553D1*
Y18640D1*
X15640D1*
X15641Y18682D1*
X15553Y18683D1*
Y18894D1*
X15510Y18936D1*
Y18683D1*
X15080D1*
Y19174D1*
X15019D1*
X15018Y18840D1*
X14161D1*
X14163Y18787D1*
Y18576D1*
X14255Y18483D1*
X14738D1*
X15018D1*
Y17856D1*
X15007D1*
X15009Y17803D1*
Y17775D1*
X15097Y17774D1*
Y17344D1*
X14667Y17345D1*
X14647Y17344D1*
X14273D1*
Y17774D1*
X14754D1*
X14755Y17782D1*
X14681Y17855D1*
X14076Y17856D1*
Y18304D1*
X13946Y18433D1*
Y18071D1*
X13942Y18040D1*
X13931Y18010D1*
X13909Y17981D1*
X13711Y17784D1*
X13435Y17344D2*
X13407D1*
Y17746D1*
X13281Y17747D1*
X13277Y17732D1*
Y17597D1*
X13289Y17585D1*
X13308Y17560D1*
X13322Y17532D1*
X13332Y17502D1*
X13337Y17461D1*
X13334Y17429D1*
X13326Y17399D1*
X13313Y17370D1*
X13296Y17344D1*
X13274Y17321D1*
X13249Y17302D1*
X13221Y17288D1*
X13191Y17278D1*
X13160Y17274D1*
X13129Y17275D1*
X13098Y17281D1*
X13068Y17292D1*
X13041Y17308D1*
X13017Y17328D1*
X12997Y17352D1*
X12981Y17379D1*
X12970Y17409D1*
X12964Y17440D1*
X12963Y17471D1*
X12967Y17502D1*
X12977Y17532D1*
X12991Y17560D1*
X13010Y17585D1*
X13022Y17597D1*
Y17795D1*
X13026Y17826D1*
X13038Y17856D1*
X13060Y17885D1*
X13138Y17964D1*
X13163Y17983D1*
X13192Y17996D1*
X13228Y18001D1*
X13570D1*
X13692Y18123D1*
Y18446D1*
X13629D1*
X13647Y18398D1*
X13652Y18356D1*
X13649Y18325D1*
X13641Y18294D1*
X13628Y18266D1*
X13611Y18240D1*
X13589Y18217D1*
X13564Y18198D1*
X13536Y18183D1*
X13506Y18174D1*
X13475Y18169D1*
X13443Y18170D1*
Y18151D1*
X13131Y18152D1*
X13127Y18151D1*
X13021D1*
X13033Y18125D1*
X13052Y18100D1*
X13067Y18072D1*
X13076Y18042D1*
X13081Y18000D1*
X13078Y17969D1*
X13070Y17938D1*
X13058Y17909D1*
X13040Y17883D1*
X13018Y17860D1*
X12993Y17842D1*
X12965Y17827D1*
X12935Y17818D1*
X12904Y17813D1*
X12873Y17814D1*
X12842Y17820D1*
X12813Y17831D1*
X12785Y17847D1*
X12761Y17868D1*
X12741Y17892D1*
X12725Y17919D1*
X12714Y17948D1*
X12711Y17963D1*
X12676Y17964D1*
X12645Y17970D1*
X12628Y17976D1*
X12627Y17473D1*
X12829Y17272D1*
X13448Y17273D1*
X13436Y17321D1*
X13435Y17344D1*
X22218Y12951D2*
X22302Y12950D1*
X22322Y12951D1*
X22695D1*
Y12521D1*
X22301D1*
X22302Y12499D1*
X23209D1*
X23240Y12494D1*
X23267Y12479D1*
X23289Y12456D1*
X23303Y12423D1*
X23306Y12370D1*
Y11852D1*
X22797Y11853D1*
X22768Y11852D1*
X22578D1*
X22577Y11468D1*
Y11153D1*
Y11023D1*
X22617Y11022D1*
Y10706D1*
X22803Y10707D1*
X23168D1*
X23702Y11240D1*
Y12209D1*
Y14792D1*
X23687Y14840D1*
X23676Y14902D1*
Y14964D1*
X23685Y15027D1*
X23704Y15087D1*
X23733Y15143D1*
X23770Y15193D1*
X23815Y15238D1*
X23866Y15274D1*
X23923Y15302D1*
X23983Y15320D1*
X24045Y15329D1*
X24108Y15327D1*
X24170Y15316D1*
X24229Y15294D1*
X24284Y15264D1*
X24334Y15225D1*
X24376Y15178D1*
X24411Y15126D1*
X24437Y15068D1*
X24453Y15008D1*
X24459Y14945D1*
X24458Y14906D1*
X24448Y14843D1*
X24447Y14626D1*
Y10164D1*
X24521Y10120D1*
X24572Y10083D1*
X24620Y10042D1*
X24665Y9998D1*
X24706Y9951D1*
X24744Y9900D1*
X24777Y9847D1*
X24807Y9791D1*
X24832Y9733D1*
X24852Y9674D1*
X24868Y9613D1*
X24879Y9551D1*
X24886Y9488D1*
X24887Y9406D1*
X24882Y9343D1*
X24872Y9280D1*
X24858Y9219D1*
X24839Y9159D1*
X24815Y9101D1*
X24787Y9044D1*
X24755Y8990D1*
X24718Y8939D1*
X24678Y8890D1*
X24635Y8845D1*
X24588Y8803D1*
X24537Y8765D1*
X24484Y8731D1*
X24429Y8701D1*
X24371Y8675D1*
X24312Y8654D1*
X24251Y8638D1*
X24190Y8626D1*
X24127Y8619D1*
X24064Y8617D1*
X24001Y8619D1*
X23939Y8627D1*
X23877Y8639D1*
X23816Y8656D1*
X23757Y8678D1*
X23700Y8704D1*
X23644Y8734D1*
X23592Y8769D1*
X23542Y8807D1*
X23495Y8849D1*
X23452Y8895D1*
X23412Y8944D1*
X23376Y8995D1*
X23344Y9050D1*
X23316Y9106D1*
X23293Y9165D1*
X23275Y9225D1*
X23261Y9286D1*
X23251Y9349D1*
X23247Y9411D1*
X23248Y9474D1*
X23253Y9537D1*
X23265Y9608D1*
X22205D1*
X22174Y9613D1*
X22146Y9627D1*
X22124Y9650D1*
X22110Y9684D1*
X22108Y9736D1*
Y10078D1*
X21960Y9930D1*
X21935Y9910D1*
X21906Y9898D1*
X21870Y9893D1*
X21693D1*
X21662Y9896D1*
X21632Y9908D1*
X21603Y9930D1*
X21314Y10219D1*
X21143Y10218D1*
Y10430D1*
X21100Y10472D1*
X21101Y10384D1*
Y10218D1*
X20671D1*
Y10928D1*
X20590Y10927D1*
X20589Y10907D1*
X20580D1*
X20587Y10887D1*
X20589Y10835D1*
Y9843D1*
X20584Y9812D1*
X20569Y9784D1*
X20547Y9762D1*
X20513Y9748D1*
X20461Y9746D1*
X19980D1*
X19949Y9751D1*
X19922Y9765D1*
X19900Y9788D1*
X19886Y9821D1*
X19883Y9874D1*
Y10866D1*
X19888Y10897D1*
X19903Y10925D1*
X19926Y10946D1*
X19959Y10961D1*
X20012Y10963D1*
X20080D1*
Y11337D1*
Y11594D1*
X20085Y11625D1*
X20100Y11653D1*
X20123Y11675D1*
X20156Y11689D1*
X20209Y11691D1*
X20906D1*
X20907Y11844D1*
Y12440D1*
X21420D1*
X21419Y12622D1*
Y12854D1*
X21424Y12885D1*
X21438Y12913D1*
X21461Y12935D1*
X21495Y12949D1*
X21547Y12951D1*
X22218D1*
X21733Y11042D2*
X21900D1*
Y11153D1*
X21871D1*
X21872Y11564D1*
X21871Y11569D1*
Y11852D1*
X21731D1*
Y11506D1*
Y11246D1*
X21748Y11213D1*
X21757Y11184D1*
X21762Y11142D1*
X21759Y11110D1*
X21751Y11080D1*
X21733Y11042D1*
X21889Y10218D2*
X21674D1*
X21745Y10147D1*
X21818D1*
X21888Y10217D1*
X17872Y11928D2*
X18266D1*
Y11585D1*
X18287Y11573D1*
X18309Y11551D1*
X18323Y11517D1*
X18325Y11465D1*
X18324Y10789D1*
X18325Y10784D1*
Y9962D1*
X18111D1*
X18220Y9854D1*
X18240Y9828D1*
X18231Y9841D1*
X18261Y9821D1*
X18345D1*
X18344Y9391D1*
X18345Y9371D1*
Y8997D1*
X17915D1*
Y9800D1*
X17872Y9842D1*
X17873Y9391D1*
Y8997D1*
X17557D1*
X17558Y8957D1*
X17553Y8926D1*
X17538Y8898D1*
X17515Y8876D1*
X17482Y8862D1*
X17429Y8860D1*
X16890D1*
X16859Y8865D1*
X16831Y8879D1*
X16810Y8902D1*
X16795Y8936D1*
X16793Y8988D1*
Y9882D1*
X16798Y9913D1*
X16813Y9941D1*
X16843Y9973D1*
X17195Y10325D1*
X17221Y10343D1*
X17252Y10352D1*
X17295Y10353D1*
X17424D1*
X17428Y10366D1*
X17442Y10393D1*
X17465Y10415D1*
X17499Y10429D1*
X17502Y10432D1*
X17501Y10461D1*
Y11162D1*
X17283Y11163D1*
X17253Y11168D1*
X17225Y11183D1*
X17203Y11205D1*
X17189Y11239D1*
X17186Y11291D1*
Y12087D1*
X17192Y12118D1*
X17206Y12145D1*
X17229Y12167D1*
X17262Y12181D1*
X17315Y12184D1*
X17776D1*
X17807Y12179D1*
X17834Y12164D1*
X17856Y12141D1*
X17870Y12108D1*
X17873Y12055D1*
Y11927D1*
X9226Y10884D2*
X10384D1*
X10385Y11162D1*
X9194Y11163D1*
Y11670D1*
X9025Y11839D1*
Y10328D1*
X9194Y10159D1*
Y10884D1*
X9226D1*
X14383D2*
X15648D1*
Y10139D1*
X14352D1*
Y10884D1*
X14383D1*
Y9861D2*
X15648D1*
Y9116D1*
X14352D1*
Y9861D1*
X14383D1*
Y11908D2*
X15648D1*
Y11163D1*
X14352D1*
Y11908D1*
X14383D1*
X12080Y7951D2*
X12794D1*
Y6655D1*
X12049D1*
Y7951D1*
X12080D1*
Y14369D2*
X12794D1*
Y13072D1*
X12049D1*
Y14369D1*
X12080D1*
X13222D2*
X13936D1*
Y13072D1*
X13190D1*
Y14369D1*
X13222D1*
X10938D2*
X11652D1*
Y13072D1*
X10907D1*
Y14369D1*
X10938D1*
X14043Y8384D2*
X15648D1*
Y7246D1*
X14037D1*
Y8384D1*
X14043D1*
X9201D2*
X10806D1*
Y7246D1*
X9194D1*
Y8384D1*
X9201D1*
X14043Y13778D2*
X15648D1*
Y12639D1*
X14037D1*
Y13778D1*
X14043D1*
X12479Y9431D2*
X11340D1*
Y11593D1*
X13503D1*
Y9431D1*
X12364D1*
X19496Y7567D2*
X19558D1*
Y7618D1*
X19562Y7649D1*
X19573Y7679D1*
X19597Y7710D1*
Y7856D1*
X19568Y7857D1*
X19564Y7856D1*
X19458D1*
Y7710D1*
X19479Y7683D1*
X19492Y7654D1*
X19497Y7618D1*
Y7568D1*
X19553Y7567D1*
X19813D2*
X19880Y7566D1*
X19868Y7567D1*
X20195Y7566D1*
X20208Y7567D1*
X20510D1*
Y6389D1*
X19805Y6390D1*
X19817Y6389D1*
X19490Y6390D1*
X19503Y6389D1*
X19175Y6390D1*
X19188Y6389D1*
X18860D1*
Y6400D1*
X18799Y6399D1*
X18768Y6402D1*
X18737Y6409D1*
X18708Y6421D1*
X18682Y6438D1*
X18658Y6459D1*
X18638Y6484D1*
X18623Y6511D1*
X18611Y6540D1*
X18605Y6571D1*
X18604Y6602D1*
X18608Y6634D1*
X18617Y6664D1*
X18630Y6692D1*
X18648Y6718D1*
X18670Y6741D1*
X18699Y6762D1*
X18682Y6773D1*
X18658Y6794D1*
X18638Y6818D1*
X18623Y6845D1*
X18611Y6875D1*
X18605Y6906D1*
X18604Y6937D1*
X18608Y6968D1*
X18617Y6999D1*
X18630Y7027D1*
X18648Y7053D1*
X18670Y7076D1*
X18695Y7094D1*
X18717Y7106D1*
X18682Y7127D1*
X18658Y7148D1*
X18638Y7172D1*
X18623Y7200D1*
X18611Y7229D1*
X18605Y7260D1*
X18604Y7291D1*
X18608Y7323D1*
X18617Y7353D1*
X18630Y7381D1*
X18648Y7407D1*
X18670Y7430D1*
X18695Y7449D1*
X18723Y7463D1*
X18753Y7473D1*
X18799Y7479D1*
X18859D1*
X18860Y7598D1*
X18862Y7630D1*
X18870Y7660D1*
X18882Y7689D1*
X18899Y7716D1*
X18920Y7739D1*
X18944Y7759D1*
X18971Y7775D1*
X19001Y7786D1*
X19032Y7792D1*
X19063Y7794D1*
X19094Y7790D1*
X19125Y7781D1*
X19153Y7768D1*
X19179Y7750D1*
X19203Y7726D1*
Y7856D1*
X19175D1*
Y8443D1*
X19487Y8442D1*
X19491Y8443D1*
X19880D1*
Y7856D1*
X19852D1*
Y7657D1*
X19848Y7626D1*
X19836Y7597D1*
X19814Y7567D1*
X19868D1*
X20972Y5402D2*
X21947D1*
Y4224D1*
X20966D1*
Y5402D1*
X20972D1*
X17429D2*
X18404D1*
Y4224D1*
X17423D1*
Y5402D1*
X17429D1*
X20972Y7567D2*
X21947D1*
Y6389D1*
X20966D1*
Y7567D1*
X20972D1*
X17429D2*
X18404D1*
Y6389D1*
X17423D1*
Y7567D1*
X17429D1*
X23284Y12951D2*
X23306D1*
Y12521D1*
X22797D1*
Y12951D1*
X22813D1*
X22607Y13158D1*
X22586Y13182D1*
X22568Y13207D1*
X22552Y13235D1*
X22540Y13264D1*
X22530Y13294D1*
X22524Y13324D1*
X22521Y13366D1*
Y17559D1*
X22523Y17590D1*
X22528Y17622D1*
X22536Y17652D1*
X22548Y17681D1*
X22562Y17709D1*
X22580Y17735D1*
X22607Y17767D1*
X22985Y18145D1*
X23009Y18166D1*
X23034Y18184D1*
X23061Y18200D1*
X23090Y18212D1*
X23120Y18222D1*
X23151Y18228D1*
X23193Y18231D1*
X23808D1*
X23840Y18257D1*
X23894Y18289D1*
X23952Y18312D1*
X24014Y18326D1*
X24077Y18329D1*
X24139Y18323D1*
X24200Y18306D1*
X24257Y18280D1*
X24310Y18245D1*
X24356Y18202D1*
X24394Y18153D1*
X24425Y18098D1*
X24446Y18038D1*
X24457Y17977D1*
X24459Y17937D1*
X24454Y17874D1*
X24439Y17813D1*
X24415Y17755D1*
X24381Y17702D1*
X24339Y17655D1*
X24291Y17615D1*
X24236Y17583D1*
X24178Y17561D1*
X24116Y17548D1*
X24053Y17545D1*
X23991Y17552D1*
X23930Y17569D1*
X23873Y17596D1*
X23821Y17631D1*
X23807Y17644D1*
X23314Y17643D1*
X23109Y17438D1*
Y16231D1*
X23808D1*
X23840Y16257D1*
X23894Y16289D1*
X23952Y16312D1*
X24014Y16326D1*
X24077Y16329D1*
X24139Y16323D1*
X24200Y16306D1*
X24257Y16280D1*
X24310Y16245D1*
X24356Y16202D1*
X24394Y16153D1*
X24425Y16098D1*
X24446Y16038D1*
X24457Y15977D1*
X24459Y15937D1*
X24454Y15874D1*
X24439Y15813D1*
X24415Y15755D1*
X24381Y15702D1*
X24339Y15655D1*
X24291Y15615D1*
X24236Y15583D1*
X24178Y15561D1*
X24116Y15548D1*
X24053Y15545D1*
X23991Y15552D1*
X23930Y15569D1*
X23873Y15596D1*
X23821Y15631D1*
X23807Y15644D1*
X23109Y15643D1*
Y14236D1*
Y13487D1*
X23259Y13338D1*
X23280Y13314D1*
X23298Y13289D1*
X23314Y13261D1*
X23327Y13233D1*
X23336Y13202D1*
X23342Y13172D1*
X23345Y13140D1*
X23344Y13109D1*
X23340Y13078D1*
X23333Y13047D1*
X23323Y13017D1*
X23309Y12989D1*
X23285Y12952D1*
X8222Y22991D2*
X8250D1*
X8249Y23032D1*
X8190Y23034D1*
X8170Y23033D1*
X7818D1*
X7860Y22991D1*
X8227Y22990D1*
X8190Y22991D1*
X8222D1*
X8561D2*
X8621D1*
Y22521D1*
X8190Y22522D1*
X8164Y22521D1*
X7797D1*
Y22621D1*
X7761Y22648D1*
X7628Y22781D1*
X7426D1*
X7399Y22728D1*
X7361Y22678D1*
X7316Y22634D1*
X7264Y22598D1*
X7207Y22571D1*
X7147Y22553D1*
X7085Y22545D1*
X7022Y22547D1*
X6960Y22560D1*
X6901Y22581D1*
X6846Y22613D1*
X6797Y22652D1*
X6755Y22699D1*
X6721Y22752D1*
X6696Y22809D1*
X6680Y22870D1*
X6675Y22933D1*
X6679Y22996D1*
X6693Y23057D1*
X6717Y23115D1*
X6750Y23169D1*
X6792Y23216D1*
X6840Y23257D1*
X6894Y23289D1*
X6952Y23312D1*
X7014Y23326D1*
X7077Y23329D1*
X7139Y23323D1*
X7200Y23306D1*
X7257Y23280D1*
X7310Y23245D1*
X7356Y23202D1*
X7394Y23153D1*
X7425Y23098D1*
X7427Y23093D1*
X7693D1*
X7724Y23090D1*
X7754Y23081D1*
X7792Y23057D1*
X7797Y23058D1*
Y23463D1*
X8621D1*
Y23033D1*
X8561D1*
X8562Y22991D1*
X8222Y22479D2*
X8621D1*
Y22009D1*
X8561D1*
X8562Y21968D1*
X8621Y21967D1*
Y21537D1*
X8190Y21538D1*
X8170Y21537D1*
X7797D1*
Y21966D1*
X7650Y21819D1*
X7625Y21799D1*
X7598Y21784D1*
X7567Y21776D1*
X7539Y21773D1*
X7422D1*
X7399Y21728D1*
X7361Y21678D1*
X7316Y21634D1*
X7264Y21598D1*
X7207Y21571D1*
X7147Y21553D1*
X7085Y21545D1*
X7022Y21547D1*
X6960Y21560D1*
X6901Y21581D1*
X6846Y21613D1*
X6797Y21652D1*
X6755Y21699D1*
X6721Y21752D1*
X6696Y21809D1*
X6680Y21870D1*
X6675Y21933D1*
X6679Y21996D1*
X6693Y22057D1*
X6717Y22115D1*
X6750Y22169D1*
X6792Y22216D1*
X6840Y22257D1*
X6894Y22289D1*
X6952Y22312D1*
X7014Y22326D1*
X7077Y22329D1*
X7139Y22323D1*
X7200Y22306D1*
X7257Y22280D1*
X7310Y22245D1*
X7356Y22202D1*
X7394Y22153D1*
X7425Y22098D1*
X7430Y22086D1*
X7475Y22085D1*
X7724Y22335D1*
X7749Y22355D1*
X7787Y22373D1*
X7797Y22387D1*
Y22479D1*
X8227Y22478D1*
X8190Y22479D1*
X8222D1*
X19091Y5953D2*
X19086Y5922D1*
X19077Y5892D1*
X19065Y5863D1*
X19049Y5835D1*
X19030Y5810D1*
X19009Y5787D1*
X18985Y5766D1*
X18959Y5749D1*
X18931Y5734D1*
X18902Y5723D1*
X18871Y5715D1*
X18840Y5711D1*
X18809Y5710D1*
X18777Y5713D1*
X18746Y5720D1*
X18717Y5730D1*
X18688Y5743D1*
X18661Y5760D1*
X18637Y5779D1*
X18614Y5802D1*
X18595Y5826D1*
X18578Y5853D1*
X18565Y5881D1*
X18555Y5911D1*
X18548Y5942D1*
X18545Y5973D1*
Y6005D1*
X18550Y6036D1*
X18557Y6067D1*
X18569Y6096D1*
X18583Y6124D1*
X18601Y6150D1*
X18621Y6174D1*
X18644Y6195D1*
X18669Y6214D1*
X18697Y6230D1*
X18726Y6242D1*
X18756Y6251D1*
X18787Y6257D1*
X18818Y6258D1*
X18850Y6257D1*
X18881Y6251D1*
X18911Y6243D1*
X18940Y6230D1*
X18967Y6215D1*
X18993Y6196D1*
X19016Y6175D1*
X19036Y6151D1*
X19054Y6125D1*
X19069Y6097D1*
X19080Y6068D1*
X19088Y6037D1*
X19093Y5984D1*
X19091Y5953D1*
X20824D2*
X20818Y5922D1*
X20809Y5892D1*
X20797Y5863D1*
X20781Y5835D1*
X20763Y5810D1*
X20741Y5787D1*
X20717Y5766D1*
X20691Y5749D1*
X20663Y5734D1*
X20634Y5723D1*
X20604Y5715D1*
X20572Y5711D1*
X20541Y5710D1*
X20510Y5713D1*
X20479Y5720D1*
X20449Y5730D1*
X20420Y5743D1*
X20394Y5760D1*
X20369Y5779D1*
X20347Y5802D1*
X20327Y5826D1*
X20310Y5853D1*
X20297Y5881D1*
X20287Y5911D1*
X20280Y5942D1*
X20277Y5973D1*
X20278Y6005D1*
X20282Y6036D1*
X20290Y6067D1*
X20301Y6096D1*
X20315Y6124D1*
X20333Y6150D1*
X20353Y6174D1*
X20376Y6195D1*
X20402Y6214D1*
X20429Y6230D1*
X20458Y6242D1*
X20488Y6251D1*
X20519Y6257D1*
X20551Y6258D1*
X20582Y6257D1*
X20613Y6251D1*
X20643Y6243D1*
X20672Y6230D1*
X20700Y6215D1*
X20725Y6196D1*
X20748Y6175D1*
X20769Y6151D1*
X20786Y6125D1*
X20801Y6097D1*
X20812Y6068D1*
X20820Y6037D1*
X20825Y5984D1*
X20824Y5953D1*
X22887Y29906D2*
X22882Y29843D1*
X22872Y29780D1*
X22858Y29719D1*
X22839Y29659D1*
X22815Y29601D1*
X22787Y29544D1*
X22755Y29490D1*
X22718Y29439D1*
X22678Y29390D1*
X22635Y29345D1*
X22588Y29303D1*
X22537Y29265D1*
X22484Y29231D1*
X22429Y29201D1*
X22371Y29175D1*
X22312Y29154D1*
X22251Y29138D1*
X22190Y29126D1*
X22127Y29119D1*
X22064Y29117D1*
X22001Y29119D1*
X21939Y29127D1*
X21877Y29139D1*
X21816Y29156D1*
X21757Y29178D1*
X21700Y29204D1*
X21644Y29234D1*
X21592Y29269D1*
X21542Y29307D1*
X21495Y29349D1*
X21452Y29395D1*
X21412Y29444D1*
X21376Y29495D1*
X21344Y29550D1*
X21316Y29606D1*
X21293Y29665D1*
X21275Y29725D1*
X21261Y29786D1*
X21251Y29849D1*
X21247Y29911D1*
X21248Y29974D1*
X21253Y30037D1*
X21263Y30099D1*
X21278Y30161D1*
X21297Y30220D1*
X21321Y30279D1*
X21350Y30335D1*
X21382Y30389D1*
X21419Y30440D1*
X21459Y30488D1*
X21504Y30533D1*
X21551Y30575D1*
X21601Y30612D1*
X21655Y30646D1*
X21710Y30676D1*
X21768Y30701D1*
X21827Y30721D1*
X21888Y30738D1*
X21950Y30749D1*
X22013Y30755D1*
X22076Y30757D1*
X22139Y30754D1*
X22201Y30746D1*
X22263Y30733D1*
X22323Y30716D1*
X22382Y30694D1*
X22440Y30668D1*
X22495Y30637D1*
X22547Y30602D1*
X22597Y30563D1*
X22643Y30521D1*
X22686Y30475D1*
X22726Y30426D1*
X22761Y30374D1*
X22793Y30319D1*
X22820Y30262D1*
X22843Y30204D1*
X22861Y30143D1*
X22874Y30082D1*
X22883Y30020D1*
X22887Y29937D1*
Y29906D1*
X11887D2*
X11882Y29843D1*
X11872Y29780D1*
X11858Y29719D1*
X11839Y29659D1*
X11815Y29601D1*
X11787Y29544D1*
X11755Y29490D1*
X11718Y29439D1*
X11678Y29390D1*
X11635Y29345D1*
X11588Y29303D1*
X11537Y29265D1*
X11484Y29231D1*
X11429Y29201D1*
X11371Y29175D1*
X11312Y29154D1*
X11251Y29138D1*
X11190Y29126D1*
X11127Y29119D1*
X11064Y29117D1*
X11001Y29119D1*
X10939Y29127D1*
X10877Y29139D1*
X10816Y29156D1*
X10757Y29178D1*
X10700Y29204D1*
X10644Y29234D1*
X10592Y29269D1*
X10542Y29307D1*
X10495Y29349D1*
X10452Y29395D1*
X10412Y29444D1*
X10376Y29495D1*
X10344Y29550D1*
X10316Y29606D1*
X10293Y29665D1*
X10275Y29725D1*
X10261Y29786D1*
X10251Y29849D1*
X10247Y29911D1*
X10248Y29974D1*
X10253Y30037D1*
X10263Y30099D1*
X10278Y30161D1*
X10297Y30220D1*
X10321Y30279D1*
X10350Y30335D1*
X10382Y30389D1*
X10419Y30440D1*
X10459Y30488D1*
X10504Y30533D1*
X10551Y30575D1*
X10601Y30612D1*
X10655Y30646D1*
X10710Y30676D1*
X10768Y30701D1*
X10827Y30721D1*
X10888Y30738D1*
X10950Y30749D1*
X11013Y30755D1*
X11076Y30757D1*
X11139Y30754D1*
X11201Y30746D1*
X11263Y30733D1*
X11323Y30716D1*
X11382Y30694D1*
X11440Y30668D1*
X11495Y30637D1*
X11547Y30602D1*
X11597Y30563D1*
X11643Y30521D1*
X11686Y30475D1*
X11726Y30426D1*
X11761Y30374D1*
X11793Y30319D1*
X11820Y30262D1*
X11843Y30204D1*
X11861Y30143D1*
X11874Y30082D1*
X11883Y30020D1*
X11887Y29937D1*
Y29906D1*
X5887Y9906D2*
X5882Y9843D1*
X5872Y9780D1*
X5858Y9719D1*
X5839Y9659D1*
X5815Y9601D1*
X5787Y9544D1*
X5755Y9490D1*
X5718Y9439D1*
X5678Y9390D1*
X5635Y9345D1*
X5588Y9303D1*
X5537Y9265D1*
X5484Y9231D1*
X5429Y9201D1*
X5371Y9175D1*
X5312Y9154D1*
X5251Y9138D1*
X5190Y9126D1*
X5127Y9119D1*
X5064Y9117D1*
X5001Y9119D1*
X4939Y9127D1*
X4877Y9139D1*
X4816Y9156D1*
X4757Y9178D1*
X4700Y9204D1*
X4644Y9234D1*
X4592Y9269D1*
X4542Y9307D1*
X4495Y9349D1*
X4452Y9395D1*
X4412Y9444D1*
X4376Y9495D1*
X4344Y9550D1*
X4316Y9606D1*
X4293Y9665D1*
X4275Y9725D1*
X4261Y9786D1*
X4251Y9849D1*
X4247Y9911D1*
X4248Y9974D1*
X4253Y10037D1*
X4263Y10099D1*
X4278Y10161D1*
X4297Y10220D1*
X4321Y10279D1*
X4350Y10335D1*
X4382Y10389D1*
X4419Y10440D1*
X4459Y10488D1*
X4504Y10533D1*
X4551Y10575D1*
X4601Y10612D1*
X4655Y10646D1*
X4710Y10676D1*
X4768Y10701D1*
X4827Y10721D1*
X4888Y10738D1*
X4950Y10749D1*
X5013Y10755D1*
X5076Y10757D1*
X5139Y10754D1*
X5201Y10746D1*
X5263Y10733D1*
X5323Y10716D1*
X5382Y10694D1*
X5440Y10668D1*
X5495Y10637D1*
X5547Y10602D1*
X5597Y10563D1*
X5643Y10521D1*
X5686Y10475D1*
X5726Y10426D1*
X5761Y10374D1*
X5793Y10319D1*
X5820Y10262D1*
X5843Y10204D1*
X5861Y10143D1*
X5874Y10082D1*
X5883Y10020D1*
X5887Y9937D1*
Y9906D1*
X24458Y16906D2*
X24448Y16843D1*
X24428Y16784D1*
X24399Y16728D1*
X24361Y16678D1*
X24316Y16634D1*
X24264Y16598D1*
X24207Y16571D1*
X24147Y16553D1*
X24085Y16545D1*
X24022Y16547D1*
X23960Y16560D1*
X23901Y16581D1*
X23846Y16613D1*
X23797Y16652D1*
X23755Y16699D1*
X23721Y16752D1*
X23696Y16809D1*
X23680Y16870D1*
X23675Y16933D1*
X23679Y16996D1*
X23693Y17057D1*
X23717Y17115D1*
X23750Y17169D1*
X23792Y17216D1*
X23840Y17257D1*
X23894Y17289D1*
X23952Y17312D1*
X24014Y17326D1*
X24077Y17329D1*
X24139Y17323D1*
X24200Y17306D1*
X24257Y17280D1*
X24310Y17245D1*
X24356Y17202D1*
X24394Y17153D1*
X24425Y17098D1*
X24446Y17038D1*
X24457Y16977D1*
X24459Y16937D1*
X24458Y16906D1*
Y18906D2*
X24448Y18843D1*
X24428Y18784D1*
X24399Y18728D1*
X24361Y18678D1*
X24316Y18634D1*
X24264Y18598D1*
X24207Y18571D1*
X24147Y18553D1*
X24085Y18545D1*
X24022Y18547D1*
X23960Y18560D1*
X23901Y18581D1*
X23846Y18613D1*
X23797Y18652D1*
X23755Y18699D1*
X23721Y18752D1*
X23696Y18809D1*
X23680Y18870D1*
X23675Y18933D1*
X23679Y18996D1*
X23693Y19057D1*
X23717Y19115D1*
X23750Y19169D1*
X23792Y19216D1*
X23840Y19257D1*
X23894Y19289D1*
X23952Y19312D1*
X24014Y19326D1*
X24077Y19329D1*
X24139Y19323D1*
X24200Y19306D1*
X24257Y19280D1*
X24310Y19245D1*
X24356Y19202D1*
X24394Y19153D1*
X24425Y19098D1*
X24446Y19038D1*
X24457Y18977D1*
X24459Y18937D1*
X24458Y18906D1*
X24459Y19931D2*
X24455Y19881D1*
X24445Y19831D1*
X24428Y19784D1*
X24405Y19739D1*
X24377Y19697D1*
X24344Y19659D1*
X24306Y19626D1*
X24264Y19598D1*
X24219Y19575D1*
X24172Y19559D1*
X24122Y19549D1*
X24072Y19545D1*
X24022Y19547D1*
X23972Y19556D1*
X23924Y19572D1*
X23879Y19593D1*
X23836Y19620D1*
X23797Y19652D1*
X23763Y19689D1*
X23734Y19730D1*
X23710Y19774D1*
X23692Y19821D1*
X23680Y19870D1*
X23675Y19920D1*
X23676Y19971D1*
X23684Y20020D1*
X23697Y20069D1*
X23717Y20115D1*
X23743Y20158D1*
X23774Y20198D1*
X23810Y20233D1*
X23850Y20264D1*
X23894Y20289D1*
X23940Y20308D1*
X23989Y20321D1*
X24039Y20328D1*
X24089Y20329D1*
X24139Y20323D1*
X24188Y20310D1*
X24235Y20292D1*
X24279Y20267D1*
X24319Y20237D1*
X24356Y20202D1*
X24387Y20163D1*
X24414Y20120D1*
X24434Y20074D1*
X24449Y20026D1*
X24457Y19977D1*
X24459Y19931D1*
Y20931D2*
X24455Y20881D1*
X24445Y20831D1*
X24428Y20784D1*
X24405Y20739D1*
X24377Y20697D1*
X24344Y20659D1*
X24306Y20626D1*
X24264Y20598D1*
X24219Y20575D1*
X24172Y20559D1*
X24122Y20549D1*
X24072Y20545D1*
X24022Y20547D1*
X23972Y20556D1*
X23924Y20572D1*
X23879Y20593D1*
X23836Y20620D1*
X23797Y20652D1*
X23763Y20689D1*
X23734Y20730D1*
X23710Y20774D1*
X23692Y20821D1*
X23680Y20870D1*
X23675Y20920D1*
X23676Y20971D1*
X23684Y21020D1*
X23697Y21069D1*
X23717Y21115D1*
X23743Y21158D1*
X23774Y21198D1*
X23810Y21233D1*
X23850Y21264D1*
X23894Y21289D1*
X23940Y21308D1*
X23989Y21321D1*
X24039Y21328D1*
X24089Y21329D1*
X24139Y21323D1*
X24188Y21310D1*
X24235Y21292D1*
X24279Y21267D1*
X24319Y21237D1*
X24356Y21202D1*
X24387Y21163D1*
X24414Y21120D1*
X24434Y21074D1*
X24449Y21026D1*
X24457Y20977D1*
X24459Y20931D1*
X24458Y21906D2*
X24448Y21843D1*
X24428Y21784D1*
X24399Y21728D1*
X24361Y21678D1*
X24316Y21634D1*
X24264Y21598D1*
X24207Y21571D1*
X24147Y21553D1*
X24085Y21545D1*
X24022Y21547D1*
X23960Y21560D1*
X23901Y21581D1*
X23846Y21613D1*
X23797Y21652D1*
X23755Y21699D1*
X23721Y21752D1*
X23696Y21809D1*
X23680Y21870D1*
X23675Y21933D1*
X23679Y21996D1*
X23693Y22057D1*
X23717Y22115D1*
X23750Y22169D1*
X23792Y22216D1*
X23840Y22257D1*
X23894Y22289D1*
X23952Y22312D1*
X24014Y22326D1*
X24077Y22329D1*
X24139Y22323D1*
X24200Y22306D1*
X24257Y22280D1*
X24310Y22245D1*
X24356Y22202D1*
X24394Y22153D1*
X24425Y22098D1*
X24446Y22038D1*
X24457Y21977D1*
X24459Y21937D1*
X24458Y21906D1*
Y27906D2*
X24448Y27843D1*
X24428Y27784D1*
X24399Y27728D1*
X24361Y27678D1*
X24316Y27634D1*
X24264Y27598D1*
X24207Y27571D1*
X24147Y27553D1*
X24085Y27545D1*
X24022Y27547D1*
X23960Y27560D1*
X23901Y27581D1*
X23846Y27613D1*
X23797Y27652D1*
X23755Y27699D1*
X23721Y27752D1*
X23707Y27781D1*
X21426D1*
X21399Y27728D1*
X21361Y27678D1*
X21316Y27634D1*
X21264Y27598D1*
X21207Y27571D1*
X21147Y27553D1*
X21085Y27545D1*
X21022Y27547D1*
X20960Y27560D1*
X20937Y27567D1*
X20602Y27233D1*
X20577Y27214D1*
X20548Y27201D1*
X20512Y27196D1*
X20406Y27195D1*
X20248Y27189D1*
X20065Y27169D1*
X19884Y27136D1*
X19706Y27090D1*
X19531Y27032D1*
X19361Y26962D1*
X19197Y26880D1*
X19038Y26786D1*
X18887Y26681D1*
X18744Y26566D1*
X18609Y26441D1*
X18483Y26307D1*
X18367Y26164D1*
X18262Y26014D1*
X18167Y25856D1*
X18084Y25692D1*
X18012Y25522D1*
X17953Y25348D1*
X17907Y25170D1*
X17873Y24989D1*
X17852Y24807D1*
X17844Y24594D1*
Y21790D1*
X17856Y21778D1*
X17875Y21753D1*
X17889Y21725D1*
X17899Y21695D1*
X17904Y21654D1*
X17901Y21622D1*
X17893Y21592D1*
X17880Y21563D1*
X17863Y21537D1*
X17841Y21514D1*
X17816Y21495D1*
X17788Y21481D1*
X17758Y21471D1*
X17727Y21467D1*
X17696Y21468D1*
X17665Y21474D1*
X17635Y21485D1*
X17608Y21501D1*
X17579Y21528D1*
X17566Y21514D1*
X17541Y21495D1*
X17513Y21481D1*
X17483Y21471D1*
X17451Y21467D1*
X17420Y21468D1*
X17389Y21474D1*
X17360Y21485D1*
X17333Y21501D1*
X17309Y21521D1*
X17288Y21545D1*
X17272Y21572D1*
X17261Y21602D1*
X17255Y21633D1*
X17254Y21664D1*
X17258Y21695D1*
X17268Y21725D1*
X17282Y21753D1*
X17301Y21778D1*
X17324Y21800D1*
X17350Y21817D1*
X17379Y21830D1*
X17409Y21838D1*
X17448Y21840D1*
X17452Y21854D1*
X17453Y24682D1*
X17460Y24857D1*
X17483Y25063D1*
X17520Y25267D1*
X17571Y25467D1*
X17636Y25664D1*
X17715Y25855D1*
X17807Y26041D1*
X17912Y26220D1*
X18029Y26390D1*
X18157Y26552D1*
X18297Y26705D1*
X18447Y26848D1*
X18607Y26979D1*
X18776Y27100D1*
X18952Y27208D1*
X19136Y27303D1*
X19326Y27385D1*
X19521Y27454D1*
X19721Y27509D1*
X19924Y27549D1*
X20129Y27576D1*
X20335Y27588D1*
X20381D1*
X20483Y27690D1*
Y28480D1*
X20487Y28511D1*
X20498Y28541D1*
X20520Y28570D1*
X20715Y28764D1*
X20696Y28809D1*
X20680Y28870D1*
X20675Y28933D1*
X20679Y28996D1*
X20693Y29057D1*
X20717Y29115D1*
X20750Y29169D1*
X20792Y29216D1*
X20840Y29257D1*
X20894Y29289D1*
X20952Y29312D1*
X21014Y29326D1*
X21077Y29329D1*
X21139Y29323D1*
X21200Y29306D1*
X21257Y29280D1*
X21310Y29245D1*
X21356Y29202D1*
X21394Y29153D1*
X21425Y29098D1*
X21427Y29093D1*
X23708D1*
X23733Y29143D1*
X23770Y29193D1*
X23815Y29238D1*
X23866Y29274D1*
X23923Y29302D1*
X23983Y29320D1*
X24045Y29329D1*
X24108Y29327D1*
X24170Y29316D1*
X24229Y29294D1*
X24284Y29264D1*
X24334Y29225D1*
X24376Y29178D1*
X24411Y29126D1*
X24437Y29068D1*
X24453Y29008D1*
X24459Y28945D1*
X24458Y28906D1*
X24448Y28843D1*
X24428Y28784D1*
X24399Y28728D1*
X24361Y28678D1*
X24316Y28634D1*
X24264Y28598D1*
X24207Y28571D1*
X24147Y28553D1*
X24085Y28545D1*
X24022Y28547D1*
X23960Y28560D1*
X23901Y28581D1*
X23846Y28613D1*
X23797Y28652D1*
X23755Y28699D1*
X23721Y28752D1*
X23707Y28781D1*
X21426D1*
X21399Y28728D1*
X21361Y28678D1*
X21316Y28634D1*
X21264Y28598D1*
X21207Y28571D1*
X21147Y28553D1*
X21085Y28545D1*
X21022Y28547D1*
X20960Y28560D1*
X20901Y28581D1*
X20895Y28585D1*
X20737Y28427D1*
Y28149D1*
X20770Y28193D1*
X20815Y28238D1*
X20866Y28274D1*
X20923Y28302D1*
X20983Y28320D1*
X21045Y28329D1*
X21108Y28327D1*
X21170Y28316D1*
X21229Y28294D1*
X21284Y28264D1*
X21334Y28225D1*
X21376Y28178D1*
X21411Y28126D1*
X21427Y28093D1*
X23708D1*
X23733Y28143D1*
X23770Y28193D1*
X23815Y28238D1*
X23866Y28274D1*
X23923Y28302D1*
X23983Y28320D1*
X24045Y28329D1*
X24108Y28327D1*
X24170Y28316D1*
X24229Y28294D1*
X24284Y28264D1*
X24334Y28225D1*
X24376Y28178D1*
X24411Y28126D1*
X24437Y28068D1*
X24453Y28008D1*
X24459Y27945D1*
X24458Y27906D1*
X5458Y28906D2*
X5448Y28843D1*
X5428Y28784D1*
X5399Y28728D1*
X5361Y28678D1*
X5316Y28634D1*
X5264Y28598D1*
X5207Y28571D1*
X5147Y28553D1*
X5085Y28545D1*
X5022Y28547D1*
X4960Y28560D1*
X4901Y28581D1*
X4846Y28613D1*
X4797Y28652D1*
X4755Y28699D1*
X4721Y28752D1*
X4696Y28809D1*
X4680Y28870D1*
X4675Y28933D1*
X4679Y28996D1*
X4693Y29057D1*
X4717Y29115D1*
X4750Y29169D1*
X4792Y29216D1*
X4840Y29257D1*
X4894Y29289D1*
X4952Y29312D1*
X5014Y29326D1*
X5077Y29329D1*
X5139Y29323D1*
X5200Y29306D1*
X5257Y29280D1*
X5310Y29245D1*
X5356Y29202D1*
X5394Y29153D1*
X5425Y29098D1*
X5446Y29038D1*
X5457Y28977D1*
X5459Y28937D1*
X5458Y28906D1*
Y27906D2*
X5448Y27843D1*
X5428Y27784D1*
X5399Y27728D1*
X5361Y27678D1*
X5316Y27634D1*
X5264Y27598D1*
X5207Y27571D1*
X5147Y27553D1*
X5085Y27545D1*
X5022Y27547D1*
X4960Y27560D1*
X4901Y27581D1*
X4846Y27613D1*
X4797Y27652D1*
X4755Y27699D1*
X4721Y27752D1*
X4696Y27809D1*
X4680Y27870D1*
X4675Y27933D1*
X4679Y27996D1*
X4693Y28057D1*
X4717Y28115D1*
X4750Y28169D1*
X4792Y28216D1*
X4840Y28257D1*
X4894Y28289D1*
X4952Y28312D1*
X5014Y28326D1*
X5077Y28329D1*
X5139Y28323D1*
X5200Y28306D1*
X5257Y28280D1*
X5310Y28245D1*
X5356Y28202D1*
X5394Y28153D1*
X5425Y28098D1*
X5446Y28038D1*
X5457Y27977D1*
X5459Y27937D1*
X5458Y27906D1*
Y26906D2*
X5448Y26843D1*
X5428Y26784D1*
X5399Y26728D1*
X5361Y26678D1*
X5316Y26634D1*
X5264Y26598D1*
X5207Y26571D1*
X5147Y26553D1*
X5085Y26545D1*
X5022Y26547D1*
X4960Y26560D1*
X4901Y26581D1*
X4846Y26613D1*
X4797Y26652D1*
X4755Y26699D1*
X4721Y26752D1*
X4696Y26809D1*
X4680Y26870D1*
X4675Y26933D1*
X4679Y26996D1*
X4693Y27057D1*
X4717Y27115D1*
X4750Y27169D1*
X4792Y27216D1*
X4840Y27257D1*
X4894Y27289D1*
X4952Y27312D1*
X5014Y27326D1*
X5077Y27329D1*
X5139Y27323D1*
X5200Y27306D1*
X5257Y27280D1*
X5310Y27245D1*
X5356Y27202D1*
X5394Y27153D1*
X5425Y27098D1*
X5446Y27038D1*
X5457Y26977D1*
X5459Y26937D1*
X5458Y26906D1*
Y25906D2*
X5448Y25843D1*
X5428Y25784D1*
X5399Y25728D1*
X5361Y25678D1*
X5316Y25634D1*
X5264Y25598D1*
X5207Y25571D1*
X5147Y25553D1*
X5085Y25545D1*
X5022Y25547D1*
X4960Y25560D1*
X4901Y25581D1*
X4846Y25613D1*
X4797Y25652D1*
X4755Y25699D1*
X4721Y25752D1*
X4696Y25809D1*
X4680Y25870D1*
X4675Y25933D1*
X4679Y25996D1*
X4693Y26057D1*
X4717Y26115D1*
X4750Y26169D1*
X4792Y26216D1*
X4840Y26257D1*
X4894Y26289D1*
X4952Y26312D1*
X5014Y26326D1*
X5077Y26329D1*
X5139Y26323D1*
X5200Y26306D1*
X5257Y26280D1*
X5310Y26245D1*
X5356Y26202D1*
X5394Y26153D1*
X5425Y26098D1*
X5446Y26038D1*
X5457Y25977D1*
X5459Y25937D1*
X5458Y25906D1*
Y24906D2*
X5448Y24843D1*
X5428Y24784D1*
X5399Y24728D1*
X5361Y24678D1*
X5316Y24634D1*
X5264Y24598D1*
X5207Y24571D1*
X5147Y24553D1*
X5085Y24545D1*
X5022Y24547D1*
X4960Y24560D1*
X4901Y24581D1*
X4846Y24613D1*
X4797Y24652D1*
X4755Y24699D1*
X4721Y24752D1*
X4696Y24809D1*
X4680Y24870D1*
X4675Y24933D1*
X4679Y24996D1*
X4693Y25057D1*
X4717Y25115D1*
X4750Y25169D1*
X4792Y25216D1*
X4840Y25257D1*
X4894Y25289D1*
X4952Y25312D1*
X5014Y25326D1*
X5077Y25329D1*
X5139Y25323D1*
X5200Y25306D1*
X5257Y25280D1*
X5310Y25245D1*
X5356Y25202D1*
X5394Y25153D1*
X5425Y25098D1*
X5446Y25038D1*
X5457Y24977D1*
X5459Y24937D1*
X5458Y24906D1*
Y23906D2*
X5448Y23843D1*
X5428Y23784D1*
X5399Y23728D1*
X5361Y23678D1*
X5316Y23634D1*
X5264Y23598D1*
X5207Y23571D1*
X5147Y23553D1*
X5085Y23545D1*
X5022Y23547D1*
X4960Y23560D1*
X4901Y23581D1*
X4846Y23613D1*
X4797Y23652D1*
X4755Y23699D1*
X4721Y23752D1*
X4696Y23809D1*
X4680Y23870D1*
X4675Y23933D1*
X4679Y23996D1*
X4693Y24057D1*
X4717Y24115D1*
X4750Y24169D1*
X4792Y24216D1*
X4840Y24257D1*
X4894Y24289D1*
X4952Y24312D1*
X5014Y24326D1*
X5077Y24329D1*
X5139Y24323D1*
X5200Y24306D1*
X5257Y24280D1*
X5310Y24245D1*
X5356Y24202D1*
X5394Y24153D1*
X5425Y24098D1*
X5446Y24038D1*
X5457Y23977D1*
X5459Y23937D1*
X5458Y23906D1*
Y22906D2*
X5448Y22843D1*
X5428Y22784D1*
X5399Y22728D1*
X5361Y22678D1*
X5316Y22634D1*
X5264Y22598D1*
X5207Y22571D1*
X5147Y22553D1*
X5085Y22545D1*
X5022Y22547D1*
X4960Y22560D1*
X4901Y22581D1*
X4846Y22613D1*
X4797Y22652D1*
X4755Y22699D1*
X4721Y22752D1*
X4696Y22809D1*
X4680Y22870D1*
X4675Y22933D1*
X4679Y22996D1*
X4693Y23057D1*
X4717Y23115D1*
X4750Y23169D1*
X4792Y23216D1*
X4840Y23257D1*
X4894Y23289D1*
X4952Y23312D1*
X5014Y23326D1*
X5077Y23329D1*
X5139Y23323D1*
X5200Y23306D1*
X5257Y23280D1*
X5310Y23245D1*
X5356Y23202D1*
X5394Y23153D1*
X5425Y23098D1*
X5446Y23038D1*
X5457Y22977D1*
X5459Y22937D1*
X5458Y22906D1*
Y21906D2*
X5448Y21843D1*
X5428Y21784D1*
X5399Y21728D1*
X5361Y21678D1*
X5316Y21634D1*
X5264Y21598D1*
X5207Y21571D1*
X5147Y21553D1*
X5085Y21545D1*
X5022Y21547D1*
X4960Y21560D1*
X4901Y21581D1*
X4846Y21613D1*
X4797Y21652D1*
X4755Y21699D1*
X4721Y21752D1*
X4696Y21809D1*
X4680Y21870D1*
X4675Y21933D1*
X4679Y21996D1*
X4693Y22057D1*
X4717Y22115D1*
X4750Y22169D1*
X4792Y22216D1*
X4840Y22257D1*
X4894Y22289D1*
X4952Y22312D1*
X5014Y22326D1*
X5077Y22329D1*
X5139Y22323D1*
X5200Y22306D1*
X5257Y22280D1*
X5310Y22245D1*
X5356Y22202D1*
X5394Y22153D1*
X5425Y22098D1*
X5446Y22038D1*
X5457Y21977D1*
X5459Y21937D1*
X5458Y21906D1*
X5344Y20060D2*
X5316Y20034D1*
X5264Y19998D1*
X5207Y19971D1*
X5147Y19953D1*
X5085Y19945D1*
X5022Y19947D1*
X4960Y19960D1*
X4901Y19981D1*
X4846Y20013D1*
X4797Y20052D1*
X4755Y20099D1*
X4721Y20152D1*
X4696Y20209D1*
X4680Y20270D1*
X4675Y20333D1*
X4679Y20396D1*
X4693Y20457D1*
X4717Y20515D1*
X4750Y20569D1*
X4792Y20616D1*
X4840Y20657D1*
X4894Y20689D1*
X4952Y20712D1*
X5014Y20726D1*
X5077Y20729D1*
X5139Y20723D1*
X5200Y20706D1*
X5257Y20680D1*
X5310Y20645D1*
X5356Y20602D1*
X5394Y20553D1*
X5425Y20498D1*
X5446Y20438D1*
X5457Y20377D1*
X5459Y20350D1*
X5792Y20216D1*
X5840Y20257D1*
X5894Y20289D1*
X5952Y20312D1*
X6014Y20326D1*
X6077Y20329D1*
X6139Y20323D1*
X6200Y20306D1*
X6257Y20280D1*
X6310Y20245D1*
X6356Y20202D1*
X6394Y20153D1*
X6425Y20098D1*
X6446Y20038D1*
X6457Y19977D1*
X6459Y19937D1*
X6454Y19874D1*
X6439Y19813D1*
X6415Y19755D1*
X6381Y19702D1*
X6339Y19655D1*
X6291Y19615D1*
X6236Y19583D1*
X6178Y19561D1*
X6116Y19548D1*
X6053Y19545D1*
X5991Y19552D1*
X5930Y19569D1*
X5873Y19596D1*
X5821Y19631D1*
X5775Y19675D1*
X5737Y19725D1*
X5707Y19780D1*
X5687Y19840D1*
X5676Y19902D1*
X5675Y19926D1*
X5345Y20060D1*
X5334Y19050D2*
X5291Y19015D1*
X5236Y18983D1*
X5178Y18961D1*
X5116Y18948D1*
X5053Y18945D1*
X4991Y18952D1*
X4930Y18969D1*
X4873Y18996D1*
X4821Y19031D1*
X4775Y19075D1*
X4737Y19125D1*
X4707Y19180D1*
X4687Y19240D1*
X4676Y19302D1*
Y19364D1*
X4685Y19427D1*
X4704Y19487D1*
X4733Y19543D1*
X4770Y19593D1*
X4815Y19638D1*
X4866Y19674D1*
X4923Y19702D1*
X4983Y19720D1*
X5045Y19729D1*
X5108Y19727D1*
X5170Y19716D1*
X5229Y19694D1*
X5284Y19664D1*
X5334Y19625D1*
X5376Y19578D1*
X5411Y19526D1*
X5437Y19468D1*
X5453Y19408D1*
X5459Y19345D1*
Y19336D1*
X5786Y19212D1*
X5840Y19257D1*
X5894Y19289D1*
X5952Y19312D1*
X6014Y19326D1*
X6077Y19329D1*
X6139Y19323D1*
X6200Y19306D1*
X6257Y19280D1*
X6310Y19245D1*
X6356Y19202D1*
X6394Y19153D1*
X6425Y19098D1*
X6446Y19038D1*
X6457Y18977D1*
X6459Y18937D1*
X6454Y18874D1*
X6439Y18813D1*
X6415Y18755D1*
X6381Y18702D1*
X6339Y18655D1*
X6291Y18615D1*
X6236Y18583D1*
X6178Y18561D1*
X6116Y18548D1*
X6053Y18545D1*
X5991Y18552D1*
X5930Y18569D1*
X5873Y18596D1*
X5821Y18631D1*
X5775Y18675D1*
X5737Y18725D1*
X5707Y18780D1*
X5687Y18840D1*
X5676Y18902D1*
X5675Y18920D1*
X5334Y19050D1*
X5458Y17306D2*
X5448Y17243D1*
X5428Y17184D1*
X5399Y17128D1*
X5361Y17078D1*
X5316Y17034D1*
X5264Y16998D1*
X5207Y16971D1*
X5147Y16953D1*
X5085Y16945D1*
X5022Y16947D1*
X4960Y16960D1*
X4901Y16981D1*
X4846Y17013D1*
X4797Y17052D1*
X4755Y17099D1*
X4721Y17152D1*
X4696Y17209D1*
X4680Y17270D1*
X4675Y17333D1*
X4679Y17396D1*
X4693Y17457D1*
X4717Y17515D1*
X4750Y17569D1*
X4792Y17616D1*
X4840Y17657D1*
X4894Y17689D1*
X4952Y17712D1*
X5014Y17726D1*
X5077Y17729D1*
X5139Y17723D1*
X5200Y17706D1*
X5257Y17680D1*
X5310Y17645D1*
X5356Y17602D1*
X5394Y17553D1*
X5425Y17498D1*
X5446Y17438D1*
X5457Y17377D1*
X5459Y17337D1*
X5458Y17306D1*
Y15306D2*
X5448Y15243D1*
X5428Y15184D1*
X5399Y15128D1*
X5361Y15078D1*
X5316Y15034D1*
X5264Y14998D1*
X5207Y14971D1*
X5147Y14953D1*
X5085Y14945D1*
X5022Y14947D1*
X4960Y14960D1*
X4901Y14981D1*
X4846Y15013D1*
X4797Y15052D1*
X4755Y15099D1*
X4721Y15152D1*
X4696Y15209D1*
X4680Y15270D1*
X4675Y15333D1*
X4679Y15396D1*
X4693Y15457D1*
X4717Y15515D1*
X4750Y15569D1*
X4792Y15616D1*
X4840Y15657D1*
X4894Y15689D1*
X4952Y15712D1*
X5014Y15726D1*
X5077Y15729D1*
X5139Y15723D1*
X5200Y15706D1*
X5257Y15680D1*
X5310Y15645D1*
X5356Y15602D1*
X5394Y15553D1*
X5425Y15498D1*
X5446Y15438D1*
X5457Y15377D1*
X5459Y15337D1*
X5458Y15306D1*
X5459Y14331D2*
X5455Y14281D1*
X5445Y14231D1*
X5428Y14184D1*
X5405Y14139D1*
X5377Y14097D1*
X5344Y14059D1*
X5306Y14026D1*
X5264Y13998D1*
X5219Y13975D1*
X5172Y13959D1*
X5122Y13949D1*
X5072Y13945D1*
X5022Y13947D1*
X4972Y13956D1*
X4924Y13972D1*
X4879Y13993D1*
X4836Y14020D1*
X4797Y14052D1*
X4763Y14089D1*
X4734Y14130D1*
X4710Y14174D1*
X4692Y14221D1*
X4680Y14270D1*
X4675Y14320D1*
X4676Y14371D1*
X4684Y14420D1*
X4697Y14469D1*
X4717Y14515D1*
X4743Y14558D1*
X4774Y14598D1*
X4810Y14633D1*
X4850Y14664D1*
X4894Y14689D1*
X4940Y14708D1*
X4989Y14721D1*
X5039Y14728D1*
X5089Y14729D1*
X5139Y14723D1*
X5188Y14710D1*
X5235Y14692D1*
X5279Y14667D1*
X5319Y14637D1*
X5356Y14602D1*
X5387Y14563D1*
X5414Y14520D1*
X5434Y14474D1*
X5449Y14426D1*
X5457Y14377D1*
X5459Y14331D1*
X5344Y13060D2*
X5316Y13034D1*
X5264Y12998D1*
X5207Y12971D1*
X5147Y12953D1*
X5085Y12945D1*
X5022Y12947D1*
X4960Y12960D1*
X4901Y12981D1*
X4846Y13013D1*
X4797Y13052D1*
X4755Y13099D1*
X4721Y13152D1*
X4696Y13209D1*
X4680Y13270D1*
X4675Y13333D1*
X4679Y13396D1*
X4693Y13457D1*
X4717Y13515D1*
X4750Y13569D1*
X4792Y13616D1*
X4840Y13657D1*
X4894Y13689D1*
X4952Y13712D1*
X5014Y13726D1*
X5077Y13729D1*
X5139Y13723D1*
X5200Y13706D1*
X5257Y13680D1*
X5310Y13645D1*
X5356Y13602D1*
X5394Y13553D1*
X5425Y13498D1*
X5446Y13438D1*
X5457Y13377D1*
X5459Y13350D1*
X5792Y13216D1*
X5840Y13257D1*
X5894Y13289D1*
X5952Y13312D1*
X6014Y13326D1*
X6077Y13329D1*
X6139Y13323D1*
X6200Y13306D1*
X6257Y13280D1*
X6310Y13245D1*
X6356Y13202D1*
X6394Y13153D1*
X6425Y13098D1*
X6446Y13038D1*
X6457Y12977D1*
X6459Y12937D1*
X6454Y12874D1*
X6439Y12813D1*
X6415Y12755D1*
X6381Y12702D1*
X6339Y12655D1*
X6291Y12615D1*
X6236Y12583D1*
X6178Y12561D1*
X6116Y12548D1*
X6053Y12545D1*
X5991Y12552D1*
X5930Y12569D1*
X5873Y12596D1*
X5821Y12631D1*
X5775Y12675D1*
X5737Y12725D1*
X5707Y12780D1*
X5687Y12840D1*
X5676Y12902D1*
X5675Y12926D1*
X5345Y13060D1*
X5324Y12041D2*
X5291Y12015D1*
X5236Y11983D1*
X5178Y11961D1*
X5116Y11948D1*
X5053Y11945D1*
X4991Y11952D1*
X4930Y11969D1*
X4873Y11996D1*
X4821Y12031D1*
X4775Y12075D1*
X4737Y12125D1*
X4707Y12180D1*
X4687Y12240D1*
X4676Y12302D1*
Y12364D1*
X4685Y12427D1*
X4704Y12487D1*
X4733Y12543D1*
X4770Y12593D1*
X4815Y12638D1*
X4866Y12674D1*
X4923Y12702D1*
X4983Y12720D1*
X5045Y12729D1*
X5108Y12727D1*
X5170Y12716D1*
X5229Y12694D1*
X5284Y12664D1*
X5334Y12625D1*
X5376Y12578D1*
X5411Y12526D1*
X5437Y12468D1*
X5453Y12408D1*
X5459Y12345D1*
Y12322D1*
X5760Y12182D1*
X5792Y12216D1*
X5840Y12257D1*
X5894Y12289D1*
X5952Y12312D1*
X6014Y12326D1*
X6077Y12329D1*
X6139Y12323D1*
X6200Y12306D1*
X6257Y12280D1*
X6310Y12245D1*
X6356Y12202D1*
X6394Y12153D1*
X6425Y12098D1*
X6446Y12038D1*
X6457Y11977D1*
X6459Y11937D1*
X6454Y11874D1*
X6439Y11813D1*
X6415Y11755D1*
X6381Y11702D1*
X6339Y11655D1*
X6291Y11615D1*
X6236Y11583D1*
X6178Y11561D1*
X6116Y11548D1*
X6053Y11545D1*
X5991Y11552D1*
X5930Y11569D1*
X5873Y11596D1*
X5821Y11631D1*
X5775Y11675D1*
X5737Y11725D1*
X5707Y11780D1*
X5687Y11840D1*
X5680Y11875D1*
X5324Y12040D1*
X5458Y11306D2*
X5448Y11243D1*
X5428Y11184D1*
X5399Y11128D1*
X5361Y11078D1*
X5316Y11034D1*
X5264Y10998D1*
X5207Y10971D1*
X5147Y10953D1*
X5085Y10945D1*
X5022Y10947D1*
X4960Y10960D1*
X4901Y10981D1*
X4846Y11013D1*
X4797Y11052D1*
X4755Y11099D1*
X4721Y11152D1*
X4696Y11209D1*
X4680Y11270D1*
X4675Y11333D1*
X4679Y11396D1*
X4693Y11457D1*
X4717Y11515D1*
X4750Y11569D1*
X4792Y11616D1*
X4840Y11657D1*
X4894Y11689D1*
X4952Y11712D1*
X5014Y11726D1*
X5077Y11729D1*
X5139Y11723D1*
X5200Y11706D1*
X5257Y11680D1*
X5310Y11645D1*
X5356Y11602D1*
X5394Y11553D1*
X5425Y11498D1*
X5446Y11438D1*
X5457Y11377D1*
X5459Y11337D1*
X5458Y11306D1*
X21458Y18906D2*
X21448Y18843D1*
X21428Y18784D1*
X21399Y18728D1*
X21361Y18678D1*
X21316Y18634D1*
X21264Y18598D1*
X21207Y18571D1*
X21147Y18553D1*
X21085Y18545D1*
X21022Y18547D1*
X20960Y18560D1*
X20901Y18581D1*
X20846Y18613D1*
X20797Y18652D1*
X20755Y18699D1*
X20721Y18752D1*
X20696Y18809D1*
X20680Y18870D1*
X20675Y18933D1*
X20679Y18996D1*
X20693Y19057D1*
X20717Y19115D1*
X20750Y19169D1*
X20792Y19216D1*
X20840Y19257D1*
X20894Y19289D1*
X20952Y19312D1*
X21014Y19326D1*
X21077Y19329D1*
X21139Y19323D1*
X21200Y19306D1*
X21257Y19280D1*
X21310Y19245D1*
X21356Y19202D1*
X21394Y19153D1*
X21425Y19098D1*
X21446Y19038D1*
X21457Y18977D1*
X21459Y18937D1*
X21458Y18906D1*
Y19906D2*
X21448Y19843D1*
X21428Y19784D1*
X21399Y19728D1*
X21361Y19678D1*
X21316Y19634D1*
X21264Y19598D1*
X21207Y19571D1*
X21147Y19553D1*
X21085Y19545D1*
X21022Y19547D1*
X20960Y19560D1*
X20901Y19581D1*
X20846Y19613D1*
X20797Y19652D1*
X20755Y19699D1*
X20721Y19752D1*
X20696Y19809D1*
X20680Y19870D1*
X20675Y19933D1*
X20679Y19996D1*
X20693Y20057D1*
X20717Y20115D1*
X20750Y20169D1*
X20792Y20216D1*
X20840Y20257D1*
X20894Y20289D1*
X20952Y20312D1*
X21014Y20326D1*
X21077Y20329D1*
X21139Y20323D1*
X21200Y20306D1*
X21257Y20280D1*
X21310Y20245D1*
X21356Y20202D1*
X21394Y20153D1*
X21425Y20098D1*
X21446Y20038D1*
X21457Y19977D1*
X21459Y19937D1*
X21458Y19906D1*
Y20906D2*
X21448Y20843D1*
X21428Y20784D1*
X21399Y20728D1*
X21361Y20678D1*
X21316Y20634D1*
X21264Y20598D1*
X21207Y20571D1*
X21147Y20553D1*
X21085Y20545D1*
X21022Y20547D1*
X20960Y20560D1*
X20901Y20581D1*
X20846Y20613D1*
X20797Y20652D1*
X20755Y20699D1*
X20721Y20752D1*
X20696Y20809D1*
X20680Y20870D1*
X20675Y20933D1*
X20679Y20996D1*
X20693Y21057D1*
X20717Y21115D1*
X20750Y21169D1*
X20792Y21216D1*
X20840Y21257D1*
X20894Y21289D1*
X20952Y21312D1*
X21014Y21326D1*
X21077Y21329D1*
X21139Y21323D1*
X21200Y21306D1*
X21257Y21280D1*
X21310Y21245D1*
X21356Y21202D1*
X21394Y21153D1*
X21425Y21098D1*
X21446Y21038D1*
X21457Y20977D1*
X21459Y20937D1*
X21458Y20906D1*
Y21906D2*
X21448Y21843D1*
X21428Y21784D1*
X21399Y21728D1*
X21361Y21678D1*
X21316Y21634D1*
X21264Y21598D1*
X21207Y21571D1*
X21147Y21553D1*
X21085Y21545D1*
X21022Y21547D1*
X20960Y21560D1*
X20901Y21581D1*
X20846Y21613D1*
X20797Y21652D1*
X20755Y21699D1*
X20721Y21752D1*
X20696Y21809D1*
X20680Y21870D1*
X20675Y21933D1*
X20679Y21996D1*
X20693Y22057D1*
X20717Y22115D1*
X20750Y22169D1*
X20792Y22216D1*
X20840Y22257D1*
X20894Y22289D1*
X20952Y22312D1*
X21014Y22326D1*
X21077Y22329D1*
X21139Y22323D1*
X21200Y22306D1*
X21257Y22280D1*
X21310Y22245D1*
X21356Y22202D1*
X21394Y22153D1*
X21425Y22098D1*
X21446Y22038D1*
X21457Y21977D1*
X21459Y21937D1*
X21458Y21906D1*
Y22906D2*
X21448Y22843D1*
X21428Y22784D1*
X21399Y22728D1*
X21361Y22678D1*
X21316Y22634D1*
X21264Y22598D1*
X21207Y22571D1*
X21147Y22553D1*
X21085Y22545D1*
X21022Y22547D1*
X20960Y22560D1*
X20901Y22581D1*
X20846Y22613D1*
X20797Y22652D1*
X20755Y22699D1*
X20721Y22752D1*
X20696Y22809D1*
X20680Y22870D1*
X20675Y22933D1*
X20679Y22996D1*
X20693Y23057D1*
X20717Y23115D1*
X20750Y23169D1*
X20792Y23216D1*
X20840Y23257D1*
X20894Y23289D1*
X20952Y23312D1*
X21014Y23326D1*
X21077Y23329D1*
X21139Y23323D1*
X21200Y23306D1*
X21257Y23280D1*
X21310Y23245D1*
X21356Y23202D1*
X21394Y23153D1*
X21425Y23098D1*
X21446Y23038D1*
X21457Y22977D1*
X21459Y22937D1*
X21458Y22906D1*
Y13906D2*
X21448Y13843D1*
X21428Y13784D1*
X21399Y13728D1*
X21361Y13678D1*
X21316Y13634D1*
X21264Y13598D1*
X21207Y13571D1*
X21147Y13553D1*
X21085Y13545D1*
X21022Y13547D1*
X20960Y13560D1*
X20901Y13581D1*
X20846Y13613D1*
X20797Y13652D1*
X20755Y13699D1*
X20721Y13752D1*
X20696Y13809D1*
X20680Y13870D1*
X20675Y13933D1*
X20679Y13996D1*
X20693Y14057D1*
X20717Y14115D1*
X20750Y14169D1*
X20792Y14216D1*
X20840Y14257D1*
X20894Y14289D1*
X20952Y14312D1*
X21014Y14326D1*
X21077Y14329D1*
X21139Y14323D1*
X21200Y14306D1*
X21257Y14280D1*
X21310Y14245D1*
X21356Y14202D1*
X21394Y14153D1*
X21425Y14098D1*
X21446Y14038D1*
X21457Y13977D1*
X21459Y13937D1*
X21458Y13906D1*
Y14906D2*
X21448Y14843D1*
X21428Y14784D1*
X21399Y14728D1*
X21361Y14678D1*
X21316Y14634D1*
X21264Y14598D1*
X21207Y14571D1*
X21147Y14553D1*
X21085Y14545D1*
X21022Y14547D1*
X20960Y14560D1*
X20901Y14581D1*
X20846Y14613D1*
X20797Y14652D1*
X20755Y14699D1*
X20721Y14752D1*
X20696Y14809D1*
X20680Y14870D1*
X20675Y14933D1*
X20679Y14996D1*
X20693Y15057D1*
X20717Y15115D1*
X20750Y15169D1*
X20792Y15216D1*
X20840Y15257D1*
X20894Y15289D1*
X20952Y15312D1*
X21014Y15326D1*
X21077Y15329D1*
X21139Y15323D1*
X21200Y15306D1*
X21257Y15280D1*
X21310Y15245D1*
X21356Y15202D1*
X21394Y15153D1*
X21425Y15098D1*
X21446Y15038D1*
X21457Y14977D1*
X21459Y14937D1*
X21458Y14906D1*
X22459Y15931D2*
X22455Y15881D1*
X22445Y15831D1*
X22428Y15784D1*
X22405Y15739D1*
X22377Y15697D1*
X22344Y15659D1*
X22306Y15626D1*
X22264Y15598D1*
X22219Y15575D1*
X22172Y15559D1*
X22122Y15549D1*
X22072Y15545D1*
X22022Y15547D1*
X21972Y15556D1*
X21924Y15572D1*
X21879Y15593D1*
X21836Y15620D1*
X21797Y15652D1*
X21763Y15689D1*
X21734Y15730D1*
X21710Y15774D1*
X21692Y15821D1*
X21680Y15870D1*
X21675Y15920D1*
X21676Y15971D1*
X21684Y16020D1*
X21697Y16069D1*
X21717Y16115D1*
X21743Y16158D1*
X21774Y16198D1*
X21810Y16233D1*
X21850Y16264D1*
X21894Y16289D1*
X21940Y16308D1*
X21989Y16321D1*
X22039Y16328D1*
X22089Y16329D1*
X22139Y16323D1*
X22188Y16310D1*
X22235Y16292D1*
X22279Y16267D1*
X22319Y16237D1*
X22356Y16202D1*
X22387Y16163D1*
X22414Y16120D1*
X22434Y16074D1*
X22449Y16026D1*
X22457Y15977D1*
X22459Y15931D1*
Y16931D2*
X22455Y16881D1*
X22445Y16831D1*
X22428Y16784D1*
X22405Y16739D1*
X22377Y16697D1*
X22344Y16659D1*
X22306Y16626D1*
X22264Y16598D1*
X22219Y16575D1*
X22172Y16559D1*
X22122Y16549D1*
X22072Y16545D1*
X22022Y16547D1*
X21972Y16556D1*
X21924Y16572D1*
X21879Y16593D1*
X21836Y16620D1*
X21797Y16652D1*
X21763Y16689D1*
X21734Y16730D1*
X21710Y16774D1*
X21692Y16821D1*
X21680Y16870D1*
X21675Y16920D1*
X21676Y16971D1*
X21684Y17020D1*
X21697Y17069D1*
X21717Y17115D1*
X21743Y17158D1*
X21774Y17198D1*
X21810Y17233D1*
X21850Y17264D1*
X21894Y17289D1*
X21940Y17308D1*
X21989Y17321D1*
X22039Y17328D1*
X22089Y17329D1*
X22139Y17323D1*
X22188Y17310D1*
X22235Y17292D1*
X22279Y17267D1*
X22319Y17237D1*
X22356Y17202D1*
X22387Y17163D1*
X22414Y17120D1*
X22434Y17074D1*
X22449Y17026D1*
X22457Y16977D1*
X22459Y16931D1*
Y17931D2*
X22455Y17881D1*
X22445Y17831D1*
X22428Y17784D1*
X22405Y17739D1*
X22377Y17697D1*
X22344Y17659D1*
X22306Y17626D1*
X22264Y17598D1*
X22219Y17575D1*
X22172Y17559D1*
X22122Y17549D1*
X22072Y17545D1*
X22022Y17547D1*
X21972Y17556D1*
X21924Y17572D1*
X21879Y17593D1*
X21836Y17620D1*
X21797Y17652D1*
X21763Y17689D1*
X21734Y17730D1*
X21710Y17774D1*
X21692Y17821D1*
X21680Y17870D1*
X21675Y17920D1*
X21676Y17971D1*
X21684Y18020D1*
X21697Y18069D1*
X21717Y18115D1*
X21743Y18158D1*
X21774Y18198D1*
X21810Y18233D1*
X21850Y18264D1*
X21894Y18289D1*
X21940Y18308D1*
X21989Y18321D1*
X22039Y18328D1*
X22089Y18329D1*
X22139Y18323D1*
X22188Y18310D1*
X22235Y18292D1*
X22279Y18267D1*
X22319Y18237D1*
X22356Y18202D1*
X22387Y18163D1*
X22414Y18120D1*
X22434Y18074D1*
X22449Y18026D1*
X22457Y17977D1*
X22459Y17931D1*
Y18931D2*
X22455Y18881D1*
X22445Y18831D1*
X22428Y18784D1*
X22405Y18739D1*
X22377Y18697D1*
X22344Y18659D1*
X22306Y18626D1*
X22264Y18598D1*
X22219Y18575D1*
X22172Y18559D1*
X22122Y18549D1*
X22072Y18545D1*
X22022Y18547D1*
X21972Y18556D1*
X21924Y18572D1*
X21879Y18593D1*
X21836Y18620D1*
X21797Y18652D1*
X21763Y18689D1*
X21734Y18730D1*
X21710Y18774D1*
X21692Y18821D1*
X21680Y18870D1*
X21675Y18920D1*
X21676Y18971D1*
X21684Y19020D1*
X21697Y19069D1*
X21717Y19115D1*
X21743Y19158D1*
X21774Y19198D1*
X21810Y19233D1*
X21850Y19264D1*
X21894Y19289D1*
X21940Y19308D1*
X21989Y19321D1*
X22039Y19328D1*
X22089Y19329D1*
X22139Y19323D1*
X22188Y19310D1*
X22235Y19292D1*
X22279Y19267D1*
X22319Y19237D1*
X22356Y19202D1*
X22387Y19163D1*
X22414Y19120D1*
X22434Y19074D1*
X22449Y19026D1*
X22457Y18977D1*
X22459Y18931D1*
Y19931D2*
X22455Y19881D1*
X22445Y19831D1*
X22428Y19784D1*
X22405Y19739D1*
X22377Y19697D1*
X22344Y19659D1*
X22306Y19626D1*
X22264Y19598D1*
X22219Y19575D1*
X22172Y19559D1*
X22122Y19549D1*
X22072Y19545D1*
X22022Y19547D1*
X21972Y19556D1*
X21924Y19572D1*
X21879Y19593D1*
X21836Y19620D1*
X21797Y19652D1*
X21763Y19689D1*
X21734Y19730D1*
X21710Y19774D1*
X21692Y19821D1*
X21680Y19870D1*
X21675Y19920D1*
X21676Y19971D1*
X21684Y20020D1*
X21697Y20069D1*
X21717Y20115D1*
X21743Y20158D1*
X21774Y20198D1*
X21810Y20233D1*
X21850Y20264D1*
X21894Y20289D1*
X21940Y20308D1*
X21989Y20321D1*
X22039Y20328D1*
X22089Y20329D1*
X22139Y20323D1*
X22188Y20310D1*
X22235Y20292D1*
X22279Y20267D1*
X22319Y20237D1*
X22356Y20202D1*
X22387Y20163D1*
X22414Y20120D1*
X22434Y20074D1*
X22449Y20026D1*
X22457Y19977D1*
X22459Y19931D1*
Y20931D2*
X22455Y20881D1*
X22445Y20831D1*
X22428Y20784D1*
X22405Y20739D1*
X22377Y20697D1*
X22344Y20659D1*
X22306Y20626D1*
X22264Y20598D1*
X22219Y20575D1*
X22172Y20559D1*
X22122Y20549D1*
X22072Y20545D1*
X22022Y20547D1*
X21972Y20556D1*
X21924Y20572D1*
X21879Y20593D1*
X21836Y20620D1*
X21797Y20652D1*
X21763Y20689D1*
X21734Y20730D1*
X21710Y20774D1*
X21692Y20821D1*
X21680Y20870D1*
X21675Y20920D1*
X21676Y20971D1*
X21684Y21020D1*
X21697Y21069D1*
X21717Y21115D1*
X21743Y21158D1*
X21774Y21198D1*
X21810Y21233D1*
X21850Y21264D1*
X21894Y21289D1*
X21940Y21308D1*
X21989Y21321D1*
X22039Y21328D1*
X22089Y21329D1*
X22139Y21323D1*
X22188Y21310D1*
X22235Y21292D1*
X22279Y21267D1*
X22319Y21237D1*
X22356Y21202D1*
X22387Y21163D1*
X22414Y21120D1*
X22434Y21074D1*
X22449Y21026D1*
X22457Y20977D1*
X22459Y20931D1*
Y21931D2*
X22455Y21881D1*
X22445Y21831D1*
X22428Y21784D1*
X22405Y21739D1*
X22377Y21697D1*
X22344Y21659D1*
X22306Y21626D1*
X22264Y21598D1*
X22219Y21575D1*
X22172Y21559D1*
X22122Y21549D1*
X22072Y21545D1*
X22022Y21547D1*
X21972Y21556D1*
X21924Y21572D1*
X21879Y21593D1*
X21836Y21620D1*
X21797Y21652D1*
X21763Y21689D1*
X21734Y21730D1*
X21710Y21774D1*
X21692Y21821D1*
X21680Y21870D1*
X21675Y21920D1*
X21676Y21971D1*
X21684Y22020D1*
X21697Y22069D1*
X21717Y22115D1*
X21743Y22158D1*
X21774Y22198D1*
X21810Y22233D1*
X21850Y22264D1*
X21894Y22289D1*
X21940Y22308D1*
X21989Y22321D1*
X22039Y22328D1*
X22089Y22329D1*
X22139Y22323D1*
X22188Y22310D1*
X22235Y22292D1*
X22279Y22267D1*
X22319Y22237D1*
X22356Y22202D1*
X22387Y22163D1*
X22414Y22120D1*
X22434Y22074D1*
X22449Y22026D1*
X22457Y21977D1*
X22459Y21931D1*
X22458Y22906D2*
X22448Y22843D1*
X22428Y22784D1*
X22399Y22728D1*
X22361Y22678D1*
X22316Y22634D1*
X22264Y22598D1*
X22207Y22571D1*
X22147Y22553D1*
X22085Y22545D1*
X22022Y22547D1*
X21960Y22560D1*
X21901Y22581D1*
X21846Y22613D1*
X21797Y22652D1*
X21755Y22699D1*
X21721Y22752D1*
X21696Y22809D1*
X21680Y22870D1*
X21675Y22933D1*
X21679Y22996D1*
X21693Y23057D1*
X21717Y23115D1*
X21750Y23169D1*
X21792Y23216D1*
X21840Y23257D1*
X21894Y23289D1*
X21952Y23312D1*
X22014Y23326D1*
X22077Y23329D1*
X22139Y23323D1*
X22200Y23306D1*
X22257Y23280D1*
X22310Y23245D1*
X22356Y23202D1*
X22394Y23153D1*
X22425Y23098D1*
X22446Y23038D1*
X22457Y22977D1*
X22459Y22937D1*
X22458Y22906D1*
X22459Y13931D2*
X22455Y13881D1*
X22445Y13831D1*
X22428Y13784D1*
X22405Y13739D1*
X22377Y13697D1*
X22344Y13659D1*
X22306Y13626D1*
X22264Y13598D1*
X22219Y13575D1*
X22172Y13559D1*
X22122Y13549D1*
X22072Y13545D1*
X22022Y13547D1*
X21972Y13556D1*
X21924Y13572D1*
X21879Y13593D1*
X21836Y13620D1*
X21797Y13652D1*
X21763Y13689D1*
X21734Y13730D1*
X21710Y13774D1*
X21692Y13821D1*
X21680Y13870D1*
X21675Y13920D1*
X21676Y13971D1*
X21684Y14020D1*
X21697Y14069D1*
X21717Y14115D1*
X21743Y14158D1*
X21774Y14198D1*
X21810Y14233D1*
X21850Y14264D1*
X21894Y14289D1*
X21940Y14308D1*
X21989Y14321D1*
X22039Y14328D1*
X22089Y14329D1*
X22139Y14323D1*
X22188Y14310D1*
X22235Y14292D1*
X22279Y14267D1*
X22319Y14237D1*
X22356Y14202D1*
X22387Y14163D1*
X22414Y14120D1*
X22434Y14074D1*
X22449Y14026D1*
X22457Y13977D1*
X22459Y13931D1*
Y14931D2*
X22455Y14881D1*
X22445Y14831D1*
X22428Y14784D1*
X22405Y14739D1*
X22377Y14697D1*
X22344Y14659D1*
X22306Y14626D1*
X22264Y14598D1*
X22219Y14575D1*
X22172Y14559D1*
X22122Y14549D1*
X22072Y14545D1*
X22022Y14547D1*
X21972Y14556D1*
X21924Y14572D1*
X21879Y14593D1*
X21836Y14620D1*
X21797Y14652D1*
X21763Y14689D1*
X21734Y14730D1*
X21710Y14774D1*
X21692Y14821D1*
X21680Y14870D1*
X21675Y14920D1*
X21676Y14971D1*
X21684Y15020D1*
X21697Y15069D1*
X21717Y15115D1*
X21743Y15158D1*
X21774Y15198D1*
X21810Y15233D1*
X21850Y15264D1*
X21894Y15289D1*
X21940Y15308D1*
X21989Y15321D1*
X22039Y15328D1*
X22089Y15329D1*
X22139Y15323D1*
X22188Y15310D1*
X22235Y15292D1*
X22279Y15267D1*
X22319Y15237D1*
X22356Y15202D1*
X22387Y15163D1*
X22414Y15120D1*
X22434Y15074D1*
X22449Y15026D1*
X22457Y14977D1*
X22459Y14931D1*
X6458Y21906D2*
X6448Y21843D1*
X6428Y21784D1*
X6399Y21728D1*
X6361Y21678D1*
X6316Y21634D1*
X6264Y21598D1*
X6207Y21571D1*
X6147Y21553D1*
X6085Y21545D1*
X6022Y21547D1*
X5960Y21560D1*
X5901Y21581D1*
X5846Y21613D1*
X5797Y21652D1*
X5755Y21699D1*
X5721Y21752D1*
X5696Y21809D1*
X5680Y21870D1*
X5675Y21933D1*
X5679Y21996D1*
X5693Y22057D1*
X5717Y22115D1*
X5750Y22169D1*
X5792Y22216D1*
X5840Y22257D1*
X5894Y22289D1*
X5952Y22312D1*
X6014Y22326D1*
X6077Y22329D1*
X6139Y22323D1*
X6200Y22306D1*
X6257Y22280D1*
X6310Y22245D1*
X6356Y22202D1*
X6394Y22153D1*
X6425Y22098D1*
X6446Y22038D1*
X6457Y21977D1*
X6459Y21937D1*
X6458Y21906D1*
Y22906D2*
X6448Y22843D1*
X6428Y22784D1*
X6399Y22728D1*
X6361Y22678D1*
X6316Y22634D1*
X6264Y22598D1*
X6207Y22571D1*
X6147Y22553D1*
X6085Y22545D1*
X6022Y22547D1*
X5960Y22560D1*
X5901Y22581D1*
X5846Y22613D1*
X5797Y22652D1*
X5755Y22699D1*
X5721Y22752D1*
X5696Y22809D1*
X5680Y22870D1*
X5675Y22933D1*
X5679Y22996D1*
X5693Y23057D1*
X5717Y23115D1*
X5750Y23169D1*
X5792Y23216D1*
X5840Y23257D1*
X5894Y23289D1*
X5952Y23312D1*
X6014Y23326D1*
X6077Y23329D1*
X6139Y23323D1*
X6200Y23306D1*
X6257Y23280D1*
X6310Y23245D1*
X6356Y23202D1*
X6394Y23153D1*
X6425Y23098D1*
X6446Y23038D1*
X6457Y22977D1*
X6459Y22937D1*
X6458Y22906D1*
Y14906D2*
X6448Y14843D1*
X6428Y14784D1*
X6399Y14728D1*
X6361Y14678D1*
X6316Y14634D1*
X6264Y14598D1*
X6207Y14571D1*
X6147Y14553D1*
X6085Y14545D1*
X6022Y14547D1*
X5960Y14560D1*
X5901Y14581D1*
X5846Y14613D1*
X5797Y14652D1*
X5755Y14699D1*
X5721Y14752D1*
X5696Y14809D1*
X5680Y14870D1*
X5675Y14933D1*
X5679Y14996D1*
X5693Y15057D1*
X5717Y15115D1*
X5750Y15169D1*
X5792Y15216D1*
X5840Y15257D1*
X5894Y15289D1*
X5952Y15312D1*
X6014Y15326D1*
X6077Y15329D1*
X6139Y15323D1*
X6200Y15306D1*
X6257Y15280D1*
X6310Y15245D1*
X6356Y15202D1*
X6394Y15153D1*
X6425Y15098D1*
X6446Y15038D1*
X6457Y14977D1*
X6459Y14937D1*
X6458Y14906D1*
X6459Y13931D2*
X6455Y13881D1*
X6445Y13831D1*
X6428Y13784D1*
X6405Y13739D1*
X6377Y13697D1*
X6344Y13659D1*
X6306Y13626D1*
X6264Y13598D1*
X6219Y13575D1*
X6172Y13559D1*
X6122Y13549D1*
X6072Y13545D1*
X6022Y13547D1*
X5972Y13556D1*
X5924Y13572D1*
X5879Y13593D1*
X5836Y13620D1*
X5797Y13652D1*
X5763Y13689D1*
X5734Y13730D1*
X5710Y13774D1*
X5692Y13821D1*
X5680Y13870D1*
X5675Y13920D1*
X5676Y13971D1*
X5684Y14020D1*
X5697Y14069D1*
X5717Y14115D1*
X5743Y14158D1*
X5774Y14198D1*
X5810Y14233D1*
X5850Y14264D1*
X5894Y14289D1*
X5940Y14308D1*
X5989Y14321D1*
X6039Y14328D1*
X6089Y14329D1*
X6139Y14323D1*
X6188Y14310D1*
X6235Y14292D1*
X6279Y14267D1*
X6319Y14237D1*
X6356Y14202D1*
X6387Y14163D1*
X6414Y14120D1*
X6434Y14074D1*
X6449Y14026D1*
X6457Y13977D1*
X6459Y13931D1*
X6458Y10906D2*
X6448Y10843D1*
X6428Y10784D1*
X6399Y10728D1*
X6361Y10678D1*
X6316Y10634D1*
X6264Y10598D1*
X6207Y10571D1*
X6147Y10553D1*
X6085Y10545D1*
X6022Y10547D1*
X5960Y10560D1*
X5901Y10581D1*
X5846Y10613D1*
X5797Y10652D1*
X5755Y10699D1*
X5721Y10752D1*
X5696Y10809D1*
X5680Y10870D1*
X5675Y10933D1*
X5679Y10996D1*
X5693Y11057D1*
X5717Y11115D1*
X5750Y11169D1*
X5792Y11216D1*
X5840Y11257D1*
X5894Y11289D1*
X5952Y11312D1*
X6014Y11326D1*
X6077Y11329D1*
X6139Y11323D1*
X6200Y11306D1*
X6257Y11280D1*
X6310Y11245D1*
X6356Y11202D1*
X6394Y11153D1*
X6425Y11098D1*
X6446Y11038D1*
X6457Y10977D1*
X6459Y10937D1*
X6458Y10906D1*
X18458Y27906D2*
X18448Y27843D1*
X18428Y27784D1*
X18399Y27728D1*
X18361Y27678D1*
X18316Y27634D1*
X18264Y27598D1*
X18207Y27571D1*
X18147Y27553D1*
X18085Y27545D1*
X18022Y27547D1*
X17960Y27560D1*
X17901Y27581D1*
X17846Y27613D1*
X17797Y27652D1*
X17755Y27699D1*
X17721Y27752D1*
X17696Y27809D1*
X17680Y27870D1*
X17675Y27933D1*
X17679Y27996D1*
X17693Y28057D1*
X17717Y28115D1*
X17750Y28169D1*
X17792Y28216D1*
X17840Y28257D1*
X17894Y28289D1*
X17952Y28312D1*
X18014Y28326D1*
X18077Y28329D1*
X18139Y28323D1*
X18200Y28306D1*
X18257Y28280D1*
X18310Y28245D1*
X18356Y28202D1*
X18394Y28153D1*
X18425Y28098D1*
X18446Y28038D1*
X18457Y27977D1*
X18459Y27937D1*
X18458Y27906D1*
Y28906D2*
X18448Y28843D1*
X18428Y28784D1*
X18399Y28728D1*
X18361Y28678D1*
X18316Y28634D1*
X18264Y28598D1*
X18207Y28571D1*
X18147Y28553D1*
X18085Y28545D1*
X18022Y28547D1*
X17960Y28560D1*
X17901Y28581D1*
X17846Y28613D1*
X17797Y28652D1*
X17755Y28699D1*
X17721Y28752D1*
X17696Y28809D1*
X17680Y28870D1*
X17675Y28933D1*
X17679Y28996D1*
X17693Y29057D1*
X17717Y29115D1*
X17750Y29169D1*
X17792Y29216D1*
X17840Y29257D1*
X17894Y29289D1*
X17952Y29312D1*
X18014Y29326D1*
X18077Y29329D1*
X18139Y29323D1*
X18200Y29306D1*
X18257Y29280D1*
X18310Y29245D1*
X18356Y29202D1*
X18394Y29153D1*
X18425Y29098D1*
X18446Y29038D1*
X18457Y28977D1*
X18459Y28937D1*
X18458Y28906D1*
X21175Y11042D2*
X21416D1*
X21395Y11090D1*
X21389Y11121D1*
X21387Y11143D1*
X21185D1*
X21167Y11108D1*
X21131Y11069D1*
X21101Y11039D1*
Y10830D1*
X21144Y10788D1*
X21143Y11042D1*
X21175D1*
X8222Y21967D2*
X8250D1*
Y22009D1*
X8190Y22010D1*
X8164Y22009D1*
X7840D1*
X7798Y21967D1*
X8227D1*
X16031Y18443D2*
X16573D1*
Y17856D1*
X16025D1*
Y18443D1*
X16031D1*
X17671D2*
X18188D1*
Y17856D1*
X17639D1*
Y18443D1*
X17671D1*
X16681Y18089D2*
X17538D1*
Y17659D1*
X16675D1*
Y18089D1*
X16681D1*
X17671Y17085D2*
X18188D1*
Y16497D1*
X17639D1*
Y17085D1*
X17671D1*
Y17715D2*
X18188D1*
Y17127D1*
X17639D1*
Y17715D1*
X17671D1*
X13739Y19940D2*
X13740Y19911D1*
X13771Y19907D1*
X13801Y19895D1*
X13830Y19873D1*
X13921Y19782D1*
X13912Y19815D1*
X13738Y19988D1*
X13739Y19911D1*
X13756Y19910D1*
X13786Y19902D1*
X13814Y19887D1*
X13830Y19873D1*
X19378Y8443D2*
X19485D1*
X19487Y8494D1*
X19361D1*
X19371Y8443D1*
X19378D1*
X19600D2*
X19694D1*
X19684Y8494D1*
X19558D1*
X19568Y8443D1*
X19600D1*
X15552Y23530D2*
X15553Y23732D1*
Y26752D1*
X15546Y26792D1*
X15530Y26829D1*
X15504Y26860D1*
X15472Y26884D1*
X15456Y26891D1*
X15218Y26892D1*
X15191Y26891D1*
X14824D1*
Y26932D1*
X14782Y26931D1*
Y26891D1*
X14742D1*
X14743Y26823D1*
Y26653D1*
X15176Y26652D1*
Y26222D1*
X15135D1*
X15176Y26219D1*
Y25789D1*
X14746Y25790D1*
X14751Y25789D1*
X14742D1*
X14743Y25786D1*
X14782Y25785D1*
X14802Y25786D1*
X15176D1*
Y25356D1*
X14352D1*
Y25396D1*
X14349Y25392D1*
Y25116D1*
X14352Y25117D1*
Y25156D1*
X14782Y25155D1*
X14802Y25156D1*
X15176D1*
Y24726D1*
X14352D1*
Y24766D1*
X14349Y24762D1*
X14348Y24490D1*
X14349Y24495D1*
Y24486D1*
X14352Y24526D1*
X14782Y24525D1*
X14802Y24526D1*
X15176D1*
Y24096D1*
X14352D1*
Y24136D1*
X14349Y24096D1*
X14179D1*
X13894Y23768D1*
X13703Y23549D1*
X13661Y23513D1*
X13617Y23483D1*
X13569Y23459D1*
X13519Y23441D1*
X13467Y23430D1*
X13443Y23428D1*
Y23387D1*
X13214D1*
X13195Y23355D1*
X13188Y23343D1*
X13191Y23325D1*
X13365D1*
Y22991D1*
X13424D1*
Y22931D1*
X13758D1*
X13900Y22932D1*
X13952D1*
X13958Y22942D1*
Y23089D1*
X14388D1*
Y23049D1*
X14391Y23053D1*
Y23483D1*
X14432D1*
X14391Y23486D1*
Y23916D1*
X14821Y23915D1*
X14842Y23916D1*
X15215D1*
Y23486D1*
X14781D1*
X14821Y23483D1*
X14820Y23053D1*
X14824D1*
Y23483D1*
X15254D1*
Y23442D1*
X15257Y23483D1*
X15480D1*
X12195Y16385D2*
X11230Y17350D1*
X11229Y16804D1*
X11805Y16229D1*
X11972D1*
X12188D1*
X12176Y16278D1*
X12175Y16310D1*
X12180Y16341D1*
X12189Y16371D1*
X12196Y16384D1*
X9882Y21219D2*
Y20789D1*
X9667Y21004D2*
X9882D1*
Y21652D2*
Y21222D1*
X9667Y21437D2*
X9882D1*
X10866Y17480D2*
Y17265D1*
X14016Y17774D2*
Y17344D1*
Y17559D2*
X14231D1*
X15138Y19979D2*
Y19764D1*
X14923D2*
X15138D1*
X14665Y19979D2*
Y19764D1*
X14880D1*
X14488Y17774D2*
Y17344D1*
X14273Y17559D2*
X14488D1*
X15295Y18898D2*
Y18683D1*
X15080Y18898D2*
X15510D1*
X22480Y12951D2*
Y12521D1*
Y12736D2*
X22695D1*
X21791Y10433D2*
Y10218D1*
X15768Y18031D2*
Y17816D1*
X15553Y18031D2*
X15983D1*
X10965Y21850D2*
Y21635D1*
X10750Y21850D2*
X10965D1*
X14961Y25156D2*
Y24726D1*
Y24941D2*
X15176D1*
X14961Y25786D2*
Y25356D1*
Y25571D2*
X15176D1*
X13268Y26652D2*
Y26222D1*
X13053Y26437D2*
X13268D1*
X15472Y22067D2*
Y21852D1*
X15257Y22067D2*
X15687D1*
X15709Y20984D2*
Y20769D1*
Y20984D2*
X15924D1*
X15709Y21613D2*
Y21398D1*
X15924D1*
X12835Y25550D2*
Y25335D1*
X12620D2*
X13050D1*
X12362Y24547D2*
Y24332D1*
X12147Y24547D2*
X12577D1*
X11929D2*
Y24332D1*
X11714Y24547D2*
X12144D1*
X14961Y24526D2*
Y24096D1*
Y24311D2*
X15176D1*
X14567Y22262D2*
Y21832D1*
Y22047D2*
X14782D1*
X10965Y22479D2*
Y22264D1*
X10750D2*
X10965D1*
Y22756D2*
Y22541D1*
X10750Y22756D2*
X10965D1*
Y23384D2*
Y23169D1*
X10750D2*
X10965D1*
X18051Y11928D2*
Y11713D1*
X18266D1*
X17657Y9213D2*
Y8998D1*
Y9213D2*
X17872D1*
X18130D2*
Y8998D1*
X17915Y9213D2*
X18345D1*
X14843Y8384D2*
Y7246D1*
X14037Y7815D2*
X15648D1*
X10000Y8384D2*
Y7246D1*
X9194Y7815D2*
X10806D1*
X10000Y13778D2*
Y12639D1*
Y13209D2*
X10806D1*
X14843Y13778D2*
Y12639D1*
X14037Y13209D2*
X15648D1*
X11909Y10000D2*
Y9431D1*
X11340Y10000D2*
X11909D1*
Y11593D2*
Y11024D1*
X11340D2*
X11909D1*
X12933Y11593D2*
Y11024D1*
X13502D1*
X12933Y10000D2*
Y9431D1*
Y10000D2*
X13502D1*
X20315Y7567D2*
D16*
Y6389D1*
Y6978D2*
X20510D1*
X21457Y5402D2*
D20*
Y4224D1*
X20966Y4813D2*
X21947D1*
X17913Y5402D2*
Y4224D1*
X17423Y4813D2*
X18404D1*
X21457Y7567D2*
Y6389D1*
X20966Y6978D2*
X21947D1*
X17913Y7567D2*
Y6389D1*
X17423Y6978D2*
X18404D1*
X20098Y15157D2*
Y14942D1*
X19864Y15157D2*
X20333D1*
X16260Y19979D2*
Y19764D1*
X16025D2*
X16495D1*
X19075Y15157D2*
Y14942D1*
X18840Y15157D2*
X19309D1*
X19587D2*
Y14942D1*
X19352Y15157D2*
X19821D1*
X24067Y20329D2*
D16*
Y19545D1*
X23675Y19937D2*
X24459D1*
X24067Y21329D2*
Y20545D1*
X23675Y20937D2*
X24459D1*
X5067Y14729D2*
Y13945D1*
X4675Y14337D2*
X5459D1*
X22067Y16329D2*
Y15545D1*
X21675Y15937D2*
X22459D1*
X22067Y17329D2*
Y16545D1*
Y18329D2*
Y17545D1*
X21675Y17937D2*
X22459D1*
X22067Y19329D2*
Y18545D1*
X21675Y18937D2*
X22459D1*
X22067Y20329D2*
Y19545D1*
X21675Y19937D2*
X22459D1*
X22067Y21329D2*
Y20545D1*
X21675Y20937D2*
X22459D1*
X22067Y22329D2*
Y21545D1*
X21675Y21937D2*
X22459D1*
X22067Y14329D2*
Y13545D1*
X21675Y13937D2*
X22459D1*
X22067Y15329D2*
Y14545D1*
X21675Y14937D2*
X22459D1*
X15000Y23916D2*
D20*
Y23486D1*
Y23701D2*
X15215D1*
X6067Y14329D2*
D16*
Y13545D1*
X5675Y13937D2*
X6459D1*
X16307Y30335D2*
D15*
Y29238D1*
X15760Y30335D2*
X16854D1*
X12827D2*
Y29238D1*
X12280Y30335D2*
X13374D1*
X20886Y10433D2*
D20*
Y10218D1*
X20671Y10433D2*
X21101D1*
X8012Y23463D2*
Y23033D1*
X7797Y23248D2*
X8012D1*
Y21967D2*
Y21537D1*
X7797Y21752D2*
X8012D1*
X15354Y17774D2*
Y17559D1*
X15139D2*
X15354D1*
X16299Y18443D2*
Y17856D1*
X16025Y18150D2*
X16573D1*
X17106Y18089D2*
Y17659D1*
X16675Y17874D2*
X17538D1*
X17106Y16731D2*
Y16516D1*
X16675D2*
X17538D1*
X13533Y19980D2*
X13739D1*
X11319Y21219D2*
Y21014D1*
X13091Y18356D2*
Y18151D1*
X13209Y23325D2*
Y23120D1*
X13365D1*
X19528Y8443D2*
Y7856D1*
X21063Y12439D2*
Y12205D1*
X20907D2*
X21063D1*
X21319Y11378D2*
Y11143D1*
X20907Y11791D2*
X21731D1*
X21872Y11673D2*
X22028D1*
X18169Y10197D2*
Y9962D1*
Y10197D2*
X18325D1*
X17502Y10610D2*
X18325D1*
X14309Y29336D2*
X14825D1*
X14309Y29274D2*
X14825D1*
X14309Y29213D2*
X14825D1*
X14309Y29151D2*
X14825D1*
X14309Y29089D2*
X14825D1*
X14309Y29028D2*
X14825D1*
X14309Y28966D2*
X14825D1*
X14309Y28904D2*
X14825D1*
X14309Y28843D2*
X14825D1*
X14309Y28781D2*
X14825D1*
X14309Y28719D2*
X14825D1*
X14309Y28657D2*
X14825D1*
X14309Y28596D2*
X14825D1*
X14309Y28534D2*
X14825D1*
X14309Y28472D2*
X14825D1*
X14309Y28411D2*
X14825D1*
X14309Y28349D2*
X14825D1*
X14309Y28287D2*
X14825D1*
X14309Y28226D2*
X14825D1*
X14309Y28164D2*
X14825D1*
X14309Y28102D2*
X14825D1*
X14309Y28041D2*
X14825D1*
X14309Y27979D2*
X14825D1*
X14309Y27917D2*
X14825D1*
X14309Y27856D2*
X14825D1*
X14324Y27794D2*
X14810D1*
X14386Y27732D2*
X14748D1*
X14447Y27671D2*
X14687D1*
X14303Y27809D2*
X14474Y27637D1*
X14480Y27618D1*
Y27610D1*
X14655D1*
X14654Y27618D1*
X14665Y27642D1*
X14831Y27809D1*
Y28299D1*
Y29398D1*
X14303D1*
Y27808D1*
D23*
X10276Y21004D3*
X9882D3*
X10276Y21437D3*
X9882D3*
X10866Y17874D3*
Y17480D3*
X13622Y17559D3*
X14016D3*
X15531Y19764D3*
X15138D3*
X14272D3*
X14665D3*
X14882Y17559D3*
X14488D3*
X15295Y19291D3*
Y18898D3*
X22087Y12736D3*
X22480D3*
X21791Y10827D3*
Y10433D3*
X15768Y18425D3*
Y18031D3*
Y17165D3*
Y17559D3*
X11358Y21850D3*
X10965D3*
X14567Y24941D3*
X14961D3*
X14567Y25571D3*
X14961D3*
X13661Y26437D3*
X13268D3*
X15472Y22461D3*
Y22067D3*
X15039Y22874D3*
Y23268D3*
X14606Y22874D3*
Y23268D3*
X15433Y27106D3*
X15039D3*
X14567D3*
Y27500D3*
X15315Y20984D3*
X15709D3*
X15315Y21398D3*
X15709D3*
X12835Y24941D3*
Y25335D3*
X12362Y24941D3*
Y24547D3*
X11929Y24941D3*
Y24547D3*
X14961Y26437D3*
X14567D3*
X14961Y24311D3*
X14567D3*
X14173Y22047D3*
X14567D3*
X11358Y22264D3*
X10965D3*
X11358Y22756D3*
X10965D3*
X11358Y23169D3*
X10965D3*
X17657Y11713D3*
X18051D3*
X17657Y9606D3*
Y9213D3*
X18130Y9606D3*
Y9213D3*
D26*
X9843Y10512D3*
Y9488D3*
Y11535D3*
X15000Y10512D3*
Y9488D3*
Y11535D3*
D27*
X12421Y7303D3*
X13563D3*
X11280D3*
X12421Y13720D3*
X13563D3*
X11280D3*
D28*
X14843Y7815D3*
X10000D3*
Y13209D3*
X14843D3*
D29*
X11909Y10000D3*
Y11024D3*
X12933D3*
Y10000D3*
D30*
X19685Y6978D3*
X19370D3*
X20315D3*
X20000D3*
D31*
X21457Y4813D3*
X17913D3*
X21457Y6978D3*
X17913D3*
D30*
X19055D3*
D32*
X23051Y12736D3*
Y12067D3*
X22362Y10807D3*
Y10138D3*
X20335Y11122D3*
Y10453D3*
D34*
X8406Y22756D3*
X8012D3*
X8406Y22244D3*
X8012D3*
D35*
X20098Y15551D3*
Y15157D3*
X16260Y19370D3*
Y19764D3*
X19075Y15551D3*
Y15157D3*
X19587Y15551D3*
Y15157D3*
D36*
X24067Y14937D3*
Y15937D3*
Y16937D3*
Y17937D3*
Y18937D3*
Y19937D3*
Y20937D3*
Y21937D3*
Y23937D3*
Y24937D3*
Y25937D3*
Y26937D3*
Y27937D3*
Y28937D3*
X5067D3*
Y27937D3*
Y26937D3*
Y25937D3*
Y24937D3*
Y23937D3*
Y22937D3*
Y21937D3*
Y20337D3*
Y19337D3*
Y18337D3*
Y17337D3*
Y16337D3*
Y15337D3*
Y14337D3*
Y13337D3*
Y12337D3*
Y11337D3*
X21067Y15937D3*
Y16937D3*
Y17937D3*
Y18937D3*
Y19937D3*
Y20937D3*
Y21937D3*
Y22937D3*
Y13937D3*
Y14937D3*
X22067Y15937D3*
Y16937D3*
Y17937D3*
Y18937D3*
Y19937D3*
Y20937D3*
Y21937D3*
Y22937D3*
Y13937D3*
Y14937D3*
X7067Y21937D3*
Y22937D3*
X6067Y21937D3*
Y22937D3*
D23*
X13228Y23996D3*
Y23602D3*
X14134Y24311D3*
Y24705D3*
Y25177D3*
Y25571D3*
Y26043D3*
Y26437D3*
X15472Y22874D3*
Y23268D3*
X14606Y23701D3*
X15000D3*
X14173Y22480D3*
Y22874D3*
D37*
X12283Y23760D3*
X11496D3*
D23*
Y24547D3*
Y24941D3*
X14961Y26004D3*
X14567D3*
D36*
X6067Y19937D3*
Y18937D3*
D38*
X15020Y10512D3*
D36*
X6067Y17937D3*
D38*
X15020Y9488D3*
D36*
X6067Y16937D3*
D38*
X15020Y7815D3*
D36*
X6067Y15937D3*
D38*
X13563Y7303D3*
D36*
X6067Y14937D3*
D38*
X12421Y7303D3*
D36*
X6067Y13937D3*
D38*
X11280Y7303D3*
D36*
X6067Y12937D3*
D38*
X9843Y7815D3*
D36*
X6067Y11937D3*
Y10937D3*
X18067Y27937D3*
D38*
X9843Y9488D3*
D36*
X18067Y28937D3*
D38*
X9843Y10512D3*
D36*
X21067Y27937D3*
D38*
X9843Y11535D3*
D36*
X21067Y28937D3*
D38*
X9843Y13248D3*
X15020Y11535D3*
D39*
X14567Y30335D3*
X16307D3*
D38*
X11280Y13720D3*
D39*
X12827Y30335D3*
D38*
X12421Y13720D3*
X13563D3*
X15020Y13248D3*
X12933Y11024D3*
X11909Y10000D3*
Y11024D3*
X12933Y10000D3*
D23*
X15768Y19291D3*
Y18898D3*
X21358Y10433D3*
Y10827D3*
X20886Y10433D3*
Y10827D3*
X8406Y23248D3*
X8012D3*
X8406Y21752D3*
X8012D3*
X15354Y17559D3*
Y17165D3*
X13228Y24469D3*
X12835D3*
X13307Y25335D3*
Y24941D3*
D40*
X16299Y18150D3*
Y18780D3*
X17913Y18150D3*
Y18780D3*
D41*
X17106Y17874D3*
D40*
X16299Y16791D3*
Y17421D3*
X17913Y16791D3*
Y17421D3*
D41*
X17106Y16516D3*
D43*
X13533Y18602D3*
Y18799D3*
Y18996D3*
Y19193D3*
Y19390D3*
Y19587D3*
Y19783D3*
Y19980D3*
Y20177D3*
Y20374D3*
Y20571D3*
Y20768D3*
D46*
X13287Y21014D3*
X13091D3*
X12894D3*
X12697D3*
X12500D3*
X12303D3*
X12106D3*
X11909D3*
X11713D3*
X11516D3*
X11319D3*
X11122D3*
D43*
X10876Y20768D3*
Y20571D3*
Y20374D3*
Y20177D3*
Y19980D3*
Y19783D3*
Y19587D3*
Y19390D3*
Y19193D3*
Y18996D3*
Y18799D3*
Y18602D3*
D46*
X11122Y18356D3*
X11319D3*
X11516D3*
X11713D3*
X11909D3*
X12106D3*
X12303D3*
X12500D3*
X12697D3*
X12894D3*
X13091D3*
X13287D3*
D49*
X12205Y19685D3*
D46*
X12421Y21644D3*
X12618D3*
X12815D3*
X13012D3*
X13209D3*
D43*
X13553Y21988D3*
Y22185D3*
Y22382D3*
Y22579D3*
Y22776D3*
D46*
X13209Y23120D3*
X13012D3*
X12815D3*
X12618D3*
X12421D3*
D43*
X12077Y22776D3*
Y22579D3*
Y22382D3*
Y22185D3*
Y21988D3*
D51*
X12815Y22382D3*
D52*
X19331Y8150D3*
X19528D3*
X19724D3*
Y8787D3*
X19528D3*
X19331D3*
D54*
X21575Y12205D3*
X21319D3*
X21063D3*
Y11378D3*
X21319D3*
X21575D3*
D57*
X21319Y11791D3*
D46*
X22421Y11358D3*
X22224D3*
X22028D3*
Y11673D3*
X22224D3*
X22421D3*
D54*
X17657Y10197D3*
X17913D3*
X18169D3*
Y11024D3*
X17913D3*
X17657D3*
D57*
X17913Y10610D3*
D59*
X14547Y18169D3*
Y19154D3*
D61*
X14193Y21535D3*
Y21142D3*
X14705Y21535D3*
Y21142D3*
G36*
X16929Y4094D2*
X4094D1*
Y6850D1*
X4331D1*
Y4331D1*
X16929D1*
Y4094D1*
G37*
M02*
