G04 DipTrace 2.3.1.0*
%INBottom.gbr*%
%MOIN*%
%ADD13C,0.006*%
%ADD14C,0.0118*%
%ADD15C,0.0197*%
%ADD16C,0.0157*%
%ADD19C,0.0079*%
%ADD20C,0.0063*%
%ADD21C,0.0276*%
%ADD36C,0.0591*%
%ADD38C,0.0472*%
%ADD39R,0.09X0.2*%
%ADD62C,0.018*%
%ADD64C,0.025*%
%FSLAX44Y44*%
G04*
G70*
G90*
G75*
G01*
%LNBottom*%
%LPD*%
X6067Y13937D2*
D15*
X6890Y13563D1*
D14*
X7519Y14179D1*
X12480Y21289D2*
D13*
X12559Y21329D1*
X12736D1*
X12835Y21388D1*
X11791Y22598D2*
X11673Y22559D1*
X11358Y22461D1*
X10650Y19587D2*
Y20551D1*
X9528Y21673D1*
Y24587D1*
X5177Y28937D1*
X5067D1*
Y24937D2*
Y24862D1*
X5295D1*
X5453Y24705D1*
X7323D1*
X8484Y23543D1*
Y20984D1*
X11319Y18150D1*
X12362Y16299D2*
Y13720D1*
X12421D1*
X10256Y19980D2*
Y20512D1*
X9252Y21516D1*
Y24390D1*
X6693Y26949D1*
X5079D1*
X5067Y26937D1*
X10453Y19783D2*
Y20531D1*
X9390Y21594D1*
Y24488D1*
X6024Y27854D1*
X5150D1*
X5067Y27937D1*
X6575Y17953D2*
D19*
Y15748D1*
X6201Y15197D1*
D13*
X6063Y14941D1*
X6067Y14937D1*
D14*
X5295Y15236D1*
D13*
X5067Y15337D1*
X6067Y16937D2*
D14*
X5315Y17244D1*
D13*
X5067Y17337D1*
Y23937D2*
X6772D1*
X7520Y23189D1*
Y20866D1*
X10433Y17953D1*
X11516D1*
X11512Y18000D1*
X11445D1*
X11398Y17953D1*
X6067Y22937D2*
D14*
X5067D1*
X11713Y18150D2*
D13*
Y17933D1*
X11594Y17815D1*
X10374D1*
X6555Y21634D1*
Y22657D1*
X6276Y22937D1*
X6067D1*
Y21937D2*
D14*
X5067D1*
X6067D2*
D13*
Y21925D1*
X10307Y17685D1*
X11669D1*
X11909Y17913D1*
Y17992D1*
X17441Y21654D2*
Y19783D1*
X15453Y17795D1*
X12520D1*
X12106Y17382D1*
X5067Y11337D2*
D15*
X5433Y11201D1*
X5550Y11154D1*
D13*
Y12184D1*
X5787Y12421D1*
X7894D1*
X8248Y12776D1*
X9744Y16909D1*
X9882Y17047D1*
X10965D1*
X11220Y17303D1*
X11988D1*
X12067Y17382D1*
X12106D1*
X5550Y11154D2*
D15*
X5728Y11083D1*
X6067Y10937D1*
X17717Y21654D2*
D13*
Y21594D1*
X17579Y21457D1*
Y19724D1*
X15512Y17657D1*
X12736D1*
X12303Y17224D1*
X12282D1*
X12211Y17167D1*
X11301D1*
X11043Y16909D1*
X9941D1*
X9862Y16831D1*
X8366Y12697D1*
X7953Y12283D1*
X6437D1*
X6079Y11925D1*
X6067Y11937D1*
X12697Y18150D2*
X12551Y18091D1*
X12303D1*
X11772Y17559D1*
X10236D1*
X7854Y19941D1*
X6071D1*
X6067Y19937D1*
X12894Y18000D2*
X12757Y17953D1*
X12382D1*
X11862Y17433D1*
X10165D1*
X8661Y18937D1*
X6067D1*
X5067Y25937D2*
Y25898D1*
X5492Y25472D1*
X6791D1*
X8622Y23642D1*
Y21043D1*
X11083Y18583D1*
X13819D1*
X13150Y17461D2*
X12146Y16457D1*
Y14567D1*
X11280Y13701D1*
Y13720D1*
X13445Y21368D2*
X13240Y21573D1*
X12409D1*
X12063Y21919D1*
Y22108D1*
X11827Y22344D1*
X19587Y15886D2*
X20512Y16811D1*
Y18382D1*
X21067Y18937D1*
X19070Y15871D2*
X19238D1*
X19449Y16083D1*
X19587D1*
X20374Y16870D1*
Y19244D1*
X21067Y19937D1*
X18799Y6929D2*
X18839Y6890D1*
X21067Y15937D2*
X21075D1*
X21555Y16417D1*
X22343D1*
X22862Y16937D1*
X24067D1*
D62*
X14902Y19764D3*
X13366Y23120D3*
X14252Y17461D3*
X19528Y7795D3*
X10866Y17244D3*
X21791Y10217D3*
X12480Y21289D3*
X12835Y21388D3*
X11791Y22598D3*
X11358Y22461D3*
X17185Y9606D3*
Y9862D3*
Y9350D3*
Y9094D3*
X21575Y11142D3*
X10650Y19587D3*
X11319Y18150D3*
X12362Y16299D3*
X11319Y18150D3*
X10256Y19980D3*
X10453Y19783D3*
X6575Y17953D3*
X11512Y18000D3*
X11713Y18150D3*
X11909Y17992D3*
X17441Y21654D3*
X12106Y17382D3*
X17717Y21654D3*
X12303Y17224D3*
X12697Y18150D3*
X12894Y18000D3*
X13819Y18583D3*
X13150Y17461D3*
X13819Y18583D3*
X13780Y19390D3*
X13445Y21368D3*
X11827Y22344D3*
D3*
X19587Y15886D3*
X19070Y15871D3*
X18799Y6929D3*
X19528Y9154D3*
X19055Y7598D3*
X18799Y6594D3*
Y7283D3*
X20335Y10020D3*
X20098D3*
X20335Y10768D3*
X20098D3*
X10965Y21171D3*
X11849Y22868D3*
X14094Y19852D3*
X10866Y18209D3*
X15703Y19593D3*
X13465Y18356D3*
X13622Y17343D3*
X10512Y21004D3*
Y21433D3*
X11358Y22953D3*
X13976Y22205D3*
X13307Y25571D3*
X16634Y17421D3*
D64*
X11319Y20581D3*
X13091D3*
X11752D3*
X12205D3*
D62*
X20394Y22028D3*
X17303D3*
X21555Y26417D3*
D64*
X11319Y19341D3*
X13091D3*
X11752D3*
X12205D3*
X11319Y18809D3*
X13091D3*
X11752D3*
X12205D3*
X12461Y22746D3*
X12815D3*
X13169D3*
X12461Y22392D3*
X12815D3*
X13169D3*
X12461Y22037D3*
X12815D3*
X13169D3*
D62*
X17303Y24783D3*
X16772Y19626D3*
D64*
X11319Y19872D3*
D62*
X18701Y27244D3*
X17500Y25768D3*
D64*
X13091Y19872D3*
X11752D3*
X12205D3*
X12657Y20581D3*
D62*
X20059Y18504D3*
D64*
X12657Y19341D3*
Y18809D3*
Y19872D3*
D62*
X17953Y26594D3*
X17303Y22953D3*
X19921Y11909D3*
X16654Y9390D3*
X17303Y23898D3*
X18878Y10807D3*
X17185Y8465D3*
X16594Y7697D3*
X11614Y16732D3*
X11299Y12008D3*
X17953Y8465D3*
X18386Y18878D3*
X20630Y26378D3*
X17185Y7697D3*
X8209Y13957D3*
X22579Y28465D3*
X20433Y24193D3*
X17913Y21201D3*
X15650Y16732D3*
X17953Y7697D3*
X11535Y12756D3*
X19783Y20079D3*
X14862Y16732D3*
X19508Y16713D3*
X18524D3*
X17087Y17087D3*
X12835Y16732D3*
X14547Y18661D3*
X17106Y18504D3*
X13839Y16732D3*
X23425Y11673D3*
X23150Y9055D3*
X19783Y23484D3*
X24016Y8268D3*
X21220Y7736D3*
X22913Y8268D3*
X18563Y23720D3*
Y22500D3*
X13209Y12008D3*
X14075D3*
X20472Y23130D3*
X21555Y28465D3*
X14094Y11024D3*
X14961D3*
X14094Y10000D3*
X14606Y8740D3*
X19075Y21161D3*
X12402Y8622D3*
X13681Y8307D3*
X15374Y24016D3*
Y24409D3*
X15394Y8740D3*
X15374Y25197D3*
Y23622D3*
Y24803D3*
X6909Y13898D3*
X19665Y19114D3*
X13681Y9134D3*
X23701Y23563D3*
X18543Y21280D3*
X21555Y24429D3*
X23701Y25453D3*
Y26417D3*
Y28465D3*
X15374Y26772D3*
X16142Y20866D3*
X19724Y26083D3*
X23386Y15394D3*
X19665Y22283D3*
X4724Y9055D3*
X19409Y18110D3*
X17992Y24350D3*
X19626Y21024D3*
X14882Y26772D3*
X23701Y24429D3*
X7185Y14783D3*
X6693Y12992D3*
X19094Y22402D3*
X6614Y19508D3*
X10492Y12362D3*
X14724Y15531D3*
X12283Y12008D3*
X9961Y19232D3*
X14724Y14606D3*
X9528Y17638D3*
X6614Y18563D3*
X5610Y13583D3*
Y17657D3*
X9528Y16929D3*
X10335Y18504D3*
X15039Y12283D3*
X16752Y12815D3*
X17461Y12323D3*
X10335Y16654D3*
X17008Y11850D3*
X9508Y14606D3*
X5827Y11457D3*
X10394Y14075D3*
X15984Y12303D3*
X16122Y13209D3*
X15689Y13996D3*
X14724D3*
X16594Y8465D3*
X9252Y7008D3*
X9843D3*
X11811D3*
X12992D3*
X11811Y7795D3*
X12992D3*
X10630Y7008D3*
X10787Y8661D3*
X11220Y8228D3*
X11890Y9134D3*
X12756D3*
X13031Y8622D3*
X16535Y7008D3*
X10059Y8661D3*
X9350D3*
X21969Y6654D3*
Y5079D3*
X9823Y15453D3*
X11575Y14606D3*
X10610Y14902D3*
X11575Y15531D3*
X6043Y9685D3*
X5610Y12638D3*
X16850Y10630D3*
X13150Y14606D3*
X22736Y9843D3*
X17421Y11358D3*
X17736D3*
X18051D3*
X6594Y20866D3*
X22736Y10433D3*
X17736Y10610D3*
X18091D3*
X20551Y11457D3*
X20315D3*
X20768D3*
X22736Y10138D3*
X5827Y16457D3*
X16299Y14252D3*
Y15531D3*
X7677Y12736D3*
X21496Y11791D3*
X18268Y13524D3*
X22028Y12185D3*
X5610Y14646D3*
X22638Y12185D3*
X21693Y12657D3*
X22323Y12185D3*
X21142Y11791D3*
X12520Y12756D3*
X18406Y12224D3*
X11063Y23819D3*
X17402Y13169D3*
X17736Y15531D3*
X5591Y19587D3*
X18858Y9587D3*
Y8307D3*
X19744Y10807D3*
Y9783D3*
X15984Y11437D3*
X20098Y7933D3*
X20118Y9055D3*
X19193Y12598D3*
X5610Y15610D3*
X10925Y16142D3*
X15984Y10650D3*
X8268Y18701D3*
X5591Y20866D3*
X7736Y22500D3*
X6988Y24311D3*
X7874Y26535D3*
X7677Y18110D3*
X16142Y21260D3*
X6575Y23465D3*
X15177Y22224D3*
X7835Y23642D3*
X6555Y25079D3*
X8957Y22441D3*
X7717Y25217D3*
X7087Y25866D3*
X5610Y23465D3*
X14961Y7008D3*
X8957Y23228D3*
X5906Y9055D3*
X15984Y9075D3*
X5118Y9055D3*
X15984Y8287D3*
X17323Y7008D3*
X14173D3*
X5512Y9055D3*
X6299D3*
X13563Y12756D3*
X18150Y6063D3*
X20492Y25335D3*
X15984Y9843D3*
Y7480D3*
X19685Y6063D3*
X21299D3*
X21555Y25453D3*
X18898Y5118D3*
X20472D3*
X19547Y24665D3*
X22441Y4213D3*
X23228D3*
X24016D3*
X19685Y5118D3*
X7303Y20236D3*
X7224Y21358D3*
X8957Y21732D3*
Y23976D3*
X9173Y21024D3*
X5610Y22441D3*
X8327Y24606D3*
X18799Y19626D3*
X22598Y25453D3*
X19094Y26614D3*
X14823Y22224D3*
X23445Y13504D3*
X18524Y17677D3*
X22579Y27421D3*
X5610Y21654D3*
X15295Y18268D3*
X13150Y15531D3*
X22579Y24429D3*
X14173Y27165D3*
X7638Y19528D3*
X17087Y14705D3*
X19134Y23602D3*
X20335Y19665D3*
Y20945D3*
X18799Y25098D3*
X22657Y23563D3*
X17185Y20866D3*
X21575Y23563D3*
X15177Y21831D3*
X13799Y23031D3*
X22854Y11102D3*
X23701Y27421D3*
X20256Y12933D3*
X20236Y14350D3*
X5591Y18602D3*
X19449Y13819D3*
X21555Y13268D3*
X18661Y14606D3*
X17756Y19626D3*
X18130Y25256D3*
X18484Y25984D3*
X20000Y27028D3*
X17992Y22224D3*
X21555Y27421D3*
X15374Y25591D3*
Y26378D3*
Y25984D3*
X16142Y24016D3*
X17992Y23287D3*
X23386Y17402D3*
Y16575D3*
Y14291D3*
X16142Y24409D3*
Y25197D3*
X20059Y17224D3*
X7776Y15512D3*
X23484Y12677D3*
X22579Y26437D3*
X16142Y23622D3*
Y24803D3*
Y26772D3*
Y25591D3*
Y26378D3*
Y25984D3*
X15787Y21831D3*
Y22224D3*
Y23012D3*
X16142Y21654D3*
X15787Y22618D3*
X16142Y23228D3*
Y22047D3*
Y22835D3*
Y22441D3*
X14213Y23858D3*
X13799Y23445D3*
X14213Y23287D3*
X13701Y24409D3*
Y25197D3*
Y24803D3*
X13543Y24094D3*
X13701Y25591D3*
X13307Y25984D3*
X13701D3*
X12520D3*
X12913D3*
X11988Y25354D3*
X12382D3*
X11201D3*
X11594D3*
X13780Y26772D3*
X14173D3*
X12992D3*
X13386D3*
X16024Y27165D3*
X15374Y27559D3*
X15768D3*
X15098Y27953D3*
X11791Y24173D3*
X15098Y28346D3*
Y29134D3*
Y28740D3*
X14035Y27953D3*
Y28346D3*
Y29134D3*
Y28740D3*
X13681Y29528D3*
Y31102D3*
X12520Y24173D3*
X12146D3*
X13681Y30315D3*
X15433Y29528D3*
Y31102D3*
Y30315D3*
X12165Y29528D3*
Y31102D3*
Y30315D3*
X16969Y29528D3*
Y31102D3*
Y30315D3*
X13386Y27323D3*
Y28898D3*
Y28110D3*
X12598Y27323D3*
Y28898D3*
Y28110D3*
X11811Y27323D3*
Y28898D3*
Y28110D3*
X11024Y27323D3*
Y28898D3*
X10236Y28110D3*
X9449Y27323D3*
Y28898D3*
X8661Y28110D3*
X7874Y27323D3*
Y28898D3*
X9843Y29528D3*
Y31102D3*
X9055D3*
Y30315D3*
X8268Y29528D3*
Y31102D3*
X7480D3*
Y30315D3*
X6693Y29528D3*
Y31102D3*
X5906D3*
Y30315D3*
X11417Y31102D3*
X10630D3*
X8661Y25748D3*
X6299Y25866D3*
X11240Y21457D3*
X8661Y18110D3*
X5118Y29528D3*
Y31102D3*
X4331Y29528D3*
Y31102D3*
Y30315D3*
Y27165D3*
Y28740D3*
Y27953D3*
Y24803D3*
Y26378D3*
Y25591D3*
Y22441D3*
Y24016D3*
Y23228D3*
Y20079D3*
Y21654D3*
Y20866D3*
Y17717D3*
Y19291D3*
Y18504D3*
Y15354D3*
Y16929D3*
Y16142D3*
Y12992D3*
Y14567D3*
Y13780D3*
Y10630D3*
Y12205D3*
Y11417D3*
X6043Y10354D3*
X4213Y9646D3*
X4331Y9055D3*
X24803Y29528D3*
Y31102D3*
Y30315D3*
Y27165D3*
Y28740D3*
Y27953D3*
Y24803D3*
Y26378D3*
Y25591D3*
Y22441D3*
Y24016D3*
Y23228D3*
Y20079D3*
Y21654D3*
Y20866D3*
Y17717D3*
Y19291D3*
Y18504D3*
Y15354D3*
Y16929D3*
Y16142D3*
Y12992D3*
Y14567D3*
Y13780D3*
Y10630D3*
Y12205D3*
Y11417D3*
X24862Y9843D3*
Y9055D3*
X24803Y6693D3*
Y8268D3*
Y7480D3*
Y4331D3*
Y5906D3*
Y5118D3*
X24094Y22933D3*
X23386Y20866D3*
Y22441D3*
Y21654D3*
Y18504D3*
Y20079D3*
Y19291D3*
X9843Y24213D3*
X9685Y25748D3*
X11063Y24626D3*
X9843Y21850D3*
Y23425D3*
Y22638D3*
X10630Y24213D3*
Y25787D3*
Y25000D3*
Y21850D3*
Y23425D3*
Y22638D3*
X9449Y24961D3*
X11811Y25984D3*
X23228Y31102D3*
Y30315D3*
X10945Y10394D3*
X22441Y31102D3*
X10965Y11339D3*
X21654Y31102D3*
X9606Y12362D3*
X20866Y29528D3*
Y31102D3*
X20079D3*
Y30315D3*
X19291Y29528D3*
Y31102D3*
X18504D3*
Y30315D3*
X17717Y29528D3*
Y31102D3*
X16732Y24803D3*
Y26378D3*
Y25591D3*
Y22598D3*
Y24173D3*
Y23386D3*
X19291Y28740D3*
Y27953D3*
X18642Y28740D3*
Y27953D3*
X17717Y27165D3*
X20079Y28740D3*
Y27953D3*
X16929Y27165D3*
Y28740D3*
Y27953D3*
X5610Y24291D3*
X16142Y28740D3*
Y27953D3*
X24016Y29528D3*
Y31102D3*
X16732Y21811D3*
Y21024D3*
X7087Y28110D3*
X6220Y27323D3*
X6299Y28898D3*
X5610Y27323D3*
Y28898D3*
Y28110D3*
Y25079D3*
Y26535D3*
Y25866D3*
X12598Y26535D3*
X11811D3*
X11024D3*
X10236D3*
X8661D3*
X9232Y19665D3*
X8425Y20512D3*
X6299Y26535D3*
X8012Y21358D3*
X7087Y9055D3*
X8268D3*
X7480D3*
X7874D3*
X8661D3*
X6693D3*
X17126Y5709D3*
X8858Y6496D3*
Y7283D3*
X17126Y5315D3*
X8858Y6890D3*
Y8858D3*
Y7677D3*
Y8465D3*
Y8071D3*
X17126Y4921D3*
Y4528D3*
X9646Y6496D3*
X10039D3*
X10433D3*
X9252D3*
X12008D3*
X13189D3*
X12402D3*
X12795D3*
X13583D3*
X17126Y4213D3*
X14764Y6496D3*
X13976D3*
X14370D3*
X15157D3*
X15748Y7008D3*
X15945Y6496D3*
X17126D3*
X16339D3*
X16732D3*
X17126Y6102D3*
X15551Y6496D3*
X8661Y16909D3*
X6890Y17323D3*
X7579Y10236D3*
X6693D3*
X8661Y15295D3*
X7776Y16693D3*
X8465Y10472D3*
Y12047D3*
X6890Y15748D3*
X8465Y11260D3*
X7579Y11811D3*
X8465Y9685D3*
X6693Y11811D3*
Y11024D3*
X7579D3*
X6693Y9449D3*
X7579D3*
X21654Y4213D3*
X24016Y7480D3*
X23228Y6693D3*
X20866Y4213D3*
X20079D3*
X22441Y7480D3*
X19291Y4213D3*
X24016Y5906D3*
X23228Y5118D3*
X18504Y4213D3*
X17717D3*
X22441Y5906D3*
X22252Y10434D2*
D19*
X22827D1*
X22252Y10357D2*
X22827D1*
X22252Y10280D2*
X22827D1*
X22252Y10202D2*
X22827D1*
X22252Y10125D2*
X22827D1*
X22252Y10047D2*
X22827D1*
X22252Y9970D2*
X22827D1*
X22252Y9892D2*
X22827D1*
X22252Y9815D2*
X22827D1*
X22252Y9738D2*
X22827D1*
X22341Y9660D2*
X22827D1*
X22552Y9583D2*
X22799D1*
X22795Y10512D2*
X22244D1*
Y9694D1*
X22625Y9553D1*
X22773Y9500D1*
X22835Y9654D1*
Y10512D1*
X22795D1*
X4132Y31245D2*
D20*
X12274D1*
X13380D2*
X13927D1*
X15207D2*
X15754D1*
X16860D2*
X25002D1*
X4132Y31184D2*
X12274D1*
X13380D2*
X13927D1*
X15207D2*
X15754D1*
X16860D2*
X25002D1*
X4132Y31122D2*
X12274D1*
X13380D2*
X13927D1*
X15207D2*
X15754D1*
X16860D2*
X25002D1*
X4132Y31060D2*
X12274D1*
X13380D2*
X13927D1*
X15207D2*
X15754D1*
X16860D2*
X25002D1*
X4132Y30999D2*
X12274D1*
X13380D2*
X13927D1*
X15207D2*
X15754D1*
X16860D2*
X25002D1*
X4132Y30937D2*
X12274D1*
X13380D2*
X13927D1*
X15207D2*
X15754D1*
X16860D2*
X25002D1*
X4132Y30875D2*
X12274D1*
X13380D2*
X13927D1*
X15207D2*
X15754D1*
X16860D2*
X25002D1*
X4132Y30814D2*
X12274D1*
X13380D2*
X13927D1*
X15207D2*
X15754D1*
X16860D2*
X25002D1*
X4132Y30752D2*
X10970D1*
X11164D2*
X12274D1*
X13380D2*
X13927D1*
X15207D2*
X15754D1*
X16860D2*
X21970D1*
X22164D2*
X25002D1*
X4132Y30690D2*
X10736D1*
X11398D2*
X12274D1*
X13380D2*
X13927D1*
X15207D2*
X15754D1*
X16860D2*
X21736D1*
X22398D2*
X25002D1*
X4132Y30629D2*
X10620D1*
X11514D2*
X12274D1*
X13380D2*
X13927D1*
X15207D2*
X15754D1*
X16860D2*
X21620D1*
X22514D2*
X25002D1*
X4132Y30567D2*
X10536D1*
X11598D2*
X12274D1*
X13380D2*
X13927D1*
X15207D2*
X15754D1*
X16860D2*
X21536D1*
X22598D2*
X25002D1*
X4132Y30505D2*
X10470D1*
X11664D2*
X12274D1*
X13380D2*
X13927D1*
X15207D2*
X15754D1*
X16860D2*
X21470D1*
X22664D2*
X25002D1*
X4132Y30444D2*
X10415D1*
X11718D2*
X12274D1*
X13380D2*
X13927D1*
X15207D2*
X15754D1*
X16860D2*
X21415D1*
X22718D2*
X25002D1*
X4132Y30382D2*
X10372D1*
X11762D2*
X12274D1*
X13380D2*
X13927D1*
X15207D2*
X15754D1*
X16860D2*
X21372D1*
X22762D2*
X25002D1*
X4132Y30320D2*
X10336D1*
X11798D2*
X12274D1*
X13380D2*
X13927D1*
X15207D2*
X15754D1*
X16860D2*
X21336D1*
X22798D2*
X25002D1*
X4132Y30259D2*
X10306D1*
X11828D2*
X12274D1*
X13380D2*
X13927D1*
X15207D2*
X15754D1*
X16860D2*
X21306D1*
X22828D2*
X25002D1*
X4132Y30197D2*
X10283D1*
X11851D2*
X12274D1*
X13380D2*
X13927D1*
X15207D2*
X15754D1*
X16860D2*
X21283D1*
X22851D2*
X25002D1*
X4132Y30135D2*
X10265D1*
X11869D2*
X12274D1*
X13380D2*
X13927D1*
X15207D2*
X15754D1*
X16860D2*
X21265D1*
X22869D2*
X25002D1*
X4132Y30073D2*
X10252D1*
X11882D2*
X12274D1*
X13380D2*
X13927D1*
X15207D2*
X15754D1*
X16860D2*
X21252D1*
X22882D2*
X25002D1*
X4132Y30012D2*
X10244D1*
X11890D2*
X12274D1*
X13380D2*
X13927D1*
X15207D2*
X15754D1*
X16860D2*
X21244D1*
X22890D2*
X25002D1*
X4132Y29950D2*
X10240D1*
X11894D2*
X12274D1*
X13380D2*
X13927D1*
X15207D2*
X15754D1*
X16860D2*
X21240D1*
X22894D2*
X25002D1*
X4132Y29888D2*
X10242D1*
X11892D2*
X12274D1*
X13380D2*
X13927D1*
X15207D2*
X15754D1*
X16860D2*
X21242D1*
X22892D2*
X25002D1*
X4132Y29827D2*
X10248D1*
X11886D2*
X12274D1*
X13380D2*
X13927D1*
X15207D2*
X15754D1*
X16860D2*
X21248D1*
X22886D2*
X25002D1*
X4132Y29765D2*
X10259D1*
X11875D2*
X12274D1*
X13380D2*
X13927D1*
X15207D2*
X15754D1*
X16860D2*
X21259D1*
X22875D2*
X25002D1*
X4132Y29703D2*
X10275D1*
X11859D2*
X12274D1*
X13380D2*
X13927D1*
X15207D2*
X15754D1*
X16860D2*
X21275D1*
X22859D2*
X25002D1*
X4132Y29642D2*
X10295D1*
X11838D2*
X12274D1*
X13380D2*
X13927D1*
X15207D2*
X15754D1*
X16860D2*
X21295D1*
X22838D2*
X25002D1*
X4132Y29580D2*
X10322D1*
X11812D2*
X12274D1*
X13380D2*
X13927D1*
X15207D2*
X15754D1*
X16860D2*
X21322D1*
X22812D2*
X25002D1*
X4132Y29518D2*
X10355D1*
X11778D2*
X12274D1*
X13380D2*
X13927D1*
X15207D2*
X15754D1*
X16860D2*
X21355D1*
X22778D2*
X25002D1*
X4132Y29457D2*
X10396D1*
X11738D2*
X12274D1*
X13380D2*
X13927D1*
X15207D2*
X15754D1*
X16860D2*
X21396D1*
X22738D2*
X25002D1*
X4132Y29395D2*
X10445D1*
X11689D2*
X12274D1*
X13380D2*
X13927D1*
X15207D2*
X15754D1*
X16860D2*
X21445D1*
X22689D2*
X25002D1*
X4132Y29333D2*
X10506D1*
X11628D2*
X12274D1*
X13380D2*
X13927D1*
X15207D2*
X15754D1*
X16860D2*
X21506D1*
X22628D2*
X25002D1*
X4132Y29272D2*
X4856D1*
X5277D2*
X10581D1*
X11553D2*
X12274D1*
X13380D2*
X13927D1*
X15207D2*
X15754D1*
X16860D2*
X17856D1*
X18277D2*
X20856D1*
X21277D2*
X21581D1*
X22553D2*
X23856D1*
X24277D2*
X25002D1*
X4132Y29210D2*
X4779D1*
X5355D2*
X10681D1*
X11453D2*
X13977D1*
X15156D2*
X17779D1*
X18355D2*
X20779D1*
X21355D2*
X21681D1*
X22453D2*
X23779D1*
X24355D2*
X25002D1*
X4132Y29148D2*
X4730D1*
X5403D2*
X10836D1*
X11298D2*
X14085D1*
X15049D2*
X17730D1*
X18403D2*
X20730D1*
X21403D2*
X21836D1*
X22298D2*
X23730D1*
X24403D2*
X25002D1*
X4132Y29087D2*
X4698D1*
X5436D2*
X14085D1*
X15049D2*
X17698D1*
X18436D2*
X20698D1*
X21436D2*
X23698D1*
X24436D2*
X25002D1*
X4132Y29025D2*
X4678D1*
X5456D2*
X14085D1*
X15049D2*
X17678D1*
X18456D2*
X20678D1*
X21456D2*
X23678D1*
X24456D2*
X25002D1*
X4132Y28963D2*
X4669D1*
X5464D2*
X14085D1*
X15049D2*
X17669D1*
X18464D2*
X20669D1*
X21464D2*
X23669D1*
X24464D2*
X25002D1*
X4132Y28902D2*
X4670D1*
X5463D2*
X14085D1*
X15049D2*
X17670D1*
X18463D2*
X20670D1*
X21463D2*
X23670D1*
X24463D2*
X25002D1*
X4132Y28840D2*
X4680D1*
X5461D2*
X14085D1*
X15049D2*
X17680D1*
X18454D2*
X20680D1*
X21454D2*
X23680D1*
X24454D2*
X25002D1*
X4132Y28778D2*
X4702D1*
X5522D2*
X14085D1*
X15049D2*
X17702D1*
X18432D2*
X20702D1*
X21432D2*
X23702D1*
X24432D2*
X25002D1*
X4132Y28717D2*
X4736D1*
X5584D2*
X14085D1*
X15049D2*
X17736D1*
X18398D2*
X20736D1*
X21398D2*
X23736D1*
X24398D2*
X25002D1*
X4132Y28655D2*
X4788D1*
X5646D2*
X14085D1*
X15049D2*
X17788D1*
X18345D2*
X20788D1*
X21345D2*
X23788D1*
X24345D2*
X25002D1*
X4132Y28593D2*
X4872D1*
X5262D2*
X5335D1*
X5707D2*
X14085D1*
X15049D2*
X17872D1*
X18262D2*
X20872D1*
X21262D2*
X23872D1*
X24262D2*
X25002D1*
X4132Y28531D2*
X5397D1*
X5769D2*
X14085D1*
X15049D2*
X25002D1*
X4132Y28470D2*
X5459D1*
X5831D2*
X14085D1*
X15049D2*
X25002D1*
X4132Y28408D2*
X5520D1*
X5892D2*
X14085D1*
X15049D2*
X25002D1*
X4132Y28346D2*
X5582D1*
X5954D2*
X14085D1*
X15049D2*
X25002D1*
X4132Y28285D2*
X4879D1*
X5255D2*
X5644D1*
X6016D2*
X14085D1*
X15049D2*
X17879D1*
X18255D2*
X20879D1*
X21255D2*
X23879D1*
X24255D2*
X25002D1*
X4132Y28223D2*
X4792D1*
X5341D2*
X5705D1*
X6077D2*
X14085D1*
X15049D2*
X17792D1*
X18341D2*
X20792D1*
X21341D2*
X23792D1*
X24341D2*
X25002D1*
X4132Y28161D2*
X4739D1*
X5395D2*
X5767D1*
X6139D2*
X14085D1*
X15049D2*
X17739D1*
X18395D2*
X20739D1*
X21395D2*
X23739D1*
X24395D2*
X25002D1*
X4132Y28100D2*
X4704D1*
X5430D2*
X5829D1*
X6201D2*
X14085D1*
X15049D2*
X17704D1*
X18430D2*
X20704D1*
X21430D2*
X23704D1*
X24430D2*
X25002D1*
X4132Y28038D2*
X4682D1*
X5452D2*
X5890D1*
X6262D2*
X14085D1*
X15049D2*
X17682D1*
X18452D2*
X20682D1*
X21452D2*
X23682D1*
X24452D2*
X25002D1*
X4132Y27976D2*
X4670D1*
X6324D2*
X14085D1*
X15049D2*
X17670D1*
X18463D2*
X20670D1*
X21463D2*
X23670D1*
X24463D2*
X25002D1*
X4132Y27915D2*
X4669D1*
X6386D2*
X14085D1*
X15049D2*
X17669D1*
X18464D2*
X20669D1*
X21464D2*
X23669D1*
X24464D2*
X25002D1*
X4132Y27853D2*
X4677D1*
X6447D2*
X14085D1*
X15049D2*
X17677D1*
X18457D2*
X20677D1*
X21457D2*
X23677D1*
X24457D2*
X25002D1*
X4132Y27791D2*
X4697D1*
X6509D2*
X14085D1*
X15049D2*
X17697D1*
X18437D2*
X20697D1*
X21437D2*
X23697D1*
X24437D2*
X25002D1*
X4132Y27730D2*
X4727D1*
X6571D2*
X14085D1*
X15049D2*
X17727D1*
X18406D2*
X20727D1*
X21406D2*
X23727D1*
X24406D2*
X25002D1*
X4132Y27668D2*
X4776D1*
X5358D2*
X6024D1*
X6632D2*
X14085D1*
X15049D2*
X17776D1*
X18358D2*
X20776D1*
X21358D2*
X23776D1*
X24358D2*
X25002D1*
X4132Y27606D2*
X4850D1*
X5284D2*
X6086D1*
X6694D2*
X14085D1*
X15049D2*
X17850D1*
X18284D2*
X20850D1*
X21284D2*
X23850D1*
X24284D2*
X25002D1*
X4132Y27545D2*
X6148D1*
X6756D2*
X14085D1*
X15049D2*
X25002D1*
X4132Y27483D2*
X6209D1*
X6817D2*
X14085D1*
X15049D2*
X25002D1*
X4132Y27421D2*
X6271D1*
X6879D2*
X14085D1*
X15049D2*
X25002D1*
X4132Y27360D2*
X6333D1*
X6941D2*
X14085D1*
X15049D2*
X25002D1*
X4132Y27298D2*
X4908D1*
X5226D2*
X6394D1*
X7002D2*
X14085D1*
X15049D2*
X23908D1*
X24226D2*
X25002D1*
X4132Y27236D2*
X4807D1*
X5327D2*
X6456D1*
X7064D2*
X23807D1*
X24327D2*
X25002D1*
X4132Y27175D2*
X4748D1*
X5386D2*
X6518D1*
X7126D2*
X23748D1*
X24386D2*
X25002D1*
X4132Y27113D2*
X4710D1*
X5424D2*
X6579D1*
X7187D2*
X23710D1*
X24424D2*
X25002D1*
X4132Y27051D2*
X4685D1*
X7249D2*
X23685D1*
X24449D2*
X25002D1*
X4132Y26990D2*
X4672D1*
X7311D2*
X23672D1*
X24462D2*
X25002D1*
X4132Y26928D2*
X4668D1*
X7372D2*
X23668D1*
X24465D2*
X25002D1*
X4132Y26866D2*
X4675D1*
X7434D2*
X23675D1*
X24459D2*
X25002D1*
X4132Y26804D2*
X4692D1*
X5442D2*
X6652D1*
X7496D2*
X23692D1*
X24442D2*
X25002D1*
X4132Y26743D2*
X4720D1*
X5414D2*
X6713D1*
X7557D2*
X23720D1*
X24414D2*
X25002D1*
X4132Y26681D2*
X4764D1*
X5370D2*
X6775D1*
X7619D2*
X23764D1*
X24370D2*
X25002D1*
X4132Y26619D2*
X4831D1*
X5303D2*
X6837D1*
X7681D2*
X23831D1*
X24303D2*
X25002D1*
X4132Y26558D2*
X4961D1*
X5173D2*
X6898D1*
X7742D2*
X23961D1*
X24173D2*
X25002D1*
X4132Y26496D2*
X6960D1*
X7804D2*
X25002D1*
X4132Y26434D2*
X7022D1*
X7866D2*
X25002D1*
X4132Y26373D2*
X7083D1*
X7927D2*
X25002D1*
X4132Y26311D2*
X4943D1*
X5191D2*
X7145D1*
X7989D2*
X23943D1*
X24191D2*
X25002D1*
X4132Y26249D2*
X4824D1*
X5310D2*
X7207D1*
X8051D2*
X23824D1*
X24310D2*
X25002D1*
X4132Y26188D2*
X4759D1*
X5375D2*
X7268D1*
X8112D2*
X23759D1*
X24375D2*
X25002D1*
X4132Y26126D2*
X4717D1*
X5417D2*
X7330D1*
X8174D2*
X23717D1*
X24417D2*
X25002D1*
X4132Y26064D2*
X4690D1*
X5444D2*
X7392D1*
X8236D2*
X23690D1*
X24444D2*
X25002D1*
X4132Y26003D2*
X4674D1*
X5460D2*
X7453D1*
X8297D2*
X23674D1*
X24460D2*
X25002D1*
X4132Y25941D2*
X4668D1*
X5465D2*
X7515D1*
X8359D2*
X23668D1*
X24465D2*
X25002D1*
X4132Y25879D2*
X4672D1*
X5462D2*
X7577D1*
X8421D2*
X23672D1*
X24462D2*
X25002D1*
X4132Y25818D2*
X4687D1*
X5447D2*
X7638D1*
X8482D2*
X23687D1*
X24447D2*
X25002D1*
X4132Y25756D2*
X4713D1*
X5421D2*
X7700D1*
X8544D2*
X13274D1*
X13340D2*
X23713D1*
X24421D2*
X25002D1*
X4132Y25694D2*
X4753D1*
X5457D2*
X7762D1*
X8606D2*
X13161D1*
X13454D2*
X23753D1*
X24381D2*
X25002D1*
X4132Y25633D2*
X4813D1*
X5518D2*
X7823D1*
X8667D2*
X13124D1*
X13490D2*
X23813D1*
X24321D2*
X25002D1*
X4132Y25571D2*
X4920D1*
X6878D2*
X7885D1*
X8729D2*
X13113D1*
X13501D2*
X23920D1*
X24213D2*
X25002D1*
X4132Y25509D2*
X5270D1*
X6941D2*
X7947D1*
X8791D2*
X13124D1*
X13490D2*
X25002D1*
X4132Y25448D2*
X5331D1*
X7002D2*
X8008D1*
X8852D2*
X13161D1*
X13454D2*
X25002D1*
X4132Y25386D2*
X5393D1*
X7064D2*
X8070D1*
X8914D2*
X13274D1*
X13340D2*
X25002D1*
X4132Y25324D2*
X4998D1*
X5136D2*
X6754D1*
X7126D2*
X8132D1*
X8976D2*
X23998D1*
X24136D2*
X25002D1*
X4132Y25262D2*
X4842D1*
X5292D2*
X6815D1*
X7187D2*
X8193D1*
X9037D2*
X23842D1*
X24292D2*
X25002D1*
X4132Y25201D2*
X4771D1*
X5363D2*
X6877D1*
X7249D2*
X8255D1*
X9099D2*
X23771D1*
X24363D2*
X25002D1*
X4132Y25139D2*
X4725D1*
X5409D2*
X6939D1*
X7311D2*
X8317D1*
X9161D2*
X23725D1*
X24409D2*
X25002D1*
X4132Y25077D2*
X4694D1*
X5440D2*
X7000D1*
X7372D2*
X8378D1*
X9222D2*
X23694D1*
X24440D2*
X25002D1*
X4132Y25016D2*
X4676D1*
X5458D2*
X7062D1*
X7434D2*
X8440D1*
X9284D2*
X23676D1*
X24458D2*
X25002D1*
X4132Y24954D2*
X4668D1*
X5465D2*
X7124D1*
X7496D2*
X8502D1*
X9346D2*
X23668D1*
X24465D2*
X25002D1*
X4132Y24892D2*
X4671D1*
X5462D2*
X7185D1*
X7557D2*
X8563D1*
X9407D2*
X23671D1*
X24462D2*
X25002D1*
X4132Y24831D2*
X4683D1*
X7619D2*
X8625D1*
X9469D2*
X23683D1*
X24451D2*
X25002D1*
X4132Y24769D2*
X4706D1*
X7681D2*
X8687D1*
X9531D2*
X23706D1*
X24428D2*
X25002D1*
X4132Y24707D2*
X4743D1*
X7742D2*
X8748D1*
X9592D2*
X23743D1*
X24391D2*
X25002D1*
X4132Y24646D2*
X4798D1*
X7804D2*
X8810D1*
X9647D2*
X23798D1*
X24336D2*
X25002D1*
X4132Y24584D2*
X4890D1*
X5244D2*
X5407D1*
X7866D2*
X8872D1*
X9661D2*
X23890D1*
X24244D2*
X25002D1*
X4132Y24522D2*
X7319D1*
X7927D2*
X8933D1*
X9661D2*
X25002D1*
X4132Y24461D2*
X7381D1*
X7989D2*
X8995D1*
X9661D2*
X25002D1*
X4132Y24399D2*
X7443D1*
X8051D2*
X9057D1*
X9661D2*
X25002D1*
X4132Y24337D2*
X7504D1*
X8112D2*
X9118D1*
X9661D2*
X25002D1*
X4132Y24276D2*
X4862D1*
X5272D2*
X7566D1*
X8174D2*
X9118D1*
X9661D2*
X23862D1*
X24272D2*
X25002D1*
X4132Y24214D2*
X4783D1*
X5351D2*
X7628D1*
X8236D2*
X9118D1*
X9661D2*
X23783D1*
X24351D2*
X25002D1*
X4132Y24152D2*
X4732D1*
X5401D2*
X7689D1*
X8297D2*
X9118D1*
X9661D2*
X23732D1*
X24401D2*
X25002D1*
X4132Y24091D2*
X4700D1*
X5434D2*
X7751D1*
X8359D2*
X9118D1*
X9661D2*
X23700D1*
X24434D2*
X25002D1*
X4132Y24029D2*
X4679D1*
X6866D2*
X7813D1*
X8421D2*
X9118D1*
X9661D2*
X23679D1*
X24455D2*
X25002D1*
X4132Y23967D2*
X4669D1*
X6927D2*
X7874D1*
X8482D2*
X9118D1*
X9661D2*
X23669D1*
X24464D2*
X25002D1*
X4132Y23906D2*
X4669D1*
X6989D2*
X7936D1*
X8544D2*
X9118D1*
X9661D2*
X23669D1*
X24464D2*
X25002D1*
X4132Y23844D2*
X4679D1*
X7051D2*
X7998D1*
X8606D2*
X9118D1*
X9661D2*
X23679D1*
X24455D2*
X25002D1*
X4132Y23782D2*
X4700D1*
X5434D2*
X6740D1*
X7112D2*
X8059D1*
X8667D2*
X9118D1*
X9661D2*
X23700D1*
X24434D2*
X25002D1*
X4132Y23720D2*
X4733D1*
X5400D2*
X6802D1*
X7174D2*
X8121D1*
X8728D2*
X9118D1*
X9661D2*
X23733D1*
X24400D2*
X25002D1*
X4132Y23659D2*
X4785D1*
X5349D2*
X6864D1*
X7236D2*
X8183D1*
X8754D2*
X9118D1*
X9661D2*
X23785D1*
X24349D2*
X25002D1*
X4132Y23597D2*
X4865D1*
X5269D2*
X6925D1*
X7297D2*
X8244D1*
X8756D2*
X9118D1*
X9661D2*
X23865D1*
X24269D2*
X25002D1*
X4132Y23535D2*
X6987D1*
X7359D2*
X8306D1*
X8756D2*
X9118D1*
X9661D2*
X25002D1*
X4132Y23474D2*
X7049D1*
X7421D2*
X8350D1*
X8756D2*
X9118D1*
X9661D2*
X25002D1*
X4132Y23412D2*
X7110D1*
X7482D2*
X8350D1*
X8756D2*
X9118D1*
X9661D2*
X25002D1*
X4132Y23350D2*
X7172D1*
X7544D2*
X8350D1*
X8756D2*
X9118D1*
X9661D2*
X25002D1*
X4132Y23289D2*
X4887D1*
X5247D2*
X5887D1*
X6247D2*
X6887D1*
X7606D2*
X8350D1*
X8756D2*
X9118D1*
X9661D2*
X20887D1*
X21247D2*
X21887D1*
X22247D2*
X25002D1*
X4132Y23227D2*
X4796D1*
X5337D2*
X5796D1*
X6337D2*
X6796D1*
X7648D2*
X8350D1*
X8756D2*
X9118D1*
X9661D2*
X20796D1*
X21337D2*
X21796D1*
X22337D2*
X25002D1*
X4132Y23165D2*
X4742D1*
X5392D2*
X5742D1*
X6392D2*
X6742D1*
X7653D2*
X8350D1*
X8756D2*
X9118D1*
X9661D2*
X20742D1*
X21392D2*
X21742D1*
X22392D2*
X25002D1*
X4132Y23104D2*
X4706D1*
X5428D2*
X5706D1*
X6428D2*
X6706D1*
X7653D2*
X8350D1*
X8756D2*
X9118D1*
X9661D2*
X11241D1*
X11475D2*
X20706D1*
X21428D2*
X21706D1*
X22428D2*
X25002D1*
X4132Y23042D2*
X4683D1*
X6451D2*
X6683D1*
X7653D2*
X8350D1*
X8756D2*
X9118D1*
X9661D2*
X11187D1*
X11529D2*
X11775D1*
X11923D2*
X20683D1*
X21451D2*
X21683D1*
X22451D2*
X25002D1*
X4132Y22980D2*
X4671D1*
X6462D2*
X6671D1*
X7653D2*
X8350D1*
X8756D2*
X9118D1*
X9661D2*
X11167D1*
X11549D2*
X11693D1*
X12005D2*
X20671D1*
X21462D2*
X21671D1*
X22462D2*
X25002D1*
X4132Y22919D2*
X4669D1*
X6480D2*
X6669D1*
X7653D2*
X8350D1*
X8756D2*
X9118D1*
X9661D2*
X11168D1*
X11548D2*
X11662D1*
X12035D2*
X20669D1*
X21464D2*
X21669D1*
X22464D2*
X25002D1*
X4132Y22857D2*
X4676D1*
X6541D2*
X6676D1*
X7653D2*
X8350D1*
X8756D2*
X9118D1*
X9661D2*
X11191D1*
X11525D2*
X11656D1*
X12041D2*
X20676D1*
X21458D2*
X21676D1*
X22458D2*
X25002D1*
X4132Y22795D2*
X4695D1*
X6603D2*
X6695D1*
X7653D2*
X8350D1*
X8756D2*
X9118D1*
X9661D2*
X11251D1*
X11465D2*
X11670D1*
X12027D2*
X20695D1*
X21439D2*
X21695D1*
X22439D2*
X25002D1*
X4132Y22734D2*
X4725D1*
X5408D2*
X5725D1*
X6663D2*
X6725D1*
X7653D2*
X8350D1*
X8756D2*
X9118D1*
X9661D2*
X11656D1*
X11985D2*
X20725D1*
X21408D2*
X21725D1*
X22408D2*
X25002D1*
X4132Y22672D2*
X4772D1*
X5362D2*
X5772D1*
X6688D2*
X6772D1*
X7653D2*
X8350D1*
X8756D2*
X9118D1*
X9661D2*
X11602D1*
X11969D2*
X20772D1*
X21362D2*
X21772D1*
X22362D2*
X25002D1*
X4132Y22610D2*
X4844D1*
X5290D2*
X5844D1*
X6290D2*
X6416D1*
X6689D2*
X6844D1*
X7290D2*
X7386D1*
X7653D2*
X8350D1*
X8756D2*
X9118D1*
X9661D2*
X11239D1*
X11984D2*
X20844D1*
X21290D2*
X21844D1*
X22290D2*
X25002D1*
X4132Y22549D2*
X5007D1*
X5127D2*
X6007D1*
X6127D2*
X6421D1*
X6689D2*
X7007D1*
X7127D2*
X7386D1*
X7653D2*
X8350D1*
X8756D2*
X9118D1*
X9661D2*
X11187D1*
X11978D2*
X21007D1*
X21127D2*
X22007D1*
X22127D2*
X25002D1*
X4132Y22487D2*
X6421D1*
X6689D2*
X7386D1*
X7653D2*
X8350D1*
X8756D2*
X9118D1*
X9661D2*
X11166D1*
X11955D2*
X25002D1*
X4132Y22425D2*
X6421D1*
X6689D2*
X7386D1*
X7653D2*
X8350D1*
X8756D2*
X9118D1*
X9661D2*
X11168D1*
X12002D2*
X25002D1*
X4132Y22364D2*
X6421D1*
X6689D2*
X7386D1*
X7653D2*
X8350D1*
X8756D2*
X9118D1*
X9661D2*
X11192D1*
X11525D2*
X11634D1*
X12020D2*
X13871D1*
X14082D2*
X25002D1*
X4132Y22302D2*
X4916D1*
X5217D2*
X5916D1*
X6217D2*
X6421D1*
X6689D2*
X6916D1*
X7217D2*
X7386D1*
X7653D2*
X8350D1*
X8756D2*
X9118D1*
X9661D2*
X11253D1*
X11463D2*
X11638D1*
X12055D2*
X13810D1*
X14143D2*
X20916D1*
X21217D2*
X21916D1*
X22217D2*
X23916D1*
X24217D2*
X25002D1*
X4132Y22240D2*
X4812D1*
X5322D2*
X5812D1*
X6322D2*
X6421D1*
X6689D2*
X6812D1*
X7322D2*
X7386D1*
X7653D2*
X8350D1*
X8756D2*
X9118D1*
X9661D2*
X11665D1*
X12117D2*
X13787D1*
X14166D2*
X20812D1*
X21322D2*
X21812D1*
X22322D2*
X23812D1*
X24322D2*
X25002D1*
X4132Y22178D2*
X4752D1*
X5382D2*
X5752D1*
X6382D2*
X6421D1*
X6689D2*
X6752D1*
X7653D2*
X8350D1*
X8756D2*
X9118D1*
X9661D2*
X11734D1*
X12175D2*
X13785D1*
X14168D2*
X20752D1*
X21382D2*
X21752D1*
X22382D2*
X23752D1*
X24382D2*
X25002D1*
X4132Y22117D2*
X4712D1*
X5422D2*
X5712D1*
X7653D2*
X8350D1*
X8756D2*
X9118D1*
X9661D2*
X11868D1*
X12196D2*
X13805D1*
X14148D2*
X20712D1*
X21422D2*
X21712D1*
X22422D2*
X23712D1*
X24422D2*
X25002D1*
X4132Y22055D2*
X4687D1*
X7653D2*
X8350D1*
X8756D2*
X9118D1*
X9661D2*
X11929D1*
X12197D2*
X13857D1*
X14095D2*
X20687D1*
X21447D2*
X21687D1*
X22447D2*
X23687D1*
X24447D2*
X25002D1*
X4132Y21993D2*
X4672D1*
X7653D2*
X8350D1*
X8756D2*
X9118D1*
X9661D2*
X11929D1*
X12197D2*
X20672D1*
X21462D2*
X21672D1*
X22462D2*
X23672D1*
X24462D2*
X25002D1*
X4132Y21932D2*
X4668D1*
X7653D2*
X8350D1*
X8756D2*
X9118D1*
X9661D2*
X11929D1*
X12236D2*
X20668D1*
X21465D2*
X21668D1*
X22465D2*
X23668D1*
X24465D2*
X25002D1*
X4132Y21870D2*
X4674D1*
X7653D2*
X8350D1*
X8756D2*
X9118D1*
X9661D2*
X11940D1*
X12298D2*
X20674D1*
X21460D2*
X21674D1*
X22460D2*
X23674D1*
X24460D2*
X25002D1*
X4132Y21808D2*
X4690D1*
X7653D2*
X8350D1*
X8756D2*
X9118D1*
X9661D2*
X11988D1*
X12360D2*
X17330D1*
X17552D2*
X17605D1*
X17828D2*
X20690D1*
X21444D2*
X21690D1*
X22444D2*
X23690D1*
X24444D2*
X25002D1*
X4132Y21747D2*
X4718D1*
X5416D2*
X5718D1*
X7653D2*
X8350D1*
X8756D2*
X9118D1*
X9661D2*
X12049D1*
X12421D2*
X17273D1*
X17885D2*
X20718D1*
X21416D2*
X21718D1*
X22416D2*
X23718D1*
X24416D2*
X25002D1*
X4132Y21685D2*
X4760D1*
X5374D2*
X5760D1*
X6690D2*
X6760D1*
X7653D2*
X8350D1*
X8756D2*
X9118D1*
X9702D2*
X12111D1*
X13306D2*
X17250D1*
X17907D2*
X20760D1*
X21374D2*
X21760D1*
X22374D2*
X23760D1*
X24374D2*
X25002D1*
X4132Y21623D2*
X4825D1*
X5309D2*
X5825D1*
X6752D2*
X6825D1*
X7309D2*
X7386D1*
X7653D2*
X8350D1*
X8756D2*
X9118D1*
X9764D2*
X12173D1*
X13376D2*
X17250D1*
X17907D2*
X20825D1*
X21309D2*
X21825D1*
X22309D2*
X23825D1*
X24309D2*
X25002D1*
X4132Y21562D2*
X4947D1*
X5187D2*
X5947D1*
X6187D2*
X6244D1*
X6813D2*
X6947D1*
X7187D2*
X7386D1*
X7653D2*
X8350D1*
X8756D2*
X9118D1*
X9825D2*
X10370D1*
X10653D2*
X12234D1*
X13437D2*
X17272D1*
X17886D2*
X20947D1*
X21187D2*
X21947D1*
X22187D2*
X23947D1*
X24187D2*
X25002D1*
X4132Y21500D2*
X6306D1*
X6875D2*
X7386D1*
X7653D2*
X8350D1*
X8756D2*
X9119D1*
X9887D2*
X10331D1*
X10693D2*
X12296D1*
X13584D2*
X17307D1*
X17830D2*
X25002D1*
X4132Y21438D2*
X6368D1*
X6937D2*
X7386D1*
X7653D2*
X8350D1*
X8756D2*
X9145D1*
X9949D2*
X10319D1*
X10705D2*
X12361D1*
X13021D2*
X13189D1*
X13625D2*
X17307D1*
X17746D2*
X25002D1*
X4132Y21377D2*
X6429D1*
X6998D2*
X7386D1*
X7653D2*
X8350D1*
X8756D2*
X9205D1*
X10010D2*
X10327D1*
X10697D2*
X12308D1*
X13027D2*
X13250D1*
X13638D2*
X17307D1*
X17712D2*
X25002D1*
X4132Y21315D2*
X6491D1*
X7060D2*
X7386D1*
X7653D2*
X8350D1*
X8756D2*
X9267D1*
X10072D2*
X10360D1*
X10663D2*
X10839D1*
X11090D2*
X12288D1*
X13014D2*
X13259D1*
X13631D2*
X17307D1*
X17712D2*
X20956D1*
X21178D2*
X21956D1*
X22178D2*
X23956D1*
X24178D2*
X25002D1*
X4132Y21253D2*
X6553D1*
X7122D2*
X7386D1*
X7653D2*
X8350D1*
X8756D2*
X9329D1*
X10134D2*
X10454D1*
X10570D2*
X10790D1*
X11139D2*
X12290D1*
X12971D2*
X13291D1*
X13598D2*
X17307D1*
X17712D2*
X20829D1*
X21305D2*
X21829D1*
X22305D2*
X23829D1*
X24305D2*
X25002D1*
X4132Y21192D2*
X6614D1*
X7183D2*
X7386D1*
X7653D2*
X8350D1*
X8756D2*
X9390D1*
X10195D2*
X10773D1*
X11156D2*
X12315D1*
X12646D2*
X13377D1*
X13513D2*
X17307D1*
X17712D2*
X20762D1*
X21372D2*
X21762D1*
X22372D2*
X23762D1*
X24372D2*
X25002D1*
X4132Y21130D2*
X6676D1*
X7245D2*
X7386D1*
X7653D2*
X8350D1*
X8756D2*
X9452D1*
X10257D2*
X10367D1*
X10656D2*
X10776D1*
X11153D2*
X12376D1*
X12585D2*
X17307D1*
X17712D2*
X20720D1*
X21414D2*
X21720D1*
X22414D2*
X23720D1*
X24414D2*
X25002D1*
X4132Y21068D2*
X6738D1*
X7307D2*
X7386D1*
X7653D2*
X8350D1*
X8783D2*
X9514D1*
X10694D2*
X10802D1*
X11127D2*
X17307D1*
X17712D2*
X20691D1*
X21443D2*
X21691D1*
X22443D2*
X23691D1*
X24443D2*
X25002D1*
X4132Y21007D2*
X6799D1*
X7653D2*
X8350D1*
X8844D2*
X9575D1*
X10705D2*
X10869D1*
X11060D2*
X17307D1*
X17712D2*
X20674D1*
X21460D2*
X21674D1*
X22460D2*
X23674D1*
X24460D2*
X25002D1*
X4132Y20945D2*
X6861D1*
X7653D2*
X8357D1*
X8906D2*
X9637D1*
X10696D2*
X17307D1*
X17712D2*
X20668D1*
X21465D2*
X21668D1*
X22465D2*
X23668D1*
X24465D2*
X25002D1*
X4132Y20883D2*
X6923D1*
X7689D2*
X8400D1*
X8968D2*
X9699D1*
X10661D2*
X17307D1*
X17712D2*
X20672D1*
X21462D2*
X21672D1*
X22462D2*
X23672D1*
X24462D2*
X25002D1*
X4132Y20822D2*
X6984D1*
X7750D2*
X8461D1*
X9029D2*
X9760D1*
X10565D2*
X17307D1*
X17712D2*
X20686D1*
X21448D2*
X21686D1*
X22448D2*
X23686D1*
X24448D2*
X25002D1*
X4132Y20760D2*
X7046D1*
X7812D2*
X8523D1*
X9091D2*
X9822D1*
X10627D2*
X17307D1*
X17712D2*
X20711D1*
X21423D2*
X21711D1*
X22423D2*
X23711D1*
X24423D2*
X25002D1*
X4132Y20698D2*
X4908D1*
X5226D2*
X7108D1*
X7874D2*
X8585D1*
X9153D2*
X9884D1*
X10689D2*
X17307D1*
X17712D2*
X20749D1*
X21385D2*
X21749D1*
X22385D2*
X23749D1*
X24385D2*
X25002D1*
X4132Y20636D2*
X4807D1*
X5327D2*
X7169D1*
X7935D2*
X8646D1*
X9214D2*
X9945D1*
X10750D2*
X17307D1*
X17712D2*
X20809D1*
X21325D2*
X21809D1*
X22325D2*
X23809D1*
X24325D2*
X25002D1*
X4132Y20575D2*
X4749D1*
X5385D2*
X7231D1*
X7997D2*
X8708D1*
X9276D2*
X10007D1*
X10780D2*
X17307D1*
X17712D2*
X20911D1*
X21223D2*
X21911D1*
X22223D2*
X23911D1*
X24223D2*
X25002D1*
X4132Y20513D2*
X4711D1*
X5423D2*
X7293D1*
X8059D2*
X8770D1*
X9338D2*
X10069D1*
X10783D2*
X17307D1*
X17712D2*
X25002D1*
X4132Y20451D2*
X4685D1*
X5449D2*
X7354D1*
X8120D2*
X8831D1*
X9400D2*
X10122D1*
X10783D2*
X17307D1*
X17712D2*
X25002D1*
X4132Y20390D2*
X4672D1*
X5462D2*
X7416D1*
X8182D2*
X8893D1*
X9462D2*
X10122D1*
X10783D2*
X17307D1*
X17712D2*
X25002D1*
X4132Y20328D2*
X4668D1*
X5465D2*
X6032D1*
X6102D2*
X7478D1*
X8244D2*
X8955D1*
X9524D2*
X10122D1*
X10783D2*
X17307D1*
X17712D2*
X21032D1*
X21102D2*
X22032D1*
X22102D2*
X24032D1*
X24102D2*
X25002D1*
X4132Y20266D2*
X4675D1*
X5459D2*
X5848D1*
X6286D2*
X7539D1*
X8305D2*
X9016D1*
X9585D2*
X10122D1*
X10783D2*
X17307D1*
X17712D2*
X20848D1*
X21286D2*
X21848D1*
X22286D2*
X23848D1*
X24286D2*
X25002D1*
X4132Y20205D2*
X4691D1*
X5443D2*
X5774D1*
X6360D2*
X7601D1*
X8367D2*
X9078D1*
X9647D2*
X10122D1*
X10783D2*
X17307D1*
X17712D2*
X20774D1*
X21360D2*
X21774D1*
X22360D2*
X23774D1*
X24360D2*
X25002D1*
X4132Y20143D2*
X4720D1*
X5414D2*
X5726D1*
X6407D2*
X7663D1*
X8429D2*
X9140D1*
X9709D2*
X10122D1*
X10783D2*
X17307D1*
X17712D2*
X20726D1*
X21407D2*
X21726D1*
X22407D2*
X23726D1*
X24407D2*
X25002D1*
X4132Y20081D2*
X4763D1*
X5371D2*
X5696D1*
X6438D2*
X7725D1*
X8490D2*
X9201D1*
X9770D2*
X10093D1*
X10783D2*
X17307D1*
X17712D2*
X20696D1*
X21438D2*
X21696D1*
X22438D2*
X23696D1*
X24438D2*
X25002D1*
X4132Y20020D2*
X4830D1*
X5304D2*
X5677D1*
X8552D2*
X9263D1*
X9832D2*
X10067D1*
X10783D2*
X14005D1*
X14184D2*
X17307D1*
X17712D2*
X20677D1*
X21457D2*
X21677D1*
X22457D2*
X23677D1*
X24457D2*
X25002D1*
X4132Y19958D2*
X4960D1*
X5174D2*
X5669D1*
X8614D2*
X9325D1*
X9894D2*
X10064D1*
X10783D2*
X13934D1*
X14255D2*
X17307D1*
X17712D2*
X20669D1*
X21464D2*
X21669D1*
X22464D2*
X23669D1*
X24464D2*
X25002D1*
X4132Y19896D2*
X5670D1*
X8675D2*
X9386D1*
X9955D2*
X10083D1*
X10783D2*
X13907D1*
X14282D2*
X17307D1*
X17712D2*
X20670D1*
X21463D2*
X21670D1*
X22463D2*
X23670D1*
X24463D2*
X25002D1*
X4132Y19835D2*
X5682D1*
X8737D2*
X9448D1*
X10017D2*
X10132D1*
X10783D2*
X13902D1*
X14287D2*
X17306D1*
X17712D2*
X20682D1*
X21452D2*
X21682D1*
X22452D2*
X23682D1*
X24452D2*
X25002D1*
X4132Y19773D2*
X5705D1*
X6429D2*
X7837D1*
X8799D2*
X9510D1*
X10079D2*
X10260D1*
X10783D2*
X13918D1*
X14271D2*
X15648D1*
X15758D2*
X17244D1*
X17712D2*
X20705D1*
X21429D2*
X21705D1*
X22429D2*
X23705D1*
X24429D2*
X25002D1*
X4132Y19711D2*
X4944D1*
X5190D2*
X5740D1*
X6394D2*
X7898D1*
X8860D2*
X9571D1*
X10140D2*
X10274D1*
X10795D2*
X13966D1*
X14223D2*
X15552D1*
X15853D2*
X17183D1*
X17712D2*
X20656D1*
X21394D2*
X21740D1*
X22394D2*
X23740D1*
X24394D2*
X25002D1*
X4132Y19650D2*
X4824D1*
X5310D2*
X5793D1*
X6340D2*
X7960D1*
X8922D2*
X9633D1*
X10202D2*
X10316D1*
X10832D2*
X15519D1*
X15887D2*
X17121D1*
X17688D2*
X20594D1*
X21340D2*
X21793D1*
X22340D2*
X23793D1*
X24340D2*
X25002D1*
X4132Y19588D2*
X4759D1*
X5375D2*
X5882D1*
X6252D2*
X8022D1*
X8984D2*
X9695D1*
X10264D2*
X10456D1*
X10843D2*
X15510D1*
X15896D2*
X17059D1*
X17628D2*
X20532D1*
X21252D2*
X21882D1*
X22252D2*
X23882D1*
X24252D2*
X25002D1*
X4132Y19526D2*
X4718D1*
X5416D2*
X8083D1*
X9045D2*
X9756D1*
X10325D2*
X10467D1*
X10833D2*
X13646D1*
X13913D2*
X15522D1*
X15884D2*
X16998D1*
X17567D2*
X20471D1*
X20842D2*
X25002D1*
X4132Y19465D2*
X4690D1*
X5444D2*
X8145D1*
X9107D2*
X9818D1*
X10387D2*
X10502D1*
X10797D2*
X13601D1*
X13958D2*
X15560D1*
X15845D2*
X16936D1*
X17505D2*
X20409D1*
X20780D2*
X25002D1*
X4132Y19403D2*
X4674D1*
X5460D2*
X8207D1*
X9169D2*
X9880D1*
X10449D2*
X10608D1*
X10691D2*
X13587D1*
X13972D2*
X16874D1*
X17443D2*
X20347D1*
X20718D2*
X25002D1*
X4132Y19341D2*
X4668D1*
X5465D2*
X8268D1*
X9230D2*
X9941D1*
X10510D2*
X13593D1*
X13966D2*
X16813D1*
X17382D2*
X20286D1*
X20657D2*
X25002D1*
X4132Y19280D2*
X4672D1*
X5462D2*
X5869D1*
X6265D2*
X8330D1*
X9292D2*
X10003D1*
X10572D2*
X13622D1*
X13937D2*
X16751D1*
X17320D2*
X20246D1*
X20595D2*
X20869D1*
X21265D2*
X21869D1*
X22265D2*
X23869D1*
X24265D2*
X25002D1*
X4132Y19218D2*
X4687D1*
X5447D2*
X5787D1*
X6347D2*
X8392D1*
X9354D2*
X10065D1*
X10634D2*
X13700D1*
X13859D2*
X16689D1*
X17258D2*
X20240D1*
X20533D2*
X20787D1*
X21347D2*
X21787D1*
X22347D2*
X23787D1*
X24347D2*
X25002D1*
X4132Y19156D2*
X4713D1*
X5421D2*
X5735D1*
X6399D2*
X8453D1*
X9415D2*
X10126D1*
X10695D2*
X16628D1*
X17197D2*
X20240D1*
X20508D2*
X20735D1*
X21399D2*
X21735D1*
X22399D2*
X23735D1*
X24399D2*
X25002D1*
X4132Y19094D2*
X4752D1*
X5382D2*
X5702D1*
X6432D2*
X8515D1*
X9477D2*
X10188D1*
X10757D2*
X16566D1*
X17135D2*
X20240D1*
X20508D2*
X20702D1*
X21432D2*
X21702D1*
X22432D2*
X23702D1*
X24432D2*
X25002D1*
X4132Y19033D2*
X4813D1*
X5321D2*
X5680D1*
X9539D2*
X10250D1*
X10819D2*
X16504D1*
X17073D2*
X20240D1*
X20508D2*
X20680D1*
X21454D2*
X21680D1*
X22454D2*
X23680D1*
X24454D2*
X25002D1*
X4132Y18971D2*
X4919D1*
X5214D2*
X5670D1*
X9600D2*
X10311D1*
X10880D2*
X16443D1*
X17012D2*
X20240D1*
X20508D2*
X20670D1*
X21463D2*
X21670D1*
X22463D2*
X23670D1*
X24463D2*
X25002D1*
X4132Y18909D2*
X5669D1*
X9662D2*
X10373D1*
X10942D2*
X16381D1*
X16950D2*
X20240D1*
X20508D2*
X20669D1*
X21464D2*
X21669D1*
X22464D2*
X23669D1*
X24464D2*
X25002D1*
X4132Y18848D2*
X5679D1*
X9724D2*
X10435D1*
X11004D2*
X16319D1*
X16888D2*
X20240D1*
X20508D2*
X20679D1*
X21455D2*
X21679D1*
X22455D2*
X23679D1*
X24455D2*
X25002D1*
X4132Y18786D2*
X5699D1*
X6435D2*
X8626D1*
X9785D2*
X10496D1*
X11065D2*
X16258D1*
X16827D2*
X20240D1*
X20508D2*
X20699D1*
X21435D2*
X21699D1*
X22435D2*
X23699D1*
X24435D2*
X25002D1*
X4132Y18724D2*
X5000D1*
X5134D2*
X5731D1*
X6402D2*
X8688D1*
X9847D2*
X10558D1*
X11127D2*
X13691D1*
X13947D2*
X16196D1*
X16765D2*
X20240D1*
X20508D2*
X20668D1*
X21402D2*
X21731D1*
X22402D2*
X23731D1*
X24402D2*
X25002D1*
X4132Y18663D2*
X4843D1*
X5291D2*
X5781D1*
X6353D2*
X8750D1*
X9909D2*
X10620D1*
X13994D2*
X16134D1*
X16703D2*
X20240D1*
X20508D2*
X20606D1*
X21353D2*
X21781D1*
X22353D2*
X23781D1*
X24353D2*
X25002D1*
X4132Y18601D2*
X4771D1*
X5363D2*
X5858D1*
X6275D2*
X8811D1*
X9970D2*
X10681D1*
X14012D2*
X16073D1*
X16642D2*
X20240D1*
X20508D2*
X20545D1*
X21275D2*
X21858D1*
X22275D2*
X23858D1*
X24275D2*
X25002D1*
X4132Y18539D2*
X4725D1*
X5409D2*
X8873D1*
X10032D2*
X10743D1*
X14007D2*
X16011D1*
X16580D2*
X20240D1*
X20855D2*
X25002D1*
X4132Y18478D2*
X4695D1*
X5439D2*
X8935D1*
X10094D2*
X10805D1*
X13980D2*
X15949D1*
X16518D2*
X20240D1*
X20793D2*
X25002D1*
X4132Y18416D2*
X4676D1*
X5458D2*
X8996D1*
X10155D2*
X10866D1*
X11238D2*
X13281D1*
X13649D2*
X13727D1*
X13910D2*
X15888D1*
X16457D2*
X20240D1*
X20732D2*
X25002D1*
X4132Y18354D2*
X4668D1*
X5465D2*
X9058D1*
X10217D2*
X10742D1*
X11300D2*
X13271D1*
X13658D2*
X15826D1*
X16395D2*
X20240D1*
X20670D2*
X25002D1*
X4132Y18293D2*
X4671D1*
X5462D2*
X5896D1*
X6238D2*
X9120D1*
X10279D2*
X10693D1*
X11446D2*
X11586D1*
X11839D2*
X12570D1*
X12824D2*
X13283D1*
X13647D2*
X15764D1*
X16333D2*
X20240D1*
X20646D2*
X20896D1*
X21238D2*
X21896D1*
X22238D2*
X23896D1*
X24238D2*
X25002D1*
X4132Y18231D2*
X4683D1*
X5451D2*
X5801D1*
X6333D2*
X9181D1*
X10340D2*
X10674D1*
X11494D2*
X11537D1*
X11888D2*
X12522D1*
X12872D2*
X13319D1*
X13610D2*
X15703D1*
X16272D2*
X20240D1*
X20646D2*
X20801D1*
X21333D2*
X21801D1*
X22333D2*
X23801D1*
X24333D2*
X25002D1*
X4132Y18169D2*
X4706D1*
X5428D2*
X5744D1*
X6390D2*
X9243D1*
X10402D2*
X10677D1*
X11975D2*
X12196D1*
X12979D2*
X15641D1*
X16210D2*
X20240D1*
X20646D2*
X20744D1*
X21390D2*
X21744D1*
X22390D2*
X23744D1*
X24390D2*
X25002D1*
X4132Y18108D2*
X4742D1*
X5392D2*
X5708D1*
X6426D2*
X6464D1*
X6686D2*
X9305D1*
X10464D2*
X10703D1*
X12063D2*
X12134D1*
X13053D2*
X15579D1*
X16148D2*
X20240D1*
X20646D2*
X20708D1*
X21426D2*
X21708D1*
X22426D2*
X23708D1*
X24426D2*
X25002D1*
X4132Y18046D2*
X4798D1*
X5336D2*
X5684D1*
X6743D2*
X9366D1*
X13082D2*
X15518D1*
X16087D2*
X20240D1*
X20646D2*
X20684D1*
X21450D2*
X21684D1*
X22450D2*
X23684D1*
X24450D2*
X25002D1*
X4132Y17984D2*
X4889D1*
X5245D2*
X5671D1*
X6766D2*
X9428D1*
X13087D2*
X15456D1*
X16025D2*
X20240D1*
X21462D2*
X21671D1*
X22462D2*
X23671D1*
X24462D2*
X25002D1*
X4132Y17923D2*
X5668D1*
X6766D2*
X9490D1*
X13070D2*
X15394D1*
X15962D2*
X20240D1*
X21465D2*
X21668D1*
X22465D2*
X23668D1*
X24465D2*
X25002D1*
X4132Y17861D2*
X5676D1*
X6744D2*
X9551D1*
X15901D2*
X20240D1*
X21458D2*
X21676D1*
X22458D2*
X23676D1*
X24458D2*
X25002D1*
X4132Y17799D2*
X5693D1*
X6717D2*
X9613D1*
X15839D2*
X20240D1*
X20646D2*
X20693D1*
X21441D2*
X21693D1*
X22441D2*
X23693D1*
X24441D2*
X25002D1*
X4132Y17738D2*
X5723D1*
X6717D2*
X9675D1*
X15777D2*
X20240D1*
X20646D2*
X20723D1*
X21411D2*
X21723D1*
X22411D2*
X23723D1*
X24411D2*
X25002D1*
X4132Y17676D2*
X4863D1*
X5271D2*
X5768D1*
X6366D2*
X6432D1*
X6717D2*
X9736D1*
X15716D2*
X20240D1*
X20646D2*
X20768D1*
X21366D2*
X21768D1*
X22366D2*
X23768D1*
X24366D2*
X25002D1*
X4132Y17614D2*
X4784D1*
X5350D2*
X5838D1*
X6296D2*
X6432D1*
X6717D2*
X9798D1*
X15654D2*
X20240D1*
X20646D2*
X20838D1*
X21296D2*
X21838D1*
X22296D2*
X23838D1*
X24296D2*
X25002D1*
X4132Y17552D2*
X4733D1*
X5400D2*
X5983D1*
X6150D2*
X6432D1*
X6717D2*
X9860D1*
X15589D2*
X16494D1*
X16774D2*
X20240D1*
X20646D2*
X20983D1*
X21150D2*
X21983D1*
X22150D2*
X23983D1*
X24150D2*
X25002D1*
X4132Y17491D2*
X4700D1*
X5434D2*
X6432D1*
X6717D2*
X9921D1*
X12756D2*
X12959D1*
X13340D2*
X13502D1*
X13742D2*
X16454D1*
X16814D2*
X20240D1*
X20646D2*
X25002D1*
X4132Y17429D2*
X4679D1*
X5455D2*
X6432D1*
X6717D2*
X9983D1*
X12694D2*
X12932D1*
X13340D2*
X13450D1*
X13794D2*
X16441D1*
X16827D2*
X20240D1*
X20646D2*
X25002D1*
X4132Y17367D2*
X4669D1*
X5464D2*
X6432D1*
X6717D2*
X10045D1*
X12632D2*
X12870D1*
X13318D2*
X13430D1*
X13814D2*
X16449D1*
X16819D2*
X20240D1*
X20646D2*
X25002D1*
X4132Y17306D2*
X4669D1*
X5583D2*
X5927D1*
X6207D2*
X6432D1*
X6717D2*
X11037D1*
X12571D2*
X12809D1*
X13261D2*
X13432D1*
X13812D2*
X16480D1*
X16787D2*
X20240D1*
X20646D2*
X20927D1*
X21207D2*
X21927D1*
X22207D2*
X23927D1*
X24207D2*
X25002D1*
X4132Y17244D2*
X4679D1*
X5734D2*
X5817D1*
X6317D2*
X6432D1*
X6717D2*
X10975D1*
X12509D2*
X12747D1*
X13119D2*
X13457D1*
X13787D2*
X16568D1*
X16700D2*
X20240D1*
X20646D2*
X20817D1*
X21317D2*
X21817D1*
X22317D2*
X23817D1*
X24317D2*
X25002D1*
X4132Y17182D2*
X4700D1*
X6379D2*
X6432D1*
X6717D2*
X10913D1*
X12492D2*
X12685D1*
X13057D2*
X13519D1*
X13725D2*
X20240D1*
X20646D2*
X20755D1*
X21379D2*
X21755D1*
X22379D2*
X23755D1*
X24379D2*
X25002D1*
X4132Y17121D2*
X4733D1*
X6717D2*
X9770D1*
X12465D2*
X12624D1*
X12996D2*
X20240D1*
X20646D2*
X20715D1*
X21419D2*
X21715D1*
X22419D2*
X23715D1*
X24419D2*
X25002D1*
X4132Y17059D2*
X4784D1*
X6717D2*
X9708D1*
X12397D2*
X12562D1*
X12934D2*
X20240D1*
X20646D2*
X20688D1*
X21446D2*
X21688D1*
X22446D2*
X22821D1*
X24446D2*
X25002D1*
X4132Y16997D2*
X4864D1*
X5270D2*
X5500D1*
X6717D2*
X9646D1*
X11317D2*
X12500D1*
X12872D2*
X20240D1*
X21461D2*
X21673D1*
X22461D2*
X22736D1*
X24461D2*
X25002D1*
X4132Y16936D2*
X5652D1*
X6717D2*
X9612D1*
X11256D2*
X12439D1*
X12811D2*
X20240D1*
X21465D2*
X21668D1*
X22465D2*
X22675D1*
X24465D2*
X25002D1*
X4132Y16874D2*
X5673D1*
X6717D2*
X9590D1*
X11194D2*
X12377D1*
X12749D2*
X20192D1*
X21461D2*
X21673D1*
X22461D2*
X22613D1*
X24461D2*
X25002D1*
X4132Y16812D2*
X5689D1*
X6717D2*
X9568D1*
X11132D2*
X12315D1*
X12687D2*
X20130D1*
X20646D2*
X20689D1*
X21445D2*
X21689D1*
X22445D2*
X22551D1*
X24445D2*
X25002D1*
X4132Y16751D2*
X5716D1*
X6717D2*
X9545D1*
X9974D2*
X12254D1*
X12626D2*
X20069D1*
X20630D2*
X20716D1*
X21418D2*
X21716D1*
X22418D2*
X22490D1*
X22862D2*
X23716D1*
X24418D2*
X25002D1*
X4132Y16689D2*
X4888D1*
X5246D2*
X5757D1*
X6377D2*
X6432D1*
X6717D2*
X9523D1*
X9953D2*
X12192D1*
X12564D2*
X20007D1*
X20576D2*
X20757D1*
X21377D2*
X21757D1*
X22377D2*
X22428D1*
X22800D2*
X23757D1*
X24377D2*
X25002D1*
X4132Y16627D2*
X4797D1*
X5337D2*
X5820D1*
X6314D2*
X6432D1*
X6717D2*
X9501D1*
X9930D2*
X12130D1*
X12502D2*
X19945D1*
X20514D2*
X20820D1*
X21314D2*
X21820D1*
X22314D2*
X22366D1*
X22738D2*
X23820D1*
X24314D2*
X25002D1*
X4132Y16566D2*
X4742D1*
X5392D2*
X5935D1*
X6199D2*
X6432D1*
X6717D2*
X9478D1*
X9907D2*
X12069D1*
X12441D2*
X19884D1*
X20453D2*
X20935D1*
X21199D2*
X21935D1*
X22199D2*
X22305D1*
X22677D2*
X23935D1*
X24199D2*
X25002D1*
X4132Y16504D2*
X4706D1*
X5428D2*
X6432D1*
X6717D2*
X9456D1*
X9886D2*
X12022D1*
X12379D2*
X19822D1*
X20391D2*
X21456D1*
X22615D2*
X25002D1*
X4132Y16442D2*
X4683D1*
X5451D2*
X6432D1*
X6717D2*
X9433D1*
X9863D2*
X12012D1*
X12489D2*
X19760D1*
X20329D2*
X21394D1*
X22553D2*
X25002D1*
X4132Y16381D2*
X4671D1*
X5462D2*
X6432D1*
X6717D2*
X9412D1*
X9840D2*
X12012D1*
X12537D2*
X19699D1*
X20268D2*
X21333D1*
X22492D2*
X25002D1*
X4132Y16319D2*
X4668D1*
X5465D2*
X5972D1*
X6162D2*
X6432D1*
X6717D2*
X9389D1*
X9819D2*
X12012D1*
X12554D2*
X19637D1*
X20206D2*
X20972D1*
X21162D2*
X21271D1*
X22429D2*
X23972D1*
X24162D2*
X25002D1*
X4132Y16257D2*
X4676D1*
X5458D2*
X5834D1*
X6300D2*
X6432D1*
X6717D2*
X9366D1*
X9796D2*
X12012D1*
X12551D2*
X19575D1*
X20144D2*
X20834D1*
X21581D2*
X21834D1*
X22300D2*
X23834D1*
X24300D2*
X25002D1*
X4132Y16196D2*
X4695D1*
X5439D2*
X5766D1*
X6368D2*
X6432D1*
X6717D2*
X9345D1*
X9774D2*
X12012D1*
X12525D2*
X19384D1*
X20083D2*
X20766D1*
X21520D2*
X21766D1*
X22368D2*
X23766D1*
X24368D2*
X25002D1*
X4132Y16134D2*
X4725D1*
X5408D2*
X5722D1*
X6717D2*
X9322D1*
X9751D2*
X12012D1*
X12496D2*
X19314D1*
X20021D2*
X20722D1*
X21458D2*
X21722D1*
X22412D2*
X23722D1*
X24412D2*
X25002D1*
X4132Y16072D2*
X4772D1*
X5362D2*
X5692D1*
X6717D2*
X9299D1*
X9729D2*
X12012D1*
X12496D2*
X19252D1*
X19959D2*
X20692D1*
X21442D2*
X21692D1*
X22442D2*
X23692D1*
X24442D2*
X25002D1*
X4132Y16010D2*
X4844D1*
X5290D2*
X5675D1*
X6717D2*
X9278D1*
X9707D2*
X12012D1*
X12496D2*
X18938D1*
X19898D2*
X20675D1*
X21459D2*
X21675D1*
X22459D2*
X23675D1*
X24459D2*
X25002D1*
X4132Y15949D2*
X5005D1*
X5129D2*
X5668D1*
X6717D2*
X9255D1*
X9684D2*
X12012D1*
X12496D2*
X18893D1*
X19836D2*
X20668D1*
X21465D2*
X21668D1*
X22465D2*
X23668D1*
X24465D2*
X25002D1*
X4132Y15887D2*
X5671D1*
X6717D2*
X9232D1*
X9662D2*
X12012D1*
X12496D2*
X18877D1*
X19780D2*
X20671D1*
X21462D2*
X21671D1*
X22462D2*
X23671D1*
X24462D2*
X25002D1*
X4132Y15825D2*
X5685D1*
X6717D2*
X9211D1*
X9640D2*
X12012D1*
X12496D2*
X18882D1*
X19770D2*
X20685D1*
X21449D2*
X21685D1*
X22449D2*
X23685D1*
X24449D2*
X25002D1*
X4132Y15764D2*
X5709D1*
X6717D2*
X9188D1*
X9617D2*
X12012D1*
X12496D2*
X18911D1*
X19311D2*
X19439D1*
X19734D2*
X20709D1*
X21425D2*
X21709D1*
X22425D2*
X23709D1*
X24425D2*
X25002D1*
X4132Y15702D2*
X4917D1*
X5216D2*
X5746D1*
X6710D2*
X9165D1*
X9595D2*
X12012D1*
X12496D2*
X18983D1*
X19155D2*
X19545D1*
X19628D2*
X20746D1*
X21388D2*
X21746D1*
X22388D2*
X23746D1*
X24388D2*
X25002D1*
X4132Y15640D2*
X4812D1*
X5322D2*
X5804D1*
X6673D2*
X9144D1*
X9573D2*
X12012D1*
X12496D2*
X20804D1*
X21330D2*
X21804D1*
X22330D2*
X23804D1*
X24330D2*
X25002D1*
X4132Y15579D2*
X4752D1*
X5382D2*
X5901D1*
X6233D2*
X6288D1*
X6631D2*
X9121D1*
X9550D2*
X12012D1*
X12496D2*
X20901D1*
X21233D2*
X21901D1*
X22233D2*
X23901D1*
X24233D2*
X25002D1*
X4132Y15517D2*
X4713D1*
X5421D2*
X6247D1*
X6589D2*
X6865D1*
X7011D2*
X9099D1*
X9528D2*
X12012D1*
X12496D2*
X25002D1*
X4132Y15455D2*
X4687D1*
X5447D2*
X6205D1*
X6547D2*
X6827D1*
X7181D2*
X9077D1*
X9506D2*
X12012D1*
X12496D2*
X25002D1*
X4132Y15394D2*
X4672D1*
X5462D2*
X6163D1*
X6506D2*
X6804D1*
X7350D2*
X9054D1*
X9483D2*
X12012D1*
X12496D2*
X25002D1*
X4132Y15332D2*
X4668D1*
X5486D2*
X6121D1*
X6463D2*
X6782D1*
X7520D2*
X9032D1*
X9462D2*
X12012D1*
X12496D2*
X25002D1*
X4132Y15270D2*
X4674D1*
X5645D2*
X5854D1*
X6421D2*
X6760D1*
X7689D2*
X9010D1*
X9439D2*
X12012D1*
X12496D2*
X20854D1*
X21279D2*
X21854D1*
X22279D2*
X23854D1*
X24279D2*
X25002D1*
X4132Y15209D2*
X4690D1*
X6380D2*
X6737D1*
X7858D2*
X8987D1*
X9416D2*
X12012D1*
X12496D2*
X20778D1*
X21356D2*
X21778D1*
X22356D2*
X23778D1*
X24356D2*
X25002D1*
X4132Y15147D2*
X4718D1*
X6404D2*
X6715D1*
X8027D2*
X8965D1*
X9395D2*
X12012D1*
X12496D2*
X20729D1*
X21404D2*
X21729D1*
X22404D2*
X23729D1*
X24404D2*
X25002D1*
X4132Y15085D2*
X4760D1*
X6436D2*
X6692D1*
X8198D2*
X8943D1*
X9372D2*
X12012D1*
X12496D2*
X20698D1*
X21436D2*
X21698D1*
X22436D2*
X23698D1*
X24436D2*
X25002D1*
X4132Y15024D2*
X4825D1*
X5309D2*
X5406D1*
X6456D2*
X6669D1*
X8367D2*
X8920D1*
X9349D2*
X12012D1*
X12496D2*
X20678D1*
X21456D2*
X21678D1*
X22456D2*
X23678D1*
X24456D2*
X25002D1*
X4132Y14962D2*
X4946D1*
X5188D2*
X5565D1*
X6464D2*
X6648D1*
X8536D2*
X8898D1*
X9328D2*
X12012D1*
X12496D2*
X20669D1*
X21464D2*
X21669D1*
X22464D2*
X23669D1*
X24464D2*
X25002D1*
X4132Y14900D2*
X5670D1*
X6463D2*
X6625D1*
X8706D2*
X8876D1*
X9305D2*
X12012D1*
X12496D2*
X20670D1*
X21463D2*
X21670D1*
X22463D2*
X23670D1*
X24463D2*
X25002D1*
X4132Y14839D2*
X5681D1*
X6453D2*
X6602D1*
X9282D2*
X12012D1*
X12496D2*
X20681D1*
X21453D2*
X21681D1*
X22453D2*
X23681D1*
X24453D2*
X25002D1*
X4132Y14777D2*
X5703D1*
X6431D2*
X6580D1*
X9261D2*
X12012D1*
X12496D2*
X20703D1*
X21431D2*
X21703D1*
X22431D2*
X23703D1*
X24431D2*
X25002D1*
X4132Y14715D2*
X4957D1*
X5177D2*
X5737D1*
X6397D2*
X6557D1*
X9238D2*
X12012D1*
X12496D2*
X20737D1*
X21397D2*
X21737D1*
X22397D2*
X23737D1*
X24397D2*
X25002D1*
X4132Y14654D2*
X4829D1*
X5305D2*
X5789D1*
X6344D2*
X6535D1*
X9215D2*
X12012D1*
X12496D2*
X20789D1*
X21344D2*
X21789D1*
X22344D2*
X23789D1*
X24344D2*
X25002D1*
X4132Y14592D2*
X4763D1*
X5371D2*
X5874D1*
X6260D2*
X6513D1*
X9194D2*
X11984D1*
X12496D2*
X20874D1*
X21260D2*
X21874D1*
X22260D2*
X23874D1*
X24260D2*
X25002D1*
X4132Y14530D2*
X4720D1*
X5414D2*
X6490D1*
X9171D2*
X11923D1*
X12496D2*
X25002D1*
X4132Y14469D2*
X4691D1*
X5443D2*
X6468D1*
X9149D2*
X11861D1*
X12496D2*
X25002D1*
X4132Y14407D2*
X4674D1*
X5460D2*
X6445D1*
X9126D2*
X11799D1*
X12171D2*
X12228D1*
X12496D2*
X25002D1*
X4132Y14345D2*
X4668D1*
X5465D2*
X6422D1*
X9104D2*
X11738D1*
X12110D2*
X12228D1*
X12496D2*
X25002D1*
X4132Y14283D2*
X4672D1*
X5462D2*
X5877D1*
X6257D2*
X6401D1*
X9082D2*
X11676D1*
X12048D2*
X12228D1*
X12496D2*
X20877D1*
X21257D2*
X21877D1*
X22257D2*
X25002D1*
X4132Y14222D2*
X4686D1*
X5448D2*
X5791D1*
X6342D2*
X6378D1*
X9059D2*
X11614D1*
X11986D2*
X12228D1*
X12496D2*
X20791D1*
X21342D2*
X21791D1*
X22342D2*
X25002D1*
X4132Y14160D2*
X4711D1*
X5423D2*
X5738D1*
X9037D2*
X11553D1*
X11925D2*
X12228D1*
X12496D2*
X20738D1*
X21396D2*
X21738D1*
X22396D2*
X25002D1*
X4132Y14098D2*
X4749D1*
X5385D2*
X5703D1*
X9015D2*
X11491D1*
X11863D2*
X12228D1*
X12496D2*
X20703D1*
X21431D2*
X21703D1*
X22431D2*
X25002D1*
X4132Y14037D2*
X4808D1*
X5326D2*
X5681D1*
X8992D2*
X11168D1*
X11391D2*
X11429D1*
X11801D2*
X12228D1*
X12532D2*
X13452D1*
X13674D2*
X20681D1*
X21453D2*
X21681D1*
X22453D2*
X25002D1*
X4132Y13975D2*
X4910D1*
X5224D2*
X5670D1*
X8970D2*
X11058D1*
X11740D2*
X12200D1*
X12643D2*
X13342D1*
X13784D2*
X20670D1*
X21463D2*
X21670D1*
X22463D2*
X25002D1*
X4132Y13913D2*
X5669D1*
X8948D2*
X11002D1*
X11678D2*
X12144D1*
X12699D2*
X13286D1*
X13840D2*
X20669D1*
X21464D2*
X21669D1*
X22464D2*
X25002D1*
X4132Y13852D2*
X5678D1*
X8925D2*
X10967D1*
X11616D2*
X12108D1*
X12734D2*
X13250D1*
X13876D2*
X20678D1*
X21456D2*
X21678D1*
X22456D2*
X25002D1*
X4132Y13790D2*
X5697D1*
X8903D2*
X10948D1*
X11611D2*
X12090D1*
X12753D2*
X13231D1*
X13895D2*
X20697D1*
X21437D2*
X21697D1*
X22437D2*
X25002D1*
X4132Y13728D2*
X5036D1*
X5098D2*
X5728D1*
X8881D2*
X10940D1*
X11619D2*
X12082D1*
X12761D2*
X13224D1*
X13902D2*
X20728D1*
X21405D2*
X21728D1*
X22405D2*
X25002D1*
X4132Y13667D2*
X4849D1*
X5285D2*
X5777D1*
X8858D2*
X10945D1*
X11614D2*
X12087D1*
X12756D2*
X13228D1*
X13898D2*
X20777D1*
X21357D2*
X21777D1*
X22357D2*
X25002D1*
X4132Y13605D2*
X4775D1*
X5359D2*
X5851D1*
X8837D2*
X10961D1*
X11598D2*
X12102D1*
X12740D2*
X13244D1*
X13882D2*
X20851D1*
X21282D2*
X21851D1*
X22282D2*
X25002D1*
X4132Y13543D2*
X4727D1*
X5406D2*
X6167D1*
X8814D2*
X9682D1*
X10003D2*
X10991D1*
X11568D2*
X12133D1*
X12710D2*
X13275D1*
X13851D2*
X14859D1*
X15180D2*
X25002D1*
X4132Y13482D2*
X4696D1*
X5438D2*
X6269D1*
X8791D2*
X9599D1*
X10087D2*
X11041D1*
X11518D2*
X12183D1*
X12659D2*
X13325D1*
X13801D2*
X14776D1*
X15264D2*
X25002D1*
X4132Y13420D2*
X4677D1*
X5457D2*
X6438D1*
X8770D2*
X9551D1*
X10134D2*
X11130D1*
X11429D2*
X12272D1*
X12571D2*
X13413D1*
X13712D2*
X14728D1*
X15311D2*
X25002D1*
X4132Y13358D2*
X4669D1*
X5464D2*
X6607D1*
X8747D2*
X9522D1*
X10163D2*
X14699D1*
X15340D2*
X25002D1*
X4132Y13297D2*
X4670D1*
X5463D2*
X5905D1*
X6229D2*
X6778D1*
X8724D2*
X9507D1*
X10178D2*
X14684D1*
X15355D2*
X25002D1*
X4132Y13235D2*
X4682D1*
X5452D2*
X5805D1*
X6329D2*
X6947D1*
X8703D2*
X9503D1*
X10182D2*
X14680D1*
X15359D2*
X25002D1*
X4132Y13173D2*
X4704D1*
X5430D2*
X5747D1*
X6387D2*
X7116D1*
X8680D2*
X9512D1*
X10173D2*
X14689D1*
X15350D2*
X25002D1*
X4132Y13112D2*
X4740D1*
X5394D2*
X5710D1*
X6424D2*
X7286D1*
X8657D2*
X9533D1*
X10152D2*
X14710D1*
X15330D2*
X25002D1*
X4132Y13050D2*
X4793D1*
X5340D2*
X5685D1*
X6449D2*
X7455D1*
X8636D2*
X9568D1*
X10117D2*
X14745D1*
X15294D2*
X25002D1*
X4132Y12988D2*
X4881D1*
X5253D2*
X5671D1*
X6462D2*
X7624D1*
X8613D2*
X9628D1*
X10057D2*
X14805D1*
X15234D2*
X25002D1*
X4132Y12927D2*
X5668D1*
X6465D2*
X7794D1*
X8590D2*
X9749D1*
X9936D2*
X14926D1*
X15113D2*
X25002D1*
X4132Y12865D2*
X5675D1*
X6459D2*
X7964D1*
X8568D2*
X25002D1*
X4132Y12803D2*
X5692D1*
X6442D2*
X8090D1*
X8546D2*
X21569D1*
X21817D2*
X25002D1*
X4132Y12741D2*
X5721D1*
X6413D2*
X8028D1*
X8524D2*
X21520D1*
X21866D2*
X25002D1*
X4132Y12680D2*
X4870D1*
X5264D2*
X5765D1*
X6369D2*
X7967D1*
X8501D2*
X21501D1*
X21885D2*
X25002D1*
X4132Y12618D2*
X4787D1*
X5346D2*
X5833D1*
X6301D2*
X7905D1*
X8472D2*
X21504D1*
X21882D2*
X25002D1*
X4132Y12556D2*
X4735D1*
X5399D2*
X5966D1*
X6168D2*
X7843D1*
X8411D2*
X21530D1*
X21856D2*
X25002D1*
X4132Y12495D2*
X4702D1*
X5432D2*
X5675D1*
X8350D2*
X21595D1*
X21791D2*
X25002D1*
X4132Y12433D2*
X4680D1*
X5454D2*
X5613D1*
X8288D2*
X25002D1*
X4132Y12371D2*
X4670D1*
X5463D2*
X5551D1*
X8226D2*
X22005D1*
X22050D2*
X22300D1*
X22345D2*
X22615D1*
X22660D2*
X25002D1*
X4132Y12310D2*
X4669D1*
X8165D2*
X21882D1*
X22783D2*
X25002D1*
X4132Y12248D2*
X4678D1*
X8103D2*
X21846D1*
X22820D2*
X25002D1*
X4132Y12186D2*
X4699D1*
X8041D2*
X21834D1*
X22832D2*
X25002D1*
X4132Y12125D2*
X4731D1*
X6464D2*
X21845D1*
X22821D2*
X25002D1*
X4132Y12063D2*
X4780D1*
X5354D2*
X5416D1*
X6445D2*
X21880D1*
X22785D2*
X25002D1*
X4132Y12001D2*
X4858D1*
X5275D2*
X5416D1*
X6461D2*
X21986D1*
X22069D2*
X22282D1*
X22364D2*
X22597D1*
X22679D2*
X25002D1*
X4132Y11940D2*
X5416D1*
X6465D2*
X25002D1*
X4132Y11878D2*
X5416D1*
X6461D2*
X25002D1*
X4132Y11816D2*
X5416D1*
X6447D2*
X9658D1*
X10027D2*
X14835D1*
X15205D2*
X25002D1*
X4132Y11755D2*
X5416D1*
X6420D2*
X9586D1*
X10099D2*
X14763D1*
X15276D2*
X25002D1*
X4132Y11693D2*
X4896D1*
X5238D2*
X5416D1*
X5683D2*
X5754D1*
X6380D2*
X9542D1*
X10143D2*
X14720D1*
X15320D2*
X25002D1*
X4132Y11631D2*
X4801D1*
X5333D2*
X5416D1*
X5683D2*
X5815D1*
X6319D2*
X9517D1*
X10168D2*
X14694D1*
X15345D2*
X20241D1*
X20389D2*
X20477D1*
X20625D2*
X20694D1*
X20841D2*
X25002D1*
X4132Y11570D2*
X4745D1*
X5683D2*
X5923D1*
X6211D2*
X9505D1*
X10180D2*
X14682D1*
X15357D2*
X20160D1*
X20923D2*
X25002D1*
X4132Y11508D2*
X4708D1*
X5683D2*
X9504D1*
X10181D2*
X14681D1*
X15358D2*
X17302D1*
X17540D2*
X17617D1*
X17855D2*
X17932D1*
X18170D2*
X20129D1*
X20954D2*
X25002D1*
X4132Y11446D2*
X4684D1*
X5683D2*
X9515D1*
X10170D2*
X14692D1*
X15347D2*
X17250D1*
X18222D2*
X20122D1*
X20961D2*
X25002D1*
X4132Y11385D2*
X4671D1*
X5683D2*
X9539D1*
X10146D2*
X14717D1*
X15323D2*
X17229D1*
X18243D2*
X20136D1*
X20947D2*
X25002D1*
X4132Y11323D2*
X4668D1*
X5683D2*
X5990D1*
X6144D2*
X9580D1*
X10105D2*
X11757D1*
X12062D2*
X12781D1*
X13086D2*
X14757D1*
X15282D2*
X17231D1*
X18241D2*
X20178D1*
X20904D2*
X21522D1*
X21628D2*
X25002D1*
X4132Y11261D2*
X4676D1*
X6294D2*
X9647D1*
X10038D2*
X11669D1*
X12150D2*
X12693D1*
X13173D2*
X14824D1*
X15215D2*
X17255D1*
X18217D2*
X21424D1*
X21725D2*
X25002D1*
X4132Y11199D2*
X4693D1*
X6365D2*
X11620D1*
X12199D2*
X12644D1*
X13222D2*
X17316D1*
X17526D2*
X17631D1*
X17841D2*
X17946D1*
X18156D2*
X21391D1*
X21759D2*
X25002D1*
X4132Y11138D2*
X4723D1*
X6410D2*
X11591D1*
X12228D2*
X12614D1*
X13252D2*
X21382D1*
X21768D2*
X25002D1*
X4132Y11076D2*
X4768D1*
X6440D2*
X11574D1*
X12245D2*
X12598D1*
X13269D2*
X21394D1*
X21756D2*
X25002D1*
X4132Y11014D2*
X4838D1*
X5296D2*
X5367D1*
X6458D2*
X11570D1*
X12249D2*
X12594D1*
X13273D2*
X21431D1*
X21718D2*
X25002D1*
X4132Y10953D2*
X4982D1*
X5151D2*
X5522D1*
X6465D2*
X11578D1*
X12241D2*
X12601D1*
X13265D2*
X20065D1*
X20131D2*
X20301D1*
X20368D2*
X25002D1*
X4132Y10891D2*
X5671D1*
X6462D2*
X11598D1*
X12221D2*
X12621D1*
X13245D2*
X19952D1*
X20481D2*
X25002D1*
X4132Y10829D2*
X5683D1*
X6451D2*
X9735D1*
X9950D2*
X11633D1*
X12186D2*
X12657D1*
X13210D2*
X14912D1*
X15127D2*
X19915D1*
X20518D2*
X25002D1*
X4132Y10768D2*
X5707D1*
X6427D2*
X9623D1*
X10062D2*
X11690D1*
X12129D2*
X12714D1*
X13152D2*
X14800D1*
X15239D2*
X19905D1*
X20528D2*
X25002D1*
X4132Y10706D2*
X4776D1*
X5358D2*
X5744D1*
X6390D2*
X9566D1*
X10119D2*
X11802D1*
X12017D2*
X12826D1*
X13040D2*
X14743D1*
X15296D2*
X19915D1*
X20518D2*
X25002D1*
X4132Y10644D2*
X4646D1*
X5488D2*
X5799D1*
X6335D2*
X9531D1*
X10154D2*
X14708D1*
X15332D2*
X19952D1*
X20481D2*
X22172D1*
X22906D2*
X25002D1*
X4132Y10583D2*
X4555D1*
X5579D2*
X5893D1*
X6241D2*
X9511D1*
X10174D2*
X14688D1*
X15351D2*
X20065D1*
X20131D2*
X20301D1*
X20368D2*
X22106D1*
X22972D2*
X25002D1*
X4132Y10521D2*
X4485D1*
X5649D2*
X9503D1*
X10182D2*
X14680D1*
X15359D2*
X22101D1*
X22977D2*
X25002D1*
X4132Y10459D2*
X4428D1*
X5706D2*
X9507D1*
X10178D2*
X14684D1*
X15355D2*
X22101D1*
X22977D2*
X25002D1*
X4132Y10398D2*
X4382D1*
X5752D2*
X9524D1*
X10161D2*
X14701D1*
X15338D2*
X20977D1*
X21077D2*
X22101D1*
X22977D2*
X25002D1*
X4132Y10336D2*
X4345D1*
X5789D2*
X9553D1*
X10132D2*
X14730D1*
X15309D2*
X20926D1*
X21246D2*
X22101D1*
X22977D2*
X25002D1*
X4132Y10274D2*
X4313D1*
X5821D2*
X9602D1*
X10083D2*
X11714D1*
X12105D2*
X12737D1*
X13129D2*
X14780D1*
X15260D2*
X20904D1*
X21415D2*
X22101D1*
X22977D2*
X25002D1*
X4132Y10213D2*
X4288D1*
X5845D2*
X9690D1*
X9995D2*
X11647D1*
X12172D2*
X12670D1*
X13196D2*
X14867D1*
X15172D2*
X20881D1*
X21585D2*
X22101D1*
X22977D2*
X23794D1*
X24339D2*
X25002D1*
X4132Y10151D2*
X4269D1*
X5865D2*
X11606D1*
X12212D2*
X12630D1*
X13236D2*
X19959D1*
X20474D2*
X20858D1*
X21755D2*
X22101D1*
X22977D2*
X23657D1*
X24477D2*
X25002D1*
X4132Y10089D2*
X4255D1*
X5879D2*
X11582D1*
X12237D2*
X12605D1*
X13261D2*
X19918D1*
X20515D2*
X20837D1*
X21924D2*
X22101D1*
X22977D2*
X23563D1*
X24571D2*
X25002D1*
X4132Y10028D2*
X4245D1*
X5889D2*
X11571D1*
X12248D2*
X12595D1*
X13272D2*
X17092D1*
X17278D2*
X19906D1*
X20527D2*
X20814D1*
X22977D2*
X23491D1*
X24643D2*
X25002D1*
X4132Y9966D2*
X4241D1*
X5893D2*
X11572D1*
X12247D2*
X12596D1*
X13271D2*
X17023D1*
X17347D2*
X19913D1*
X20520D2*
X20791D1*
X22977D2*
X23434D1*
X24700D2*
X25002D1*
X4132Y9904D2*
X4241D1*
X5893D2*
X11584D1*
X12235D2*
X12607D1*
X13259D2*
X16996D1*
X17374D2*
X19945D1*
X20488D2*
X20769D1*
X22977D2*
X23387D1*
X24747D2*
X25002D1*
X4132Y9843D2*
X4246D1*
X5888D2*
X11609D1*
X12210D2*
X12633D1*
X13233D2*
X16993D1*
X17377D2*
X20033D1*
X20164D2*
X20269D1*
X20400D2*
X20746D1*
X22977D2*
X23348D1*
X24786D2*
X25002D1*
X4132Y9781D2*
X4256D1*
X5878D2*
X9677D1*
X10008D2*
X11653D1*
X12166D2*
X12676D1*
X13190D2*
X14854D1*
X15185D2*
X17010D1*
X17360D2*
X20725D1*
X22977D2*
X23316D1*
X24818D2*
X25002D1*
X4132Y9719D2*
X4270D1*
X5864D2*
X9597D1*
X10088D2*
X11725D1*
X12094D2*
X12748D1*
X13118D2*
X14774D1*
X15266D2*
X17030D1*
X17340D2*
X20702D1*
X22977D2*
X23290D1*
X24843D2*
X25002D1*
X4132Y9657D2*
X4289D1*
X5844D2*
X9549D1*
X10136D2*
X14726D1*
X15313D2*
X16999D1*
X17371D2*
X20679D1*
X22977D2*
X23271D1*
X24863D2*
X25002D1*
X4132Y9596D2*
X4315D1*
X5819D2*
X9521D1*
X10164D2*
X14698D1*
X15341D2*
X16992D1*
X17378D2*
X20657D1*
X22970D2*
X23256D1*
X24878D2*
X25002D1*
X4132Y9534D2*
X4347D1*
X5787D2*
X9506D1*
X10179D2*
X14683D1*
X15356D2*
X17006D1*
X17364D2*
X20634D1*
X22948D2*
X23246D1*
X24888D2*
X25002D1*
X4132Y9472D2*
X4385D1*
X5749D2*
X9503D1*
X10182D2*
X14680D1*
X15359D2*
X17037D1*
X17333D2*
X20612D1*
X22925D2*
X23241D1*
X24893D2*
X25002D1*
X4132Y9411D2*
X4431D1*
X5703D2*
X9512D1*
X10173D2*
X14689D1*
X15350D2*
X17002D1*
X17368D2*
X20590D1*
X22903D2*
X23241D1*
X24893D2*
X25002D1*
X4132Y9349D2*
X4489D1*
X5645D2*
X9534D1*
X10151D2*
X14711D1*
X15329D2*
X16991D1*
X17379D2*
X20567D1*
X22881D2*
X23245D1*
X24889D2*
X25002D1*
X4132Y9287D2*
X4560D1*
X5574D2*
X9570D1*
X10115D2*
X14747D1*
X15292D2*
X17003D1*
X17367D2*
X19391D1*
X19664D2*
X20544D1*
X22858D2*
X23254D1*
X24880D2*
X25002D1*
X4132Y9226D2*
X4653D1*
X5481D2*
X9631D1*
X10054D2*
X14808D1*
X15231D2*
X17039D1*
X17331D2*
X19349D1*
X19707D2*
X20522D1*
X22836D2*
X23268D1*
X24866D2*
X25002D1*
X4132Y9164D2*
X4787D1*
X5347D2*
X9760D1*
X9925D2*
X14937D1*
X15102D2*
X17005D1*
X17365D2*
X19335D1*
X19720D2*
X20500D1*
X22813D2*
X23287D1*
X24846D2*
X25002D1*
X4132Y9102D2*
X16992D1*
X17378D2*
X19342D1*
X19713D2*
X20477D1*
X22791D2*
X23312D1*
X24822D2*
X25002D1*
X4132Y9041D2*
X17000D1*
X17370D2*
X19372D1*
X19683D2*
X20455D1*
X22769D2*
X23343D1*
X24791D2*
X25002D1*
X4132Y8979D2*
X17032D1*
X17338D2*
X19454D1*
X19601D2*
X20432D1*
X22746D2*
X23380D1*
X24754D2*
X25002D1*
X4132Y8917D2*
X17119D1*
X17251D2*
X20410D1*
X22723D2*
X23426D1*
X24708D2*
X25002D1*
X8699Y8856D2*
X20388D1*
X22701D2*
X23482D1*
X24651D2*
X25002D1*
X8699Y8794D2*
X20365D1*
X22679D2*
X23551D1*
X24583D2*
X25002D1*
X8699Y8732D2*
X20343D1*
X22656D2*
X23641D1*
X24493D2*
X25002D1*
X8699Y8671D2*
X20320D1*
X22634D2*
X23769D1*
X24365D2*
X25002D1*
X8699Y8609D2*
X20297D1*
X22611D2*
X25002D1*
X8699Y8547D2*
X20275D1*
X22588D2*
X25002D1*
X8699Y8486D2*
X20253D1*
X22566D2*
X25002D1*
X8699Y8424D2*
X20257D1*
X22544D2*
X25002D1*
X8699Y8362D2*
X20335D1*
X22522D2*
X25002D1*
X8699Y8301D2*
X20504D1*
X22499D2*
X25002D1*
X8699Y8239D2*
X20673D1*
X22476D2*
X25002D1*
X8699Y8177D2*
X20843D1*
X22454D2*
X25002D1*
X8699Y8115D2*
X9693D1*
X9992D2*
X14870D1*
X15169D2*
X21012D1*
X22432D2*
X25002D1*
X8699Y8054D2*
X9604D1*
X10081D2*
X14782D1*
X15258D2*
X21181D1*
X22409D2*
X25002D1*
X8699Y7992D2*
X9554D1*
X10131D2*
X14731D1*
X15308D2*
X21351D1*
X22387D2*
X25002D1*
X8699Y7930D2*
X9524D1*
X10161D2*
X14701D1*
X15338D2*
X21521D1*
X22364D2*
X25002D1*
X8699Y7869D2*
X9508D1*
X10177D2*
X14685D1*
X15354D2*
X21690D1*
X22341D2*
X25002D1*
X8699Y7807D2*
X9503D1*
X10182D2*
X14680D1*
X15359D2*
X21859D1*
X22320D2*
X25002D1*
X8699Y7745D2*
X9511D1*
X10174D2*
X14688D1*
X15351D2*
X18933D1*
X19177D2*
X22029D1*
X22296D2*
X25002D1*
X8699Y7684D2*
X9530D1*
X10155D2*
X14707D1*
X15333D2*
X18882D1*
X19228D2*
X25002D1*
X8699Y7622D2*
X9565D1*
X10120D2*
X11177D1*
X11382D2*
X12319D1*
X12524D2*
X13461D1*
X13665D2*
X14742D1*
X15297D2*
X18863D1*
X19247D2*
X25002D1*
X8699Y7560D2*
X9621D1*
X10064D2*
X11061D1*
X11498D2*
X12203D1*
X12640D2*
X13345D1*
X13781D2*
X14798D1*
X15241D2*
X18865D1*
X19245D2*
X25002D1*
X8699Y7499D2*
X9731D1*
X9954D2*
X11004D1*
X11555D2*
X12146D1*
X12697D2*
X13287D1*
X13838D2*
X14909D1*
X15131D2*
X18891D1*
X19219D2*
X25002D1*
X8699Y7437D2*
X10969D1*
X11590D2*
X12110D1*
X12732D2*
X13252D1*
X13874D2*
X18686D1*
X18912D2*
X18955D1*
X19155D2*
X25002D1*
X8699Y7375D2*
X10948D1*
X11611D2*
X12090D1*
X12753D2*
X13231D1*
X13895D2*
X18630D1*
X18968D2*
X25002D1*
X8699Y7314D2*
X10940D1*
X11619D2*
X12082D1*
X12761D2*
X13224D1*
X13902D2*
X18608D1*
X18990D2*
X25002D1*
X8699Y7252D2*
X10944D1*
X11615D2*
X12086D1*
X12757D2*
X13227D1*
X13899D2*
X18608D1*
X18990D2*
X25002D1*
X8699Y7190D2*
X10960D1*
X11599D2*
X12101D1*
X12741D2*
X13243D1*
X13883D2*
X18631D1*
X18967D2*
X25002D1*
X8699Y7129D2*
X10989D1*
X11570D2*
X12131D1*
X12712D2*
X13273D1*
X13853D2*
X18688D1*
X18910D2*
X25002D1*
X8699Y7067D2*
X11038D1*
X11521D2*
X12180D1*
X12662D2*
X13322D1*
X13804D2*
X18666D1*
X18932D2*
X25002D1*
X8699Y7005D2*
X11124D1*
X11435D2*
X12266D1*
X12577D2*
X13408D1*
X13718D2*
X18622D1*
X18976D2*
X25002D1*
X8699Y6944D2*
X18606D1*
X18992D2*
X25002D1*
X8699Y6882D2*
X18612D1*
X18986D2*
X25002D1*
X8699Y6820D2*
X18641D1*
X18958D2*
X25002D1*
X8699Y6759D2*
X18703D1*
X18896D2*
X25002D1*
X8699Y6697D2*
X18636D1*
X18962D2*
X25002D1*
X8699Y6635D2*
X18610D1*
X18988D2*
X25002D1*
X8699Y6573D2*
X18607D1*
X18991D2*
X25002D1*
X8699Y6512D2*
X18625D1*
X18973D2*
X25002D1*
X8699Y6450D2*
X18674D1*
X18924D2*
X25002D1*
X8699Y6388D2*
X25002D1*
X16952Y6327D2*
X25002D1*
X16966Y6265D2*
X25002D1*
X16966Y6203D2*
X18648D1*
X18990D2*
X20380D1*
X20722D2*
X25002D1*
X16966Y6142D2*
X18589D1*
X19049D2*
X20321D1*
X20781D2*
X25002D1*
X16966Y6080D2*
X18556D1*
X19082D2*
X20288D1*
X20814D2*
X25002D1*
X16966Y6018D2*
X18540D1*
X19097D2*
X20273D1*
X20830D2*
X25002D1*
X16966Y5957D2*
X18539D1*
X19098D2*
X20272D1*
X20831D2*
X25002D1*
X16966Y5895D2*
X18553D1*
X19085D2*
X20286D1*
X20817D2*
X25002D1*
X16966Y5833D2*
X18584D1*
X19054D2*
X20316D1*
X20786D2*
X25002D1*
X16966Y5772D2*
X18640D1*
X18998D2*
X20372D1*
X20730D2*
X25002D1*
X16966Y5710D2*
X25002D1*
X16966Y5648D2*
X25002D1*
X16966Y5587D2*
X25002D1*
X16966Y5525D2*
X25002D1*
X16966Y5463D2*
X25002D1*
X16966Y5402D2*
X25002D1*
X16966Y5340D2*
X25002D1*
X16966Y5278D2*
X25002D1*
X16966Y5217D2*
X25002D1*
X16966Y5155D2*
X25002D1*
X16966Y5093D2*
X25002D1*
X16966Y5031D2*
X25002D1*
X16966Y4970D2*
X25002D1*
X16966Y4908D2*
X25002D1*
X16966Y4846D2*
X25002D1*
X16966Y4785D2*
X25002D1*
X16966Y4723D2*
X25002D1*
X16966Y4661D2*
X25002D1*
X16966Y4600D2*
X25002D1*
X16966Y4538D2*
X25002D1*
X16966Y4476D2*
X25002D1*
X16966Y4415D2*
X25002D1*
X16966Y4353D2*
X25002D1*
X16966Y4291D2*
X25002D1*
X16966Y4230D2*
X25002D1*
X16966Y4168D2*
X25002D1*
X19091Y5953D2*
X19086Y5922D1*
X19077Y5892D1*
X19065Y5863D1*
X19049Y5835D1*
X19030Y5810D1*
X19009Y5787D1*
X18985Y5766D1*
X18959Y5749D1*
X18931Y5734D1*
X18902Y5723D1*
X18871Y5715D1*
X18840Y5711D1*
X18809Y5710D1*
X18777Y5713D1*
X18746Y5720D1*
X18717Y5730D1*
X18688Y5743D1*
X18661Y5760D1*
X18637Y5779D1*
X18614Y5802D1*
X18595Y5826D1*
X18578Y5853D1*
X18565Y5881D1*
X18555Y5911D1*
X18548Y5942D1*
X18545Y5973D1*
Y6005D1*
X18550Y6036D1*
X18557Y6067D1*
X18569Y6096D1*
X18583Y6124D1*
X18601Y6150D1*
X18621Y6174D1*
X18644Y6195D1*
X18669Y6214D1*
X18697Y6230D1*
X18726Y6242D1*
X18756Y6251D1*
X18787Y6257D1*
X18818Y6258D1*
X18850Y6257D1*
X18881Y6251D1*
X18911Y6243D1*
X18940Y6230D1*
X18967Y6215D1*
X18993Y6196D1*
X19016Y6175D1*
X19036Y6151D1*
X19054Y6125D1*
X19069Y6097D1*
X19080Y6068D1*
X19088Y6037D1*
X19093Y5984D1*
X19091Y5953D1*
X20824D2*
X20818Y5922D1*
X20809Y5892D1*
X20797Y5863D1*
X20781Y5835D1*
X20763Y5810D1*
X20741Y5787D1*
X20717Y5766D1*
X20691Y5749D1*
X20663Y5734D1*
X20634Y5723D1*
X20604Y5715D1*
X20572Y5711D1*
X20541Y5710D1*
X20510Y5713D1*
X20479Y5720D1*
X20449Y5730D1*
X20420Y5743D1*
X20394Y5760D1*
X20369Y5779D1*
X20347Y5802D1*
X20327Y5826D1*
X20310Y5853D1*
X20297Y5881D1*
X20287Y5911D1*
X20280Y5942D1*
X20277Y5973D1*
X20278Y6005D1*
X20282Y6036D1*
X20290Y6067D1*
X20301Y6096D1*
X20315Y6124D1*
X20333Y6150D1*
X20353Y6174D1*
X20376Y6195D1*
X20402Y6214D1*
X20429Y6230D1*
X20458Y6242D1*
X20488Y6251D1*
X20519Y6257D1*
X20551Y6258D1*
X20582Y6257D1*
X20613Y6251D1*
X20643Y6243D1*
X20672Y6230D1*
X20700Y6215D1*
X20725Y6196D1*
X20748Y6175D1*
X20769Y6151D1*
X20786Y6125D1*
X20801Y6097D1*
X20812Y6068D1*
X20820Y6037D1*
X20825Y5984D1*
X20824Y5953D1*
X22887Y29906D2*
X22882Y29843D1*
X22872Y29780D1*
X22858Y29719D1*
X22839Y29659D1*
X22815Y29601D1*
X22787Y29544D1*
X22755Y29490D1*
X22718Y29439D1*
X22678Y29390D1*
X22635Y29345D1*
X22588Y29303D1*
X22537Y29265D1*
X22484Y29231D1*
X22429Y29201D1*
X22371Y29175D1*
X22312Y29154D1*
X22251Y29138D1*
X22190Y29126D1*
X22127Y29119D1*
X22064Y29117D1*
X22001Y29119D1*
X21939Y29127D1*
X21877Y29139D1*
X21816Y29156D1*
X21757Y29178D1*
X21700Y29204D1*
X21644Y29234D1*
X21592Y29269D1*
X21542Y29307D1*
X21495Y29349D1*
X21452Y29395D1*
X21412Y29444D1*
X21376Y29495D1*
X21344Y29550D1*
X21316Y29606D1*
X21293Y29665D1*
X21275Y29725D1*
X21261Y29786D1*
X21251Y29849D1*
X21247Y29911D1*
X21248Y29974D1*
X21253Y30037D1*
X21263Y30099D1*
X21278Y30161D1*
X21297Y30220D1*
X21321Y30279D1*
X21350Y30335D1*
X21382Y30389D1*
X21419Y30440D1*
X21459Y30488D1*
X21504Y30533D1*
X21551Y30575D1*
X21601Y30612D1*
X21655Y30646D1*
X21710Y30676D1*
X21768Y30701D1*
X21827Y30721D1*
X21888Y30738D1*
X21950Y30749D1*
X22013Y30755D1*
X22076Y30757D1*
X22139Y30754D1*
X22201Y30746D1*
X22263Y30733D1*
X22323Y30716D1*
X22382Y30694D1*
X22440Y30668D1*
X22495Y30637D1*
X22547Y30602D1*
X22597Y30563D1*
X22643Y30521D1*
X22686Y30475D1*
X22726Y30426D1*
X22761Y30374D1*
X22793Y30319D1*
X22820Y30262D1*
X22843Y30204D1*
X22861Y30143D1*
X22874Y30082D1*
X22883Y30020D1*
X22887Y29937D1*
Y29906D1*
X11887D2*
X11882Y29843D1*
X11872Y29780D1*
X11858Y29719D1*
X11839Y29659D1*
X11815Y29601D1*
X11787Y29544D1*
X11755Y29490D1*
X11718Y29439D1*
X11678Y29390D1*
X11635Y29345D1*
X11588Y29303D1*
X11537Y29265D1*
X11484Y29231D1*
X11429Y29201D1*
X11371Y29175D1*
X11312Y29154D1*
X11251Y29138D1*
X11190Y29126D1*
X11127Y29119D1*
X11064Y29117D1*
X11001Y29119D1*
X10939Y29127D1*
X10877Y29139D1*
X10816Y29156D1*
X10757Y29178D1*
X10700Y29204D1*
X10644Y29234D1*
X10592Y29269D1*
X10542Y29307D1*
X10495Y29349D1*
X10452Y29395D1*
X10412Y29444D1*
X10376Y29495D1*
X10344Y29550D1*
X10316Y29606D1*
X10293Y29665D1*
X10275Y29725D1*
X10261Y29786D1*
X10251Y29849D1*
X10247Y29911D1*
X10248Y29974D1*
X10253Y30037D1*
X10263Y30099D1*
X10278Y30161D1*
X10297Y30220D1*
X10321Y30279D1*
X10350Y30335D1*
X10382Y30389D1*
X10419Y30440D1*
X10459Y30488D1*
X10504Y30533D1*
X10551Y30575D1*
X10601Y30612D1*
X10655Y30646D1*
X10710Y30676D1*
X10768Y30701D1*
X10827Y30721D1*
X10888Y30738D1*
X10950Y30749D1*
X11013Y30755D1*
X11076Y30757D1*
X11139Y30754D1*
X11201Y30746D1*
X11263Y30733D1*
X11323Y30716D1*
X11382Y30694D1*
X11440Y30668D1*
X11495Y30637D1*
X11547Y30602D1*
X11597Y30563D1*
X11643Y30521D1*
X11686Y30475D1*
X11726Y30426D1*
X11761Y30374D1*
X11793Y30319D1*
X11820Y30262D1*
X11843Y30204D1*
X11861Y30143D1*
X11874Y30082D1*
X11883Y30020D1*
X11887Y29937D1*
Y29906D1*
X5887Y9906D2*
X5882Y9843D1*
X5872Y9780D1*
X5858Y9719D1*
X5839Y9659D1*
X5815Y9601D1*
X5787Y9544D1*
X5755Y9490D1*
X5718Y9439D1*
X5678Y9390D1*
X5635Y9345D1*
X5588Y9303D1*
X5537Y9265D1*
X5484Y9231D1*
X5429Y9201D1*
X5371Y9175D1*
X5312Y9154D1*
X5251Y9138D1*
X5190Y9126D1*
X5127Y9119D1*
X5064Y9117D1*
X5001Y9119D1*
X4939Y9127D1*
X4877Y9139D1*
X4816Y9156D1*
X4757Y9178D1*
X4700Y9204D1*
X4644Y9234D1*
X4592Y9269D1*
X4542Y9307D1*
X4495Y9349D1*
X4452Y9395D1*
X4412Y9444D1*
X4376Y9495D1*
X4344Y9550D1*
X4316Y9606D1*
X4293Y9665D1*
X4275Y9725D1*
X4261Y9786D1*
X4251Y9849D1*
X4247Y9911D1*
X4248Y9974D1*
X4253Y10037D1*
X4263Y10099D1*
X4278Y10161D1*
X4297Y10220D1*
X4321Y10279D1*
X4350Y10335D1*
X4382Y10389D1*
X4419Y10440D1*
X4459Y10488D1*
X4504Y10533D1*
X4551Y10575D1*
X4601Y10612D1*
X4655Y10646D1*
X4710Y10676D1*
X4768Y10701D1*
X4827Y10721D1*
X4888Y10738D1*
X4950Y10749D1*
X5013Y10755D1*
X5076Y10757D1*
X5139Y10754D1*
X5201Y10746D1*
X5263Y10733D1*
X5323Y10716D1*
X5382Y10694D1*
X5440Y10668D1*
X5495Y10637D1*
X5547Y10602D1*
X5597Y10563D1*
X5643Y10521D1*
X5686Y10475D1*
X5726Y10426D1*
X5761Y10374D1*
X5793Y10319D1*
X5820Y10262D1*
X5843Y10204D1*
X5861Y10143D1*
X5874Y10082D1*
X5883Y10020D1*
X5887Y9937D1*
Y9906D1*
X24887Y9406D2*
X24882Y9343D1*
X24872Y9280D1*
X24858Y9219D1*
X24839Y9159D1*
X24815Y9101D1*
X24787Y9044D1*
X24755Y8990D1*
X24718Y8939D1*
X24678Y8890D1*
X24635Y8845D1*
X24588Y8803D1*
X24537Y8765D1*
X24484Y8731D1*
X24429Y8701D1*
X24371Y8675D1*
X24312Y8654D1*
X24251Y8638D1*
X24190Y8626D1*
X24127Y8619D1*
X24064Y8617D1*
X24001Y8619D1*
X23939Y8627D1*
X23877Y8639D1*
X23816Y8656D1*
X23757Y8678D1*
X23700Y8704D1*
X23644Y8734D1*
X23592Y8769D1*
X23542Y8807D1*
X23495Y8849D1*
X23452Y8895D1*
X23412Y8944D1*
X23376Y8995D1*
X23344Y9050D1*
X23316Y9106D1*
X23293Y9165D1*
X23275Y9225D1*
X23261Y9286D1*
X23251Y9349D1*
X23247Y9411D1*
X23248Y9474D1*
X23253Y9537D1*
X23263Y9599D1*
X23278Y9661D1*
X23297Y9720D1*
X23321Y9779D1*
X23350Y9835D1*
X23382Y9889D1*
X23419Y9940D1*
X23459Y9988D1*
X23504Y10033D1*
X23551Y10075D1*
X23601Y10112D1*
X23655Y10146D1*
X23710Y10176D1*
X23768Y10201D1*
X23827Y10221D1*
X23888Y10238D1*
X23950Y10249D1*
X24013Y10255D1*
X24076Y10257D1*
X24139Y10254D1*
X24201Y10246D1*
X24263Y10233D1*
X24323Y10216D1*
X24382Y10194D1*
X24440Y10168D1*
X24495Y10137D1*
X24547Y10102D1*
X24597Y10063D1*
X24643Y10021D1*
X24686Y9975D1*
X24726Y9926D1*
X24761Y9874D1*
X24793Y9819D1*
X24820Y9762D1*
X24843Y9704D1*
X24861Y9643D1*
X24874Y9582D1*
X24883Y9520D1*
X24887Y9437D1*
Y9406D1*
X24458Y14906D2*
X24448Y14843D1*
X24428Y14784D1*
X24399Y14728D1*
X24361Y14678D1*
X24316Y14634D1*
X24264Y14598D1*
X24207Y14571D1*
X24147Y14553D1*
X24085Y14545D1*
X24022Y14547D1*
X23960Y14560D1*
X23901Y14581D1*
X23846Y14613D1*
X23797Y14652D1*
X23755Y14699D1*
X23721Y14752D1*
X23696Y14809D1*
X23680Y14870D1*
X23675Y14933D1*
X23679Y14996D1*
X23693Y15057D1*
X23717Y15115D1*
X23750Y15169D1*
X23792Y15216D1*
X23840Y15257D1*
X23894Y15289D1*
X23952Y15312D1*
X24014Y15326D1*
X24077Y15329D1*
X24139Y15323D1*
X24200Y15306D1*
X24257Y15280D1*
X24310Y15245D1*
X24356Y15202D1*
X24394Y15153D1*
X24425Y15098D1*
X24446Y15038D1*
X24457Y14977D1*
X24459Y14937D1*
X24458Y14906D1*
Y15906D2*
X24448Y15843D1*
X24428Y15784D1*
X24399Y15728D1*
X24361Y15678D1*
X24316Y15634D1*
X24264Y15598D1*
X24207Y15571D1*
X24147Y15553D1*
X24085Y15545D1*
X24022Y15547D1*
X23960Y15560D1*
X23901Y15581D1*
X23846Y15613D1*
X23797Y15652D1*
X23755Y15699D1*
X23721Y15752D1*
X23696Y15809D1*
X23680Y15870D1*
X23675Y15933D1*
X23679Y15996D1*
X23693Y16057D1*
X23717Y16115D1*
X23750Y16169D1*
X23792Y16216D1*
X23840Y16257D1*
X23894Y16289D1*
X23952Y16312D1*
X24014Y16326D1*
X24077Y16329D1*
X24139Y16323D1*
X24200Y16306D1*
X24257Y16280D1*
X24310Y16245D1*
X24356Y16202D1*
X24394Y16153D1*
X24425Y16098D1*
X24446Y16038D1*
X24457Y15977D1*
X24459Y15937D1*
X24458Y15906D1*
Y16906D2*
X24448Y16843D1*
X24428Y16784D1*
X24399Y16728D1*
X24361Y16678D1*
X24316Y16634D1*
X24264Y16598D1*
X24207Y16571D1*
X24147Y16553D1*
X24085Y16545D1*
X24022Y16547D1*
X23960Y16560D1*
X23901Y16581D1*
X23846Y16613D1*
X23797Y16652D1*
X23755Y16699D1*
X23721Y16752D1*
X23696Y16810D1*
X22914D1*
X22432Y16327D1*
X22408Y16308D1*
X22379Y16295D1*
X22343Y16290D1*
X22240Y16289D1*
X22284Y16264D1*
X22324Y16233D1*
X22360Y16198D1*
X22391Y16158D1*
X22417Y16115D1*
X22437Y16068D1*
X22450Y16020D1*
X22458Y15970D1*
X22459Y15918D1*
X22453Y15868D1*
X22441Y15819D1*
X22423Y15772D1*
X22399Y15728D1*
X22369Y15687D1*
X22335Y15650D1*
X22296Y15619D1*
X22253Y15592D1*
X22207Y15571D1*
X22159Y15556D1*
X22110Y15547D1*
X22060Y15545D1*
X22009Y15549D1*
X21960Y15560D1*
X21913Y15576D1*
X21868Y15599D1*
X21826Y15627D1*
X21788Y15661D1*
X21755Y15699D1*
X21727Y15741D1*
X21705Y15786D1*
X21689Y15833D1*
X21678Y15883D1*
X21675Y15933D1*
X21677Y15983D1*
X21687Y16033D1*
X21702Y16081D1*
X21723Y16126D1*
X21750Y16169D1*
X21783Y16207D1*
X21820Y16242D1*
X21861Y16271D1*
X21896Y16290D1*
X21607D1*
X21422Y16104D1*
X21437Y16068D1*
X21453Y16008D1*
X21459Y15945D1*
X21458Y15906D1*
X21448Y15843D1*
X21428Y15784D1*
X21399Y15728D1*
X21361Y15678D1*
X21316Y15634D1*
X21264Y15598D1*
X21207Y15571D1*
X21147Y15553D1*
X21085Y15545D1*
X21022Y15547D1*
X20960Y15560D1*
X20901Y15581D1*
X20846Y15613D1*
X20797Y15652D1*
X20755Y15699D1*
X20721Y15752D1*
X20696Y15809D1*
X20680Y15870D1*
X20675Y15933D1*
X20679Y15996D1*
X20693Y16057D1*
X20717Y16115D1*
X20750Y16169D1*
X20792Y16216D1*
X20840Y16257D1*
X20894Y16289D1*
X20952Y16312D1*
X21014Y16326D1*
X21077Y16329D1*
X21139Y16323D1*
X21200Y16306D1*
X21244Y16287D1*
X21465Y16507D1*
X21490Y16527D1*
X21519Y16539D1*
X21555Y16544D1*
X22290D1*
X22772Y17027D1*
X22797Y17046D1*
X22826Y17059D1*
X22862Y17064D1*
X23696D1*
X23717Y17115D1*
X23750Y17169D1*
X23792Y17216D1*
X23840Y17257D1*
X23894Y17289D1*
X23952Y17312D1*
X24014Y17326D1*
X24077Y17329D1*
X24139Y17323D1*
X24200Y17306D1*
X24257Y17280D1*
X24310Y17245D1*
X24356Y17202D1*
X24394Y17153D1*
X24425Y17098D1*
X24446Y17038D1*
X24457Y16977D1*
X24459Y16937D1*
X24458Y16906D1*
Y17906D2*
X24448Y17843D1*
X24428Y17784D1*
X24399Y17728D1*
X24361Y17678D1*
X24316Y17634D1*
X24264Y17598D1*
X24207Y17571D1*
X24147Y17553D1*
X24085Y17545D1*
X24022Y17547D1*
X23960Y17560D1*
X23901Y17581D1*
X23846Y17613D1*
X23797Y17652D1*
X23755Y17699D1*
X23721Y17752D1*
X23696Y17809D1*
X23680Y17870D1*
X23675Y17933D1*
X23679Y17996D1*
X23693Y18057D1*
X23717Y18115D1*
X23750Y18169D1*
X23792Y18216D1*
X23840Y18257D1*
X23894Y18289D1*
X23952Y18312D1*
X24014Y18326D1*
X24077Y18329D1*
X24139Y18323D1*
X24200Y18306D1*
X24257Y18280D1*
X24310Y18245D1*
X24356Y18202D1*
X24394Y18153D1*
X24425Y18098D1*
X24446Y18038D1*
X24457Y17977D1*
X24459Y17937D1*
X24458Y17906D1*
Y18906D2*
X24448Y18843D1*
X24428Y18784D1*
X24399Y18728D1*
X24361Y18678D1*
X24316Y18634D1*
X24264Y18598D1*
X24207Y18571D1*
X24147Y18553D1*
X24085Y18545D1*
X24022Y18547D1*
X23960Y18560D1*
X23901Y18581D1*
X23846Y18613D1*
X23797Y18652D1*
X23755Y18699D1*
X23721Y18752D1*
X23696Y18809D1*
X23680Y18870D1*
X23675Y18933D1*
X23679Y18996D1*
X23693Y19057D1*
X23717Y19115D1*
X23750Y19169D1*
X23792Y19216D1*
X23840Y19257D1*
X23894Y19289D1*
X23952Y19312D1*
X24014Y19326D1*
X24077Y19329D1*
X24139Y19323D1*
X24200Y19306D1*
X24257Y19280D1*
X24310Y19245D1*
X24356Y19202D1*
X24394Y19153D1*
X24425Y19098D1*
X24446Y19038D1*
X24457Y18977D1*
X24459Y18937D1*
X24458Y18906D1*
X24459Y19931D2*
X24455Y19881D1*
X24445Y19831D1*
X24428Y19784D1*
X24405Y19739D1*
X24377Y19697D1*
X24344Y19659D1*
X24306Y19626D1*
X24264Y19598D1*
X24219Y19575D1*
X24172Y19559D1*
X24122Y19549D1*
X24072Y19545D1*
X24022Y19547D1*
X23972Y19556D1*
X23924Y19572D1*
X23879Y19593D1*
X23836Y19620D1*
X23797Y19652D1*
X23763Y19689D1*
X23734Y19730D1*
X23710Y19774D1*
X23692Y19821D1*
X23680Y19870D1*
X23675Y19920D1*
X23676Y19971D1*
X23684Y20020D1*
X23697Y20069D1*
X23717Y20115D1*
X23743Y20158D1*
X23774Y20198D1*
X23810Y20233D1*
X23850Y20264D1*
X23894Y20289D1*
X23940Y20308D1*
X23989Y20321D1*
X24039Y20328D1*
X24089Y20329D1*
X24139Y20323D1*
X24188Y20310D1*
X24235Y20292D1*
X24279Y20267D1*
X24319Y20237D1*
X24356Y20202D1*
X24387Y20163D1*
X24414Y20120D1*
X24434Y20074D1*
X24449Y20026D1*
X24457Y19977D1*
X24459Y19931D1*
Y20931D2*
X24455Y20881D1*
X24445Y20831D1*
X24428Y20784D1*
X24405Y20739D1*
X24377Y20697D1*
X24344Y20659D1*
X24306Y20626D1*
X24264Y20598D1*
X24219Y20575D1*
X24172Y20559D1*
X24122Y20549D1*
X24072Y20545D1*
X24022Y20547D1*
X23972Y20556D1*
X23924Y20572D1*
X23879Y20593D1*
X23836Y20620D1*
X23797Y20652D1*
X23763Y20689D1*
X23734Y20730D1*
X23710Y20774D1*
X23692Y20821D1*
X23680Y20870D1*
X23675Y20920D1*
X23676Y20971D1*
X23684Y21020D1*
X23697Y21069D1*
X23717Y21115D1*
X23743Y21158D1*
X23774Y21198D1*
X23810Y21233D1*
X23850Y21264D1*
X23894Y21289D1*
X23940Y21308D1*
X23989Y21321D1*
X24039Y21328D1*
X24089Y21329D1*
X24139Y21323D1*
X24188Y21310D1*
X24235Y21292D1*
X24279Y21267D1*
X24319Y21237D1*
X24356Y21202D1*
X24387Y21163D1*
X24414Y21120D1*
X24434Y21074D1*
X24449Y21026D1*
X24457Y20977D1*
X24459Y20931D1*
X24458Y21906D2*
X24448Y21843D1*
X24428Y21784D1*
X24399Y21728D1*
X24361Y21678D1*
X24316Y21634D1*
X24264Y21598D1*
X24207Y21571D1*
X24147Y21553D1*
X24085Y21545D1*
X24022Y21547D1*
X23960Y21560D1*
X23901Y21581D1*
X23846Y21613D1*
X23797Y21652D1*
X23755Y21699D1*
X23721Y21752D1*
X23696Y21809D1*
X23680Y21870D1*
X23675Y21933D1*
X23679Y21996D1*
X23693Y22057D1*
X23717Y22115D1*
X23750Y22169D1*
X23792Y22216D1*
X23840Y22257D1*
X23894Y22289D1*
X23952Y22312D1*
X24014Y22326D1*
X24077Y22329D1*
X24139Y22323D1*
X24200Y22306D1*
X24257Y22280D1*
X24310Y22245D1*
X24356Y22202D1*
X24394Y22153D1*
X24425Y22098D1*
X24446Y22038D1*
X24457Y21977D1*
X24459Y21937D1*
X24458Y21906D1*
Y23906D2*
X24448Y23843D1*
X24428Y23784D1*
X24399Y23728D1*
X24361Y23678D1*
X24316Y23634D1*
X24264Y23598D1*
X24207Y23571D1*
X24147Y23553D1*
X24085Y23545D1*
X24022Y23547D1*
X23960Y23560D1*
X23901Y23581D1*
X23846Y23613D1*
X23797Y23652D1*
X23755Y23699D1*
X23721Y23752D1*
X23696Y23809D1*
X23680Y23870D1*
X23675Y23933D1*
X23679Y23996D1*
X23693Y24057D1*
X23717Y24115D1*
X23750Y24169D1*
X23792Y24216D1*
X23840Y24257D1*
X23894Y24289D1*
X23952Y24312D1*
X24014Y24326D1*
X24077Y24329D1*
X24139Y24323D1*
X24200Y24306D1*
X24257Y24280D1*
X24310Y24245D1*
X24356Y24202D1*
X24394Y24153D1*
X24425Y24098D1*
X24446Y24038D1*
X24457Y23977D1*
X24459Y23937D1*
X24458Y23906D1*
Y24906D2*
X24448Y24843D1*
X24428Y24784D1*
X24399Y24728D1*
X24361Y24678D1*
X24316Y24634D1*
X24264Y24598D1*
X24207Y24571D1*
X24147Y24553D1*
X24085Y24545D1*
X24022Y24547D1*
X23960Y24560D1*
X23901Y24581D1*
X23846Y24613D1*
X23797Y24652D1*
X23755Y24699D1*
X23721Y24752D1*
X23696Y24809D1*
X23680Y24870D1*
X23675Y24933D1*
X23679Y24996D1*
X23693Y25057D1*
X23717Y25115D1*
X23750Y25169D1*
X23792Y25216D1*
X23840Y25257D1*
X23894Y25289D1*
X23952Y25312D1*
X24014Y25326D1*
X24077Y25329D1*
X24139Y25323D1*
X24200Y25306D1*
X24257Y25280D1*
X24310Y25245D1*
X24356Y25202D1*
X24394Y25153D1*
X24425Y25098D1*
X24446Y25038D1*
X24457Y24977D1*
X24459Y24937D1*
X24458Y24906D1*
Y25906D2*
X24448Y25843D1*
X24428Y25784D1*
X24399Y25728D1*
X24361Y25678D1*
X24316Y25634D1*
X24264Y25598D1*
X24207Y25571D1*
X24147Y25553D1*
X24085Y25545D1*
X24022Y25547D1*
X23960Y25560D1*
X23901Y25581D1*
X23846Y25613D1*
X23797Y25652D1*
X23755Y25699D1*
X23721Y25752D1*
X23696Y25809D1*
X23680Y25870D1*
X23675Y25933D1*
X23679Y25996D1*
X23693Y26057D1*
X23717Y26115D1*
X23750Y26169D1*
X23792Y26216D1*
X23840Y26257D1*
X23894Y26289D1*
X23952Y26312D1*
X24014Y26326D1*
X24077Y26329D1*
X24139Y26323D1*
X24200Y26306D1*
X24257Y26280D1*
X24310Y26245D1*
X24356Y26202D1*
X24394Y26153D1*
X24425Y26098D1*
X24446Y26038D1*
X24457Y25977D1*
X24459Y25937D1*
X24458Y25906D1*
Y26906D2*
X24448Y26843D1*
X24428Y26784D1*
X24399Y26728D1*
X24361Y26678D1*
X24316Y26634D1*
X24264Y26598D1*
X24207Y26571D1*
X24147Y26553D1*
X24085Y26545D1*
X24022Y26547D1*
X23960Y26560D1*
X23901Y26581D1*
X23846Y26613D1*
X23797Y26652D1*
X23755Y26699D1*
X23721Y26752D1*
X23696Y26809D1*
X23680Y26870D1*
X23675Y26933D1*
X23679Y26996D1*
X23693Y27057D1*
X23717Y27115D1*
X23750Y27169D1*
X23792Y27216D1*
X23840Y27257D1*
X23894Y27289D1*
X23952Y27312D1*
X24014Y27326D1*
X24077Y27329D1*
X24139Y27323D1*
X24200Y27306D1*
X24257Y27280D1*
X24310Y27245D1*
X24356Y27202D1*
X24394Y27153D1*
X24425Y27098D1*
X24446Y27038D1*
X24457Y26977D1*
X24459Y26937D1*
X24458Y26906D1*
Y27906D2*
X24448Y27843D1*
X24428Y27784D1*
X24399Y27728D1*
X24361Y27678D1*
X24316Y27634D1*
X24264Y27598D1*
X24207Y27571D1*
X24147Y27553D1*
X24085Y27545D1*
X24022Y27547D1*
X23960Y27560D1*
X23901Y27581D1*
X23846Y27613D1*
X23797Y27652D1*
X23755Y27699D1*
X23721Y27752D1*
X23696Y27809D1*
X23680Y27870D1*
X23675Y27933D1*
X23679Y27996D1*
X23693Y28057D1*
X23717Y28115D1*
X23750Y28169D1*
X23792Y28216D1*
X23840Y28257D1*
X23894Y28289D1*
X23952Y28312D1*
X24014Y28326D1*
X24077Y28329D1*
X24139Y28323D1*
X24200Y28306D1*
X24257Y28280D1*
X24310Y28245D1*
X24356Y28202D1*
X24394Y28153D1*
X24425Y28098D1*
X24446Y28038D1*
X24457Y27977D1*
X24459Y27937D1*
X24458Y27906D1*
Y28906D2*
X24448Y28843D1*
X24428Y28784D1*
X24399Y28728D1*
X24361Y28678D1*
X24316Y28634D1*
X24264Y28598D1*
X24207Y28571D1*
X24147Y28553D1*
X24085Y28545D1*
X24022Y28547D1*
X23960Y28560D1*
X23901Y28581D1*
X23846Y28613D1*
X23797Y28652D1*
X23755Y28699D1*
X23721Y28752D1*
X23696Y28809D1*
X23680Y28870D1*
X23675Y28933D1*
X23679Y28996D1*
X23693Y29057D1*
X23717Y29115D1*
X23750Y29169D1*
X23792Y29216D1*
X23840Y29257D1*
X23894Y29289D1*
X23952Y29312D1*
X24014Y29326D1*
X24077Y29329D1*
X24139Y29323D1*
X24200Y29306D1*
X24257Y29280D1*
X24310Y29245D1*
X24356Y29202D1*
X24394Y29153D1*
X24425Y29098D1*
X24446Y29038D1*
X24457Y28977D1*
X24459Y28937D1*
X24458Y28906D1*
X5458D2*
X5448Y28846D1*
X5868Y28426D1*
X9617Y24677D1*
X9637Y24652D1*
X9649Y24623D1*
X9655Y24587D1*
Y21725D1*
X10331Y21050D1*
X10339Y21075D1*
X10353Y21103D1*
X10372Y21129D1*
X10395Y21150D1*
X10421Y21168D1*
X10450Y21181D1*
X10480Y21188D1*
X10512Y21191D1*
X10543Y21188D1*
X10574Y21181D1*
X10602Y21168D1*
X10628Y21150D1*
X10651Y21129D1*
X10670Y21104D1*
X10685Y21076D1*
X10694Y21046D1*
X10699Y21004D1*
X10696Y20973D1*
X10688Y20942D1*
X10676Y20913D1*
X10658Y20887D1*
X10637Y20864D1*
X10611Y20845D1*
X10583Y20831D1*
X10558Y20823D1*
X10740Y20641D1*
X10759Y20616D1*
X10771Y20588D1*
X10777Y20551D1*
Y19723D1*
X10789Y19711D1*
X10808Y19686D1*
X10822Y19658D1*
X10832Y19628D1*
X10837Y19587D1*
X10834Y19555D1*
X10826Y19525D1*
X10813Y19496D1*
X10796Y19470D1*
X10774Y19447D1*
X10749Y19428D1*
X10721Y19414D1*
X10691Y19404D1*
X10660Y19400D1*
X10629Y19401D1*
X10598Y19407D1*
X10568Y19418D1*
X10541Y19434D1*
X10517Y19454D1*
X10497Y19478D1*
X10481Y19505D1*
X10470Y19535D1*
X10464Y19566D1*
X10463Y19596D1*
X10432Y19597D1*
X10401Y19604D1*
X10372Y19615D1*
X10344Y19631D1*
X10320Y19651D1*
X10300Y19675D1*
X10284Y19702D1*
X10273Y19732D1*
X10267Y19762D1*
X10266Y19793D1*
X10235Y19794D1*
X10204Y19800D1*
X10175Y19812D1*
X10148Y19828D1*
X10124Y19848D1*
X10103Y19872D1*
X10087Y19899D1*
X10076Y19928D1*
X10070Y19959D1*
X10069Y19991D1*
X10073Y20022D1*
X10083Y20052D1*
X10097Y20080D1*
X10116Y20105D1*
X10128Y20116D1*
X10129Y20460D1*
X9162Y21426D1*
X9143Y21451D1*
X9130Y21479D1*
X9125Y21516D1*
Y24338D1*
X7380Y26082D1*
X6641Y26821D1*
X5442Y26822D1*
X5428Y26784D1*
X5399Y26728D1*
X5361Y26678D1*
X5316Y26634D1*
X5264Y26598D1*
X5207Y26571D1*
X5147Y26553D1*
X5085Y26545D1*
X5022Y26547D1*
X4960Y26560D1*
X4901Y26581D1*
X4846Y26613D1*
X4797Y26652D1*
X4755Y26699D1*
X4721Y26752D1*
X4696Y26809D1*
X4680Y26870D1*
X4675Y26933D1*
X4679Y26996D1*
X4693Y27057D1*
X4717Y27115D1*
X4750Y27169D1*
X4792Y27216D1*
X4840Y27257D1*
X4894Y27289D1*
X4952Y27312D1*
X5014Y27326D1*
X5077Y27329D1*
X5139Y27323D1*
X5200Y27306D1*
X5257Y27280D1*
X5310Y27245D1*
X5356Y27202D1*
X5394Y27153D1*
X5425Y27098D1*
X5433Y27077D1*
X5709Y27076D1*
X6623D1*
X6182Y27516D1*
X5971Y27727D1*
X5399D1*
X5361Y27678D1*
X5316Y27634D1*
X5264Y27598D1*
X5207Y27571D1*
X5147Y27553D1*
X5085Y27545D1*
X5022Y27547D1*
X4960Y27560D1*
X4901Y27581D1*
X4846Y27613D1*
X4797Y27652D1*
X4755Y27699D1*
X4721Y27752D1*
X4696Y27809D1*
X4680Y27870D1*
X4675Y27933D1*
X4679Y27996D1*
X4693Y28057D1*
X4717Y28115D1*
X4750Y28169D1*
X4792Y28216D1*
X4840Y28257D1*
X4894Y28289D1*
X4952Y28312D1*
X5014Y28326D1*
X5077Y28329D1*
X5139Y28323D1*
X5200Y28306D1*
X5257Y28280D1*
X5310Y28245D1*
X5356Y28202D1*
X5394Y28153D1*
X5425Y28098D1*
X5446Y28038D1*
X5457Y27981D1*
X5954D1*
X5585Y28350D1*
X5307Y28627D1*
X5264Y28598D1*
X5207Y28571D1*
X5147Y28553D1*
X5085Y28545D1*
X5022Y28547D1*
X4960Y28560D1*
X4901Y28581D1*
X4846Y28613D1*
X4797Y28652D1*
X4755Y28699D1*
X4721Y28752D1*
X4696Y28809D1*
X4680Y28870D1*
X4675Y28933D1*
X4679Y28996D1*
X4693Y29057D1*
X4717Y29115D1*
X4750Y29169D1*
X4792Y29216D1*
X4840Y29257D1*
X4894Y29289D1*
X4952Y29312D1*
X5014Y29326D1*
X5077Y29329D1*
X5139Y29323D1*
X5200Y29306D1*
X5257Y29280D1*
X5310Y29245D1*
X5356Y29202D1*
X5394Y29153D1*
X5425Y29098D1*
X5446Y29038D1*
X5457Y28977D1*
X5459Y28937D1*
X5458Y28906D1*
Y25906D2*
X5448Y25843D1*
X5428Y25784D1*
X5405Y25739D1*
X5544Y25600D1*
X6791D1*
X6823Y25596D1*
X6852Y25584D1*
X6881Y25562D1*
X8712Y23732D1*
X8731Y23707D1*
X8744Y23678D1*
X8749Y23642D1*
Y21095D1*
X10494Y19352D1*
X11136Y18709D1*
X11398Y18710D1*
X13682D1*
X13702Y18729D1*
X13728Y18746D1*
X13757Y18759D1*
X13787Y18767D1*
X13819Y18770D1*
X13850Y18767D1*
X13881Y18759D1*
X13909Y18747D1*
X13935Y18729D1*
X13958Y18707D1*
X13977Y18682D1*
X13992Y18654D1*
X14001Y18624D1*
X14006Y18583D1*
X14003Y18551D1*
X13996Y18521D1*
X13983Y18492D1*
X13965Y18466D1*
X13944Y18443D1*
X13918Y18424D1*
X13891Y18410D1*
X13861Y18400D1*
X13829Y18396D1*
X13798Y18397D1*
X13767Y18403D1*
X13738Y18414D1*
X13711Y18430D1*
X13682Y18456D1*
X13623D1*
X13637Y18428D1*
X13647Y18398D1*
X13652Y18356D1*
X13649Y18325D1*
X13641Y18294D1*
X13628Y18266D1*
X13611Y18240D1*
X13589Y18217D1*
X13564Y18198D1*
X13536Y18183D1*
X13506Y18174D1*
X13475Y18169D1*
X13444Y18170D1*
X13413Y18176D1*
X13383Y18188D1*
X13356Y18204D1*
X13332Y18224D1*
X13312Y18248D1*
X13296Y18275D1*
X13285Y18304D1*
X13279Y18335D1*
X13278Y18367D1*
X13282Y18398D1*
X13292Y18428D1*
X13306Y18455D1*
X12843Y18456D1*
X11192D1*
X11311Y18337D1*
X11350Y18334D1*
X11381Y18326D1*
X11409Y18313D1*
X11435Y18296D1*
X11458Y18274D1*
X11477Y18249D1*
X11492Y18221D1*
X11502Y18187D1*
X11528Y18186D1*
X11540Y18221D1*
X11554Y18249D1*
X11573Y18274D1*
X11596Y18296D1*
X11622Y18313D1*
X11651Y18326D1*
X11681Y18334D1*
X11712Y18337D1*
X11744Y18334D1*
X11774Y18326D1*
X11803Y18313D1*
X11829Y18296D1*
X11852Y18274D1*
X11871Y18249D1*
X11885Y18221D1*
X11897Y18179D1*
X11941Y18177D1*
X11971Y18169D1*
X12000Y18156D1*
X12026Y18139D1*
X12049Y18117D1*
X12068Y18092D1*
X12086Y18054D1*
X12213Y18180D1*
X12238Y18200D1*
X12267Y18212D1*
X12303Y18218D1*
X12523D1*
X12538Y18249D1*
X12557Y18274D1*
X12580Y18296D1*
X12606Y18313D1*
X12635Y18326D1*
X12665Y18334D1*
X12697Y18337D1*
X12728Y18334D1*
X12759Y18326D1*
X12787Y18313D1*
X12813Y18296D1*
X12836Y18274D1*
X12855Y18249D1*
X12870Y18221D1*
X12880Y18187D1*
X12925Y18185D1*
X12955Y18177D1*
X12984Y18164D1*
X13010Y18146D1*
X13033Y18125D1*
X13052Y18100D1*
X13067Y18072D1*
X13076Y18042D1*
X13081Y18000D1*
X13078Y17969D1*
X13070Y17938D1*
X13064Y17923D1*
X13780Y17922D1*
X15401D1*
X17145Y19667D1*
X17314Y19836D1*
Y21517D1*
X17288Y21545D1*
X17272Y21572D1*
X17261Y21602D1*
X17255Y21633D1*
X17254Y21664D1*
X17258Y21695D1*
X17268Y21725D1*
X17282Y21753D1*
X17301Y21778D1*
X17324Y21800D1*
X17350Y21817D1*
X17379Y21830D1*
X17409Y21838D1*
X17441Y21841D1*
X17472Y21838D1*
X17503Y21830D1*
X17531Y21817D1*
X17558Y21800D1*
X17578Y21780D1*
X17600Y21800D1*
X17626Y21817D1*
X17655Y21830D1*
X17685Y21838D1*
X17716Y21841D1*
X17748Y21838D1*
X17778Y21830D1*
X17807Y21817D1*
X17833Y21800D1*
X17856Y21778D1*
X17875Y21753D1*
X17889Y21725D1*
X17899Y21695D1*
X17904Y21654D1*
X17901Y21622D1*
X17893Y21592D1*
X17880Y21563D1*
X17863Y21537D1*
X17841Y21514D1*
X17816Y21495D1*
X17780Y21478D1*
X17706Y21404D1*
Y19724D1*
X17702Y19693D1*
X17691Y19664D1*
X17669Y19635D1*
X15602Y17568D1*
X15577Y17548D1*
X15548Y17536D1*
X15512Y17530D1*
X13324D1*
X13332Y17502D1*
X13337Y17461D1*
X13334Y17429D1*
X13326Y17399D1*
X13313Y17370D1*
X13296Y17344D1*
X13274Y17321D1*
X13249Y17302D1*
X13221Y17288D1*
X13191Y17278D1*
X13160Y17274D1*
X13143D1*
X12355Y16486D1*
X12393Y16484D1*
X12424Y16476D1*
X12453Y16463D1*
X12479Y16446D1*
X12502Y16424D1*
X12521Y16399D1*
X12535Y16371D1*
X12545Y16341D1*
X12549Y16299D1*
X12547Y16268D1*
X12539Y16237D1*
X12526Y16209D1*
X12509Y16183D1*
X12489Y16162D1*
Y14046D1*
X12519Y14039D1*
X12577Y14015D1*
X12630Y13981D1*
X12675Y13937D1*
X12711Y13885D1*
X12737Y13828D1*
X12751Y13767D1*
X12754Y13720D1*
X12749Y13658D1*
X12731Y13597D1*
X12702Y13541D1*
X12664Y13492D1*
X12616Y13450D1*
X12562Y13419D1*
X12503Y13397D1*
X12441Y13388D1*
X12378Y13390D1*
X12317Y13404D1*
X12259Y13429D1*
X12207Y13465D1*
X12163Y13510D1*
X12128Y13562D1*
X12104Y13620D1*
X12090Y13682D1*
X12089Y13744D1*
X12099Y13806D1*
X12121Y13865D1*
X12154Y13919D1*
X12196Y13966D1*
X12236Y13997D1*
X12235Y14477D1*
X11723Y13965D1*
X11593Y13835D1*
X11604Y13798D1*
X11612Y13735D1*
X11611Y13689D1*
X11599Y13627D1*
X11576Y13569D1*
X11542Y13516D1*
X11499Y13470D1*
X11448Y13433D1*
X11391Y13407D1*
X11330Y13391D1*
X11268Y13387D1*
X11205Y13396D1*
X11145Y13415D1*
X11091Y13446D1*
X11042Y13486D1*
X11003Y13535D1*
X10973Y13591D1*
X10954Y13651D1*
X10946Y13713D1*
X10951Y13776D1*
X10967Y13836D1*
X10995Y13893D1*
X11032Y13944D1*
X11078Y13986D1*
X11132Y14019D1*
X11191Y14042D1*
X11253Y14053D1*
X11315Y14052D1*
X11377Y14039D1*
X11420Y14022D1*
X11591Y14192D1*
X12019Y14620D1*
Y16457D1*
X12022Y16488D1*
X12034Y16517D1*
X12056Y16547D1*
X12963Y17453D1*
X12967Y17502D1*
X12976Y17531D1*
X12803Y17530D1*
X12788D1*
X12490Y17231D1*
X12488Y17193D1*
X12480Y17163D1*
X12467Y17134D1*
X12449Y17108D1*
X12428Y17085D1*
X12403Y17066D1*
X12375Y17051D1*
X12345Y17042D1*
X12314Y17038D1*
X12282D1*
X12249Y17046D1*
X12233Y17042D1*
X12180Y17040D1*
X11354D1*
X11133Y16820D1*
X11108Y16800D1*
X11080Y16788D1*
X11043Y16782D1*
X9993D1*
X9971Y16758D1*
X8486Y12654D1*
X8470Y12623D1*
X8434Y12585D1*
X8043Y12194D1*
X8018Y12174D1*
X7989Y12162D1*
X7953Y12156D1*
X6489D1*
X6426Y12093D1*
X6446Y12038D1*
X6457Y11977D1*
X6459Y11937D1*
X6454Y11874D1*
X6439Y11813D1*
X6415Y11755D1*
X6381Y11702D1*
X6339Y11655D1*
X6291Y11615D1*
X6236Y11583D1*
X6178Y11561D1*
X6116Y11548D1*
X6053Y11545D1*
X5991Y11552D1*
X5930Y11569D1*
X5873Y11596D1*
X5821Y11631D1*
X5775Y11675D1*
X5737Y11725D1*
X5707Y11780D1*
X5687Y11840D1*
X5677Y11895D1*
Y11313D1*
X5769Y11277D1*
X5832Y11251D1*
X5866Y11274D1*
X5923Y11302D1*
X5983Y11320D1*
X6045Y11329D1*
X6108Y11327D1*
X6170Y11316D1*
X6229Y11294D1*
X6284Y11264D1*
X6334Y11225D1*
X6376Y11178D1*
X6411Y11126D1*
X6437Y11068D1*
X6453Y11008D1*
X6459Y10945D1*
X6458Y10906D1*
X6448Y10843D1*
X6428Y10784D1*
X6399Y10728D1*
X6361Y10678D1*
X6316Y10634D1*
X6264Y10598D1*
X6207Y10571D1*
X6147Y10553D1*
X6085Y10545D1*
X6022Y10547D1*
X5960Y10560D1*
X5901Y10581D1*
X5846Y10613D1*
X5797Y10652D1*
X5755Y10699D1*
X5721Y10752D1*
X5696Y10809D1*
X5680Y10870D1*
X5677Y10893D1*
X5449Y10984D1*
X5318Y11035D1*
X5264Y10998D1*
X5207Y10971D1*
X5147Y10953D1*
X5085Y10945D1*
X5022Y10947D1*
X4960Y10960D1*
X4901Y10981D1*
X4846Y11013D1*
X4797Y11052D1*
X4755Y11099D1*
X4721Y11152D1*
X4696Y11209D1*
X4680Y11270D1*
X4675Y11333D1*
X4679Y11396D1*
X4693Y11457D1*
X4717Y11515D1*
X4750Y11569D1*
X4792Y11616D1*
X4840Y11657D1*
X4894Y11689D1*
X4952Y11712D1*
X5014Y11726D1*
X5077Y11729D1*
X5139Y11723D1*
X5200Y11706D1*
X5257Y11680D1*
X5310Y11645D1*
X5356Y11602D1*
X5394Y11553D1*
X5423Y11500D1*
Y12172D1*
X5399Y12128D1*
X5361Y12078D1*
X5316Y12034D1*
X5264Y11998D1*
X5207Y11971D1*
X5147Y11953D1*
X5085Y11945D1*
X5022Y11947D1*
X4960Y11960D1*
X4901Y11981D1*
X4846Y12013D1*
X4797Y12052D1*
X4755Y12099D1*
X4721Y12152D1*
X4696Y12209D1*
X4680Y12270D1*
X4675Y12333D1*
X4679Y12396D1*
X4693Y12457D1*
X4717Y12515D1*
X4750Y12569D1*
X4792Y12616D1*
X4840Y12657D1*
X4894Y12689D1*
X4952Y12712D1*
X5014Y12726D1*
X5077Y12729D1*
X5139Y12723D1*
X5200Y12706D1*
X5257Y12680D1*
X5310Y12645D1*
X5356Y12602D1*
X5394Y12553D1*
X5425Y12498D1*
X5446Y12438D1*
X5457Y12377D1*
X5459Y12337D1*
X5454Y12274D1*
X5452Y12266D1*
X5698Y12511D1*
X5722Y12530D1*
X5751Y12543D1*
X5787Y12548D1*
X6015D1*
X5960Y12560D1*
X5901Y12581D1*
X5846Y12613D1*
X5797Y12652D1*
X5755Y12699D1*
X5721Y12752D1*
X5696Y12809D1*
X5680Y12870D1*
X5675Y12933D1*
X5679Y12996D1*
X5693Y13057D1*
X5717Y13115D1*
X5750Y13169D1*
X5792Y13216D1*
X5840Y13257D1*
X5894Y13289D1*
X5952Y13312D1*
X6014Y13326D1*
X6077Y13329D1*
X6139Y13323D1*
X6200Y13306D1*
X6257Y13280D1*
X6310Y13245D1*
X6356Y13202D1*
X6394Y13153D1*
X6425Y13098D1*
X6446Y13038D1*
X6457Y12977D1*
X6459Y12937D1*
X6454Y12874D1*
X6439Y12813D1*
X6415Y12755D1*
X6381Y12702D1*
X6339Y12655D1*
X6291Y12615D1*
X6236Y12583D1*
X6178Y12561D1*
X6119Y12548D1*
X7842D1*
X8114Y12821D1*
X8089Y12823D1*
X8045Y12837D1*
X6213Y13505D1*
X6192Y13519D1*
X6176Y13539D1*
X6167Y13558D1*
X6122Y13549D1*
X6072Y13545D1*
X6022Y13547D1*
X5972Y13556D1*
X5924Y13572D1*
X5879Y13593D1*
X5836Y13620D1*
X5797Y13652D1*
X5763Y13689D1*
X5734Y13730D1*
X5710Y13774D1*
X5692Y13821D1*
X5680Y13870D1*
X5675Y13920D1*
X5676Y13971D1*
X5684Y14020D1*
X5697Y14069D1*
X5717Y14115D1*
X5743Y14158D1*
X5774Y14198D1*
X5810Y14233D1*
X5850Y14264D1*
X5894Y14289D1*
X5940Y14308D1*
X5989Y14321D1*
X6039Y14328D1*
X6089Y14329D1*
X6139Y14323D1*
X6188Y14310D1*
X6235Y14292D1*
X6279Y14267D1*
X6319Y14237D1*
X6356Y14202D1*
X6371Y14185D1*
X6842Y15480D1*
X6855Y15501D1*
X6873Y15519D1*
X6895Y15531D1*
X6920Y15537D1*
X6945D1*
X6970Y15530D1*
X8825Y14854D1*
X8846Y14839D1*
X8856Y14829D1*
X9625Y16953D1*
X9640Y16983D1*
X9676Y17022D1*
X9792Y17137D1*
X9817Y17156D1*
X9846Y17169D1*
X9882Y17174D1*
X10912D1*
X11043Y17306D1*
X10165D1*
X10134Y17310D1*
X10105Y17321D1*
X10075Y17343D1*
X8609Y18810D1*
X6438D1*
X6415Y18755D1*
X6381Y18702D1*
X6339Y18655D1*
X6291Y18615D1*
X6236Y18583D1*
X6178Y18561D1*
X6116Y18548D1*
X6053Y18545D1*
X5991Y18552D1*
X5930Y18569D1*
X5873Y18596D1*
X5821Y18631D1*
X5775Y18675D1*
X5737Y18725D1*
X5707Y18780D1*
X5687Y18840D1*
X5676Y18902D1*
Y18964D1*
X5685Y19027D1*
X5704Y19087D1*
X5733Y19143D1*
X5770Y19193D1*
X5815Y19238D1*
X5866Y19274D1*
X5923Y19302D1*
X5983Y19320D1*
X6045Y19329D1*
X6108Y19327D1*
X6170Y19316D1*
X6229Y19294D1*
X6284Y19264D1*
X6334Y19225D1*
X6376Y19178D1*
X6411Y19126D1*
X6437Y19068D1*
X6438Y19064D1*
X8552D1*
X8253Y19362D1*
X7802Y19814D1*
X6439Y19813D1*
X6415Y19755D1*
X6381Y19702D1*
X6339Y19655D1*
X6291Y19615D1*
X6236Y19583D1*
X6178Y19561D1*
X6116Y19548D1*
X6053Y19545D1*
X5991Y19552D1*
X5930Y19569D1*
X5873Y19596D1*
X5821Y19631D1*
X5775Y19675D1*
X5737Y19725D1*
X5707Y19780D1*
X5687Y19840D1*
X5676Y19902D1*
Y19964D1*
X5685Y20027D1*
X5704Y20087D1*
X5733Y20143D1*
X5770Y20193D1*
X5815Y20238D1*
X5866Y20274D1*
X5923Y20302D1*
X5983Y20320D1*
X6045Y20329D1*
X6108Y20327D1*
X6170Y20316D1*
X6229Y20294D1*
X6284Y20264D1*
X6334Y20225D1*
X6376Y20178D1*
X6411Y20126D1*
X6437Y20068D1*
X7016D1*
X7745D1*
X7233Y20579D1*
X6231Y21581D1*
X6178Y21561D1*
X6116Y21548D1*
X6053Y21545D1*
X5991Y21552D1*
X5930Y21569D1*
X5873Y21596D1*
X5821Y21631D1*
X5775Y21675D1*
X5737Y21725D1*
X5707Y21781D1*
X5426D1*
X5399Y21728D1*
X5361Y21678D1*
X5316Y21634D1*
X5264Y21598D1*
X5207Y21571D1*
X5147Y21553D1*
X5085Y21545D1*
X5022Y21547D1*
X4960Y21560D1*
X4901Y21581D1*
X4846Y21613D1*
X4797Y21652D1*
X4755Y21699D1*
X4721Y21752D1*
X4696Y21809D1*
X4680Y21870D1*
X4675Y21933D1*
X4679Y21996D1*
X4693Y22057D1*
X4717Y22115D1*
X4750Y22169D1*
X4792Y22216D1*
X4840Y22257D1*
X4894Y22289D1*
X4952Y22312D1*
X5014Y22326D1*
X5077Y22329D1*
X5139Y22323D1*
X5200Y22306D1*
X5257Y22280D1*
X5310Y22245D1*
X5356Y22202D1*
X5394Y22153D1*
X5425Y22098D1*
X5427Y22093D1*
X5708D1*
X5733Y22143D1*
X5770Y22193D1*
X5815Y22238D1*
X5866Y22274D1*
X5923Y22302D1*
X5983Y22320D1*
X6045Y22329D1*
X6108Y22327D1*
X6170Y22316D1*
X6229Y22294D1*
X6284Y22264D1*
X6334Y22225D1*
X6376Y22178D1*
X6411Y22126D1*
X6428Y22090D1*
Y22605D1*
X6359Y22674D1*
X6316Y22634D1*
X6264Y22598D1*
X6207Y22571D1*
X6147Y22553D1*
X6085Y22545D1*
X6022Y22547D1*
X5960Y22560D1*
X5901Y22581D1*
X5846Y22613D1*
X5797Y22652D1*
X5755Y22699D1*
X5721Y22752D1*
X5707Y22781D1*
X5426D1*
X5399Y22728D1*
X5361Y22678D1*
X5316Y22634D1*
X5264Y22598D1*
X5207Y22571D1*
X5147Y22553D1*
X5085Y22545D1*
X5022Y22547D1*
X4960Y22560D1*
X4901Y22581D1*
X4846Y22613D1*
X4797Y22652D1*
X4755Y22699D1*
X4721Y22752D1*
X4696Y22809D1*
X4680Y22870D1*
X4675Y22933D1*
X4679Y22996D1*
X4693Y23057D1*
X4717Y23115D1*
X4750Y23169D1*
X4792Y23216D1*
X4840Y23257D1*
X4894Y23289D1*
X4952Y23312D1*
X5014Y23326D1*
X5077Y23329D1*
X5139Y23323D1*
X5200Y23306D1*
X5257Y23280D1*
X5310Y23245D1*
X5356Y23202D1*
X5394Y23153D1*
X5425Y23098D1*
X5427Y23093D1*
X5708D1*
X5733Y23143D1*
X5770Y23193D1*
X5815Y23238D1*
X5866Y23274D1*
X5923Y23302D1*
X5983Y23320D1*
X6045Y23329D1*
X6108Y23327D1*
X6170Y23316D1*
X6229Y23294D1*
X6284Y23264D1*
X6334Y23225D1*
X6376Y23178D1*
X6411Y23126D1*
X6437Y23068D1*
X6453Y23008D1*
X6459Y22945D1*
Y22934D1*
X6645Y22747D1*
X6664Y22723D1*
X6677Y22694D1*
X6682Y22657D1*
Y22013D1*
X6693Y22057D1*
X6717Y22115D1*
X6750Y22169D1*
X6792Y22216D1*
X6840Y22257D1*
X6894Y22289D1*
X6952Y22312D1*
X7014Y22326D1*
X7077Y22329D1*
X7139Y22323D1*
X7200Y22306D1*
X7257Y22280D1*
X7310Y22245D1*
X7356Y22202D1*
X7393Y22155D1*
Y22718D1*
X7361Y22678D1*
X7316Y22634D1*
X7264Y22598D1*
X7207Y22571D1*
X7147Y22553D1*
X7085Y22545D1*
X7022Y22547D1*
X6960Y22560D1*
X6901Y22581D1*
X6846Y22613D1*
X6797Y22652D1*
X6755Y22699D1*
X6721Y22752D1*
X6696Y22809D1*
X6680Y22870D1*
X6675Y22933D1*
X6679Y22996D1*
X6693Y23057D1*
X6717Y23115D1*
X6750Y23169D1*
X6792Y23216D1*
X6840Y23257D1*
X6894Y23289D1*
X6952Y23312D1*
X7014Y23326D1*
X7077Y23329D1*
X7139Y23323D1*
X7200Y23306D1*
X7240Y23288D1*
X6719Y23810D1*
X5438D1*
X5415Y23755D1*
X5381Y23702D1*
X5339Y23655D1*
X5291Y23615D1*
X5236Y23583D1*
X5178Y23561D1*
X5116Y23548D1*
X5053Y23545D1*
X4991Y23552D1*
X4930Y23569D1*
X4873Y23596D1*
X4821Y23631D1*
X4775Y23675D1*
X4737Y23725D1*
X4707Y23780D1*
X4687Y23840D1*
X4676Y23902D1*
Y23964D1*
X4685Y24027D1*
X4704Y24087D1*
X4733Y24143D1*
X4770Y24193D1*
X4815Y24238D1*
X4866Y24274D1*
X4923Y24302D1*
X4983Y24320D1*
X5045Y24329D1*
X5108Y24327D1*
X5170Y24316D1*
X5229Y24294D1*
X5284Y24264D1*
X5334Y24225D1*
X5376Y24178D1*
X5411Y24126D1*
X5437Y24068D1*
X5438Y24064D1*
X6772D1*
X6803Y24060D1*
X6832Y24049D1*
X6862Y24027D1*
X7610Y23279D1*
X7629Y23254D1*
X7642Y23225D1*
X7647Y23189D1*
Y20918D1*
X9391Y19174D1*
X10486Y18080D1*
X10731D1*
X10714Y18100D1*
X10698Y18127D1*
X10686Y18157D1*
X10680Y18188D1*
X10679Y18219D1*
X10684Y18250D1*
X10693Y18280D1*
X10708Y18308D1*
X10727Y18333D1*
X10749Y18355D1*
X10776Y18372D1*
X10804Y18385D1*
X10835Y18393D1*
X10866Y18396D1*
X10895Y18394D1*
X8394Y20894D1*
X8375Y20919D1*
X8362Y20948D1*
X8357Y20984D1*
Y23491D1*
X7270Y24577D1*
X5453Y24578D1*
X5422Y24581D1*
X5392Y24593D1*
X5363Y24615D1*
X5330Y24648D1*
X5291Y24615D1*
X5236Y24583D1*
X5178Y24561D1*
X5116Y24548D1*
X5053Y24545D1*
X4991Y24552D1*
X4930Y24569D1*
X4873Y24596D1*
X4821Y24631D1*
X4775Y24675D1*
X4737Y24725D1*
X4707Y24780D1*
X4687Y24840D1*
X4676Y24902D1*
Y24964D1*
X4685Y25027D1*
X4704Y25087D1*
X4733Y25143D1*
X4770Y25193D1*
X4815Y25238D1*
X4866Y25274D1*
X4923Y25302D1*
X4983Y25320D1*
X5045Y25329D1*
X5108Y25327D1*
X5170Y25316D1*
X5229Y25294D1*
X5284Y25264D1*
X5334Y25225D1*
X5376Y25178D1*
X5411Y25126D1*
X5437Y25068D1*
X5453Y25008D1*
X5459Y24945D1*
X5458Y24906D1*
X5455Y24881D1*
X5506Y24832D1*
X7253D1*
X6884Y25200D1*
X6739Y25345D1*
X5492D1*
X5461Y25349D1*
X5432Y25361D1*
X5402Y25383D1*
X5212Y25573D1*
X5147Y25553D1*
X5085Y25545D1*
X5022Y25547D1*
X4960Y25560D1*
X4901Y25581D1*
X4846Y25613D1*
X4797Y25652D1*
X4755Y25699D1*
X4721Y25752D1*
X4696Y25809D1*
X4680Y25870D1*
X4675Y25933D1*
X4679Y25996D1*
X4693Y26057D1*
X4717Y26115D1*
X4750Y26169D1*
X4792Y26216D1*
X4840Y26257D1*
X4894Y26289D1*
X4952Y26312D1*
X5014Y26326D1*
X5077Y26329D1*
X5139Y26323D1*
X5200Y26306D1*
X5257Y26280D1*
X5310Y26245D1*
X5356Y26202D1*
X5394Y26153D1*
X5425Y26098D1*
X5446Y26038D1*
X5457Y25977D1*
X5459Y25937D1*
X5458Y25906D1*
Y20306D2*
X5448Y20243D1*
X5428Y20184D1*
X5399Y20128D1*
X5361Y20078D1*
X5316Y20034D1*
X5264Y19998D1*
X5207Y19971D1*
X5147Y19953D1*
X5085Y19945D1*
X5022Y19947D1*
X4960Y19960D1*
X4901Y19981D1*
X4846Y20013D1*
X4797Y20052D1*
X4755Y20099D1*
X4721Y20152D1*
X4696Y20209D1*
X4680Y20270D1*
X4675Y20333D1*
X4679Y20396D1*
X4693Y20457D1*
X4717Y20515D1*
X4750Y20569D1*
X4792Y20616D1*
X4840Y20657D1*
X4894Y20689D1*
X4952Y20712D1*
X5014Y20726D1*
X5077Y20729D1*
X5139Y20723D1*
X5200Y20706D1*
X5257Y20680D1*
X5310Y20645D1*
X5356Y20602D1*
X5394Y20553D1*
X5425Y20498D1*
X5446Y20438D1*
X5457Y20377D1*
X5459Y20337D1*
X5458Y20306D1*
Y19306D2*
X5448Y19243D1*
X5428Y19184D1*
X5399Y19128D1*
X5361Y19078D1*
X5316Y19034D1*
X5264Y18998D1*
X5207Y18971D1*
X5147Y18953D1*
X5085Y18945D1*
X5022Y18947D1*
X4960Y18960D1*
X4901Y18981D1*
X4846Y19013D1*
X4797Y19052D1*
X4755Y19099D1*
X4721Y19152D1*
X4696Y19209D1*
X4680Y19270D1*
X4675Y19333D1*
X4679Y19396D1*
X4693Y19457D1*
X4717Y19515D1*
X4750Y19569D1*
X4792Y19616D1*
X4840Y19657D1*
X4894Y19689D1*
X4952Y19712D1*
X5014Y19726D1*
X5077Y19729D1*
X5139Y19723D1*
X5200Y19706D1*
X5257Y19680D1*
X5310Y19645D1*
X5356Y19602D1*
X5394Y19553D1*
X5425Y19498D1*
X5446Y19438D1*
X5457Y19377D1*
X5459Y19337D1*
X5458Y19306D1*
Y18306D2*
X5448Y18243D1*
X5428Y18184D1*
X5399Y18128D1*
X5361Y18078D1*
X5316Y18034D1*
X5264Y17998D1*
X5207Y17971D1*
X5147Y17953D1*
X5085Y17945D1*
X5022Y17947D1*
X4960Y17960D1*
X4901Y17981D1*
X4846Y18013D1*
X4797Y18052D1*
X4755Y18099D1*
X4721Y18152D1*
X4696Y18209D1*
X4680Y18270D1*
X4675Y18333D1*
X4679Y18396D1*
X4693Y18457D1*
X4717Y18515D1*
X4750Y18569D1*
X4792Y18616D1*
X4840Y18657D1*
X4894Y18689D1*
X4952Y18712D1*
X5014Y18726D1*
X5077Y18729D1*
X5139Y18723D1*
X5200Y18706D1*
X5257Y18680D1*
X5310Y18645D1*
X5356Y18602D1*
X5394Y18553D1*
X5425Y18498D1*
X5446Y18438D1*
X5457Y18377D1*
X5459Y18337D1*
X5458Y18306D1*
X5347Y17063D2*
X5316Y17034D1*
X5264Y16998D1*
X5207Y16971D1*
X5147Y16953D1*
X5085Y16945D1*
X5022Y16947D1*
X4960Y16960D1*
X4901Y16981D1*
X4846Y17013D1*
X4797Y17052D1*
X4755Y17099D1*
X4721Y17152D1*
X4696Y17209D1*
X4680Y17270D1*
X4675Y17333D1*
X4679Y17396D1*
X4693Y17457D1*
X4717Y17515D1*
X4750Y17569D1*
X4792Y17616D1*
X4840Y17657D1*
X4894Y17689D1*
X4952Y17712D1*
X5014Y17726D1*
X5077Y17729D1*
X5139Y17723D1*
X5200Y17706D1*
X5257Y17680D1*
X5310Y17645D1*
X5356Y17602D1*
X5394Y17553D1*
X5425Y17498D1*
X5446Y17438D1*
X5457Y17377D1*
X5459Y17354D1*
X5792Y17218D1*
X5840Y17257D1*
X5894Y17289D1*
X5952Y17312D1*
X6014Y17326D1*
X6077Y17329D1*
X6139Y17323D1*
X6200Y17306D1*
X6257Y17280D1*
X6310Y17245D1*
X6356Y17202D1*
X6394Y17153D1*
X6425Y17098D1*
X6439Y17062D1*
X6438Y17812D1*
X6415Y17755D1*
X6381Y17702D1*
X6339Y17655D1*
X6291Y17615D1*
X6236Y17583D1*
X6178Y17561D1*
X6116Y17548D1*
X6053Y17545D1*
X5991Y17552D1*
X5930Y17569D1*
X5873Y17596D1*
X5821Y17631D1*
X5775Y17675D1*
X5737Y17725D1*
X5707Y17780D1*
X5687Y17840D1*
X5676Y17902D1*
Y17964D1*
X5685Y18027D1*
X5704Y18087D1*
X5733Y18143D1*
X5770Y18193D1*
X5815Y18238D1*
X5866Y18274D1*
X5923Y18302D1*
X5983Y18320D1*
X6045Y18329D1*
X6108Y18327D1*
X6170Y18316D1*
X6229Y18294D1*
X6284Y18264D1*
X6334Y18225D1*
X6376Y18178D1*
X6411Y18126D1*
X6434Y18075D1*
X6458Y18099D1*
X6484Y18117D1*
X6513Y18129D1*
X6543Y18137D1*
X6575Y18140D1*
X6606Y18137D1*
X6637Y18129D1*
X6665Y18117D1*
X6691Y18099D1*
X6714Y18078D1*
X6733Y18052D1*
X6748Y18025D1*
X6757Y17995D1*
X6762Y17953D1*
X6759Y17921D1*
X6751Y17891D1*
X6739Y17862D1*
X6721Y17836D1*
X6711Y17825D1*
Y15748D1*
X6708Y15717D1*
X6697Y15688D1*
X6652Y15619D1*
X6363Y15193D1*
X6394Y15153D1*
X6425Y15098D1*
X6446Y15038D1*
X6457Y14977D1*
X6459Y14937D1*
X6454Y14874D1*
X6439Y14813D1*
X6415Y14755D1*
X6381Y14702D1*
X6339Y14655D1*
X6291Y14615D1*
X6236Y14583D1*
X6178Y14561D1*
X6116Y14548D1*
X6053Y14545D1*
X5991Y14552D1*
X5930Y14569D1*
X5873Y14596D1*
X5821Y14631D1*
X5775Y14675D1*
X5737Y14725D1*
X5707Y14780D1*
X5687Y14840D1*
X5676Y14902D1*
X5675Y14922D1*
X5338Y15052D1*
X5291Y15015D1*
X5236Y14983D1*
X5178Y14961D1*
X5116Y14948D1*
X5053Y14945D1*
X4991Y14952D1*
X4930Y14969D1*
X4873Y14996D1*
X4821Y15031D1*
X4775Y15075D1*
X4737Y15125D1*
X4707Y15180D1*
X4687Y15240D1*
X4676Y15302D1*
Y15364D1*
X4685Y15427D1*
X4704Y15487D1*
X4733Y15543D1*
X4770Y15593D1*
X4815Y15638D1*
X4866Y15674D1*
X4923Y15702D1*
X4983Y15720D1*
X5045Y15729D1*
X5108Y15727D1*
X5170Y15716D1*
X5229Y15694D1*
X5284Y15664D1*
X5334Y15625D1*
X5376Y15578D1*
X5411Y15526D1*
X5437Y15468D1*
X5453Y15408D1*
X5459Y15345D1*
Y15340D1*
X5788Y15213D1*
X5840Y15257D1*
X5894Y15289D1*
X5952Y15312D1*
X6014Y15326D1*
X6077Y15329D1*
X6123Y15326D1*
X6361Y15678D1*
X6316Y15634D1*
X6264Y15598D1*
X6207Y15571D1*
X6147Y15553D1*
X6085Y15545D1*
X6022Y15547D1*
X5960Y15560D1*
X5901Y15581D1*
X5846Y15613D1*
X5797Y15652D1*
X5755Y15699D1*
X5721Y15752D1*
X5696Y15809D1*
X5680Y15870D1*
X5675Y15933D1*
X5679Y15996D1*
X5693Y16057D1*
X5717Y16115D1*
X5750Y16169D1*
X5792Y16216D1*
X5840Y16257D1*
X5894Y16289D1*
X5952Y16312D1*
X6014Y16326D1*
X6077Y16329D1*
X6139Y16323D1*
X6200Y16306D1*
X6257Y16280D1*
X6310Y16245D1*
X6356Y16202D1*
X6394Y16153D1*
X6425Y16098D1*
X6438Y16063D1*
Y16812D1*
X6415Y16755D1*
X6381Y16702D1*
X6339Y16655D1*
X6291Y16615D1*
X6236Y16583D1*
X6178Y16561D1*
X6116Y16548D1*
X6053Y16545D1*
X5991Y16552D1*
X5930Y16569D1*
X5873Y16596D1*
X5821Y16631D1*
X5775Y16675D1*
X5737Y16725D1*
X5707Y16780D1*
X5687Y16840D1*
X5676Y16902D1*
X5675Y16928D1*
X5347Y17062D1*
X5458Y16306D2*
X5448Y16243D1*
X5428Y16184D1*
X5399Y16128D1*
X5361Y16078D1*
X5316Y16034D1*
X5264Y15998D1*
X5207Y15971D1*
X5147Y15953D1*
X5085Y15945D1*
X5022Y15947D1*
X4960Y15960D1*
X4901Y15981D1*
X4846Y16013D1*
X4797Y16052D1*
X4755Y16099D1*
X4721Y16152D1*
X4696Y16209D1*
X4680Y16270D1*
X4675Y16333D1*
X4679Y16396D1*
X4693Y16457D1*
X4717Y16515D1*
X4750Y16569D1*
X4792Y16616D1*
X4840Y16657D1*
X4894Y16689D1*
X4952Y16712D1*
X5014Y16726D1*
X5077Y16729D1*
X5139Y16723D1*
X5200Y16706D1*
X5257Y16680D1*
X5310Y16645D1*
X5356Y16602D1*
X5394Y16553D1*
X5425Y16498D1*
X5446Y16438D1*
X5457Y16377D1*
X5459Y16337D1*
X5458Y16306D1*
X5459Y14331D2*
X5455Y14281D1*
X5445Y14231D1*
X5428Y14184D1*
X5405Y14139D1*
X5377Y14097D1*
X5344Y14059D1*
X5306Y14026D1*
X5264Y13998D1*
X5219Y13975D1*
X5172Y13959D1*
X5122Y13949D1*
X5072Y13945D1*
X5022Y13947D1*
X4972Y13956D1*
X4924Y13972D1*
X4879Y13993D1*
X4836Y14020D1*
X4797Y14052D1*
X4763Y14089D1*
X4734Y14130D1*
X4710Y14174D1*
X4692Y14221D1*
X4680Y14270D1*
X4675Y14320D1*
X4676Y14371D1*
X4684Y14420D1*
X4697Y14469D1*
X4717Y14515D1*
X4743Y14558D1*
X4774Y14598D1*
X4810Y14633D1*
X4850Y14664D1*
X4894Y14689D1*
X4940Y14708D1*
X4989Y14721D1*
X5039Y14728D1*
X5089Y14729D1*
X5139Y14723D1*
X5188Y14710D1*
X5235Y14692D1*
X5279Y14667D1*
X5319Y14637D1*
X5356Y14602D1*
X5387Y14563D1*
X5414Y14520D1*
X5434Y14474D1*
X5449Y14426D1*
X5457Y14377D1*
X5459Y14331D1*
X5458Y13306D2*
X5448Y13243D1*
X5428Y13184D1*
X5399Y13128D1*
X5361Y13078D1*
X5316Y13034D1*
X5264Y12998D1*
X5207Y12971D1*
X5147Y12953D1*
X5085Y12945D1*
X5022Y12947D1*
X4960Y12960D1*
X4901Y12981D1*
X4846Y13013D1*
X4797Y13052D1*
X4755Y13099D1*
X4721Y13152D1*
X4696Y13209D1*
X4680Y13270D1*
X4675Y13333D1*
X4679Y13396D1*
X4693Y13457D1*
X4717Y13515D1*
X4750Y13569D1*
X4792Y13616D1*
X4840Y13657D1*
X4894Y13689D1*
X4952Y13712D1*
X5014Y13726D1*
X5077Y13729D1*
X5139Y13723D1*
X5200Y13706D1*
X5257Y13680D1*
X5310Y13645D1*
X5356Y13602D1*
X5394Y13553D1*
X5425Y13498D1*
X5446Y13438D1*
X5457Y13377D1*
X5459Y13337D1*
X5458Y13306D1*
X21458Y16906D2*
X21448Y16843D1*
X21428Y16784D1*
X21399Y16728D1*
X21361Y16678D1*
X21316Y16634D1*
X21264Y16598D1*
X21207Y16571D1*
X21147Y16553D1*
X21085Y16545D1*
X21022Y16547D1*
X20960Y16560D1*
X20901Y16581D1*
X20846Y16613D1*
X20797Y16652D1*
X20755Y16699D1*
X20721Y16752D1*
X20696Y16809D1*
X20680Y16870D1*
X20675Y16933D1*
X20679Y16996D1*
X20693Y17057D1*
X20717Y17115D1*
X20750Y17169D1*
X20792Y17216D1*
X20840Y17257D1*
X20894Y17289D1*
X20952Y17312D1*
X21014Y17326D1*
X21077Y17329D1*
X21139Y17323D1*
X21200Y17306D1*
X21257Y17280D1*
X21310Y17245D1*
X21356Y17202D1*
X21394Y17153D1*
X21425Y17098D1*
X21446Y17038D1*
X21457Y16977D1*
X21459Y16937D1*
X21458Y16906D1*
Y17906D2*
X21448Y17843D1*
X21428Y17784D1*
X21399Y17728D1*
X21361Y17678D1*
X21316Y17634D1*
X21264Y17598D1*
X21207Y17571D1*
X21147Y17553D1*
X21085Y17545D1*
X21022Y17547D1*
X20960Y17560D1*
X20901Y17581D1*
X20846Y17613D1*
X20797Y17652D1*
X20755Y17699D1*
X20721Y17752D1*
X20696Y17809D1*
X20680Y17870D1*
X20675Y17933D1*
X20679Y17996D1*
X20693Y18057D1*
X20717Y18115D1*
X20750Y18169D1*
X20792Y18216D1*
X20840Y18257D1*
X20894Y18289D1*
X20952Y18312D1*
X21014Y18326D1*
X21077Y18329D1*
X21139Y18323D1*
X21200Y18306D1*
X21257Y18280D1*
X21310Y18245D1*
X21356Y18202D1*
X21394Y18153D1*
X21425Y18098D1*
X21446Y18038D1*
X21457Y17977D1*
X21459Y17937D1*
X21458Y17906D1*
Y18906D2*
X21448Y18843D1*
X21428Y18784D1*
X21399Y18728D1*
X21361Y18678D1*
X21316Y18634D1*
X21264Y18598D1*
X21207Y18571D1*
X21147Y18553D1*
X21085Y18545D1*
X21022Y18547D1*
X20960Y18560D1*
X20901Y18581D1*
X20895Y18585D1*
X20638Y18329D1*
X20639Y18004D1*
Y16811D1*
X20635Y16780D1*
X20624Y16751D1*
X20602Y16721D1*
X19774Y15894D1*
X19771Y15854D1*
X19763Y15824D1*
X19750Y15795D1*
X19733Y15769D1*
X19711Y15746D1*
X19686Y15727D1*
X19658Y15713D1*
X19628Y15703D1*
X19597Y15699D1*
X19566Y15700D1*
X19535Y15706D1*
X19505Y15717D1*
X19478Y15733D1*
X19454Y15753D1*
X19434Y15777D1*
X19418Y15805D1*
X19407Y15834D1*
X19402Y15856D1*
X19327Y15782D1*
X19303Y15762D1*
X19274Y15750D1*
X19238Y15744D1*
X19207D1*
X19169Y15713D1*
X19141Y15698D1*
X19111Y15689D1*
X19080Y15685D1*
X19049D1*
X19018Y15692D1*
X18988Y15703D1*
X18961Y15719D1*
X18937Y15739D1*
X18917Y15763D1*
X18901Y15790D1*
X18890Y15820D1*
X18884Y15850D1*
X18883Y15882D1*
X18887Y15913D1*
X18897Y15943D1*
X18911Y15971D1*
X18930Y15996D1*
X18953Y16018D1*
X18979Y16035D1*
X19008Y16048D1*
X19038Y16056D1*
X19069Y16059D1*
X19101Y16056D1*
X19131Y16048D1*
X19160Y16035D1*
X19195Y16009D1*
X19359Y16173D1*
X19384Y16192D1*
X19412Y16205D1*
X19449Y16210D1*
X19534D1*
X20248Y16924D1*
X20247Y17091D1*
Y19244D1*
X20251Y19275D1*
X20262Y19305D1*
X20284Y19334D1*
X20715Y19765D1*
X20696Y19809D1*
X20680Y19870D1*
X20675Y19933D1*
X20679Y19996D1*
X20693Y20057D1*
X20717Y20115D1*
X20750Y20169D1*
X20792Y20216D1*
X20840Y20257D1*
X20894Y20289D1*
X20952Y20312D1*
X21014Y20326D1*
X21077Y20329D1*
X21139Y20323D1*
X21200Y20306D1*
X21257Y20280D1*
X21310Y20245D1*
X21356Y20202D1*
X21394Y20153D1*
X21425Y20098D1*
X21446Y20038D1*
X21457Y19977D1*
X21459Y19937D1*
X21454Y19874D1*
X21439Y19813D1*
X21415Y19755D1*
X21381Y19702D1*
X21339Y19655D1*
X21291Y19615D1*
X21236Y19583D1*
X21178Y19561D1*
X21116Y19548D1*
X21053Y19545D1*
X20991Y19552D1*
X20930Y19569D1*
X20895Y19585D1*
X20501Y19191D1*
Y18898D1*
Y18550D1*
X20715Y18765D1*
X20696Y18809D1*
X20680Y18870D1*
X20675Y18933D1*
X20679Y18996D1*
X20693Y19057D1*
X20717Y19115D1*
X20750Y19169D1*
X20792Y19216D1*
X20840Y19257D1*
X20894Y19289D1*
X20952Y19312D1*
X21014Y19326D1*
X21077Y19329D1*
X21139Y19323D1*
X21200Y19306D1*
X21257Y19280D1*
X21310Y19245D1*
X21356Y19202D1*
X21394Y19153D1*
X21425Y19098D1*
X21446Y19038D1*
X21457Y18977D1*
X21459Y18937D1*
X21458Y18906D1*
Y20906D2*
X21448Y20843D1*
X21428Y20784D1*
X21399Y20728D1*
X21361Y20678D1*
X21316Y20634D1*
X21264Y20598D1*
X21207Y20571D1*
X21147Y20553D1*
X21085Y20545D1*
X21022Y20547D1*
X20960Y20560D1*
X20901Y20581D1*
X20846Y20613D1*
X20797Y20652D1*
X20755Y20699D1*
X20721Y20752D1*
X20696Y20809D1*
X20680Y20870D1*
X20675Y20933D1*
X20679Y20996D1*
X20693Y21057D1*
X20717Y21115D1*
X20750Y21169D1*
X20792Y21216D1*
X20840Y21257D1*
X20894Y21289D1*
X20952Y21312D1*
X21014Y21326D1*
X21077Y21329D1*
X21139Y21323D1*
X21200Y21306D1*
X21257Y21280D1*
X21310Y21245D1*
X21356Y21202D1*
X21394Y21153D1*
X21425Y21098D1*
X21446Y21038D1*
X21457Y20977D1*
X21459Y20937D1*
X21458Y20906D1*
Y21906D2*
X21448Y21843D1*
X21428Y21784D1*
X21399Y21728D1*
X21361Y21678D1*
X21316Y21634D1*
X21264Y21598D1*
X21207Y21571D1*
X21147Y21553D1*
X21085Y21545D1*
X21022Y21547D1*
X20960Y21560D1*
X20901Y21581D1*
X20846Y21613D1*
X20797Y21652D1*
X20755Y21699D1*
X20721Y21752D1*
X20696Y21809D1*
X20680Y21870D1*
X20675Y21933D1*
X20679Y21996D1*
X20693Y22057D1*
X20717Y22115D1*
X20750Y22169D1*
X20792Y22216D1*
X20840Y22257D1*
X20894Y22289D1*
X20952Y22312D1*
X21014Y22326D1*
X21077Y22329D1*
X21139Y22323D1*
X21200Y22306D1*
X21257Y22280D1*
X21310Y22245D1*
X21356Y22202D1*
X21394Y22153D1*
X21425Y22098D1*
X21446Y22038D1*
X21457Y21977D1*
X21459Y21937D1*
X21458Y21906D1*
Y22906D2*
X21448Y22843D1*
X21428Y22784D1*
X21399Y22728D1*
X21361Y22678D1*
X21316Y22634D1*
X21264Y22598D1*
X21207Y22571D1*
X21147Y22553D1*
X21085Y22545D1*
X21022Y22547D1*
X20960Y22560D1*
X20901Y22581D1*
X20846Y22613D1*
X20797Y22652D1*
X20755Y22699D1*
X20721Y22752D1*
X20696Y22809D1*
X20680Y22870D1*
X20675Y22933D1*
X20679Y22996D1*
X20693Y23057D1*
X20717Y23115D1*
X20750Y23169D1*
X20792Y23216D1*
X20840Y23257D1*
X20894Y23289D1*
X20952Y23312D1*
X21014Y23326D1*
X21077Y23329D1*
X21139Y23323D1*
X21200Y23306D1*
X21257Y23280D1*
X21310Y23245D1*
X21356Y23202D1*
X21394Y23153D1*
X21425Y23098D1*
X21446Y23038D1*
X21457Y22977D1*
X21459Y22937D1*
X21458Y22906D1*
Y13906D2*
X21448Y13843D1*
X21428Y13784D1*
X21399Y13728D1*
X21361Y13678D1*
X21316Y13634D1*
X21264Y13598D1*
X21207Y13571D1*
X21147Y13553D1*
X21085Y13545D1*
X21022Y13547D1*
X20960Y13560D1*
X20901Y13581D1*
X20846Y13613D1*
X20797Y13652D1*
X20755Y13699D1*
X20721Y13752D1*
X20696Y13809D1*
X20680Y13870D1*
X20675Y13933D1*
X20679Y13996D1*
X20693Y14057D1*
X20717Y14115D1*
X20750Y14169D1*
X20792Y14216D1*
X20840Y14257D1*
X20894Y14289D1*
X20952Y14312D1*
X21014Y14326D1*
X21077Y14329D1*
X21139Y14323D1*
X21200Y14306D1*
X21257Y14280D1*
X21310Y14245D1*
X21356Y14202D1*
X21394Y14153D1*
X21425Y14098D1*
X21446Y14038D1*
X21457Y13977D1*
X21459Y13937D1*
X21458Y13906D1*
Y14906D2*
X21448Y14843D1*
X21428Y14784D1*
X21399Y14728D1*
X21361Y14678D1*
X21316Y14634D1*
X21264Y14598D1*
X21207Y14571D1*
X21147Y14553D1*
X21085Y14545D1*
X21022Y14547D1*
X20960Y14560D1*
X20901Y14581D1*
X20846Y14613D1*
X20797Y14652D1*
X20755Y14699D1*
X20721Y14752D1*
X20696Y14809D1*
X20680Y14870D1*
X20675Y14933D1*
X20679Y14996D1*
X20693Y15057D1*
X20717Y15115D1*
X20750Y15169D1*
X20792Y15216D1*
X20840Y15257D1*
X20894Y15289D1*
X20952Y15312D1*
X21014Y15326D1*
X21077Y15329D1*
X21139Y15323D1*
X21200Y15306D1*
X21257Y15280D1*
X21310Y15245D1*
X21356Y15202D1*
X21394Y15153D1*
X21425Y15098D1*
X21446Y15038D1*
X21457Y14977D1*
X21459Y14937D1*
X21458Y14906D1*
X22459Y16931D2*
X22455Y16881D1*
X22445Y16831D1*
X22428Y16784D1*
X22405Y16739D1*
X22377Y16697D1*
X22344Y16659D1*
X22306Y16626D1*
X22264Y16598D1*
X22219Y16575D1*
X22172Y16559D1*
X22122Y16549D1*
X22072Y16545D1*
X22022Y16547D1*
X21972Y16556D1*
X21924Y16572D1*
X21879Y16593D1*
X21836Y16620D1*
X21797Y16652D1*
X21763Y16689D1*
X21734Y16730D1*
X21710Y16774D1*
X21692Y16821D1*
X21680Y16870D1*
X21675Y16920D1*
X21676Y16971D1*
X21684Y17020D1*
X21697Y17069D1*
X21717Y17115D1*
X21743Y17158D1*
X21774Y17198D1*
X21810Y17233D1*
X21850Y17264D1*
X21894Y17289D1*
X21940Y17308D1*
X21989Y17321D1*
X22039Y17328D1*
X22089Y17329D1*
X22139Y17323D1*
X22188Y17310D1*
X22235Y17292D1*
X22279Y17267D1*
X22319Y17237D1*
X22356Y17202D1*
X22387Y17163D1*
X22414Y17120D1*
X22434Y17074D1*
X22449Y17026D1*
X22457Y16977D1*
X22459Y16931D1*
Y17931D2*
X22455Y17881D1*
X22445Y17831D1*
X22428Y17784D1*
X22405Y17739D1*
X22377Y17697D1*
X22344Y17659D1*
X22306Y17626D1*
X22264Y17598D1*
X22219Y17575D1*
X22172Y17559D1*
X22122Y17549D1*
X22072Y17545D1*
X22022Y17547D1*
X21972Y17556D1*
X21924Y17572D1*
X21879Y17593D1*
X21836Y17620D1*
X21797Y17652D1*
X21763Y17689D1*
X21734Y17730D1*
X21710Y17774D1*
X21692Y17821D1*
X21680Y17870D1*
X21675Y17920D1*
X21676Y17971D1*
X21684Y18020D1*
X21697Y18069D1*
X21717Y18115D1*
X21743Y18158D1*
X21774Y18198D1*
X21810Y18233D1*
X21850Y18264D1*
X21894Y18289D1*
X21940Y18308D1*
X21989Y18321D1*
X22039Y18328D1*
X22089Y18329D1*
X22139Y18323D1*
X22188Y18310D1*
X22235Y18292D1*
X22279Y18267D1*
X22319Y18237D1*
X22356Y18202D1*
X22387Y18163D1*
X22414Y18120D1*
X22434Y18074D1*
X22449Y18026D1*
X22457Y17977D1*
X22459Y17931D1*
Y18931D2*
X22455Y18881D1*
X22445Y18831D1*
X22428Y18784D1*
X22405Y18739D1*
X22377Y18697D1*
X22344Y18659D1*
X22306Y18626D1*
X22264Y18598D1*
X22219Y18575D1*
X22172Y18559D1*
X22122Y18549D1*
X22072Y18545D1*
X22022Y18547D1*
X21972Y18556D1*
X21924Y18572D1*
X21879Y18593D1*
X21836Y18620D1*
X21797Y18652D1*
X21763Y18689D1*
X21734Y18730D1*
X21710Y18774D1*
X21692Y18821D1*
X21680Y18870D1*
X21675Y18920D1*
X21676Y18971D1*
X21684Y19020D1*
X21697Y19069D1*
X21717Y19115D1*
X21743Y19158D1*
X21774Y19198D1*
X21810Y19233D1*
X21850Y19264D1*
X21894Y19289D1*
X21940Y19308D1*
X21989Y19321D1*
X22039Y19328D1*
X22089Y19329D1*
X22139Y19323D1*
X22188Y19310D1*
X22235Y19292D1*
X22279Y19267D1*
X22319Y19237D1*
X22356Y19202D1*
X22387Y19163D1*
X22414Y19120D1*
X22434Y19074D1*
X22449Y19026D1*
X22457Y18977D1*
X22459Y18931D1*
Y19931D2*
X22455Y19881D1*
X22445Y19831D1*
X22428Y19784D1*
X22405Y19739D1*
X22377Y19697D1*
X22344Y19659D1*
X22306Y19626D1*
X22264Y19598D1*
X22219Y19575D1*
X22172Y19559D1*
X22122Y19549D1*
X22072Y19545D1*
X22022Y19547D1*
X21972Y19556D1*
X21924Y19572D1*
X21879Y19593D1*
X21836Y19620D1*
X21797Y19652D1*
X21763Y19689D1*
X21734Y19730D1*
X21710Y19774D1*
X21692Y19821D1*
X21680Y19870D1*
X21675Y19920D1*
X21676Y19971D1*
X21684Y20020D1*
X21697Y20069D1*
X21717Y20115D1*
X21743Y20158D1*
X21774Y20198D1*
X21810Y20233D1*
X21850Y20264D1*
X21894Y20289D1*
X21940Y20308D1*
X21989Y20321D1*
X22039Y20328D1*
X22089Y20329D1*
X22139Y20323D1*
X22188Y20310D1*
X22235Y20292D1*
X22279Y20267D1*
X22319Y20237D1*
X22356Y20202D1*
X22387Y20163D1*
X22414Y20120D1*
X22434Y20074D1*
X22449Y20026D1*
X22457Y19977D1*
X22459Y19931D1*
Y20931D2*
X22455Y20881D1*
X22445Y20831D1*
X22428Y20784D1*
X22405Y20739D1*
X22377Y20697D1*
X22344Y20659D1*
X22306Y20626D1*
X22264Y20598D1*
X22219Y20575D1*
X22172Y20559D1*
X22122Y20549D1*
X22072Y20545D1*
X22022Y20547D1*
X21972Y20556D1*
X21924Y20572D1*
X21879Y20593D1*
X21836Y20620D1*
X21797Y20652D1*
X21763Y20689D1*
X21734Y20730D1*
X21710Y20774D1*
X21692Y20821D1*
X21680Y20870D1*
X21675Y20920D1*
X21676Y20971D1*
X21684Y21020D1*
X21697Y21069D1*
X21717Y21115D1*
X21743Y21158D1*
X21774Y21198D1*
X21810Y21233D1*
X21850Y21264D1*
X21894Y21289D1*
X21940Y21308D1*
X21989Y21321D1*
X22039Y21328D1*
X22089Y21329D1*
X22139Y21323D1*
X22188Y21310D1*
X22235Y21292D1*
X22279Y21267D1*
X22319Y21237D1*
X22356Y21202D1*
X22387Y21163D1*
X22414Y21120D1*
X22434Y21074D1*
X22449Y21026D1*
X22457Y20977D1*
X22459Y20931D1*
Y21931D2*
X22455Y21881D1*
X22445Y21831D1*
X22428Y21784D1*
X22405Y21739D1*
X22377Y21697D1*
X22344Y21659D1*
X22306Y21626D1*
X22264Y21598D1*
X22219Y21575D1*
X22172Y21559D1*
X22122Y21549D1*
X22072Y21545D1*
X22022Y21547D1*
X21972Y21556D1*
X21924Y21572D1*
X21879Y21593D1*
X21836Y21620D1*
X21797Y21652D1*
X21763Y21689D1*
X21734Y21730D1*
X21710Y21774D1*
X21692Y21821D1*
X21680Y21870D1*
X21675Y21920D1*
X21676Y21971D1*
X21684Y22020D1*
X21697Y22069D1*
X21717Y22115D1*
X21743Y22158D1*
X21774Y22198D1*
X21810Y22233D1*
X21850Y22264D1*
X21894Y22289D1*
X21940Y22308D1*
X21989Y22321D1*
X22039Y22328D1*
X22089Y22329D1*
X22139Y22323D1*
X22188Y22310D1*
X22235Y22292D1*
X22279Y22267D1*
X22319Y22237D1*
X22356Y22202D1*
X22387Y22163D1*
X22414Y22120D1*
X22434Y22074D1*
X22449Y22026D1*
X22457Y21977D1*
X22459Y21931D1*
X22458Y22906D2*
X22448Y22843D1*
X22428Y22784D1*
X22399Y22728D1*
X22361Y22678D1*
X22316Y22634D1*
X22264Y22598D1*
X22207Y22571D1*
X22147Y22553D1*
X22085Y22545D1*
X22022Y22547D1*
X21960Y22560D1*
X21901Y22581D1*
X21846Y22613D1*
X21797Y22652D1*
X21755Y22699D1*
X21721Y22752D1*
X21696Y22809D1*
X21680Y22870D1*
X21675Y22933D1*
X21679Y22996D1*
X21693Y23057D1*
X21717Y23115D1*
X21750Y23169D1*
X21792Y23216D1*
X21840Y23257D1*
X21894Y23289D1*
X21952Y23312D1*
X22014Y23326D1*
X22077Y23329D1*
X22139Y23323D1*
X22200Y23306D1*
X22257Y23280D1*
X22310Y23245D1*
X22356Y23202D1*
X22394Y23153D1*
X22425Y23098D1*
X22446Y23038D1*
X22457Y22977D1*
X22459Y22937D1*
X22458Y22906D1*
X22459Y13931D2*
X22455Y13881D1*
X22445Y13831D1*
X22428Y13784D1*
X22405Y13739D1*
X22377Y13697D1*
X22344Y13659D1*
X22306Y13626D1*
X22264Y13598D1*
X22219Y13575D1*
X22172Y13559D1*
X22122Y13549D1*
X22072Y13545D1*
X22022Y13547D1*
X21972Y13556D1*
X21924Y13572D1*
X21879Y13593D1*
X21836Y13620D1*
X21797Y13652D1*
X21763Y13689D1*
X21734Y13730D1*
X21710Y13774D1*
X21692Y13821D1*
X21680Y13870D1*
X21675Y13920D1*
X21676Y13971D1*
X21684Y14020D1*
X21697Y14069D1*
X21717Y14115D1*
X21743Y14158D1*
X21774Y14198D1*
X21810Y14233D1*
X21850Y14264D1*
X21894Y14289D1*
X21940Y14308D1*
X21989Y14321D1*
X22039Y14328D1*
X22089Y14329D1*
X22139Y14323D1*
X22188Y14310D1*
X22235Y14292D1*
X22279Y14267D1*
X22319Y14237D1*
X22356Y14202D1*
X22387Y14163D1*
X22414Y14120D1*
X22434Y14074D1*
X22449Y14026D1*
X22457Y13977D1*
X22459Y13931D1*
Y14931D2*
X22455Y14881D1*
X22445Y14831D1*
X22428Y14784D1*
X22405Y14739D1*
X22377Y14697D1*
X22344Y14659D1*
X22306Y14626D1*
X22264Y14598D1*
X22219Y14575D1*
X22172Y14559D1*
X22122Y14549D1*
X22072Y14545D1*
X22022Y14547D1*
X21972Y14556D1*
X21924Y14572D1*
X21879Y14593D1*
X21836Y14620D1*
X21797Y14652D1*
X21763Y14689D1*
X21734Y14730D1*
X21710Y14774D1*
X21692Y14821D1*
X21680Y14870D1*
X21675Y14920D1*
X21676Y14971D1*
X21684Y15020D1*
X21697Y15069D1*
X21717Y15115D1*
X21743Y15158D1*
X21774Y15198D1*
X21810Y15233D1*
X21850Y15264D1*
X21894Y15289D1*
X21940Y15308D1*
X21989Y15321D1*
X22039Y15328D1*
X22089Y15329D1*
X22139Y15323D1*
X22188Y15310D1*
X22235Y15292D1*
X22279Y15267D1*
X22319Y15237D1*
X22356Y15202D1*
X22387Y15163D1*
X22414Y15120D1*
X22434Y15074D1*
X22449Y15026D1*
X22457Y14977D1*
X22459Y14931D1*
X7393Y21719D2*
X7361Y21678D1*
X7316Y21634D1*
X7264Y21598D1*
X7207Y21571D1*
X7147Y21553D1*
X7085Y21545D1*
X7022Y21547D1*
X6960Y21560D1*
X6901Y21581D1*
X6846Y21613D1*
X6797Y21652D1*
X6755Y21699D1*
X6721Y21752D1*
X6696Y21809D1*
X6682Y21862D1*
Y21686D1*
X7393Y20976D1*
Y21370D1*
Y21718D1*
X15351Y10480D2*
X15340Y10419D1*
X15316Y10360D1*
X15283Y10307D1*
X15239Y10261D1*
X15188Y10224D1*
X15131Y10198D1*
X15070Y10182D1*
X15008Y10179D1*
X14945Y10187D1*
X14886Y10207D1*
X14831Y10237D1*
X14782Y10278D1*
X14743Y10327D1*
X14713Y10382D1*
X14694Y10442D1*
X14687Y10504D1*
X14691Y10567D1*
X14707Y10628D1*
X14735Y10684D1*
X14772Y10735D1*
X14819Y10777D1*
X14872Y10811D1*
X14931Y10833D1*
X14993Y10844D1*
X15056Y10843D1*
X15117Y10830D1*
X15175Y10806D1*
X15228Y10772D1*
X15273Y10728D1*
X15309Y10677D1*
X15335Y10619D1*
X15350Y10558D1*
X15353Y10512D1*
X15351Y10480D1*
Y9457D2*
X15340Y9395D1*
X15316Y9337D1*
X15283Y9283D1*
X15239Y9238D1*
X15188Y9201D1*
X15131Y9174D1*
X15070Y9159D1*
X15008Y9155D1*
X14945Y9163D1*
X14886Y9183D1*
X14831Y9214D1*
X14782Y9254D1*
X14743Y9303D1*
X14713Y9358D1*
X14694Y9418D1*
X14687Y9481D1*
X14691Y9543D1*
X14707Y9604D1*
X14735Y9661D1*
X14772Y9711D1*
X14819Y9754D1*
X14872Y9787D1*
X14931Y9809D1*
X14993Y9820D1*
X15056Y9819D1*
X15117Y9807D1*
X15175Y9783D1*
X15228Y9748D1*
X15273Y9705D1*
X15309Y9653D1*
X15335Y9596D1*
X15350Y9535D1*
X15353Y9488D1*
X15351Y9457D1*
X15353Y7809D2*
X15349Y7765D1*
X15340Y7722D1*
X15325Y7680D1*
X15304Y7641D1*
X15279Y7605D1*
X15249Y7573D1*
X15215Y7545D1*
X15177Y7521D1*
X15137Y7503D1*
X15095Y7490D1*
X15052Y7483D1*
X15008Y7482D1*
X14964Y7486D1*
X14921Y7497D1*
X14880Y7512D1*
X14841Y7534D1*
X14806Y7560D1*
X14774Y7590D1*
X14746Y7624D1*
X14724Y7662D1*
X14706Y7703D1*
X14694Y7745D1*
X14688Y7789D1*
X14687Y7833D1*
X14692Y7876D1*
X14703Y7919D1*
X14720Y7960D1*
X14741Y7998D1*
X14768Y8033D1*
X14799Y8065D1*
X14834Y8092D1*
X14872Y8114D1*
X14913Y8131D1*
X14955Y8142D1*
X14999Y8148D1*
X15043Y8147D1*
X15087Y8141D1*
X15129Y8130D1*
X15170Y8112D1*
X15208Y8090D1*
X15242Y8063D1*
X15273Y8031D1*
X15299Y7996D1*
X15321Y7957D1*
X15337Y7917D1*
X15348Y7874D1*
X15353Y7830D1*
Y7809D1*
X13895Y7272D2*
X13883Y7210D1*
X13860Y7151D1*
X13826Y7098D1*
X13783Y7053D1*
X13732Y7016D1*
X13675Y6989D1*
X13614Y6974D1*
X13551Y6970D1*
X13489Y6978D1*
X13429Y6998D1*
X13374Y7029D1*
X13326Y7069D1*
X13286Y7118D1*
X13256Y7173D1*
X13237Y7233D1*
X13230Y7296D1*
X13234Y7358D1*
X13251Y7419D1*
X13278Y7476D1*
X13315Y7526D1*
X13362Y7569D1*
X13415Y7602D1*
X13474Y7624D1*
X13536Y7635D1*
X13599Y7634D1*
X13661Y7622D1*
X13719Y7598D1*
X13771Y7563D1*
X13816Y7520D1*
X13853Y7468D1*
X13878Y7411D1*
X13893Y7349D1*
X13896Y7303D1*
X13895Y7272D1*
X12753D2*
X12741Y7210D1*
X12718Y7151D1*
X12684Y7098D1*
X12641Y7053D1*
X12590Y7016D1*
X12533Y6989D1*
X12472Y6974D1*
X12409Y6970D1*
X12347Y6978D1*
X12287Y6998D1*
X12232Y7029D1*
X12184Y7069D1*
X12144Y7118D1*
X12114Y7173D1*
X12095Y7233D1*
X12088Y7296D1*
X12093Y7358D1*
X12109Y7419D1*
X12136Y7476D1*
X12174Y7526D1*
X12220Y7569D1*
X12274Y7602D1*
X12332Y7624D1*
X12394Y7635D1*
X12457Y7634D1*
X12519Y7622D1*
X12577Y7598D1*
X12630Y7563D1*
X12675Y7520D1*
X12711Y7468D1*
X12737Y7411D1*
X12751Y7349D1*
X12754Y7303D1*
X12753Y7272D1*
X11611D2*
X11599Y7210D1*
X11576Y7151D1*
X11542Y7098D1*
X11499Y7053D1*
X11448Y7016D1*
X11391Y6989D1*
X11330Y6974D1*
X11268Y6970D1*
X11205Y6978D1*
X11145Y6998D1*
X11091Y7029D1*
X11042Y7069D1*
X11003Y7118D1*
X10973Y7173D1*
X10954Y7233D1*
X10946Y7296D1*
X10951Y7358D1*
X10967Y7419D1*
X10995Y7476D1*
X11032Y7526D1*
X11078Y7569D1*
X11132Y7602D1*
X11191Y7624D1*
X11253Y7635D1*
X11315Y7634D1*
X11377Y7622D1*
X11435Y7598D1*
X11488Y7563D1*
X11533Y7520D1*
X11569Y7468D1*
X11595Y7411D1*
X11610Y7349D1*
X11613Y7303D1*
X11611Y7272D1*
X10176Y7809D2*
X10172Y7765D1*
X10162Y7722D1*
X10147Y7680D1*
X10127Y7641D1*
X10102Y7605D1*
X10072Y7573D1*
X10038Y7545D1*
X10000Y7521D1*
X9960Y7503D1*
X9918Y7490D1*
X9875Y7483D1*
X9831Y7482D1*
X9787Y7486D1*
X9744Y7497D1*
X9703Y7512D1*
X9664Y7534D1*
X9628Y7560D1*
X9597Y7590D1*
X9569Y7624D1*
X9546Y7662D1*
X9529Y7703D1*
X9517Y7745D1*
X9510Y7789D1*
Y7833D1*
X9515Y7876D1*
X9526Y7919D1*
X9542Y7960D1*
X9564Y7998D1*
X9591Y8033D1*
X9622Y8065D1*
X9657Y8092D1*
X9695Y8114D1*
X9736Y8131D1*
X9778Y8142D1*
X9822Y8148D1*
X9866Y8147D1*
X9910Y8141D1*
X9952Y8130D1*
X9993Y8112D1*
X10031Y8090D1*
X10065Y8063D1*
X10096Y8031D1*
X10122Y7996D1*
X10144Y7957D1*
X10160Y7917D1*
X10171Y7874D1*
X10175Y7830D1*
X10176Y7809D1*
X18458Y27906D2*
X18448Y27843D1*
X18428Y27784D1*
X18399Y27728D1*
X18361Y27678D1*
X18316Y27634D1*
X18264Y27598D1*
X18207Y27571D1*
X18147Y27553D1*
X18085Y27545D1*
X18022Y27547D1*
X17960Y27560D1*
X17901Y27581D1*
X17846Y27613D1*
X17797Y27652D1*
X17755Y27699D1*
X17721Y27752D1*
X17696Y27809D1*
X17680Y27870D1*
X17675Y27933D1*
X17679Y27996D1*
X17693Y28057D1*
X17717Y28115D1*
X17750Y28169D1*
X17792Y28216D1*
X17840Y28257D1*
X17894Y28289D1*
X17952Y28312D1*
X18014Y28326D1*
X18077Y28329D1*
X18139Y28323D1*
X18200Y28306D1*
X18257Y28280D1*
X18310Y28245D1*
X18356Y28202D1*
X18394Y28153D1*
X18425Y28098D1*
X18446Y28038D1*
X18457Y27977D1*
X18459Y27937D1*
X18458Y27906D1*
X10174Y9457D2*
X10162Y9395D1*
X10139Y9337D1*
X10105Y9283D1*
X10062Y9238D1*
X10011Y9201D1*
X9954Y9174D1*
X9893Y9159D1*
X9831Y9155D1*
X9768Y9163D1*
X9708Y9183D1*
X9654Y9214D1*
X9605Y9254D1*
X9566Y9303D1*
X9536Y9358D1*
X9517Y9418D1*
X9509Y9481D1*
X9514Y9543D1*
X9530Y9604D1*
X9557Y9661D1*
X9595Y9711D1*
X9641Y9754D1*
X9695Y9787D1*
X9754Y9809D1*
X9816Y9820D1*
X9878Y9819D1*
X9940Y9807D1*
X9998Y9783D1*
X10051Y9748D1*
X10096Y9705D1*
X10132Y9653D1*
X10158Y9596D1*
X10173Y9535D1*
X10176Y9488D1*
X10174Y9457D1*
X18458Y28906D2*
X18448Y28843D1*
X18428Y28784D1*
X18399Y28728D1*
X18361Y28678D1*
X18316Y28634D1*
X18264Y28598D1*
X18207Y28571D1*
X18147Y28553D1*
X18085Y28545D1*
X18022Y28547D1*
X17960Y28560D1*
X17901Y28581D1*
X17846Y28613D1*
X17797Y28652D1*
X17755Y28699D1*
X17721Y28752D1*
X17696Y28809D1*
X17680Y28870D1*
X17675Y28933D1*
X17679Y28996D1*
X17693Y29057D1*
X17717Y29115D1*
X17750Y29169D1*
X17792Y29216D1*
X17840Y29257D1*
X17894Y29289D1*
X17952Y29312D1*
X18014Y29326D1*
X18077Y29329D1*
X18139Y29323D1*
X18200Y29306D1*
X18257Y29280D1*
X18310Y29245D1*
X18356Y29202D1*
X18394Y29153D1*
X18425Y29098D1*
X18446Y29038D1*
X18457Y28977D1*
X18459Y28937D1*
X18458Y28906D1*
X10174Y10480D2*
X10162Y10419D1*
X10139Y10360D1*
X10105Y10307D1*
X10062Y10261D1*
X10011Y10224D1*
X9954Y10198D1*
X9893Y10182D1*
X9831Y10179D1*
X9768Y10187D1*
X9708Y10207D1*
X9654Y10237D1*
X9605Y10278D1*
X9566Y10327D1*
X9536Y10382D1*
X9517Y10442D1*
X9509Y10504D1*
X9514Y10567D1*
X9530Y10628D1*
X9557Y10684D1*
X9595Y10735D1*
X9641Y10777D1*
X9695Y10811D1*
X9754Y10833D1*
X9816Y10844D1*
X9878Y10843D1*
X9940Y10830D1*
X9998Y10806D1*
X10051Y10772D1*
X10096Y10728D1*
X10132Y10677D1*
X10158Y10619D1*
X10173Y10558D1*
X10176Y10512D1*
X10174Y10480D1*
X21458Y27906D2*
X21448Y27843D1*
X21428Y27784D1*
X21399Y27728D1*
X21361Y27678D1*
X21316Y27634D1*
X21264Y27598D1*
X21207Y27571D1*
X21147Y27553D1*
X21085Y27545D1*
X21022Y27547D1*
X20960Y27560D1*
X20901Y27581D1*
X20846Y27613D1*
X20797Y27652D1*
X20755Y27699D1*
X20721Y27752D1*
X20696Y27809D1*
X20680Y27870D1*
X20675Y27933D1*
X20679Y27996D1*
X20693Y28057D1*
X20717Y28115D1*
X20750Y28169D1*
X20792Y28216D1*
X20840Y28257D1*
X20894Y28289D1*
X20952Y28312D1*
X21014Y28326D1*
X21077Y28329D1*
X21139Y28323D1*
X21200Y28306D1*
X21257Y28280D1*
X21310Y28245D1*
X21356Y28202D1*
X21394Y28153D1*
X21425Y28098D1*
X21446Y28038D1*
X21457Y27977D1*
X21459Y27937D1*
X21458Y27906D1*
X10174Y11504D2*
X10162Y11442D1*
X10139Y11384D1*
X10105Y11331D1*
X10062Y11285D1*
X10011Y11248D1*
X9954Y11222D1*
X9893Y11206D1*
X9831Y11202D1*
X9768Y11211D1*
X9708Y11230D1*
X9654Y11261D1*
X9605Y11301D1*
X9566Y11350D1*
X9536Y11405D1*
X9517Y11465D1*
X9509Y11528D1*
X9514Y11591D1*
X9530Y11651D1*
X9557Y11708D1*
X9595Y11759D1*
X9641Y11801D1*
X9695Y11834D1*
X9754Y11857D1*
X9816Y11868D1*
X9878Y11867D1*
X9940Y11854D1*
X9998Y11830D1*
X10051Y11796D1*
X10096Y11752D1*
X10132Y11700D1*
X10158Y11643D1*
X10173Y11582D1*
X10176Y11535D1*
X10174Y11504D1*
X21458Y28906D2*
X21448Y28843D1*
X21428Y28784D1*
X21399Y28728D1*
X21361Y28678D1*
X21316Y28634D1*
X21264Y28598D1*
X21207Y28571D1*
X21147Y28553D1*
X21085Y28545D1*
X21022Y28547D1*
X20960Y28560D1*
X20901Y28581D1*
X20846Y28613D1*
X20797Y28652D1*
X20755Y28699D1*
X20721Y28752D1*
X20696Y28809D1*
X20680Y28870D1*
X20675Y28933D1*
X20679Y28996D1*
X20693Y29057D1*
X20717Y29115D1*
X20750Y29169D1*
X20792Y29216D1*
X20840Y29257D1*
X20894Y29289D1*
X20952Y29312D1*
X21014Y29326D1*
X21077Y29329D1*
X21139Y29323D1*
X21200Y29306D1*
X21257Y29280D1*
X21310Y29245D1*
X21356Y29202D1*
X21394Y29153D1*
X21425Y29098D1*
X21446Y29038D1*
X21457Y28977D1*
X21459Y28937D1*
X21458Y28906D1*
X10176Y13242D2*
X10172Y13198D1*
X10162Y13155D1*
X10147Y13113D1*
X10127Y13074D1*
X10102Y13038D1*
X10072Y13006D1*
X10038Y12978D1*
X10000Y12955D1*
X9960Y12936D1*
X9918Y12923D1*
X9875Y12916D1*
X9831Y12915D1*
X9787Y12920D1*
X9744Y12930D1*
X9703Y12946D1*
X9664Y12967D1*
X9628Y12993D1*
X9597Y13023D1*
X9569Y13058D1*
X9546Y13095D1*
X9529Y13136D1*
X9517Y13178D1*
X9510Y13222D1*
Y13266D1*
X9515Y13309D1*
X9526Y13352D1*
X9542Y13393D1*
X9564Y13431D1*
X9591Y13466D1*
X9622Y13498D1*
X9657Y13525D1*
X9695Y13547D1*
X9736Y13564D1*
X9778Y13575D1*
X9822Y13581D1*
X9866Y13580D1*
X9910Y13574D1*
X9952Y13563D1*
X9993Y13546D1*
X10031Y13523D1*
X10065Y13496D1*
X10096Y13464D1*
X10122Y13429D1*
X10144Y13391D1*
X10160Y13350D1*
X10171Y13307D1*
X10175Y13263D1*
X10176Y13242D1*
X15351Y11504D2*
X15340Y11442D1*
X15316Y11384D1*
X15283Y11331D1*
X15239Y11285D1*
X15188Y11248D1*
X15131Y11222D1*
X15070Y11206D1*
X15008Y11202D1*
X14945Y11211D1*
X14886Y11230D1*
X14831Y11261D1*
X14782Y11301D1*
X14743Y11350D1*
X14713Y11405D1*
X14694Y11465D1*
X14687Y11528D1*
X14691Y11591D1*
X14707Y11651D1*
X14735Y11708D1*
X14772Y11759D1*
X14819Y11801D1*
X14872Y11834D1*
X14931Y11857D1*
X14993Y11868D1*
X15056Y11867D1*
X15117Y11854D1*
X15175Y11830D1*
X15228Y11796D1*
X15273Y11752D1*
X15309Y11700D1*
X15335Y11643D1*
X15350Y11582D1*
X15353Y11535D1*
X15351Y11504D1*
X21089Y10391D2*
X22107Y10020D1*
X22108Y10551D1*
X22113Y10582D1*
X22127Y10610D1*
X22150Y10631D1*
X22184Y10646D1*
X22236Y10648D1*
X22874D1*
X22905Y10643D1*
X22933Y10628D1*
X22954Y10606D1*
X22969Y10572D1*
X22971Y10520D1*
X22972Y9625D1*
X22957Y9575D1*
X22294Y7754D1*
X22279Y7727D1*
X22255Y7706D1*
X22227Y7693D1*
X22190Y7691D1*
X22140Y7707D1*
X20320Y8370D1*
X20293Y8385D1*
X20272Y8408D1*
X20259Y8437D1*
X20257Y8473D1*
X20273Y8524D1*
X20935Y10344D1*
X20951Y10371D1*
X20974Y10392D1*
X21003Y10405D1*
X21039Y10407D1*
X21089Y10391D1*
X13895Y13689D2*
X13883Y13627D1*
X13860Y13569D1*
X13826Y13516D1*
X13783Y13470D1*
X13732Y13433D1*
X13675Y13407D1*
X13614Y13391D1*
X13551Y13387D1*
X13489Y13396D1*
X13429Y13415D1*
X13374Y13446D1*
X13326Y13486D1*
X13286Y13535D1*
X13256Y13591D1*
X13237Y13651D1*
X13230Y13713D1*
X13234Y13776D1*
X13251Y13836D1*
X13278Y13893D1*
X13315Y13944D1*
X13362Y13986D1*
X13415Y14019D1*
X13474Y14042D1*
X13536Y14053D1*
X13599Y14052D1*
X13661Y14039D1*
X13719Y14015D1*
X13771Y13981D1*
X13816Y13937D1*
X13853Y13885D1*
X13878Y13828D1*
X13893Y13767D1*
X13896Y13720D1*
X13895Y13689D1*
X15353Y13242D2*
X15349Y13198D1*
X15340Y13155D1*
X15325Y13113D1*
X15304Y13074D1*
X15279Y13038D1*
X15249Y13006D1*
X15215Y12978D1*
X15177Y12955D1*
X15137Y12936D1*
X15095Y12923D1*
X15052Y12916D1*
X15008Y12915D1*
X14964Y12920D1*
X14921Y12930D1*
X14880Y12946D1*
X14841Y12967D1*
X14806Y12993D1*
X14774Y13023D1*
X14746Y13058D1*
X14724Y13095D1*
X14706Y13136D1*
X14694Y13178D1*
X14688Y13222D1*
X14687Y13266D1*
X14692Y13309D1*
X14703Y13352D1*
X14720Y13393D1*
X14741Y13431D1*
X14768Y13466D1*
X14799Y13498D1*
X14834Y13525D1*
X14872Y13547D1*
X14913Y13564D1*
X14955Y13575D1*
X14999Y13581D1*
X15043Y13580D1*
X15087Y13574D1*
X15129Y13563D1*
X15170Y13546D1*
X15208Y13523D1*
X15242Y13496D1*
X15273Y13464D1*
X15299Y13429D1*
X15321Y13391D1*
X15337Y13350D1*
X15348Y13307D1*
X15353Y13263D1*
Y13242D1*
X13266Y11017D2*
X13262Y10973D1*
X13253Y10930D1*
X13238Y10889D1*
X13217Y10850D1*
X13192Y10814D1*
X13162Y10782D1*
X13128Y10754D1*
X13091Y10730D1*
X13051Y10712D1*
X13009Y10699D1*
X12965Y10692D1*
X12921Y10691D1*
X12877Y10695D1*
X12834Y10705D1*
X12793Y10721D1*
X12755Y10742D1*
X12719Y10768D1*
X12687Y10799D1*
X12660Y10833D1*
X12637Y10871D1*
X12619Y10911D1*
X12607Y10954D1*
X12601Y10997D1*
X12600Y11041D1*
X12606Y11085D1*
X12617Y11128D1*
X12633Y11169D1*
X12655Y11207D1*
X12681Y11242D1*
X12712Y11273D1*
X12747Y11300D1*
X12785Y11322D1*
X12826Y11339D1*
X12869Y11351D1*
X12912Y11356D1*
X12956D1*
X13000Y11350D1*
X13043Y11338D1*
X13083Y11321D1*
X13121Y11299D1*
X13156Y11272D1*
X13187Y11240D1*
X13213Y11205D1*
X13234Y11166D1*
X13250Y11125D1*
X13261Y11082D1*
X13266Y11039D1*
Y11017D1*
X12243Y9994D2*
X12239Y9950D1*
X12229Y9907D1*
X12214Y9865D1*
X12194Y9826D1*
X12168Y9790D1*
X12139Y9758D1*
X12105Y9730D1*
X12067Y9706D1*
X12027Y9688D1*
X11985Y9675D1*
X11941Y9668D1*
X11897Y9667D1*
X11854Y9671D1*
X11811Y9682D1*
X11770Y9698D1*
X11731Y9719D1*
X11695Y9745D1*
X11664Y9775D1*
X11636Y9810D1*
X11613Y9847D1*
X11596Y9888D1*
X11584Y9930D1*
X11577Y9974D1*
Y10018D1*
X11582Y10061D1*
X11593Y10104D1*
X11609Y10145D1*
X11631Y10183D1*
X11658Y10218D1*
X11689Y10250D1*
X11724Y10277D1*
X11762Y10299D1*
X11802Y10316D1*
X11845Y10327D1*
X11889Y10333D1*
X11933Y10332D1*
X11976Y10326D1*
X12019Y10315D1*
X12060Y10298D1*
X12097Y10275D1*
X12132Y10248D1*
X12163Y10216D1*
X12189Y10181D1*
X12211Y10143D1*
X12227Y10102D1*
X12237Y10059D1*
X12242Y10015D1*
X12243Y9994D1*
Y11017D2*
X12239Y10973D1*
X12229Y10930D1*
X12214Y10889D1*
X12194Y10850D1*
X12168Y10814D1*
X12139Y10782D1*
X12105Y10754D1*
X12067Y10730D1*
X12027Y10712D1*
X11985Y10699D1*
X11941Y10692D1*
X11897Y10691D1*
X11854Y10695D1*
X11811Y10705D1*
X11770Y10721D1*
X11731Y10742D1*
X11695Y10768D1*
X11664Y10799D1*
X11636Y10833D1*
X11613Y10871D1*
X11596Y10911D1*
X11584Y10954D1*
X11577Y10997D1*
Y11041D1*
X11582Y11085D1*
X11593Y11128D1*
X11609Y11169D1*
X11631Y11207D1*
X11658Y11242D1*
X11689Y11273D1*
X11724Y11300D1*
X11762Y11322D1*
X11802Y11339D1*
X11845Y11351D1*
X11889Y11356D1*
X11933D1*
X11976Y11350D1*
X12019Y11338D1*
X12060Y11321D1*
X12097Y11299D1*
X12132Y11272D1*
X12163Y11240D1*
X12189Y11205D1*
X12211Y11166D1*
X12227Y11125D1*
X12237Y11082D1*
X12242Y11039D1*
X12243Y11017D1*
X13266Y9994D2*
X13262Y9950D1*
X13253Y9907D1*
X13238Y9865D1*
X13217Y9826D1*
X13192Y9790D1*
X13162Y9758D1*
X13128Y9730D1*
X13091Y9706D1*
X13051Y9688D1*
X13009Y9675D1*
X12965Y9668D1*
X12921Y9667D1*
X12877Y9671D1*
X12834Y9682D1*
X12793Y9698D1*
X12755Y9719D1*
X12719Y9745D1*
X12687Y9775D1*
X12660Y9810D1*
X12637Y9847D1*
X12619Y9888D1*
X12607Y9930D1*
X12601Y9974D1*
X12600Y10018D1*
X12606Y10061D1*
X12617Y10104D1*
X12633Y10145D1*
X12655Y10183D1*
X12681Y10218D1*
X12712Y10250D1*
X12747Y10277D1*
X12785Y10299D1*
X12826Y10316D1*
X12869Y10327D1*
X12912Y10333D1*
X12956Y10332D1*
X13000Y10326D1*
X13043Y10315D1*
X13083Y10298D1*
X13121Y10275D1*
X13156Y10248D1*
X13187Y10216D1*
X13213Y10181D1*
X13234Y10143D1*
X13250Y10102D1*
X13261Y10059D1*
X13266Y10015D1*
Y9994D1*
X17578Y11257D2*
X17568Y11242D1*
X17546Y11219D1*
X17521Y11200D1*
X17493Y11185D1*
X17463Y11176D1*
X17432Y11171D1*
X17400Y11172D1*
X17369Y11178D1*
X17340Y11190D1*
X17313Y11206D1*
X17289Y11226D1*
X17269Y11250D1*
X17253Y11277D1*
X17241Y11306D1*
X17235Y11337D1*
X17234Y11369D1*
X17239Y11400D1*
X17248Y11430D1*
X17263Y11458D1*
X17282Y11483D1*
X17304Y11505D1*
X17331Y11522D1*
X17359Y11535D1*
X17390Y11543D1*
X17421Y11545D1*
X17453Y11543D1*
X17483Y11535D1*
X17512Y11522D1*
X17538Y11505D1*
X17561Y11483D1*
X17579Y11459D1*
X17597Y11483D1*
X17619Y11505D1*
X17646Y11522D1*
X17674Y11535D1*
X17705Y11543D1*
X17736Y11545D1*
X17767Y11543D1*
X17798Y11535D1*
X17827Y11522D1*
X17853Y11505D1*
X17876Y11483D1*
X17894Y11459D1*
X17912Y11483D1*
X17934Y11505D1*
X17961Y11522D1*
X17989Y11535D1*
X18020Y11543D1*
X18051Y11545D1*
X18082Y11543D1*
X18113Y11535D1*
X18142Y11522D1*
X18168Y11505D1*
X18191Y11483D1*
X18210Y11458D1*
X18224Y11430D1*
X18234Y11400D1*
X18238Y11358D1*
X18236Y11327D1*
X18228Y11296D1*
X18215Y11268D1*
X18198Y11242D1*
X18176Y11219D1*
X18151Y11200D1*
X18123Y11185D1*
X18093Y11176D1*
X18062Y11171D1*
X18030Y11172D1*
X17999Y11178D1*
X17970Y11190D1*
X17943Y11206D1*
X17919Y11226D1*
X17894Y11258D1*
X17883Y11242D1*
X17861Y11219D1*
X17836Y11200D1*
X17808Y11185D1*
X17778Y11176D1*
X17747Y11171D1*
X17715Y11172D1*
X17684Y11178D1*
X17655Y11190D1*
X17628Y11206D1*
X17604Y11226D1*
X17579Y11258D1*
X20659Y11305D2*
X20623Y11284D1*
X20593Y11274D1*
X20562Y11270D1*
X20530Y11271D1*
X20499Y11277D1*
X20470Y11288D1*
X20433Y11312D1*
X20415Y11298D1*
X20387Y11284D1*
X20357Y11274D1*
X20325Y11270D1*
X20294Y11271D1*
X20263Y11277D1*
X20234Y11288D1*
X20207Y11304D1*
X20183Y11324D1*
X20162Y11348D1*
X20146Y11375D1*
X20135Y11405D1*
X20129Y11436D1*
X20128Y11467D1*
X20132Y11498D1*
X20142Y11528D1*
X20156Y11556D1*
X20175Y11581D1*
X20198Y11603D1*
X20224Y11620D1*
X20253Y11633D1*
X20284Y11641D1*
X20315Y11644D1*
X20346Y11641D1*
X20377Y11633D1*
X20405Y11621D1*
X20434Y11601D1*
X20461Y11620D1*
X20489Y11633D1*
X20520Y11641D1*
X20551Y11644D1*
X20582Y11641D1*
X20613Y11633D1*
X20642Y11621D1*
X20659Y11609D1*
X20677Y11620D1*
X20706Y11633D1*
X20736Y11641D1*
X20768Y11644D1*
X20799Y11641D1*
X20829Y11633D1*
X20858Y11621D1*
X20884Y11603D1*
X20907Y11582D1*
X20926Y11556D1*
X20941Y11528D1*
X20950Y11498D1*
X20955Y11457D1*
X20952Y11425D1*
X20944Y11395D1*
X20932Y11366D1*
X20914Y11340D1*
X20892Y11317D1*
X20867Y11298D1*
X20839Y11284D1*
X20809Y11274D1*
X20778Y11270D1*
X20747Y11271D1*
X20716Y11277D1*
X20687Y11288D1*
X20659Y11305D1*
X22176Y12071D2*
X22152Y12045D1*
X22127Y12027D1*
X22099Y12012D1*
X22069Y12003D1*
X22038Y11998D1*
X22007Y11999D1*
X21976Y12005D1*
X21946Y12016D1*
X21919Y12032D1*
X21895Y12053D1*
X21875Y12077D1*
X21859Y12104D1*
X21848Y12133D1*
X21842Y12164D1*
X21841Y12195D1*
X21845Y12227D1*
X21855Y12257D1*
X21869Y12285D1*
X21888Y12310D1*
X21911Y12331D1*
X21937Y12349D1*
X21966Y12362D1*
X21996Y12370D1*
X22027Y12372D1*
X22059Y12370D1*
X22089Y12362D1*
X22118Y12349D1*
X22144Y12331D1*
X22175Y12300D1*
X22206Y12331D1*
X22232Y12349D1*
X22261Y12362D1*
X22291Y12370D1*
X22323Y12372D1*
X22354Y12370D1*
X22385Y12362D1*
X22413Y12349D1*
X22439Y12331D1*
X22462Y12310D1*
X22481Y12286D1*
X22498Y12310D1*
X22521Y12331D1*
X22547Y12349D1*
X22576Y12362D1*
X22606Y12370D1*
X22638Y12372D1*
X22669Y12370D1*
X22700Y12362D1*
X22728Y12349D1*
X22754Y12331D1*
X22777Y12310D1*
X22796Y12285D1*
X22811Y12257D1*
X22820Y12227D1*
X22825Y12185D1*
X22822Y12154D1*
X22814Y12123D1*
X22802Y12095D1*
X22784Y12068D1*
X22763Y12045D1*
X22737Y12027D1*
X22709Y12012D1*
X22679Y12003D1*
X22648Y11998D1*
X22617Y11999D1*
X22586Y12005D1*
X22557Y12016D1*
X22530Y12032D1*
X22505Y12053D1*
X22481Y12084D1*
X22469Y12068D1*
X22448Y12045D1*
X22422Y12027D1*
X22394Y12012D1*
X22365Y12003D1*
X22333Y11998D1*
X22302Y11999D1*
X22271Y12005D1*
X22242Y12016D1*
X22215Y12032D1*
X22191Y12053D1*
X22176Y12070D1*
X21877Y12626D2*
X21870Y12596D1*
X21857Y12567D1*
X21839Y12541D1*
X21818Y12518D1*
X21793Y12499D1*
X21765Y12485D1*
X21735Y12475D1*
X21703Y12471D1*
X21672D1*
X21641Y12478D1*
X21612Y12489D1*
X21585Y12505D1*
X21561Y12525D1*
X21540Y12549D1*
X21524Y12576D1*
X21513Y12606D1*
X21507Y12636D1*
X21506Y12668D1*
X21510Y12699D1*
X21520Y12729D1*
X21534Y12757D1*
X21553Y12782D1*
X21576Y12804D1*
X21602Y12821D1*
X21631Y12834D1*
X21661Y12842D1*
X21693Y12845D1*
X21724Y12842D1*
X21755Y12834D1*
X21783Y12821D1*
X21810Y12804D1*
X21832Y12782D1*
X21851Y12757D1*
X21866Y12729D1*
X21875Y12699D1*
X21880Y12657D1*
X21877Y12626D1*
X13374Y31307D2*
Y29238D1*
X12280D1*
Y31307D1*
X4126D1*
Y8890D1*
X8661D1*
X8688Y8874D1*
X8693Y8858D1*
Y6350D1*
X16929Y6331D1*
X16956Y6315D1*
X16961Y6299D1*
Y4126D1*
X25008D1*
Y31307D1*
X16854Y31306D1*
Y29238D1*
X15760D1*
Y31307D1*
X15201D1*
Y29272D1*
X15193Y29241D1*
X15172Y29219D1*
X15138Y29209D1*
X15043D1*
Y27303D1*
X15036Y27273D1*
X15014Y27250D1*
X14980Y27240D1*
X14154D1*
X14123Y27248D1*
X14101Y27269D1*
X14091Y27303D1*
Y29209D1*
X13996D1*
X13966Y29216D1*
X13943Y29238D1*
X13933Y29272D1*
Y31308D1*
X13827Y31307D1*
X13373D1*
X12705Y21202D2*
X12645D1*
X12627Y21173D1*
X12605Y21150D1*
X12580Y21131D1*
X12552Y21116D1*
X12522Y21107D1*
X12491Y21103D1*
X12459D1*
X12429Y21110D1*
X12399Y21121D1*
X12372Y21137D1*
X12348Y21157D1*
X12328Y21181D1*
X12312Y21208D1*
X12300Y21237D1*
X12294Y21268D1*
X12293Y21300D1*
X12298Y21331D1*
X12307Y21361D1*
X12322Y21389D1*
X12341Y21414D1*
X12364Y21436D1*
X12382Y21448D1*
X12349Y21461D1*
X12320Y21483D1*
X11973Y21829D1*
X11954Y21854D1*
X11941Y21883D1*
X11936Y21919D1*
Y22056D1*
X11833Y22158D1*
X11806D1*
X11775Y22165D1*
X11746Y22176D1*
X11719Y22192D1*
X11694Y22212D1*
X11674Y22236D1*
X11658Y22263D1*
X11647Y22293D1*
X11641Y22323D1*
X11640Y22355D1*
X11644Y22386D1*
X11656Y22420D1*
X11528Y22380D1*
X11505Y22344D1*
X11483Y22321D1*
X11458Y22302D1*
X11430Y22288D1*
X11400Y22278D1*
X11369Y22274D1*
X11337Y22275D1*
X11306Y22281D1*
X11277Y22292D1*
X11250Y22308D1*
X11226Y22328D1*
X11206Y22352D1*
X11190Y22379D1*
X11178Y22409D1*
X11172Y22440D1*
X11171Y22471D1*
X11176Y22502D1*
X11185Y22532D1*
X11200Y22560D1*
X11219Y22585D1*
X11241Y22607D1*
X11268Y22624D1*
X11296Y22637D1*
X11327Y22645D1*
X11358Y22648D1*
X11390Y22645D1*
X11420Y22637D1*
X11451Y22623D1*
X11621Y22676D1*
X11633Y22698D1*
X11652Y22723D1*
X11675Y22745D1*
X11696Y22759D1*
X11680Y22787D1*
X11669Y22816D1*
X11663Y22847D1*
X11662Y22878D1*
X11666Y22909D1*
X11676Y22939D1*
X11690Y22967D1*
X11709Y22992D1*
X11732Y23014D1*
X11758Y23032D1*
X11787Y23044D1*
X11817Y23052D1*
X11849Y23055D1*
X11880Y23052D1*
X11910Y23045D1*
X11939Y23032D1*
X11965Y23014D1*
X11988Y22993D1*
X12007Y22967D1*
X12022Y22940D1*
X12031Y22910D1*
X12036Y22868D1*
X12033Y22836D1*
X12025Y22806D1*
X12013Y22777D1*
X11995Y22751D1*
X11973Y22728D1*
X11944Y22707D1*
X11964Y22670D1*
X11974Y22640D1*
X11979Y22598D1*
X11976Y22567D1*
X11968Y22537D1*
X11955Y22508D1*
X11944Y22491D1*
X11966Y22469D1*
X11985Y22444D1*
X12000Y22416D1*
X12009Y22386D1*
X12014Y22344D1*
X12013Y22338D1*
X12153Y22198D1*
X12172Y22173D1*
X12185Y22145D1*
X12190Y22108D1*
Y21971D1*
X12463Y21699D1*
X13134Y21700D1*
X13240D1*
X13271Y21696D1*
X13301Y21685D1*
X13330Y21663D1*
X13438Y21555D1*
X13476Y21553D1*
X13507Y21545D1*
X13535Y21532D1*
X13561Y21515D1*
X13584Y21493D1*
X13603Y21468D1*
X13618Y21440D1*
X13627Y21410D1*
X13632Y21368D1*
X13629Y21337D1*
X13622Y21306D1*
X13609Y21278D1*
X13591Y21251D1*
X13570Y21229D1*
X13544Y21210D1*
X13517Y21195D1*
X13487Y21186D1*
X13455Y21181D1*
X13424Y21182D1*
X13393Y21188D1*
X13364Y21199D1*
X13337Y21215D1*
X13313Y21236D1*
X13292Y21260D1*
X13276Y21287D1*
X13265Y21316D1*
X13259Y21347D1*
X13258Y21376D1*
X13187Y21446D1*
X13013D1*
X13022Y21398D1*
X13019Y21356D1*
X13011Y21326D1*
X12998Y21297D1*
X12981Y21271D1*
X12959Y21248D1*
X12934Y21229D1*
X12906Y21215D1*
X12876Y21205D1*
X12845Y21201D1*
X12814Y21202D1*
X12780Y21209D1*
X12736Y21202D1*
X12705D1*
X17370Y9575D2*
X17362Y9544D1*
X17349Y9516D1*
X17331Y9490D1*
X17321Y9479D1*
X17343Y9450D1*
X17358Y9422D1*
X17367Y9392D1*
X17372Y9350D1*
X17370Y9319D1*
X17362Y9289D1*
X17349Y9260D1*
X17331Y9234D1*
X17321Y9223D1*
X17343Y9194D1*
X17358Y9166D1*
X17367Y9136D1*
X17372Y9094D1*
X17370Y9063D1*
X17362Y9033D1*
X17349Y9004D1*
X17331Y8978D1*
X17310Y8955D1*
X17285Y8936D1*
X17257Y8922D1*
X17227Y8912D1*
X17196Y8908D1*
X17164D1*
X17133Y8915D1*
X17104Y8926D1*
X17077Y8942D1*
X17053Y8962D1*
X17032Y8986D1*
X17016Y9013D1*
X17005Y9043D1*
X16999Y9073D1*
X16998Y9105D1*
X17003Y9136D1*
X17012Y9166D1*
X17027Y9194D1*
X17049Y9223D1*
X17032Y9242D1*
X17016Y9269D1*
X17005Y9299D1*
X16999Y9329D1*
X16998Y9361D1*
X17003Y9392D1*
X17012Y9422D1*
X17027Y9450D1*
X17049Y9478D1*
X17032Y9498D1*
X17016Y9525D1*
X17005Y9554D1*
X16999Y9585D1*
X16998Y9617D1*
X17003Y9648D1*
X17012Y9678D1*
X17027Y9706D1*
X17049Y9734D1*
X17032Y9754D1*
X17016Y9781D1*
X17005Y9810D1*
X16999Y9841D1*
X16998Y9873D1*
X17003Y9904D1*
X17012Y9934D1*
X17027Y9962D1*
X17045Y9987D1*
X17068Y10008D1*
X17094Y10026D1*
X17123Y10039D1*
X17154Y10047D1*
X17185Y10049D1*
X17216Y10047D1*
X17247Y10039D1*
X17275Y10026D1*
X17302Y10009D1*
X17325Y9987D1*
X17343Y9962D1*
X17358Y9934D1*
X17367Y9904D1*
X17372Y9862D1*
X17370Y9831D1*
X17362Y9800D1*
X17349Y9772D1*
X17331Y9746D1*
X17321Y9735D1*
X17343Y9706D1*
X17358Y9678D1*
X17367Y9648D1*
X17372Y9606D1*
X17370Y9575D1*
X21759Y11110D2*
X21751Y11080D1*
X21739Y11051D1*
X21721Y11025D1*
X21700Y11002D1*
X21674Y10983D1*
X21646Y10969D1*
X21616Y10959D1*
X21585Y10955D1*
X21554Y10956D1*
X21523Y10962D1*
X21494Y10973D1*
X21467Y10989D1*
X21442Y11009D1*
X21422Y11033D1*
X21406Y11060D1*
X21395Y11090D1*
X21389Y11121D1*
X21388Y11152D1*
X21392Y11183D1*
X21402Y11213D1*
X21416Y11241D1*
X21435Y11266D1*
X21458Y11288D1*
X21484Y11305D1*
X21513Y11318D1*
X21543Y11326D1*
X21575Y11329D1*
X21606Y11326D1*
X21637Y11318D1*
X21665Y11306D1*
X21691Y11288D1*
X21714Y11267D1*
X21733Y11241D1*
X21748Y11213D1*
X21757Y11184D1*
X21762Y11142D1*
X21759Y11110D1*
X11312Y18336D2*
X11350Y18334D1*
X11381Y18326D1*
X11409Y18313D1*
X11435Y18296D1*
X11458Y18274D1*
X11477Y18249D1*
X11492Y18221D1*
X11502Y18187D1*
X13681Y18709D2*
X13702Y18729D1*
X13728Y18746D1*
X13757Y18759D1*
X13787Y18767D1*
X13819Y18770D1*
X13850Y18767D1*
X13881Y18759D1*
X13909Y18747D1*
X13935Y18729D1*
X13958Y18707D1*
X13977Y18682D1*
X13992Y18654D1*
X14001Y18624D1*
X14006Y18583D1*
X14003Y18551D1*
X13996Y18521D1*
X13983Y18492D1*
X13965Y18466D1*
X13944Y18443D1*
X13918Y18424D1*
X13891Y18410D1*
X13861Y18400D1*
X13829Y18396D1*
X13798Y18397D1*
X13767Y18403D1*
X13738Y18414D1*
X13711Y18430D1*
X13682Y18456D1*
X13964Y19358D2*
X13956Y19328D1*
X13943Y19299D1*
X13926Y19273D1*
X13904Y19250D1*
X13879Y19231D1*
X13851Y19217D1*
X13821Y19207D1*
X13790Y19203D1*
X13759Y19204D1*
X13728Y19210D1*
X13698Y19221D1*
X13671Y19237D1*
X13647Y19257D1*
X13627Y19281D1*
X13611Y19309D1*
X13600Y19338D1*
X13594Y19369D1*
X13593Y19400D1*
X13597Y19431D1*
X13607Y19461D1*
X13621Y19489D1*
X13640Y19514D1*
X13663Y19536D1*
X13689Y19554D1*
X13718Y19566D1*
X13748Y19574D1*
X13779Y19577D1*
X13811Y19574D1*
X13841Y19566D1*
X13870Y19554D1*
X13896Y19536D1*
X13919Y19515D1*
X13938Y19489D1*
X13952Y19462D1*
X13962Y19432D1*
X13967Y19390D1*
X13964Y19358D1*
X11834Y22158D2*
X11806D1*
X11775Y22165D1*
X11746Y22176D1*
X11719Y22192D1*
X11694Y22212D1*
X11674Y22236D1*
X11658Y22263D1*
X11647Y22293D1*
X11641Y22323D1*
X11640Y22355D1*
X11644Y22386D1*
X11656Y22420D1*
X18984Y6898D2*
X18976Y6867D1*
X18963Y6839D1*
X18946Y6812D1*
X18924Y6790D1*
X18899Y6771D1*
X18882Y6762D1*
X18916Y6741D1*
X18939Y6719D1*
X18958Y6694D1*
X18972Y6666D1*
X18982Y6636D1*
X18986Y6594D1*
X18984Y6563D1*
X18976Y6533D1*
X18963Y6504D1*
X18946Y6478D1*
X18924Y6455D1*
X18899Y6436D1*
X18871Y6422D1*
X18841Y6412D1*
X18810Y6408D1*
X18778D1*
X18747Y6415D1*
X18718Y6426D1*
X18691Y6442D1*
X18667Y6462D1*
X18647Y6486D1*
X18631Y6513D1*
X18619Y6543D1*
X18613Y6573D1*
X18612Y6605D1*
X18617Y6636D1*
X18626Y6666D1*
X18641Y6694D1*
X18660Y6719D1*
X18682Y6741D1*
X18717Y6762D1*
X18691Y6776D1*
X18667Y6797D1*
X18647Y6821D1*
X18631Y6848D1*
X18619Y6877D1*
X18613Y6908D1*
X18612Y6940D1*
X18617Y6971D1*
X18626Y7001D1*
X18641Y7029D1*
X18660Y7054D1*
X18682Y7075D1*
X18709Y7093D1*
X18740Y7106D1*
X18718Y7115D1*
X18691Y7131D1*
X18667Y7151D1*
X18647Y7175D1*
X18631Y7202D1*
X18619Y7232D1*
X18613Y7262D1*
X18612Y7294D1*
X18617Y7325D1*
X18626Y7355D1*
X18641Y7383D1*
X18660Y7408D1*
X18682Y7430D1*
X18709Y7447D1*
X18737Y7460D1*
X18768Y7468D1*
X18799Y7471D1*
X18830Y7468D1*
X18861Y7460D1*
X18890Y7447D1*
X18916Y7430D1*
X18939Y7408D1*
X18958Y7383D1*
X18972Y7355D1*
X18982Y7325D1*
X18986Y7283D1*
X18984Y7252D1*
X18976Y7222D1*
X18963Y7193D1*
X18946Y7167D1*
X18924Y7144D1*
X18899Y7125D1*
X18859Y7107D1*
X18890Y7093D1*
X18916Y7076D1*
X18939Y7054D1*
X18958Y7029D1*
X18972Y7001D1*
X18982Y6971D1*
X18986Y6929D1*
X18984Y6898D1*
X19712Y9122D2*
X19704Y9092D1*
X19691Y9063D1*
X19674Y9037D1*
X19652Y9014D1*
X19627Y8995D1*
X19599Y8981D1*
X19569Y8971D1*
X19538Y8967D1*
X19507Y8968D1*
X19476Y8974D1*
X19446Y8985D1*
X19419Y9001D1*
X19395Y9021D1*
X19375Y9045D1*
X19359Y9072D1*
X19348Y9102D1*
X19342Y9133D1*
X19341Y9164D1*
X19345Y9195D1*
X19355Y9225D1*
X19369Y9253D1*
X19388Y9278D1*
X19411Y9300D1*
X19437Y9317D1*
X19466Y9330D1*
X19496Y9338D1*
X19527Y9341D1*
X19559Y9338D1*
X19589Y9330D1*
X19618Y9317D1*
X19644Y9300D1*
X19667Y9278D1*
X19686Y9253D1*
X19700Y9225D1*
X19710Y9195D1*
X19715Y9154D1*
X19712Y9122D1*
X19240Y7567D2*
X19232Y7537D1*
X19219Y7508D1*
X19201Y7482D1*
X19180Y7459D1*
X19155Y7440D1*
X19127Y7426D1*
X19097Y7416D1*
X19066Y7412D1*
X19034D1*
X19003Y7419D1*
X18974Y7430D1*
X18947Y7446D1*
X18923Y7466D1*
X18903Y7490D1*
X18887Y7517D1*
X18875Y7547D1*
X18869Y7577D1*
X18868Y7609D1*
X18873Y7640D1*
X18882Y7670D1*
X18897Y7698D1*
X18915Y7723D1*
X18938Y7745D1*
X18965Y7762D1*
X18993Y7775D1*
X19024Y7783D1*
X19055Y7786D1*
X19086Y7783D1*
X19117Y7775D1*
X19146Y7762D1*
X19172Y7745D1*
X19195Y7723D1*
X19214Y7698D1*
X19228Y7670D1*
X19238Y7640D1*
X19242Y7598D1*
X19240Y7567D1*
X20519Y9988D2*
X20511Y9958D1*
X20498Y9929D1*
X20481Y9903D1*
X20459Y9880D1*
X20434Y9861D1*
X20406Y9847D1*
X20376Y9837D1*
X20345Y9833D1*
X20314Y9834D1*
X20283Y9840D1*
X20253Y9851D1*
X20217Y9875D1*
X20198Y9861D1*
X20170Y9847D1*
X20140Y9837D1*
X20109Y9833D1*
X20078Y9834D1*
X20047Y9840D1*
X20017Y9851D1*
X19990Y9867D1*
X19966Y9887D1*
X19946Y9911D1*
X19930Y9938D1*
X19919Y9968D1*
X19912Y9999D1*
Y10030D1*
X19916Y10061D1*
X19925Y10091D1*
X19940Y10119D1*
X19959Y10144D1*
X19982Y10166D1*
X20008Y10183D1*
X20037Y10196D1*
X20067Y10204D1*
X20098Y10207D1*
X20130Y10204D1*
X20160Y10196D1*
X20189Y10184D1*
X20217Y10164D1*
X20244Y10183D1*
X20273Y10196D1*
X20303Y10204D1*
X20335Y10207D1*
X20366Y10204D1*
X20396Y10196D1*
X20425Y10184D1*
X20451Y10166D1*
X20474Y10145D1*
X20493Y10119D1*
X20508Y10091D1*
X20517Y10061D1*
X20522Y10020D1*
X20519Y9988D1*
Y10736D2*
X20511Y10706D1*
X20498Y10677D1*
X20481Y10651D1*
X20459Y10628D1*
X20434Y10609D1*
X20406Y10595D1*
X20376Y10585D1*
X20345Y10581D1*
X20314Y10582D1*
X20283Y10588D1*
X20253Y10599D1*
X20217Y10623D1*
X20198Y10609D1*
X20170Y10595D1*
X20140Y10585D1*
X20109Y10581D1*
X20078Y10582D1*
X20047Y10588D1*
X20017Y10599D1*
X19990Y10615D1*
X19966Y10635D1*
X19946Y10659D1*
X19930Y10686D1*
X19919Y10716D1*
X19912Y10747D1*
Y10778D1*
X19916Y10809D1*
X19925Y10839D1*
X19940Y10867D1*
X19959Y10892D1*
X19982Y10914D1*
X20008Y10931D1*
X20037Y10944D1*
X20067Y10952D1*
X20098Y10955D1*
X20130Y10952D1*
X20160Y10944D1*
X20189Y10932D1*
X20217Y10912D1*
X20244Y10931D1*
X20273Y10944D1*
X20303Y10952D1*
X20335Y10955D1*
X20366Y10952D1*
X20396Y10944D1*
X20425Y10932D1*
X20451Y10914D1*
X20474Y10893D1*
X20493Y10867D1*
X20508Y10839D1*
X20517Y10810D1*
X20522Y10768D1*
X20519Y10736D1*
X11149Y21140D2*
X11141Y21109D1*
X11128Y21081D1*
X11111Y21055D1*
X11089Y21032D1*
X11064Y21013D1*
X11036Y20998D1*
X11006Y20989D1*
X10975Y20984D1*
X10944Y20985D1*
X10913Y20991D1*
X10883Y21003D1*
X10856Y21019D1*
X10832Y21039D1*
X10812Y21063D1*
X10796Y21090D1*
X10785Y21119D1*
X10779Y21150D1*
X10778Y21182D1*
X10782Y21213D1*
X10792Y21243D1*
X10806Y21271D1*
X10825Y21296D1*
X10848Y21318D1*
X10874Y21335D1*
X10903Y21348D1*
X10933Y21356D1*
X10964Y21358D1*
X10996Y21356D1*
X11026Y21348D1*
X11055Y21335D1*
X11081Y21318D1*
X11104Y21296D1*
X11123Y21271D1*
X11137Y21243D1*
X11147Y21213D1*
X11152Y21171D1*
X11149Y21140D1*
X14279Y19821D2*
X14271Y19791D1*
X14258Y19762D1*
X14241Y19736D1*
X14219Y19713D1*
X14194Y19694D1*
X14166Y19679D1*
X14136Y19670D1*
X14105Y19665D1*
X14074Y19666D1*
X14043Y19673D1*
X14013Y19684D1*
X13986Y19700D1*
X13962Y19720D1*
X13942Y19744D1*
X13926Y19771D1*
X13915Y19800D1*
X13909Y19831D1*
X13908Y19863D1*
X13912Y19894D1*
X13922Y19924D1*
X13936Y19952D1*
X13955Y19977D1*
X13978Y19999D1*
X14004Y20016D1*
X14033Y20029D1*
X14063Y20037D1*
X14094Y20040D1*
X14126Y20037D1*
X14156Y20029D1*
X14185Y20016D1*
X14211Y19999D1*
X14234Y19977D1*
X14253Y19952D1*
X14267Y19924D1*
X14277Y19894D1*
X14282Y19852D1*
X14279Y19821D1*
X15887Y19561D2*
X15879Y19531D1*
X15867Y19502D1*
X15849Y19476D1*
X15827Y19453D1*
X15802Y19434D1*
X15774Y19420D1*
X15744Y19410D1*
X15713Y19406D1*
X15682Y19407D1*
X15651Y19413D1*
X15622Y19424D1*
X15594Y19440D1*
X15570Y19460D1*
X15550Y19484D1*
X15534Y19511D1*
X15523Y19541D1*
X15517Y19571D1*
X15516Y19603D1*
X15520Y19634D1*
X15530Y19664D1*
X15544Y19692D1*
X15563Y19717D1*
X15586Y19739D1*
X15612Y19756D1*
X15641Y19769D1*
X15671Y19777D1*
X15703Y19780D1*
X15734Y19777D1*
X15764Y19769D1*
X15793Y19756D1*
X15819Y19739D1*
X15842Y19717D1*
X15861Y19692D1*
X15876Y19664D1*
X15885Y19634D1*
X15890Y19593D1*
X15887Y19561D1*
X13807Y17311D2*
X13799Y17281D1*
X13786Y17252D1*
X13768Y17226D1*
X13747Y17203D1*
X13722Y17184D1*
X13694Y17170D1*
X13664Y17160D1*
X13633Y17156D1*
X13601Y17157D1*
X13570Y17163D1*
X13541Y17174D1*
X13514Y17190D1*
X13490Y17210D1*
X13469Y17234D1*
X13453Y17261D1*
X13442Y17291D1*
X13436Y17321D1*
X13435Y17353D1*
X13440Y17384D1*
X13449Y17414D1*
X13464Y17442D1*
X13482Y17467D1*
X13505Y17489D1*
X13531Y17506D1*
X13560Y17519D1*
X13591Y17527D1*
X13622Y17530D1*
X13653Y17527D1*
X13684Y17519D1*
X13712Y17506D1*
X13739Y17489D1*
X13762Y17467D1*
X13780Y17442D1*
X13795Y17414D1*
X13804Y17384D1*
X13809Y17343D1*
X13807Y17311D1*
X10696Y21402D2*
X10688Y21371D1*
X10676Y21343D1*
X10658Y21316D1*
X10637Y21294D1*
X10611Y21275D1*
X10583Y21260D1*
X10553Y21251D1*
X10522Y21246D1*
X10491Y21247D1*
X10460Y21253D1*
X10431Y21264D1*
X10404Y21280D1*
X10379Y21301D1*
X10359Y21325D1*
X10343Y21352D1*
X10332Y21381D1*
X10326Y21412D1*
X10325Y21443D1*
X10329Y21475D1*
X10339Y21505D1*
X10353Y21533D1*
X10372Y21558D1*
X10395Y21579D1*
X10421Y21597D1*
X10450Y21610D1*
X10480Y21618D1*
X10512Y21620D1*
X10543Y21618D1*
X10574Y21610D1*
X10602Y21597D1*
X10628Y21579D1*
X10651Y21558D1*
X10670Y21533D1*
X10685Y21505D1*
X10694Y21475D1*
X10699Y21433D1*
X10696Y21402D1*
X11543Y22921D2*
X11535Y22891D1*
X11522Y22862D1*
X11505Y22836D1*
X11483Y22813D1*
X11458Y22794D1*
X11430Y22780D1*
X11400Y22770D1*
X11369Y22766D1*
X11337Y22767D1*
X11306Y22773D1*
X11277Y22784D1*
X11250Y22800D1*
X11226Y22820D1*
X11206Y22844D1*
X11190Y22871D1*
X11178Y22901D1*
X11172Y22932D1*
X11171Y22963D1*
X11176Y22994D1*
X11185Y23024D1*
X11200Y23052D1*
X11219Y23077D1*
X11241Y23099D1*
X11268Y23117D1*
X11296Y23129D1*
X11327Y23137D1*
X11358Y23140D1*
X11390Y23137D1*
X11420Y23129D1*
X11449Y23117D1*
X11475Y23099D1*
X11498Y23078D1*
X11517Y23052D1*
X11531Y23025D1*
X11541Y22995D1*
X11545Y22953D1*
X11543Y22921D1*
X14161Y22173D2*
X14153Y22143D1*
X14140Y22114D1*
X14123Y22088D1*
X14101Y22065D1*
X14076Y22046D1*
X14048Y22032D1*
X14018Y22022D1*
X13987Y22018D1*
X13955Y22019D1*
X13925Y22025D1*
X13895Y22036D1*
X13868Y22052D1*
X13844Y22072D1*
X13824Y22096D1*
X13808Y22123D1*
X13797Y22153D1*
X13790Y22184D1*
Y22215D1*
X13794Y22246D1*
X13803Y22276D1*
X13818Y22304D1*
X13837Y22329D1*
X13860Y22351D1*
X13886Y22368D1*
X13914Y22381D1*
X13945Y22389D1*
X13976Y22392D1*
X14008Y22389D1*
X14038Y22381D1*
X14067Y22369D1*
X14093Y22351D1*
X14116Y22330D1*
X14135Y22304D1*
X14149Y22276D1*
X14159Y22247D1*
X14164Y22205D1*
X14161Y22173D1*
X13492Y25540D2*
X13484Y25509D1*
X13471Y25480D1*
X13453Y25454D1*
X13432Y25431D1*
X13407Y25412D1*
X13379Y25398D1*
X13349Y25388D1*
X13318Y25384D1*
X13286Y25385D1*
X13255Y25391D1*
X13226Y25402D1*
X13199Y25418D1*
X13175Y25438D1*
X13154Y25463D1*
X13138Y25490D1*
X13127Y25519D1*
X13121Y25550D1*
X13120Y25581D1*
X13125Y25612D1*
X13134Y25642D1*
X13149Y25670D1*
X13167Y25696D1*
X13190Y25717D1*
X13216Y25735D1*
X13245Y25747D1*
X13276Y25755D1*
X13307Y25758D1*
X13338Y25755D1*
X13369Y25748D1*
X13398Y25735D1*
X13424Y25717D1*
X13447Y25696D1*
X13465Y25671D1*
X13480Y25643D1*
X13490Y25613D1*
X13494Y25571D1*
X13492Y25540D1*
X16818Y17390D2*
X16811Y17359D1*
X16798Y17331D1*
X16780Y17305D1*
X16759Y17282D1*
X16733Y17263D1*
X16706Y17248D1*
X16676Y17239D1*
X16644Y17234D1*
X16613Y17235D1*
X16582Y17241D1*
X16553Y17253D1*
X16526Y17269D1*
X16502Y17289D1*
X16481Y17313D1*
X16465Y17340D1*
X16454Y17369D1*
X16448Y17400D1*
X16447Y17432D1*
X16451Y17463D1*
X16461Y17493D1*
X16475Y17521D1*
X16494Y17546D1*
X16517Y17568D1*
X16543Y17585D1*
X16572Y17598D1*
X16602Y17606D1*
X16634Y17608D1*
X16665Y17606D1*
X16696Y17598D1*
X16724Y17585D1*
X16750Y17568D1*
X16773Y17546D1*
X16792Y17521D1*
X16807Y17493D1*
X16816Y17463D1*
X16821Y17421D1*
X16818Y17390D1*
X24067Y20329D2*
D16*
Y19545D1*
X23675Y19937D2*
X24459D1*
X24067Y21329D2*
Y20545D1*
X23675Y20937D2*
X24459D1*
X5067Y14729D2*
Y13945D1*
X4675Y14337D2*
X5459D1*
X22067Y15937D2*
Y15545D1*
X21675Y15937D2*
X22459D1*
X21675Y16937D2*
X22459D1*
X22067Y18329D2*
Y17545D1*
X21675Y17937D2*
X22459D1*
X22067Y19329D2*
Y18545D1*
X21675Y18937D2*
X22459D1*
X22067Y20329D2*
Y19545D1*
X21675Y19937D2*
X22459D1*
X22067Y21329D2*
Y20545D1*
X21675Y20937D2*
X22459D1*
X22067Y22329D2*
Y21545D1*
X21675Y21937D2*
X22459D1*
X22067Y14329D2*
Y13545D1*
X21675Y13937D2*
X22459D1*
X22067Y15329D2*
Y14545D1*
X21675Y14937D2*
X22459D1*
X15020Y8148D2*
D20*
Y7482D1*
X14687Y7815D2*
X15353D1*
X6067Y14329D2*
D16*
Y13545D1*
X5675Y13937D2*
X6067D1*
X9843Y8148D2*
D20*
Y7482D1*
X9509Y7815D2*
X10176D1*
X9843Y13581D2*
Y12915D1*
X9509Y13248D2*
X10176D1*
X6676Y15023D2*
D21*
X7519Y14179D1*
X8363Y15023D2*
X6676Y13336D1*
X15020Y13581D2*
D20*
Y12915D1*
X14687Y13248D2*
X15353D1*
X12933Y11357D2*
Y10691D1*
X12600Y11024D2*
X13266D1*
X11909Y10333D2*
Y9667D1*
X11576Y10000D2*
X12243D1*
X11909Y11357D2*
Y10691D1*
X11576Y11024D2*
X12243D1*
X12933Y10333D2*
Y9667D1*
X12600Y10000D2*
X13266D1*
X12827Y30335D2*
D15*
Y29238D1*
X12280Y30335D2*
X13374D1*
X16307D2*
Y29238D1*
X15760Y30335D2*
X16854D1*
D36*
X24067Y14937D3*
Y15937D3*
Y16937D3*
Y17937D3*
Y18937D3*
Y19937D3*
Y20937D3*
Y21937D3*
Y23937D3*
Y24937D3*
Y25937D3*
Y26937D3*
Y27937D3*
Y28937D3*
X5067D3*
Y27937D3*
Y26937D3*
Y25937D3*
Y24937D3*
Y23937D3*
Y22937D3*
Y21937D3*
Y20337D3*
Y19337D3*
Y18337D3*
Y17337D3*
Y16337D3*
Y15337D3*
Y14337D3*
Y13337D3*
Y12337D3*
Y11337D3*
X21067Y15937D3*
Y16937D3*
Y17937D3*
Y18937D3*
Y19937D3*
Y20937D3*
Y21937D3*
Y22937D3*
Y13937D3*
Y14937D3*
X22067Y15937D3*
Y16937D3*
Y17937D3*
Y18937D3*
Y19937D3*
Y20937D3*
Y21937D3*
Y22937D3*
Y13937D3*
Y14937D3*
X7067Y21937D3*
Y22937D3*
X6067Y21937D3*
Y22937D3*
Y19937D3*
Y18937D3*
D38*
X15020Y10512D3*
D36*
X6067Y17937D3*
D38*
X15020Y9488D3*
D36*
X6067Y16937D3*
D38*
X15020Y7815D3*
D36*
X6067Y15937D3*
D38*
X13563Y7303D3*
D36*
X6067Y14937D3*
D38*
X12421Y7303D3*
D36*
X6067Y13937D3*
D38*
X11280Y7303D3*
D36*
X6067Y12937D3*
D38*
X9843Y7815D3*
D36*
X6067Y11937D3*
Y10937D3*
X18067Y27937D3*
D38*
X9843Y9488D3*
D36*
X18067Y28937D3*
D38*
X9843Y10512D3*
D36*
X21067Y27937D3*
D38*
X9843Y11535D3*
D36*
X21067Y28937D3*
D38*
X9843Y13248D3*
X15020Y11535D3*
G36*
X6931Y15441D2*
X8781Y14768D1*
X8107Y12918D1*
X6258Y13591D1*
X6931Y15441D1*
G37*
G36*
X21026Y10311D2*
X22876Y9637D1*
X22203Y7788D1*
X20353Y8461D1*
X21026Y10311D1*
G37*
D38*
X11280Y13720D3*
X12421D3*
D39*
X12827Y30335D3*
D38*
X13563Y13720D3*
D39*
X16307Y30335D3*
D38*
X15020Y13248D3*
X12933Y11024D3*
X11909Y10000D3*
Y11024D3*
X12933Y10000D3*
M02*
