G04 DipTrace 2.3.1.0*
%INTopMask.gbr*%
%MOIN*%
%ADD24R,0.0276X0.0276*%
%ADD30R,0.0197X0.0984*%
%ADD31R,0.0787X0.0984*%
%ADD32R,0.0315X0.0236*%
%ADD36C,0.0591*%
%ADD39R,0.09X0.2*%
%ADD44R,0.0256X0.0157*%
%ADD47R,0.0157X0.0256*%
%ADD49R,0.2205X0.2205*%
%ADD51R,0.1024X0.1024*%
%ADD52R,0.0118X0.0394*%
%ADD55R,0.0173X0.0331*%
%ADD57R,0.063X0.0394*%
%ADD59R,0.0748X0.0433*%
%ADD66C,0.0354*%
%ADD67C,0.126*%
%ADD72R,0.0374X0.0335*%
%ADD83R,0.0197X0.0295*%
%ADD87R,0.0748X0.0315*%
%ADD89R,0.0433X0.0472*%
%ADD93C,0.0551*%
%ADD94R,0.0472X0.0551*%
%ADD96C,0.0669*%
%ADD98R,0.0354X0.0315*%
%ADD100R,0.0315X0.0354*%
%ADD102R,0.0394X0.0315*%
%ADD109R,0.1496X0.1024*%
%ADD111R,0.063X0.1181*%
%ADD113R,0.1181X0.063*%
%ADD115R,0.0315X0.0315*%
%FSLAX44Y44*%
G04*
G70*
G90*
G75*
G01*
%LNTopMask*%
%LPD*%
D24*
X10276Y21004D3*
X9882D3*
X10276Y21437D3*
X9882D3*
X10866Y17874D3*
Y17480D3*
X13622Y17559D3*
X14016D3*
X15531Y19764D3*
X15138D3*
X14272D3*
X14665D3*
X14882Y17559D3*
X14488D3*
X15295Y19291D3*
Y18898D3*
D115*
X22087Y12736D3*
X22480D3*
X21791Y10827D3*
Y10433D3*
X15768Y18425D3*
Y18031D3*
Y17165D3*
Y17559D3*
D24*
X11358Y21850D3*
X10965D3*
X14567Y24941D3*
X14961D3*
X14567Y25571D3*
X14961D3*
X13661Y26437D3*
X13268D3*
X15472Y22461D3*
Y22067D3*
X15039Y22874D3*
Y23268D3*
X14606Y22874D3*
Y23268D3*
X15433Y27106D3*
X15039D3*
X14567D3*
Y27500D3*
X15315Y20984D3*
X15709D3*
X15315Y21398D3*
X15709D3*
X12835Y24941D3*
Y25335D3*
X12362Y24941D3*
Y24547D3*
X11929Y24941D3*
Y24547D3*
X14961Y26437D3*
X14567D3*
D115*
X14961Y24311D3*
X14567D3*
X14173Y22047D3*
X14567D3*
X11358Y22264D3*
X10965D3*
X11358Y22756D3*
X10965D3*
X11358Y23169D3*
X10965D3*
X17657Y11713D3*
X18051D3*
X17657Y9606D3*
Y9213D3*
X18130Y9606D3*
Y9213D3*
D113*
X9843Y10512D3*
Y9488D3*
Y11535D3*
X15000Y10512D3*
Y9488D3*
Y11535D3*
D111*
X12421Y7303D3*
X13563D3*
X11280D3*
X12421Y13720D3*
X13563D3*
X11280D3*
D109*
X14843Y7815D3*
X10000D3*
Y13209D3*
X14843D3*
D51*
X11909Y10000D3*
Y11024D3*
X12933D3*
Y10000D3*
D30*
X19685Y6978D3*
X19370D3*
X20315D3*
X20000D3*
D31*
X21457Y4813D3*
X17913D3*
X21457Y6978D3*
X17913D3*
D30*
X19055D3*
D102*
X23051Y12736D3*
Y12067D3*
X22362Y10807D3*
Y10138D3*
D32*
X20335Y11122D3*
Y10453D3*
D100*
X8406Y22756D3*
X8012D3*
X8406Y22244D3*
X8012D3*
D98*
X20098Y15551D3*
Y15157D3*
X16260Y19370D3*
Y19764D3*
X19075Y15551D3*
Y15157D3*
X19587Y15551D3*
Y15157D3*
D66*
X18819Y5984D3*
X20551D3*
D67*
X22067Y29937D3*
X11067D3*
X5067Y9937D3*
X24067Y9437D3*
D36*
Y14937D3*
Y15937D3*
Y16937D3*
Y17937D3*
Y18937D3*
Y19937D3*
Y20937D3*
Y21937D3*
Y23937D3*
Y24937D3*
Y25937D3*
Y26937D3*
Y27937D3*
Y28937D3*
X5067D3*
Y27937D3*
Y26937D3*
Y25937D3*
Y24937D3*
Y23937D3*
Y22937D3*
Y21937D3*
Y20337D3*
Y19337D3*
Y18337D3*
Y17337D3*
Y16337D3*
Y15337D3*
Y14337D3*
Y13337D3*
Y12337D3*
Y11337D3*
D96*
X21067Y15937D3*
Y16937D3*
Y17937D3*
Y18937D3*
Y19937D3*
Y20937D3*
Y21937D3*
Y22937D3*
Y13937D3*
Y14937D3*
X22067Y15937D3*
Y16937D3*
Y17937D3*
Y18937D3*
Y19937D3*
Y20937D3*
Y21937D3*
Y22937D3*
Y13937D3*
Y14937D3*
D36*
X7067Y21937D3*
Y22937D3*
X6067Y21937D3*
Y22937D3*
D24*
X13228Y23996D3*
Y23602D3*
X14134Y24311D3*
Y24705D3*
Y25177D3*
Y25571D3*
Y26043D3*
Y26437D3*
X15472Y22874D3*
Y23268D3*
X14606Y23701D3*
X15000D3*
D115*
X14173Y22480D3*
Y22874D3*
D94*
X12283Y23760D3*
X11496D3*
D115*
Y24547D3*
Y24941D3*
D24*
X14961Y26004D3*
X14567D3*
D36*
X6067Y19937D3*
Y18937D3*
D93*
X15020Y10512D3*
D36*
X6067Y17937D3*
D93*
X15020Y9488D3*
D36*
X6067Y16937D3*
D93*
X15020Y7815D3*
D36*
X6067Y15937D3*
D93*
X13563Y7303D3*
D36*
X6067Y14937D3*
D93*
X12421Y7303D3*
D36*
X6067Y13937D3*
D93*
X11280Y7303D3*
D36*
X6067Y12937D3*
D93*
X9843Y7815D3*
D36*
X6067Y11937D3*
Y10937D3*
X18067Y27937D3*
D93*
X9843Y9488D3*
D36*
X18067Y28937D3*
D93*
X9843Y10512D3*
D36*
X21067Y27937D3*
D93*
X9843Y11535D3*
D36*
X21067Y28937D3*
D93*
X9843Y13248D3*
X15020Y11535D3*
D39*
X14567Y30335D3*
X16307D3*
D93*
X11280Y13720D3*
D39*
X12827Y30335D3*
D93*
X12421Y13720D3*
X13563D3*
X15020Y13248D3*
X12933Y11024D3*
X11909Y10000D3*
Y11024D3*
X12933Y10000D3*
D24*
X15768Y19291D3*
Y18898D3*
D115*
X21358Y10433D3*
Y10827D3*
X20886Y10433D3*
Y10827D3*
D24*
X8406Y23248D3*
X8012D3*
X8406Y21752D3*
X8012D3*
D115*
X15354Y17559D3*
Y17165D3*
X13228Y24469D3*
X12835D3*
X13307Y25335D3*
Y24941D3*
D89*
X16299Y18150D3*
Y18780D3*
X17913Y18150D3*
Y18780D3*
D87*
X17106Y17874D3*
D89*
X16299Y16791D3*
Y17421D3*
X17913Y16791D3*
Y17421D3*
D87*
X17106Y16516D3*
D44*
X13533Y18602D3*
Y18799D3*
Y18996D3*
Y19193D3*
Y19390D3*
Y19587D3*
Y19783D3*
Y19980D3*
Y20177D3*
Y20374D3*
Y20571D3*
Y20768D3*
D47*
X13287Y21014D3*
X13091D3*
X12894D3*
X12697D3*
X12500D3*
X12303D3*
X12106D3*
X11909D3*
X11713D3*
X11516D3*
X11319D3*
X11122D3*
D44*
X10876Y20768D3*
Y20571D3*
Y20374D3*
Y20177D3*
Y19980D3*
Y19783D3*
Y19587D3*
Y19390D3*
Y19193D3*
Y18996D3*
Y18799D3*
Y18602D3*
D47*
X11122Y18356D3*
X11319D3*
X11516D3*
X11713D3*
X11909D3*
X12106D3*
X12303D3*
X12500D3*
X12697D3*
X12894D3*
X13091D3*
X13287D3*
D49*
X12205Y19685D3*
D47*
X12421Y21644D3*
X12618D3*
X12815D3*
X13012D3*
X13209D3*
D44*
X13553Y21988D3*
Y22185D3*
Y22382D3*
Y22579D3*
Y22776D3*
D47*
X13209Y23120D3*
X13012D3*
X12815D3*
X12618D3*
X12421D3*
D44*
X12077Y22776D3*
Y22579D3*
Y22382D3*
Y22185D3*
Y21988D3*
D51*
X12815Y22382D3*
D52*
X19331Y8150D3*
X19528D3*
X19724D3*
Y8787D3*
X19528D3*
X19331D3*
D55*
X21575Y12205D3*
X21319D3*
X21063D3*
Y11378D3*
X21319D3*
X21575D3*
D57*
X21319Y11791D3*
D83*
X22421Y11358D3*
X22224D3*
X22028D3*
Y11673D3*
X22224D3*
X22421D3*
D55*
X17657Y10197D3*
X17913D3*
X18169D3*
Y11024D3*
X17913D3*
X17657D3*
D57*
X17913Y10610D3*
D59*
X14547Y18169D3*
Y19154D3*
D72*
X14193Y21535D3*
Y21142D3*
X14705Y21535D3*
Y21142D3*
G36*
X3937Y7087D2*
X4528D1*
Y3937D1*
X3937D1*
Y7087D1*
G37*
G36*
X4528Y4528D2*
X16929D1*
Y3937D1*
X4528D1*
Y4528D1*
G37*
G36*
X16732Y6299D2*
X17323D1*
Y3937D1*
X16732D1*
Y6299D1*
G37*
G36*
X8465Y6693D2*
X16732D1*
Y6102D1*
X8465D1*
Y6693D1*
G37*
G36*
Y9252D2*
X9055D1*
Y6693D1*
X8465D1*
Y9252D1*
G37*
G36*
X3937D2*
X8465D1*
Y8661D1*
X3937D1*
Y9252D1*
G37*
M02*
