G04 DipTrace 2.3.1.0*
%INBottomSilk.gbr*%
%MOIN*%
%ADD10C,0.0098*%
%ADD12C,0.003*%
%ADD117C,0.0046*%
%ADD118C,0.0124*%
%FSLAX44Y44*%
G04*
G70*
G90*
G75*
G01*
%LNBotSilk*%
%LPD*%
X7471Y11683D2*
D10*
X5991Y12222D1*
X20048Y7104D2*
X21529Y6567D1*
X20519Y6095D2*
X21058Y7577D1*
X9055Y11614D2*
G02X9055Y11614I5511J0D01*
G01*
X12373Y28785D2*
D12*
X13271D1*
X12373Y28755D2*
X13271D1*
X12373Y28725D2*
X13271D1*
X12373Y28695D2*
X13271D1*
X12373Y28665D2*
X13271D1*
X12373Y28635D2*
X13271D1*
X12373Y28606D2*
X13271D1*
X12373Y28576D2*
X13271D1*
X12373Y28546D2*
X13271D1*
X12373Y28516D2*
X13271D1*
X12373Y28486D2*
X13271D1*
X12373Y28456D2*
X13271D1*
X12373Y28426D2*
X13271D1*
X12373Y28396D2*
X13271D1*
X12373Y28366D2*
X13271D1*
X12373Y28336D2*
X13271D1*
X12373Y28306D2*
X13271D1*
X12373Y28276D2*
X13271D1*
X12373Y28246D2*
X13271D1*
X12373Y28217D2*
X13271D1*
X12373Y28187D2*
X13271D1*
X12373Y28157D2*
X13271D1*
X12373Y28127D2*
X13271D1*
X12373Y28097D2*
X13271D1*
X12373Y28067D2*
X13271D1*
X12373Y28037D2*
X13271D1*
X12373Y28007D2*
X13271D1*
X12373Y27977D2*
X13271D1*
X12373Y27947D2*
X13271D1*
X12373Y27917D2*
X13271D1*
X12373Y27887D2*
X13271D1*
X12373Y27857D2*
X13271D1*
X11326Y27828D2*
X14976D1*
X11326Y27798D2*
X14976D1*
X11326Y27768D2*
X14976D1*
X11326Y27738D2*
X14976D1*
X11326Y27708D2*
X14976D1*
X11326Y27678D2*
X14976D1*
X11326Y27648D2*
X14976D1*
X11326Y27618D2*
X14976D1*
X11326Y27588D2*
X14976D1*
X11326Y27558D2*
X14976D1*
X11326Y27528D2*
X14976D1*
X11326Y27498D2*
X14976D1*
X11326Y27469D2*
X14976D1*
X11326Y27439D2*
X14976D1*
X11326Y27409D2*
X14976D1*
X11326Y27379D2*
X14976D1*
X11326Y27349D2*
X14976D1*
X11326Y27319D2*
X14976D1*
X11326Y27289D2*
X14976D1*
X11326Y27259D2*
X14976D1*
X11326Y27229D2*
X14976D1*
X11326Y27199D2*
X14976D1*
X11326Y27169D2*
X14976D1*
X11326Y27139D2*
X14976D1*
X11326Y27109D2*
X14976D1*
X11326Y27080D2*
X14976D1*
X11326Y27050D2*
X14976D1*
X11326Y27020D2*
X14976D1*
X11326Y26990D2*
X14976D1*
X11326Y26960D2*
X14976D1*
X12373Y26930D2*
X13271D1*
X12373Y26900D2*
X13271D1*
X12373Y26870D2*
X13271D1*
X12373Y26840D2*
X13271D1*
X12373Y26810D2*
X13271D1*
X12373Y26780D2*
X13271D1*
X12373Y26750D2*
X13271D1*
X12373Y26720D2*
X13271D1*
X12373Y26691D2*
X13271D1*
X12373Y26661D2*
X13271D1*
X12373Y26631D2*
X13271D1*
X12373Y26601D2*
X13271D1*
X12373Y26571D2*
X13271D1*
X12373Y26541D2*
X13271D1*
X12373Y26511D2*
X13271D1*
X12373Y26481D2*
X13271D1*
X12373Y26451D2*
X13271D1*
X12373Y26421D2*
X13271D1*
X12373Y26391D2*
X13271D1*
X12373Y26361D2*
X13271D1*
X12373Y26331D2*
X13271D1*
X12373Y26302D2*
X13271D1*
X12373Y26272D2*
X13271D1*
X15186D2*
X15844D1*
X12373Y26242D2*
X13271D1*
X15014D2*
X15986D1*
X12373Y26212D2*
X13271D1*
X14860D2*
X16110D1*
X12373Y26182D2*
X13271D1*
X14723D2*
X16217D1*
X12373Y26152D2*
X13271D1*
X14600D2*
X16311D1*
X12373Y26122D2*
X13271D1*
X14490D2*
X16392D1*
X12373Y26092D2*
X13271D1*
X14393D2*
X16463D1*
X12373Y26062D2*
X13271D1*
X14309D2*
X16527D1*
X12373Y26032D2*
X13271D1*
X14233D2*
X16586D1*
X12373Y26002D2*
X13271D1*
X14161D2*
X16638D1*
X12373Y25972D2*
X13271D1*
X14095D2*
X16686D1*
X12373Y25943D2*
X13271D1*
X14036D2*
X16729D1*
X12373Y25913D2*
X13271D1*
X13981D2*
X16770D1*
X12373Y25883D2*
X13271D1*
X13926D2*
X16811D1*
X12373Y25853D2*
X13271D1*
X13873D2*
X16850D1*
X12373Y25823D2*
X13271D1*
X13822D2*
X16886D1*
X12373Y25793D2*
X13271D1*
X13774D2*
X16919D1*
X12373Y25763D2*
X13271D1*
X13728D2*
X16950D1*
X12373Y25733D2*
X13271D1*
X13683D2*
X16981D1*
X12373Y25703D2*
X13271D1*
X13638D2*
X17011D1*
X12373Y25673D2*
X13271D1*
X13594D2*
X17041D1*
X12373Y25643D2*
X13271D1*
X13552D2*
X17071D1*
X12373Y25613D2*
X13271D1*
X13511D2*
X17101D1*
X12373Y25583D2*
X13271D1*
X13471D2*
X17131D1*
X12373Y25554D2*
X13271D1*
X13431D2*
X17161D1*
X12373Y25524D2*
X13272D1*
X13395D2*
X17189D1*
X12373Y25494D2*
X13277D1*
X13357D2*
X17215D1*
X12373Y25464D2*
X13287D1*
X13315D2*
X17238D1*
X12373Y25434D2*
X17260D1*
X12373Y25404D2*
X17284D1*
X12373Y25374D2*
X15319D1*
X15741D2*
X17307D1*
X12373Y25344D2*
X15140D1*
X15861D2*
X17328D1*
X12373Y25314D2*
X14988D1*
X15959D2*
X17346D1*
X12373Y25284D2*
X14862D1*
X16037D2*
X17363D1*
X12373Y25254D2*
X14758D1*
X16102D2*
X17381D1*
X12373Y25224D2*
X14670D1*
X16158D2*
X17401D1*
X12373Y25194D2*
X14594D1*
X16206D2*
X17419D1*
X12373Y25165D2*
X14525D1*
X16249D2*
X17436D1*
X12373Y25135D2*
X14462D1*
X16287D2*
X17452D1*
X12373Y25105D2*
X14403D1*
X16320D2*
X17467D1*
X12373Y25075D2*
X14347D1*
X16352D2*
X17482D1*
X12373Y25045D2*
X14292D1*
X16382D2*
X17497D1*
X12373Y25015D2*
X14241D1*
X16412D2*
X17512D1*
X12373Y24985D2*
X14193D1*
X16442D2*
X17527D1*
X12373Y24955D2*
X14147D1*
X16472D2*
X17542D1*
X12373Y24925D2*
X14103D1*
X16501D2*
X17556D1*
X12373Y24895D2*
X14062D1*
X16527D2*
X17568D1*
X12373Y24865D2*
X14025D1*
X16550D2*
X17579D1*
X12373Y24835D2*
X13991D1*
X16571D2*
X17590D1*
X12373Y24806D2*
X13959D1*
X16592D2*
X17603D1*
X12373Y24776D2*
X13925D1*
X16611D2*
X17616D1*
X12373Y24746D2*
X13887D1*
X16628D2*
X17628D1*
X12373Y24716D2*
X13850D1*
X16644D2*
X17639D1*
X12373Y24686D2*
X13814D1*
X16659D2*
X17649D1*
X12373Y24656D2*
X13783D1*
X16674D2*
X17659D1*
X12373Y24626D2*
X13755D1*
X16689D2*
X17669D1*
X12373Y24596D2*
X13732D1*
X16704D2*
X17679D1*
X12373Y24566D2*
X13710D1*
X16718D2*
X17689D1*
X12373Y24536D2*
X13685D1*
X16730D2*
X17699D1*
X12373Y24506D2*
X13659D1*
X16741D2*
X17709D1*
X12373Y24476D2*
X13634D1*
X16753D2*
X17718D1*
X12373Y24446D2*
X13612D1*
X16766D2*
X17725D1*
X12373Y24417D2*
X13590D1*
X16779D2*
X17732D1*
X12373Y24387D2*
X13565D1*
X16790D2*
X17740D1*
X12373Y24357D2*
X13538D1*
X16801D2*
X17749D1*
X12373Y24327D2*
X13511D1*
X16811D2*
X17755D1*
X12373Y24297D2*
X13485D1*
X16821D2*
X17762D1*
X12373Y24267D2*
X13464D1*
X16827D2*
X17770D1*
X12373Y24237D2*
X13445D1*
X16834D2*
X17779D1*
X12373Y24207D2*
X13428D1*
X16843D2*
X17784D1*
X12373Y24177D2*
X13409D1*
X16851D2*
X17787D1*
X12373Y24147D2*
X13390D1*
X16858D2*
X17789D1*
X12373Y24117D2*
X13372D1*
X16864D2*
X17794D1*
X12373Y24087D2*
X13355D1*
X16873D2*
X17801D1*
X12373Y24057D2*
X13338D1*
X16881D2*
X17809D1*
X12373Y24028D2*
X13320D1*
X16886D2*
X17814D1*
X12373Y23998D2*
X13301D1*
X16889D2*
X17817D1*
X12373Y23968D2*
X13287D1*
X16892D2*
X17818D1*
X12373Y23938D2*
X13278D1*
X16896D2*
X17819D1*
X12373Y23908D2*
X13274D1*
X16903D2*
X17820D1*
X12373Y23878D2*
X13272D1*
X16911D2*
X17824D1*
X12373Y23848D2*
X13271D1*
X16916D2*
X17831D1*
X12373Y23818D2*
X13271D1*
X16919D2*
X17839D1*
X12373Y23788D2*
X13271D1*
X16921D2*
X17844D1*
X12373Y23758D2*
X13271D1*
X16922D2*
X17847D1*
X12373Y23728D2*
X13271D1*
X16926D2*
X17848D1*
X12373Y23698D2*
X13271D1*
X16933D2*
X17849D1*
X12373Y23669D2*
X13271D1*
X16941D2*
X17849D1*
X12373Y23639D2*
X13271D1*
X16946D2*
X17849D1*
X12373Y23609D2*
X13271D1*
X16949D2*
X17849D1*
X12373Y23579D2*
X13271D1*
X16950D2*
X17849D1*
X12373Y23549D2*
X13271D1*
X16951D2*
X17849D1*
X12373Y23519D2*
X13271D1*
X16951D2*
X17849D1*
X12373Y23489D2*
X13271D1*
X16951D2*
X17849D1*
X12373Y23459D2*
X13271D1*
X16951D2*
X17849D1*
X12373Y23429D2*
X13271D1*
X16951D2*
X17849D1*
X12373Y23399D2*
X13271D1*
X16951D2*
X17849D1*
X12373Y23369D2*
X13271D1*
X16951D2*
X17849D1*
X12373Y23339D2*
X13271D1*
X16950D2*
X17849D1*
X12373Y23309D2*
X13271D1*
X16946D2*
X17849D1*
X12373Y23280D2*
X13271D1*
X16939D2*
X17849D1*
X12373Y23250D2*
X13271D1*
X16931D2*
X17849D1*
X12373Y23220D2*
X13271D1*
X16926D2*
X17849D1*
X12373Y23190D2*
X13271D1*
X16923D2*
X17848D1*
X12373Y23160D2*
X13271D1*
X16922D2*
X17844D1*
X12373Y23130D2*
X13271D1*
X16920D2*
X17837D1*
X12373Y23100D2*
X13271D1*
X16916D2*
X17829D1*
X12373Y23070D2*
X13271D1*
X16909D2*
X17824D1*
X12373Y23040D2*
X13271D1*
X16901D2*
X17821D1*
X12373Y23010D2*
X13271D1*
X16896D2*
X17820D1*
X12373Y22980D2*
X13271D1*
X16893D2*
X17819D1*
X12373Y22950D2*
X13271D1*
X16892D2*
X17819D1*
X12373Y22920D2*
X13271D1*
X16890D2*
X17818D1*
X12373Y22891D2*
X13271D1*
X16886D2*
X17814D1*
X12373Y22861D2*
X13271D1*
X16879D2*
X17807D1*
X12373Y22831D2*
X13271D1*
X16872D2*
X17799D1*
X12373Y22801D2*
X13271D1*
X16866D2*
X17794D1*
X12373Y22771D2*
X13271D1*
X16862D2*
X17791D1*
X12373Y22741D2*
X13271D1*
X16857D2*
X17789D1*
X12373Y22711D2*
X13271D1*
X16849D2*
X17784D1*
X12373Y22681D2*
X13271D1*
X16841D2*
X17777D1*
X12373Y22651D2*
X13271D1*
X16831D2*
X17769D1*
X12373Y22621D2*
X13271D1*
X16821D2*
X17764D1*
X12373Y22591D2*
X13271D1*
X16812D2*
X17760D1*
X12373Y22561D2*
X13271D1*
X16806D2*
X17755D1*
X12373Y22531D2*
X13271D1*
X16799D2*
X17747D1*
X12373Y22502D2*
X13271D1*
X16790D2*
X17739D1*
X12373Y22472D2*
X13271D1*
X16781D2*
X17733D1*
X12373Y22442D2*
X13271D1*
X16772D2*
X17726D1*
X12373Y22412D2*
X13271D1*
X16762D2*
X17718D1*
X12373Y22382D2*
X13271D1*
X16753D2*
X17708D1*
X12373Y22352D2*
X13271D1*
X16746D2*
X17699D1*
X12373Y22322D2*
X13271D1*
X16739D2*
X17689D1*
X12373Y22292D2*
X13271D1*
X16729D2*
X17679D1*
X12373Y22262D2*
X13271D1*
X16717D2*
X17670D1*
X12373Y22232D2*
X13271D1*
X16705D2*
X17659D1*
X12373Y22202D2*
X13271D1*
X16693D2*
X17650D1*
X12373Y22172D2*
X13271D1*
X16683D2*
X17643D1*
X12373Y22143D2*
X13271D1*
X16672D2*
X17637D1*
X12373Y22113D2*
X13271D1*
X16662D2*
X17628D1*
X12373Y22083D2*
X13271D1*
X16652D2*
X17619D1*
X12373Y22053D2*
X13271D1*
X16641D2*
X17609D1*
X12373Y22023D2*
X13271D1*
X16628D2*
X17599D1*
X12373Y21993D2*
X13271D1*
X16614D2*
X17589D1*
X12373Y21963D2*
X13271D1*
X16599D2*
X17580D1*
X12373Y21933D2*
X13271D1*
X16585D2*
X17568D1*
X12373Y21903D2*
X13271D1*
X16570D2*
X17556D1*
X12373Y21873D2*
X13271D1*
X16555D2*
X17543D1*
X12373Y21843D2*
X13271D1*
X16540D2*
X17531D1*
X12373Y21813D2*
X13271D1*
X16525D2*
X17520D1*
X12373Y21783D2*
X13271D1*
X16510D2*
X17510D1*
X12373Y21754D2*
X13271D1*
X16495D2*
X17500D1*
X12373Y21724D2*
X13271D1*
X16480D2*
X17490D1*
X12373Y21694D2*
X13271D1*
X16465D2*
X17479D1*
X12373Y21664D2*
X13271D1*
X16450D2*
X17466D1*
X12373Y21634D2*
X13271D1*
X16435D2*
X17452D1*
X12373Y21604D2*
X13271D1*
X16420D2*
X17437D1*
X12373Y21574D2*
X13271D1*
X16405D2*
X17423D1*
X12373Y21544D2*
X13271D1*
X16389D2*
X17411D1*
X12373Y21514D2*
X13271D1*
X16371D2*
X17401D1*
X12373Y21484D2*
X13271D1*
X16352D2*
X17389D1*
X12373Y21454D2*
X13271D1*
X16333D2*
X17376D1*
X12373Y21424D2*
X13271D1*
X16313D2*
X17362D1*
X12373Y21394D2*
X13271D1*
X16293D2*
X17346D1*
X12373Y21365D2*
X13271D1*
X16273D2*
X17329D1*
X12373Y21335D2*
X13271D1*
X16253D2*
X17309D1*
X12373Y21305D2*
X13271D1*
X16233D2*
X17291D1*
X12373Y21275D2*
X13271D1*
X16213D2*
X17274D1*
X12373Y21245D2*
X13271D1*
X16192D2*
X17258D1*
X12373Y21215D2*
X13271D1*
X16169D2*
X17243D1*
X12373Y21185D2*
X13271D1*
X16146D2*
X17228D1*
X12373Y21155D2*
X13271D1*
X16125D2*
X17213D1*
X12373Y21125D2*
X13271D1*
X16103D2*
X17197D1*
X12373Y21095D2*
X13271D1*
X16079D2*
X17179D1*
X12373Y21065D2*
X13271D1*
X16053D2*
X17160D1*
X12373Y21035D2*
X13271D1*
X16028D2*
X17142D1*
X12373Y21006D2*
X13271D1*
X16006D2*
X17125D1*
X12373Y20976D2*
X13271D1*
X15983D2*
X17108D1*
X12373Y20946D2*
X13271D1*
X15959D2*
X17090D1*
X12373Y20916D2*
X13271D1*
X15932D2*
X17070D1*
X12373Y20886D2*
X13271D1*
X15903D2*
X17051D1*
X12373Y20856D2*
X13271D1*
X15873D2*
X17031D1*
X12373Y20826D2*
X13271D1*
X15840D2*
X17011D1*
X12373Y20796D2*
X13271D1*
X15807D2*
X16991D1*
X12373Y20766D2*
X13271D1*
X15777D2*
X16970D1*
X12373Y20736D2*
X13271D1*
X15749D2*
X16947D1*
X12373Y20706D2*
X13271D1*
X15722D2*
X16924D1*
X12373Y20676D2*
X13271D1*
X15693D2*
X16903D1*
X12373Y20646D2*
X13271D1*
X15664D2*
X16881D1*
X12373Y20617D2*
X13271D1*
X15634D2*
X16858D1*
X12373Y20587D2*
X13271D1*
X15605D2*
X16834D1*
X12373Y20557D2*
X13271D1*
X15576D2*
X16813D1*
X12373Y20527D2*
X13271D1*
X15550D2*
X16791D1*
X12373Y20497D2*
X13271D1*
X15527D2*
X16767D1*
X12373Y20467D2*
X13271D1*
X15505D2*
X16741D1*
X12373Y20437D2*
X13271D1*
X15481D2*
X16716D1*
X12373Y20407D2*
X13271D1*
X15458D2*
X16694D1*
X12373Y20377D2*
X13271D1*
X15437D2*
X16672D1*
X12373Y20347D2*
X13271D1*
X15415D2*
X16647D1*
X12373Y20317D2*
X13271D1*
X15390D2*
X16620D1*
X12373Y20287D2*
X13271D1*
X15364D2*
X16591D1*
X12373Y20257D2*
X13271D1*
X15340D2*
X16562D1*
X12373Y20228D2*
X13271D1*
X15317D2*
X16532D1*
X15296Y20198D2*
X16502D1*
X15276Y20168D2*
X16472D1*
X15256Y20138D2*
X16443D1*
X15236Y20108D2*
X16413D1*
X15216Y20078D2*
X16383D1*
X15197Y20048D2*
X16353D1*
X15180Y20018D2*
X16323D1*
X15164Y19988D2*
X16294D1*
X15149Y19958D2*
X16268D1*
X15134Y19928D2*
X16245D1*
X15119Y19898D2*
X16223D1*
X15104Y19869D2*
X16198D1*
X15089Y19839D2*
X16171D1*
X15074Y19809D2*
X16144D1*
X15059Y19779D2*
X16118D1*
X15044Y19749D2*
X16096D1*
X15029Y19719D2*
X16074D1*
X15014Y19689D2*
X16054D1*
X14999Y19659D2*
X16034D1*
X14984Y19629D2*
X16014D1*
X14970Y19599D2*
X15994D1*
X14958Y19569D2*
X15975D1*
X14947Y19539D2*
X15958D1*
X14937Y19509D2*
X15942D1*
X14926Y19480D2*
X15927D1*
X14917Y19450D2*
X15911D1*
X14907Y19420D2*
X15896D1*
X14897Y19390D2*
X15881D1*
X14891Y19360D2*
X15867D1*
X14884Y19330D2*
X15852D1*
X14875Y19300D2*
X15838D1*
X14867Y19270D2*
X15826D1*
X14862Y19240D2*
X15815D1*
X14858Y19210D2*
X15803D1*
X14853Y19180D2*
X15790D1*
X14845Y19150D2*
X15777D1*
X14837Y19120D2*
X15767D1*
X14832Y19091D2*
X15759D1*
X14829Y19061D2*
X15752D1*
X14827Y19031D2*
X15743D1*
X14826Y19001D2*
X15735D1*
X14822Y18971D2*
X15729D1*
X14815Y18941D2*
X15727D1*
X14807Y18911D2*
X15725D1*
X14802Y18881D2*
X15725D1*
X14799Y18851D2*
X15725D1*
X14798Y18821D2*
X15724D1*
X14797Y18791D2*
X15724D1*
X14797Y18761D2*
X15724D1*
X16742D2*
X16772D1*
X14797Y18731D2*
X15724D1*
X16712D2*
X16802D1*
X14797Y18702D2*
X15725D1*
X16682D2*
X16831D1*
X14798Y18672D2*
X15726D1*
X16652D2*
X16861D1*
X14802Y18642D2*
X15731D1*
X16622D2*
X16891D1*
X14809Y18612D2*
X15743D1*
X16592D2*
X16921D1*
X14817Y18582D2*
X15762D1*
X16562D2*
X16951D1*
X14822Y18552D2*
X15784D1*
X16531D2*
X16982D1*
X14826Y18522D2*
X15808D1*
X16497D2*
X17016D1*
X14831Y18492D2*
X15837D1*
X16460D2*
X17053D1*
X14839Y18462D2*
X15870D1*
X16422D2*
X17091D1*
X14847Y18432D2*
X15908D1*
X16382D2*
X17126D1*
X14853Y18402D2*
X15959D1*
X16335D2*
X17159D1*
X14860Y18372D2*
X16037D1*
X16268D2*
X17190D1*
X14869Y18343D2*
X16153D1*
X16171D2*
X17220D1*
X14881Y18313D2*
X17250D1*
X14894Y18283D2*
X17280D1*
X14905Y18253D2*
X17310D1*
X14916Y18223D2*
X17339D1*
X14928Y18193D2*
X17364D1*
X14942Y18163D2*
X17384D1*
X14960Y18133D2*
X17390D1*
X14981Y18103D2*
X17382D1*
X15004Y18073D2*
X17357D1*
X15025Y18043D2*
X17324D1*
X15046Y18013D2*
X17289D1*
X15066Y17983D2*
X17255D1*
X15086Y17954D2*
X17222D1*
X15107Y17924D2*
X17191D1*
X15131Y17894D2*
X17161D1*
X15159Y17864D2*
X17130D1*
X15192Y17834D2*
X17096D1*
X15228Y17804D2*
X17059D1*
X15266Y17774D2*
X17020D1*
X15302Y17744D2*
X16981D1*
X15339Y17714D2*
X16941D1*
X15382Y17684D2*
X16901D1*
X15428Y17654D2*
X16860D1*
X15476Y17624D2*
X16816D1*
X15526Y17594D2*
X16769D1*
X15582Y17565D2*
X16720D1*
X15644Y17535D2*
X16664D1*
X15720Y17505D2*
X16597D1*
X15811Y17475D2*
X16516D1*
X15915Y17445D2*
X16422D1*
X16024Y17415D2*
X16323D1*
X12373Y28785D2*
Y28755D1*
Y28725D1*
Y28695D1*
Y28665D1*
Y28635D1*
Y28606D1*
Y28576D1*
Y28546D1*
Y28516D1*
Y28486D1*
Y28456D1*
Y28426D1*
Y28396D1*
Y28366D1*
Y28336D1*
Y28306D1*
Y28276D1*
Y28246D1*
Y28217D1*
Y28187D1*
Y28157D1*
Y28127D1*
Y28097D1*
Y28067D1*
Y28037D1*
Y28007D1*
Y27977D1*
Y27947D1*
Y27917D1*
Y27887D1*
Y27857D1*
Y27828D1*
X13271Y28785D2*
Y28755D1*
Y28725D1*
Y28695D1*
Y28665D1*
Y28635D1*
Y28606D1*
Y28576D1*
Y28546D1*
Y28516D1*
Y28486D1*
Y28456D1*
Y28426D1*
Y28396D1*
Y28366D1*
Y28336D1*
Y28306D1*
Y28276D1*
Y28246D1*
Y28217D1*
Y28187D1*
Y28157D1*
Y28127D1*
Y28097D1*
Y28067D1*
Y28037D1*
Y28007D1*
Y27977D1*
Y27947D1*
Y27917D1*
Y27887D1*
Y27857D1*
Y27828D1*
X11326D2*
Y27798D1*
Y27768D1*
Y27738D1*
Y27708D1*
Y27678D1*
Y27648D1*
Y27618D1*
Y27588D1*
Y27558D1*
Y27528D1*
Y27498D1*
Y27469D1*
Y27439D1*
Y27409D1*
Y27379D1*
Y27349D1*
Y27319D1*
Y27289D1*
Y27259D1*
Y27229D1*
Y27199D1*
Y27169D1*
Y27139D1*
Y27109D1*
Y27080D1*
Y27050D1*
Y27020D1*
Y26990D1*
Y26960D1*
X14976Y27828D2*
Y27798D1*
Y27768D1*
Y27738D1*
Y27708D1*
Y27678D1*
Y27648D1*
Y27618D1*
Y27588D1*
Y27558D1*
Y27528D1*
Y27498D1*
Y27469D1*
Y27439D1*
Y27409D1*
Y27379D1*
Y27349D1*
Y27319D1*
Y27289D1*
Y27259D1*
Y27229D1*
Y27199D1*
Y27169D1*
Y27139D1*
Y27109D1*
Y27080D1*
Y27050D1*
Y27020D1*
Y26990D1*
Y26960D1*
X12373D2*
Y26930D1*
Y26900D1*
Y26870D1*
Y26840D1*
Y26810D1*
Y26780D1*
Y26750D1*
Y26720D1*
Y26691D1*
Y26661D1*
Y26631D1*
Y26601D1*
Y26571D1*
Y26541D1*
Y26511D1*
Y26481D1*
Y26451D1*
Y26421D1*
Y26391D1*
Y26361D1*
Y26331D1*
Y26302D1*
Y26272D1*
Y26242D1*
Y26212D1*
Y26182D1*
Y26152D1*
Y26122D1*
Y26092D1*
Y26062D1*
Y26032D1*
Y26002D1*
Y25972D1*
Y25943D1*
Y25913D1*
Y25883D1*
Y25853D1*
Y25823D1*
Y25793D1*
Y25763D1*
Y25733D1*
Y25703D1*
Y25673D1*
Y25643D1*
Y25613D1*
Y25583D1*
Y25554D1*
Y25524D1*
Y25494D1*
Y25464D1*
Y25434D1*
Y25404D1*
Y25374D1*
Y25344D1*
Y25314D1*
Y25284D1*
Y25254D1*
Y25224D1*
Y25194D1*
Y25165D1*
Y25135D1*
Y25105D1*
Y25075D1*
Y25045D1*
Y25015D1*
Y24985D1*
Y24955D1*
Y24925D1*
Y24895D1*
Y24865D1*
Y24835D1*
Y24806D1*
Y24776D1*
Y24746D1*
Y24716D1*
Y24686D1*
Y24656D1*
Y24626D1*
Y24596D1*
Y24566D1*
Y24536D1*
Y24506D1*
Y24476D1*
Y24446D1*
Y24417D1*
Y24387D1*
Y24357D1*
Y24327D1*
Y24297D1*
Y24267D1*
Y24237D1*
Y24207D1*
Y24177D1*
Y24147D1*
Y24117D1*
Y24087D1*
Y24057D1*
Y24028D1*
Y23998D1*
Y23968D1*
Y23938D1*
Y23908D1*
Y23878D1*
Y23848D1*
Y23818D1*
Y23788D1*
Y23758D1*
Y23728D1*
Y23698D1*
Y23669D1*
Y23639D1*
Y23609D1*
Y23579D1*
Y23549D1*
Y23519D1*
Y23489D1*
Y23459D1*
Y23429D1*
Y23399D1*
Y23369D1*
Y23339D1*
Y23309D1*
Y23280D1*
Y23250D1*
Y23220D1*
Y23190D1*
Y23160D1*
Y23130D1*
Y23100D1*
Y23070D1*
Y23040D1*
Y23010D1*
Y22980D1*
Y22950D1*
Y22920D1*
Y22891D1*
Y22861D1*
Y22831D1*
Y22801D1*
Y22771D1*
Y22741D1*
Y22711D1*
Y22681D1*
Y22651D1*
Y22621D1*
Y22591D1*
Y22561D1*
Y22531D1*
Y22502D1*
Y22472D1*
Y22442D1*
Y22412D1*
Y22382D1*
Y22352D1*
Y22322D1*
Y22292D1*
Y22262D1*
Y22232D1*
Y22202D1*
Y22172D1*
Y22143D1*
Y22113D1*
Y22083D1*
Y22053D1*
Y22023D1*
Y21993D1*
Y21963D1*
Y21933D1*
Y21903D1*
Y21873D1*
Y21843D1*
Y21813D1*
Y21783D1*
Y21754D1*
Y21724D1*
Y21694D1*
Y21664D1*
Y21634D1*
Y21604D1*
Y21574D1*
Y21544D1*
Y21514D1*
Y21484D1*
Y21454D1*
Y21424D1*
Y21394D1*
Y21365D1*
Y21335D1*
Y21305D1*
Y21275D1*
Y21245D1*
Y21215D1*
Y21185D1*
Y21155D1*
Y21125D1*
Y21095D1*
Y21065D1*
Y21035D1*
Y21006D1*
Y20976D1*
Y20946D1*
Y20916D1*
Y20886D1*
Y20856D1*
Y20826D1*
Y20796D1*
Y20766D1*
Y20736D1*
Y20706D1*
Y20676D1*
Y20646D1*
Y20617D1*
Y20587D1*
Y20557D1*
Y20527D1*
Y20497D1*
Y20467D1*
Y20437D1*
Y20407D1*
Y20377D1*
Y20347D1*
Y20317D1*
Y20287D1*
Y20257D1*
Y20228D1*
X13271Y26960D2*
Y26930D1*
Y26900D1*
Y26870D1*
Y26840D1*
Y26810D1*
Y26780D1*
Y26750D1*
Y26720D1*
Y26691D1*
Y26661D1*
Y26631D1*
Y26601D1*
Y26571D1*
Y26541D1*
Y26511D1*
Y26481D1*
Y26451D1*
Y26421D1*
Y26391D1*
Y26361D1*
Y26331D1*
Y26302D1*
Y26272D1*
Y26242D1*
Y26212D1*
Y26182D1*
Y26152D1*
Y26122D1*
Y26092D1*
Y26062D1*
Y26032D1*
Y26002D1*
Y25972D1*
Y25943D1*
Y25913D1*
Y25883D1*
Y25853D1*
Y25823D1*
Y25793D1*
Y25763D1*
Y25733D1*
Y25703D1*
Y25673D1*
Y25643D1*
Y25613D1*
Y25583D1*
Y25554D1*
X13272Y25524D1*
X13277Y25494D1*
X13287Y25464D1*
X13301Y25434D1*
X15186Y26272D2*
X15014Y26242D1*
X14860Y26212D1*
X14723Y26182D1*
X14600Y26152D1*
X14490Y26122D1*
X14393Y26092D1*
X14309Y26062D1*
X14233Y26032D1*
X14161Y26002D1*
X14095Y25972D1*
X14036Y25943D1*
X13981Y25913D1*
X13926Y25883D1*
X13873Y25853D1*
X13822Y25823D1*
X13774Y25793D1*
X13728Y25763D1*
X13683Y25733D1*
X13638Y25703D1*
X13594Y25673D1*
X13552Y25643D1*
X13511Y25613D1*
X13471Y25583D1*
X13431Y25554D1*
X13395Y25524D1*
X13357Y25494D1*
X13315Y25464D1*
X13271Y25434D1*
X15844Y26272D2*
X15986Y26242D1*
X16110Y26212D1*
X16217Y26182D1*
X16311Y26152D1*
X16392Y26122D1*
X16463Y26092D1*
X16527Y26062D1*
X16586Y26032D1*
X16638Y26002D1*
X16686Y25972D1*
X16729Y25943D1*
X16770Y25913D1*
X16811Y25883D1*
X16850Y25853D1*
X16886Y25823D1*
X16919Y25793D1*
X16950Y25763D1*
X16981Y25733D1*
X17011Y25703D1*
X17041Y25673D1*
X17071Y25643D1*
X17101Y25613D1*
X17131Y25583D1*
X17161Y25554D1*
X17189Y25524D1*
X17215Y25494D1*
X17238Y25464D1*
X17260Y25434D1*
X17284Y25404D1*
X17307Y25374D1*
X17328Y25344D1*
X17346Y25314D1*
X17363Y25284D1*
X17381Y25254D1*
X17401Y25224D1*
X17419Y25194D1*
X17436Y25165D1*
X17452Y25135D1*
X17467Y25105D1*
X17482Y25075D1*
X17497Y25045D1*
X17512Y25015D1*
X17527Y24985D1*
X17542Y24955D1*
X17556Y24925D1*
X17568Y24895D1*
X17579Y24865D1*
X17590Y24835D1*
X17603Y24806D1*
X17616Y24776D1*
X17628Y24746D1*
X17639Y24716D1*
X17649Y24686D1*
X17659Y24656D1*
X17669Y24626D1*
X17679Y24596D1*
X17689Y24566D1*
X17699Y24536D1*
X17709Y24506D1*
X17718Y24476D1*
X17725Y24446D1*
X17732Y24417D1*
X17740Y24387D1*
X17749Y24357D1*
X17755Y24327D1*
X17762Y24297D1*
X17770Y24267D1*
X17779Y24237D1*
X17784Y24207D1*
X17787Y24177D1*
X17789Y24147D1*
X17794Y24117D1*
X17801Y24087D1*
X17809Y24057D1*
X17814Y24028D1*
X17817Y23998D1*
X17818Y23968D1*
X17819Y23938D1*
X17820Y23908D1*
X17824Y23878D1*
X17831Y23848D1*
X17839Y23818D1*
X17844Y23788D1*
X17847Y23758D1*
X17848Y23728D1*
X17849Y23698D1*
Y23669D1*
Y23639D1*
Y23609D1*
Y23579D1*
Y23549D1*
Y23519D1*
Y23489D1*
Y23459D1*
Y23429D1*
Y23399D1*
Y23369D1*
Y23339D1*
Y23309D1*
Y23280D1*
Y23250D1*
Y23220D1*
X17848Y23190D1*
X17844Y23160D1*
X17837Y23130D1*
X17829Y23100D1*
X17824Y23070D1*
X17821Y23040D1*
X17820Y23010D1*
X17819Y22980D1*
Y22950D1*
X17818Y22920D1*
X17814Y22891D1*
X17807Y22861D1*
X17799Y22831D1*
X17794Y22801D1*
X17791Y22771D1*
X17789Y22741D1*
X17784Y22711D1*
X17777Y22681D1*
X17769Y22651D1*
X17764Y22621D1*
X17760Y22591D1*
X17755Y22561D1*
X17747Y22531D1*
X17739Y22502D1*
X17733Y22472D1*
X17726Y22442D1*
X17718Y22412D1*
X17708Y22382D1*
X17699Y22352D1*
X17689Y22322D1*
X17679Y22292D1*
X17670Y22262D1*
X17659Y22232D1*
X17650Y22202D1*
X17643Y22172D1*
X17637Y22143D1*
X17628Y22113D1*
X17619Y22083D1*
X17609Y22053D1*
X17599Y22023D1*
X17589Y21993D1*
X17580Y21963D1*
X17568Y21933D1*
X17556Y21903D1*
X17543Y21873D1*
X17531Y21843D1*
X17520Y21813D1*
X17510Y21783D1*
X17500Y21754D1*
X17490Y21724D1*
X17479Y21694D1*
X17466Y21664D1*
X17452Y21634D1*
X17437Y21604D1*
X17423Y21574D1*
X17411Y21544D1*
X17401Y21514D1*
X17389Y21484D1*
X17376Y21454D1*
X17362Y21424D1*
X17346Y21394D1*
X17329Y21365D1*
X17309Y21335D1*
X17291Y21305D1*
X17274Y21275D1*
X17258Y21245D1*
X17243Y21215D1*
X17228Y21185D1*
X17213Y21155D1*
X17197Y21125D1*
X17179Y21095D1*
X17160Y21065D1*
X17142Y21035D1*
X17125Y21006D1*
X17108Y20976D1*
X17090Y20946D1*
X17070Y20916D1*
X17051Y20886D1*
X17031Y20856D1*
X17011Y20826D1*
X16991Y20796D1*
X16970Y20766D1*
X16947Y20736D1*
X16924Y20706D1*
X16903Y20676D1*
X16881Y20646D1*
X16858Y20617D1*
X16834Y20587D1*
X16813Y20557D1*
X16791Y20527D1*
X16767Y20497D1*
X16741Y20467D1*
X16716Y20437D1*
X16694Y20407D1*
X16672Y20377D1*
X16647Y20347D1*
X16620Y20317D1*
X16591Y20287D1*
X16562Y20257D1*
X16532Y20228D1*
X16502Y20198D1*
X16472Y20168D1*
X16443Y20138D1*
X16413Y20108D1*
X16383Y20078D1*
X16353Y20048D1*
X16323Y20018D1*
X16294Y19988D1*
X16268Y19958D1*
X16245Y19928D1*
X16223Y19898D1*
X16198Y19869D1*
X16171Y19839D1*
X16144Y19809D1*
X16118Y19779D1*
X16096Y19749D1*
X16074Y19719D1*
X16054Y19689D1*
X16034Y19659D1*
X16014Y19629D1*
X15994Y19599D1*
X15975Y19569D1*
X15958Y19539D1*
X15942Y19509D1*
X15927Y19480D1*
X15911Y19450D1*
X15896Y19420D1*
X15881Y19390D1*
X15867Y19360D1*
X15852Y19330D1*
X15838Y19300D1*
X15826Y19270D1*
X15815Y19240D1*
X15803Y19210D1*
X15790Y19180D1*
X15777Y19150D1*
X15767Y19120D1*
X15759Y19091D1*
X15752Y19061D1*
X15743Y19031D1*
X15735Y19001D1*
X15729Y18971D1*
X15727Y18941D1*
X15725Y18911D1*
Y18881D1*
Y18851D1*
X15724Y18821D1*
Y18791D1*
Y18761D1*
Y18731D1*
X15725Y18702D1*
X15726Y18672D1*
X15731Y18642D1*
X15743Y18612D1*
X15762Y18582D1*
X15784Y18552D1*
X15808Y18522D1*
X15837Y18492D1*
X15870Y18462D1*
X15908Y18432D1*
X15959Y18402D1*
X16037Y18372D1*
X16153Y18343D1*
X16293Y18313D1*
X15515Y25404D2*
X15319Y25374D1*
X15140Y25344D1*
X14988Y25314D1*
X14862Y25284D1*
X14758Y25254D1*
X14670Y25224D1*
X14594Y25194D1*
X14525Y25165D1*
X14462Y25135D1*
X14403Y25105D1*
X14347Y25075D1*
X14292Y25045D1*
X14241Y25015D1*
X14193Y24985D1*
X14147Y24955D1*
X14103Y24925D1*
X14062Y24895D1*
X14025Y24865D1*
X13991Y24835D1*
X13959Y24806D1*
X13925Y24776D1*
X13887Y24746D1*
X13850Y24716D1*
X13814Y24686D1*
X13783Y24656D1*
X13755Y24626D1*
X13732Y24596D1*
X13710Y24566D1*
X13685Y24536D1*
X13659Y24506D1*
X13634Y24476D1*
X13612Y24446D1*
X13590Y24417D1*
X13565Y24387D1*
X13538Y24357D1*
X13511Y24327D1*
X13485Y24297D1*
X13464Y24267D1*
X13445Y24237D1*
X13428Y24207D1*
X13409Y24177D1*
X13390Y24147D1*
X13372Y24117D1*
X13355Y24087D1*
X13338Y24057D1*
X13320Y24028D1*
X13301Y23998D1*
X13287Y23968D1*
X13278Y23938D1*
X13274Y23908D1*
X13272Y23878D1*
X13271Y23848D1*
Y23818D1*
Y23788D1*
Y23758D1*
Y23728D1*
Y23698D1*
Y23669D1*
Y23639D1*
Y23609D1*
Y23579D1*
Y23549D1*
Y23519D1*
Y23489D1*
Y23459D1*
Y23429D1*
Y23399D1*
Y23369D1*
Y23339D1*
Y23309D1*
Y23280D1*
Y23250D1*
Y23220D1*
Y23190D1*
Y23160D1*
Y23130D1*
Y23100D1*
Y23070D1*
Y23040D1*
Y23010D1*
Y22980D1*
Y22950D1*
Y22920D1*
Y22891D1*
Y22861D1*
Y22831D1*
Y22801D1*
Y22771D1*
Y22741D1*
Y22711D1*
Y22681D1*
Y22651D1*
Y22621D1*
Y22591D1*
Y22561D1*
Y22531D1*
Y22502D1*
Y22472D1*
Y22442D1*
Y22412D1*
Y22382D1*
Y22352D1*
Y22322D1*
Y22292D1*
Y22262D1*
Y22232D1*
Y22202D1*
Y22172D1*
Y22143D1*
Y22113D1*
Y22083D1*
Y22053D1*
Y22023D1*
Y21993D1*
Y21963D1*
Y21933D1*
Y21903D1*
Y21873D1*
Y21843D1*
Y21813D1*
Y21783D1*
Y21754D1*
Y21724D1*
Y21694D1*
Y21664D1*
Y21634D1*
Y21604D1*
Y21574D1*
Y21544D1*
Y21514D1*
Y21484D1*
Y21454D1*
Y21424D1*
Y21394D1*
Y21365D1*
Y21335D1*
Y21305D1*
Y21275D1*
Y21245D1*
Y21215D1*
Y21185D1*
Y21155D1*
Y21125D1*
Y21095D1*
Y21065D1*
Y21035D1*
Y21006D1*
Y20976D1*
Y20946D1*
Y20916D1*
Y20886D1*
Y20856D1*
Y20826D1*
Y20796D1*
Y20766D1*
Y20736D1*
Y20706D1*
Y20676D1*
Y20646D1*
Y20617D1*
Y20587D1*
Y20557D1*
Y20527D1*
Y20497D1*
Y20467D1*
Y20437D1*
Y20407D1*
Y20377D1*
Y20347D1*
Y20317D1*
Y20287D1*
Y20257D1*
Y20228D1*
X15605Y25404D2*
X15741Y25374D1*
X15861Y25344D1*
X15959Y25314D1*
X16037Y25284D1*
X16102Y25254D1*
X16158Y25224D1*
X16206Y25194D1*
X16249Y25165D1*
X16287Y25135D1*
X16320Y25105D1*
X16352Y25075D1*
X16382Y25045D1*
X16412Y25015D1*
X16442Y24985D1*
X16472Y24955D1*
X16501Y24925D1*
X16527Y24895D1*
X16550Y24865D1*
X16571Y24835D1*
X16592Y24806D1*
X16611Y24776D1*
X16628Y24746D1*
X16644Y24716D1*
X16659Y24686D1*
X16674Y24656D1*
X16689Y24626D1*
X16704Y24596D1*
X16718Y24566D1*
X16730Y24536D1*
X16741Y24506D1*
X16753Y24476D1*
X16766Y24446D1*
X16779Y24417D1*
X16790Y24387D1*
X16801Y24357D1*
X16811Y24327D1*
X16821Y24297D1*
X16827Y24267D1*
X16834Y24237D1*
X16843Y24207D1*
X16851Y24177D1*
X16858Y24147D1*
X16864Y24117D1*
X16873Y24087D1*
X16881Y24057D1*
X16886Y24028D1*
X16889Y23998D1*
X16892Y23968D1*
X16896Y23938D1*
X16903Y23908D1*
X16911Y23878D1*
X16916Y23848D1*
X16919Y23818D1*
X16921Y23788D1*
X16922Y23758D1*
X16926Y23728D1*
X16933Y23698D1*
X16941Y23669D1*
X16946Y23639D1*
X16949Y23609D1*
X16950Y23579D1*
X16951Y23549D1*
Y23519D1*
Y23489D1*
Y23459D1*
Y23429D1*
Y23399D1*
Y23369D1*
X16950Y23339D1*
X16946Y23309D1*
X16939Y23280D1*
X16931Y23250D1*
X16926Y23220D1*
X16923Y23190D1*
X16922Y23160D1*
X16920Y23130D1*
X16916Y23100D1*
X16909Y23070D1*
X16901Y23040D1*
X16896Y23010D1*
X16893Y22980D1*
X16892Y22950D1*
X16890Y22920D1*
X16886Y22891D1*
X16879Y22861D1*
X16872Y22831D1*
X16866Y22801D1*
X16862Y22771D1*
X16857Y22741D1*
X16849Y22711D1*
X16841Y22681D1*
X16831Y22651D1*
X16821Y22621D1*
X16812Y22591D1*
X16806Y22561D1*
X16799Y22531D1*
X16790Y22502D1*
X16781Y22472D1*
X16772Y22442D1*
X16762Y22412D1*
X16753Y22382D1*
X16746Y22352D1*
X16739Y22322D1*
X16729Y22292D1*
X16717Y22262D1*
X16705Y22232D1*
X16693Y22202D1*
X16683Y22172D1*
X16672Y22143D1*
X16662Y22113D1*
X16652Y22083D1*
X16641Y22053D1*
X16628Y22023D1*
X16614Y21993D1*
X16599Y21963D1*
X16585Y21933D1*
X16570Y21903D1*
X16555Y21873D1*
X16540Y21843D1*
X16525Y21813D1*
X16510Y21783D1*
X16495Y21754D1*
X16480Y21724D1*
X16465Y21694D1*
X16450Y21664D1*
X16435Y21634D1*
X16420Y21604D1*
X16405Y21574D1*
X16389Y21544D1*
X16371Y21514D1*
X16352Y21484D1*
X16333Y21454D1*
X16313Y21424D1*
X16293Y21394D1*
X16273Y21365D1*
X16253Y21335D1*
X16233Y21305D1*
X16213Y21275D1*
X16192Y21245D1*
X16169Y21215D1*
X16146Y21185D1*
X16125Y21155D1*
X16103Y21125D1*
X16079Y21095D1*
X16053Y21065D1*
X16028Y21035D1*
X16006Y21006D1*
X15983Y20976D1*
X15959Y20946D1*
X15932Y20916D1*
X15903Y20886D1*
X15873Y20856D1*
X15840Y20826D1*
X15807Y20796D1*
X15777Y20766D1*
X15749Y20736D1*
X15722Y20706D1*
X15693Y20676D1*
X15664Y20646D1*
X15634Y20617D1*
X15605Y20587D1*
X15576Y20557D1*
X15550Y20527D1*
X15527Y20497D1*
X15505Y20467D1*
X15481Y20437D1*
X15458Y20407D1*
X15437Y20377D1*
X15415Y20347D1*
X15390Y20317D1*
X15364Y20287D1*
X15340Y20257D1*
X15317Y20228D1*
X15296Y20198D1*
X15276Y20168D1*
X15256Y20138D1*
X15236Y20108D1*
X15216Y20078D1*
X15197Y20048D1*
X15180Y20018D1*
X15164Y19988D1*
X15149Y19958D1*
X15134Y19928D1*
X15119Y19898D1*
X15104Y19869D1*
X15089Y19839D1*
X15074Y19809D1*
X15059Y19779D1*
X15044Y19749D1*
X15029Y19719D1*
X15014Y19689D1*
X14999Y19659D1*
X14984Y19629D1*
X14970Y19599D1*
X14958Y19569D1*
X14947Y19539D1*
X14937Y19509D1*
X14926Y19480D1*
X14917Y19450D1*
X14907Y19420D1*
X14897Y19390D1*
X14891Y19360D1*
X14884Y19330D1*
X14875Y19300D1*
X14867Y19270D1*
X14862Y19240D1*
X14858Y19210D1*
X14853Y19180D1*
X14845Y19150D1*
X14837Y19120D1*
X14832Y19091D1*
X14829Y19061D1*
X14827Y19031D1*
X14826Y19001D1*
X14822Y18971D1*
X14815Y18941D1*
X14807Y18911D1*
X14802Y18881D1*
X14799Y18851D1*
X14798Y18821D1*
X14797Y18791D1*
Y18761D1*
Y18731D1*
Y18702D1*
X14798Y18672D1*
X14802Y18642D1*
X14809Y18612D1*
X14817Y18582D1*
X14822Y18552D1*
X14826Y18522D1*
X14831Y18492D1*
X14839Y18462D1*
X14847Y18432D1*
X14853Y18402D1*
X14860Y18372D1*
X14869Y18343D1*
X14881Y18313D1*
X14894Y18283D1*
X14905Y18253D1*
X14916Y18223D1*
X14928Y18193D1*
X14942Y18163D1*
X14960Y18133D1*
X14981Y18103D1*
X15004Y18073D1*
X15025Y18043D1*
X15046Y18013D1*
X15066Y17983D1*
X15086Y17954D1*
X15107Y17924D1*
X15131Y17894D1*
X15159Y17864D1*
X15192Y17834D1*
X15228Y17804D1*
X15266Y17774D1*
X15302Y17744D1*
X15339Y17714D1*
X15382Y17684D1*
X15428Y17654D1*
X15476Y17624D1*
X15526Y17594D1*
X15582Y17565D1*
X15644Y17535D1*
X15720Y17505D1*
X15811Y17475D1*
X15915Y17445D1*
X16024Y17415D1*
X16742Y18761D2*
X16712Y18731D1*
X16682Y18702D1*
X16652Y18672D1*
X16622Y18642D1*
X16592Y18612D1*
X16562Y18582D1*
X16531Y18552D1*
X16497Y18522D1*
X16460Y18492D1*
X16422Y18462D1*
X16382Y18432D1*
X16335Y18402D1*
X16268Y18372D1*
X16171Y18343D1*
X16054Y18313D1*
X16772Y18761D2*
X16802Y18731D1*
X16831Y18702D1*
X16861Y18672D1*
X16891Y18642D1*
X16921Y18612D1*
X16951Y18582D1*
X16982Y18552D1*
X17016Y18522D1*
X17053Y18492D1*
X17091Y18462D1*
X17126Y18432D1*
X17159Y18402D1*
X17190Y18372D1*
X17220Y18343D1*
X17250Y18313D1*
X17280Y18283D1*
X17310Y18253D1*
X17339Y18223D1*
X17364Y18193D1*
X17384Y18163D1*
X17390Y18133D1*
X17382Y18103D1*
X17357Y18073D1*
X17324Y18043D1*
X17289Y18013D1*
X17255Y17983D1*
X17222Y17954D1*
X17191Y17924D1*
X17161Y17894D1*
X17130Y17864D1*
X17096Y17834D1*
X17059Y17804D1*
X17020Y17774D1*
X16981Y17744D1*
X16941Y17714D1*
X16901Y17684D1*
X16860Y17654D1*
X16816Y17624D1*
X16769Y17594D1*
X16720Y17565D1*
X16664Y17535D1*
X16597Y17505D1*
X16516Y17475D1*
X16422Y17445D1*
X16323Y17415D1*
X16824Y16793D2*
D117*
Y17094D1*
X17003Y16793D2*
X16974Y16807D1*
X16946Y16836D1*
X16931Y16864D1*
X16917Y16907D1*
Y16979D1*
X16931Y17022D1*
X16946Y17051D1*
X16974Y17080D1*
X17003Y17094D1*
X17060D1*
X17089Y17080D1*
X17118Y17051D1*
X17132Y17022D1*
X17146Y16979D1*
Y16907D1*
X17132Y16864D1*
X17118Y16836D1*
X17089Y16807D1*
X17060Y16793D1*
X17003D1*
X17310D2*
X17268Y16807D1*
X17253Y16836D1*
Y16865D1*
X17268Y16893D1*
X17296Y16908D1*
X17354Y16922D1*
X17397Y16936D1*
X17425Y16965D1*
X17439Y16994D1*
Y17037D1*
X17425Y17065D1*
X17411Y17080D1*
X17368Y17094D1*
X17310D1*
X17268Y17080D1*
X17253Y17065D1*
X17239Y17037D1*
Y16994D1*
X17253Y16965D1*
X17282Y16936D1*
X17325Y16922D1*
X17382Y16908D1*
X17411Y16893D1*
X17425Y16865D1*
Y16836D1*
X17411Y16807D1*
X17368Y16793D1*
X17310D1*
X16688Y15206D2*
D118*
X16726Y15282D1*
X16803Y15359D1*
X16879Y15397D1*
X17032D1*
X17109Y15359D1*
X17185Y15282D1*
X17224Y15206D1*
X17262Y15091D1*
Y14899D1*
X17224Y14785D1*
X17185Y14708D1*
X17109Y14632D1*
X17032Y14593D1*
X16879D1*
X16803Y14632D1*
X16726Y14708D1*
X16688Y14785D1*
X16441Y15014D2*
X16097D1*
X15982Y15053D1*
X15943Y15091D1*
X15905Y15167D1*
Y15244D1*
X15943Y15320D1*
X15982Y15359D1*
X16097Y15397D1*
X16441D1*
Y14593D1*
X16173Y15014D2*
X15905Y14593D1*
X15619Y15205D2*
Y15243D1*
X15581Y15320D1*
X15543Y15358D1*
X15466Y15396D1*
X15313D1*
X15237Y15358D1*
X15199Y15320D1*
X15160Y15243D1*
Y15167D1*
X15199Y15090D1*
X15275Y14976D1*
X15658Y14593D1*
X15122D1*
X14492D2*
Y15396D1*
X14875Y14861D1*
X14301D1*
X13595Y15396D2*
X13977D1*
X14015Y15052D1*
X13977Y15090D1*
X13862Y15129D1*
X13748D1*
X13633Y15090D1*
X13556Y15014D1*
X13518Y14899D1*
Y14823D1*
X13556Y14708D1*
X13633Y14631D1*
X13748Y14593D1*
X13862D1*
X13977Y14631D1*
X14015Y14670D1*
X14054Y14746D1*
X13041Y15396D2*
X13156Y15358D1*
X13233Y15243D1*
X13271Y15052D1*
Y14937D1*
X13233Y14746D1*
X13156Y14631D1*
X13041Y14593D1*
X12965D1*
X12850Y14631D1*
X12774Y14746D1*
X12735Y14937D1*
Y15052D1*
X12774Y15243D1*
X12850Y15358D1*
X12965Y15396D1*
X13041D1*
X12774Y15243D2*
X13233Y14746D1*
M02*
